%TF.GenerationSoftware,KiCad,Pcbnew,9.0.7*%
%TF.CreationDate,2026-03-23T15:20:47-04:00*%
%TF.ProjectId,lm5022-flyback,6c6d3530-3232-42d6-966c-796261636b2e,rev?*%
%TF.SameCoordinates,Original*%
%TF.FileFunction,Legend,Bot*%
%TF.FilePolarity,Positive*%
%FSLAX46Y46*%
G04 Gerber Fmt 4.6, Leading zero omitted, Abs format (unit mm)*
G04 Created by KiCad (PCBNEW 9.0.7) date 2026-03-23 15:20:47*
%MOMM*%
%LPD*%
G01*
G04 APERTURE LIST*
%ADD10C,0.150000*%
%ADD11C,0.120000*%
G04 APERTURE END LIST*
D10*
X73484819Y-92557142D02*
X73008628Y-92223809D01*
X73484819Y-91985714D02*
X72484819Y-91985714D01*
X72484819Y-91985714D02*
X72484819Y-92366666D01*
X72484819Y-92366666D02*
X72532438Y-92461904D01*
X72532438Y-92461904D02*
X72580057Y-92509523D01*
X72580057Y-92509523D02*
X72675295Y-92557142D01*
X72675295Y-92557142D02*
X72818152Y-92557142D01*
X72818152Y-92557142D02*
X72913390Y-92509523D01*
X72913390Y-92509523D02*
X72961009Y-92461904D01*
X72961009Y-92461904D02*
X73008628Y-92366666D01*
X73008628Y-92366666D02*
X73008628Y-91985714D01*
X73484819Y-93509523D02*
X73484819Y-92938095D01*
X73484819Y-93223809D02*
X72484819Y-93223809D01*
X72484819Y-93223809D02*
X72627676Y-93128571D01*
X72627676Y-93128571D02*
X72722914Y-93033333D01*
X72722914Y-93033333D02*
X72770533Y-92938095D01*
X72484819Y-94366666D02*
X72484819Y-94176190D01*
X72484819Y-94176190D02*
X72532438Y-94080952D01*
X72532438Y-94080952D02*
X72580057Y-94033333D01*
X72580057Y-94033333D02*
X72722914Y-93938095D01*
X72722914Y-93938095D02*
X72913390Y-93890476D01*
X72913390Y-93890476D02*
X73294342Y-93890476D01*
X73294342Y-93890476D02*
X73389580Y-93938095D01*
X73389580Y-93938095D02*
X73437200Y-93985714D01*
X73437200Y-93985714D02*
X73484819Y-94080952D01*
X73484819Y-94080952D02*
X73484819Y-94271428D01*
X73484819Y-94271428D02*
X73437200Y-94366666D01*
X73437200Y-94366666D02*
X73389580Y-94414285D01*
X73389580Y-94414285D02*
X73294342Y-94461904D01*
X73294342Y-94461904D02*
X73056247Y-94461904D01*
X73056247Y-94461904D02*
X72961009Y-94414285D01*
X72961009Y-94414285D02*
X72913390Y-94366666D01*
X72913390Y-94366666D02*
X72865771Y-94271428D01*
X72865771Y-94271428D02*
X72865771Y-94080952D01*
X72865771Y-94080952D02*
X72913390Y-93985714D01*
X72913390Y-93985714D02*
X72961009Y-93938095D01*
X72961009Y-93938095D02*
X73056247Y-93890476D01*
D11*
%TO.C,R16*%
X73820000Y-93046359D02*
X73820000Y-93353641D01*
X74580000Y-93046359D02*
X74580000Y-93353641D01*
%TD*%
M02*
