M48
; DRILL file {KiCad 9.0.6} date 2026-04-07T18:45:21-0400
; FORMAT={-:-/ absolute / metric / decimal}
; #@! TF.CreationDate,2026-04-07T18:45:21-04:00
; #@! TF.GenerationSoftware,Kicad,Pcbnew,9.0.6
; #@! TF.FileFunction,Plated,1,2,PTH
FMAT,2
METRIC
; #@! TA.AperFunction,Plated,PTH,ViaDrill
T1C0.300
; #@! TA.AperFunction,Plated,PTH,ComponentDrill
T2C0.800
; #@! TA.AperFunction,Plated,PTH,ComponentDrill
T3C1.000
%
G90
G05
T1
X53.515Y-71.637
X53.515Y-79.257
X53.515Y-91.957
X53.515Y-94.497
X53.515Y-97.037
X53.515Y-99.577
X53.515Y-109.737
X54.1Y-75.0
X54.1Y-104.4
X56.055Y-71.637
X56.055Y-79.257
X56.055Y-91.957
X56.055Y-94.497
X56.055Y-97.037
X56.055Y-99.577
X56.055Y-109.737
X58.595Y-71.637
X58.595Y-79.257
X58.595Y-81.797
X58.595Y-84.337
X58.595Y-91.957
X58.595Y-94.497
X58.595Y-97.037
X58.595Y-99.577
X58.595Y-102.117
X58.595Y-107.197
X58.595Y-109.737
X61.135Y-71.637
X61.135Y-79.257
X61.135Y-81.797
X61.135Y-84.337
X61.135Y-91.957
X61.135Y-94.497
X61.135Y-97.037
X61.135Y-102.117
X61.135Y-107.197
X61.135Y-109.737
X63.675Y-71.637
X63.675Y-79.257
X63.675Y-81.797
X63.675Y-84.337
X63.675Y-91.957
X63.675Y-97.037
X63.675Y-107.197
X63.675Y-109.737
X65.4Y-95.6
X65.9Y-98.0
X66.215Y-71.637
X66.215Y-107.197
X66.215Y-109.737
X68.3Y-99.0
X68.755Y-71.637
X68.755Y-107.197
X68.755Y-109.737
X69.0Y-98.0
X69.2Y-94.2
X70.1Y-103.4
X70.47Y-97.455
X70.52Y-98.3
X71.295Y-107.197
X71.295Y-109.737
X71.92Y-98.2
X72.1Y-71.7
X73.0Y-71.7
X73.835Y-102.117
X73.835Y-109.737
X73.9Y-71.7
X74.4Y-97.1
X75.8Y-71.6
X76.375Y-99.577
X76.375Y-102.117
X76.375Y-109.737
X76.7Y-71.6
X77.4Y-88.7
X77.4Y-94.175
X77.6Y-71.6
X78.7Y-98.2
X78.7Y-99.0
X78.915Y-102.117
X78.915Y-109.737
X79.5Y-98.2
X79.5Y-99.0
X80.3Y-98.2
X80.3Y-99.0
X81.1Y-98.2
X81.1Y-99.0
X81.455Y-71.637
X81.455Y-102.117
X81.455Y-109.737
X81.9Y-98.2
X81.9Y-99.0
X82.7Y-98.2
X82.7Y-99.0
X83.5Y-98.2
X83.5Y-99.0
X83.995Y-71.637
X83.995Y-74.177
X83.995Y-102.117
X83.995Y-109.737
X84.3Y-98.2
X84.3Y-99.0
X86.535Y-99.577
X86.535Y-102.117
X89.075Y-99.577
X89.075Y-102.117
X89.075Y-109.737
X91.615Y-109.737
X110.1Y-103.4
X110.1Y-110.1
X117.3Y-83.3
X129.5Y-81.5
X129.5Y-91.5
T2
X90.785Y-104.335
X90.785Y-106.875
X98.405Y-104.335
X98.405Y-106.875
T3
X62.5Y-100.3
X66.2Y-101.8
X68.0Y-84.0
X70.1Y-92.2
X75.5Y-93.4
X79.8Y-84.9
X80.2Y-78.0
X83.3Y-81.96
X83.3Y-84.5
X83.3Y-87.04
X86.2Y-104.6
X86.2Y-108.2
X101.6Y-104.7
X101.6Y-108.2
X106.8Y-91.6
X107.3Y-78.0
X107.9Y-81.96
X107.9Y-84.5
X107.9Y-87.04
X113.4Y-107.0
X122.2Y-80.6
M30
