%TF.GenerationSoftware,KiCad,Pcbnew,9.0.7*%
%TF.CreationDate,2026-03-23T15:20:46-04:00*%
%TF.ProjectId,lm5022-flyback,6c6d3530-3232-42d6-966c-796261636b2e,rev?*%
%TF.SameCoordinates,Original*%
%TF.FileFunction,Copper,L2,Bot*%
%TF.FilePolarity,Positive*%
%FSLAX46Y46*%
G04 Gerber Fmt 4.6, Leading zero omitted, Abs format (unit mm)*
G04 Created by KiCad (PCBNEW 9.0.7) date 2026-03-23 15:20:46*
%MOMM*%
%LPD*%
G01*
G04 APERTURE LIST*
G04 Aperture macros list*
%AMRoundRect*
0 Rectangle with rounded corners*
0 $1 Rounding radius*
0 $2 $3 $4 $5 $6 $7 $8 $9 X,Y pos of 4 corners*
0 Add a 4 corners polygon primitive as box body*
4,1,4,$2,$3,$4,$5,$6,$7,$8,$9,$2,$3,0*
0 Add four circle primitives for the rounded corners*
1,1,$1+$1,$2,$3*
1,1,$1+$1,$4,$5*
1,1,$1+$1,$6,$7*
1,1,$1+$1,$8,$9*
0 Add four rect primitives between the rounded corners*
20,1,$1+$1,$2,$3,$4,$5,0*
20,1,$1+$1,$4,$5,$6,$7,0*
20,1,$1+$1,$6,$7,$8,$9,0*
20,1,$1+$1,$8,$9,$2,$3,0*%
G04 Aperture macros list end*
%TA.AperFunction,ComponentPad*%
%ADD10C,2.000000*%
%TD*%
%TA.AperFunction,ComponentPad*%
%ADD11RoundRect,0.250000X0.550000X0.550000X-0.550000X0.550000X-0.550000X-0.550000X0.550000X-0.550000X0*%
%TD*%
%TA.AperFunction,ComponentPad*%
%ADD12C,1.600000*%
%TD*%
%TA.AperFunction,ComponentPad*%
%ADD13RoundRect,0.127500X-0.297500X-0.297500X0.297500X-0.297500X0.297500X0.297500X-0.297500X0.297500X0*%
%TD*%
%TA.AperFunction,SMDPad,CuDef*%
%ADD14RoundRect,0.135000X-0.185000X0.135000X-0.185000X-0.135000X0.185000X-0.135000X0.185000X0.135000X0*%
%TD*%
%TA.AperFunction,ViaPad*%
%ADD15C,0.600000*%
%TD*%
%TA.AperFunction,ViaPad*%
%ADD16C,0.500000*%
%TD*%
%TA.AperFunction,Conductor*%
%ADD17C,0.500000*%
%TD*%
%TA.AperFunction,Conductor*%
%ADD18C,0.300000*%
%TD*%
G04 APERTURE END LIST*
D10*
%TO.P,TP5,1,1*%
%TO.N,HVGND*%
X106800000Y-91600000D03*
%TD*%
%TO.P,TP3,1,1*%
%TO.N,/VD*%
X79000000Y-87600000D03*
%TD*%
%TO.P,TP13,1,1*%
%TO.N,Net-(C8-Pad1)*%
X86200000Y-104600000D03*
%TD*%
%TO.P,TP11,1,1*%
%TO.N,/FB*%
X69200000Y-98800000D03*
%TD*%
%TO.P,TP6,1,1*%
%TO.N,-400V*%
X122200000Y-80600000D03*
%TD*%
%TO.P,TP7,1,1*%
%TO.N,Net-(D1-K)*%
X106600000Y-78000000D03*
%TD*%
D11*
%TO.P,U3,1*%
%TO.N,Net-(D2-K)*%
X98405000Y-106875000D03*
D12*
%TO.P,U3,2*%
%TO.N,Net-(U2-K)*%
X98405000Y-104335000D03*
%TO.P,U3,3*%
%TO.N,Net-(C8-Pad1)*%
X90785000Y-104335000D03*
%TO.P,U3,4*%
%TO.N,+6V*%
X90785000Y-106875000D03*
%TD*%
D10*
%TO.P,TP14,1,1*%
%TO.N,+6V*%
X86200000Y-108200000D03*
%TD*%
%TO.P,TP8,1,1*%
%TO.N,Net-(U2-K)*%
X101600000Y-104700000D03*
%TD*%
%TO.P,TP1,1,1*%
%TO.N,/VSN*%
X68000000Y-84000000D03*
%TD*%
%TO.P,TP2,1,1*%
%TO.N,+BATT*%
X80200000Y-78000000D03*
%TD*%
D13*
%TO.P,T1,1,AA*%
%TO.N,+BATT*%
X82300000Y-84300000D03*
%TO.P,T1,2,AB*%
%TO.N,/VD*%
X82300000Y-87700000D03*
%TO.P,T1,3,SA*%
%TO.N,HVGND*%
X106900000Y-87700000D03*
%TO.P,T1,4,SB*%
%TO.N,Net-(D1-K)*%
X106900000Y-84300000D03*
%TO.P,T1,5*%
%TO.N,N/C*%
X106900000Y-86000000D03*
%TO.P,T1,6*%
X82300000Y-86000000D03*
%TD*%
D10*
%TO.P,TP9,1,1*%
%TO.N,Net-(D2-K)*%
X101600000Y-108200000D03*
%TD*%
%TO.P,TP10,1,1*%
%TO.N,Net-(U2-REF)*%
X113400000Y-107000000D03*
%TD*%
D14*
%TO.P,R16,1*%
%TO.N,Net-(U1-COMP)*%
X74200000Y-92690000D03*
%TO.P,R16,2*%
%TO.N,/FB*%
X74200000Y-93710000D03*
%TD*%
D15*
%TO.N,GND*%
X71326905Y-89695000D03*
X73866905Y-89695000D03*
X75800000Y-71600000D03*
X68900000Y-95000000D03*
X64300000Y-106000000D03*
X78700000Y-99000000D03*
X79500000Y-98200000D03*
X68400000Y-92600000D03*
X81486905Y-110015000D03*
X61166905Y-99855000D03*
X86566905Y-99855000D03*
X74920000Y-95200000D03*
X78946905Y-107475000D03*
X66246905Y-102395000D03*
X91646905Y-110015000D03*
X81486905Y-107475000D03*
X81486905Y-102395000D03*
X68786905Y-110015000D03*
X84026905Y-102395000D03*
X71326905Y-107475000D03*
X83500000Y-99000000D03*
X83500000Y-98200000D03*
X76406905Y-107475000D03*
X58626905Y-82075000D03*
X58626905Y-110015000D03*
X72100000Y-71700000D03*
X71326905Y-110015000D03*
X64300000Y-106800000D03*
X68786905Y-107475000D03*
X73866905Y-102395000D03*
X81100000Y-99000000D03*
X61166905Y-110015000D03*
X63706905Y-82075000D03*
X58626905Y-92235000D03*
X82700000Y-98200000D03*
X68786905Y-71915000D03*
X86566905Y-102395000D03*
X58626905Y-87155000D03*
X84026905Y-84615000D03*
X66246905Y-104935000D03*
X61166905Y-92235000D03*
X72200000Y-91200000D03*
X68786905Y-104935000D03*
X81486905Y-71915000D03*
X84026905Y-79535000D03*
X84026905Y-110015000D03*
X76700000Y-71600000D03*
X58626905Y-84615000D03*
X89106905Y-99855000D03*
X66246905Y-94775000D03*
X61166905Y-71915000D03*
X71326905Y-102395000D03*
X58626905Y-89695000D03*
X63706905Y-71915000D03*
X58626905Y-99855000D03*
X63706905Y-92235000D03*
X61166905Y-89695000D03*
X76406905Y-110015000D03*
X73000000Y-71700000D03*
X58626905Y-71915000D03*
X73866905Y-110015000D03*
X80300000Y-98200000D03*
X82700000Y-99000000D03*
X61166905Y-79535000D03*
X73100000Y-100400000D03*
X61166905Y-87155000D03*
X84026905Y-76995000D03*
X61166905Y-84615000D03*
X77600000Y-71600000D03*
X58626905Y-79535000D03*
X89106905Y-110015000D03*
X89106905Y-102395000D03*
X73900000Y-71700000D03*
X63706905Y-84615000D03*
X84026905Y-74455000D03*
X79500000Y-99000000D03*
X61166905Y-82075000D03*
X84300000Y-99000000D03*
X84026905Y-71915000D03*
X64300000Y-104400000D03*
X76406905Y-104935000D03*
X63706905Y-79535000D03*
X66246905Y-71915000D03*
X64300000Y-105200000D03*
X80300000Y-99000000D03*
X84026905Y-82075000D03*
X81100000Y-98200000D03*
X78700000Y-98200000D03*
X81900000Y-98200000D03*
X78946905Y-110015000D03*
X84300000Y-98200000D03*
X66246905Y-107475000D03*
X73866905Y-104935000D03*
X64300000Y-103600000D03*
X73866905Y-107475000D03*
X86566905Y-110015000D03*
X66246905Y-110015000D03*
X63706905Y-99855000D03*
X81900000Y-99000000D03*
X63706905Y-87155000D03*
X63706905Y-110015000D03*
X77400000Y-94100000D03*
%TO.N,+6V*%
X75712500Y-94500000D03*
X71300000Y-96000000D03*
D16*
%TO.N,-400V*%
X117300000Y-83300000D03*
X110100000Y-110100000D03*
X110100000Y-103400000D03*
%TO.N,/FB*%
X72000000Y-95000000D03*
X74200000Y-93710000D03*
%TO.N,Net-(U1-COMP)*%
X74200000Y-92690000D03*
%TD*%
D17*
%TO.N,+6V*%
X75593500Y-94381000D02*
X74419000Y-94381000D01*
X72800000Y-96000000D02*
X71300000Y-96000000D01*
X74419000Y-94381000D02*
X72800000Y-96000000D01*
X75712500Y-94500000D02*
X75593500Y-94381000D01*
%TO.N,-400V*%
X110100000Y-90500000D02*
X110100000Y-103400000D01*
X110100000Y-110100000D02*
X110100000Y-103400000D01*
X117300000Y-83300000D02*
X110100000Y-90500000D01*
D18*
%TO.N,/FB*%
X72910000Y-95000000D02*
X74200000Y-93710000D01*
X72000000Y-95000000D02*
X72910000Y-95000000D01*
%TD*%
%TA.AperFunction,Conductor*%
%TO.N,GND*%
G36*
X85343039Y-69620185D02*
G01*
X85388794Y-69672989D01*
X85400000Y-69724500D01*
X85400000Y-73010481D01*
X85380315Y-73077520D01*
X85327511Y-73123275D01*
X85323456Y-73125041D01*
X85311425Y-73130024D01*
X85255024Y-73186425D01*
X85224500Y-73260116D01*
X85224500Y-73260118D01*
X85224500Y-98739882D01*
X85255024Y-98813574D01*
X85311426Y-98869976D01*
X85385118Y-98900500D01*
X85385120Y-98900500D01*
X92876000Y-98900500D01*
X92943039Y-98920185D01*
X92988794Y-98972989D01*
X93000000Y-99024500D01*
X93000000Y-112675500D01*
X92980315Y-112742539D01*
X92927511Y-112788294D01*
X92876000Y-112799500D01*
X57524000Y-112799500D01*
X57456961Y-112779815D01*
X57411206Y-112727011D01*
X57400000Y-112675500D01*
X57400000Y-108081902D01*
X84699500Y-108081902D01*
X84699500Y-108318097D01*
X84736446Y-108551368D01*
X84809433Y-108775996D01*
X84916657Y-108986433D01*
X85055483Y-109177510D01*
X85222490Y-109344517D01*
X85413567Y-109483343D01*
X85512991Y-109534002D01*
X85624003Y-109590566D01*
X85624005Y-109590566D01*
X85624008Y-109590568D01*
X85744412Y-109629689D01*
X85848631Y-109663553D01*
X86081903Y-109700500D01*
X86081908Y-109700500D01*
X86318097Y-109700500D01*
X86551368Y-109663553D01*
X86775992Y-109590568D01*
X86986433Y-109483343D01*
X87177510Y-109344517D01*
X87344517Y-109177510D01*
X87483343Y-108986433D01*
X87590568Y-108775992D01*
X87663553Y-108551368D01*
X87700500Y-108318097D01*
X87700500Y-108081902D01*
X87663553Y-107848631D01*
X87590566Y-107624003D01*
X87483342Y-107413566D01*
X87344517Y-107222490D01*
X87177510Y-107055483D01*
X86986433Y-106916657D01*
X86775996Y-106809433D01*
X86551368Y-106736446D01*
X86318097Y-106699500D01*
X86318092Y-106699500D01*
X86081908Y-106699500D01*
X86081903Y-106699500D01*
X85848631Y-106736446D01*
X85624003Y-106809433D01*
X85413566Y-106916657D01*
X85330029Y-106977351D01*
X85222490Y-107055483D01*
X85222488Y-107055485D01*
X85222487Y-107055485D01*
X85055485Y-107222487D01*
X85055485Y-107222488D01*
X85055483Y-107222490D01*
X84995862Y-107304550D01*
X84916657Y-107413566D01*
X84809433Y-107624003D01*
X84736446Y-107848631D01*
X84699500Y-108081902D01*
X57400000Y-108081902D01*
X57400000Y-104481902D01*
X84699500Y-104481902D01*
X84699500Y-104718097D01*
X84736446Y-104951368D01*
X84809433Y-105175996D01*
X84916657Y-105386433D01*
X85055483Y-105577510D01*
X85222490Y-105744517D01*
X85413567Y-105883343D01*
X85512991Y-105934002D01*
X85624003Y-105990566D01*
X85624005Y-105990566D01*
X85624008Y-105990568D01*
X85738553Y-106027786D01*
X85848631Y-106063553D01*
X86081903Y-106100500D01*
X86081908Y-106100500D01*
X86318097Y-106100500D01*
X86551368Y-106063553D01*
X86775992Y-105990568D01*
X86986433Y-105883343D01*
X87177510Y-105744517D01*
X87344517Y-105577510D01*
X87483343Y-105386433D01*
X87590568Y-105175992D01*
X87663553Y-104951368D01*
X87682107Y-104834223D01*
X87700500Y-104718097D01*
X87700500Y-104481902D01*
X87676697Y-104331626D01*
X87663553Y-104248632D01*
X87658359Y-104232648D01*
X89484500Y-104232648D01*
X89484500Y-104437351D01*
X89516522Y-104639534D01*
X89579781Y-104834223D01*
X89672715Y-105016613D01*
X89793028Y-105182213D01*
X89937786Y-105326971D01*
X90092749Y-105439556D01*
X90103390Y-105447287D01*
X90194840Y-105493883D01*
X90196080Y-105494515D01*
X90246876Y-105542490D01*
X90263671Y-105610311D01*
X90241134Y-105676446D01*
X90196080Y-105715485D01*
X90103386Y-105762715D01*
X89937786Y-105883028D01*
X89793028Y-106027786D01*
X89672715Y-106193386D01*
X89579781Y-106375776D01*
X89516522Y-106570465D01*
X89484500Y-106772648D01*
X89484500Y-106977351D01*
X89516522Y-107179534D01*
X89579781Y-107374223D01*
X89672715Y-107556613D01*
X89793028Y-107722213D01*
X89937786Y-107866971D01*
X90092749Y-107979556D01*
X90103390Y-107987287D01*
X90219607Y-108046503D01*
X90285776Y-108080218D01*
X90285778Y-108080218D01*
X90285781Y-108080220D01*
X90390137Y-108114127D01*
X90480465Y-108143477D01*
X90581557Y-108159488D01*
X90682648Y-108175500D01*
X90682649Y-108175500D01*
X90887351Y-108175500D01*
X90887352Y-108175500D01*
X91089534Y-108143477D01*
X91284219Y-108080220D01*
X91466610Y-107987287D01*
X91559590Y-107919732D01*
X91632213Y-107866971D01*
X91632215Y-107866968D01*
X91632219Y-107866966D01*
X91776966Y-107722219D01*
X91776968Y-107722215D01*
X91776971Y-107722213D01*
X91848320Y-107624008D01*
X91897287Y-107556610D01*
X91990220Y-107374219D01*
X92053477Y-107179534D01*
X92085500Y-106977352D01*
X92085500Y-106772648D01*
X92053477Y-106570466D01*
X91990220Y-106375781D01*
X91990218Y-106375778D01*
X91990218Y-106375776D01*
X91956503Y-106309607D01*
X91897287Y-106193390D01*
X91889556Y-106182749D01*
X91776971Y-106027786D01*
X91632213Y-105883028D01*
X91466614Y-105762715D01*
X91430898Y-105744517D01*
X91373917Y-105715483D01*
X91323123Y-105667511D01*
X91306328Y-105599690D01*
X91328865Y-105533555D01*
X91373917Y-105494516D01*
X91466610Y-105447287D01*
X91550369Y-105386433D01*
X91632213Y-105326971D01*
X91632215Y-105326968D01*
X91632219Y-105326966D01*
X91776966Y-105182219D01*
X91776968Y-105182215D01*
X91776971Y-105182213D01*
X91829732Y-105109590D01*
X91897287Y-105016610D01*
X91990220Y-104834219D01*
X92053477Y-104639534D01*
X92085500Y-104437352D01*
X92085500Y-104232648D01*
X92053477Y-104030466D01*
X91990220Y-103835781D01*
X91990218Y-103835778D01*
X91990218Y-103835776D01*
X91956503Y-103769607D01*
X91897287Y-103653390D01*
X91874835Y-103622487D01*
X91776971Y-103487786D01*
X91632213Y-103343028D01*
X91466613Y-103222715D01*
X91466612Y-103222714D01*
X91466610Y-103222713D01*
X91409653Y-103193691D01*
X91284223Y-103129781D01*
X91089534Y-103066522D01*
X90914995Y-103038878D01*
X90887352Y-103034500D01*
X90682648Y-103034500D01*
X90658329Y-103038351D01*
X90480465Y-103066522D01*
X90285776Y-103129781D01*
X90103386Y-103222715D01*
X89937786Y-103343028D01*
X89793028Y-103487786D01*
X89672715Y-103653386D01*
X89579781Y-103835776D01*
X89516522Y-104030465D01*
X89484500Y-104232648D01*
X87658359Y-104232648D01*
X87590568Y-104024008D01*
X87590566Y-104024005D01*
X87590566Y-104024003D01*
X87534002Y-103912991D01*
X87483343Y-103813567D01*
X87344517Y-103622490D01*
X87177510Y-103455483D01*
X86986433Y-103316657D01*
X86775996Y-103209433D01*
X86551368Y-103136446D01*
X86318097Y-103099500D01*
X86318092Y-103099500D01*
X86081908Y-103099500D01*
X86081903Y-103099500D01*
X85848631Y-103136446D01*
X85624003Y-103209433D01*
X85413566Y-103316657D01*
X85377262Y-103343034D01*
X85222490Y-103455483D01*
X85222488Y-103455485D01*
X85222487Y-103455485D01*
X85055485Y-103622487D01*
X85055485Y-103622488D01*
X85055483Y-103622490D01*
X85033036Y-103653386D01*
X84916657Y-103813566D01*
X84809433Y-104024003D01*
X84736446Y-104248631D01*
X84699500Y-104481902D01*
X57400000Y-104481902D01*
X57400000Y-98681902D01*
X67699500Y-98681902D01*
X67699500Y-98918097D01*
X67736446Y-99151368D01*
X67809433Y-99375996D01*
X67916657Y-99586433D01*
X68055483Y-99777510D01*
X68222490Y-99944517D01*
X68413567Y-100083343D01*
X68512991Y-100134002D01*
X68624003Y-100190566D01*
X68624005Y-100190566D01*
X68624008Y-100190568D01*
X68744412Y-100229689D01*
X68848631Y-100263553D01*
X69081903Y-100300500D01*
X69081908Y-100300500D01*
X69318097Y-100300500D01*
X69551368Y-100263553D01*
X69775992Y-100190568D01*
X69986433Y-100083343D01*
X70177510Y-99944517D01*
X70344517Y-99777510D01*
X70483343Y-99586433D01*
X70590568Y-99375992D01*
X70663553Y-99151368D01*
X70683647Y-99024500D01*
X70700500Y-98918097D01*
X70700500Y-98681902D01*
X70663553Y-98448631D01*
X70590566Y-98224003D01*
X70483342Y-98013566D01*
X70344517Y-97822490D01*
X70177510Y-97655483D01*
X69986433Y-97516657D01*
X69775996Y-97409433D01*
X69551368Y-97336446D01*
X69318097Y-97299500D01*
X69318092Y-97299500D01*
X69081908Y-97299500D01*
X69081903Y-97299500D01*
X68848631Y-97336446D01*
X68624003Y-97409433D01*
X68413566Y-97516657D01*
X68304550Y-97595862D01*
X68222490Y-97655483D01*
X68222488Y-97655485D01*
X68222487Y-97655485D01*
X68055485Y-97822487D01*
X68055485Y-97822488D01*
X68055483Y-97822490D01*
X67995862Y-97904550D01*
X67916657Y-98013566D01*
X67809433Y-98224003D01*
X67736446Y-98448631D01*
X67699500Y-98681902D01*
X57400000Y-98681902D01*
X57400000Y-95921153D01*
X70499500Y-95921153D01*
X70499500Y-96078846D01*
X70530261Y-96233489D01*
X70530264Y-96233501D01*
X70590602Y-96379172D01*
X70590609Y-96379185D01*
X70678210Y-96510288D01*
X70678213Y-96510292D01*
X70789707Y-96621786D01*
X70789711Y-96621789D01*
X70920814Y-96709390D01*
X70920827Y-96709397D01*
X71020060Y-96750500D01*
X71066503Y-96769737D01*
X71221153Y-96800499D01*
X71221156Y-96800500D01*
X71221158Y-96800500D01*
X71378844Y-96800500D01*
X71378845Y-96800499D01*
X71455152Y-96785320D01*
X71533488Y-96769739D01*
X71533489Y-96769738D01*
X71533497Y-96769737D01*
X71557155Y-96759937D01*
X71604604Y-96750500D01*
X72873920Y-96750500D01*
X72971462Y-96731096D01*
X73018913Y-96721658D01*
X73155495Y-96665084D01*
X73220291Y-96621789D01*
X73220294Y-96621786D01*
X73220296Y-96621786D01*
X73249547Y-96602240D01*
X73278416Y-96582952D01*
X74693549Y-95167819D01*
X74754872Y-95134334D01*
X74781230Y-95131500D01*
X75179130Y-95131500D01*
X75246169Y-95151185D01*
X75247968Y-95152362D01*
X75333321Y-95209394D01*
X75333323Y-95209395D01*
X75333327Y-95209397D01*
X75478998Y-95269735D01*
X75479003Y-95269737D01*
X75633653Y-95300499D01*
X75633656Y-95300500D01*
X75633658Y-95300500D01*
X75791344Y-95300500D01*
X75791345Y-95300499D01*
X75945997Y-95269737D01*
X76091679Y-95209394D01*
X76222789Y-95121789D01*
X76334289Y-95010289D01*
X76421894Y-94879179D01*
X76482237Y-94733497D01*
X76513000Y-94578842D01*
X76513000Y-94421158D01*
X76513000Y-94421155D01*
X76512999Y-94421153D01*
X76498746Y-94349500D01*
X76482237Y-94266503D01*
X76475194Y-94249500D01*
X76421897Y-94120827D01*
X76421890Y-94120814D01*
X76334289Y-93989711D01*
X76334286Y-93989707D01*
X76222792Y-93878213D01*
X76222788Y-93878210D01*
X76091685Y-93790609D01*
X76091676Y-93790604D01*
X76021660Y-93761603D01*
X76000247Y-93750161D01*
X75998251Y-93748828D01*
X75998249Y-93748826D01*
X75998228Y-93748812D01*
X75998226Y-93748811D01*
X75948992Y-93715914D01*
X75812417Y-93659343D01*
X75812407Y-93659340D01*
X75667420Y-93630500D01*
X75667418Y-93630500D01*
X75144425Y-93630500D01*
X75077386Y-93610815D01*
X75031631Y-93558011D01*
X75020963Y-93513225D01*
X75020690Y-93513247D01*
X75020552Y-93511500D01*
X75020521Y-93511368D01*
X75020499Y-93510830D01*
X75020499Y-93510820D01*
X75017665Y-93474796D01*
X74972869Y-93320607D01*
X74938869Y-93263117D01*
X74921688Y-93195398D01*
X74938869Y-93136882D01*
X74972869Y-93079393D01*
X75017665Y-92925204D01*
X75020500Y-92889181D01*
X75020499Y-92490820D01*
X75017665Y-92454796D01*
X74972869Y-92300607D01*
X74891135Y-92162402D01*
X74891133Y-92162400D01*
X74891130Y-92162396D01*
X74777603Y-92048869D01*
X74777595Y-92048863D01*
X74639393Y-91967131D01*
X74639388Y-91967129D01*
X74485208Y-91922335D01*
X74485202Y-91922334D01*
X74449181Y-91919500D01*
X73950830Y-91919500D01*
X73950808Y-91919501D01*
X73914794Y-91922335D01*
X73760611Y-91967129D01*
X73760606Y-91967131D01*
X73622404Y-92048863D01*
X73622396Y-92048869D01*
X73508869Y-92162396D01*
X73508863Y-92162404D01*
X73427131Y-92300606D01*
X73427129Y-92300611D01*
X73382335Y-92454791D01*
X73382334Y-92454797D01*
X73379500Y-92490811D01*
X73379500Y-92889169D01*
X73379501Y-92889191D01*
X73382335Y-92925205D01*
X73427129Y-93079388D01*
X73427132Y-93079395D01*
X73461128Y-93136881D01*
X73478309Y-93204605D01*
X73461128Y-93263119D01*
X73427132Y-93320604D01*
X73427129Y-93320611D01*
X73382335Y-93474791D01*
X73382334Y-93474797D01*
X73379500Y-93510811D01*
X73379500Y-93559191D01*
X73359815Y-93626230D01*
X73343181Y-93646872D01*
X72676873Y-94313181D01*
X72649945Y-94327884D01*
X72624127Y-94344477D01*
X72617926Y-94345368D01*
X72615550Y-94346666D01*
X72589192Y-94349500D01*
X72413840Y-94349500D01*
X72361479Y-94336385D01*
X72361122Y-94337247D01*
X72355495Y-94334916D01*
X72218913Y-94278342D01*
X72218907Y-94278340D01*
X72073920Y-94249500D01*
X72073918Y-94249500D01*
X71926082Y-94249500D01*
X71926080Y-94249500D01*
X71781092Y-94278340D01*
X71781082Y-94278343D01*
X71644511Y-94334912D01*
X71644498Y-94334919D01*
X71521584Y-94417048D01*
X71521580Y-94417051D01*
X71417051Y-94521580D01*
X71417048Y-94521584D01*
X71334919Y-94644498D01*
X71334912Y-94644511D01*
X71278343Y-94781082D01*
X71278340Y-94781092D01*
X71249500Y-94926079D01*
X71249500Y-95073916D01*
X71250071Y-95079717D01*
X71237048Y-95148363D01*
X71188981Y-95199070D01*
X71150860Y-95213482D01*
X71066507Y-95230261D01*
X71066498Y-95230264D01*
X70920827Y-95290602D01*
X70920814Y-95290609D01*
X70789711Y-95378210D01*
X70789707Y-95378213D01*
X70678213Y-95489707D01*
X70678210Y-95489711D01*
X70590609Y-95620814D01*
X70590602Y-95620827D01*
X70530264Y-95766498D01*
X70530261Y-95766510D01*
X70499500Y-95921153D01*
X57400000Y-95921153D01*
X57400000Y-87481902D01*
X77499500Y-87481902D01*
X77499500Y-87718097D01*
X77536446Y-87951368D01*
X77609433Y-88175996D01*
X77716162Y-88385462D01*
X77716657Y-88386433D01*
X77855483Y-88577510D01*
X78022490Y-88744517D01*
X78213567Y-88883343D01*
X78312991Y-88934002D01*
X78424003Y-88990566D01*
X78424005Y-88990566D01*
X78424008Y-88990568D01*
X78544412Y-89029689D01*
X78648631Y-89063553D01*
X78881903Y-89100500D01*
X78881908Y-89100500D01*
X79118097Y-89100500D01*
X79351368Y-89063553D01*
X79575992Y-88990568D01*
X79786433Y-88883343D01*
X79977510Y-88744517D01*
X80144517Y-88577510D01*
X80283343Y-88386433D01*
X80390568Y-88175992D01*
X80463553Y-87951368D01*
X80500500Y-87718097D01*
X80500500Y-87481902D01*
X80463553Y-87248631D01*
X80390566Y-87024003D01*
X80323986Y-86893334D01*
X80283343Y-86813567D01*
X80144517Y-86622490D01*
X79977510Y-86455483D01*
X79786433Y-86316657D01*
X79575996Y-86209433D01*
X79351368Y-86136446D01*
X79118097Y-86099500D01*
X79118092Y-86099500D01*
X78881908Y-86099500D01*
X78881903Y-86099500D01*
X78648631Y-86136446D01*
X78424003Y-86209433D01*
X78213566Y-86316657D01*
X78104550Y-86395862D01*
X78022490Y-86455483D01*
X78022488Y-86455485D01*
X78022487Y-86455485D01*
X77855485Y-86622487D01*
X77855485Y-86622488D01*
X77855483Y-86622490D01*
X77809731Y-86685462D01*
X77716657Y-86813566D01*
X77609433Y-87024003D01*
X77536446Y-87248631D01*
X77499500Y-87481902D01*
X57400000Y-87481902D01*
X57400000Y-83881902D01*
X66499500Y-83881902D01*
X66499500Y-84118097D01*
X66536446Y-84351368D01*
X66609433Y-84575996D01*
X66670844Y-84696520D01*
X66716657Y-84786433D01*
X66855483Y-84977510D01*
X67022490Y-85144517D01*
X67213567Y-85283343D01*
X67274773Y-85314529D01*
X67424003Y-85390566D01*
X67424005Y-85390566D01*
X67424008Y-85390568D01*
X67544412Y-85429689D01*
X67648631Y-85463553D01*
X67881903Y-85500500D01*
X67881908Y-85500500D01*
X68118097Y-85500500D01*
X68351368Y-85463553D01*
X68389663Y-85451110D01*
X68575992Y-85390568D01*
X68786433Y-85283343D01*
X68977510Y-85144517D01*
X69144517Y-84977510D01*
X69283343Y-84786433D01*
X69390568Y-84575992D01*
X69463553Y-84351368D01*
X69500500Y-84118097D01*
X69500500Y-83939074D01*
X81374500Y-83939074D01*
X81374500Y-84660925D01*
X81377301Y-84696520D01*
X81377302Y-84696526D01*
X81421567Y-84848886D01*
X81421569Y-84848889D01*
X81502337Y-84985462D01*
X81502343Y-84985470D01*
X81579192Y-85062319D01*
X81612677Y-85123642D01*
X81607693Y-85193334D01*
X81579192Y-85237681D01*
X81502343Y-85314529D01*
X81502337Y-85314537D01*
X81421569Y-85451110D01*
X81421567Y-85451113D01*
X81377302Y-85603473D01*
X81377301Y-85603479D01*
X81374500Y-85639074D01*
X81374500Y-86360925D01*
X81377301Y-86396520D01*
X81377302Y-86396526D01*
X81421567Y-86548886D01*
X81421569Y-86548889D01*
X81502337Y-86685462D01*
X81502343Y-86685470D01*
X81579192Y-86762319D01*
X81612677Y-86823642D01*
X81607693Y-86893334D01*
X81579192Y-86937681D01*
X81502343Y-87014529D01*
X81502337Y-87014537D01*
X81421569Y-87151110D01*
X81421567Y-87151113D01*
X81377302Y-87303473D01*
X81377301Y-87303479D01*
X81374500Y-87339074D01*
X81374500Y-88060925D01*
X81377301Y-88096520D01*
X81377302Y-88096526D01*
X81421567Y-88248886D01*
X81421569Y-88248889D01*
X81502337Y-88385462D01*
X81502343Y-88385470D01*
X81614529Y-88497656D01*
X81614533Y-88497659D01*
X81614535Y-88497661D01*
X81751109Y-88578430D01*
X81751110Y-88578430D01*
X81751113Y-88578432D01*
X81903473Y-88622697D01*
X81903476Y-88622697D01*
X81903478Y-88622698D01*
X81939082Y-88625500D01*
X81939090Y-88625500D01*
X82660910Y-88625500D01*
X82660918Y-88625500D01*
X82696522Y-88622698D01*
X82696524Y-88622697D01*
X82696526Y-88622697D01*
X82848886Y-88578432D01*
X82848887Y-88578431D01*
X82848891Y-88578430D01*
X82985465Y-88497661D01*
X83097661Y-88385465D01*
X83178430Y-88248891D01*
X83178431Y-88248887D01*
X83178432Y-88248886D01*
X83222697Y-88096526D01*
X83222698Y-88096520D01*
X83225499Y-88060925D01*
X83225500Y-88060918D01*
X83225500Y-87339082D01*
X83222698Y-87303478D01*
X83206764Y-87248632D01*
X83178432Y-87151113D01*
X83178430Y-87151110D01*
X83178430Y-87151109D01*
X83097661Y-87014535D01*
X83097659Y-87014533D01*
X83097656Y-87014529D01*
X83020808Y-86937681D01*
X82987323Y-86876358D01*
X82992307Y-86806666D01*
X83020808Y-86762319D01*
X83097656Y-86685470D01*
X83097661Y-86685465D01*
X83178430Y-86548891D01*
X83178431Y-86548887D01*
X83178432Y-86548886D01*
X83222697Y-86396526D01*
X83222698Y-86396520D01*
X83225499Y-86360925D01*
X83225500Y-86360918D01*
X83225500Y-85639082D01*
X83222698Y-85603478D01*
X83192780Y-85500500D01*
X83178432Y-85451113D01*
X83178430Y-85451110D01*
X83178430Y-85451109D01*
X83097661Y-85314535D01*
X83097659Y-85314533D01*
X83097656Y-85314529D01*
X83020808Y-85237681D01*
X82987323Y-85176358D01*
X82992307Y-85106666D01*
X83020808Y-85062319D01*
X83097656Y-84985470D01*
X83097661Y-84985465D01*
X83178430Y-84848891D01*
X83178431Y-84848887D01*
X83178432Y-84848886D01*
X83222697Y-84696526D01*
X83222698Y-84696520D01*
X83225499Y-84660925D01*
X83225500Y-84660918D01*
X83225500Y-83939082D01*
X83222698Y-83903478D01*
X83222697Y-83903473D01*
X83178432Y-83751113D01*
X83178430Y-83751110D01*
X83178430Y-83751109D01*
X83097661Y-83614535D01*
X83097659Y-83614533D01*
X83097656Y-83614529D01*
X82985470Y-83502343D01*
X82985462Y-83502337D01*
X82848889Y-83421569D01*
X82848886Y-83421567D01*
X82696526Y-83377302D01*
X82696520Y-83377301D01*
X82660925Y-83374500D01*
X82660918Y-83374500D01*
X81939082Y-83374500D01*
X81939074Y-83374500D01*
X81903479Y-83377301D01*
X81903473Y-83377302D01*
X81751113Y-83421567D01*
X81751110Y-83421569D01*
X81614537Y-83502337D01*
X81614529Y-83502343D01*
X81502343Y-83614529D01*
X81502337Y-83614537D01*
X81421569Y-83751110D01*
X81421567Y-83751113D01*
X81377302Y-83903473D01*
X81377301Y-83903479D01*
X81374500Y-83939074D01*
X69500500Y-83939074D01*
X69500500Y-83881902D01*
X69463553Y-83648631D01*
X69390566Y-83424003D01*
X69283342Y-83213566D01*
X69144517Y-83022490D01*
X68977510Y-82855483D01*
X68786433Y-82716657D01*
X68575996Y-82609433D01*
X68351368Y-82536446D01*
X68118097Y-82499500D01*
X68118092Y-82499500D01*
X67881908Y-82499500D01*
X67881903Y-82499500D01*
X67648631Y-82536446D01*
X67424003Y-82609433D01*
X67213566Y-82716657D01*
X67104550Y-82795862D01*
X67022490Y-82855483D01*
X67022488Y-82855485D01*
X67022487Y-82855485D01*
X66855485Y-83022487D01*
X66855485Y-83022488D01*
X66855483Y-83022490D01*
X66795862Y-83104550D01*
X66716657Y-83213566D01*
X66609433Y-83424003D01*
X66536446Y-83648631D01*
X66499500Y-83881902D01*
X57400000Y-83881902D01*
X57400000Y-77881902D01*
X78699500Y-77881902D01*
X78699500Y-78118097D01*
X78736446Y-78351368D01*
X78809433Y-78575996D01*
X78916657Y-78786433D01*
X79055483Y-78977510D01*
X79222490Y-79144517D01*
X79413567Y-79283343D01*
X79512991Y-79334002D01*
X79624003Y-79390566D01*
X79624005Y-79390566D01*
X79624008Y-79390568D01*
X79744412Y-79429689D01*
X79848631Y-79463553D01*
X80081903Y-79500500D01*
X80081908Y-79500500D01*
X80318097Y-79500500D01*
X80551368Y-79463553D01*
X80775992Y-79390568D01*
X80986433Y-79283343D01*
X81177510Y-79144517D01*
X81344517Y-78977510D01*
X81483343Y-78786433D01*
X81590568Y-78575992D01*
X81663553Y-78351368D01*
X81700500Y-78118097D01*
X81700500Y-77881902D01*
X81663553Y-77648631D01*
X81590566Y-77424003D01*
X81483342Y-77213566D01*
X81344517Y-77022490D01*
X81177510Y-76855483D01*
X80986433Y-76716657D01*
X80775996Y-76609433D01*
X80551368Y-76536446D01*
X80318097Y-76499500D01*
X80318092Y-76499500D01*
X80081908Y-76499500D01*
X80081903Y-76499500D01*
X79848631Y-76536446D01*
X79624003Y-76609433D01*
X79413566Y-76716657D01*
X79304550Y-76795862D01*
X79222490Y-76855483D01*
X79222488Y-76855485D01*
X79222487Y-76855485D01*
X79055485Y-77022487D01*
X79055485Y-77022488D01*
X79055483Y-77022490D01*
X78995862Y-77104550D01*
X78916657Y-77213566D01*
X78809433Y-77424003D01*
X78736446Y-77648631D01*
X78699500Y-77881902D01*
X57400000Y-77881902D01*
X57400000Y-69724500D01*
X57419685Y-69657461D01*
X57472489Y-69611706D01*
X57524000Y-69600500D01*
X85276000Y-69600500D01*
X85343039Y-69620185D01*
G37*
%TD.AperFunction*%
%TD*%
M02*
