%TF.GenerationSoftware,KiCad,Pcbnew,9.0.7*%
%TF.CreationDate,2026-03-23T15:20:46-04:00*%
%TF.ProjectId,lm5022-flyback,6c6d3530-3232-42d6-966c-796261636b2e,rev?*%
%TF.SameCoordinates,Original*%
%TF.FileFunction,Copper,L1,Top*%
%TF.FilePolarity,Positive*%
%FSLAX46Y46*%
G04 Gerber Fmt 4.6, Leading zero omitted, Abs format (unit mm)*
G04 Created by KiCad (PCBNEW 9.0.7) date 2026-03-23 15:20:46*
%MOMM*%
%LPD*%
G01*
G04 APERTURE LIST*
G04 Aperture macros list*
%AMRoundRect*
0 Rectangle with rounded corners*
0 $1 Rounding radius*
0 $2 $3 $4 $5 $6 $7 $8 $9 X,Y pos of 4 corners*
0 Add a 4 corners polygon primitive as box body*
4,1,4,$2,$3,$4,$5,$6,$7,$8,$9,$2,$3,0*
0 Add four circle primitives for the rounded corners*
1,1,$1+$1,$2,$3*
1,1,$1+$1,$4,$5*
1,1,$1+$1,$6,$7*
1,1,$1+$1,$8,$9*
0 Add four rect primitives between the rounded corners*
20,1,$1+$1,$2,$3,$4,$5,0*
20,1,$1+$1,$4,$5,$6,$7,0*
20,1,$1+$1,$6,$7,$8,$9,0*
20,1,$1+$1,$8,$9,$2,$3,0*%
G04 Aperture macros list end*
%TA.AperFunction,EtchedComponent*%
%ADD10C,0.381000*%
%TD*%
%TA.AperFunction,EtchedComponent*%
%ADD11C,0.200000*%
%TD*%
%TA.AperFunction,EtchedComponent*%
%ADD12C,0.400000*%
%TD*%
%TA.AperFunction,EtchedComponent*%
%ADD13C,0.100000*%
%TD*%
%TA.AperFunction,SMDPad,CuDef*%
%ADD14RoundRect,0.250000X-0.550000X0.250000X-0.550000X-0.250000X0.550000X-0.250000X0.550000X0.250000X0*%
%TD*%
%TA.AperFunction,SMDPad,CuDef*%
%ADD15RoundRect,0.140000X-0.170000X0.140000X-0.170000X-0.140000X0.170000X-0.140000X0.170000X0.140000X0*%
%TD*%
%TA.AperFunction,SMDPad,CuDef*%
%ADD16RoundRect,0.600000X-2.400000X-1.400000X2.400000X-1.400000X2.400000X1.400000X-2.400000X1.400000X0*%
%TD*%
%TA.AperFunction,SMDPad,CuDef*%
%ADD17C,1.000000*%
%TD*%
%TA.AperFunction,SMDPad,CuDef*%
%ADD18RoundRect,0.200000X-0.275000X0.200000X-0.275000X-0.200000X0.275000X-0.200000X0.275000X0.200000X0*%
%TD*%
%TA.AperFunction,ComponentPad*%
%ADD19C,2.000000*%
%TD*%
%TA.AperFunction,SMDPad,CuDef*%
%ADD20RoundRect,0.140000X0.170000X-0.140000X0.170000X0.140000X-0.170000X0.140000X-0.170000X-0.140000X0*%
%TD*%
%TA.AperFunction,SMDPad,CuDef*%
%ADD21RoundRect,0.250000X-0.362500X-1.075000X0.362500X-1.075000X0.362500X1.075000X-0.362500X1.075000X0*%
%TD*%
%TA.AperFunction,SMDPad,CuDef*%
%ADD22RoundRect,0.250000X1.425000X-0.362500X1.425000X0.362500X-1.425000X0.362500X-1.425000X-0.362500X0*%
%TD*%
%TA.AperFunction,SMDPad,CuDef*%
%ADD23RoundRect,0.140000X-0.140000X-0.170000X0.140000X-0.170000X0.140000X0.170000X-0.140000X0.170000X0*%
%TD*%
%TA.AperFunction,SMDPad,CuDef*%
%ADD24RoundRect,0.087500X0.725000X0.087500X-0.725000X0.087500X-0.725000X-0.087500X0.725000X-0.087500X0*%
%TD*%
%TA.AperFunction,SMDPad,CuDef*%
%ADD25RoundRect,0.140000X0.140000X0.170000X-0.140000X0.170000X-0.140000X-0.170000X0.140000X-0.170000X0*%
%TD*%
%TA.AperFunction,SMDPad,CuDef*%
%ADD26RoundRect,0.317500X-0.317500X0.382500X-0.317500X-0.382500X0.317500X-0.382500X0.317500X0.382500X0*%
%TD*%
%TA.AperFunction,SMDPad,CuDef*%
%ADD27R,4.720000X4.800000*%
%TD*%
%TA.AperFunction,SMDPad,CuDef*%
%ADD28RoundRect,0.115000X-0.461000X-0.460000X0.461000X-0.460000X0.461000X0.460000X-0.461000X0.460000X0*%
%TD*%
%TA.AperFunction,SMDPad,CuDef*%
%ADD29RoundRect,0.115200X-0.460800X-1.029800X0.460800X-1.029800X0.460800X1.029800X-0.460800X1.029800X0*%
%TD*%
%TA.AperFunction,SMDPad,CuDef*%
%ADD30RoundRect,0.070000X-0.280000X-1.730000X0.280000X-1.730000X0.280000X1.730000X-0.280000X1.730000X0*%
%TD*%
%TA.AperFunction,SMDPad,CuDef*%
%ADD31RoundRect,0.115200X-0.460800X-1.684800X0.460800X-1.684800X0.460800X1.684800X-0.460800X1.684800X0*%
%TD*%
%TA.AperFunction,SMDPad,CuDef*%
%ADD32RoundRect,0.250000X2.450000X-0.650000X2.450000X0.650000X-2.450000X0.650000X-2.450000X-0.650000X0*%
%TD*%
%TA.AperFunction,SMDPad,CuDef*%
%ADD33RoundRect,0.225000X-0.250000X0.225000X-0.250000X-0.225000X0.250000X-0.225000X0.250000X0.225000X0*%
%TD*%
%TA.AperFunction,SMDPad,CuDef*%
%ADD34RoundRect,0.200000X0.200000X0.275000X-0.200000X0.275000X-0.200000X-0.275000X0.200000X-0.275000X0*%
%TD*%
%TA.AperFunction,SMDPad,CuDef*%
%ADD35RoundRect,0.250000X-0.450000X0.262500X-0.450000X-0.262500X0.450000X-0.262500X0.450000X0.262500X0*%
%TD*%
%TA.AperFunction,SMDPad,CuDef*%
%ADD36RoundRect,0.250000X1.100000X-0.325000X1.100000X0.325000X-1.100000X0.325000X-1.100000X-0.325000X0*%
%TD*%
%TA.AperFunction,ComponentPad*%
%ADD37RoundRect,0.250000X0.550000X0.550000X-0.550000X0.550000X-0.550000X-0.550000X0.550000X-0.550000X0*%
%TD*%
%TA.AperFunction,ComponentPad*%
%ADD38C,1.600000*%
%TD*%
%TA.AperFunction,SMDPad,CuDef*%
%ADD39RoundRect,0.150000X0.150000X-0.587500X0.150000X0.587500X-0.150000X0.587500X-0.150000X-0.587500X0*%
%TD*%
%TA.AperFunction,SMDPad,CuDef*%
%ADD40RoundRect,0.250000X-1.425000X0.362500X-1.425000X-0.362500X1.425000X-0.362500X1.425000X0.362500X0*%
%TD*%
%TA.AperFunction,ComponentPad*%
%ADD41RoundRect,0.127500X-0.297500X-0.297500X0.297500X-0.297500X0.297500X0.297500X-0.297500X0.297500X0*%
%TD*%
%TA.AperFunction,SMDPad,CuDef*%
%ADD42RoundRect,0.250000X0.850000X0.350000X-0.850000X0.350000X-0.850000X-0.350000X0.850000X-0.350000X0*%
%TD*%
%TA.AperFunction,SMDPad,CuDef*%
%ADD43RoundRect,0.249997X2.950003X2.650003X-2.950003X2.650003X-2.950003X-2.650003X2.950003X-2.650003X0*%
%TD*%
%TA.AperFunction,SMDPad,CuDef*%
%ADD44RoundRect,0.250000X-1.100000X0.325000X-1.100000X-0.325000X1.100000X-0.325000X1.100000X0.325000X0*%
%TD*%
%TA.AperFunction,SMDPad,CuDef*%
%ADD45RoundRect,0.100000X-0.562500X-0.100000X0.562500X-0.100000X0.562500X0.100000X-0.562500X0.100000X0*%
%TD*%
%TA.AperFunction,SMDPad,CuDef*%
%ADD46RoundRect,0.135000X0.135000X0.185000X-0.135000X0.185000X-0.135000X-0.185000X0.135000X-0.185000X0*%
%TD*%
%TA.AperFunction,SMDPad,CuDef*%
%ADD47RoundRect,0.250000X-2.975000X0.400000X-2.975000X-0.400000X2.975000X-0.400000X2.975000X0.400000X0*%
%TD*%
%TA.AperFunction,ViaPad*%
%ADD48C,0.600000*%
%TD*%
%TA.AperFunction,ViaPad*%
%ADD49C,0.500000*%
%TD*%
%TA.AperFunction,Conductor*%
%ADD50C,0.300000*%
%TD*%
%TA.AperFunction,Conductor*%
%ADD51C,0.200000*%
%TD*%
%TA.AperFunction,Conductor*%
%ADD52C,0.500000*%
%TD*%
G04 APERTURE END LIST*
D10*
%TO.C,REF\u002A\u002A*%
X123222881Y-107660000D02*
X127222881Y-100740000D01*
D11*
X123712881Y-107640000D02*
X123446559Y-107230736D01*
X126772881Y-104415000D02*
X126982881Y-104640000D01*
X126882881Y-106295000D02*
X127392881Y-106385000D01*
X127072881Y-101160000D02*
X127382881Y-101160000D01*
X127089982Y-104679099D02*
X127335780Y-104880901D01*
D10*
X127222881Y-100740000D02*
X131222881Y-107660000D01*
D11*
X130732881Y-107640000D02*
X130999203Y-107230736D01*
D12*
X131222881Y-107660000D02*
X123222881Y-107660000D01*
D13*
X126722881Y-104700000D02*
X127887048Y-104074260D01*
X127232204Y-106460802D01*
X127566902Y-106257073D01*
X126970266Y-107144750D01*
X126751985Y-106097000D01*
X126984819Y-106417146D01*
X127261308Y-104685448D01*
X126140798Y-105282083D01*
X126868402Y-102706364D01*
X127581454Y-102706364D01*
X126722881Y-104700000D01*
%TA.AperFunction,EtchedComponent*%
G36*
X126722881Y-104700000D02*
G01*
X127887048Y-104074260D01*
X127232204Y-106460802D01*
X127566902Y-106257073D01*
X126970266Y-107144750D01*
X126751985Y-106097000D01*
X126984819Y-106417146D01*
X127261308Y-104685448D01*
X126140798Y-105282083D01*
X126868402Y-102706364D01*
X127581454Y-102706364D01*
X126722881Y-104700000D01*
G37*
%TD.AperFunction*%
%TD*%
D14*
%TO.P,SW1,1,C*%
%TO.N,Net-(SW1-C)*%
X63300000Y-90050000D03*
%TO.P,SW1,2,B*%
%TO.N,GND*%
X65600000Y-91800000D03*
%TO.P,SW1,3,A*%
%TO.N,unconnected-(SW1-A-Pad3)*%
X63300000Y-93550000D03*
%TD*%
D15*
%TO.P,C5,1*%
%TO.N,Net-(U1-VCC)*%
X77400000Y-92520000D03*
%TO.P,C5,2*%
%TO.N,GND*%
X77400000Y-93480000D03*
%TD*%
D16*
%TO.P,H4,1,1*%
%TO.N,GND*%
X60500000Y-105000000D03*
%TD*%
%TO.P,H3,1,1*%
%TO.N,+BATT*%
X60500000Y-75000000D03*
%TD*%
D17*
%TO.P,TP12,1,1*%
%TO.N,Net-(U1-OUT)*%
X76000000Y-90200000D03*
%TD*%
D18*
%TO.P,R12,1*%
%TO.N,/FB*%
X72000000Y-98775000D03*
%TO.P,R12,2*%
%TO.N,GND*%
X72000000Y-100425000D03*
%TD*%
D19*
%TO.P,TP5,1,1*%
%TO.N,HVGND*%
X106800000Y-91600000D03*
%TD*%
D20*
%TO.P,R1,1*%
%TO.N,Net-(U1-OUT)*%
X77600000Y-91480000D03*
%TO.P,R1,2*%
%TO.N,Net-(Q1-G)*%
X77600000Y-90520000D03*
%TD*%
D21*
%TO.P,R9,1*%
%TO.N,GND*%
X92287500Y-101000000D03*
%TO.P,R9,2*%
%TO.N,HVGND*%
X96912500Y-101000000D03*
%TD*%
D22*
%TO.P,R10,1*%
%TO.N,Net-(D2-K)*%
X117800000Y-98512500D03*
%TO.P,R10,2*%
%TO.N,HVGND*%
X117800000Y-92587500D03*
%TD*%
D19*
%TO.P,TP3,1,1*%
%TO.N,/VD*%
X79000000Y-87600000D03*
%TD*%
D23*
%TO.P,C1,1*%
%TO.N,Net-(C1-Pad1)*%
X74920000Y-97400000D03*
%TO.P,C1,2*%
%TO.N,GND*%
X75880000Y-97400000D03*
%TD*%
D19*
%TO.P,TP13,1,1*%
%TO.N,Net-(C8-Pad1)*%
X86200000Y-104600000D03*
%TD*%
D24*
%TO.P,U1,1,VIN*%
%TO.N,+6V*%
X75712500Y-93800000D03*
%TO.P,U1,2,FB*%
%TO.N,/FB*%
X75712500Y-93300000D03*
%TO.P,U1,3,COMP*%
%TO.N,Net-(U1-COMP)*%
X75712500Y-92800000D03*
%TO.P,U1,4,VCC*%
%TO.N,Net-(U1-VCC)*%
X75712500Y-92300000D03*
%TO.P,U1,5,OUT*%
%TO.N,Net-(U1-OUT)*%
X75712500Y-91800000D03*
%TO.P,U1,6,GND*%
%TO.N,GND*%
X71487500Y-91800000D03*
%TO.P,U1,7,UVLO*%
%TO.N,Net-(SW1-C)*%
X71487500Y-92300000D03*
%TO.P,U1,8,CS*%
%TO.N,Net-(U1-CS)*%
X71487500Y-92800000D03*
%TO.P,U1,9,RT*%
%TO.N,Net-(U1-RT)*%
X71487500Y-93300000D03*
%TO.P,U1,10,SS*%
%TO.N,Net-(U1-SS)*%
X71487500Y-93800000D03*
%TD*%
D25*
%TO.P,C9,1*%
%TO.N,Net-(U1-SS)*%
X69880000Y-94200000D03*
%TO.P,C9,2*%
%TO.N,GND*%
X68920000Y-94200000D03*
%TD*%
D26*
%TO.P,D3,1,A*%
%TO.N,/VD*%
X76205000Y-85360000D03*
%TO.P,D3,2,A*%
X76205000Y-87440000D03*
D27*
%TO.P,D3,3,K*%
%TO.N,/VSN*%
X72400000Y-86400000D03*
%TD*%
D16*
%TO.P,H1,1,1*%
%TO.N,HVGND*%
X129500000Y-91500000D03*
%TD*%
D28*
%TO.P,Q1,1,G*%
%TO.N,Net-(Q1-G)*%
X78848000Y-90278000D03*
D29*
%TO.P,Q1,2,S*%
%TO.N,/VS*%
X78848000Y-92158000D03*
D30*
%TO.P,Q1,3,D*%
%TO.N,/VD*%
X79925000Y-91500000D03*
%TO.P,Q1,4,S*%
%TO.N,/VS*%
X80775000Y-91500000D03*
%TO.P,Q1,5,D*%
%TO.N,/VD*%
X81625000Y-91500000D03*
%TO.P,Q1,6,S*%
%TO.N,/VS*%
X82475000Y-91500000D03*
D31*
%TO.P,Q1,7,D*%
%TO.N,/VD*%
X83552000Y-91500000D03*
%TD*%
D19*
%TO.P,TP11,1,1*%
%TO.N,/FB*%
X69200000Y-98800000D03*
%TD*%
D23*
%TO.P,R4,1*%
%TO.N,Net-(U1-CS)*%
X72920000Y-96400000D03*
%TO.P,R4,2*%
%TO.N,Net-(C1-Pad1)*%
X73880000Y-96400000D03*
%TD*%
D32*
%TO.P,C3,1*%
%TO.N,HVGND*%
X121000000Y-90300000D03*
%TO.P,C3,2*%
%TO.N,-400V*%
X121000000Y-85200000D03*
%TD*%
D19*
%TO.P,TP6,1,1*%
%TO.N,-400V*%
X122200000Y-80600000D03*
%TD*%
D33*
%TO.P,R15,1*%
%TO.N,+BATT*%
X68000000Y-87825000D03*
%TO.P,R15,2*%
%TO.N,Net-(SW1-C)*%
X68000000Y-89375000D03*
%TD*%
D34*
%TO.P,R11,1*%
%TO.N,Net-(C8-Pad1)*%
X75225000Y-98800000D03*
%TO.P,R11,2*%
%TO.N,/FB*%
X73575000Y-98800000D03*
%TD*%
D35*
%TO.P,R5,1*%
%TO.N,+BATT*%
X68800000Y-79687500D03*
%TO.P,R5,2*%
%TO.N,/VSN*%
X68800000Y-81512500D03*
%TD*%
D36*
%TO.P,C11,1*%
%TO.N,+BATT*%
X76700000Y-73675000D03*
%TO.P,C11,2*%
%TO.N,GND*%
X76700000Y-70725000D03*
%TD*%
D19*
%TO.P,TP7,1,1*%
%TO.N,Net-(D1-K)*%
X106600000Y-78000000D03*
%TD*%
D33*
%TO.P,C7,1*%
%TO.N,Net-(U2-K)*%
X106600000Y-104225000D03*
%TO.P,C7,2*%
%TO.N,Net-(U2-REF)*%
X106600000Y-105775000D03*
%TD*%
D37*
%TO.P,U3,1*%
%TO.N,Net-(D2-K)*%
X98405000Y-106875000D03*
D38*
%TO.P,U3,2*%
%TO.N,Net-(U2-K)*%
X98405000Y-104335000D03*
%TO.P,U3,3*%
%TO.N,Net-(C8-Pad1)*%
X90785000Y-104335000D03*
%TO.P,U3,4*%
%TO.N,+6V*%
X90785000Y-106875000D03*
%TD*%
D19*
%TO.P,TP14,1,1*%
%TO.N,+6V*%
X86200000Y-108200000D03*
%TD*%
D39*
%TO.P,D2,1,A*%
%TO.N,-400V*%
X104650000Y-109537500D03*
%TO.P,D2,2,NC*%
%TO.N,unconnected-(D2-NC-Pad2)*%
X106550000Y-109537500D03*
%TO.P,D2,3,K*%
%TO.N,Net-(D2-K)*%
X105600000Y-107662500D03*
%TD*%
D25*
%TO.P,C2,1*%
%TO.N,+6V*%
X75880000Y-95200000D03*
%TO.P,C2,2*%
%TO.N,GND*%
X74920000Y-95200000D03*
%TD*%
D18*
%TO.P,R6,1*%
%TO.N,Net-(U2-REF)*%
X108200000Y-106975000D03*
%TO.P,R6,2*%
%TO.N,-400V*%
X108200000Y-108625000D03*
%TD*%
D40*
%TO.P,R7,1*%
%TO.N,HVGND*%
X113800000Y-92587500D03*
%TO.P,R7,2*%
%TO.N,Net-(U2-REF)*%
X113800000Y-98512500D03*
%TD*%
D35*
%TO.P,R13,1*%
%TO.N,+BATT*%
X70800000Y-79687500D03*
%TO.P,R13,2*%
%TO.N,/VSN*%
X70800000Y-81512500D03*
%TD*%
D16*
%TO.P,H2,1,1*%
%TO.N,-400V*%
X129500000Y-81500000D03*
%TD*%
D19*
%TO.P,TP8,1,1*%
%TO.N,Net-(U2-K)*%
X101600000Y-104700000D03*
%TD*%
%TO.P,TP1,1,1*%
%TO.N,/VSN*%
X68000000Y-84000000D03*
%TD*%
D33*
%TO.P,C8,1*%
%TO.N,Net-(C8-Pad1)*%
X88800000Y-104800000D03*
%TO.P,C8,2*%
%TO.N,+6V*%
X88800000Y-106350000D03*
%TD*%
D34*
%TO.P,R14,1*%
%TO.N,Net-(SW1-C)*%
X69425000Y-91800000D03*
%TO.P,R14,2*%
%TO.N,GND*%
X67775000Y-91800000D03*
%TD*%
D23*
%TO.P,R3,1*%
%TO.N,Net-(C1-Pad1)*%
X74920000Y-96400000D03*
%TO.P,R3,2*%
%TO.N,/VS*%
X75880000Y-96400000D03*
%TD*%
D19*
%TO.P,TP2,1,1*%
%TO.N,+BATT*%
X80200000Y-78000000D03*
%TD*%
D32*
%TO.P,C4,1*%
%TO.N,HVGND*%
X114800000Y-90300000D03*
%TO.P,C4,2*%
%TO.N,-400V*%
X114800000Y-85200000D03*
%TD*%
D41*
%TO.P,T1,1,AA*%
%TO.N,+BATT*%
X82300000Y-84300000D03*
%TO.P,T1,2,AB*%
%TO.N,/VD*%
X82300000Y-87700000D03*
%TO.P,T1,3,SA*%
%TO.N,HVGND*%
X106900000Y-87700000D03*
%TO.P,T1,4,SB*%
%TO.N,Net-(D1-K)*%
X106900000Y-84300000D03*
%TO.P,T1,5*%
%TO.N,N/C*%
X106900000Y-86000000D03*
%TO.P,T1,6*%
X82300000Y-86000000D03*
%TD*%
D42*
%TO.P,D1,1,A*%
%TO.N,-400V*%
X118800000Y-80407500D03*
D43*
%TO.P,D1,2,K*%
%TO.N,Net-(D1-K)*%
X112500000Y-78127500D03*
D42*
%TO.P,D1,3,A*%
%TO.N,-400V*%
X118800000Y-75847500D03*
%TD*%
D44*
%TO.P,C10,1*%
%TO.N,+BATT*%
X76600000Y-79725000D03*
%TO.P,C10,2*%
%TO.N,/VSN*%
X76600000Y-82675000D03*
%TD*%
D16*
%TO.P,H5,1,1*%
%TO.N,+6V*%
X60500000Y-97000000D03*
%TD*%
D45*
%TO.P,U2,1,K*%
%TO.N,Net-(U2-K)*%
X108425000Y-104300000D03*
%TO.P,U2,2*%
%TO.N,N/C*%
X108425000Y-104950000D03*
%TO.P,U2,3,REF*%
%TO.N,Net-(U2-REF)*%
X108425000Y-105600000D03*
%TO.P,U2,4*%
%TO.N,N/C*%
X110200000Y-105600000D03*
%TO.P,U2,5*%
X110200000Y-104950000D03*
%TO.P,U2,6,A*%
%TO.N,-400V*%
X110200000Y-104300000D03*
%TD*%
D46*
%TO.P,R8,1*%
%TO.N,Net-(U1-RT)*%
X69910000Y-93200000D03*
%TO.P,R8,2*%
%TO.N,GND*%
X68890000Y-93200000D03*
%TD*%
D19*
%TO.P,TP9,1,1*%
%TO.N,Net-(D2-K)*%
X101600000Y-108200000D03*
%TD*%
%TO.P,TP10,1,1*%
%TO.N,Net-(U2-REF)*%
X113400000Y-107000000D03*
%TD*%
D47*
%TO.P,R2,1*%
%TO.N,/VS*%
X81600000Y-94475000D03*
%TO.P,R2,2*%
%TO.N,GND*%
X81600000Y-97125000D03*
%TD*%
D36*
%TO.P,C12,1*%
%TO.N,+BATT*%
X73000000Y-73675000D03*
%TO.P,C12,2*%
%TO.N,GND*%
X73000000Y-70725000D03*
%TD*%
D44*
%TO.P,C6,1*%
%TO.N,+BATT*%
X73400000Y-79725000D03*
%TO.P,C6,2*%
%TO.N,/VSN*%
X73400000Y-82675000D03*
%TD*%
D48*
%TO.N,GND*%
X71326905Y-89695000D03*
X73866905Y-89695000D03*
X75800000Y-71600000D03*
X68900000Y-95000000D03*
X64300000Y-106000000D03*
X78700000Y-99000000D03*
X79500000Y-98200000D03*
X68400000Y-92600000D03*
X81486905Y-110015000D03*
X61166905Y-99855000D03*
X86566905Y-99855000D03*
X74920000Y-95200000D03*
X78946905Y-107475000D03*
X66246905Y-102395000D03*
X91646905Y-110015000D03*
X81486905Y-107475000D03*
X81486905Y-102395000D03*
X68786905Y-110015000D03*
X84026905Y-102395000D03*
X71326905Y-107475000D03*
X83500000Y-99000000D03*
X83500000Y-98200000D03*
X76406905Y-107475000D03*
X58626905Y-82075000D03*
X58626905Y-110015000D03*
X72100000Y-71700000D03*
X71326905Y-110015000D03*
X64300000Y-106800000D03*
X68786905Y-107475000D03*
X73866905Y-102395000D03*
X81100000Y-99000000D03*
X61166905Y-110015000D03*
X63706905Y-82075000D03*
X58626905Y-92235000D03*
X82700000Y-98200000D03*
X68786905Y-71915000D03*
X86566905Y-102395000D03*
X58626905Y-87155000D03*
X84026905Y-84615000D03*
X66246905Y-104935000D03*
X61166905Y-92235000D03*
X72200000Y-91200000D03*
X68786905Y-104935000D03*
X81486905Y-71915000D03*
X84026905Y-79535000D03*
X84026905Y-110015000D03*
X76700000Y-71600000D03*
X58626905Y-84615000D03*
X89106905Y-99855000D03*
X66246905Y-94775000D03*
X61166905Y-71915000D03*
X71326905Y-102395000D03*
X58626905Y-89695000D03*
X63706905Y-71915000D03*
X58626905Y-99855000D03*
X63706905Y-92235000D03*
X61166905Y-89695000D03*
X76406905Y-110015000D03*
X73000000Y-71700000D03*
X58626905Y-71915000D03*
X73866905Y-110015000D03*
X80300000Y-98200000D03*
X82700000Y-99000000D03*
X61166905Y-79535000D03*
X73100000Y-100400000D03*
X61166905Y-87155000D03*
X84026905Y-76995000D03*
X61166905Y-84615000D03*
X77600000Y-71600000D03*
X58626905Y-79535000D03*
X89106905Y-110015000D03*
X89106905Y-102395000D03*
X73900000Y-71700000D03*
X63706905Y-84615000D03*
X84026905Y-74455000D03*
X79500000Y-99000000D03*
X61166905Y-82075000D03*
X84300000Y-99000000D03*
X84026905Y-71915000D03*
X64300000Y-104400000D03*
X76406905Y-104935000D03*
X63706905Y-79535000D03*
X66246905Y-71915000D03*
X64300000Y-105200000D03*
X80300000Y-99000000D03*
X84026905Y-82075000D03*
X81100000Y-98200000D03*
X78700000Y-98200000D03*
X81900000Y-98200000D03*
X78946905Y-110015000D03*
X84300000Y-98200000D03*
X66246905Y-107475000D03*
X73866905Y-104935000D03*
X64300000Y-103600000D03*
X73866905Y-107475000D03*
X86566905Y-110015000D03*
X66246905Y-110015000D03*
X63706905Y-99855000D03*
X81900000Y-99000000D03*
X63706905Y-87155000D03*
X63706905Y-110015000D03*
X77400000Y-94100000D03*
%TO.N,+6V*%
X75712500Y-94500000D03*
X71300000Y-96000000D03*
D49*
%TO.N,-400V*%
X117300000Y-83300000D03*
X110100000Y-110100000D03*
X110100000Y-103400000D03*
%TO.N,/FB*%
X72000000Y-95000000D03*
X74200000Y-93710000D03*
%TO.N,Net-(U1-COMP)*%
X74200000Y-92690000D03*
%TD*%
D50*
%TO.N,Net-(C1-Pad1)*%
X74920000Y-96400000D02*
X74920000Y-97400000D01*
X73880000Y-96400000D02*
X74920000Y-96400000D01*
D51*
%TO.N,GND*%
X77510532Y-96100000D02*
X76210532Y-97400000D01*
X81600000Y-96100000D02*
X77510532Y-96100000D01*
D50*
X71487500Y-91800000D02*
X71600000Y-91800000D01*
D51*
X76210532Y-97400000D02*
X75880000Y-97400000D01*
D50*
X71600000Y-91800000D02*
X72200000Y-91200000D01*
D51*
X81600000Y-97125000D02*
X81600000Y-96100000D01*
D50*
%TO.N,+6V*%
X75880000Y-94667500D02*
X75712500Y-94500000D01*
D52*
X90785000Y-106875000D02*
X89325000Y-106875000D01*
X66600000Y-97000000D02*
X60500000Y-97000000D01*
X89325000Y-106875000D02*
X88800000Y-106350000D01*
X88050000Y-106350000D02*
X86200000Y-108200000D01*
D50*
X75712500Y-94500000D02*
X75712500Y-93800000D01*
D52*
X84200000Y-106200000D02*
X72800000Y-106200000D01*
D50*
X75880000Y-95200000D02*
X75880000Y-94667500D01*
D52*
X88800000Y-106350000D02*
X88050000Y-106350000D01*
X66600000Y-100000000D02*
X66600000Y-97000000D01*
X72800000Y-106200000D02*
X66600000Y-100000000D01*
X70300000Y-97000000D02*
X71300000Y-96000000D01*
X66600000Y-97000000D02*
X70300000Y-97000000D01*
X86200000Y-108200000D02*
X84200000Y-106200000D01*
%TO.N,-400V*%
X110100000Y-104200000D02*
X110200000Y-104300000D01*
X105300000Y-111200000D02*
X108200000Y-111200000D01*
X108200000Y-111200000D02*
X109000000Y-111200000D01*
X109000000Y-111200000D02*
X110100000Y-110100000D01*
X104650000Y-109537500D02*
X104650000Y-110550000D01*
X104650000Y-110550000D02*
X105300000Y-111200000D01*
X108200000Y-111200000D02*
X108200000Y-108625000D01*
X110100000Y-103400000D02*
X110100000Y-104200000D01*
D50*
%TO.N,Net-(U1-VCC)*%
X75712500Y-92300000D02*
X77180000Y-92300000D01*
X77180000Y-92300000D02*
X77400000Y-92520000D01*
%TO.N,+BATT*%
X65300000Y-78900000D02*
X67600000Y-76600000D01*
X65300000Y-86200000D02*
X65300000Y-79100000D01*
X66925000Y-87825000D02*
X65300000Y-86200000D01*
X68000000Y-87825000D02*
X66925000Y-87825000D01*
X65300000Y-79100000D02*
X65300000Y-78900000D01*
D52*
%TO.N,Net-(U2-K)*%
X98540000Y-104200000D02*
X98405000Y-104335000D01*
X101600000Y-104700000D02*
X101100000Y-104200000D01*
X106425000Y-104225000D02*
X106400000Y-104200000D01*
X108425000Y-104300000D02*
X106675000Y-104300000D01*
X101100000Y-104200000D02*
X98540000Y-104200000D01*
X106675000Y-104300000D02*
X106600000Y-104225000D01*
X102100000Y-104200000D02*
X101600000Y-104700000D01*
X106600000Y-104225000D02*
X106425000Y-104225000D01*
X106400000Y-104200000D02*
X102100000Y-104200000D01*
%TO.N,Net-(U2-REF)*%
X108425000Y-105600000D02*
X108425000Y-106750000D01*
X108425000Y-106750000D02*
X108200000Y-106975000D01*
X108200000Y-106975000D02*
X107800000Y-106975000D01*
X113800000Y-106600000D02*
X113800000Y-98512500D01*
X113800000Y-106600000D02*
X113400000Y-107000000D01*
X107800000Y-106975000D02*
X106600000Y-105775000D01*
X113400000Y-107000000D02*
X108225000Y-107000000D01*
X108225000Y-107000000D02*
X108200000Y-106975000D01*
%TO.N,Net-(C8-Pad1)*%
X75225000Y-100425000D02*
X75225000Y-98800000D01*
X86400000Y-104800000D02*
X86200000Y-104600000D01*
X88800000Y-104800000D02*
X86400000Y-104800000D01*
X79400000Y-104600000D02*
X86200000Y-104600000D01*
X75225000Y-100425000D02*
X79400000Y-104600000D01*
X90785000Y-104335000D02*
X89265000Y-104335000D01*
X89265000Y-104335000D02*
X88800000Y-104800000D01*
D50*
%TO.N,Net-(U1-SS)*%
X71487500Y-93800000D02*
X70280000Y-93800000D01*
X70280000Y-93800000D02*
X69880000Y-94200000D01*
D52*
%TO.N,Net-(D2-K)*%
X117800000Y-106800000D02*
X112600000Y-112000000D01*
X100275000Y-106875000D02*
X101600000Y-108200000D01*
X98405000Y-106875000D02*
X100275000Y-106875000D01*
X103300000Y-112000000D02*
X101600000Y-110300000D01*
X101600000Y-110300000D02*
X101600000Y-108200000D01*
X117800000Y-98512500D02*
X117800000Y-106800000D01*
X101600000Y-108200000D02*
X105062500Y-108200000D01*
X112600000Y-112000000D02*
X103300000Y-112000000D01*
X105062500Y-108200000D02*
X105600000Y-107662500D01*
D50*
%TO.N,Net-(Q1-G)*%
X78848000Y-90278000D02*
X77842000Y-90278000D01*
X77842000Y-90278000D02*
X77600000Y-90520000D01*
%TO.N,Net-(U1-OUT)*%
X75712500Y-90487500D02*
X76000000Y-90200000D01*
X75712500Y-91800000D02*
X77280000Y-91800000D01*
X77280000Y-91800000D02*
X77600000Y-91480000D01*
X75712500Y-91800000D02*
X75712500Y-90487500D01*
%TO.N,Net-(U1-CS)*%
X72920000Y-93354010D02*
X72920000Y-96400000D01*
X72365990Y-92800000D02*
X72920000Y-93354010D01*
X71487500Y-92800000D02*
X72365990Y-92800000D01*
%TO.N,Net-(U1-RT)*%
X69910000Y-93200000D02*
X70010000Y-93300000D01*
X70010000Y-93300000D02*
X71487500Y-93300000D01*
%TO.N,/FB*%
X75712500Y-93300000D02*
X74610000Y-93300000D01*
D52*
X69225000Y-98775000D02*
X69200000Y-98800000D01*
D50*
X72000000Y-98775000D02*
X72000000Y-95000000D01*
D52*
X73575000Y-98800000D02*
X72025000Y-98800000D01*
D50*
X74610000Y-93300000D02*
X74200000Y-93710000D01*
D52*
X72000000Y-98775000D02*
X69225000Y-98775000D01*
X72025000Y-98800000D02*
X72000000Y-98775000D01*
D50*
%TO.N,Net-(SW1-C)*%
X71487500Y-92300000D02*
X69925000Y-92300000D01*
X68000000Y-90100000D02*
X68000000Y-89375000D01*
X65625000Y-89375000D02*
X68000000Y-89375000D01*
X69425000Y-91800000D02*
X69425000Y-91525000D01*
X69925000Y-92300000D02*
X69425000Y-91800000D01*
X69425000Y-91525000D02*
X68000000Y-90100000D01*
X64950000Y-90050000D02*
X65625000Y-89375000D01*
X63300000Y-90050000D02*
X64950000Y-90050000D01*
%TO.N,Net-(U1-COMP)*%
X75712500Y-92800000D02*
X74310000Y-92800000D01*
X74310000Y-92800000D02*
X74200000Y-92690000D01*
D51*
%TO.N,/VS*%
X81600000Y-95600000D02*
X81600000Y-94475000D01*
X77500000Y-95600000D02*
X81600000Y-95600000D01*
X75880000Y-96400000D02*
X76700000Y-96400000D01*
X76700000Y-96400000D02*
X77500000Y-95600000D01*
%TD*%
%TA.AperFunction,Conductor*%
%TO.N,HVGND*%
G36*
X110015677Y-87119685D02*
G01*
X110036319Y-87136319D01*
X112300000Y-89400000D01*
X132476000Y-89400000D01*
X132543039Y-89419685D01*
X132588794Y-89472489D01*
X132600000Y-89524000D01*
X132600000Y-93376000D01*
X132580315Y-93443039D01*
X132527511Y-93488794D01*
X132476000Y-93500000D01*
X110200000Y-93500000D01*
X110200000Y-100448638D01*
X110180315Y-100515677D01*
X110163681Y-100536319D01*
X108336319Y-102363681D01*
X108274996Y-102397166D01*
X108248638Y-102400000D01*
X96324000Y-102400000D01*
X96256961Y-102380315D01*
X96211206Y-102327511D01*
X96200000Y-102276000D01*
X96200000Y-99524000D01*
X96219685Y-99456961D01*
X96272489Y-99411206D01*
X96324000Y-99400000D01*
X105000000Y-99400000D01*
X105000000Y-88551362D01*
X105019685Y-88484323D01*
X105036319Y-88463681D01*
X106363681Y-87136319D01*
X106425004Y-87102834D01*
X106451362Y-87100000D01*
X109948638Y-87100000D01*
X110015677Y-87119685D01*
G37*
%TD.AperFunction*%
%TD*%
%TA.AperFunction,Conductor*%
%TO.N,-400V*%
G36*
X128315677Y-75219685D02*
G01*
X128336319Y-75236319D01*
X132563681Y-79463681D01*
X132597166Y-79525004D01*
X132600000Y-79551362D01*
X132600000Y-86076000D01*
X132580315Y-86143039D01*
X132527511Y-86188794D01*
X132476000Y-86200000D01*
X112124000Y-86200000D01*
X112056961Y-86180315D01*
X112011206Y-86127511D01*
X112000000Y-86076000D01*
X112000000Y-84424000D01*
X112019685Y-84356961D01*
X112072489Y-84311206D01*
X112124000Y-84300000D01*
X114400000Y-84300000D01*
X117700000Y-81000000D01*
X117700000Y-75324000D01*
X117719685Y-75256961D01*
X117772489Y-75211206D01*
X117824000Y-75200000D01*
X128248638Y-75200000D01*
X128315677Y-75219685D01*
G37*
%TD.AperFunction*%
%TD*%
%TA.AperFunction,Conductor*%
%TO.N,Net-(D1-K)*%
G36*
X115743039Y-75119685D02*
G01*
X115788794Y-75172489D01*
X115800000Y-75224000D01*
X115800000Y-81076000D01*
X115780315Y-81143039D01*
X115727511Y-81188794D01*
X115676000Y-81200000D01*
X111899999Y-81200000D01*
X108236319Y-84863681D01*
X108174996Y-84897166D01*
X108148638Y-84900000D01*
X106351362Y-84900000D01*
X106284323Y-84880315D01*
X106263681Y-84863681D01*
X104836319Y-83436319D01*
X104802834Y-83374996D01*
X104800000Y-83348638D01*
X104800000Y-76851362D01*
X104819685Y-76784323D01*
X104836319Y-76763681D01*
X106463681Y-75136319D01*
X106525004Y-75102834D01*
X106551362Y-75100000D01*
X115676000Y-75100000D01*
X115743039Y-75119685D01*
G37*
%TD.AperFunction*%
%TD*%
%TA.AperFunction,Conductor*%
%TO.N,+BATT*%
G36*
X80615677Y-73019685D02*
G01*
X80636319Y-73036319D01*
X82963681Y-75363681D01*
X82997166Y-75425004D01*
X83000000Y-75451362D01*
X83000000Y-84548638D01*
X82980315Y-84615677D01*
X82963681Y-84636319D01*
X82636319Y-84963681D01*
X82574996Y-84997166D01*
X82548638Y-85000000D01*
X80451362Y-85000000D01*
X80384323Y-84980315D01*
X80363681Y-84963681D01*
X79236319Y-83836319D01*
X79202834Y-83774996D01*
X79200000Y-83748638D01*
X79200000Y-81600000D01*
X78000000Y-80400000D01*
X68051362Y-80400000D01*
X67984323Y-80380315D01*
X67963681Y-80363681D01*
X64600000Y-77000000D01*
X57524000Y-77000000D01*
X57456961Y-76980315D01*
X57411206Y-76927511D01*
X57400000Y-76876000D01*
X57400000Y-73124000D01*
X57419685Y-73056961D01*
X57472489Y-73011206D01*
X57524000Y-73000000D01*
X80548638Y-73000000D01*
X80615677Y-73019685D01*
G37*
%TD.AperFunction*%
%TD*%
%TA.AperFunction,Conductor*%
%TO.N,/VSN*%
G36*
X71815677Y-81019685D02*
G01*
X71836319Y-81036319D01*
X72800000Y-82000000D01*
X77548638Y-82000000D01*
X77615677Y-82019685D01*
X77636319Y-82036319D01*
X77963681Y-82363681D01*
X77997166Y-82425004D01*
X78000000Y-82451362D01*
X78000000Y-83276000D01*
X77980315Y-83343039D01*
X77927511Y-83388794D01*
X77876000Y-83400000D01*
X75799999Y-83400000D01*
X74800000Y-84399999D01*
X74800000Y-88676000D01*
X74780315Y-88743039D01*
X74727511Y-88788794D01*
X74676000Y-88800000D01*
X70051362Y-88800000D01*
X69984323Y-88780315D01*
X69963681Y-88763681D01*
X69436319Y-88236319D01*
X69402834Y-88174996D01*
X69400000Y-88148638D01*
X69400000Y-86600000D01*
X68200000Y-85400000D01*
X67251362Y-85400000D01*
X67184323Y-85380315D01*
X67163681Y-85363681D01*
X66636319Y-84836319D01*
X66602834Y-84774996D01*
X66600000Y-84748638D01*
X66600000Y-82051362D01*
X66619685Y-81984323D01*
X66636319Y-81963681D01*
X67563681Y-81036319D01*
X67625004Y-81002834D01*
X67651362Y-81000000D01*
X71748638Y-81000000D01*
X71815677Y-81019685D01*
G37*
%TD.AperFunction*%
%TD*%
%TA.AperFunction,Conductor*%
%TO.N,/VS*%
G36*
X81017539Y-89819685D02*
G01*
X81063294Y-89872489D01*
X81074500Y-89924000D01*
X81074500Y-93256644D01*
X81090193Y-93335539D01*
X81090194Y-93335542D01*
X81090195Y-93335544D01*
X81112330Y-93368671D01*
X81149980Y-93425019D01*
X81183469Y-93447395D01*
X81239456Y-93484805D01*
X81239459Y-93484805D01*
X81239460Y-93484806D01*
X81318355Y-93500499D01*
X81318358Y-93500500D01*
X81318360Y-93500500D01*
X81931642Y-93500500D01*
X81931643Y-93500499D01*
X82010544Y-93484805D01*
X82100019Y-93425019D01*
X82159805Y-93335544D01*
X82175500Y-93256640D01*
X82175500Y-89924000D01*
X82195185Y-89856961D01*
X82247989Y-89811206D01*
X82299500Y-89800000D01*
X82651500Y-89800000D01*
X82718539Y-89819685D01*
X82764294Y-89872489D01*
X82775500Y-89924000D01*
X82775500Y-93221792D01*
X82781552Y-93267768D01*
X82781553Y-93267770D01*
X82828604Y-93368671D01*
X82907329Y-93447396D01*
X82982404Y-93482404D01*
X83000000Y-93500000D01*
X83050410Y-93500000D01*
X83054208Y-93500500D01*
X83061893Y-93500500D01*
X84049798Y-93500500D01*
X84053368Y-93500266D01*
X84061479Y-93500000D01*
X84676000Y-93500000D01*
X84743039Y-93519685D01*
X84788794Y-93572489D01*
X84800000Y-93624000D01*
X84800000Y-94976000D01*
X84780315Y-95043039D01*
X84727511Y-95088794D01*
X84676000Y-95100000D01*
X78451362Y-95100000D01*
X78421921Y-95091355D01*
X78391935Y-95084832D01*
X78386919Y-95081077D01*
X78384323Y-95080315D01*
X78363681Y-95063681D01*
X78236319Y-94936319D01*
X78202834Y-94874996D01*
X78200000Y-94848638D01*
X78200000Y-91175142D01*
X78219685Y-91108103D01*
X78272489Y-91062348D01*
X78340190Y-91052204D01*
X78350031Y-91053500D01*
X79250500Y-91053499D01*
X79317539Y-91073183D01*
X79363294Y-91125987D01*
X79374500Y-91177499D01*
X79374500Y-93256644D01*
X79390193Y-93335539D01*
X79390194Y-93335542D01*
X79390195Y-93335544D01*
X79412330Y-93368671D01*
X79449980Y-93425019D01*
X79483469Y-93447395D01*
X79539456Y-93484805D01*
X79539459Y-93484805D01*
X79539460Y-93484806D01*
X79618355Y-93500499D01*
X79618358Y-93500500D01*
X79618360Y-93500500D01*
X80231642Y-93500500D01*
X80231643Y-93500499D01*
X80310544Y-93484805D01*
X80400019Y-93425019D01*
X80459805Y-93335544D01*
X80475500Y-93256640D01*
X80475500Y-89924000D01*
X80495185Y-89856961D01*
X80547989Y-89811206D01*
X80599500Y-89800000D01*
X80950500Y-89800000D01*
X81017539Y-89819685D01*
G37*
%TD.AperFunction*%
%TD*%
%TA.AperFunction,Conductor*%
%TO.N,/VD*%
G36*
X78015677Y-84619685D02*
G01*
X78036319Y-84636319D01*
X80400000Y-87000000D01*
X82948638Y-87000000D01*
X83015677Y-87019685D01*
X83036319Y-87036319D01*
X84163681Y-88163681D01*
X84197166Y-88225004D01*
X84200000Y-88251362D01*
X84200000Y-93076000D01*
X84180315Y-93143039D01*
X84127511Y-93188794D01*
X84076000Y-93200000D01*
X83149500Y-93200000D01*
X83082461Y-93180315D01*
X83036706Y-93127511D01*
X83025500Y-93076000D01*
X83025500Y-89743357D01*
X83025499Y-89743355D01*
X83009806Y-89664460D01*
X83009805Y-89664459D01*
X83009805Y-89664456D01*
X82952855Y-89579225D01*
X82950019Y-89574980D01*
X82877343Y-89526420D01*
X82860544Y-89515195D01*
X82860542Y-89515194D01*
X82860539Y-89515193D01*
X82781644Y-89499500D01*
X82781640Y-89499500D01*
X82168360Y-89499500D01*
X82168355Y-89499500D01*
X82089460Y-89515193D01*
X82089456Y-89515195D01*
X81999980Y-89574980D01*
X81940195Y-89664456D01*
X81940193Y-89664460D01*
X81924500Y-89743355D01*
X81924500Y-93076000D01*
X81904815Y-93143039D01*
X81852011Y-93188794D01*
X81800500Y-93200000D01*
X81449500Y-93200000D01*
X81382461Y-93180315D01*
X81336706Y-93127511D01*
X81325500Y-93076000D01*
X81325500Y-89743357D01*
X81325499Y-89743355D01*
X81309806Y-89664460D01*
X81309805Y-89664459D01*
X81309805Y-89664456D01*
X81252855Y-89579225D01*
X81250019Y-89574980D01*
X81177343Y-89526420D01*
X81160544Y-89515195D01*
X81160542Y-89515194D01*
X81160539Y-89515193D01*
X81081644Y-89499500D01*
X81081640Y-89499500D01*
X80468360Y-89499500D01*
X80468355Y-89499500D01*
X80389460Y-89515193D01*
X80389456Y-89515195D01*
X80299980Y-89574980D01*
X80240195Y-89664456D01*
X80240193Y-89664460D01*
X80224500Y-89743355D01*
X80224500Y-93076000D01*
X80204815Y-93143039D01*
X80152011Y-93188794D01*
X80100500Y-93200000D01*
X79748500Y-93200000D01*
X79681461Y-93180315D01*
X79635706Y-93127511D01*
X79624500Y-93076000D01*
X79624500Y-91091207D01*
X79618447Y-91045233D01*
X79618447Y-91045230D01*
X79611618Y-91030585D01*
X79609178Y-91019581D01*
X79605023Y-91013115D01*
X79600000Y-90978180D01*
X79600000Y-90887975D01*
X79611617Y-90835571D01*
X79618451Y-90820917D01*
X79624500Y-90774969D01*
X79624499Y-89781032D01*
X79618451Y-89735083D01*
X79571429Y-89634245D01*
X79492755Y-89555571D01*
X79391917Y-89508549D01*
X79391915Y-89508548D01*
X79341945Y-89501970D01*
X79342064Y-89501061D01*
X79280389Y-89478459D01*
X79266449Y-89466449D01*
X78800000Y-89000000D01*
X76451362Y-89000000D01*
X76384323Y-88980315D01*
X76363681Y-88963681D01*
X75636319Y-88236319D01*
X75602834Y-88174996D01*
X75600000Y-88148638D01*
X75600000Y-84724000D01*
X75619685Y-84656961D01*
X75672489Y-84611206D01*
X75724000Y-84600000D01*
X77948638Y-84600000D01*
X78015677Y-84619685D01*
G37*
%TD.AperFunction*%
%TD*%
%TA.AperFunction,Conductor*%
%TO.N,GND*%
G36*
X85167539Y-96519685D02*
G01*
X85213294Y-96572489D01*
X85224500Y-96624000D01*
X85224500Y-98739882D01*
X85255024Y-98813574D01*
X85311426Y-98869976D01*
X85385118Y-98900500D01*
X85385120Y-98900500D01*
X92876000Y-98900500D01*
X92943039Y-98920185D01*
X92988794Y-98972989D01*
X93000000Y-99024500D01*
X93000000Y-112675500D01*
X92980315Y-112742539D01*
X92927511Y-112788294D01*
X92876000Y-112799500D01*
X57524000Y-112799500D01*
X57456961Y-112779815D01*
X57411206Y-112727011D01*
X57400000Y-112675500D01*
X57400000Y-99485391D01*
X57419685Y-99418352D01*
X57472489Y-99372597D01*
X57541647Y-99362653D01*
X57572809Y-99371401D01*
X57763388Y-99453013D01*
X57763396Y-99453014D01*
X57763397Y-99453015D01*
X57968749Y-99497687D01*
X57968750Y-99497687D01*
X57968755Y-99497688D01*
X58015962Y-99500500D01*
X58015973Y-99500500D01*
X62984027Y-99500500D01*
X62984038Y-99500500D01*
X63031245Y-99497688D01*
X63236612Y-99453013D01*
X63429813Y-99370279D01*
X63603865Y-99252477D01*
X63752477Y-99103865D01*
X63870279Y-98929813D01*
X63953013Y-98736612D01*
X63997688Y-98531245D01*
X64000500Y-98484038D01*
X64000500Y-97874500D01*
X64020185Y-97807461D01*
X64072989Y-97761706D01*
X64124500Y-97750500D01*
X65725500Y-97750500D01*
X65792539Y-97770185D01*
X65838294Y-97822989D01*
X65849500Y-97874500D01*
X65849500Y-100073918D01*
X65849500Y-100073920D01*
X65849499Y-100073920D01*
X65878340Y-100218907D01*
X65878343Y-100218917D01*
X65934914Y-100355492D01*
X65967812Y-100404727D01*
X65967813Y-100404730D01*
X66017046Y-100478414D01*
X66017052Y-100478421D01*
X72217049Y-106678416D01*
X72270837Y-106732204D01*
X72321585Y-106782952D01*
X72444498Y-106865080D01*
X72444511Y-106865087D01*
X72581082Y-106921656D01*
X72581087Y-106921658D01*
X72581091Y-106921658D01*
X72581092Y-106921659D01*
X72726079Y-106950500D01*
X72726082Y-106950500D01*
X72726083Y-106950500D01*
X72873917Y-106950500D01*
X83837770Y-106950500D01*
X83904809Y-106970185D01*
X83925451Y-106986819D01*
X84312855Y-107374223D01*
X84698719Y-107760086D01*
X84732204Y-107821409D01*
X84733511Y-107867165D01*
X84699500Y-108081902D01*
X84699500Y-108318097D01*
X84736446Y-108551368D01*
X84809433Y-108775996D01*
X84916657Y-108986433D01*
X85055483Y-109177510D01*
X85222490Y-109344517D01*
X85413567Y-109483343D01*
X85512991Y-109534002D01*
X85624003Y-109590566D01*
X85624005Y-109590566D01*
X85624008Y-109590568D01*
X85744412Y-109629689D01*
X85848631Y-109663553D01*
X86081903Y-109700500D01*
X86081908Y-109700500D01*
X86318097Y-109700500D01*
X86551368Y-109663553D01*
X86775992Y-109590568D01*
X86986433Y-109483343D01*
X87177510Y-109344517D01*
X87344517Y-109177510D01*
X87483343Y-108986433D01*
X87590568Y-108775992D01*
X87663553Y-108551368D01*
X87700500Y-108318097D01*
X87700500Y-108081902D01*
X87666488Y-107867164D01*
X87675442Y-107797871D01*
X87701277Y-107760088D01*
X88174498Y-107286867D01*
X88235819Y-107253384D01*
X88301179Y-107256843D01*
X88402292Y-107290349D01*
X88501655Y-107300500D01*
X88637769Y-107300499D01*
X88667214Y-107309144D01*
X88697197Y-107315667D01*
X88702210Y-107319419D01*
X88704809Y-107320183D01*
X88725451Y-107336818D01*
X88742049Y-107353416D01*
X88846584Y-107457951D01*
X88846585Y-107457952D01*
X88969498Y-107540080D01*
X88969511Y-107540087D01*
X89106082Y-107596656D01*
X89106087Y-107596658D01*
X89106091Y-107596658D01*
X89106092Y-107596659D01*
X89251079Y-107625500D01*
X89251082Y-107625500D01*
X89251083Y-107625500D01*
X89398917Y-107625500D01*
X89659582Y-107625500D01*
X89726621Y-107645185D01*
X89759900Y-107676615D01*
X89793028Y-107722212D01*
X89793032Y-107722217D01*
X89937786Y-107866971D01*
X90092749Y-107979556D01*
X90103390Y-107987287D01*
X90219607Y-108046503D01*
X90285776Y-108080218D01*
X90285778Y-108080218D01*
X90285781Y-108080220D01*
X90390137Y-108114127D01*
X90480465Y-108143477D01*
X90581557Y-108159488D01*
X90682648Y-108175500D01*
X90682649Y-108175500D01*
X90887351Y-108175500D01*
X90887352Y-108175500D01*
X91089534Y-108143477D01*
X91284219Y-108080220D01*
X91466610Y-107987287D01*
X91559590Y-107919732D01*
X91632213Y-107866971D01*
X91632215Y-107866968D01*
X91632219Y-107866966D01*
X91776966Y-107722219D01*
X91776968Y-107722215D01*
X91776971Y-107722213D01*
X91847236Y-107625500D01*
X91897287Y-107556610D01*
X91990220Y-107374219D01*
X92053477Y-107179534D01*
X92085500Y-106977352D01*
X92085500Y-106772648D01*
X92053477Y-106570466D01*
X91990220Y-106375781D01*
X91990218Y-106375778D01*
X91990218Y-106375776D01*
X91956503Y-106309607D01*
X91897287Y-106193390D01*
X91889556Y-106182749D01*
X91776971Y-106027786D01*
X91632213Y-105883028D01*
X91466614Y-105762715D01*
X91430898Y-105744517D01*
X91373917Y-105715483D01*
X91323123Y-105667511D01*
X91306328Y-105599690D01*
X91328865Y-105533555D01*
X91373917Y-105494516D01*
X91466610Y-105447287D01*
X91529474Y-105401614D01*
X91632213Y-105326971D01*
X91632215Y-105326968D01*
X91632219Y-105326966D01*
X91776966Y-105182219D01*
X91776968Y-105182215D01*
X91776971Y-105182213D01*
X91829732Y-105109590D01*
X91897287Y-105016610D01*
X91990220Y-104834219D01*
X92053477Y-104639534D01*
X92085500Y-104437352D01*
X92085500Y-104232648D01*
X92053477Y-104030466D01*
X92053265Y-104029815D01*
X91997976Y-103859651D01*
X91990220Y-103835781D01*
X91990218Y-103835778D01*
X91990218Y-103835776D01*
X91947555Y-103752046D01*
X91897287Y-103653390D01*
X91874835Y-103622487D01*
X91776971Y-103487786D01*
X91632213Y-103343028D01*
X91466613Y-103222715D01*
X91466612Y-103222714D01*
X91466610Y-103222713D01*
X91409653Y-103193691D01*
X91284223Y-103129781D01*
X91089534Y-103066522D01*
X90914995Y-103038878D01*
X90887352Y-103034500D01*
X90682648Y-103034500D01*
X90658329Y-103038351D01*
X90480465Y-103066522D01*
X90285776Y-103129781D01*
X90103386Y-103222715D01*
X89937786Y-103343028D01*
X89793032Y-103487782D01*
X89793028Y-103487787D01*
X89759900Y-103533385D01*
X89704571Y-103576051D01*
X89659582Y-103584500D01*
X89191080Y-103584500D01*
X89046092Y-103613340D01*
X89046082Y-103613343D01*
X88909511Y-103669912D01*
X88909498Y-103669919D01*
X88786587Y-103752046D01*
X88725449Y-103813183D01*
X88664125Y-103846667D01*
X88637770Y-103849500D01*
X88501663Y-103849500D01*
X88501644Y-103849501D01*
X88402292Y-103859650D01*
X88402289Y-103859651D01*
X88241305Y-103912996D01*
X88241294Y-103913001D01*
X88096959Y-104002029D01*
X88096955Y-104002032D01*
X88085807Y-104013181D01*
X88024484Y-104046666D01*
X87998126Y-104049500D01*
X87679544Y-104049500D01*
X87612505Y-104029815D01*
X87569059Y-103981795D01*
X87534005Y-103912997D01*
X87483343Y-103813567D01*
X87344517Y-103622490D01*
X87177510Y-103455483D01*
X86986433Y-103316657D01*
X86775996Y-103209433D01*
X86551368Y-103136446D01*
X86318097Y-103099500D01*
X86318092Y-103099500D01*
X86081908Y-103099500D01*
X86081903Y-103099500D01*
X85848631Y-103136446D01*
X85624003Y-103209433D01*
X85413566Y-103316657D01*
X85377262Y-103343034D01*
X85222490Y-103455483D01*
X85222488Y-103455485D01*
X85222487Y-103455485D01*
X85055485Y-103622487D01*
X85055485Y-103622488D01*
X85055483Y-103622490D01*
X85033036Y-103653386D01*
X84927687Y-103798386D01*
X84872357Y-103841051D01*
X84827369Y-103849500D01*
X79762229Y-103849500D01*
X79695190Y-103829815D01*
X79674548Y-103813181D01*
X76011819Y-100150451D01*
X75978334Y-100089128D01*
X75975500Y-100062770D01*
X75975500Y-99552976D01*
X75993382Y-99488829D01*
X76068478Y-99364606D01*
X76119086Y-99202196D01*
X76125500Y-99131616D01*
X76125500Y-98468384D01*
X76119086Y-98397804D01*
X76068478Y-98235394D01*
X75980472Y-98089815D01*
X75980470Y-98089813D01*
X75979465Y-98088150D01*
X75961629Y-98020595D01*
X75983147Y-97954122D01*
X76037187Y-97909834D01*
X76085582Y-97900000D01*
X76599999Y-97900000D01*
X76600000Y-97900000D01*
X77762884Y-96543302D01*
X77821459Y-96505212D01*
X77857032Y-96500000D01*
X85100500Y-96500000D01*
X85167539Y-96519685D01*
G37*
%TD.AperFunction*%
%TA.AperFunction,Conductor*%
G36*
X67931462Y-97770185D02*
G01*
X67977217Y-97822989D01*
X67987161Y-97892147D01*
X67964741Y-97947384D01*
X67949698Y-97968090D01*
X67916657Y-98013566D01*
X67809433Y-98224003D01*
X67736446Y-98448631D01*
X67699500Y-98681902D01*
X67699500Y-98918097D01*
X67736446Y-99151368D01*
X67809433Y-99375996D01*
X67905151Y-99563851D01*
X67916657Y-99586433D01*
X68055483Y-99777510D01*
X68222490Y-99944517D01*
X68413567Y-100083343D01*
X68473994Y-100114132D01*
X68624003Y-100190566D01*
X68624005Y-100190566D01*
X68624008Y-100190568D01*
X68711245Y-100218913D01*
X68848631Y-100263553D01*
X69081903Y-100300500D01*
X69081908Y-100300500D01*
X69318097Y-100300500D01*
X69551368Y-100263553D01*
X69775992Y-100190568D01*
X69986433Y-100083343D01*
X70177510Y-99944517D01*
X70344517Y-99777510D01*
X70483343Y-99586433D01*
X70483347Y-99586423D01*
X70484395Y-99584716D01*
X70484965Y-99584199D01*
X70486207Y-99582491D01*
X70486565Y-99582751D01*
X70536205Y-99537838D01*
X70590126Y-99525500D01*
X71247023Y-99525500D01*
X71311171Y-99543382D01*
X71435394Y-99618478D01*
X71597804Y-99669086D01*
X71668384Y-99675500D01*
X71668387Y-99675500D01*
X72331613Y-99675500D01*
X72331616Y-99675500D01*
X72402196Y-99669086D01*
X72564606Y-99618478D01*
X72647473Y-99568383D01*
X72663728Y-99563851D01*
X72676688Y-99555523D01*
X72711623Y-99550500D01*
X72808481Y-99550500D01*
X72875520Y-99570185D01*
X72896163Y-99586820D01*
X72939811Y-99630468D01*
X72939811Y-99630469D01*
X72939813Y-99630470D01*
X72939815Y-99630472D01*
X73085394Y-99718478D01*
X73247804Y-99769086D01*
X73318384Y-99775500D01*
X73318387Y-99775500D01*
X73831613Y-99775500D01*
X73831616Y-99775500D01*
X73902196Y-99769086D01*
X74064606Y-99718478D01*
X74210185Y-99630472D01*
X74222180Y-99618477D01*
X74262819Y-99577839D01*
X74324142Y-99544354D01*
X74393834Y-99549338D01*
X74449767Y-99591210D01*
X74474184Y-99656674D01*
X74474500Y-99665520D01*
X74474500Y-100498918D01*
X74474500Y-100498920D01*
X74474499Y-100498920D01*
X74503340Y-100643907D01*
X74503343Y-100643917D01*
X74559914Y-100780492D01*
X74592812Y-100829727D01*
X74592813Y-100829730D01*
X74642046Y-100903414D01*
X74642052Y-100903421D01*
X77971281Y-104232648D01*
X78921585Y-105182952D01*
X78962373Y-105210205D01*
X78980620Y-105222397D01*
X79025425Y-105276009D01*
X79034134Y-105345334D01*
X79003979Y-105408362D01*
X78944537Y-105445081D01*
X78911730Y-105449500D01*
X73162229Y-105449500D01*
X73095190Y-105429815D01*
X73074548Y-105413181D01*
X67386819Y-99725451D01*
X67353334Y-99664128D01*
X67350500Y-99637770D01*
X67350500Y-97874500D01*
X67370185Y-97807461D01*
X67422989Y-97761706D01*
X67474500Y-97750500D01*
X67864423Y-97750500D01*
X67931462Y-97770185D01*
G37*
%TD.AperFunction*%
%TA.AperFunction,Conductor*%
G36*
X64406293Y-77525185D02*
G01*
X64426935Y-77541819D01*
X64994903Y-78109787D01*
X65028388Y-78171110D01*
X65023404Y-78240802D01*
X64994903Y-78285149D01*
X64794724Y-78485328D01*
X64734145Y-78575993D01*
X64723535Y-78591872D01*
X64674499Y-78710255D01*
X64674497Y-78710261D01*
X64649500Y-78835928D01*
X64649500Y-78835931D01*
X64649500Y-79035931D01*
X64649500Y-86264069D01*
X64668765Y-86360918D01*
X64674499Y-86389744D01*
X64723535Y-86508127D01*
X64794723Y-86614669D01*
X64794726Y-86614673D01*
X66510328Y-88330275D01*
X66592928Y-88385466D01*
X66592927Y-88385466D01*
X66610906Y-88397478D01*
X66616873Y-88401465D01*
X66735256Y-88450501D01*
X66735260Y-88450501D01*
X66735261Y-88450502D01*
X66860928Y-88475500D01*
X66860931Y-88475500D01*
X67098126Y-88475500D01*
X67127566Y-88484144D01*
X67157553Y-88490668D01*
X67162568Y-88494422D01*
X67165165Y-88495185D01*
X67185807Y-88511819D01*
X67186307Y-88512319D01*
X67219792Y-88573642D01*
X67214808Y-88643334D01*
X67186307Y-88687681D01*
X67185807Y-88688181D01*
X67178074Y-88692403D01*
X67172936Y-88699267D01*
X67149488Y-88708012D01*
X67124484Y-88721666D01*
X67108183Y-88723418D01*
X67107472Y-88723684D01*
X67106890Y-88723557D01*
X67098126Y-88724500D01*
X65560929Y-88724500D01*
X65435261Y-88749497D01*
X65435255Y-88749499D01*
X65316875Y-88798533D01*
X65316866Y-88798538D01*
X65210331Y-88869723D01*
X65210327Y-88869726D01*
X64716873Y-89363181D01*
X64689945Y-89377884D01*
X64664127Y-89394477D01*
X64657926Y-89395368D01*
X64655550Y-89396666D01*
X64629192Y-89399500D01*
X64553958Y-89399500D01*
X64486919Y-89379815D01*
X64448420Y-89340598D01*
X64442712Y-89331344D01*
X64318657Y-89207289D01*
X64318656Y-89207288D01*
X64178994Y-89121144D01*
X64169336Y-89115187D01*
X64169331Y-89115185D01*
X64167862Y-89114698D01*
X64002797Y-89060001D01*
X64002795Y-89060000D01*
X63900010Y-89049500D01*
X62699998Y-89049500D01*
X62699981Y-89049501D01*
X62597203Y-89060000D01*
X62597200Y-89060001D01*
X62430668Y-89115185D01*
X62430663Y-89115187D01*
X62281342Y-89207289D01*
X62157289Y-89331342D01*
X62065187Y-89480663D01*
X62065185Y-89480668D01*
X62050434Y-89525185D01*
X62010001Y-89647203D01*
X62010001Y-89647204D01*
X62010000Y-89647204D01*
X61999500Y-89749983D01*
X61999500Y-90350001D01*
X61999501Y-90350019D01*
X62010000Y-90452796D01*
X62010001Y-90452799D01*
X62065185Y-90619331D01*
X62065186Y-90619334D01*
X62157288Y-90768656D01*
X62281344Y-90892712D01*
X62430666Y-90984814D01*
X62597203Y-91039999D01*
X62699991Y-91050500D01*
X63900008Y-91050499D01*
X64002797Y-91039999D01*
X64169334Y-90984814D01*
X64318656Y-90892712D01*
X64442712Y-90768656D01*
X64448420Y-90759402D01*
X64500368Y-90712678D01*
X64553958Y-90700500D01*
X65014071Y-90700500D01*
X65098615Y-90683682D01*
X65139744Y-90675501D01*
X65258127Y-90626465D01*
X65268794Y-90619336D01*
X65268800Y-90619335D01*
X65268799Y-90619334D01*
X65268803Y-90619331D01*
X65364669Y-90555277D01*
X65858126Y-90061818D01*
X65919449Y-90028334D01*
X65945807Y-90025500D01*
X67098126Y-90025500D01*
X67125420Y-90033514D01*
X67153428Y-90038515D01*
X67160993Y-90043960D01*
X67165165Y-90045185D01*
X67182456Y-90058591D01*
X67184155Y-90060167D01*
X67296956Y-90172968D01*
X67323221Y-90189168D01*
X67332119Y-90197422D01*
X67344037Y-90217426D01*
X67359609Y-90234738D01*
X67366280Y-90254758D01*
X67367881Y-90257445D01*
X67367815Y-90259366D01*
X67369405Y-90264135D01*
X67374499Y-90289744D01*
X67423535Y-90408127D01*
X67479462Y-90491829D01*
X67494726Y-90514673D01*
X67494727Y-90514674D01*
X68488181Y-91508127D01*
X68521666Y-91569450D01*
X68524500Y-91595808D01*
X68524500Y-92131613D01*
X68530913Y-92202192D01*
X68530913Y-92202194D01*
X68530914Y-92202196D01*
X68549924Y-92263201D01*
X68581522Y-92364606D01*
X68669530Y-92510188D01*
X68789811Y-92630469D01*
X68789813Y-92630470D01*
X68789815Y-92630472D01*
X68935394Y-92718478D01*
X69061338Y-92757723D01*
X69119485Y-92796460D01*
X69147459Y-92860485D01*
X69143526Y-92910692D01*
X69142337Y-92914782D01*
X69142334Y-92914802D01*
X69139500Y-92950811D01*
X69139500Y-93449169D01*
X69139501Y-93449191D01*
X69142334Y-93485201D01*
X69185254Y-93632933D01*
X69185054Y-93702802D01*
X69172910Y-93730646D01*
X69147505Y-93773605D01*
X69102357Y-93929002D01*
X69102356Y-93929008D01*
X69099500Y-93965302D01*
X69099500Y-94434697D01*
X69102356Y-94470991D01*
X69102357Y-94470997D01*
X69147504Y-94626390D01*
X69147505Y-94626393D01*
X69147506Y-94626395D01*
X69164936Y-94655868D01*
X69229881Y-94765684D01*
X69229887Y-94765692D01*
X69344307Y-94880112D01*
X69344311Y-94880115D01*
X69344313Y-94880117D01*
X69483605Y-94962494D01*
X69493298Y-94965310D01*
X69639002Y-95007642D01*
X69639005Y-95007642D01*
X69639007Y-95007643D01*
X69675310Y-95010500D01*
X69675318Y-95010500D01*
X70084682Y-95010500D01*
X70084690Y-95010500D01*
X70120993Y-95007643D01*
X70120995Y-95007642D01*
X70120997Y-95007642D01*
X70197642Y-94985374D01*
X70276395Y-94962494D01*
X70415687Y-94880117D01*
X70530117Y-94765687D01*
X70612494Y-94626395D01*
X70624019Y-94586727D01*
X70630359Y-94564905D01*
X70667965Y-94506019D01*
X70731437Y-94476813D01*
X70749435Y-94475500D01*
X71219341Y-94475500D01*
X71286380Y-94495185D01*
X71332135Y-94547989D01*
X71342079Y-94617147D01*
X71333902Y-94646953D01*
X71278342Y-94781086D01*
X71278340Y-94781092D01*
X71249500Y-94926079D01*
X71249500Y-95073916D01*
X71250071Y-95079717D01*
X71237048Y-95148363D01*
X71188981Y-95199070D01*
X71150860Y-95213482D01*
X71066507Y-95230261D01*
X71066498Y-95230264D01*
X70920827Y-95290602D01*
X70920814Y-95290609D01*
X70789711Y-95378210D01*
X70789707Y-95378213D01*
X70678213Y-95489707D01*
X70678207Y-95489715D01*
X70590607Y-95620818D01*
X70590606Y-95620819D01*
X70580805Y-95644480D01*
X70553927Y-95684703D01*
X70025451Y-96213181D01*
X69964128Y-96246666D01*
X69937770Y-96249500D01*
X64124500Y-96249500D01*
X64057461Y-96229815D01*
X64011706Y-96177011D01*
X64000500Y-96125500D01*
X64000500Y-95515973D01*
X64000500Y-95515962D01*
X63997688Y-95468755D01*
X63985356Y-95412068D01*
X63953015Y-95263397D01*
X63953012Y-95263386D01*
X63870281Y-95070191D01*
X63870280Y-95070189D01*
X63870279Y-95070187D01*
X63752477Y-94896135D01*
X63618522Y-94762180D01*
X63585037Y-94700857D01*
X63590021Y-94631165D01*
X63631893Y-94575232D01*
X63697357Y-94550815D01*
X63706203Y-94550499D01*
X63900002Y-94550499D01*
X63900008Y-94550499D01*
X64002797Y-94539999D01*
X64169334Y-94484814D01*
X64318656Y-94392712D01*
X64442712Y-94268656D01*
X64534814Y-94119334D01*
X64589999Y-93952797D01*
X64600500Y-93850009D01*
X64600499Y-93249992D01*
X64589999Y-93147203D01*
X64534814Y-92980666D01*
X64442712Y-92831344D01*
X64318656Y-92707288D01*
X64169334Y-92615186D01*
X64002797Y-92560001D01*
X64002795Y-92560000D01*
X63900010Y-92549500D01*
X62699998Y-92549500D01*
X62699981Y-92549501D01*
X62597203Y-92560000D01*
X62597200Y-92560001D01*
X62430668Y-92615185D01*
X62430663Y-92615187D01*
X62281342Y-92707289D01*
X62157289Y-92831342D01*
X62065187Y-92980663D01*
X62065185Y-92980668D01*
X62057690Y-93003286D01*
X62010001Y-93147203D01*
X62010001Y-93147204D01*
X62010000Y-93147204D01*
X61999500Y-93249983D01*
X61999500Y-93850001D01*
X61999501Y-93850019D01*
X62010000Y-93952796D01*
X62010001Y-93952799D01*
X62065185Y-94119331D01*
X62065187Y-94119336D01*
X62157289Y-94268657D01*
X62176451Y-94287819D01*
X62209936Y-94349142D01*
X62204952Y-94418834D01*
X62163080Y-94474767D01*
X62097616Y-94499184D01*
X62088770Y-94499500D01*
X58015962Y-94499500D01*
X57985416Y-94501319D01*
X57968749Y-94502312D01*
X57763397Y-94546984D01*
X57763386Y-94546987D01*
X57572813Y-94628596D01*
X57503437Y-94636891D01*
X57440590Y-94606362D01*
X57404225Y-94546701D01*
X57400000Y-94514608D01*
X57400000Y-77629500D01*
X57419685Y-77562461D01*
X57472489Y-77516706D01*
X57524000Y-77505500D01*
X64339254Y-77505500D01*
X64406293Y-77525185D01*
G37*
%TD.AperFunction*%
%TA.AperFunction,Conductor*%
G36*
X73763387Y-94320883D02*
G01*
X73844505Y-94375084D01*
X73844507Y-94375085D01*
X73844511Y-94375087D01*
X73981082Y-94431656D01*
X73981087Y-94431658D01*
X73981091Y-94431658D01*
X73981092Y-94431659D01*
X74126079Y-94460500D01*
X74126082Y-94460500D01*
X74273920Y-94460500D01*
X74403670Y-94434690D01*
X74418913Y-94431658D01*
X74555297Y-94375165D01*
X74624766Y-94367697D01*
X74654862Y-94377209D01*
X74667332Y-94382984D01*
X74690963Y-94401117D01*
X74834001Y-94460365D01*
X74834564Y-94460439D01*
X74840113Y-94463009D01*
X74864560Y-94484422D01*
X74889856Y-94504807D01*
X74890688Y-94507308D01*
X74892672Y-94509046D01*
X74901659Y-94540269D01*
X74911921Y-94571101D01*
X74912000Y-94575527D01*
X74912000Y-94578846D01*
X74942761Y-94733489D01*
X74942764Y-94733501D01*
X75003102Y-94879172D01*
X75003109Y-94879185D01*
X75078602Y-94992167D01*
X75099480Y-95058844D01*
X75099500Y-95061058D01*
X75099500Y-95434697D01*
X75101159Y-95455772D01*
X75086794Y-95524149D01*
X75037743Y-95573906D01*
X74977541Y-95589500D01*
X74715302Y-95589500D01*
X74679008Y-95592356D01*
X74679002Y-95592357D01*
X74523609Y-95637504D01*
X74523608Y-95637504D01*
X74463120Y-95673276D01*
X74395395Y-95690457D01*
X74336880Y-95673276D01*
X74306752Y-95655459D01*
X74276395Y-95637506D01*
X74276393Y-95637505D01*
X74276391Y-95637504D01*
X74120997Y-95592357D01*
X74120991Y-95592356D01*
X74084697Y-95589500D01*
X74084690Y-95589500D01*
X73694500Y-95589500D01*
X73627461Y-95569815D01*
X73581706Y-95517011D01*
X73570500Y-95465500D01*
X73570500Y-94423987D01*
X73590185Y-94356948D01*
X73642989Y-94311193D01*
X73712147Y-94301249D01*
X73763387Y-94320883D01*
G37*
%TD.AperFunction*%
%TA.AperFunction,Conductor*%
G36*
X77160783Y-93300143D02*
G01*
X77165310Y-93300500D01*
X77165318Y-93300500D01*
X77570500Y-93300500D01*
X77637539Y-93320185D01*
X77683294Y-93372989D01*
X77694500Y-93424500D01*
X77694500Y-94848640D01*
X77695584Y-94868861D01*
X77679517Y-94936858D01*
X77629238Y-94985374D01*
X77571762Y-94999499D01*
X77420943Y-94999499D01*
X77313587Y-95028265D01*
X77268210Y-95040424D01*
X77268209Y-95040425D01*
X77218096Y-95069359D01*
X77218095Y-95069360D01*
X77200156Y-95079717D01*
X77131285Y-95119479D01*
X77131282Y-95119481D01*
X76872181Y-95378583D01*
X76810858Y-95412068D01*
X76741166Y-95407084D01*
X76685233Y-95365212D01*
X76660816Y-95299748D01*
X76660500Y-95290902D01*
X76660500Y-94965317D01*
X76660499Y-94965302D01*
X76657643Y-94929008D01*
X76657642Y-94929002D01*
X76612495Y-94773609D01*
X76612494Y-94773605D01*
X76588777Y-94733501D01*
X76547768Y-94664157D01*
X76544886Y-94655868D01*
X76541313Y-94651680D01*
X76537943Y-94635899D01*
X76531630Y-94617740D01*
X76530500Y-94609427D01*
X76530500Y-94603431D01*
X76527924Y-94590485D01*
X76527414Y-94586727D01*
X76532104Y-94555792D01*
X76534893Y-94524627D01*
X76537300Y-94521527D01*
X76537889Y-94517647D01*
X76558563Y-94494154D01*
X76577754Y-94469449D01*
X76582764Y-94466654D01*
X76584048Y-94465196D01*
X76586774Y-94464418D01*
X76602827Y-94455465D01*
X76734037Y-94401117D01*
X76856867Y-94306867D01*
X76951117Y-94184037D01*
X77010365Y-94040999D01*
X77025500Y-93926040D01*
X77025500Y-93673960D01*
X77011310Y-93566178D01*
X77011310Y-93533821D01*
X77025500Y-93426040D01*
X77025500Y-93423639D01*
X77025702Y-93422951D01*
X77025765Y-93421990D01*
X77025980Y-93422004D01*
X77029418Y-93410293D01*
X77028526Y-93396412D01*
X77039068Y-93377429D01*
X77045185Y-93356600D01*
X77055695Y-93347492D01*
X77062450Y-93335331D01*
X77081582Y-93325061D01*
X77097989Y-93310845D01*
X77113015Y-93308189D01*
X77124012Y-93302287D01*
X77159234Y-93300022D01*
X77160783Y-93300143D01*
G37*
%TD.AperFunction*%
%TA.AperFunction,Conductor*%
G36*
X85343039Y-69620185D02*
G01*
X85388794Y-69672989D01*
X85400000Y-69724500D01*
X85400000Y-73010481D01*
X85380315Y-73077520D01*
X85327511Y-73123275D01*
X85323456Y-73125041D01*
X85311425Y-73130024D01*
X85255024Y-73186425D01*
X85224500Y-73260116D01*
X85224500Y-93003286D01*
X85204815Y-93070325D01*
X85152011Y-93116080D01*
X85082853Y-93126024D01*
X85023879Y-93099091D01*
X85023793Y-93099226D01*
X85022859Y-93098625D01*
X85019297Y-93096999D01*
X85016336Y-93094433D01*
X85016333Y-93094431D01*
X85016331Y-93094430D01*
X84885465Y-93034664D01*
X84885460Y-93034662D01*
X84885459Y-93034662D01*
X84864724Y-93028573D01*
X84818415Y-93014975D01*
X84811847Y-93014031D01*
X84748293Y-92985003D01*
X84710521Y-92926223D01*
X84705500Y-92891294D01*
X84705500Y-88251359D01*
X84702602Y-88197311D01*
X84702602Y-88197310D01*
X84699770Y-88170977D01*
X84699767Y-88170950D01*
X84691114Y-88117554D01*
X84691114Y-88117552D01*
X84640833Y-87982747D01*
X84640832Y-87982743D01*
X84607347Y-87921420D01*
X84521123Y-87806239D01*
X84521118Y-87806234D01*
X84521113Y-87806228D01*
X83393776Y-86678892D01*
X83393761Y-86678877D01*
X83393737Y-86678855D01*
X83353519Y-86642728D01*
X83353507Y-86642718D01*
X83332856Y-86626076D01*
X83288981Y-86594438D01*
X83288980Y-86594437D01*
X83288974Y-86594433D01*
X83277148Y-86589032D01*
X83224347Y-86543277D01*
X83204664Y-86476237D01*
X83209587Y-86441647D01*
X83222698Y-86396522D01*
X83225500Y-86360918D01*
X83225500Y-85639082D01*
X83222698Y-85603478D01*
X83215293Y-85577989D01*
X83178432Y-85451113D01*
X83178428Y-85451106D01*
X83110459Y-85336174D01*
X83093276Y-85268450D01*
X83115436Y-85202188D01*
X83129504Y-85185379D01*
X83321123Y-84993761D01*
X83357288Y-84953500D01*
X83373922Y-84932858D01*
X83405567Y-84888974D01*
X83465338Y-84758097D01*
X83485023Y-84691058D01*
X83485024Y-84691054D01*
X83505500Y-84548638D01*
X83505500Y-75451362D01*
X83502603Y-75397322D01*
X83499769Y-75370964D01*
X83491114Y-75317552D01*
X83440832Y-75182743D01*
X83407347Y-75121420D01*
X83321123Y-75006239D01*
X83321118Y-75006234D01*
X83321113Y-75006228D01*
X80993776Y-72678892D01*
X80993761Y-72678877D01*
X80993737Y-72678855D01*
X80953519Y-72642728D01*
X80953507Y-72642718D01*
X80932856Y-72626076D01*
X80888974Y-72594433D01*
X80758100Y-72534663D01*
X80691055Y-72514976D01*
X80628992Y-72506053D01*
X80548638Y-72494500D01*
X57524000Y-72494500D01*
X57456961Y-72474815D01*
X57411206Y-72422011D01*
X57400000Y-72370500D01*
X57400000Y-69724500D01*
X57419685Y-69657461D01*
X57472489Y-69611706D01*
X57524000Y-69600500D01*
X85276000Y-69600500D01*
X85343039Y-69620185D01*
G37*
%TD.AperFunction*%
%TA.AperFunction,Conductor*%
G36*
X68917863Y-88465090D02*
G01*
X68946385Y-88463803D01*
X68952288Y-88467231D01*
X68959103Y-88467655D01*
X68982117Y-88484552D01*
X69006807Y-88498889D01*
X69015209Y-88508848D01*
X69015423Y-88509005D01*
X69015490Y-88509181D01*
X69016117Y-88509924D01*
X69078870Y-88593753D01*
X69078886Y-88593771D01*
X69354839Y-88869723D01*
X69606239Y-89121123D01*
X69606255Y-89121137D01*
X69606262Y-89121144D01*
X69646480Y-89157271D01*
X69646492Y-89157281D01*
X69646500Y-89157288D01*
X69667142Y-89173922D01*
X69711026Y-89205567D01*
X69841903Y-89265338D01*
X69905474Y-89284004D01*
X69932517Y-89294091D01*
X69992127Y-89300500D01*
X70016585Y-89300499D01*
X70051362Y-89305500D01*
X74675991Y-89305500D01*
X74676000Y-89305500D01*
X74715901Y-89301209D01*
X74729157Y-89300499D01*
X74807871Y-89300499D01*
X74807872Y-89300499D01*
X74867483Y-89294091D01*
X75002331Y-89243796D01*
X75117546Y-89157546D01*
X75203796Y-89042331D01*
X75218730Y-89002292D01*
X75247248Y-88925829D01*
X75247271Y-88925766D01*
X75248795Y-88921681D01*
X75265338Y-88885459D01*
X75276969Y-88845845D01*
X75278484Y-88841771D01*
X75296883Y-88817130D01*
X75313515Y-88791251D01*
X75317601Y-88789384D01*
X75320288Y-88785787D01*
X75349088Y-88775005D01*
X75377071Y-88762226D01*
X75381516Y-88762865D01*
X75385722Y-88761291D01*
X75415784Y-88767792D01*
X75446229Y-88772170D01*
X75450844Y-88775374D01*
X75454013Y-88776060D01*
X75459006Y-88781041D01*
X75482399Y-88797283D01*
X75728898Y-89043782D01*
X75762383Y-89105105D01*
X75757399Y-89174797D01*
X75715527Y-89230730D01*
X75688669Y-89246024D01*
X75526092Y-89313364D01*
X75526079Y-89313371D01*
X75362218Y-89422860D01*
X75362214Y-89422863D01*
X75222863Y-89562214D01*
X75222860Y-89562218D01*
X75113371Y-89726079D01*
X75113364Y-89726092D01*
X75037950Y-89908160D01*
X75037947Y-89908170D01*
X74999500Y-90101456D01*
X74999500Y-90101459D01*
X74999500Y-90298541D01*
X74999500Y-90298543D01*
X74999499Y-90298543D01*
X75037947Y-90491829D01*
X75037949Y-90491835D01*
X75052561Y-90527111D01*
X75062000Y-90574564D01*
X75062000Y-91000952D01*
X75042315Y-91067991D01*
X74989511Y-91113746D01*
X74952856Y-91122990D01*
X74952985Y-91123970D01*
X74905947Y-91130162D01*
X74834001Y-91139635D01*
X74834000Y-91139635D01*
X74833997Y-91139636D01*
X74690963Y-91198882D01*
X74568133Y-91293133D01*
X74473882Y-91415963D01*
X74414636Y-91558997D01*
X74414635Y-91559002D01*
X74399500Y-91673952D01*
X74399500Y-91815500D01*
X74379815Y-91882539D01*
X74327011Y-91928294D01*
X74275500Y-91939500D01*
X74126080Y-91939500D01*
X73981092Y-91968340D01*
X73981082Y-91968343D01*
X73844511Y-92024912D01*
X73844498Y-92024919D01*
X73721584Y-92107048D01*
X73721580Y-92107051D01*
X73617051Y-92211580D01*
X73617048Y-92211584D01*
X73534919Y-92334498D01*
X73534912Y-92334511D01*
X73478343Y-92471082D01*
X73478340Y-92471092D01*
X73449500Y-92616079D01*
X73449500Y-92664201D01*
X73429815Y-92731240D01*
X73377011Y-92776995D01*
X73307853Y-92786939D01*
X73244297Y-92757914D01*
X73237819Y-92751882D01*
X72836819Y-92350882D01*
X72803334Y-92289559D01*
X72800500Y-92263201D01*
X72800500Y-92173966D01*
X72800499Y-92173952D01*
X72794925Y-92131616D01*
X72785365Y-92059001D01*
X72726117Y-91915963D01*
X72631867Y-91793133D01*
X72509037Y-91698883D01*
X72509036Y-91698882D01*
X72509037Y-91698882D01*
X72366002Y-91639636D01*
X72366000Y-91639635D01*
X72365999Y-91639635D01*
X72340452Y-91636271D01*
X72251047Y-91624500D01*
X72251040Y-91624500D01*
X70723960Y-91624500D01*
X70723952Y-91624500D01*
X70621774Y-91637953D01*
X70609001Y-91639635D01*
X70607969Y-91640062D01*
X70605789Y-91640495D01*
X70601150Y-91641739D01*
X70601068Y-91641434D01*
X70599794Y-91641688D01*
X70595455Y-91644477D01*
X70560520Y-91649500D01*
X70449500Y-91649500D01*
X70382461Y-91629815D01*
X70336706Y-91577011D01*
X70325500Y-91525500D01*
X70325500Y-91468386D01*
X70319086Y-91397807D01*
X70319086Y-91397804D01*
X70268478Y-91235394D01*
X70180472Y-91089815D01*
X70180470Y-91089813D01*
X70180469Y-91089811D01*
X70060188Y-90969530D01*
X69914606Y-90881522D01*
X69752196Y-90830914D01*
X69752194Y-90830913D01*
X69752192Y-90830913D01*
X69702534Y-90826400D01*
X69685442Y-90824847D01*
X69620460Y-90799177D01*
X69608984Y-90789038D01*
X68911381Y-90091435D01*
X68877896Y-90030112D01*
X68882880Y-89960420D01*
X68893524Y-89938656D01*
X68912001Y-89908700D01*
X68912000Y-89908700D01*
X68912003Y-89908697D01*
X68965349Y-89747708D01*
X68975500Y-89648345D01*
X68975499Y-89101656D01*
X68969438Y-89042326D01*
X68965349Y-89002292D01*
X68965348Y-89002289D01*
X68938637Y-88921681D01*
X68912003Y-88841303D01*
X68911999Y-88841297D01*
X68911998Y-88841294D01*
X68822970Y-88696959D01*
X68822967Y-88696955D01*
X68813693Y-88687681D01*
X68809632Y-88680244D01*
X68802801Y-88675229D01*
X68793136Y-88650034D01*
X68780208Y-88626358D01*
X68780812Y-88617906D01*
X68777777Y-88609994D01*
X68783267Y-88583577D01*
X68785192Y-88556666D01*
X68790641Y-88548100D01*
X68791995Y-88541586D01*
X68811648Y-88515077D01*
X68812883Y-88513136D01*
X68813256Y-88512755D01*
X68822968Y-88503044D01*
X68823270Y-88502554D01*
X68828359Y-88497370D01*
X68853290Y-88483454D01*
X68876587Y-88466953D01*
X68883406Y-88466645D01*
X68889368Y-88463318D01*
X68917863Y-88465090D01*
G37*
%TD.AperFunction*%
%TD*%
M02*
