%TF.GenerationSoftware,KiCad,Pcbnew,9.0.7*%
%TF.CreationDate,2026-03-23T15:20:46-04:00*%
%TF.ProjectId,lm5022-flyback,6c6d3530-3232-42d6-966c-796261636b2e,rev?*%
%TF.SameCoordinates,Original*%
%TF.FileFunction,Legend,Top*%
%TF.FilePolarity,Positive*%
%FSLAX46Y46*%
G04 Gerber Fmt 4.6, Leading zero omitted, Abs format (unit mm)*
G04 Created by KiCad (PCBNEW 9.0.7) date 2026-03-23 15:20:46*
%MOMM*%
%LPD*%
G01*
G04 APERTURE LIST*
%ADD10C,0.100000*%
%ADD11C,0.200000*%
%ADD12C,0.150000*%
%ADD13C,0.120000*%
%ADD14C,0.127000*%
%ADD15C,0.254000*%
%ADD16C,0.400000*%
G04 APERTURE END LIST*
D10*
X58380074Y-102672419D02*
X57903884Y-102672419D01*
X57903884Y-102672419D02*
X57903884Y-101672419D01*
X58570551Y-101672419D02*
X58903884Y-102672419D01*
X58903884Y-102672419D02*
X59237217Y-101672419D01*
X60094360Y-101720038D02*
X59999122Y-101672419D01*
X59999122Y-101672419D02*
X59856265Y-101672419D01*
X59856265Y-101672419D02*
X59713408Y-101720038D01*
X59713408Y-101720038D02*
X59618170Y-101815276D01*
X59618170Y-101815276D02*
X59570551Y-101910514D01*
X59570551Y-101910514D02*
X59522932Y-102100990D01*
X59522932Y-102100990D02*
X59522932Y-102243847D01*
X59522932Y-102243847D02*
X59570551Y-102434323D01*
X59570551Y-102434323D02*
X59618170Y-102529561D01*
X59618170Y-102529561D02*
X59713408Y-102624800D01*
X59713408Y-102624800D02*
X59856265Y-102672419D01*
X59856265Y-102672419D02*
X59951503Y-102672419D01*
X59951503Y-102672419D02*
X60094360Y-102624800D01*
X60094360Y-102624800D02*
X60141979Y-102577180D01*
X60141979Y-102577180D02*
X60141979Y-102243847D01*
X60141979Y-102243847D02*
X59951503Y-102243847D01*
X60570551Y-102672419D02*
X60570551Y-101672419D01*
X60570551Y-101672419D02*
X61141979Y-102672419D01*
X61141979Y-102672419D02*
X61141979Y-101672419D01*
X61618170Y-102672419D02*
X61618170Y-101672419D01*
X61618170Y-101672419D02*
X61856265Y-101672419D01*
X61856265Y-101672419D02*
X61999122Y-101720038D01*
X61999122Y-101720038D02*
X62094360Y-101815276D01*
X62094360Y-101815276D02*
X62141979Y-101910514D01*
X62141979Y-101910514D02*
X62189598Y-102100990D01*
X62189598Y-102100990D02*
X62189598Y-102243847D01*
X62189598Y-102243847D02*
X62141979Y-102434323D01*
X62141979Y-102434323D02*
X62094360Y-102529561D01*
X62094360Y-102529561D02*
X61999122Y-102624800D01*
X61999122Y-102624800D02*
X61856265Y-102672419D01*
X61856265Y-102672419D02*
X61618170Y-102672419D01*
D11*
X88369673Y-71057275D02*
X88369673Y-70057275D01*
X88369673Y-70057275D02*
X88607768Y-70057275D01*
X88607768Y-70057275D02*
X88750625Y-70104894D01*
X88750625Y-70104894D02*
X88845863Y-70200132D01*
X88845863Y-70200132D02*
X88893482Y-70295370D01*
X88893482Y-70295370D02*
X88941101Y-70485846D01*
X88941101Y-70485846D02*
X88941101Y-70628703D01*
X88941101Y-70628703D02*
X88893482Y-70819179D01*
X88893482Y-70819179D02*
X88845863Y-70914417D01*
X88845863Y-70914417D02*
X88750625Y-71009656D01*
X88750625Y-71009656D02*
X88607768Y-71057275D01*
X88607768Y-71057275D02*
X88369673Y-71057275D01*
X89322054Y-70771560D02*
X89798244Y-70771560D01*
X89226816Y-71057275D02*
X89560149Y-70057275D01*
X89560149Y-70057275D02*
X89893482Y-71057275D01*
X90226816Y-71057275D02*
X90226816Y-70057275D01*
X90226816Y-70057275D02*
X90798244Y-71057275D01*
X90798244Y-71057275D02*
X90798244Y-70057275D01*
X91798244Y-70104894D02*
X91703006Y-70057275D01*
X91703006Y-70057275D02*
X91560149Y-70057275D01*
X91560149Y-70057275D02*
X91417292Y-70104894D01*
X91417292Y-70104894D02*
X91322054Y-70200132D01*
X91322054Y-70200132D02*
X91274435Y-70295370D01*
X91274435Y-70295370D02*
X91226816Y-70485846D01*
X91226816Y-70485846D02*
X91226816Y-70628703D01*
X91226816Y-70628703D02*
X91274435Y-70819179D01*
X91274435Y-70819179D02*
X91322054Y-70914417D01*
X91322054Y-70914417D02*
X91417292Y-71009656D01*
X91417292Y-71009656D02*
X91560149Y-71057275D01*
X91560149Y-71057275D02*
X91655387Y-71057275D01*
X91655387Y-71057275D02*
X91798244Y-71009656D01*
X91798244Y-71009656D02*
X91845863Y-70962036D01*
X91845863Y-70962036D02*
X91845863Y-70628703D01*
X91845863Y-70628703D02*
X91655387Y-70628703D01*
X92274435Y-70533465D02*
X92607768Y-70533465D01*
X92750625Y-71057275D02*
X92274435Y-71057275D01*
X92274435Y-71057275D02*
X92274435Y-70057275D01*
X92274435Y-70057275D02*
X92750625Y-70057275D01*
X93750625Y-71057275D02*
X93417292Y-70581084D01*
X93179197Y-71057275D02*
X93179197Y-70057275D01*
X93179197Y-70057275D02*
X93560149Y-70057275D01*
X93560149Y-70057275D02*
X93655387Y-70104894D01*
X93655387Y-70104894D02*
X93703006Y-70152513D01*
X93703006Y-70152513D02*
X93750625Y-70247751D01*
X93750625Y-70247751D02*
X93750625Y-70390608D01*
X93750625Y-70390608D02*
X93703006Y-70485846D01*
X93703006Y-70485846D02*
X93655387Y-70533465D01*
X93655387Y-70533465D02*
X93560149Y-70581084D01*
X93560149Y-70581084D02*
X93179197Y-70581084D01*
X94179197Y-70962036D02*
X94226816Y-71009656D01*
X94226816Y-71009656D02*
X94179197Y-71057275D01*
X94179197Y-71057275D02*
X94131578Y-71009656D01*
X94131578Y-71009656D02*
X94179197Y-70962036D01*
X94179197Y-70962036D02*
X94179197Y-71057275D01*
X94179197Y-70438227D02*
X94226816Y-70485846D01*
X94226816Y-70485846D02*
X94179197Y-70533465D01*
X94179197Y-70533465D02*
X94131578Y-70485846D01*
X94131578Y-70485846D02*
X94179197Y-70438227D01*
X94179197Y-70438227D02*
X94179197Y-70533465D01*
X95417292Y-71057275D02*
X95417292Y-70057275D01*
X95417292Y-70533465D02*
X95988720Y-70533465D01*
X95988720Y-71057275D02*
X95988720Y-70057275D01*
X96464911Y-71057275D02*
X96464911Y-70057275D01*
X97464910Y-70104894D02*
X97369672Y-70057275D01*
X97369672Y-70057275D02*
X97226815Y-70057275D01*
X97226815Y-70057275D02*
X97083958Y-70104894D01*
X97083958Y-70104894D02*
X96988720Y-70200132D01*
X96988720Y-70200132D02*
X96941101Y-70295370D01*
X96941101Y-70295370D02*
X96893482Y-70485846D01*
X96893482Y-70485846D02*
X96893482Y-70628703D01*
X96893482Y-70628703D02*
X96941101Y-70819179D01*
X96941101Y-70819179D02*
X96988720Y-70914417D01*
X96988720Y-70914417D02*
X97083958Y-71009656D01*
X97083958Y-71009656D02*
X97226815Y-71057275D01*
X97226815Y-71057275D02*
X97322053Y-71057275D01*
X97322053Y-71057275D02*
X97464910Y-71009656D01*
X97464910Y-71009656D02*
X97512529Y-70962036D01*
X97512529Y-70962036D02*
X97512529Y-70628703D01*
X97512529Y-70628703D02*
X97322053Y-70628703D01*
X97941101Y-71057275D02*
X97941101Y-70057275D01*
X97941101Y-70533465D02*
X98512529Y-70533465D01*
X98512529Y-71057275D02*
X98512529Y-70057275D01*
X99607768Y-70057275D02*
X99941101Y-71057275D01*
X99941101Y-71057275D02*
X100274434Y-70057275D01*
X100798244Y-70057275D02*
X100988720Y-70057275D01*
X100988720Y-70057275D02*
X101083958Y-70104894D01*
X101083958Y-70104894D02*
X101179196Y-70200132D01*
X101179196Y-70200132D02*
X101226815Y-70390608D01*
X101226815Y-70390608D02*
X101226815Y-70723941D01*
X101226815Y-70723941D02*
X101179196Y-70914417D01*
X101179196Y-70914417D02*
X101083958Y-71009656D01*
X101083958Y-71009656D02*
X100988720Y-71057275D01*
X100988720Y-71057275D02*
X100798244Y-71057275D01*
X100798244Y-71057275D02*
X100703006Y-71009656D01*
X100703006Y-71009656D02*
X100607768Y-70914417D01*
X100607768Y-70914417D02*
X100560149Y-70723941D01*
X100560149Y-70723941D02*
X100560149Y-70390608D01*
X100560149Y-70390608D02*
X100607768Y-70200132D01*
X100607768Y-70200132D02*
X100703006Y-70104894D01*
X100703006Y-70104894D02*
X100798244Y-70057275D01*
X102131577Y-71057275D02*
X101655387Y-71057275D01*
X101655387Y-71057275D02*
X101655387Y-70057275D01*
X102322054Y-70057275D02*
X102893482Y-70057275D01*
X102607768Y-71057275D02*
X102607768Y-70057275D01*
X103179197Y-70771560D02*
X103655387Y-70771560D01*
X103083959Y-71057275D02*
X103417292Y-70057275D01*
X103417292Y-70057275D02*
X103750625Y-71057275D01*
X104607768Y-70104894D02*
X104512530Y-70057275D01*
X104512530Y-70057275D02*
X104369673Y-70057275D01*
X104369673Y-70057275D02*
X104226816Y-70104894D01*
X104226816Y-70104894D02*
X104131578Y-70200132D01*
X104131578Y-70200132D02*
X104083959Y-70295370D01*
X104083959Y-70295370D02*
X104036340Y-70485846D01*
X104036340Y-70485846D02*
X104036340Y-70628703D01*
X104036340Y-70628703D02*
X104083959Y-70819179D01*
X104083959Y-70819179D02*
X104131578Y-70914417D01*
X104131578Y-70914417D02*
X104226816Y-71009656D01*
X104226816Y-71009656D02*
X104369673Y-71057275D01*
X104369673Y-71057275D02*
X104464911Y-71057275D01*
X104464911Y-71057275D02*
X104607768Y-71009656D01*
X104607768Y-71009656D02*
X104655387Y-70962036D01*
X104655387Y-70962036D02*
X104655387Y-70628703D01*
X104655387Y-70628703D02*
X104464911Y-70628703D01*
X105083959Y-70533465D02*
X105417292Y-70533465D01*
X105560149Y-71057275D02*
X105083959Y-71057275D01*
X105083959Y-71057275D02*
X105083959Y-70057275D01*
X105083959Y-70057275D02*
X105560149Y-70057275D01*
X107179197Y-70390608D02*
X107179197Y-71057275D01*
X106941102Y-70009656D02*
X106703007Y-70723941D01*
X106703007Y-70723941D02*
X107322054Y-70723941D01*
X107893483Y-70057275D02*
X107988721Y-70057275D01*
X107988721Y-70057275D02*
X108083959Y-70104894D01*
X108083959Y-70104894D02*
X108131578Y-70152513D01*
X108131578Y-70152513D02*
X108179197Y-70247751D01*
X108179197Y-70247751D02*
X108226816Y-70438227D01*
X108226816Y-70438227D02*
X108226816Y-70676322D01*
X108226816Y-70676322D02*
X108179197Y-70866798D01*
X108179197Y-70866798D02*
X108131578Y-70962036D01*
X108131578Y-70962036D02*
X108083959Y-71009656D01*
X108083959Y-71009656D02*
X107988721Y-71057275D01*
X107988721Y-71057275D02*
X107893483Y-71057275D01*
X107893483Y-71057275D02*
X107798245Y-71009656D01*
X107798245Y-71009656D02*
X107750626Y-70962036D01*
X107750626Y-70962036D02*
X107703007Y-70866798D01*
X107703007Y-70866798D02*
X107655388Y-70676322D01*
X107655388Y-70676322D02*
X107655388Y-70438227D01*
X107655388Y-70438227D02*
X107703007Y-70247751D01*
X107703007Y-70247751D02*
X107750626Y-70152513D01*
X107750626Y-70152513D02*
X107798245Y-70104894D01*
X107798245Y-70104894D02*
X107893483Y-70057275D01*
X108845864Y-70057275D02*
X108941102Y-70057275D01*
X108941102Y-70057275D02*
X109036340Y-70104894D01*
X109036340Y-70104894D02*
X109083959Y-70152513D01*
X109083959Y-70152513D02*
X109131578Y-70247751D01*
X109131578Y-70247751D02*
X109179197Y-70438227D01*
X109179197Y-70438227D02*
X109179197Y-70676322D01*
X109179197Y-70676322D02*
X109131578Y-70866798D01*
X109131578Y-70866798D02*
X109083959Y-70962036D01*
X109083959Y-70962036D02*
X109036340Y-71009656D01*
X109036340Y-71009656D02*
X108941102Y-71057275D01*
X108941102Y-71057275D02*
X108845864Y-71057275D01*
X108845864Y-71057275D02*
X108750626Y-71009656D01*
X108750626Y-71009656D02*
X108703007Y-70962036D01*
X108703007Y-70962036D02*
X108655388Y-70866798D01*
X108655388Y-70866798D02*
X108607769Y-70676322D01*
X108607769Y-70676322D02*
X108607769Y-70438227D01*
X108607769Y-70438227D02*
X108655388Y-70247751D01*
X108655388Y-70247751D02*
X108703007Y-70152513D01*
X108703007Y-70152513D02*
X108750626Y-70104894D01*
X108750626Y-70104894D02*
X108845864Y-70057275D01*
X109464912Y-70057275D02*
X109798245Y-71057275D01*
X109798245Y-71057275D02*
X110131578Y-70057275D01*
X111417293Y-70057275D02*
X111607769Y-70057275D01*
X111607769Y-70057275D02*
X111703007Y-70104894D01*
X111703007Y-70104894D02*
X111798245Y-70200132D01*
X111798245Y-70200132D02*
X111845864Y-70390608D01*
X111845864Y-70390608D02*
X111845864Y-70723941D01*
X111845864Y-70723941D02*
X111798245Y-70914417D01*
X111798245Y-70914417D02*
X111703007Y-71009656D01*
X111703007Y-71009656D02*
X111607769Y-71057275D01*
X111607769Y-71057275D02*
X111417293Y-71057275D01*
X111417293Y-71057275D02*
X111322055Y-71009656D01*
X111322055Y-71009656D02*
X111226817Y-70914417D01*
X111226817Y-70914417D02*
X111179198Y-70723941D01*
X111179198Y-70723941D02*
X111179198Y-70390608D01*
X111179198Y-70390608D02*
X111226817Y-70200132D01*
X111226817Y-70200132D02*
X111322055Y-70104894D01*
X111322055Y-70104894D02*
X111417293Y-70057275D01*
X112274436Y-70057275D02*
X112274436Y-70866798D01*
X112274436Y-70866798D02*
X112322055Y-70962036D01*
X112322055Y-70962036D02*
X112369674Y-71009656D01*
X112369674Y-71009656D02*
X112464912Y-71057275D01*
X112464912Y-71057275D02*
X112655388Y-71057275D01*
X112655388Y-71057275D02*
X112750626Y-71009656D01*
X112750626Y-71009656D02*
X112798245Y-70962036D01*
X112798245Y-70962036D02*
X112845864Y-70866798D01*
X112845864Y-70866798D02*
X112845864Y-70057275D01*
X113179198Y-70057275D02*
X113750626Y-70057275D01*
X113464912Y-71057275D02*
X113464912Y-70057275D01*
X114083960Y-71057275D02*
X114083960Y-70057275D01*
X114083960Y-70057275D02*
X114464912Y-70057275D01*
X114464912Y-70057275D02*
X114560150Y-70104894D01*
X114560150Y-70104894D02*
X114607769Y-70152513D01*
X114607769Y-70152513D02*
X114655388Y-70247751D01*
X114655388Y-70247751D02*
X114655388Y-70390608D01*
X114655388Y-70390608D02*
X114607769Y-70485846D01*
X114607769Y-70485846D02*
X114560150Y-70533465D01*
X114560150Y-70533465D02*
X114464912Y-70581084D01*
X114464912Y-70581084D02*
X114083960Y-70581084D01*
X115083960Y-70057275D02*
X115083960Y-70866798D01*
X115083960Y-70866798D02*
X115131579Y-70962036D01*
X115131579Y-70962036D02*
X115179198Y-71009656D01*
X115179198Y-71009656D02*
X115274436Y-71057275D01*
X115274436Y-71057275D02*
X115464912Y-71057275D01*
X115464912Y-71057275D02*
X115560150Y-71009656D01*
X115560150Y-71009656D02*
X115607769Y-70962036D01*
X115607769Y-70962036D02*
X115655388Y-70866798D01*
X115655388Y-70866798D02*
X115655388Y-70057275D01*
X115988722Y-70057275D02*
X116560150Y-70057275D01*
X116274436Y-71057275D02*
X116274436Y-70057275D01*
X88941101Y-72667219D02*
X88607768Y-72191028D01*
X88369673Y-72667219D02*
X88369673Y-71667219D01*
X88369673Y-71667219D02*
X88750625Y-71667219D01*
X88750625Y-71667219D02*
X88845863Y-71714838D01*
X88845863Y-71714838D02*
X88893482Y-71762457D01*
X88893482Y-71762457D02*
X88941101Y-71857695D01*
X88941101Y-71857695D02*
X88941101Y-72000552D01*
X88941101Y-72000552D02*
X88893482Y-72095790D01*
X88893482Y-72095790D02*
X88845863Y-72143409D01*
X88845863Y-72143409D02*
X88750625Y-72191028D01*
X88750625Y-72191028D02*
X88369673Y-72191028D01*
X89369673Y-72143409D02*
X89703006Y-72143409D01*
X89845863Y-72667219D02*
X89369673Y-72667219D01*
X89369673Y-72667219D02*
X89369673Y-71667219D01*
X89369673Y-71667219D02*
X89845863Y-71667219D01*
X90941101Y-72762457D02*
X90845863Y-72714838D01*
X90845863Y-72714838D02*
X90750625Y-72619600D01*
X90750625Y-72619600D02*
X90607768Y-72476742D01*
X90607768Y-72476742D02*
X90512530Y-72429123D01*
X90512530Y-72429123D02*
X90417292Y-72429123D01*
X90464911Y-72667219D02*
X90369673Y-72619600D01*
X90369673Y-72619600D02*
X90274435Y-72524361D01*
X90274435Y-72524361D02*
X90226816Y-72333885D01*
X90226816Y-72333885D02*
X90226816Y-72000552D01*
X90226816Y-72000552D02*
X90274435Y-71810076D01*
X90274435Y-71810076D02*
X90369673Y-71714838D01*
X90369673Y-71714838D02*
X90464911Y-71667219D01*
X90464911Y-71667219D02*
X90655387Y-71667219D01*
X90655387Y-71667219D02*
X90750625Y-71714838D01*
X90750625Y-71714838D02*
X90845863Y-71810076D01*
X90845863Y-71810076D02*
X90893482Y-72000552D01*
X90893482Y-72000552D02*
X90893482Y-72333885D01*
X90893482Y-72333885D02*
X90845863Y-72524361D01*
X90845863Y-72524361D02*
X90750625Y-72619600D01*
X90750625Y-72619600D02*
X90655387Y-72667219D01*
X90655387Y-72667219D02*
X90464911Y-72667219D01*
X91322054Y-71667219D02*
X91322054Y-72476742D01*
X91322054Y-72476742D02*
X91369673Y-72571980D01*
X91369673Y-72571980D02*
X91417292Y-72619600D01*
X91417292Y-72619600D02*
X91512530Y-72667219D01*
X91512530Y-72667219D02*
X91703006Y-72667219D01*
X91703006Y-72667219D02*
X91798244Y-72619600D01*
X91798244Y-72619600D02*
X91845863Y-72571980D01*
X91845863Y-72571980D02*
X91893482Y-72476742D01*
X91893482Y-72476742D02*
X91893482Y-71667219D01*
X92369673Y-72667219D02*
X92369673Y-71667219D01*
X93417291Y-72667219D02*
X93083958Y-72191028D01*
X92845863Y-72667219D02*
X92845863Y-71667219D01*
X92845863Y-71667219D02*
X93226815Y-71667219D01*
X93226815Y-71667219D02*
X93322053Y-71714838D01*
X93322053Y-71714838D02*
X93369672Y-71762457D01*
X93369672Y-71762457D02*
X93417291Y-71857695D01*
X93417291Y-71857695D02*
X93417291Y-72000552D01*
X93417291Y-72000552D02*
X93369672Y-72095790D01*
X93369672Y-72095790D02*
X93322053Y-72143409D01*
X93322053Y-72143409D02*
X93226815Y-72191028D01*
X93226815Y-72191028D02*
X92845863Y-72191028D01*
X93845863Y-72143409D02*
X94179196Y-72143409D01*
X94322053Y-72667219D02*
X93845863Y-72667219D01*
X93845863Y-72667219D02*
X93845863Y-71667219D01*
X93845863Y-71667219D02*
X94322053Y-71667219D01*
X94703006Y-72619600D02*
X94845863Y-72667219D01*
X94845863Y-72667219D02*
X95083958Y-72667219D01*
X95083958Y-72667219D02*
X95179196Y-72619600D01*
X95179196Y-72619600D02*
X95226815Y-72571980D01*
X95226815Y-72571980D02*
X95274434Y-72476742D01*
X95274434Y-72476742D02*
X95274434Y-72381504D01*
X95274434Y-72381504D02*
X95226815Y-72286266D01*
X95226815Y-72286266D02*
X95179196Y-72238647D01*
X95179196Y-72238647D02*
X95083958Y-72191028D01*
X95083958Y-72191028D02*
X94893482Y-72143409D01*
X94893482Y-72143409D02*
X94798244Y-72095790D01*
X94798244Y-72095790D02*
X94750625Y-72048171D01*
X94750625Y-72048171D02*
X94703006Y-71952933D01*
X94703006Y-71952933D02*
X94703006Y-71857695D01*
X94703006Y-71857695D02*
X94750625Y-71762457D01*
X94750625Y-71762457D02*
X94798244Y-71714838D01*
X94798244Y-71714838D02*
X94893482Y-71667219D01*
X94893482Y-71667219D02*
X95131577Y-71667219D01*
X95131577Y-71667219D02*
X95274434Y-71714838D01*
X96417292Y-71762457D02*
X96464911Y-71714838D01*
X96464911Y-71714838D02*
X96560149Y-71667219D01*
X96560149Y-71667219D02*
X96798244Y-71667219D01*
X96798244Y-71667219D02*
X96893482Y-71714838D01*
X96893482Y-71714838D02*
X96941101Y-71762457D01*
X96941101Y-71762457D02*
X96988720Y-71857695D01*
X96988720Y-71857695D02*
X96988720Y-71952933D01*
X96988720Y-71952933D02*
X96941101Y-72095790D01*
X96941101Y-72095790D02*
X96369673Y-72667219D01*
X96369673Y-72667219D02*
X96988720Y-72667219D01*
X97607768Y-71667219D02*
X97703006Y-71667219D01*
X97703006Y-71667219D02*
X97798244Y-71714838D01*
X97798244Y-71714838D02*
X97845863Y-71762457D01*
X97845863Y-71762457D02*
X97893482Y-71857695D01*
X97893482Y-71857695D02*
X97941101Y-72048171D01*
X97941101Y-72048171D02*
X97941101Y-72286266D01*
X97941101Y-72286266D02*
X97893482Y-72476742D01*
X97893482Y-72476742D02*
X97845863Y-72571980D01*
X97845863Y-72571980D02*
X97798244Y-72619600D01*
X97798244Y-72619600D02*
X97703006Y-72667219D01*
X97703006Y-72667219D02*
X97607768Y-72667219D01*
X97607768Y-72667219D02*
X97512530Y-72619600D01*
X97512530Y-72619600D02*
X97464911Y-72571980D01*
X97464911Y-72571980D02*
X97417292Y-72476742D01*
X97417292Y-72476742D02*
X97369673Y-72286266D01*
X97369673Y-72286266D02*
X97369673Y-72048171D01*
X97369673Y-72048171D02*
X97417292Y-71857695D01*
X97417292Y-71857695D02*
X97464911Y-71762457D01*
X97464911Y-71762457D02*
X97512530Y-71714838D01*
X97512530Y-71714838D02*
X97607768Y-71667219D01*
X98560149Y-71667219D02*
X98655387Y-71667219D01*
X98655387Y-71667219D02*
X98750625Y-71714838D01*
X98750625Y-71714838D02*
X98798244Y-71762457D01*
X98798244Y-71762457D02*
X98845863Y-71857695D01*
X98845863Y-71857695D02*
X98893482Y-72048171D01*
X98893482Y-72048171D02*
X98893482Y-72286266D01*
X98893482Y-72286266D02*
X98845863Y-72476742D01*
X98845863Y-72476742D02*
X98798244Y-72571980D01*
X98798244Y-72571980D02*
X98750625Y-72619600D01*
X98750625Y-72619600D02*
X98655387Y-72667219D01*
X98655387Y-72667219D02*
X98560149Y-72667219D01*
X98560149Y-72667219D02*
X98464911Y-72619600D01*
X98464911Y-72619600D02*
X98417292Y-72571980D01*
X98417292Y-72571980D02*
X98369673Y-72476742D01*
X98369673Y-72476742D02*
X98322054Y-72286266D01*
X98322054Y-72286266D02*
X98322054Y-72048171D01*
X98322054Y-72048171D02*
X98369673Y-71857695D01*
X98369673Y-71857695D02*
X98417292Y-71762457D01*
X98417292Y-71762457D02*
X98464911Y-71714838D01*
X98464911Y-71714838D02*
X98560149Y-71667219D01*
X99750625Y-72000552D02*
X99750625Y-72667219D01*
X99322054Y-72000552D02*
X99322054Y-72524361D01*
X99322054Y-72524361D02*
X99369673Y-72619600D01*
X99369673Y-72619600D02*
X99464911Y-72667219D01*
X99464911Y-72667219D02*
X99607768Y-72667219D01*
X99607768Y-72667219D02*
X99703006Y-72619600D01*
X99703006Y-72619600D02*
X99750625Y-72571980D01*
X100560149Y-72143409D02*
X100226816Y-72143409D01*
X100226816Y-72667219D02*
X100226816Y-71667219D01*
X100226816Y-71667219D02*
X100703006Y-71667219D01*
X102179197Y-72143409D02*
X102322054Y-72191028D01*
X102322054Y-72191028D02*
X102369673Y-72238647D01*
X102369673Y-72238647D02*
X102417292Y-72333885D01*
X102417292Y-72333885D02*
X102417292Y-72476742D01*
X102417292Y-72476742D02*
X102369673Y-72571980D01*
X102369673Y-72571980D02*
X102322054Y-72619600D01*
X102322054Y-72619600D02*
X102226816Y-72667219D01*
X102226816Y-72667219D02*
X101845864Y-72667219D01*
X101845864Y-72667219D02*
X101845864Y-71667219D01*
X101845864Y-71667219D02*
X102179197Y-71667219D01*
X102179197Y-71667219D02*
X102274435Y-71714838D01*
X102274435Y-71714838D02*
X102322054Y-71762457D01*
X102322054Y-71762457D02*
X102369673Y-71857695D01*
X102369673Y-71857695D02*
X102369673Y-71952933D01*
X102369673Y-71952933D02*
X102322054Y-72048171D01*
X102322054Y-72048171D02*
X102274435Y-72095790D01*
X102274435Y-72095790D02*
X102179197Y-72143409D01*
X102179197Y-72143409D02*
X101845864Y-72143409D01*
X102845864Y-71667219D02*
X102845864Y-72476742D01*
X102845864Y-72476742D02*
X102893483Y-72571980D01*
X102893483Y-72571980D02*
X102941102Y-72619600D01*
X102941102Y-72619600D02*
X103036340Y-72667219D01*
X103036340Y-72667219D02*
X103226816Y-72667219D01*
X103226816Y-72667219D02*
X103322054Y-72619600D01*
X103322054Y-72619600D02*
X103369673Y-72571980D01*
X103369673Y-72571980D02*
X103417292Y-72476742D01*
X103417292Y-72476742D02*
X103417292Y-71667219D01*
X104369673Y-72667219D02*
X103893483Y-72667219D01*
X103893483Y-72667219D02*
X103893483Y-71667219D01*
X104703007Y-72667219D02*
X104703007Y-71667219D01*
X105274435Y-72667219D02*
X104845864Y-72095790D01*
X105274435Y-71667219D02*
X104703007Y-72238647D01*
X106655388Y-71667219D02*
X106845864Y-71667219D01*
X106845864Y-71667219D02*
X106941102Y-71714838D01*
X106941102Y-71714838D02*
X107036340Y-71810076D01*
X107036340Y-71810076D02*
X107083959Y-72000552D01*
X107083959Y-72000552D02*
X107083959Y-72333885D01*
X107083959Y-72333885D02*
X107036340Y-72524361D01*
X107036340Y-72524361D02*
X106941102Y-72619600D01*
X106941102Y-72619600D02*
X106845864Y-72667219D01*
X106845864Y-72667219D02*
X106655388Y-72667219D01*
X106655388Y-72667219D02*
X106560150Y-72619600D01*
X106560150Y-72619600D02*
X106464912Y-72524361D01*
X106464912Y-72524361D02*
X106417293Y-72333885D01*
X106417293Y-72333885D02*
X106417293Y-72000552D01*
X106417293Y-72000552D02*
X106464912Y-71810076D01*
X106464912Y-71810076D02*
X106560150Y-71714838D01*
X106560150Y-71714838D02*
X106655388Y-71667219D01*
X107512531Y-71667219D02*
X107512531Y-72476742D01*
X107512531Y-72476742D02*
X107560150Y-72571980D01*
X107560150Y-72571980D02*
X107607769Y-72619600D01*
X107607769Y-72619600D02*
X107703007Y-72667219D01*
X107703007Y-72667219D02*
X107893483Y-72667219D01*
X107893483Y-72667219D02*
X107988721Y-72619600D01*
X107988721Y-72619600D02*
X108036340Y-72571980D01*
X108036340Y-72571980D02*
X108083959Y-72476742D01*
X108083959Y-72476742D02*
X108083959Y-71667219D01*
X108417293Y-71667219D02*
X108988721Y-71667219D01*
X108703007Y-72667219D02*
X108703007Y-71667219D01*
X109322055Y-72667219D02*
X109322055Y-71667219D01*
X109322055Y-71667219D02*
X109703007Y-71667219D01*
X109703007Y-71667219D02*
X109798245Y-71714838D01*
X109798245Y-71714838D02*
X109845864Y-71762457D01*
X109845864Y-71762457D02*
X109893483Y-71857695D01*
X109893483Y-71857695D02*
X109893483Y-72000552D01*
X109893483Y-72000552D02*
X109845864Y-72095790D01*
X109845864Y-72095790D02*
X109798245Y-72143409D01*
X109798245Y-72143409D02*
X109703007Y-72191028D01*
X109703007Y-72191028D02*
X109322055Y-72191028D01*
X110322055Y-71667219D02*
X110322055Y-72476742D01*
X110322055Y-72476742D02*
X110369674Y-72571980D01*
X110369674Y-72571980D02*
X110417293Y-72619600D01*
X110417293Y-72619600D02*
X110512531Y-72667219D01*
X110512531Y-72667219D02*
X110703007Y-72667219D01*
X110703007Y-72667219D02*
X110798245Y-72619600D01*
X110798245Y-72619600D02*
X110845864Y-72571980D01*
X110845864Y-72571980D02*
X110893483Y-72476742D01*
X110893483Y-72476742D02*
X110893483Y-71667219D01*
X111226817Y-71667219D02*
X111798245Y-71667219D01*
X111512531Y-72667219D02*
X111512531Y-71667219D01*
X113464912Y-72571980D02*
X113417293Y-72619600D01*
X113417293Y-72619600D02*
X113274436Y-72667219D01*
X113274436Y-72667219D02*
X113179198Y-72667219D01*
X113179198Y-72667219D02*
X113036341Y-72619600D01*
X113036341Y-72619600D02*
X112941103Y-72524361D01*
X112941103Y-72524361D02*
X112893484Y-72429123D01*
X112893484Y-72429123D02*
X112845865Y-72238647D01*
X112845865Y-72238647D02*
X112845865Y-72095790D01*
X112845865Y-72095790D02*
X112893484Y-71905314D01*
X112893484Y-71905314D02*
X112941103Y-71810076D01*
X112941103Y-71810076D02*
X113036341Y-71714838D01*
X113036341Y-71714838D02*
X113179198Y-71667219D01*
X113179198Y-71667219D02*
X113274436Y-71667219D01*
X113274436Y-71667219D02*
X113417293Y-71714838D01*
X113417293Y-71714838D02*
X113464912Y-71762457D01*
X113845865Y-72381504D02*
X114322055Y-72381504D01*
X113750627Y-72667219D02*
X114083960Y-71667219D01*
X114083960Y-71667219D02*
X114417293Y-72667219D01*
X114750627Y-72667219D02*
X114750627Y-71667219D01*
X114750627Y-71667219D02*
X115131579Y-71667219D01*
X115131579Y-71667219D02*
X115226817Y-71714838D01*
X115226817Y-71714838D02*
X115274436Y-71762457D01*
X115274436Y-71762457D02*
X115322055Y-71857695D01*
X115322055Y-71857695D02*
X115322055Y-72000552D01*
X115322055Y-72000552D02*
X115274436Y-72095790D01*
X115274436Y-72095790D02*
X115226817Y-72143409D01*
X115226817Y-72143409D02*
X115131579Y-72191028D01*
X115131579Y-72191028D02*
X114750627Y-72191028D01*
X115703008Y-72381504D02*
X116179198Y-72381504D01*
X115607770Y-72667219D02*
X115941103Y-71667219D01*
X115941103Y-71667219D02*
X116274436Y-72667219D01*
X117179198Y-72571980D02*
X117131579Y-72619600D01*
X117131579Y-72619600D02*
X116988722Y-72667219D01*
X116988722Y-72667219D02*
X116893484Y-72667219D01*
X116893484Y-72667219D02*
X116750627Y-72619600D01*
X116750627Y-72619600D02*
X116655389Y-72524361D01*
X116655389Y-72524361D02*
X116607770Y-72429123D01*
X116607770Y-72429123D02*
X116560151Y-72238647D01*
X116560151Y-72238647D02*
X116560151Y-72095790D01*
X116560151Y-72095790D02*
X116607770Y-71905314D01*
X116607770Y-71905314D02*
X116655389Y-71810076D01*
X116655389Y-71810076D02*
X116750627Y-71714838D01*
X116750627Y-71714838D02*
X116893484Y-71667219D01*
X116893484Y-71667219D02*
X116988722Y-71667219D01*
X116988722Y-71667219D02*
X117131579Y-71714838D01*
X117131579Y-71714838D02*
X117179198Y-71762457D01*
X117607770Y-72667219D02*
X117607770Y-71667219D01*
X117941103Y-71667219D02*
X118512531Y-71667219D01*
X118226817Y-72667219D02*
X118226817Y-71667219D01*
X118798246Y-72381504D02*
X119274436Y-72381504D01*
X118703008Y-72667219D02*
X119036341Y-71667219D01*
X119036341Y-71667219D02*
X119369674Y-72667219D01*
X119703008Y-72667219D02*
X119703008Y-71667219D01*
X119703008Y-71667219D02*
X120274436Y-72667219D01*
X120274436Y-72667219D02*
X120274436Y-71667219D01*
X121322055Y-72571980D02*
X121274436Y-72619600D01*
X121274436Y-72619600D02*
X121131579Y-72667219D01*
X121131579Y-72667219D02*
X121036341Y-72667219D01*
X121036341Y-72667219D02*
X120893484Y-72619600D01*
X120893484Y-72619600D02*
X120798246Y-72524361D01*
X120798246Y-72524361D02*
X120750627Y-72429123D01*
X120750627Y-72429123D02*
X120703008Y-72238647D01*
X120703008Y-72238647D02*
X120703008Y-72095790D01*
X120703008Y-72095790D02*
X120750627Y-71905314D01*
X120750627Y-71905314D02*
X120798246Y-71810076D01*
X120798246Y-71810076D02*
X120893484Y-71714838D01*
X120893484Y-71714838D02*
X121036341Y-71667219D01*
X121036341Y-71667219D02*
X121131579Y-71667219D01*
X121131579Y-71667219D02*
X121274436Y-71714838D01*
X121274436Y-71714838D02*
X121322055Y-71762457D01*
X121750627Y-72143409D02*
X122083960Y-72143409D01*
X122226817Y-72667219D02*
X121750627Y-72667219D01*
X121750627Y-72667219D02*
X121750627Y-71667219D01*
X121750627Y-71667219D02*
X122226817Y-71667219D01*
X123607770Y-71667219D02*
X123798246Y-71667219D01*
X123798246Y-71667219D02*
X123893484Y-71714838D01*
X123893484Y-71714838D02*
X123988722Y-71810076D01*
X123988722Y-71810076D02*
X124036341Y-72000552D01*
X124036341Y-72000552D02*
X124036341Y-72333885D01*
X124036341Y-72333885D02*
X123988722Y-72524361D01*
X123988722Y-72524361D02*
X123893484Y-72619600D01*
X123893484Y-72619600D02*
X123798246Y-72667219D01*
X123798246Y-72667219D02*
X123607770Y-72667219D01*
X123607770Y-72667219D02*
X123512532Y-72619600D01*
X123512532Y-72619600D02*
X123417294Y-72524361D01*
X123417294Y-72524361D02*
X123369675Y-72333885D01*
X123369675Y-72333885D02*
X123369675Y-72000552D01*
X123369675Y-72000552D02*
X123417294Y-71810076D01*
X123417294Y-71810076D02*
X123512532Y-71714838D01*
X123512532Y-71714838D02*
X123607770Y-71667219D01*
X125036341Y-72667219D02*
X124703008Y-72191028D01*
X124464913Y-72667219D02*
X124464913Y-71667219D01*
X124464913Y-71667219D02*
X124845865Y-71667219D01*
X124845865Y-71667219D02*
X124941103Y-71714838D01*
X124941103Y-71714838D02*
X124988722Y-71762457D01*
X124988722Y-71762457D02*
X125036341Y-71857695D01*
X125036341Y-71857695D02*
X125036341Y-72000552D01*
X125036341Y-72000552D02*
X124988722Y-72095790D01*
X124988722Y-72095790D02*
X124941103Y-72143409D01*
X124941103Y-72143409D02*
X124845865Y-72191028D01*
X124845865Y-72191028D02*
X124464913Y-72191028D01*
X126798246Y-72571980D02*
X126750627Y-72619600D01*
X126750627Y-72619600D02*
X126607770Y-72667219D01*
X126607770Y-72667219D02*
X126512532Y-72667219D01*
X126512532Y-72667219D02*
X126369675Y-72619600D01*
X126369675Y-72619600D02*
X126274437Y-72524361D01*
X126274437Y-72524361D02*
X126226818Y-72429123D01*
X126226818Y-72429123D02*
X126179199Y-72238647D01*
X126179199Y-72238647D02*
X126179199Y-72095790D01*
X126179199Y-72095790D02*
X126226818Y-71905314D01*
X126226818Y-71905314D02*
X126274437Y-71810076D01*
X126274437Y-71810076D02*
X126369675Y-71714838D01*
X126369675Y-71714838D02*
X126512532Y-71667219D01*
X126512532Y-71667219D02*
X126607770Y-71667219D01*
X126607770Y-71667219D02*
X126750627Y-71714838D01*
X126750627Y-71714838D02*
X126798246Y-71762457D01*
X127083961Y-71667219D02*
X127417294Y-72667219D01*
X127417294Y-72667219D02*
X127750627Y-71667219D01*
X129322056Y-72667219D02*
X128845866Y-72667219D01*
X128845866Y-72667219D02*
X128845866Y-71667219D01*
X129845866Y-71667219D02*
X130036342Y-71667219D01*
X130036342Y-71667219D02*
X130131580Y-71714838D01*
X130131580Y-71714838D02*
X130226818Y-71810076D01*
X130226818Y-71810076D02*
X130274437Y-72000552D01*
X130274437Y-72000552D02*
X130274437Y-72333885D01*
X130274437Y-72333885D02*
X130226818Y-72524361D01*
X130226818Y-72524361D02*
X130131580Y-72619600D01*
X130131580Y-72619600D02*
X130036342Y-72667219D01*
X130036342Y-72667219D02*
X129845866Y-72667219D01*
X129845866Y-72667219D02*
X129750628Y-72619600D01*
X129750628Y-72619600D02*
X129655390Y-72524361D01*
X129655390Y-72524361D02*
X129607771Y-72333885D01*
X129607771Y-72333885D02*
X129607771Y-72000552D01*
X129607771Y-72000552D02*
X129655390Y-71810076D01*
X129655390Y-71810076D02*
X129750628Y-71714838D01*
X129750628Y-71714838D02*
X129845866Y-71667219D01*
X130655390Y-72381504D02*
X131131580Y-72381504D01*
X130560152Y-72667219D02*
X130893485Y-71667219D01*
X130893485Y-71667219D02*
X131226818Y-72667219D01*
X131560152Y-72667219D02*
X131560152Y-71667219D01*
X131560152Y-71667219D02*
X131798247Y-71667219D01*
X131798247Y-71667219D02*
X131941104Y-71714838D01*
X131941104Y-71714838D02*
X132036342Y-71810076D01*
X132036342Y-71810076D02*
X132083961Y-71905314D01*
X132083961Y-71905314D02*
X132131580Y-72095790D01*
X132131580Y-72095790D02*
X132131580Y-72238647D01*
X132131580Y-72238647D02*
X132083961Y-72429123D01*
X132083961Y-72429123D02*
X132036342Y-72524361D01*
X132036342Y-72524361D02*
X131941104Y-72619600D01*
X131941104Y-72619600D02*
X131798247Y-72667219D01*
X131798247Y-72667219D02*
X131560152Y-72667219D01*
X58322054Y-108761616D02*
X58798244Y-108761616D01*
X58226816Y-109047331D02*
X58560149Y-108047331D01*
X58560149Y-108047331D02*
X58893482Y-109047331D01*
X59226816Y-109047331D02*
X59226816Y-108047331D01*
X59226816Y-108047331D02*
X59607768Y-108047331D01*
X59607768Y-108047331D02*
X59703006Y-108094950D01*
X59703006Y-108094950D02*
X59750625Y-108142569D01*
X59750625Y-108142569D02*
X59798244Y-108237807D01*
X59798244Y-108237807D02*
X59798244Y-108380664D01*
X59798244Y-108380664D02*
X59750625Y-108475902D01*
X59750625Y-108475902D02*
X59703006Y-108523521D01*
X59703006Y-108523521D02*
X59607768Y-108571140D01*
X59607768Y-108571140D02*
X59226816Y-108571140D01*
X60226816Y-108523521D02*
X60560149Y-108523521D01*
X60703006Y-109047331D02*
X60226816Y-109047331D01*
X60226816Y-109047331D02*
X60226816Y-108047331D01*
X60226816Y-108047331D02*
X60703006Y-108047331D01*
X61036340Y-109047331D02*
X61560149Y-108380664D01*
X61036340Y-108380664D02*
X61560149Y-109047331D01*
X62703007Y-108666378D02*
X63464912Y-108666378D01*
X64369673Y-108380664D02*
X64369673Y-109047331D01*
X64131578Y-107999712D02*
X63893483Y-108713997D01*
X63893483Y-108713997D02*
X64512530Y-108713997D01*
X65083959Y-108047331D02*
X65179197Y-108047331D01*
X65179197Y-108047331D02*
X65274435Y-108094950D01*
X65274435Y-108094950D02*
X65322054Y-108142569D01*
X65322054Y-108142569D02*
X65369673Y-108237807D01*
X65369673Y-108237807D02*
X65417292Y-108428283D01*
X65417292Y-108428283D02*
X65417292Y-108666378D01*
X65417292Y-108666378D02*
X65369673Y-108856854D01*
X65369673Y-108856854D02*
X65322054Y-108952092D01*
X65322054Y-108952092D02*
X65274435Y-108999712D01*
X65274435Y-108999712D02*
X65179197Y-109047331D01*
X65179197Y-109047331D02*
X65083959Y-109047331D01*
X65083959Y-109047331D02*
X64988721Y-108999712D01*
X64988721Y-108999712D02*
X64941102Y-108952092D01*
X64941102Y-108952092D02*
X64893483Y-108856854D01*
X64893483Y-108856854D02*
X64845864Y-108666378D01*
X64845864Y-108666378D02*
X64845864Y-108428283D01*
X64845864Y-108428283D02*
X64893483Y-108237807D01*
X64893483Y-108237807D02*
X64941102Y-108142569D01*
X64941102Y-108142569D02*
X64988721Y-108094950D01*
X64988721Y-108094950D02*
X65083959Y-108047331D01*
X66036340Y-108047331D02*
X66131578Y-108047331D01*
X66131578Y-108047331D02*
X66226816Y-108094950D01*
X66226816Y-108094950D02*
X66274435Y-108142569D01*
X66274435Y-108142569D02*
X66322054Y-108237807D01*
X66322054Y-108237807D02*
X66369673Y-108428283D01*
X66369673Y-108428283D02*
X66369673Y-108666378D01*
X66369673Y-108666378D02*
X66322054Y-108856854D01*
X66322054Y-108856854D02*
X66274435Y-108952092D01*
X66274435Y-108952092D02*
X66226816Y-108999712D01*
X66226816Y-108999712D02*
X66131578Y-109047331D01*
X66131578Y-109047331D02*
X66036340Y-109047331D01*
X66036340Y-109047331D02*
X65941102Y-108999712D01*
X65941102Y-108999712D02*
X65893483Y-108952092D01*
X65893483Y-108952092D02*
X65845864Y-108856854D01*
X65845864Y-108856854D02*
X65798245Y-108666378D01*
X65798245Y-108666378D02*
X65798245Y-108428283D01*
X65798245Y-108428283D02*
X65845864Y-108237807D01*
X65845864Y-108237807D02*
X65893483Y-108142569D01*
X65893483Y-108142569D02*
X65941102Y-108094950D01*
X65941102Y-108094950D02*
X66036340Y-108047331D01*
X66655388Y-108047331D02*
X66988721Y-109047331D01*
X66988721Y-109047331D02*
X67322054Y-108047331D01*
X68750626Y-108523521D02*
X68417293Y-108523521D01*
X68417293Y-109047331D02*
X68417293Y-108047331D01*
X68417293Y-108047331D02*
X68893483Y-108047331D01*
X69417293Y-109047331D02*
X69322055Y-108999712D01*
X69322055Y-108999712D02*
X69274436Y-108904473D01*
X69274436Y-108904473D02*
X69274436Y-108047331D01*
X69703008Y-108380664D02*
X69941103Y-109047331D01*
X70179198Y-108380664D02*
X69941103Y-109047331D01*
X69941103Y-109047331D02*
X69845865Y-109285426D01*
X69845865Y-109285426D02*
X69798246Y-109333045D01*
X69798246Y-109333045D02*
X69703008Y-109380664D01*
X70560151Y-109047331D02*
X70560151Y-108047331D01*
X70560151Y-108428283D02*
X70655389Y-108380664D01*
X70655389Y-108380664D02*
X70845865Y-108380664D01*
X70845865Y-108380664D02*
X70941103Y-108428283D01*
X70941103Y-108428283D02*
X70988722Y-108475902D01*
X70988722Y-108475902D02*
X71036341Y-108571140D01*
X71036341Y-108571140D02*
X71036341Y-108856854D01*
X71036341Y-108856854D02*
X70988722Y-108952092D01*
X70988722Y-108952092D02*
X70941103Y-108999712D01*
X70941103Y-108999712D02*
X70845865Y-109047331D01*
X70845865Y-109047331D02*
X70655389Y-109047331D01*
X70655389Y-109047331D02*
X70560151Y-108999712D01*
X71893484Y-109047331D02*
X71893484Y-108523521D01*
X71893484Y-108523521D02*
X71845865Y-108428283D01*
X71845865Y-108428283D02*
X71750627Y-108380664D01*
X71750627Y-108380664D02*
X71560151Y-108380664D01*
X71560151Y-108380664D02*
X71464913Y-108428283D01*
X71893484Y-108999712D02*
X71798246Y-109047331D01*
X71798246Y-109047331D02*
X71560151Y-109047331D01*
X71560151Y-109047331D02*
X71464913Y-108999712D01*
X71464913Y-108999712D02*
X71417294Y-108904473D01*
X71417294Y-108904473D02*
X71417294Y-108809235D01*
X71417294Y-108809235D02*
X71464913Y-108713997D01*
X71464913Y-108713997D02*
X71560151Y-108666378D01*
X71560151Y-108666378D02*
X71798246Y-108666378D01*
X71798246Y-108666378D02*
X71893484Y-108618759D01*
X72798246Y-108999712D02*
X72703008Y-109047331D01*
X72703008Y-109047331D02*
X72512532Y-109047331D01*
X72512532Y-109047331D02*
X72417294Y-108999712D01*
X72417294Y-108999712D02*
X72369675Y-108952092D01*
X72369675Y-108952092D02*
X72322056Y-108856854D01*
X72322056Y-108856854D02*
X72322056Y-108571140D01*
X72322056Y-108571140D02*
X72369675Y-108475902D01*
X72369675Y-108475902D02*
X72417294Y-108428283D01*
X72417294Y-108428283D02*
X72512532Y-108380664D01*
X72512532Y-108380664D02*
X72703008Y-108380664D01*
X72703008Y-108380664D02*
X72798246Y-108428283D01*
X73226818Y-109047331D02*
X73226818Y-108047331D01*
X73322056Y-108666378D02*
X73607770Y-109047331D01*
X73607770Y-108380664D02*
X73226818Y-108761616D01*
X75369675Y-108952092D02*
X75322056Y-108999712D01*
X75322056Y-108999712D02*
X75179199Y-109047331D01*
X75179199Y-109047331D02*
X75083961Y-109047331D01*
X75083961Y-109047331D02*
X74941104Y-108999712D01*
X74941104Y-108999712D02*
X74845866Y-108904473D01*
X74845866Y-108904473D02*
X74798247Y-108809235D01*
X74798247Y-108809235D02*
X74750628Y-108618759D01*
X74750628Y-108618759D02*
X74750628Y-108475902D01*
X74750628Y-108475902D02*
X74798247Y-108285426D01*
X74798247Y-108285426D02*
X74845866Y-108190188D01*
X74845866Y-108190188D02*
X74941104Y-108094950D01*
X74941104Y-108094950D02*
X75083961Y-108047331D01*
X75083961Y-108047331D02*
X75179199Y-108047331D01*
X75179199Y-108047331D02*
X75322056Y-108094950D01*
X75322056Y-108094950D02*
X75369675Y-108142569D01*
X75941104Y-109047331D02*
X75845866Y-108999712D01*
X75845866Y-108999712D02*
X75798247Y-108952092D01*
X75798247Y-108952092D02*
X75750628Y-108856854D01*
X75750628Y-108856854D02*
X75750628Y-108571140D01*
X75750628Y-108571140D02*
X75798247Y-108475902D01*
X75798247Y-108475902D02*
X75845866Y-108428283D01*
X75845866Y-108428283D02*
X75941104Y-108380664D01*
X75941104Y-108380664D02*
X76083961Y-108380664D01*
X76083961Y-108380664D02*
X76179199Y-108428283D01*
X76179199Y-108428283D02*
X76226818Y-108475902D01*
X76226818Y-108475902D02*
X76274437Y-108571140D01*
X76274437Y-108571140D02*
X76274437Y-108856854D01*
X76274437Y-108856854D02*
X76226818Y-108952092D01*
X76226818Y-108952092D02*
X76179199Y-108999712D01*
X76179199Y-108999712D02*
X76083961Y-109047331D01*
X76083961Y-109047331D02*
X75941104Y-109047331D01*
X76703009Y-108380664D02*
X76703009Y-109047331D01*
X76703009Y-108475902D02*
X76750628Y-108428283D01*
X76750628Y-108428283D02*
X76845866Y-108380664D01*
X76845866Y-108380664D02*
X76988723Y-108380664D01*
X76988723Y-108380664D02*
X77083961Y-108428283D01*
X77083961Y-108428283D02*
X77131580Y-108523521D01*
X77131580Y-108523521D02*
X77131580Y-109047331D01*
X77512533Y-108380664D02*
X77750628Y-109047331D01*
X77750628Y-109047331D02*
X77988723Y-108380664D01*
X78750628Y-108999712D02*
X78655390Y-109047331D01*
X78655390Y-109047331D02*
X78464914Y-109047331D01*
X78464914Y-109047331D02*
X78369676Y-108999712D01*
X78369676Y-108999712D02*
X78322057Y-108904473D01*
X78322057Y-108904473D02*
X78322057Y-108523521D01*
X78322057Y-108523521D02*
X78369676Y-108428283D01*
X78369676Y-108428283D02*
X78464914Y-108380664D01*
X78464914Y-108380664D02*
X78655390Y-108380664D01*
X78655390Y-108380664D02*
X78750628Y-108428283D01*
X78750628Y-108428283D02*
X78798247Y-108523521D01*
X78798247Y-108523521D02*
X78798247Y-108618759D01*
X78798247Y-108618759D02*
X78322057Y-108713997D01*
X79226819Y-109047331D02*
X79226819Y-108380664D01*
X79226819Y-108571140D02*
X79274438Y-108475902D01*
X79274438Y-108475902D02*
X79322057Y-108428283D01*
X79322057Y-108428283D02*
X79417295Y-108380664D01*
X79417295Y-108380664D02*
X79512533Y-108380664D01*
X79703010Y-108380664D02*
X80083962Y-108380664D01*
X79845867Y-108047331D02*
X79845867Y-108904473D01*
X79845867Y-108904473D02*
X79893486Y-108999712D01*
X79893486Y-108999712D02*
X79988724Y-109047331D01*
X79988724Y-109047331D02*
X80083962Y-109047331D01*
X80798248Y-108999712D02*
X80703010Y-109047331D01*
X80703010Y-109047331D02*
X80512534Y-109047331D01*
X80512534Y-109047331D02*
X80417296Y-108999712D01*
X80417296Y-108999712D02*
X80369677Y-108904473D01*
X80369677Y-108904473D02*
X80369677Y-108523521D01*
X80369677Y-108523521D02*
X80417296Y-108428283D01*
X80417296Y-108428283D02*
X80512534Y-108380664D01*
X80512534Y-108380664D02*
X80703010Y-108380664D01*
X80703010Y-108380664D02*
X80798248Y-108428283D01*
X80798248Y-108428283D02*
X80845867Y-108523521D01*
X80845867Y-108523521D02*
X80845867Y-108618759D01*
X80845867Y-108618759D02*
X80369677Y-108713997D01*
X81274439Y-109047331D02*
X81274439Y-108380664D01*
X81274439Y-108571140D02*
X81322058Y-108475902D01*
X81322058Y-108475902D02*
X81369677Y-108428283D01*
X81369677Y-108428283D02*
X81464915Y-108380664D01*
X81464915Y-108380664D02*
X81560153Y-108380664D01*
X58941101Y-110657275D02*
X58607768Y-110181084D01*
X58369673Y-110657275D02*
X58369673Y-109657275D01*
X58369673Y-109657275D02*
X58750625Y-109657275D01*
X58750625Y-109657275D02*
X58845863Y-109704894D01*
X58845863Y-109704894D02*
X58893482Y-109752513D01*
X58893482Y-109752513D02*
X58941101Y-109847751D01*
X58941101Y-109847751D02*
X58941101Y-109990608D01*
X58941101Y-109990608D02*
X58893482Y-110085846D01*
X58893482Y-110085846D02*
X58845863Y-110133465D01*
X58845863Y-110133465D02*
X58750625Y-110181084D01*
X58750625Y-110181084D02*
X58369673Y-110181084D01*
X59750625Y-110609656D02*
X59655387Y-110657275D01*
X59655387Y-110657275D02*
X59464911Y-110657275D01*
X59464911Y-110657275D02*
X59369673Y-110609656D01*
X59369673Y-110609656D02*
X59322054Y-110514417D01*
X59322054Y-110514417D02*
X59322054Y-110133465D01*
X59322054Y-110133465D02*
X59369673Y-110038227D01*
X59369673Y-110038227D02*
X59464911Y-109990608D01*
X59464911Y-109990608D02*
X59655387Y-109990608D01*
X59655387Y-109990608D02*
X59750625Y-110038227D01*
X59750625Y-110038227D02*
X59798244Y-110133465D01*
X59798244Y-110133465D02*
X59798244Y-110228703D01*
X59798244Y-110228703D02*
X59322054Y-110323941D01*
X60131578Y-109990608D02*
X60369673Y-110657275D01*
X60369673Y-110657275D02*
X60607768Y-109990608D01*
X62274435Y-110657275D02*
X61703007Y-110657275D01*
X61988721Y-110657275D02*
X61988721Y-109657275D01*
X61988721Y-109657275D02*
X61893483Y-109800132D01*
X61893483Y-109800132D02*
X61798245Y-109895370D01*
X61798245Y-109895370D02*
X61703007Y-109942989D01*
X62703007Y-110562036D02*
X62750626Y-110609656D01*
X62750626Y-110609656D02*
X62703007Y-110657275D01*
X62703007Y-110657275D02*
X62655388Y-110609656D01*
X62655388Y-110609656D02*
X62703007Y-110562036D01*
X62703007Y-110562036D02*
X62703007Y-110657275D01*
X63369673Y-109657275D02*
X63464911Y-109657275D01*
X63464911Y-109657275D02*
X63560149Y-109704894D01*
X63560149Y-109704894D02*
X63607768Y-109752513D01*
X63607768Y-109752513D02*
X63655387Y-109847751D01*
X63655387Y-109847751D02*
X63703006Y-110038227D01*
X63703006Y-110038227D02*
X63703006Y-110276322D01*
X63703006Y-110276322D02*
X63655387Y-110466798D01*
X63655387Y-110466798D02*
X63607768Y-110562036D01*
X63607768Y-110562036D02*
X63560149Y-110609656D01*
X63560149Y-110609656D02*
X63464911Y-110657275D01*
X63464911Y-110657275D02*
X63369673Y-110657275D01*
X63369673Y-110657275D02*
X63274435Y-110609656D01*
X63274435Y-110609656D02*
X63226816Y-110562036D01*
X63226816Y-110562036D02*
X63179197Y-110466798D01*
X63179197Y-110466798D02*
X63131578Y-110276322D01*
X63131578Y-110276322D02*
X63131578Y-110038227D01*
X63131578Y-110038227D02*
X63179197Y-109847751D01*
X63179197Y-109847751D02*
X63226816Y-109752513D01*
X63226816Y-109752513D02*
X63274435Y-109704894D01*
X63274435Y-109704894D02*
X63369673Y-109657275D01*
X58322054Y-111981504D02*
X58798244Y-111981504D01*
X58226816Y-112267219D02*
X58560149Y-111267219D01*
X58560149Y-111267219D02*
X58893482Y-112267219D01*
X59369673Y-112267219D02*
X59274435Y-112219600D01*
X59274435Y-112219600D02*
X59226816Y-112124361D01*
X59226816Y-112124361D02*
X59226816Y-111267219D01*
X60179197Y-112267219D02*
X60179197Y-111743409D01*
X60179197Y-111743409D02*
X60131578Y-111648171D01*
X60131578Y-111648171D02*
X60036340Y-111600552D01*
X60036340Y-111600552D02*
X59845864Y-111600552D01*
X59845864Y-111600552D02*
X59750626Y-111648171D01*
X60179197Y-112219600D02*
X60083959Y-112267219D01*
X60083959Y-112267219D02*
X59845864Y-112267219D01*
X59845864Y-112267219D02*
X59750626Y-112219600D01*
X59750626Y-112219600D02*
X59703007Y-112124361D01*
X59703007Y-112124361D02*
X59703007Y-112029123D01*
X59703007Y-112029123D02*
X59750626Y-111933885D01*
X59750626Y-111933885D02*
X59845864Y-111886266D01*
X59845864Y-111886266D02*
X60083959Y-111886266D01*
X60083959Y-111886266D02*
X60179197Y-111838647D01*
X60655388Y-111600552D02*
X60655388Y-112267219D01*
X60655388Y-111695790D02*
X60703007Y-111648171D01*
X60703007Y-111648171D02*
X60798245Y-111600552D01*
X60798245Y-111600552D02*
X60941102Y-111600552D01*
X60941102Y-111600552D02*
X61036340Y-111648171D01*
X61036340Y-111648171D02*
X61083959Y-111743409D01*
X61083959Y-111743409D02*
X61083959Y-112267219D01*
X62322055Y-112267219D02*
X62322055Y-111267219D01*
X62322055Y-111743409D02*
X62893483Y-111743409D01*
X62893483Y-112267219D02*
X62893483Y-111267219D01*
X63322055Y-112219600D02*
X63417293Y-112267219D01*
X63417293Y-112267219D02*
X63607769Y-112267219D01*
X63607769Y-112267219D02*
X63703007Y-112219600D01*
X63703007Y-112219600D02*
X63750626Y-112124361D01*
X63750626Y-112124361D02*
X63750626Y-112076742D01*
X63750626Y-112076742D02*
X63703007Y-111981504D01*
X63703007Y-111981504D02*
X63607769Y-111933885D01*
X63607769Y-111933885D02*
X63464912Y-111933885D01*
X63464912Y-111933885D02*
X63369674Y-111886266D01*
X63369674Y-111886266D02*
X63322055Y-111791028D01*
X63322055Y-111791028D02*
X63322055Y-111743409D01*
X63322055Y-111743409D02*
X63369674Y-111648171D01*
X63369674Y-111648171D02*
X63464912Y-111600552D01*
X63464912Y-111600552D02*
X63607769Y-111600552D01*
X63607769Y-111600552D02*
X63703007Y-111648171D01*
X64607769Y-111600552D02*
X64607769Y-112267219D01*
X64179198Y-111600552D02*
X64179198Y-112124361D01*
X64179198Y-112124361D02*
X64226817Y-112219600D01*
X64226817Y-112219600D02*
X64322055Y-112267219D01*
X64322055Y-112267219D02*
X64464912Y-112267219D01*
X64464912Y-112267219D02*
X64560150Y-112219600D01*
X64560150Y-112219600D02*
X64607769Y-112171980D01*
D10*
X58332455Y-93772419D02*
X58141979Y-93772419D01*
X58141979Y-93772419D02*
X58046741Y-93820038D01*
X58046741Y-93820038D02*
X57999122Y-93867657D01*
X57999122Y-93867657D02*
X57903884Y-94010514D01*
X57903884Y-94010514D02*
X57856265Y-94200990D01*
X57856265Y-94200990D02*
X57856265Y-94581942D01*
X57856265Y-94581942D02*
X57903884Y-94677180D01*
X57903884Y-94677180D02*
X57951503Y-94724800D01*
X57951503Y-94724800D02*
X58046741Y-94772419D01*
X58046741Y-94772419D02*
X58237217Y-94772419D01*
X58237217Y-94772419D02*
X58332455Y-94724800D01*
X58332455Y-94724800D02*
X58380074Y-94677180D01*
X58380074Y-94677180D02*
X58427693Y-94581942D01*
X58427693Y-94581942D02*
X58427693Y-94343847D01*
X58427693Y-94343847D02*
X58380074Y-94248609D01*
X58380074Y-94248609D02*
X58332455Y-94200990D01*
X58332455Y-94200990D02*
X58237217Y-94153371D01*
X58237217Y-94153371D02*
X58046741Y-94153371D01*
X58046741Y-94153371D02*
X57951503Y-94200990D01*
X57951503Y-94200990D02*
X57903884Y-94248609D01*
X57903884Y-94248609D02*
X57856265Y-94343847D01*
X58713408Y-93772419D02*
X59046741Y-94772419D01*
X59046741Y-94772419D02*
X59380074Y-93772419D01*
X59713408Y-94772419D02*
X59713408Y-93772419D01*
X59713408Y-93772419D02*
X59951503Y-93772419D01*
X59951503Y-93772419D02*
X60094360Y-93820038D01*
X60094360Y-93820038D02*
X60189598Y-93915276D01*
X60189598Y-93915276D02*
X60237217Y-94010514D01*
X60237217Y-94010514D02*
X60284836Y-94200990D01*
X60284836Y-94200990D02*
X60284836Y-94343847D01*
X60284836Y-94343847D02*
X60237217Y-94534323D01*
X60237217Y-94534323D02*
X60189598Y-94629561D01*
X60189598Y-94629561D02*
X60094360Y-94724800D01*
X60094360Y-94724800D02*
X59951503Y-94772419D01*
X59951503Y-94772419D02*
X59713408Y-94772419D01*
X61284836Y-94772419D02*
X60951503Y-94296228D01*
X60713408Y-94772419D02*
X60713408Y-93772419D01*
X60713408Y-93772419D02*
X61094360Y-93772419D01*
X61094360Y-93772419D02*
X61189598Y-93820038D01*
X61189598Y-93820038D02*
X61237217Y-93867657D01*
X61237217Y-93867657D02*
X61284836Y-93962895D01*
X61284836Y-93962895D02*
X61284836Y-94105752D01*
X61284836Y-94105752D02*
X61237217Y-94200990D01*
X61237217Y-94200990D02*
X61189598Y-94248609D01*
X61189598Y-94248609D02*
X61094360Y-94296228D01*
X61094360Y-94296228D02*
X60713408Y-94296228D01*
X61570551Y-93772419D02*
X61903884Y-94772419D01*
X61903884Y-94772419D02*
X62237217Y-93772419D01*
X57761027Y-71672419D02*
X58094360Y-72672419D01*
X58094360Y-72672419D02*
X58427693Y-71672419D01*
X58761027Y-72672419D02*
X58761027Y-71672419D01*
X59237217Y-72672419D02*
X59237217Y-71672419D01*
X59237217Y-71672419D02*
X59808645Y-72672419D01*
X59808645Y-72672419D02*
X59808645Y-71672419D01*
X127503884Y-78891466D02*
X128265789Y-78891466D01*
X129170550Y-78605752D02*
X129170550Y-79272419D01*
X128932455Y-78224800D02*
X128694360Y-78939085D01*
X128694360Y-78939085D02*
X129313407Y-78939085D01*
X129884836Y-78272419D02*
X129980074Y-78272419D01*
X129980074Y-78272419D02*
X130075312Y-78320038D01*
X130075312Y-78320038D02*
X130122931Y-78367657D01*
X130122931Y-78367657D02*
X130170550Y-78462895D01*
X130170550Y-78462895D02*
X130218169Y-78653371D01*
X130218169Y-78653371D02*
X130218169Y-78891466D01*
X130218169Y-78891466D02*
X130170550Y-79081942D01*
X130170550Y-79081942D02*
X130122931Y-79177180D01*
X130122931Y-79177180D02*
X130075312Y-79224800D01*
X130075312Y-79224800D02*
X129980074Y-79272419D01*
X129980074Y-79272419D02*
X129884836Y-79272419D01*
X129884836Y-79272419D02*
X129789598Y-79224800D01*
X129789598Y-79224800D02*
X129741979Y-79177180D01*
X129741979Y-79177180D02*
X129694360Y-79081942D01*
X129694360Y-79081942D02*
X129646741Y-78891466D01*
X129646741Y-78891466D02*
X129646741Y-78653371D01*
X129646741Y-78653371D02*
X129694360Y-78462895D01*
X129694360Y-78462895D02*
X129741979Y-78367657D01*
X129741979Y-78367657D02*
X129789598Y-78320038D01*
X129789598Y-78320038D02*
X129884836Y-78272419D01*
X130837217Y-78272419D02*
X130932455Y-78272419D01*
X130932455Y-78272419D02*
X131027693Y-78320038D01*
X131027693Y-78320038D02*
X131075312Y-78367657D01*
X131075312Y-78367657D02*
X131122931Y-78462895D01*
X131122931Y-78462895D02*
X131170550Y-78653371D01*
X131170550Y-78653371D02*
X131170550Y-78891466D01*
X131170550Y-78891466D02*
X131122931Y-79081942D01*
X131122931Y-79081942D02*
X131075312Y-79177180D01*
X131075312Y-79177180D02*
X131027693Y-79224800D01*
X131027693Y-79224800D02*
X130932455Y-79272419D01*
X130932455Y-79272419D02*
X130837217Y-79272419D01*
X130837217Y-79272419D02*
X130741979Y-79224800D01*
X130741979Y-79224800D02*
X130694360Y-79177180D01*
X130694360Y-79177180D02*
X130646741Y-79081942D01*
X130646741Y-79081942D02*
X130599122Y-78891466D01*
X130599122Y-78891466D02*
X130599122Y-78653371D01*
X130599122Y-78653371D02*
X130646741Y-78462895D01*
X130646741Y-78462895D02*
X130694360Y-78367657D01*
X130694360Y-78367657D02*
X130741979Y-78320038D01*
X130741979Y-78320038D02*
X130837217Y-78272419D01*
X131456265Y-78272419D02*
X131789598Y-79272419D01*
X131789598Y-79272419D02*
X132122931Y-78272419D01*
X127703884Y-89272419D02*
X127703884Y-88272419D01*
X127703884Y-88748609D02*
X128275312Y-88748609D01*
X128275312Y-89272419D02*
X128275312Y-88272419D01*
X128608646Y-88272419D02*
X128941979Y-89272419D01*
X128941979Y-89272419D02*
X129275312Y-88272419D01*
X130132455Y-88320038D02*
X130037217Y-88272419D01*
X130037217Y-88272419D02*
X129894360Y-88272419D01*
X129894360Y-88272419D02*
X129751503Y-88320038D01*
X129751503Y-88320038D02*
X129656265Y-88415276D01*
X129656265Y-88415276D02*
X129608646Y-88510514D01*
X129608646Y-88510514D02*
X129561027Y-88700990D01*
X129561027Y-88700990D02*
X129561027Y-88843847D01*
X129561027Y-88843847D02*
X129608646Y-89034323D01*
X129608646Y-89034323D02*
X129656265Y-89129561D01*
X129656265Y-89129561D02*
X129751503Y-89224800D01*
X129751503Y-89224800D02*
X129894360Y-89272419D01*
X129894360Y-89272419D02*
X129989598Y-89272419D01*
X129989598Y-89272419D02*
X130132455Y-89224800D01*
X130132455Y-89224800D02*
X130180074Y-89177180D01*
X130180074Y-89177180D02*
X130180074Y-88843847D01*
X130180074Y-88843847D02*
X129989598Y-88843847D01*
X130608646Y-89272419D02*
X130608646Y-88272419D01*
X130608646Y-88272419D02*
X131180074Y-89272419D01*
X131180074Y-89272419D02*
X131180074Y-88272419D01*
X131656265Y-89272419D02*
X131656265Y-88272419D01*
X131656265Y-88272419D02*
X131894360Y-88272419D01*
X131894360Y-88272419D02*
X132037217Y-88320038D01*
X132037217Y-88320038D02*
X132132455Y-88415276D01*
X132132455Y-88415276D02*
X132180074Y-88510514D01*
X132180074Y-88510514D02*
X132227693Y-88700990D01*
X132227693Y-88700990D02*
X132227693Y-88843847D01*
X132227693Y-88843847D02*
X132180074Y-89034323D01*
X132180074Y-89034323D02*
X132132455Y-89129561D01*
X132132455Y-89129561D02*
X132037217Y-89224800D01*
X132037217Y-89224800D02*
X131894360Y-89272419D01*
X131894360Y-89272419D02*
X131656265Y-89272419D01*
D12*
X63649999Y-88641200D02*
X63735714Y-88669771D01*
X63735714Y-88669771D02*
X63878571Y-88669771D01*
X63878571Y-88669771D02*
X63935714Y-88641200D01*
X63935714Y-88641200D02*
X63964285Y-88612628D01*
X63964285Y-88612628D02*
X63992856Y-88555485D01*
X63992856Y-88555485D02*
X63992856Y-88498342D01*
X63992856Y-88498342D02*
X63964285Y-88441200D01*
X63964285Y-88441200D02*
X63935714Y-88412628D01*
X63935714Y-88412628D02*
X63878571Y-88384057D01*
X63878571Y-88384057D02*
X63764285Y-88355485D01*
X63764285Y-88355485D02*
X63707142Y-88326914D01*
X63707142Y-88326914D02*
X63678571Y-88298342D01*
X63678571Y-88298342D02*
X63649999Y-88241200D01*
X63649999Y-88241200D02*
X63649999Y-88184057D01*
X63649999Y-88184057D02*
X63678571Y-88126914D01*
X63678571Y-88126914D02*
X63707142Y-88098342D01*
X63707142Y-88098342D02*
X63764285Y-88069771D01*
X63764285Y-88069771D02*
X63907142Y-88069771D01*
X63907142Y-88069771D02*
X63992856Y-88098342D01*
X64192857Y-88069771D02*
X64335714Y-88669771D01*
X64335714Y-88669771D02*
X64450000Y-88241200D01*
X64450000Y-88241200D02*
X64564285Y-88669771D01*
X64564285Y-88669771D02*
X64707143Y-88069771D01*
X65249999Y-88669771D02*
X64907142Y-88669771D01*
X65078571Y-88669771D02*
X65078571Y-88069771D01*
X65078571Y-88069771D02*
X65021428Y-88155485D01*
X65021428Y-88155485D02*
X64964285Y-88212628D01*
X64964285Y-88212628D02*
X64907142Y-88241200D01*
X77612628Y-95099999D02*
X77641200Y-95128571D01*
X77641200Y-95128571D02*
X77669771Y-95214285D01*
X77669771Y-95214285D02*
X77669771Y-95271428D01*
X77669771Y-95271428D02*
X77641200Y-95357142D01*
X77641200Y-95357142D02*
X77584057Y-95414285D01*
X77584057Y-95414285D02*
X77526914Y-95442856D01*
X77526914Y-95442856D02*
X77412628Y-95471428D01*
X77412628Y-95471428D02*
X77326914Y-95471428D01*
X77326914Y-95471428D02*
X77212628Y-95442856D01*
X77212628Y-95442856D02*
X77155485Y-95414285D01*
X77155485Y-95414285D02*
X77098342Y-95357142D01*
X77098342Y-95357142D02*
X77069771Y-95271428D01*
X77069771Y-95271428D02*
X77069771Y-95214285D01*
X77069771Y-95214285D02*
X77098342Y-95128571D01*
X77098342Y-95128571D02*
X77126914Y-95099999D01*
X77069771Y-94557142D02*
X77069771Y-94842856D01*
X77069771Y-94842856D02*
X77355485Y-94871428D01*
X77355485Y-94871428D02*
X77326914Y-94842856D01*
X77326914Y-94842856D02*
X77298342Y-94785714D01*
X77298342Y-94785714D02*
X77298342Y-94642856D01*
X77298342Y-94642856D02*
X77326914Y-94585714D01*
X77326914Y-94585714D02*
X77355485Y-94557142D01*
X77355485Y-94557142D02*
X77412628Y-94528571D01*
X77412628Y-94528571D02*
X77555485Y-94528571D01*
X77555485Y-94528571D02*
X77612628Y-94557142D01*
X77612628Y-94557142D02*
X77641200Y-94585714D01*
X77641200Y-94585714D02*
X77669771Y-94642856D01*
X77669771Y-94642856D02*
X77669771Y-94785714D01*
X77669771Y-94785714D02*
X77641200Y-94842856D01*
X77641200Y-94842856D02*
X77612628Y-94871428D01*
X72757142Y-89869771D02*
X73100000Y-89869771D01*
X72928571Y-90469771D02*
X72928571Y-89869771D01*
X73300000Y-90469771D02*
X73300000Y-89869771D01*
X73300000Y-89869771D02*
X73528571Y-89869771D01*
X73528571Y-89869771D02*
X73585714Y-89898342D01*
X73585714Y-89898342D02*
X73614285Y-89926914D01*
X73614285Y-89926914D02*
X73642857Y-89984057D01*
X73642857Y-89984057D02*
X73642857Y-90069771D01*
X73642857Y-90069771D02*
X73614285Y-90126914D01*
X73614285Y-90126914D02*
X73585714Y-90155485D01*
X73585714Y-90155485D02*
X73528571Y-90184057D01*
X73528571Y-90184057D02*
X73300000Y-90184057D01*
X74214285Y-90469771D02*
X73871428Y-90469771D01*
X74042857Y-90469771D02*
X74042857Y-89869771D01*
X74042857Y-89869771D02*
X73985714Y-89955485D01*
X73985714Y-89955485D02*
X73928571Y-90012628D01*
X73928571Y-90012628D02*
X73871428Y-90041200D01*
X74442857Y-89926914D02*
X74471429Y-89898342D01*
X74471429Y-89898342D02*
X74528572Y-89869771D01*
X74528572Y-89869771D02*
X74671429Y-89869771D01*
X74671429Y-89869771D02*
X74728572Y-89898342D01*
X74728572Y-89898342D02*
X74757143Y-89926914D01*
X74757143Y-89926914D02*
X74785714Y-89984057D01*
X74785714Y-89984057D02*
X74785714Y-90041200D01*
X74785714Y-90041200D02*
X74757143Y-90126914D01*
X74757143Y-90126914D02*
X74414286Y-90469771D01*
X74414286Y-90469771D02*
X74785714Y-90469771D01*
X72269771Y-102385714D02*
X71984057Y-102585714D01*
X72269771Y-102728571D02*
X71669771Y-102728571D01*
X71669771Y-102728571D02*
X71669771Y-102500000D01*
X71669771Y-102500000D02*
X71698342Y-102442857D01*
X71698342Y-102442857D02*
X71726914Y-102414286D01*
X71726914Y-102414286D02*
X71784057Y-102385714D01*
X71784057Y-102385714D02*
X71869771Y-102385714D01*
X71869771Y-102385714D02*
X71926914Y-102414286D01*
X71926914Y-102414286D02*
X71955485Y-102442857D01*
X71955485Y-102442857D02*
X71984057Y-102500000D01*
X71984057Y-102500000D02*
X71984057Y-102728571D01*
X72269771Y-101814286D02*
X72269771Y-102157143D01*
X72269771Y-101985714D02*
X71669771Y-101985714D01*
X71669771Y-101985714D02*
X71755485Y-102042857D01*
X71755485Y-102042857D02*
X71812628Y-102100000D01*
X71812628Y-102100000D02*
X71841200Y-102157143D01*
X71726914Y-101585714D02*
X71698342Y-101557142D01*
X71698342Y-101557142D02*
X71669771Y-101500000D01*
X71669771Y-101500000D02*
X71669771Y-101357142D01*
X71669771Y-101357142D02*
X71698342Y-101300000D01*
X71698342Y-101300000D02*
X71726914Y-101271428D01*
X71726914Y-101271428D02*
X71784057Y-101242857D01*
X71784057Y-101242857D02*
X71841200Y-101242857D01*
X71841200Y-101242857D02*
X71926914Y-101271428D01*
X71926914Y-101271428D02*
X72269771Y-101614285D01*
X72269771Y-101614285D02*
X72269771Y-101242857D01*
X108590476Y-91162295D02*
X109047619Y-91162295D01*
X108819047Y-91962295D02*
X108819047Y-91162295D01*
X109314286Y-91962295D02*
X109314286Y-91162295D01*
X109314286Y-91162295D02*
X109619048Y-91162295D01*
X109619048Y-91162295D02*
X109695238Y-91200390D01*
X109695238Y-91200390D02*
X109733333Y-91238485D01*
X109733333Y-91238485D02*
X109771429Y-91314676D01*
X109771429Y-91314676D02*
X109771429Y-91428961D01*
X109771429Y-91428961D02*
X109733333Y-91505152D01*
X109733333Y-91505152D02*
X109695238Y-91543247D01*
X109695238Y-91543247D02*
X109619048Y-91581342D01*
X109619048Y-91581342D02*
X109314286Y-91581342D01*
X110495238Y-91162295D02*
X110114286Y-91162295D01*
X110114286Y-91162295D02*
X110076190Y-91543247D01*
X110076190Y-91543247D02*
X110114286Y-91505152D01*
X110114286Y-91505152D02*
X110190476Y-91467057D01*
X110190476Y-91467057D02*
X110380952Y-91467057D01*
X110380952Y-91467057D02*
X110457143Y-91505152D01*
X110457143Y-91505152D02*
X110495238Y-91543247D01*
X110495238Y-91543247D02*
X110533333Y-91619438D01*
X110533333Y-91619438D02*
X110533333Y-91809914D01*
X110533333Y-91809914D02*
X110495238Y-91886104D01*
X110495238Y-91886104D02*
X110457143Y-91924200D01*
X110457143Y-91924200D02*
X110380952Y-91962295D01*
X110380952Y-91962295D02*
X110190476Y-91962295D01*
X110190476Y-91962295D02*
X110114286Y-91924200D01*
X110114286Y-91924200D02*
X110076190Y-91886104D01*
X77869771Y-89499999D02*
X77584057Y-89699999D01*
X77869771Y-89842856D02*
X77269771Y-89842856D01*
X77269771Y-89842856D02*
X77269771Y-89614285D01*
X77269771Y-89614285D02*
X77298342Y-89557142D01*
X77298342Y-89557142D02*
X77326914Y-89528571D01*
X77326914Y-89528571D02*
X77384057Y-89499999D01*
X77384057Y-89499999D02*
X77469771Y-89499999D01*
X77469771Y-89499999D02*
X77526914Y-89528571D01*
X77526914Y-89528571D02*
X77555485Y-89557142D01*
X77555485Y-89557142D02*
X77584057Y-89614285D01*
X77584057Y-89614285D02*
X77584057Y-89842856D01*
X77869771Y-88928571D02*
X77869771Y-89271428D01*
X77869771Y-89099999D02*
X77269771Y-89099999D01*
X77269771Y-89099999D02*
X77355485Y-89157142D01*
X77355485Y-89157142D02*
X77412628Y-89214285D01*
X77412628Y-89214285D02*
X77441200Y-89271428D01*
X90466667Y-102362295D02*
X90200000Y-101981342D01*
X90009524Y-102362295D02*
X90009524Y-101562295D01*
X90009524Y-101562295D02*
X90314286Y-101562295D01*
X90314286Y-101562295D02*
X90390476Y-101600390D01*
X90390476Y-101600390D02*
X90428571Y-101638485D01*
X90428571Y-101638485D02*
X90466667Y-101714676D01*
X90466667Y-101714676D02*
X90466667Y-101828961D01*
X90466667Y-101828961D02*
X90428571Y-101905152D01*
X90428571Y-101905152D02*
X90390476Y-101943247D01*
X90390476Y-101943247D02*
X90314286Y-101981342D01*
X90314286Y-101981342D02*
X90009524Y-101981342D01*
X90847619Y-102362295D02*
X91000000Y-102362295D01*
X91000000Y-102362295D02*
X91076190Y-102324200D01*
X91076190Y-102324200D02*
X91114286Y-102286104D01*
X91114286Y-102286104D02*
X91190476Y-102171819D01*
X91190476Y-102171819D02*
X91228571Y-102019438D01*
X91228571Y-102019438D02*
X91228571Y-101714676D01*
X91228571Y-101714676D02*
X91190476Y-101638485D01*
X91190476Y-101638485D02*
X91152381Y-101600390D01*
X91152381Y-101600390D02*
X91076190Y-101562295D01*
X91076190Y-101562295D02*
X90923809Y-101562295D01*
X90923809Y-101562295D02*
X90847619Y-101600390D01*
X90847619Y-101600390D02*
X90809524Y-101638485D01*
X90809524Y-101638485D02*
X90771428Y-101714676D01*
X90771428Y-101714676D02*
X90771428Y-101905152D01*
X90771428Y-101905152D02*
X90809524Y-101981342D01*
X90809524Y-101981342D02*
X90847619Y-102019438D01*
X90847619Y-102019438D02*
X90923809Y-102057533D01*
X90923809Y-102057533D02*
X91076190Y-102057533D01*
X91076190Y-102057533D02*
X91152381Y-102019438D01*
X91152381Y-102019438D02*
X91190476Y-101981342D01*
X91190476Y-101981342D02*
X91228571Y-101905152D01*
X117285714Y-100262295D02*
X117019047Y-99881342D01*
X116828571Y-100262295D02*
X116828571Y-99462295D01*
X116828571Y-99462295D02*
X117133333Y-99462295D01*
X117133333Y-99462295D02*
X117209523Y-99500390D01*
X117209523Y-99500390D02*
X117247618Y-99538485D01*
X117247618Y-99538485D02*
X117285714Y-99614676D01*
X117285714Y-99614676D02*
X117285714Y-99728961D01*
X117285714Y-99728961D02*
X117247618Y-99805152D01*
X117247618Y-99805152D02*
X117209523Y-99843247D01*
X117209523Y-99843247D02*
X117133333Y-99881342D01*
X117133333Y-99881342D02*
X116828571Y-99881342D01*
X118047618Y-100262295D02*
X117590475Y-100262295D01*
X117819047Y-100262295D02*
X117819047Y-99462295D01*
X117819047Y-99462295D02*
X117742856Y-99576580D01*
X117742856Y-99576580D02*
X117666666Y-99652771D01*
X117666666Y-99652771D02*
X117590475Y-99690866D01*
X118542857Y-99462295D02*
X118619047Y-99462295D01*
X118619047Y-99462295D02*
X118695238Y-99500390D01*
X118695238Y-99500390D02*
X118733333Y-99538485D01*
X118733333Y-99538485D02*
X118771428Y-99614676D01*
X118771428Y-99614676D02*
X118809523Y-99767057D01*
X118809523Y-99767057D02*
X118809523Y-99957533D01*
X118809523Y-99957533D02*
X118771428Y-100109914D01*
X118771428Y-100109914D02*
X118733333Y-100186104D01*
X118733333Y-100186104D02*
X118695238Y-100224200D01*
X118695238Y-100224200D02*
X118619047Y-100262295D01*
X118619047Y-100262295D02*
X118542857Y-100262295D01*
X118542857Y-100262295D02*
X118466666Y-100224200D01*
X118466666Y-100224200D02*
X118428571Y-100186104D01*
X118428571Y-100186104D02*
X118390476Y-100109914D01*
X118390476Y-100109914D02*
X118352380Y-99957533D01*
X118352380Y-99957533D02*
X118352380Y-99767057D01*
X118352380Y-99767057D02*
X118390476Y-99614676D01*
X118390476Y-99614676D02*
X118428571Y-99538485D01*
X118428571Y-99538485D02*
X118466666Y-99500390D01*
X118466666Y-99500390D02*
X118542857Y-99462295D01*
X78242856Y-85269771D02*
X78585714Y-85269771D01*
X78414285Y-85869771D02*
X78414285Y-85269771D01*
X78785714Y-85869771D02*
X78785714Y-85269771D01*
X78785714Y-85269771D02*
X79014285Y-85269771D01*
X79014285Y-85269771D02*
X79071428Y-85298342D01*
X79071428Y-85298342D02*
X79099999Y-85326914D01*
X79099999Y-85326914D02*
X79128571Y-85384057D01*
X79128571Y-85384057D02*
X79128571Y-85469771D01*
X79128571Y-85469771D02*
X79099999Y-85526914D01*
X79099999Y-85526914D02*
X79071428Y-85555485D01*
X79071428Y-85555485D02*
X79014285Y-85584057D01*
X79014285Y-85584057D02*
X78785714Y-85584057D01*
X79328571Y-85269771D02*
X79699999Y-85269771D01*
X79699999Y-85269771D02*
X79499999Y-85498342D01*
X79499999Y-85498342D02*
X79585714Y-85498342D01*
X79585714Y-85498342D02*
X79642857Y-85526914D01*
X79642857Y-85526914D02*
X79671428Y-85555485D01*
X79671428Y-85555485D02*
X79699999Y-85612628D01*
X79699999Y-85612628D02*
X79699999Y-85755485D01*
X79699999Y-85755485D02*
X79671428Y-85812628D01*
X79671428Y-85812628D02*
X79642857Y-85841200D01*
X79642857Y-85841200D02*
X79585714Y-85869771D01*
X79585714Y-85869771D02*
X79414285Y-85869771D01*
X79414285Y-85869771D02*
X79357142Y-85841200D01*
X79357142Y-85841200D02*
X79328571Y-85812628D01*
X76900000Y-97612628D02*
X76871428Y-97641200D01*
X76871428Y-97641200D02*
X76785714Y-97669771D01*
X76785714Y-97669771D02*
X76728571Y-97669771D01*
X76728571Y-97669771D02*
X76642857Y-97641200D01*
X76642857Y-97641200D02*
X76585714Y-97584057D01*
X76585714Y-97584057D02*
X76557143Y-97526914D01*
X76557143Y-97526914D02*
X76528571Y-97412628D01*
X76528571Y-97412628D02*
X76528571Y-97326914D01*
X76528571Y-97326914D02*
X76557143Y-97212628D01*
X76557143Y-97212628D02*
X76585714Y-97155485D01*
X76585714Y-97155485D02*
X76642857Y-97098342D01*
X76642857Y-97098342D02*
X76728571Y-97069771D01*
X76728571Y-97069771D02*
X76785714Y-97069771D01*
X76785714Y-97069771D02*
X76871428Y-97098342D01*
X76871428Y-97098342D02*
X76900000Y-97126914D01*
X77471428Y-97669771D02*
X77128571Y-97669771D01*
X77300000Y-97669771D02*
X77300000Y-97069771D01*
X77300000Y-97069771D02*
X77242857Y-97155485D01*
X77242857Y-97155485D02*
X77185714Y-97212628D01*
X77185714Y-97212628D02*
X77128571Y-97241200D01*
X81609523Y-104162295D02*
X82066666Y-104162295D01*
X81838094Y-104962295D02*
X81838094Y-104162295D01*
X82333333Y-104962295D02*
X82333333Y-104162295D01*
X82333333Y-104162295D02*
X82638095Y-104162295D01*
X82638095Y-104162295D02*
X82714285Y-104200390D01*
X82714285Y-104200390D02*
X82752380Y-104238485D01*
X82752380Y-104238485D02*
X82790476Y-104314676D01*
X82790476Y-104314676D02*
X82790476Y-104428961D01*
X82790476Y-104428961D02*
X82752380Y-104505152D01*
X82752380Y-104505152D02*
X82714285Y-104543247D01*
X82714285Y-104543247D02*
X82638095Y-104581342D01*
X82638095Y-104581342D02*
X82333333Y-104581342D01*
X83552380Y-104962295D02*
X83095237Y-104962295D01*
X83323809Y-104962295D02*
X83323809Y-104162295D01*
X83323809Y-104162295D02*
X83247618Y-104276580D01*
X83247618Y-104276580D02*
X83171428Y-104352771D01*
X83171428Y-104352771D02*
X83095237Y-104390866D01*
X83819047Y-104162295D02*
X84314285Y-104162295D01*
X84314285Y-104162295D02*
X84047619Y-104467057D01*
X84047619Y-104467057D02*
X84161904Y-104467057D01*
X84161904Y-104467057D02*
X84238095Y-104505152D01*
X84238095Y-104505152D02*
X84276190Y-104543247D01*
X84276190Y-104543247D02*
X84314285Y-104619438D01*
X84314285Y-104619438D02*
X84314285Y-104809914D01*
X84314285Y-104809914D02*
X84276190Y-104886104D01*
X84276190Y-104886104D02*
X84238095Y-104924200D01*
X84238095Y-104924200D02*
X84161904Y-104962295D01*
X84161904Y-104962295D02*
X83933333Y-104962295D01*
X83933333Y-104962295D02*
X83857142Y-104924200D01*
X83857142Y-104924200D02*
X83819047Y-104886104D01*
X70742857Y-90669771D02*
X70742857Y-91155485D01*
X70742857Y-91155485D02*
X70771428Y-91212628D01*
X70771428Y-91212628D02*
X70800000Y-91241200D01*
X70800000Y-91241200D02*
X70857142Y-91269771D01*
X70857142Y-91269771D02*
X70971428Y-91269771D01*
X70971428Y-91269771D02*
X71028571Y-91241200D01*
X71028571Y-91241200D02*
X71057142Y-91212628D01*
X71057142Y-91212628D02*
X71085714Y-91155485D01*
X71085714Y-91155485D02*
X71085714Y-90669771D01*
X71685713Y-91269771D02*
X71342856Y-91269771D01*
X71514285Y-91269771D02*
X71514285Y-90669771D01*
X71514285Y-90669771D02*
X71457142Y-90755485D01*
X71457142Y-90755485D02*
X71399999Y-90812628D01*
X71399999Y-90812628D02*
X71342856Y-90841200D01*
X67700000Y-94412628D02*
X67671428Y-94441200D01*
X67671428Y-94441200D02*
X67585714Y-94469771D01*
X67585714Y-94469771D02*
X67528571Y-94469771D01*
X67528571Y-94469771D02*
X67442857Y-94441200D01*
X67442857Y-94441200D02*
X67385714Y-94384057D01*
X67385714Y-94384057D02*
X67357143Y-94326914D01*
X67357143Y-94326914D02*
X67328571Y-94212628D01*
X67328571Y-94212628D02*
X67328571Y-94126914D01*
X67328571Y-94126914D02*
X67357143Y-94012628D01*
X67357143Y-94012628D02*
X67385714Y-93955485D01*
X67385714Y-93955485D02*
X67442857Y-93898342D01*
X67442857Y-93898342D02*
X67528571Y-93869771D01*
X67528571Y-93869771D02*
X67585714Y-93869771D01*
X67585714Y-93869771D02*
X67671428Y-93898342D01*
X67671428Y-93898342D02*
X67700000Y-93926914D01*
X67985714Y-94469771D02*
X68100000Y-94469771D01*
X68100000Y-94469771D02*
X68157143Y-94441200D01*
X68157143Y-94441200D02*
X68185714Y-94412628D01*
X68185714Y-94412628D02*
X68242857Y-94326914D01*
X68242857Y-94326914D02*
X68271428Y-94212628D01*
X68271428Y-94212628D02*
X68271428Y-93984057D01*
X68271428Y-93984057D02*
X68242857Y-93926914D01*
X68242857Y-93926914D02*
X68214286Y-93898342D01*
X68214286Y-93898342D02*
X68157143Y-93869771D01*
X68157143Y-93869771D02*
X68042857Y-93869771D01*
X68042857Y-93869771D02*
X67985714Y-93898342D01*
X67985714Y-93898342D02*
X67957143Y-93926914D01*
X67957143Y-93926914D02*
X67928571Y-93984057D01*
X67928571Y-93984057D02*
X67928571Y-94126914D01*
X67928571Y-94126914D02*
X67957143Y-94184057D01*
X67957143Y-94184057D02*
X67985714Y-94212628D01*
X67985714Y-94212628D02*
X68042857Y-94241200D01*
X68042857Y-94241200D02*
X68157143Y-94241200D01*
X68157143Y-94241200D02*
X68214286Y-94212628D01*
X68214286Y-94212628D02*
X68242857Y-94184057D01*
X68242857Y-94184057D02*
X68271428Y-94126914D01*
X70047143Y-89669771D02*
X70047143Y-89069771D01*
X70047143Y-89069771D02*
X70190000Y-89069771D01*
X70190000Y-89069771D02*
X70275714Y-89098342D01*
X70275714Y-89098342D02*
X70332857Y-89155485D01*
X70332857Y-89155485D02*
X70361428Y-89212628D01*
X70361428Y-89212628D02*
X70390000Y-89326914D01*
X70390000Y-89326914D02*
X70390000Y-89412628D01*
X70390000Y-89412628D02*
X70361428Y-89526914D01*
X70361428Y-89526914D02*
X70332857Y-89584057D01*
X70332857Y-89584057D02*
X70275714Y-89641200D01*
X70275714Y-89641200D02*
X70190000Y-89669771D01*
X70190000Y-89669771D02*
X70047143Y-89669771D01*
X70590000Y-89069771D02*
X70961428Y-89069771D01*
X70961428Y-89069771D02*
X70761428Y-89298342D01*
X70761428Y-89298342D02*
X70847143Y-89298342D01*
X70847143Y-89298342D02*
X70904286Y-89326914D01*
X70904286Y-89326914D02*
X70932857Y-89355485D01*
X70932857Y-89355485D02*
X70961428Y-89412628D01*
X70961428Y-89412628D02*
X70961428Y-89555485D01*
X70961428Y-89555485D02*
X70932857Y-89612628D01*
X70932857Y-89612628D02*
X70904286Y-89641200D01*
X70904286Y-89641200D02*
X70847143Y-89669771D01*
X70847143Y-89669771D02*
X70675714Y-89669771D01*
X70675714Y-89669771D02*
X70618571Y-89641200D01*
X70618571Y-89641200D02*
X70590000Y-89612628D01*
X84975914Y-92758458D02*
X84947342Y-92815601D01*
X84947342Y-92815601D02*
X84890200Y-92872744D01*
X84890200Y-92872744D02*
X84804485Y-92958458D01*
X84804485Y-92958458D02*
X84775914Y-93015601D01*
X84775914Y-93015601D02*
X84775914Y-93072744D01*
X84918771Y-93044173D02*
X84890200Y-93101316D01*
X84890200Y-93101316D02*
X84833057Y-93158458D01*
X84833057Y-93158458D02*
X84718771Y-93187030D01*
X84718771Y-93187030D02*
X84518771Y-93187030D01*
X84518771Y-93187030D02*
X84404485Y-93158458D01*
X84404485Y-93158458D02*
X84347342Y-93101316D01*
X84347342Y-93101316D02*
X84318771Y-93044173D01*
X84318771Y-93044173D02*
X84318771Y-92929887D01*
X84318771Y-92929887D02*
X84347342Y-92872744D01*
X84347342Y-92872744D02*
X84404485Y-92815601D01*
X84404485Y-92815601D02*
X84518771Y-92787030D01*
X84518771Y-92787030D02*
X84718771Y-92787030D01*
X84718771Y-92787030D02*
X84833057Y-92815601D01*
X84833057Y-92815601D02*
X84890200Y-92872744D01*
X84890200Y-92872744D02*
X84918771Y-92929887D01*
X84918771Y-92929887D02*
X84918771Y-93044173D01*
X84918771Y-92215602D02*
X84918771Y-92558459D01*
X84918771Y-92387030D02*
X84318771Y-92387030D01*
X84318771Y-92387030D02*
X84404485Y-92444173D01*
X84404485Y-92444173D02*
X84461628Y-92501316D01*
X84461628Y-92501316D02*
X84490200Y-92558459D01*
X64609523Y-98362295D02*
X65066666Y-98362295D01*
X64838094Y-99162295D02*
X64838094Y-98362295D01*
X65333333Y-99162295D02*
X65333333Y-98362295D01*
X65333333Y-98362295D02*
X65638095Y-98362295D01*
X65638095Y-98362295D02*
X65714285Y-98400390D01*
X65714285Y-98400390D02*
X65752380Y-98438485D01*
X65752380Y-98438485D02*
X65790476Y-98514676D01*
X65790476Y-98514676D02*
X65790476Y-98628961D01*
X65790476Y-98628961D02*
X65752380Y-98705152D01*
X65752380Y-98705152D02*
X65714285Y-98743247D01*
X65714285Y-98743247D02*
X65638095Y-98781342D01*
X65638095Y-98781342D02*
X65333333Y-98781342D01*
X66552380Y-99162295D02*
X66095237Y-99162295D01*
X66323809Y-99162295D02*
X66323809Y-98362295D01*
X66323809Y-98362295D02*
X66247618Y-98476580D01*
X66247618Y-98476580D02*
X66171428Y-98552771D01*
X66171428Y-98552771D02*
X66095237Y-98590866D01*
X67314285Y-99162295D02*
X66857142Y-99162295D01*
X67085714Y-99162295D02*
X67085714Y-98362295D01*
X67085714Y-98362295D02*
X67009523Y-98476580D01*
X67009523Y-98476580D02*
X66933333Y-98552771D01*
X66933333Y-98552771D02*
X66857142Y-98590866D01*
X71700000Y-96669771D02*
X71500000Y-96384057D01*
X71357143Y-96669771D02*
X71357143Y-96069771D01*
X71357143Y-96069771D02*
X71585714Y-96069771D01*
X71585714Y-96069771D02*
X71642857Y-96098342D01*
X71642857Y-96098342D02*
X71671428Y-96126914D01*
X71671428Y-96126914D02*
X71700000Y-96184057D01*
X71700000Y-96184057D02*
X71700000Y-96269771D01*
X71700000Y-96269771D02*
X71671428Y-96326914D01*
X71671428Y-96326914D02*
X71642857Y-96355485D01*
X71642857Y-96355485D02*
X71585714Y-96384057D01*
X71585714Y-96384057D02*
X71357143Y-96384057D01*
X72214286Y-96269771D02*
X72214286Y-96669771D01*
X72071428Y-96041200D02*
X71928571Y-96469771D01*
X71928571Y-96469771D02*
X72300000Y-96469771D01*
X120866667Y-83686104D02*
X120828571Y-83724200D01*
X120828571Y-83724200D02*
X120714286Y-83762295D01*
X120714286Y-83762295D02*
X120638095Y-83762295D01*
X120638095Y-83762295D02*
X120523809Y-83724200D01*
X120523809Y-83724200D02*
X120447619Y-83648009D01*
X120447619Y-83648009D02*
X120409524Y-83571819D01*
X120409524Y-83571819D02*
X120371428Y-83419438D01*
X120371428Y-83419438D02*
X120371428Y-83305152D01*
X120371428Y-83305152D02*
X120409524Y-83152771D01*
X120409524Y-83152771D02*
X120447619Y-83076580D01*
X120447619Y-83076580D02*
X120523809Y-83000390D01*
X120523809Y-83000390D02*
X120638095Y-82962295D01*
X120638095Y-82962295D02*
X120714286Y-82962295D01*
X120714286Y-82962295D02*
X120828571Y-83000390D01*
X120828571Y-83000390D02*
X120866667Y-83038485D01*
X121133333Y-82962295D02*
X121628571Y-82962295D01*
X121628571Y-82962295D02*
X121361905Y-83267057D01*
X121361905Y-83267057D02*
X121476190Y-83267057D01*
X121476190Y-83267057D02*
X121552381Y-83305152D01*
X121552381Y-83305152D02*
X121590476Y-83343247D01*
X121590476Y-83343247D02*
X121628571Y-83419438D01*
X121628571Y-83419438D02*
X121628571Y-83609914D01*
X121628571Y-83609914D02*
X121590476Y-83686104D01*
X121590476Y-83686104D02*
X121552381Y-83724200D01*
X121552381Y-83724200D02*
X121476190Y-83762295D01*
X121476190Y-83762295D02*
X121247619Y-83762295D01*
X121247619Y-83762295D02*
X121171428Y-83724200D01*
X121171428Y-83724200D02*
X121133333Y-83686104D01*
X123990476Y-80162295D02*
X124447619Y-80162295D01*
X124219047Y-80962295D02*
X124219047Y-80162295D01*
X124714286Y-80962295D02*
X124714286Y-80162295D01*
X124714286Y-80162295D02*
X125019048Y-80162295D01*
X125019048Y-80162295D02*
X125095238Y-80200390D01*
X125095238Y-80200390D02*
X125133333Y-80238485D01*
X125133333Y-80238485D02*
X125171429Y-80314676D01*
X125171429Y-80314676D02*
X125171429Y-80428961D01*
X125171429Y-80428961D02*
X125133333Y-80505152D01*
X125133333Y-80505152D02*
X125095238Y-80543247D01*
X125095238Y-80543247D02*
X125019048Y-80581342D01*
X125019048Y-80581342D02*
X124714286Y-80581342D01*
X125857143Y-80162295D02*
X125704762Y-80162295D01*
X125704762Y-80162295D02*
X125628571Y-80200390D01*
X125628571Y-80200390D02*
X125590476Y-80238485D01*
X125590476Y-80238485D02*
X125514286Y-80352771D01*
X125514286Y-80352771D02*
X125476190Y-80505152D01*
X125476190Y-80505152D02*
X125476190Y-80809914D01*
X125476190Y-80809914D02*
X125514286Y-80886104D01*
X125514286Y-80886104D02*
X125552381Y-80924200D01*
X125552381Y-80924200D02*
X125628571Y-80962295D01*
X125628571Y-80962295D02*
X125780952Y-80962295D01*
X125780952Y-80962295D02*
X125857143Y-80924200D01*
X125857143Y-80924200D02*
X125895238Y-80886104D01*
X125895238Y-80886104D02*
X125933333Y-80809914D01*
X125933333Y-80809914D02*
X125933333Y-80619438D01*
X125933333Y-80619438D02*
X125895238Y-80543247D01*
X125895238Y-80543247D02*
X125857143Y-80505152D01*
X125857143Y-80505152D02*
X125780952Y-80467057D01*
X125780952Y-80467057D02*
X125628571Y-80467057D01*
X125628571Y-80467057D02*
X125552381Y-80505152D01*
X125552381Y-80505152D02*
X125514286Y-80543247D01*
X125514286Y-80543247D02*
X125476190Y-80619438D01*
X69469771Y-88985714D02*
X69184057Y-89185714D01*
X69469771Y-89328571D02*
X68869771Y-89328571D01*
X68869771Y-89328571D02*
X68869771Y-89100000D01*
X68869771Y-89100000D02*
X68898342Y-89042857D01*
X68898342Y-89042857D02*
X68926914Y-89014286D01*
X68926914Y-89014286D02*
X68984057Y-88985714D01*
X68984057Y-88985714D02*
X69069771Y-88985714D01*
X69069771Y-88985714D02*
X69126914Y-89014286D01*
X69126914Y-89014286D02*
X69155485Y-89042857D01*
X69155485Y-89042857D02*
X69184057Y-89100000D01*
X69184057Y-89100000D02*
X69184057Y-89328571D01*
X69469771Y-88414286D02*
X69469771Y-88757143D01*
X69469771Y-88585714D02*
X68869771Y-88585714D01*
X68869771Y-88585714D02*
X68955485Y-88642857D01*
X68955485Y-88642857D02*
X69012628Y-88700000D01*
X69012628Y-88700000D02*
X69041200Y-88757143D01*
X68869771Y-87871428D02*
X68869771Y-88157142D01*
X68869771Y-88157142D02*
X69155485Y-88185714D01*
X69155485Y-88185714D02*
X69126914Y-88157142D01*
X69126914Y-88157142D02*
X69098342Y-88100000D01*
X69098342Y-88100000D02*
X69098342Y-87957142D01*
X69098342Y-87957142D02*
X69126914Y-87900000D01*
X69126914Y-87900000D02*
X69155485Y-87871428D01*
X69155485Y-87871428D02*
X69212628Y-87842857D01*
X69212628Y-87842857D02*
X69355485Y-87842857D01*
X69355485Y-87842857D02*
X69412628Y-87871428D01*
X69412628Y-87871428D02*
X69441200Y-87900000D01*
X69441200Y-87900000D02*
X69469771Y-87957142D01*
X69469771Y-87957142D02*
X69469771Y-88100000D01*
X69469771Y-88100000D02*
X69441200Y-88157142D01*
X69441200Y-88157142D02*
X69412628Y-88185714D01*
X74014285Y-100269771D02*
X73814285Y-99984057D01*
X73671428Y-100269771D02*
X73671428Y-99669771D01*
X73671428Y-99669771D02*
X73899999Y-99669771D01*
X73899999Y-99669771D02*
X73957142Y-99698342D01*
X73957142Y-99698342D02*
X73985713Y-99726914D01*
X73985713Y-99726914D02*
X74014285Y-99784057D01*
X74014285Y-99784057D02*
X74014285Y-99869771D01*
X74014285Y-99869771D02*
X73985713Y-99926914D01*
X73985713Y-99926914D02*
X73957142Y-99955485D01*
X73957142Y-99955485D02*
X73899999Y-99984057D01*
X73899999Y-99984057D02*
X73671428Y-99984057D01*
X74585713Y-100269771D02*
X74242856Y-100269771D01*
X74414285Y-100269771D02*
X74414285Y-99669771D01*
X74414285Y-99669771D02*
X74357142Y-99755485D01*
X74357142Y-99755485D02*
X74299999Y-99812628D01*
X74299999Y-99812628D02*
X74242856Y-99841200D01*
X75157142Y-100269771D02*
X74814285Y-100269771D01*
X74985714Y-100269771D02*
X74985714Y-99669771D01*
X74985714Y-99669771D02*
X74928571Y-99755485D01*
X74928571Y-99755485D02*
X74871428Y-99812628D01*
X74871428Y-99812628D02*
X74814285Y-99841200D01*
X68700000Y-78669771D02*
X68500000Y-78384057D01*
X68357143Y-78669771D02*
X68357143Y-78069771D01*
X68357143Y-78069771D02*
X68585714Y-78069771D01*
X68585714Y-78069771D02*
X68642857Y-78098342D01*
X68642857Y-78098342D02*
X68671428Y-78126914D01*
X68671428Y-78126914D02*
X68700000Y-78184057D01*
X68700000Y-78184057D02*
X68700000Y-78269771D01*
X68700000Y-78269771D02*
X68671428Y-78326914D01*
X68671428Y-78326914D02*
X68642857Y-78355485D01*
X68642857Y-78355485D02*
X68585714Y-78384057D01*
X68585714Y-78384057D02*
X68357143Y-78384057D01*
X69242857Y-78069771D02*
X68957143Y-78069771D01*
X68957143Y-78069771D02*
X68928571Y-78355485D01*
X68928571Y-78355485D02*
X68957143Y-78326914D01*
X68957143Y-78326914D02*
X69014286Y-78298342D01*
X69014286Y-78298342D02*
X69157143Y-78298342D01*
X69157143Y-78298342D02*
X69214286Y-78326914D01*
X69214286Y-78326914D02*
X69242857Y-78355485D01*
X69242857Y-78355485D02*
X69271428Y-78412628D01*
X69271428Y-78412628D02*
X69271428Y-78555485D01*
X69271428Y-78555485D02*
X69242857Y-78612628D01*
X69242857Y-78612628D02*
X69214286Y-78641200D01*
X69214286Y-78641200D02*
X69157143Y-78669771D01*
X69157143Y-78669771D02*
X69014286Y-78669771D01*
X69014286Y-78669771D02*
X68957143Y-78641200D01*
X68957143Y-78641200D02*
X68928571Y-78612628D01*
X76314285Y-75212628D02*
X76285713Y-75241200D01*
X76285713Y-75241200D02*
X76199999Y-75269771D01*
X76199999Y-75269771D02*
X76142856Y-75269771D01*
X76142856Y-75269771D02*
X76057142Y-75241200D01*
X76057142Y-75241200D02*
X75999999Y-75184057D01*
X75999999Y-75184057D02*
X75971428Y-75126914D01*
X75971428Y-75126914D02*
X75942856Y-75012628D01*
X75942856Y-75012628D02*
X75942856Y-74926914D01*
X75942856Y-74926914D02*
X75971428Y-74812628D01*
X75971428Y-74812628D02*
X75999999Y-74755485D01*
X75999999Y-74755485D02*
X76057142Y-74698342D01*
X76057142Y-74698342D02*
X76142856Y-74669771D01*
X76142856Y-74669771D02*
X76199999Y-74669771D01*
X76199999Y-74669771D02*
X76285713Y-74698342D01*
X76285713Y-74698342D02*
X76314285Y-74726914D01*
X76885713Y-75269771D02*
X76542856Y-75269771D01*
X76714285Y-75269771D02*
X76714285Y-74669771D01*
X76714285Y-74669771D02*
X76657142Y-74755485D01*
X76657142Y-74755485D02*
X76599999Y-74812628D01*
X76599999Y-74812628D02*
X76542856Y-74841200D01*
X77457142Y-75269771D02*
X77114285Y-75269771D01*
X77285714Y-75269771D02*
X77285714Y-74669771D01*
X77285714Y-74669771D02*
X77228571Y-74755485D01*
X77228571Y-74755485D02*
X77171428Y-74812628D01*
X77171428Y-74812628D02*
X77114285Y-74841200D01*
X105590476Y-75062295D02*
X106047619Y-75062295D01*
X105819047Y-75862295D02*
X105819047Y-75062295D01*
X106314286Y-75862295D02*
X106314286Y-75062295D01*
X106314286Y-75062295D02*
X106619048Y-75062295D01*
X106619048Y-75062295D02*
X106695238Y-75100390D01*
X106695238Y-75100390D02*
X106733333Y-75138485D01*
X106733333Y-75138485D02*
X106771429Y-75214676D01*
X106771429Y-75214676D02*
X106771429Y-75328961D01*
X106771429Y-75328961D02*
X106733333Y-75405152D01*
X106733333Y-75405152D02*
X106695238Y-75443247D01*
X106695238Y-75443247D02*
X106619048Y-75481342D01*
X106619048Y-75481342D02*
X106314286Y-75481342D01*
X107038095Y-75062295D02*
X107571429Y-75062295D01*
X107571429Y-75062295D02*
X107228571Y-75862295D01*
X106886104Y-102733332D02*
X106924200Y-102771428D01*
X106924200Y-102771428D02*
X106962295Y-102885713D01*
X106962295Y-102885713D02*
X106962295Y-102961904D01*
X106962295Y-102961904D02*
X106924200Y-103076190D01*
X106924200Y-103076190D02*
X106848009Y-103152380D01*
X106848009Y-103152380D02*
X106771819Y-103190475D01*
X106771819Y-103190475D02*
X106619438Y-103228571D01*
X106619438Y-103228571D02*
X106505152Y-103228571D01*
X106505152Y-103228571D02*
X106352771Y-103190475D01*
X106352771Y-103190475D02*
X106276580Y-103152380D01*
X106276580Y-103152380D02*
X106200390Y-103076190D01*
X106200390Y-103076190D02*
X106162295Y-102961904D01*
X106162295Y-102961904D02*
X106162295Y-102885713D01*
X106162295Y-102885713D02*
X106200390Y-102771428D01*
X106200390Y-102771428D02*
X106238485Y-102733332D01*
X106162295Y-102466666D02*
X106162295Y-101933332D01*
X106162295Y-101933332D02*
X106962295Y-102276190D01*
X98190476Y-108562295D02*
X98190476Y-109209914D01*
X98190476Y-109209914D02*
X98228571Y-109286104D01*
X98228571Y-109286104D02*
X98266666Y-109324200D01*
X98266666Y-109324200D02*
X98342857Y-109362295D01*
X98342857Y-109362295D02*
X98495238Y-109362295D01*
X98495238Y-109362295D02*
X98571428Y-109324200D01*
X98571428Y-109324200D02*
X98609523Y-109286104D01*
X98609523Y-109286104D02*
X98647619Y-109209914D01*
X98647619Y-109209914D02*
X98647619Y-108562295D01*
X98952380Y-108562295D02*
X99447618Y-108562295D01*
X99447618Y-108562295D02*
X99180952Y-108867057D01*
X99180952Y-108867057D02*
X99295237Y-108867057D01*
X99295237Y-108867057D02*
X99371428Y-108905152D01*
X99371428Y-108905152D02*
X99409523Y-108943247D01*
X99409523Y-108943247D02*
X99447618Y-109019438D01*
X99447618Y-109019438D02*
X99447618Y-109209914D01*
X99447618Y-109209914D02*
X99409523Y-109286104D01*
X99409523Y-109286104D02*
X99371428Y-109324200D01*
X99371428Y-109324200D02*
X99295237Y-109362295D01*
X99295237Y-109362295D02*
X99066666Y-109362295D01*
X99066666Y-109362295D02*
X98990475Y-109324200D01*
X98990475Y-109324200D02*
X98952380Y-109286104D01*
X81809523Y-107562295D02*
X82266666Y-107562295D01*
X82038094Y-108362295D02*
X82038094Y-107562295D01*
X82533333Y-108362295D02*
X82533333Y-107562295D01*
X82533333Y-107562295D02*
X82838095Y-107562295D01*
X82838095Y-107562295D02*
X82914285Y-107600390D01*
X82914285Y-107600390D02*
X82952380Y-107638485D01*
X82952380Y-107638485D02*
X82990476Y-107714676D01*
X82990476Y-107714676D02*
X82990476Y-107828961D01*
X82990476Y-107828961D02*
X82952380Y-107905152D01*
X82952380Y-107905152D02*
X82914285Y-107943247D01*
X82914285Y-107943247D02*
X82838095Y-107981342D01*
X82838095Y-107981342D02*
X82533333Y-107981342D01*
X83752380Y-108362295D02*
X83295237Y-108362295D01*
X83523809Y-108362295D02*
X83523809Y-107562295D01*
X83523809Y-107562295D02*
X83447618Y-107676580D01*
X83447618Y-107676580D02*
X83371428Y-107752771D01*
X83371428Y-107752771D02*
X83295237Y-107790866D01*
X84438095Y-107828961D02*
X84438095Y-108362295D01*
X84247619Y-107524200D02*
X84057142Y-108095628D01*
X84057142Y-108095628D02*
X84552381Y-108095628D01*
X103609524Y-107362295D02*
X103609524Y-106562295D01*
X103609524Y-106562295D02*
X103800000Y-106562295D01*
X103800000Y-106562295D02*
X103914286Y-106600390D01*
X103914286Y-106600390D02*
X103990476Y-106676580D01*
X103990476Y-106676580D02*
X104028571Y-106752771D01*
X104028571Y-106752771D02*
X104066667Y-106905152D01*
X104066667Y-106905152D02*
X104066667Y-107019438D01*
X104066667Y-107019438D02*
X104028571Y-107171819D01*
X104028571Y-107171819D02*
X103990476Y-107248009D01*
X103990476Y-107248009D02*
X103914286Y-107324200D01*
X103914286Y-107324200D02*
X103800000Y-107362295D01*
X103800000Y-107362295D02*
X103609524Y-107362295D01*
X104371428Y-106638485D02*
X104409524Y-106600390D01*
X104409524Y-106600390D02*
X104485714Y-106562295D01*
X104485714Y-106562295D02*
X104676190Y-106562295D01*
X104676190Y-106562295D02*
X104752381Y-106600390D01*
X104752381Y-106600390D02*
X104790476Y-106638485D01*
X104790476Y-106638485D02*
X104828571Y-106714676D01*
X104828571Y-106714676D02*
X104828571Y-106790866D01*
X104828571Y-106790866D02*
X104790476Y-106905152D01*
X104790476Y-106905152D02*
X104333333Y-107362295D01*
X104333333Y-107362295D02*
X104828571Y-107362295D01*
X73700000Y-95412628D02*
X73671428Y-95441200D01*
X73671428Y-95441200D02*
X73585714Y-95469771D01*
X73585714Y-95469771D02*
X73528571Y-95469771D01*
X73528571Y-95469771D02*
X73442857Y-95441200D01*
X73442857Y-95441200D02*
X73385714Y-95384057D01*
X73385714Y-95384057D02*
X73357143Y-95326914D01*
X73357143Y-95326914D02*
X73328571Y-95212628D01*
X73328571Y-95212628D02*
X73328571Y-95126914D01*
X73328571Y-95126914D02*
X73357143Y-95012628D01*
X73357143Y-95012628D02*
X73385714Y-94955485D01*
X73385714Y-94955485D02*
X73442857Y-94898342D01*
X73442857Y-94898342D02*
X73528571Y-94869771D01*
X73528571Y-94869771D02*
X73585714Y-94869771D01*
X73585714Y-94869771D02*
X73671428Y-94898342D01*
X73671428Y-94898342D02*
X73700000Y-94926914D01*
X73928571Y-94926914D02*
X73957143Y-94898342D01*
X73957143Y-94898342D02*
X74014286Y-94869771D01*
X74014286Y-94869771D02*
X74157143Y-94869771D01*
X74157143Y-94869771D02*
X74214286Y-94898342D01*
X74214286Y-94898342D02*
X74242857Y-94926914D01*
X74242857Y-94926914D02*
X74271428Y-94984057D01*
X74271428Y-94984057D02*
X74271428Y-95041200D01*
X74271428Y-95041200D02*
X74242857Y-95126914D01*
X74242857Y-95126914D02*
X73900000Y-95469771D01*
X73900000Y-95469771D02*
X74271428Y-95469771D01*
X108562295Y-110133332D02*
X108181342Y-110399999D01*
X108562295Y-110590475D02*
X107762295Y-110590475D01*
X107762295Y-110590475D02*
X107762295Y-110285713D01*
X107762295Y-110285713D02*
X107800390Y-110209523D01*
X107800390Y-110209523D02*
X107838485Y-110171428D01*
X107838485Y-110171428D02*
X107914676Y-110133332D01*
X107914676Y-110133332D02*
X108028961Y-110133332D01*
X108028961Y-110133332D02*
X108105152Y-110171428D01*
X108105152Y-110171428D02*
X108143247Y-110209523D01*
X108143247Y-110209523D02*
X108181342Y-110285713D01*
X108181342Y-110285713D02*
X108181342Y-110590475D01*
X107762295Y-109447618D02*
X107762295Y-109599999D01*
X107762295Y-109599999D02*
X107800390Y-109676190D01*
X107800390Y-109676190D02*
X107838485Y-109714285D01*
X107838485Y-109714285D02*
X107952771Y-109790475D01*
X107952771Y-109790475D02*
X108105152Y-109828571D01*
X108105152Y-109828571D02*
X108409914Y-109828571D01*
X108409914Y-109828571D02*
X108486104Y-109790475D01*
X108486104Y-109790475D02*
X108524200Y-109752380D01*
X108524200Y-109752380D02*
X108562295Y-109676190D01*
X108562295Y-109676190D02*
X108562295Y-109523809D01*
X108562295Y-109523809D02*
X108524200Y-109447618D01*
X108524200Y-109447618D02*
X108486104Y-109409523D01*
X108486104Y-109409523D02*
X108409914Y-109371428D01*
X108409914Y-109371428D02*
X108219438Y-109371428D01*
X108219438Y-109371428D02*
X108143247Y-109409523D01*
X108143247Y-109409523D02*
X108105152Y-109447618D01*
X108105152Y-109447618D02*
X108067057Y-109523809D01*
X108067057Y-109523809D02*
X108067057Y-109676190D01*
X108067057Y-109676190D02*
X108105152Y-109752380D01*
X108105152Y-109752380D02*
X108143247Y-109790475D01*
X108143247Y-109790475D02*
X108219438Y-109828571D01*
X113666667Y-100262295D02*
X113400000Y-99881342D01*
X113209524Y-100262295D02*
X113209524Y-99462295D01*
X113209524Y-99462295D02*
X113514286Y-99462295D01*
X113514286Y-99462295D02*
X113590476Y-99500390D01*
X113590476Y-99500390D02*
X113628571Y-99538485D01*
X113628571Y-99538485D02*
X113666667Y-99614676D01*
X113666667Y-99614676D02*
X113666667Y-99728961D01*
X113666667Y-99728961D02*
X113628571Y-99805152D01*
X113628571Y-99805152D02*
X113590476Y-99843247D01*
X113590476Y-99843247D02*
X113514286Y-99881342D01*
X113514286Y-99881342D02*
X113209524Y-99881342D01*
X113933333Y-99462295D02*
X114466667Y-99462295D01*
X114466667Y-99462295D02*
X114123809Y-100262295D01*
X70414285Y-78669771D02*
X70214285Y-78384057D01*
X70071428Y-78669771D02*
X70071428Y-78069771D01*
X70071428Y-78069771D02*
X70299999Y-78069771D01*
X70299999Y-78069771D02*
X70357142Y-78098342D01*
X70357142Y-78098342D02*
X70385713Y-78126914D01*
X70385713Y-78126914D02*
X70414285Y-78184057D01*
X70414285Y-78184057D02*
X70414285Y-78269771D01*
X70414285Y-78269771D02*
X70385713Y-78326914D01*
X70385713Y-78326914D02*
X70357142Y-78355485D01*
X70357142Y-78355485D02*
X70299999Y-78384057D01*
X70299999Y-78384057D02*
X70071428Y-78384057D01*
X70985713Y-78669771D02*
X70642856Y-78669771D01*
X70814285Y-78669771D02*
X70814285Y-78069771D01*
X70814285Y-78069771D02*
X70757142Y-78155485D01*
X70757142Y-78155485D02*
X70699999Y-78212628D01*
X70699999Y-78212628D02*
X70642856Y-78241200D01*
X71185714Y-78069771D02*
X71557142Y-78069771D01*
X71557142Y-78069771D02*
X71357142Y-78298342D01*
X71357142Y-78298342D02*
X71442857Y-78298342D01*
X71442857Y-78298342D02*
X71500000Y-78326914D01*
X71500000Y-78326914D02*
X71528571Y-78355485D01*
X71528571Y-78355485D02*
X71557142Y-78412628D01*
X71557142Y-78412628D02*
X71557142Y-78555485D01*
X71557142Y-78555485D02*
X71528571Y-78612628D01*
X71528571Y-78612628D02*
X71500000Y-78641200D01*
X71500000Y-78641200D02*
X71442857Y-78669771D01*
X71442857Y-78669771D02*
X71271428Y-78669771D01*
X71271428Y-78669771D02*
X71214285Y-78641200D01*
X71214285Y-78641200D02*
X71185714Y-78612628D01*
X102990476Y-103062295D02*
X103447619Y-103062295D01*
X103219047Y-103862295D02*
X103219047Y-103062295D01*
X103714286Y-103862295D02*
X103714286Y-103062295D01*
X103714286Y-103062295D02*
X104019048Y-103062295D01*
X104019048Y-103062295D02*
X104095238Y-103100390D01*
X104095238Y-103100390D02*
X104133333Y-103138485D01*
X104133333Y-103138485D02*
X104171429Y-103214676D01*
X104171429Y-103214676D02*
X104171429Y-103328961D01*
X104171429Y-103328961D02*
X104133333Y-103405152D01*
X104133333Y-103405152D02*
X104095238Y-103443247D01*
X104095238Y-103443247D02*
X104019048Y-103481342D01*
X104019048Y-103481342D02*
X103714286Y-103481342D01*
X104628571Y-103405152D02*
X104552381Y-103367057D01*
X104552381Y-103367057D02*
X104514286Y-103328961D01*
X104514286Y-103328961D02*
X104476190Y-103252771D01*
X104476190Y-103252771D02*
X104476190Y-103214676D01*
X104476190Y-103214676D02*
X104514286Y-103138485D01*
X104514286Y-103138485D02*
X104552381Y-103100390D01*
X104552381Y-103100390D02*
X104628571Y-103062295D01*
X104628571Y-103062295D02*
X104780952Y-103062295D01*
X104780952Y-103062295D02*
X104857143Y-103100390D01*
X104857143Y-103100390D02*
X104895238Y-103138485D01*
X104895238Y-103138485D02*
X104933333Y-103214676D01*
X104933333Y-103214676D02*
X104933333Y-103252771D01*
X104933333Y-103252771D02*
X104895238Y-103328961D01*
X104895238Y-103328961D02*
X104857143Y-103367057D01*
X104857143Y-103367057D02*
X104780952Y-103405152D01*
X104780952Y-103405152D02*
X104628571Y-103405152D01*
X104628571Y-103405152D02*
X104552381Y-103443247D01*
X104552381Y-103443247D02*
X104514286Y-103481342D01*
X104514286Y-103481342D02*
X104476190Y-103557533D01*
X104476190Y-103557533D02*
X104476190Y-103709914D01*
X104476190Y-103709914D02*
X104514286Y-103786104D01*
X104514286Y-103786104D02*
X104552381Y-103824200D01*
X104552381Y-103824200D02*
X104628571Y-103862295D01*
X104628571Y-103862295D02*
X104780952Y-103862295D01*
X104780952Y-103862295D02*
X104857143Y-103824200D01*
X104857143Y-103824200D02*
X104895238Y-103786104D01*
X104895238Y-103786104D02*
X104933333Y-103709914D01*
X104933333Y-103709914D02*
X104933333Y-103557533D01*
X104933333Y-103557533D02*
X104895238Y-103481342D01*
X104895238Y-103481342D02*
X104857143Y-103443247D01*
X104857143Y-103443247D02*
X104780952Y-103405152D01*
X64190476Y-83562295D02*
X64647619Y-83562295D01*
X64419047Y-84362295D02*
X64419047Y-83562295D01*
X64914286Y-84362295D02*
X64914286Y-83562295D01*
X64914286Y-83562295D02*
X65219048Y-83562295D01*
X65219048Y-83562295D02*
X65295238Y-83600390D01*
X65295238Y-83600390D02*
X65333333Y-83638485D01*
X65333333Y-83638485D02*
X65371429Y-83714676D01*
X65371429Y-83714676D02*
X65371429Y-83828961D01*
X65371429Y-83828961D02*
X65333333Y-83905152D01*
X65333333Y-83905152D02*
X65295238Y-83943247D01*
X65295238Y-83943247D02*
X65219048Y-83981342D01*
X65219048Y-83981342D02*
X64914286Y-83981342D01*
X66133333Y-84362295D02*
X65676190Y-84362295D01*
X65904762Y-84362295D02*
X65904762Y-83562295D01*
X65904762Y-83562295D02*
X65828571Y-83676580D01*
X65828571Y-83676580D02*
X65752381Y-83752771D01*
X65752381Y-83752771D02*
X65676190Y-83790866D01*
X89086104Y-103333332D02*
X89124200Y-103371428D01*
X89124200Y-103371428D02*
X89162295Y-103485713D01*
X89162295Y-103485713D02*
X89162295Y-103561904D01*
X89162295Y-103561904D02*
X89124200Y-103676190D01*
X89124200Y-103676190D02*
X89048009Y-103752380D01*
X89048009Y-103752380D02*
X88971819Y-103790475D01*
X88971819Y-103790475D02*
X88819438Y-103828571D01*
X88819438Y-103828571D02*
X88705152Y-103828571D01*
X88705152Y-103828571D02*
X88552771Y-103790475D01*
X88552771Y-103790475D02*
X88476580Y-103752380D01*
X88476580Y-103752380D02*
X88400390Y-103676190D01*
X88400390Y-103676190D02*
X88362295Y-103561904D01*
X88362295Y-103561904D02*
X88362295Y-103485713D01*
X88362295Y-103485713D02*
X88400390Y-103371428D01*
X88400390Y-103371428D02*
X88438485Y-103333332D01*
X88705152Y-102876190D02*
X88667057Y-102952380D01*
X88667057Y-102952380D02*
X88628961Y-102990475D01*
X88628961Y-102990475D02*
X88552771Y-103028571D01*
X88552771Y-103028571D02*
X88514676Y-103028571D01*
X88514676Y-103028571D02*
X88438485Y-102990475D01*
X88438485Y-102990475D02*
X88400390Y-102952380D01*
X88400390Y-102952380D02*
X88362295Y-102876190D01*
X88362295Y-102876190D02*
X88362295Y-102723809D01*
X88362295Y-102723809D02*
X88400390Y-102647618D01*
X88400390Y-102647618D02*
X88438485Y-102609523D01*
X88438485Y-102609523D02*
X88514676Y-102571428D01*
X88514676Y-102571428D02*
X88552771Y-102571428D01*
X88552771Y-102571428D02*
X88628961Y-102609523D01*
X88628961Y-102609523D02*
X88667057Y-102647618D01*
X88667057Y-102647618D02*
X88705152Y-102723809D01*
X88705152Y-102723809D02*
X88705152Y-102876190D01*
X88705152Y-102876190D02*
X88743247Y-102952380D01*
X88743247Y-102952380D02*
X88781342Y-102990475D01*
X88781342Y-102990475D02*
X88857533Y-103028571D01*
X88857533Y-103028571D02*
X89009914Y-103028571D01*
X89009914Y-103028571D02*
X89086104Y-102990475D01*
X89086104Y-102990475D02*
X89124200Y-102952380D01*
X89124200Y-102952380D02*
X89162295Y-102876190D01*
X89162295Y-102876190D02*
X89162295Y-102723809D01*
X89162295Y-102723809D02*
X89124200Y-102647618D01*
X89124200Y-102647618D02*
X89086104Y-102609523D01*
X89086104Y-102609523D02*
X89009914Y-102571428D01*
X89009914Y-102571428D02*
X88857533Y-102571428D01*
X88857533Y-102571428D02*
X88781342Y-102609523D01*
X88781342Y-102609523D02*
X88743247Y-102647618D01*
X88743247Y-102647618D02*
X88705152Y-102723809D01*
X68214285Y-90869771D02*
X68014285Y-90584057D01*
X67871428Y-90869771D02*
X67871428Y-90269771D01*
X67871428Y-90269771D02*
X68099999Y-90269771D01*
X68099999Y-90269771D02*
X68157142Y-90298342D01*
X68157142Y-90298342D02*
X68185713Y-90326914D01*
X68185713Y-90326914D02*
X68214285Y-90384057D01*
X68214285Y-90384057D02*
X68214285Y-90469771D01*
X68214285Y-90469771D02*
X68185713Y-90526914D01*
X68185713Y-90526914D02*
X68157142Y-90555485D01*
X68157142Y-90555485D02*
X68099999Y-90584057D01*
X68099999Y-90584057D02*
X67871428Y-90584057D01*
X68785713Y-90869771D02*
X68442856Y-90869771D01*
X68614285Y-90869771D02*
X68614285Y-90269771D01*
X68614285Y-90269771D02*
X68557142Y-90355485D01*
X68557142Y-90355485D02*
X68499999Y-90412628D01*
X68499999Y-90412628D02*
X68442856Y-90441200D01*
X69300000Y-90469771D02*
X69300000Y-90869771D01*
X69157142Y-90241200D02*
X69014285Y-90669771D01*
X69014285Y-90669771D02*
X69385714Y-90669771D01*
X76900000Y-96669771D02*
X76700000Y-96384057D01*
X76557143Y-96669771D02*
X76557143Y-96069771D01*
X76557143Y-96069771D02*
X76785714Y-96069771D01*
X76785714Y-96069771D02*
X76842857Y-96098342D01*
X76842857Y-96098342D02*
X76871428Y-96126914D01*
X76871428Y-96126914D02*
X76900000Y-96184057D01*
X76900000Y-96184057D02*
X76900000Y-96269771D01*
X76900000Y-96269771D02*
X76871428Y-96326914D01*
X76871428Y-96326914D02*
X76842857Y-96355485D01*
X76842857Y-96355485D02*
X76785714Y-96384057D01*
X76785714Y-96384057D02*
X76557143Y-96384057D01*
X77100000Y-96069771D02*
X77471428Y-96069771D01*
X77471428Y-96069771D02*
X77271428Y-96298342D01*
X77271428Y-96298342D02*
X77357143Y-96298342D01*
X77357143Y-96298342D02*
X77414286Y-96326914D01*
X77414286Y-96326914D02*
X77442857Y-96355485D01*
X77442857Y-96355485D02*
X77471428Y-96412628D01*
X77471428Y-96412628D02*
X77471428Y-96555485D01*
X77471428Y-96555485D02*
X77442857Y-96612628D01*
X77442857Y-96612628D02*
X77414286Y-96641200D01*
X77414286Y-96641200D02*
X77357143Y-96669771D01*
X77357143Y-96669771D02*
X77185714Y-96669771D01*
X77185714Y-96669771D02*
X77128571Y-96641200D01*
X77128571Y-96641200D02*
X77100000Y-96612628D01*
X79190476Y-75062295D02*
X79647619Y-75062295D01*
X79419047Y-75862295D02*
X79419047Y-75062295D01*
X79914286Y-75862295D02*
X79914286Y-75062295D01*
X79914286Y-75062295D02*
X80219048Y-75062295D01*
X80219048Y-75062295D02*
X80295238Y-75100390D01*
X80295238Y-75100390D02*
X80333333Y-75138485D01*
X80333333Y-75138485D02*
X80371429Y-75214676D01*
X80371429Y-75214676D02*
X80371429Y-75328961D01*
X80371429Y-75328961D02*
X80333333Y-75405152D01*
X80333333Y-75405152D02*
X80295238Y-75443247D01*
X80295238Y-75443247D02*
X80219048Y-75481342D01*
X80219048Y-75481342D02*
X79914286Y-75481342D01*
X80676190Y-75138485D02*
X80714286Y-75100390D01*
X80714286Y-75100390D02*
X80790476Y-75062295D01*
X80790476Y-75062295D02*
X80980952Y-75062295D01*
X80980952Y-75062295D02*
X81057143Y-75100390D01*
X81057143Y-75100390D02*
X81095238Y-75138485D01*
X81095238Y-75138485D02*
X81133333Y-75214676D01*
X81133333Y-75214676D02*
X81133333Y-75290866D01*
X81133333Y-75290866D02*
X81095238Y-75405152D01*
X81095238Y-75405152D02*
X80638095Y-75862295D01*
X80638095Y-75862295D02*
X81133333Y-75862295D01*
X114666667Y-83686104D02*
X114628571Y-83724200D01*
X114628571Y-83724200D02*
X114514286Y-83762295D01*
X114514286Y-83762295D02*
X114438095Y-83762295D01*
X114438095Y-83762295D02*
X114323809Y-83724200D01*
X114323809Y-83724200D02*
X114247619Y-83648009D01*
X114247619Y-83648009D02*
X114209524Y-83571819D01*
X114209524Y-83571819D02*
X114171428Y-83419438D01*
X114171428Y-83419438D02*
X114171428Y-83305152D01*
X114171428Y-83305152D02*
X114209524Y-83152771D01*
X114209524Y-83152771D02*
X114247619Y-83076580D01*
X114247619Y-83076580D02*
X114323809Y-83000390D01*
X114323809Y-83000390D02*
X114438095Y-82962295D01*
X114438095Y-82962295D02*
X114514286Y-82962295D01*
X114514286Y-82962295D02*
X114628571Y-83000390D01*
X114628571Y-83000390D02*
X114666667Y-83038485D01*
X115352381Y-83228961D02*
X115352381Y-83762295D01*
X115161905Y-82924200D02*
X114971428Y-83495628D01*
X114971428Y-83495628D02*
X115466667Y-83495628D01*
D10*
X80956265Y-82296895D02*
X80956265Y-81496895D01*
X80956265Y-81496895D02*
X81413408Y-82296895D01*
X81413408Y-82296895D02*
X81413408Y-81496895D01*
X81794360Y-81877847D02*
X82403884Y-81877847D01*
X82403884Y-82106419D02*
X81794360Y-82106419D01*
X82746740Y-81573085D02*
X82784836Y-81534990D01*
X82784836Y-81534990D02*
X82861026Y-81496895D01*
X82861026Y-81496895D02*
X83051502Y-81496895D01*
X83051502Y-81496895D02*
X83127693Y-81534990D01*
X83127693Y-81534990D02*
X83165788Y-81573085D01*
X83165788Y-81573085D02*
X83203883Y-81649276D01*
X83203883Y-81649276D02*
X83203883Y-81725466D01*
X83203883Y-81725466D02*
X83165788Y-81839752D01*
X83165788Y-81839752D02*
X82708645Y-82296895D01*
X82708645Y-82296895D02*
X83203883Y-82296895D01*
X105265789Y-82296895D02*
X105265789Y-81496895D01*
X105265789Y-81496895D02*
X105722932Y-82296895D01*
X105722932Y-82296895D02*
X105722932Y-81496895D01*
X106103884Y-81877847D02*
X106713408Y-81877847D01*
X106713408Y-82106419D02*
X106103884Y-82106419D01*
X107437217Y-81763561D02*
X107437217Y-82296895D01*
X107246741Y-81458800D02*
X107056264Y-82030228D01*
X107056264Y-82030228D02*
X107551503Y-82030228D01*
X108008646Y-81496895D02*
X108084836Y-81496895D01*
X108084836Y-81496895D02*
X108161027Y-81534990D01*
X108161027Y-81534990D02*
X108199122Y-81573085D01*
X108199122Y-81573085D02*
X108237217Y-81649276D01*
X108237217Y-81649276D02*
X108275312Y-81801657D01*
X108275312Y-81801657D02*
X108275312Y-81992133D01*
X108275312Y-81992133D02*
X108237217Y-82144514D01*
X108237217Y-82144514D02*
X108199122Y-82220704D01*
X108199122Y-82220704D02*
X108161027Y-82258800D01*
X108161027Y-82258800D02*
X108084836Y-82296895D01*
X108084836Y-82296895D02*
X108008646Y-82296895D01*
X108008646Y-82296895D02*
X107932455Y-82258800D01*
X107932455Y-82258800D02*
X107894360Y-82220704D01*
X107894360Y-82220704D02*
X107856265Y-82144514D01*
X107856265Y-82144514D02*
X107818169Y-81992133D01*
X107818169Y-81992133D02*
X107818169Y-81801657D01*
X107818169Y-81801657D02*
X107856265Y-81649276D01*
X107856265Y-81649276D02*
X107894360Y-81573085D01*
X107894360Y-81573085D02*
X107932455Y-81534990D01*
X107932455Y-81534990D02*
X108008646Y-81496895D01*
D12*
X120609524Y-78562295D02*
X120609524Y-77762295D01*
X120609524Y-77762295D02*
X120800000Y-77762295D01*
X120800000Y-77762295D02*
X120914286Y-77800390D01*
X120914286Y-77800390D02*
X120990476Y-77876580D01*
X120990476Y-77876580D02*
X121028571Y-77952771D01*
X121028571Y-77952771D02*
X121066667Y-78105152D01*
X121066667Y-78105152D02*
X121066667Y-78219438D01*
X121066667Y-78219438D02*
X121028571Y-78371819D01*
X121028571Y-78371819D02*
X120990476Y-78448009D01*
X120990476Y-78448009D02*
X120914286Y-78524200D01*
X120914286Y-78524200D02*
X120800000Y-78562295D01*
X120800000Y-78562295D02*
X120609524Y-78562295D01*
X121828571Y-78562295D02*
X121371428Y-78562295D01*
X121600000Y-78562295D02*
X121600000Y-77762295D01*
X121600000Y-77762295D02*
X121523809Y-77876580D01*
X121523809Y-77876580D02*
X121447619Y-77952771D01*
X121447619Y-77952771D02*
X121371428Y-77990866D01*
X76214285Y-78612628D02*
X76185713Y-78641200D01*
X76185713Y-78641200D02*
X76099999Y-78669771D01*
X76099999Y-78669771D02*
X76042856Y-78669771D01*
X76042856Y-78669771D02*
X75957142Y-78641200D01*
X75957142Y-78641200D02*
X75899999Y-78584057D01*
X75899999Y-78584057D02*
X75871428Y-78526914D01*
X75871428Y-78526914D02*
X75842856Y-78412628D01*
X75842856Y-78412628D02*
X75842856Y-78326914D01*
X75842856Y-78326914D02*
X75871428Y-78212628D01*
X75871428Y-78212628D02*
X75899999Y-78155485D01*
X75899999Y-78155485D02*
X75957142Y-78098342D01*
X75957142Y-78098342D02*
X76042856Y-78069771D01*
X76042856Y-78069771D02*
X76099999Y-78069771D01*
X76099999Y-78069771D02*
X76185713Y-78098342D01*
X76185713Y-78098342D02*
X76214285Y-78126914D01*
X76785713Y-78669771D02*
X76442856Y-78669771D01*
X76614285Y-78669771D02*
X76614285Y-78069771D01*
X76614285Y-78069771D02*
X76557142Y-78155485D01*
X76557142Y-78155485D02*
X76499999Y-78212628D01*
X76499999Y-78212628D02*
X76442856Y-78241200D01*
X77157142Y-78069771D02*
X77214285Y-78069771D01*
X77214285Y-78069771D02*
X77271428Y-78098342D01*
X77271428Y-78098342D02*
X77300000Y-78126914D01*
X77300000Y-78126914D02*
X77328571Y-78184057D01*
X77328571Y-78184057D02*
X77357142Y-78298342D01*
X77357142Y-78298342D02*
X77357142Y-78441200D01*
X77357142Y-78441200D02*
X77328571Y-78555485D01*
X77328571Y-78555485D02*
X77300000Y-78612628D01*
X77300000Y-78612628D02*
X77271428Y-78641200D01*
X77271428Y-78641200D02*
X77214285Y-78669771D01*
X77214285Y-78669771D02*
X77157142Y-78669771D01*
X77157142Y-78669771D02*
X77100000Y-78641200D01*
X77100000Y-78641200D02*
X77071428Y-78612628D01*
X77071428Y-78612628D02*
X77042857Y-78555485D01*
X77042857Y-78555485D02*
X77014285Y-78441200D01*
X77014285Y-78441200D02*
X77014285Y-78298342D01*
X77014285Y-78298342D02*
X77042857Y-78184057D01*
X77042857Y-78184057D02*
X77071428Y-78126914D01*
X77071428Y-78126914D02*
X77100000Y-78098342D01*
X77100000Y-78098342D02*
X77157142Y-78069771D01*
X108702976Y-102762295D02*
X108702976Y-103409914D01*
X108702976Y-103409914D02*
X108741071Y-103486104D01*
X108741071Y-103486104D02*
X108779166Y-103524200D01*
X108779166Y-103524200D02*
X108855357Y-103562295D01*
X108855357Y-103562295D02*
X109007738Y-103562295D01*
X109007738Y-103562295D02*
X109083928Y-103524200D01*
X109083928Y-103524200D02*
X109122023Y-103486104D01*
X109122023Y-103486104D02*
X109160119Y-103409914D01*
X109160119Y-103409914D02*
X109160119Y-102762295D01*
X109502975Y-102838485D02*
X109541071Y-102800390D01*
X109541071Y-102800390D02*
X109617261Y-102762295D01*
X109617261Y-102762295D02*
X109807737Y-102762295D01*
X109807737Y-102762295D02*
X109883928Y-102800390D01*
X109883928Y-102800390D02*
X109922023Y-102838485D01*
X109922023Y-102838485D02*
X109960118Y-102914676D01*
X109960118Y-102914676D02*
X109960118Y-102990866D01*
X109960118Y-102990866D02*
X109922023Y-103105152D01*
X109922023Y-103105152D02*
X109464880Y-103562295D01*
X109464880Y-103562295D02*
X109960118Y-103562295D01*
X67700000Y-93469771D02*
X67500000Y-93184057D01*
X67357143Y-93469771D02*
X67357143Y-92869771D01*
X67357143Y-92869771D02*
X67585714Y-92869771D01*
X67585714Y-92869771D02*
X67642857Y-92898342D01*
X67642857Y-92898342D02*
X67671428Y-92926914D01*
X67671428Y-92926914D02*
X67700000Y-92984057D01*
X67700000Y-92984057D02*
X67700000Y-93069771D01*
X67700000Y-93069771D02*
X67671428Y-93126914D01*
X67671428Y-93126914D02*
X67642857Y-93155485D01*
X67642857Y-93155485D02*
X67585714Y-93184057D01*
X67585714Y-93184057D02*
X67357143Y-93184057D01*
X68042857Y-93126914D02*
X67985714Y-93098342D01*
X67985714Y-93098342D02*
X67957143Y-93069771D01*
X67957143Y-93069771D02*
X67928571Y-93012628D01*
X67928571Y-93012628D02*
X67928571Y-92984057D01*
X67928571Y-92984057D02*
X67957143Y-92926914D01*
X67957143Y-92926914D02*
X67985714Y-92898342D01*
X67985714Y-92898342D02*
X68042857Y-92869771D01*
X68042857Y-92869771D02*
X68157143Y-92869771D01*
X68157143Y-92869771D02*
X68214286Y-92898342D01*
X68214286Y-92898342D02*
X68242857Y-92926914D01*
X68242857Y-92926914D02*
X68271428Y-92984057D01*
X68271428Y-92984057D02*
X68271428Y-93012628D01*
X68271428Y-93012628D02*
X68242857Y-93069771D01*
X68242857Y-93069771D02*
X68214286Y-93098342D01*
X68214286Y-93098342D02*
X68157143Y-93126914D01*
X68157143Y-93126914D02*
X68042857Y-93126914D01*
X68042857Y-93126914D02*
X67985714Y-93155485D01*
X67985714Y-93155485D02*
X67957143Y-93184057D01*
X67957143Y-93184057D02*
X67928571Y-93241200D01*
X67928571Y-93241200D02*
X67928571Y-93355485D01*
X67928571Y-93355485D02*
X67957143Y-93412628D01*
X67957143Y-93412628D02*
X67985714Y-93441200D01*
X67985714Y-93441200D02*
X68042857Y-93469771D01*
X68042857Y-93469771D02*
X68157143Y-93469771D01*
X68157143Y-93469771D02*
X68214286Y-93441200D01*
X68214286Y-93441200D02*
X68242857Y-93412628D01*
X68242857Y-93412628D02*
X68271428Y-93355485D01*
X68271428Y-93355485D02*
X68271428Y-93241200D01*
X68271428Y-93241200D02*
X68242857Y-93184057D01*
X68242857Y-93184057D02*
X68214286Y-93155485D01*
X68214286Y-93155485D02*
X68157143Y-93126914D01*
X100590476Y-110162295D02*
X101047619Y-110162295D01*
X100819047Y-110962295D02*
X100819047Y-110162295D01*
X101314286Y-110962295D02*
X101314286Y-110162295D01*
X101314286Y-110162295D02*
X101619048Y-110162295D01*
X101619048Y-110162295D02*
X101695238Y-110200390D01*
X101695238Y-110200390D02*
X101733333Y-110238485D01*
X101733333Y-110238485D02*
X101771429Y-110314676D01*
X101771429Y-110314676D02*
X101771429Y-110428961D01*
X101771429Y-110428961D02*
X101733333Y-110505152D01*
X101733333Y-110505152D02*
X101695238Y-110543247D01*
X101695238Y-110543247D02*
X101619048Y-110581342D01*
X101619048Y-110581342D02*
X101314286Y-110581342D01*
X102152381Y-110962295D02*
X102304762Y-110962295D01*
X102304762Y-110962295D02*
X102380952Y-110924200D01*
X102380952Y-110924200D02*
X102419048Y-110886104D01*
X102419048Y-110886104D02*
X102495238Y-110771819D01*
X102495238Y-110771819D02*
X102533333Y-110619438D01*
X102533333Y-110619438D02*
X102533333Y-110314676D01*
X102533333Y-110314676D02*
X102495238Y-110238485D01*
X102495238Y-110238485D02*
X102457143Y-110200390D01*
X102457143Y-110200390D02*
X102380952Y-110162295D01*
X102380952Y-110162295D02*
X102228571Y-110162295D01*
X102228571Y-110162295D02*
X102152381Y-110200390D01*
X102152381Y-110200390D02*
X102114286Y-110238485D01*
X102114286Y-110238485D02*
X102076190Y-110314676D01*
X102076190Y-110314676D02*
X102076190Y-110505152D01*
X102076190Y-110505152D02*
X102114286Y-110581342D01*
X102114286Y-110581342D02*
X102152381Y-110619438D01*
X102152381Y-110619438D02*
X102228571Y-110657533D01*
X102228571Y-110657533D02*
X102380952Y-110657533D01*
X102380952Y-110657533D02*
X102457143Y-110619438D01*
X102457143Y-110619438D02*
X102495238Y-110581342D01*
X102495238Y-110581342D02*
X102533333Y-110505152D01*
X115209523Y-106562295D02*
X115666666Y-106562295D01*
X115438094Y-107362295D02*
X115438094Y-106562295D01*
X115933333Y-107362295D02*
X115933333Y-106562295D01*
X115933333Y-106562295D02*
X116238095Y-106562295D01*
X116238095Y-106562295D02*
X116314285Y-106600390D01*
X116314285Y-106600390D02*
X116352380Y-106638485D01*
X116352380Y-106638485D02*
X116390476Y-106714676D01*
X116390476Y-106714676D02*
X116390476Y-106828961D01*
X116390476Y-106828961D02*
X116352380Y-106905152D01*
X116352380Y-106905152D02*
X116314285Y-106943247D01*
X116314285Y-106943247D02*
X116238095Y-106981342D01*
X116238095Y-106981342D02*
X115933333Y-106981342D01*
X117152380Y-107362295D02*
X116695237Y-107362295D01*
X116923809Y-107362295D02*
X116923809Y-106562295D01*
X116923809Y-106562295D02*
X116847618Y-106676580D01*
X116847618Y-106676580D02*
X116771428Y-106752771D01*
X116771428Y-106752771D02*
X116695237Y-106790866D01*
X117647619Y-106562295D02*
X117723809Y-106562295D01*
X117723809Y-106562295D02*
X117800000Y-106600390D01*
X117800000Y-106600390D02*
X117838095Y-106638485D01*
X117838095Y-106638485D02*
X117876190Y-106714676D01*
X117876190Y-106714676D02*
X117914285Y-106867057D01*
X117914285Y-106867057D02*
X117914285Y-107057533D01*
X117914285Y-107057533D02*
X117876190Y-107209914D01*
X117876190Y-107209914D02*
X117838095Y-107286104D01*
X117838095Y-107286104D02*
X117800000Y-107324200D01*
X117800000Y-107324200D02*
X117723809Y-107362295D01*
X117723809Y-107362295D02*
X117647619Y-107362295D01*
X117647619Y-107362295D02*
X117571428Y-107324200D01*
X117571428Y-107324200D02*
X117533333Y-107286104D01*
X117533333Y-107286104D02*
X117495238Y-107209914D01*
X117495238Y-107209914D02*
X117457142Y-107057533D01*
X117457142Y-107057533D02*
X117457142Y-106867057D01*
X117457142Y-106867057D02*
X117495238Y-106714676D01*
X117495238Y-106714676D02*
X117533333Y-106638485D01*
X117533333Y-106638485D02*
X117571428Y-106600390D01*
X117571428Y-106600390D02*
X117647619Y-106562295D01*
X77700000Y-98769771D02*
X77500000Y-98484057D01*
X77357143Y-98769771D02*
X77357143Y-98169771D01*
X77357143Y-98169771D02*
X77585714Y-98169771D01*
X77585714Y-98169771D02*
X77642857Y-98198342D01*
X77642857Y-98198342D02*
X77671428Y-98226914D01*
X77671428Y-98226914D02*
X77700000Y-98284057D01*
X77700000Y-98284057D02*
X77700000Y-98369771D01*
X77700000Y-98369771D02*
X77671428Y-98426914D01*
X77671428Y-98426914D02*
X77642857Y-98455485D01*
X77642857Y-98455485D02*
X77585714Y-98484057D01*
X77585714Y-98484057D02*
X77357143Y-98484057D01*
X77928571Y-98226914D02*
X77957143Y-98198342D01*
X77957143Y-98198342D02*
X78014286Y-98169771D01*
X78014286Y-98169771D02*
X78157143Y-98169771D01*
X78157143Y-98169771D02*
X78214286Y-98198342D01*
X78214286Y-98198342D02*
X78242857Y-98226914D01*
X78242857Y-98226914D02*
X78271428Y-98284057D01*
X78271428Y-98284057D02*
X78271428Y-98341200D01*
X78271428Y-98341200D02*
X78242857Y-98426914D01*
X78242857Y-98426914D02*
X77900000Y-98769771D01*
X77900000Y-98769771D02*
X78271428Y-98769771D01*
X72714285Y-75212628D02*
X72685713Y-75241200D01*
X72685713Y-75241200D02*
X72599999Y-75269771D01*
X72599999Y-75269771D02*
X72542856Y-75269771D01*
X72542856Y-75269771D02*
X72457142Y-75241200D01*
X72457142Y-75241200D02*
X72399999Y-75184057D01*
X72399999Y-75184057D02*
X72371428Y-75126914D01*
X72371428Y-75126914D02*
X72342856Y-75012628D01*
X72342856Y-75012628D02*
X72342856Y-74926914D01*
X72342856Y-74926914D02*
X72371428Y-74812628D01*
X72371428Y-74812628D02*
X72399999Y-74755485D01*
X72399999Y-74755485D02*
X72457142Y-74698342D01*
X72457142Y-74698342D02*
X72542856Y-74669771D01*
X72542856Y-74669771D02*
X72599999Y-74669771D01*
X72599999Y-74669771D02*
X72685713Y-74698342D01*
X72685713Y-74698342D02*
X72714285Y-74726914D01*
X73285713Y-75269771D02*
X72942856Y-75269771D01*
X73114285Y-75269771D02*
X73114285Y-74669771D01*
X73114285Y-74669771D02*
X73057142Y-74755485D01*
X73057142Y-74755485D02*
X72999999Y-74812628D01*
X72999999Y-74812628D02*
X72942856Y-74841200D01*
X73514285Y-74726914D02*
X73542857Y-74698342D01*
X73542857Y-74698342D02*
X73600000Y-74669771D01*
X73600000Y-74669771D02*
X73742857Y-74669771D01*
X73742857Y-74669771D02*
X73800000Y-74698342D01*
X73800000Y-74698342D02*
X73828571Y-74726914D01*
X73828571Y-74726914D02*
X73857142Y-74784057D01*
X73857142Y-74784057D02*
X73857142Y-74841200D01*
X73857142Y-74841200D02*
X73828571Y-74926914D01*
X73828571Y-74926914D02*
X73485714Y-75269771D01*
X73485714Y-75269771D02*
X73857142Y-75269771D01*
X73300000Y-78612628D02*
X73271428Y-78641200D01*
X73271428Y-78641200D02*
X73185714Y-78669771D01*
X73185714Y-78669771D02*
X73128571Y-78669771D01*
X73128571Y-78669771D02*
X73042857Y-78641200D01*
X73042857Y-78641200D02*
X72985714Y-78584057D01*
X72985714Y-78584057D02*
X72957143Y-78526914D01*
X72957143Y-78526914D02*
X72928571Y-78412628D01*
X72928571Y-78412628D02*
X72928571Y-78326914D01*
X72928571Y-78326914D02*
X72957143Y-78212628D01*
X72957143Y-78212628D02*
X72985714Y-78155485D01*
X72985714Y-78155485D02*
X73042857Y-78098342D01*
X73042857Y-78098342D02*
X73128571Y-78069771D01*
X73128571Y-78069771D02*
X73185714Y-78069771D01*
X73185714Y-78069771D02*
X73271428Y-78098342D01*
X73271428Y-78098342D02*
X73300000Y-78126914D01*
X73814286Y-78069771D02*
X73700000Y-78069771D01*
X73700000Y-78069771D02*
X73642857Y-78098342D01*
X73642857Y-78098342D02*
X73614286Y-78126914D01*
X73614286Y-78126914D02*
X73557143Y-78212628D01*
X73557143Y-78212628D02*
X73528571Y-78326914D01*
X73528571Y-78326914D02*
X73528571Y-78555485D01*
X73528571Y-78555485D02*
X73557143Y-78612628D01*
X73557143Y-78612628D02*
X73585714Y-78641200D01*
X73585714Y-78641200D02*
X73642857Y-78669771D01*
X73642857Y-78669771D02*
X73757143Y-78669771D01*
X73757143Y-78669771D02*
X73814286Y-78641200D01*
X73814286Y-78641200D02*
X73842857Y-78612628D01*
X73842857Y-78612628D02*
X73871428Y-78555485D01*
X73871428Y-78555485D02*
X73871428Y-78412628D01*
X73871428Y-78412628D02*
X73842857Y-78355485D01*
X73842857Y-78355485D02*
X73814286Y-78326914D01*
X73814286Y-78326914D02*
X73757143Y-78298342D01*
X73757143Y-78298342D02*
X73642857Y-78298342D01*
X73642857Y-78298342D02*
X73585714Y-78326914D01*
X73585714Y-78326914D02*
X73557143Y-78355485D01*
X73557143Y-78355485D02*
X73528571Y-78412628D01*
D13*
%TO.C,SW1*%
X63090000Y-88990000D02*
X65810000Y-88990000D01*
X63090000Y-89250000D02*
X62550000Y-89250000D01*
X63090000Y-89250000D02*
X63090000Y-89000000D01*
X63090000Y-90820000D02*
X63090000Y-92780000D01*
X63090000Y-94610000D02*
X63090000Y-94350000D01*
X65800000Y-94610000D02*
X63100000Y-94610000D01*
X65810000Y-88990000D02*
X65810000Y-91000000D01*
X65810000Y-92600000D02*
X65810000Y-94610000D01*
%TO.C,C5*%
X77040000Y-92892164D02*
X77040000Y-93107836D01*
X77760000Y-92892164D02*
X77760000Y-93107836D01*
%TO.C,TP12*%
X76700000Y-90200000D02*
G75*
G02*
X75300000Y-90200000I-700000J0D01*
G01*
X75300000Y-90200000D02*
G75*
G02*
X76700000Y-90200000I700000J0D01*
G01*
%TO.C,R12*%
X71477500Y-99362742D02*
X71477500Y-99837258D01*
X72522500Y-99362742D02*
X72522500Y-99837258D01*
%TO.C,TP5*%
X108200000Y-91600000D02*
G75*
G02*
X105400000Y-91600000I-1400000J0D01*
G01*
X105400000Y-91600000D02*
G75*
G02*
X108200000Y-91600000I1400000J0D01*
G01*
%TO.C,R1*%
X77240000Y-91107836D02*
X77240000Y-90892164D01*
X77960000Y-91107836D02*
X77960000Y-90892164D01*
%TO.C,R9*%
X93072936Y-99640000D02*
X96127064Y-99640000D01*
X93072936Y-102360000D02*
X96127064Y-102360000D01*
%TO.C,R10*%
X116090000Y-97727064D02*
X116090000Y-93372936D01*
X119510000Y-97727064D02*
X119510000Y-93372936D01*
%TO.C,TP3*%
X80400000Y-87600000D02*
G75*
G02*
X77600000Y-87600000I-1400000J0D01*
G01*
X77600000Y-87600000D02*
G75*
G02*
X80400000Y-87600000I1400000J0D01*
G01*
%TO.C,C1*%
X75292164Y-97040000D02*
X75507836Y-97040000D01*
X75292164Y-97760000D02*
X75507836Y-97760000D01*
%TO.C,TP13*%
X87600000Y-104600000D02*
G75*
G02*
X84800000Y-104600000I-1400000J0D01*
G01*
X84800000Y-104600000D02*
G75*
G02*
X87600000Y-104600000I1400000J0D01*
G01*
%TO.C,U1*%
X71990000Y-91190000D02*
X75210000Y-91190000D01*
X71990000Y-91365000D02*
X71990000Y-91190000D01*
X71990000Y-94410000D02*
X71990000Y-94235000D01*
X75210000Y-91190000D02*
X75210000Y-91365000D01*
X75210000Y-94235000D02*
X75210000Y-94410000D01*
X75210000Y-94410000D02*
X71990000Y-94410000D01*
X76000000Y-94570000D02*
X75520000Y-94570000D01*
X75760000Y-94240000D01*
X76000000Y-94570000D01*
G36*
X76000000Y-94570000D02*
G01*
X75520000Y-94570000D01*
X75760000Y-94240000D01*
X76000000Y-94570000D01*
G37*
%TO.C,C9*%
X69507836Y-93840000D02*
X69292164Y-93840000D01*
X69507836Y-94560000D02*
X69292164Y-94560000D01*
%TO.C,D3*%
X76310000Y-84140000D02*
X75040000Y-84140000D01*
X76600000Y-88660000D02*
X75040000Y-88660000D01*
X76600000Y-88660000D02*
X76600000Y-88420000D01*
X76910000Y-84400000D02*
X76630000Y-84400000D01*
X76630000Y-84120000D01*
X76910000Y-84400000D01*
G36*
X76910000Y-84400000D02*
G01*
X76630000Y-84400000D01*
X76630000Y-84120000D01*
X76910000Y-84400000D01*
G37*
D14*
%TO.C,Q1*%
X78478250Y-90101000D02*
X78478500Y-90223000D01*
X78478500Y-92773000D02*
X78478500Y-93057500D01*
X79405500Y-93150250D02*
X79607250Y-93150250D01*
X79421420Y-89836830D02*
X79623170Y-89836830D01*
X82776670Y-89836830D02*
X82978420Y-89836830D01*
X82776670Y-93163330D02*
X82978420Y-93163330D01*
X83945500Y-92802500D02*
X83945750Y-93146000D01*
X83945750Y-89833250D02*
X83945750Y-90193500D01*
D15*
X78457030Y-89809500D02*
G75*
G02*
X78444970Y-89809500I-6030J0D01*
G01*
X78444970Y-89809500D02*
G75*
G02*
X78457030Y-89809500I6030J0D01*
G01*
D13*
%TO.C,TP11*%
X70600000Y-98800000D02*
G75*
G02*
X67800000Y-98800000I-1400000J0D01*
G01*
X67800000Y-98800000D02*
G75*
G02*
X70600000Y-98800000I1400000J0D01*
G01*
%TO.C,R4*%
X73292164Y-96040000D02*
X73507836Y-96040000D01*
X73292164Y-96760000D02*
X73507836Y-96760000D01*
%TO.C,C3*%
X118390000Y-89165748D02*
X118390000Y-86334252D01*
X123610000Y-89165748D02*
X123610000Y-86334252D01*
%TO.C,TP6*%
X123600000Y-80600000D02*
G75*
G02*
X120800000Y-80600000I-1400000J0D01*
G01*
X120800000Y-80600000D02*
G75*
G02*
X123600000Y-80600000I1400000J0D01*
G01*
%TO.C,R15*%
X67490000Y-88459420D02*
X67490000Y-88740580D01*
X68510000Y-88459420D02*
X68510000Y-88740580D01*
%TO.C,R11*%
X74637258Y-98277500D02*
X74162742Y-98277500D01*
X74637258Y-99322500D02*
X74162742Y-99322500D01*
%TO.C,R5*%
X68065000Y-80372936D02*
X68065000Y-80827064D01*
X69535000Y-80372936D02*
X69535000Y-80827064D01*
%TO.C,C11*%
X75340000Y-72911252D02*
X75340000Y-71488748D01*
X78060000Y-72911252D02*
X78060000Y-71488748D01*
%TO.C,TP7*%
X108000000Y-78000000D02*
G75*
G02*
X105200000Y-78000000I-1400000J0D01*
G01*
X105200000Y-78000000D02*
G75*
G02*
X108000000Y-78000000I1400000J0D01*
G01*
%TO.C,C7*%
X106090000Y-104859420D02*
X106090000Y-105140580D01*
X107110000Y-104859420D02*
X107110000Y-105140580D01*
%TO.C,U3*%
X91945000Y-103005000D02*
X91945000Y-108205000D01*
X91945000Y-108205000D02*
X93595000Y-108205000D01*
X95595000Y-108205000D02*
X97245000Y-108205000D01*
X97245000Y-103005000D02*
X91945000Y-103005000D01*
X97245000Y-108205000D02*
X97245000Y-103005000D01*
X93595000Y-108205000D02*
G75*
G02*
X95595000Y-108205000I1000000J0D01*
G01*
%TO.C,TP14*%
X87600000Y-108200000D02*
G75*
G02*
X84800000Y-108200000I-1400000J0D01*
G01*
X84800000Y-108200000D02*
G75*
G02*
X87600000Y-108200000I1400000J0D01*
G01*
%TO.C,D2*%
X104040000Y-107840000D02*
X105040000Y-107840000D01*
X104040000Y-109360000D02*
X104040000Y-107840000D01*
X104090000Y-109360000D02*
X104040000Y-109360000D01*
X105990000Y-109360000D02*
X105210000Y-109360000D01*
X106160000Y-107840000D02*
X107160000Y-107840000D01*
X107160000Y-107840000D02*
X107160000Y-109360000D01*
X107160000Y-109360000D02*
X107110000Y-109360000D01*
X105550000Y-110140000D02*
X105220000Y-109900000D01*
X105550000Y-109660000D01*
X105550000Y-110140000D01*
G36*
X105550000Y-110140000D02*
G01*
X105220000Y-109900000D01*
X105550000Y-109660000D01*
X105550000Y-110140000D01*
G37*
%TO.C,C2*%
X75507836Y-94840000D02*
X75292164Y-94840000D01*
X75507836Y-95560000D02*
X75292164Y-95560000D01*
%TO.C,R6*%
X107677500Y-107562742D02*
X107677500Y-108037258D01*
X108722500Y-107562742D02*
X108722500Y-108037258D01*
%TO.C,R7*%
X112090000Y-93372936D02*
X112090000Y-97727064D01*
X115510000Y-93372936D02*
X115510000Y-97727064D01*
%TO.C,R13*%
X70065000Y-80372936D02*
X70065000Y-80827064D01*
X71535000Y-80372936D02*
X71535000Y-80827064D01*
%TO.C,TP8*%
X103000000Y-104700000D02*
G75*
G02*
X100200000Y-104700000I-1400000J0D01*
G01*
X100200000Y-104700000D02*
G75*
G02*
X103000000Y-104700000I1400000J0D01*
G01*
%TO.C,TP1*%
X69400000Y-84000000D02*
G75*
G02*
X66600000Y-84000000I-1400000J0D01*
G01*
X66600000Y-84000000D02*
G75*
G02*
X69400000Y-84000000I1400000J0D01*
G01*
%TO.C,C8*%
X88290000Y-105434420D02*
X88290000Y-105715580D01*
X89310000Y-105434420D02*
X89310000Y-105715580D01*
%TO.C,R14*%
X68837258Y-91277500D02*
X68362742Y-91277500D01*
X68837258Y-92322500D02*
X68362742Y-92322500D01*
%TO.C,R3*%
X75292164Y-96040000D02*
X75507836Y-96040000D01*
X75292164Y-96760000D02*
X75507836Y-96760000D01*
%TO.C,TP2*%
X81600000Y-78000000D02*
G75*
G02*
X78800000Y-78000000I-1400000J0D01*
G01*
X78800000Y-78000000D02*
G75*
G02*
X81600000Y-78000000I1400000J0D01*
G01*
%TO.C,C4*%
X112190000Y-89165748D02*
X112190000Y-86334252D01*
X117410000Y-89165748D02*
X117410000Y-86334252D01*
D10*
%TO.C,T1*%
X80700000Y-82600000D02*
X84200000Y-82600000D01*
X80700000Y-89400000D02*
X80700000Y-82600000D01*
X80700000Y-89400000D02*
X84200000Y-89400000D01*
X108500000Y-82600000D02*
X105000000Y-82600000D01*
X108500000Y-89400000D02*
X105000000Y-89400000D01*
X108500000Y-89400000D02*
X108500000Y-82600000D01*
D16*
X81600000Y-83300000D02*
G75*
G02*
X81200000Y-83300000I-200000J0D01*
G01*
X81200000Y-83300000D02*
G75*
G02*
X81600000Y-83300000I200000J0D01*
G01*
X108000000Y-83300000D02*
G75*
G02*
X107600000Y-83300000I-200000J0D01*
G01*
X107600000Y-83300000D02*
G75*
G02*
X108000000Y-83300000I200000J0D01*
G01*
D13*
%TO.C,D1*%
X110650000Y-74677500D02*
X117070000Y-74677500D01*
X110650000Y-81577500D02*
X117070000Y-81577500D01*
X117070000Y-74677500D02*
X117070000Y-74947500D01*
X117070000Y-81577500D02*
X117070000Y-81307500D01*
X119140000Y-81737500D02*
X118460000Y-81737500D01*
X118800000Y-81267500D01*
X119140000Y-81737500D01*
G36*
X119140000Y-81737500D02*
G01*
X118460000Y-81737500D01*
X118800000Y-81267500D01*
X119140000Y-81737500D01*
G37*
%TO.C,C10*%
X75240000Y-80488748D02*
X75240000Y-81911252D01*
X77960000Y-80488748D02*
X77960000Y-81911252D01*
%TO.C,U2*%
X108713248Y-103840000D02*
X110047500Y-103840000D01*
X110047500Y-106060000D02*
X108577500Y-106060000D01*
X108422500Y-103830000D02*
X108282500Y-103640000D01*
X108562500Y-103640000D01*
X108422500Y-103830000D01*
G36*
X108422500Y-103830000D02*
G01*
X108282500Y-103640000D01*
X108562500Y-103640000D01*
X108422500Y-103830000D01*
G37*
%TO.C,R8*%
X69553641Y-92820000D02*
X69246359Y-92820000D01*
X69553641Y-93580000D02*
X69246359Y-93580000D01*
%TO.C,TP9*%
X103000000Y-108200000D02*
G75*
G02*
X100200000Y-108200000I-1400000J0D01*
G01*
X100200000Y-108200000D02*
G75*
G02*
X103000000Y-108200000I1400000J0D01*
G01*
%TO.C,TP10*%
X114800000Y-107000000D02*
G75*
G02*
X112000000Y-107000000I-1400000J0D01*
G01*
X112000000Y-107000000D02*
G75*
G02*
X114800000Y-107000000I1400000J0D01*
G01*
%TO.C,R2*%
X78340000Y-95297936D02*
X78340000Y-96302064D01*
X84860000Y-95297936D02*
X84860000Y-96302064D01*
%TO.C,C12*%
X71640000Y-72911252D02*
X71640000Y-71488748D01*
X74360000Y-72911252D02*
X74360000Y-71488748D01*
%TO.C,C6*%
X72040000Y-80488748D02*
X72040000Y-81911252D01*
X74760000Y-80488748D02*
X74760000Y-81911252D01*
%TD*%
M02*
