M48
; DRILL file {KiCad 9.0.7} date 2026-03-23T15:21:10-0400
; FORMAT={-:-/ absolute / metric / decimal}
; #@! TF.CreationDate,2026-03-23T15:21:10-04:00
; #@! TF.GenerationSoftware,Kicad,Pcbnew,9.0.7
; #@! TF.FileFunction,Plated,1,2,PTH
FMAT,2
METRIC
; #@! TA.AperFunction,Plated,PTH,ViaDrill
T1C0.300
; #@! TA.AperFunction,Plated,PTH,ComponentDrill
T2C0.500
; #@! TA.AperFunction,Plated,PTH,ComponentDrill
T3C0.800
; #@! TA.AperFunction,Plated,PTH,ComponentDrill
T4C1.000
%
G90
G05
T1
X58.627Y-71.915
X58.627Y-79.535
X58.627Y-82.075
X58.627Y-84.615
X58.627Y-87.155
X58.627Y-89.695
X58.627Y-92.235
X58.627Y-99.855
X58.627Y-110.015
X61.167Y-71.915
X61.167Y-79.535
X61.167Y-82.075
X61.167Y-84.615
X61.167Y-87.155
X61.167Y-89.695
X61.167Y-92.235
X61.167Y-99.855
X61.167Y-110.015
X63.707Y-71.915
X63.707Y-79.535
X63.707Y-82.075
X63.707Y-84.615
X63.707Y-87.155
X63.707Y-92.235
X63.707Y-99.855
X63.707Y-110.015
X64.3Y-103.6
X64.3Y-104.4
X64.3Y-105.2
X64.3Y-106.0
X64.3Y-106.8
X66.247Y-71.915
X66.247Y-94.775
X66.247Y-102.395
X66.247Y-104.935
X66.247Y-107.475
X66.247Y-110.015
X68.4Y-92.6
X68.787Y-71.915
X68.787Y-104.935
X68.787Y-107.475
X68.787Y-110.015
X68.9Y-95.0
X71.3Y-96.0
X71.327Y-89.695
X71.327Y-102.395
X71.327Y-107.475
X71.327Y-110.015
X72.0Y-95.0
X72.1Y-71.7
X72.2Y-91.2
X73.0Y-71.7
X73.1Y-100.4
X73.867Y-89.695
X73.867Y-102.395
X73.867Y-104.935
X73.867Y-107.475
X73.867Y-110.015
X73.9Y-71.7
X74.2Y-92.69
X74.2Y-93.71
X74.92Y-95.2
X75.712Y-94.5
X75.8Y-71.6
X76.407Y-104.935
X76.407Y-107.475
X76.407Y-110.015
X76.7Y-71.6
X77.4Y-94.1
X77.6Y-71.6
X78.7Y-98.2
X78.7Y-99.0
X78.947Y-107.475
X78.947Y-110.015
X79.5Y-98.2
X79.5Y-99.0
X80.3Y-98.2
X80.3Y-99.0
X81.1Y-98.2
X81.1Y-99.0
X81.487Y-71.915
X81.487Y-102.395
X81.487Y-107.475
X81.487Y-110.015
X81.9Y-98.2
X81.9Y-99.0
X82.7Y-98.2
X82.7Y-99.0
X83.5Y-98.2
X83.5Y-99.0
X84.027Y-71.915
X84.027Y-74.455
X84.027Y-76.995
X84.027Y-79.535
X84.027Y-82.075
X84.027Y-84.615
X84.027Y-102.395
X84.027Y-110.015
X84.3Y-98.2
X84.3Y-99.0
X86.567Y-99.855
X86.567Y-102.395
X86.567Y-110.015
X89.107Y-99.855
X89.107Y-102.395
X89.107Y-110.015
X91.647Y-110.015
X110.1Y-103.4
X110.1Y-110.1
X117.3Y-83.3
T2
X82.3Y-84.3
X82.3Y-86.0
X82.3Y-87.7
X106.9Y-84.3
X106.9Y-86.0
X106.9Y-87.7
T3
X90.785Y-104.335
X90.785Y-106.875
X98.405Y-104.335
X98.405Y-106.875
T4
X68.0Y-84.0
X69.2Y-98.8
X79.0Y-87.6
X80.2Y-78.0
X86.2Y-104.6
X86.2Y-108.2
X101.6Y-104.7
X101.6Y-108.2
X106.6Y-78.0
X106.8Y-91.6
X113.4Y-107.0
X122.2Y-80.6
M30
