%TF.GenerationSoftware,KiCad,Pcbnew,9.0.7*%
%TF.CreationDate,2026-03-23T18:14:06-04:00*%
%TF.ProjectId,ADC-Testing,4144432d-5465-4737-9469-6e672e6b6963,rev?*%
%TF.SameCoordinates,Original*%
%TF.FileFunction,Copper,L3,Inr*%
%TF.FilePolarity,Positive*%
%FSLAX46Y46*%
G04 Gerber Fmt 4.6, Leading zero omitted, Abs format (unit mm)*
G04 Created by KiCad (PCBNEW 9.0.7) date 2026-03-23 18:14:06*
%MOMM*%
%LPD*%
G01*
G04 APERTURE LIST*
G04 Aperture macros list*
%AMRoundRect*
0 Rectangle with rounded corners*
0 $1 Rounding radius*
0 $2 $3 $4 $5 $6 $7 $8 $9 X,Y pos of 4 corners*
0 Add a 4 corners polygon primitive as box body*
4,1,4,$2,$3,$4,$5,$6,$7,$8,$9,$2,$3,0*
0 Add four circle primitives for the rounded corners*
1,1,$1+$1,$2,$3*
1,1,$1+$1,$4,$5*
1,1,$1+$1,$6,$7*
1,1,$1+$1,$8,$9*
0 Add four rect primitives between the rounded corners*
20,1,$1+$1,$2,$3,$4,$5,0*
20,1,$1+$1,$4,$5,$6,$7,0*
20,1,$1+$1,$6,$7,$8,$9,0*
20,1,$1+$1,$8,$9,$2,$3,0*%
G04 Aperture macros list end*
%TA.AperFunction,ComponentPad*%
%ADD10C,2.000000*%
%TD*%
%TA.AperFunction,ComponentPad*%
%ADD11RoundRect,0.250000X-0.550000X-0.550000X0.550000X-0.550000X0.550000X0.550000X-0.550000X0.550000X0*%
%TD*%
%TA.AperFunction,ComponentPad*%
%ADD12C,1.600000*%
%TD*%
%TA.AperFunction,ComponentPad*%
%ADD13RoundRect,0.250000X-1.050000X-0.550000X1.050000X-0.550000X1.050000X0.550000X-1.050000X0.550000X0*%
%TD*%
%TA.AperFunction,ComponentPad*%
%ADD14O,2.600000X1.600000*%
%TD*%
%TA.AperFunction,ViaPad*%
%ADD15C,0.800000*%
%TD*%
%TA.AperFunction,Conductor*%
%ADD16C,0.200000*%
%TD*%
G04 APERTURE END LIST*
D10*
%TO.N,Net-(DUT1-VIN)*%
%TO.C,TP1*%
X136820000Y-74780000D03*
%TD*%
%TO.N,VDD*%
%TO.C,SW1*%
X131720000Y-92210000D03*
X125220000Y-92210000D03*
%TO.N,Net-(U1-D0)*%
X131720000Y-87710000D03*
X125220000Y-87710000D03*
%TD*%
D11*
%TO.N,VDDA*%
%TO.C,DUT1*%
X141850000Y-70520000D03*
D12*
%TO.N,Net-(DUT1-GND)*%
X141850000Y-73060000D03*
%TO.N,Net-(DUT1-VIN)*%
X141850000Y-75600000D03*
%TO.N,/SCK*%
X149470000Y-75600000D03*
%TO.N,/MISO*%
X149470000Y-73060000D03*
%TO.N,/CS2*%
X149470000Y-70520000D03*
%TD*%
D13*
%TO.N,unconnected-(U1-~{RESET}-Pad1)*%
%TO.C,U1*%
X95777500Y-52270000D03*
D14*
%TO.N,VDD*%
X95777500Y-54810000D03*
%TO.N,GND*%
X95777500Y-57350000D03*
X95777500Y-59890000D03*
%TO.N,unconnected-(U1-A0-Pad5)*%
X95777500Y-62430000D03*
%TO.N,unconnected-(U1-A1-Pad6)*%
X95777500Y-64970000D03*
%TO.N,unconnected-(U1-A2-Pad7)*%
X95777500Y-67510000D03*
%TO.N,unconnected-(U1-A3-Pad8)*%
X95777500Y-70050000D03*
%TO.N,unconnected-(U1-A4-Pad9)*%
X95777500Y-72590000D03*
%TO.N,unconnected-(U1-A5-Pad10)*%
X95777500Y-75130000D03*
%TO.N,/SCK*%
X95777500Y-77670000D03*
%TO.N,/MOSI*%
X95777500Y-80210000D03*
%TO.N,/MISO*%
X95777500Y-82750000D03*
%TO.N,unconnected-(U1-RX-Pad14)*%
X95777500Y-85290000D03*
%TO.N,unconnected-(U1-TX-Pad15)*%
X95777500Y-87830000D03*
%TO.N,unconnected-(U1-SPARE-Pad16)*%
X95777500Y-90370000D03*
%TO.N,unconnected-(U1-SDA-Pad17)*%
X115497500Y-90370000D03*
%TO.N,unconnected-(U1-SCL-Pad18)*%
X115497500Y-87830000D03*
%TO.N,Net-(U1-D0)*%
X115497500Y-85290000D03*
%TO.N,Net-(U1-D1)*%
X115497500Y-82750000D03*
%TO.N,/CS1*%
X115497500Y-80210000D03*
%TO.N,/CS2*%
X115497500Y-77670000D03*
%TO.N,/CS3*%
X115497500Y-75130000D03*
%TO.N,unconnected-(U1-D5-Pad24)*%
X115497500Y-72590000D03*
%TO.N,unconnected-(U1-D6-Pad25)*%
X115497500Y-70050000D03*
%TO.N,/USB*%
X115497500Y-67510000D03*
%TO.N,VDD*%
X115497500Y-64970000D03*
%TO.N,unconnected-(U1-VBAT-Pad28)*%
X115497500Y-62430000D03*
%TD*%
D15*
%TO.N,GND*%
X120500000Y-88760000D03*
X141220000Y-88210000D03*
X135769149Y-75986532D03*
X139760000Y-76700000D03*
X120530000Y-62312500D03*
X133257500Y-71687500D03*
X138025686Y-78424314D03*
X136020000Y-78019815D03*
X135552782Y-73803186D03*
X144550000Y-67670000D03*
X136991409Y-72628616D03*
X139155686Y-79554314D03*
X137854153Y-73559125D03*
X140910000Y-82520000D03*
X126070000Y-82750000D03*
X138485000Y-81710000D03*
X139780000Y-74500000D03*
X138568123Y-74500000D03*
X146500000Y-86849998D03*
X137804314Y-80465686D03*
X138417818Y-76700000D03*
X134915858Y-70553064D03*
X121520000Y-69450000D03*
X136714314Y-79375686D03*
%TO.N,VDDA*%
X131692500Y-73470000D03*
X142292500Y-82022500D03*
X123595000Y-69430000D03*
X148670000Y-84980000D03*
%TO.N,/CS2*%
X124070000Y-77670000D03*
%TO.N,/MISO*%
X139280000Y-87060000D03*
%TO.N,/SCK*%
X137985000Y-86085000D03*
X131820000Y-79830000D03*
%TO.N,/MOSI*%
X121510000Y-76450000D03*
X138520000Y-91400000D03*
%TD*%
D16*
%TO.N,/CS1*%
X115797500Y-80210000D02*
X115797500Y-80262500D01*
X115797500Y-80262500D02*
X115510000Y-80550000D01*
%TD*%
%TA.AperFunction,Conductor*%
%TO.N,GND*%
G36*
X149612702Y-43170617D02*
G01*
X149996771Y-43187386D01*
X150007506Y-43188326D01*
X150385971Y-43238152D01*
X150396597Y-43240025D01*
X150769284Y-43322648D01*
X150779710Y-43325442D01*
X151143765Y-43440227D01*
X151153911Y-43443920D01*
X151506578Y-43590000D01*
X151516369Y-43594566D01*
X151854942Y-43770816D01*
X151864310Y-43776224D01*
X152186244Y-43981318D01*
X152195105Y-43987523D01*
X152497930Y-44219889D01*
X152506217Y-44226843D01*
X152787635Y-44484715D01*
X152795284Y-44492364D01*
X153053156Y-44773782D01*
X153060110Y-44782069D01*
X153292476Y-45084894D01*
X153298681Y-45093755D01*
X153503775Y-45415689D01*
X153509183Y-45425057D01*
X153685430Y-45763623D01*
X153690002Y-45773427D01*
X153836075Y-46126078D01*
X153839775Y-46136244D01*
X153954554Y-46500278D01*
X153957354Y-46510727D01*
X154039971Y-46883389D01*
X154041849Y-46894042D01*
X154091671Y-47272473D01*
X154092614Y-47283249D01*
X154109382Y-47667297D01*
X154109500Y-47672706D01*
X154109500Y-95717293D01*
X154109382Y-95722702D01*
X154092614Y-96106750D01*
X154091671Y-96117526D01*
X154041849Y-96495957D01*
X154039971Y-96506610D01*
X153957354Y-96879272D01*
X153954554Y-96889721D01*
X153839775Y-97253755D01*
X153836075Y-97263921D01*
X153690002Y-97616572D01*
X153685430Y-97626376D01*
X153509183Y-97964942D01*
X153503775Y-97974310D01*
X153298681Y-98296244D01*
X153292476Y-98305105D01*
X153060110Y-98607930D01*
X153053156Y-98616217D01*
X152795284Y-98897635D01*
X152787635Y-98905284D01*
X152506217Y-99163156D01*
X152497930Y-99170110D01*
X152195105Y-99402476D01*
X152186244Y-99408681D01*
X151864310Y-99613775D01*
X151854942Y-99619183D01*
X151516376Y-99795430D01*
X151506572Y-99800002D01*
X151153921Y-99946075D01*
X151143755Y-99949775D01*
X150779721Y-100064554D01*
X150769272Y-100067354D01*
X150396610Y-100149971D01*
X150385957Y-100151849D01*
X150007526Y-100201671D01*
X149996750Y-100202614D01*
X149612703Y-100219382D01*
X149607294Y-100219500D01*
X95092706Y-100219500D01*
X95087297Y-100219382D01*
X94703249Y-100202614D01*
X94692473Y-100201671D01*
X94314042Y-100151849D01*
X94303389Y-100149971D01*
X93930727Y-100067354D01*
X93920278Y-100064554D01*
X93556244Y-99949775D01*
X93546078Y-99946075D01*
X93193427Y-99800002D01*
X93183623Y-99795430D01*
X92845057Y-99619183D01*
X92835689Y-99613775D01*
X92513755Y-99408681D01*
X92504894Y-99402476D01*
X92202069Y-99170110D01*
X92193782Y-99163156D01*
X91912364Y-98905284D01*
X91904715Y-98897635D01*
X91646843Y-98616217D01*
X91639889Y-98607930D01*
X91407523Y-98305105D01*
X91401318Y-98296244D01*
X91196224Y-97974310D01*
X91190816Y-97964942D01*
X91014569Y-97626376D01*
X91009997Y-97616572D01*
X90863924Y-97263921D01*
X90860224Y-97253755D01*
X90745442Y-96889710D01*
X90742648Y-96879284D01*
X90660025Y-96506597D01*
X90658152Y-96495971D01*
X90608326Y-96117506D01*
X90607386Y-96106771D01*
X90590618Y-95722702D01*
X90590500Y-95717293D01*
X90590500Y-92091902D01*
X123719500Y-92091902D01*
X123719500Y-92328097D01*
X123756446Y-92561368D01*
X123829433Y-92785996D01*
X123936657Y-92996433D01*
X124075483Y-93187510D01*
X124242490Y-93354517D01*
X124433567Y-93493343D01*
X124532991Y-93544002D01*
X124644003Y-93600566D01*
X124644005Y-93600566D01*
X124644008Y-93600568D01*
X124764412Y-93639689D01*
X124868631Y-93673553D01*
X125101903Y-93710500D01*
X125101908Y-93710500D01*
X125338097Y-93710500D01*
X125571368Y-93673553D01*
X125795992Y-93600568D01*
X126006433Y-93493343D01*
X126197510Y-93354517D01*
X126364517Y-93187510D01*
X126503343Y-92996433D01*
X126610568Y-92785992D01*
X126683553Y-92561368D01*
X126720500Y-92328097D01*
X126720500Y-92091902D01*
X130219500Y-92091902D01*
X130219500Y-92328097D01*
X130256446Y-92561368D01*
X130329433Y-92785996D01*
X130436657Y-92996433D01*
X130575483Y-93187510D01*
X130742490Y-93354517D01*
X130933567Y-93493343D01*
X131032991Y-93544002D01*
X131144003Y-93600566D01*
X131144005Y-93600566D01*
X131144008Y-93600568D01*
X131264412Y-93639689D01*
X131368631Y-93673553D01*
X131601903Y-93710500D01*
X131601908Y-93710500D01*
X131838097Y-93710500D01*
X132071368Y-93673553D01*
X132295992Y-93600568D01*
X132506433Y-93493343D01*
X132697510Y-93354517D01*
X132864517Y-93187510D01*
X133003343Y-92996433D01*
X133110568Y-92785992D01*
X133183553Y-92561368D01*
X133220500Y-92328097D01*
X133220500Y-92091902D01*
X133183553Y-91858631D01*
X133119880Y-91662667D01*
X133110568Y-91634008D01*
X133110566Y-91634005D01*
X133110566Y-91634003D01*
X133003342Y-91423566D01*
X132970311Y-91378103D01*
X132936853Y-91332052D01*
X132921779Y-91311304D01*
X137619500Y-91311304D01*
X137619500Y-91488695D01*
X137654103Y-91662658D01*
X137654106Y-91662667D01*
X137721983Y-91826540D01*
X137721990Y-91826553D01*
X137820535Y-91974034D01*
X137820538Y-91974038D01*
X137945961Y-92099461D01*
X137945965Y-92099464D01*
X138093446Y-92198009D01*
X138093459Y-92198016D01*
X138216363Y-92248923D01*
X138257334Y-92265894D01*
X138257336Y-92265894D01*
X138257341Y-92265896D01*
X138431304Y-92300499D01*
X138431307Y-92300500D01*
X138431309Y-92300500D01*
X138608693Y-92300500D01*
X138608694Y-92300499D01*
X138666682Y-92288964D01*
X138782658Y-92265896D01*
X138782661Y-92265894D01*
X138782666Y-92265894D01*
X138946547Y-92198013D01*
X139094035Y-92099464D01*
X139219464Y-91974035D01*
X139318013Y-91826547D01*
X139385894Y-91662666D01*
X139391595Y-91634008D01*
X139420499Y-91488695D01*
X139420500Y-91488693D01*
X139420500Y-91311306D01*
X139420499Y-91311304D01*
X139385896Y-91137341D01*
X139385893Y-91137332D01*
X139318016Y-90973459D01*
X139318009Y-90973446D01*
X139219464Y-90825965D01*
X139219461Y-90825961D01*
X139094038Y-90700538D01*
X139094034Y-90700535D01*
X138946553Y-90601990D01*
X138946540Y-90601983D01*
X138782667Y-90534106D01*
X138782658Y-90534103D01*
X138608694Y-90499500D01*
X138608691Y-90499500D01*
X138431309Y-90499500D01*
X138431306Y-90499500D01*
X138257341Y-90534103D01*
X138257332Y-90534106D01*
X138093459Y-90601983D01*
X138093446Y-90601990D01*
X137945965Y-90700535D01*
X137945961Y-90700538D01*
X137820538Y-90825961D01*
X137820535Y-90825965D01*
X137721990Y-90973446D01*
X137721983Y-90973459D01*
X137654106Y-91137332D01*
X137654103Y-91137341D01*
X137619500Y-91311304D01*
X132921779Y-91311304D01*
X132864517Y-91232490D01*
X132697510Y-91065483D01*
X132506433Y-90926657D01*
X132295996Y-90819433D01*
X132071368Y-90746446D01*
X131838097Y-90709500D01*
X131838092Y-90709500D01*
X131601908Y-90709500D01*
X131601903Y-90709500D01*
X131368631Y-90746446D01*
X131144003Y-90819433D01*
X130933566Y-90926657D01*
X130824550Y-91005862D01*
X130742490Y-91065483D01*
X130742488Y-91065485D01*
X130742487Y-91065485D01*
X130575485Y-91232487D01*
X130575485Y-91232488D01*
X130575483Y-91232490D01*
X130557946Y-91256628D01*
X130436657Y-91423566D01*
X130329433Y-91634003D01*
X130256446Y-91858631D01*
X130219500Y-92091902D01*
X126720500Y-92091902D01*
X126683553Y-91858631D01*
X126619880Y-91662667D01*
X126610568Y-91634008D01*
X126610566Y-91634005D01*
X126610566Y-91634003D01*
X126503342Y-91423566D01*
X126464787Y-91370500D01*
X126364517Y-91232490D01*
X126197510Y-91065483D01*
X126006433Y-90926657D01*
X125795996Y-90819433D01*
X125571368Y-90746446D01*
X125338097Y-90709500D01*
X125338092Y-90709500D01*
X125101908Y-90709500D01*
X125101903Y-90709500D01*
X124868631Y-90746446D01*
X124644003Y-90819433D01*
X124433566Y-90926657D01*
X124324550Y-91005862D01*
X124242490Y-91065483D01*
X124242488Y-91065485D01*
X124242487Y-91065485D01*
X124075485Y-91232487D01*
X124075485Y-91232488D01*
X124075483Y-91232490D01*
X124057946Y-91256628D01*
X123936657Y-91423566D01*
X123829433Y-91634003D01*
X123756446Y-91858631D01*
X123719500Y-92091902D01*
X90590500Y-92091902D01*
X90590500Y-90468543D01*
X94276999Y-90468543D01*
X94315447Y-90661829D01*
X94315450Y-90661839D01*
X94390864Y-90843907D01*
X94390871Y-90843920D01*
X94500360Y-91007781D01*
X94500363Y-91007785D01*
X94639714Y-91147136D01*
X94639718Y-91147139D01*
X94803579Y-91256628D01*
X94803592Y-91256635D01*
X94935589Y-91311309D01*
X94985665Y-91332051D01*
X94985669Y-91332051D01*
X94985670Y-91332052D01*
X95178956Y-91370500D01*
X95178959Y-91370500D01*
X96376043Y-91370500D01*
X96506082Y-91344632D01*
X96569335Y-91332051D01*
X96751414Y-91256632D01*
X96915282Y-91147139D01*
X97054639Y-91007782D01*
X97164132Y-90843914D01*
X97239551Y-90661835D01*
X97278000Y-90468543D01*
X113996999Y-90468543D01*
X114035447Y-90661829D01*
X114035450Y-90661839D01*
X114110864Y-90843907D01*
X114110871Y-90843920D01*
X114220360Y-91007781D01*
X114220363Y-91007785D01*
X114359714Y-91147136D01*
X114359718Y-91147139D01*
X114523579Y-91256628D01*
X114523592Y-91256635D01*
X114655589Y-91311309D01*
X114705665Y-91332051D01*
X114705669Y-91332051D01*
X114705670Y-91332052D01*
X114898956Y-91370500D01*
X114898959Y-91370500D01*
X116096043Y-91370500D01*
X116226082Y-91344632D01*
X116289335Y-91332051D01*
X116471414Y-91256632D01*
X116635282Y-91147139D01*
X116774639Y-91007782D01*
X116884132Y-90843914D01*
X116959551Y-90661835D01*
X116998000Y-90468541D01*
X116998000Y-90271459D01*
X116998000Y-90271456D01*
X116959552Y-90078170D01*
X116959551Y-90078169D01*
X116959551Y-90078165D01*
X116959549Y-90078160D01*
X116884135Y-89896092D01*
X116884128Y-89896079D01*
X116774639Y-89732218D01*
X116774636Y-89732214D01*
X116635285Y-89592863D01*
X116635281Y-89592860D01*
X116471420Y-89483371D01*
X116471407Y-89483364D01*
X116289339Y-89407950D01*
X116289329Y-89407947D01*
X116096043Y-89369500D01*
X116096041Y-89369500D01*
X114898959Y-89369500D01*
X114898957Y-89369500D01*
X114705670Y-89407947D01*
X114705660Y-89407950D01*
X114523592Y-89483364D01*
X114523579Y-89483371D01*
X114359718Y-89592860D01*
X114359714Y-89592863D01*
X114220363Y-89732214D01*
X114220360Y-89732218D01*
X114110871Y-89896079D01*
X114110864Y-89896092D01*
X114035450Y-90078160D01*
X114035447Y-90078170D01*
X113997000Y-90271456D01*
X113997000Y-90271459D01*
X113997000Y-90468541D01*
X113997000Y-90468543D01*
X113996999Y-90468543D01*
X97278000Y-90468543D01*
X97278000Y-90468541D01*
X97278000Y-90271459D01*
X97278000Y-90271456D01*
X97239552Y-90078170D01*
X97239551Y-90078169D01*
X97239551Y-90078165D01*
X97239549Y-90078160D01*
X97164135Y-89896092D01*
X97164128Y-89896079D01*
X97054639Y-89732218D01*
X97054636Y-89732214D01*
X96915285Y-89592863D01*
X96915281Y-89592860D01*
X96751420Y-89483371D01*
X96751407Y-89483364D01*
X96569339Y-89407950D01*
X96569329Y-89407947D01*
X96376043Y-89369500D01*
X96376041Y-89369500D01*
X95178959Y-89369500D01*
X95178957Y-89369500D01*
X94985670Y-89407947D01*
X94985660Y-89407950D01*
X94803592Y-89483364D01*
X94803579Y-89483371D01*
X94639718Y-89592860D01*
X94639714Y-89592863D01*
X94500363Y-89732214D01*
X94500360Y-89732218D01*
X94390871Y-89896079D01*
X94390864Y-89896092D01*
X94315450Y-90078160D01*
X94315447Y-90078170D01*
X94277000Y-90271456D01*
X94277000Y-90271459D01*
X94277000Y-90468541D01*
X94277000Y-90468543D01*
X94276999Y-90468543D01*
X90590500Y-90468543D01*
X90590500Y-87928543D01*
X94276999Y-87928543D01*
X94315447Y-88121829D01*
X94315450Y-88121839D01*
X94390864Y-88303907D01*
X94390871Y-88303920D01*
X94500360Y-88467781D01*
X94500363Y-88467785D01*
X94639714Y-88607136D01*
X94639718Y-88607139D01*
X94803579Y-88716628D01*
X94803592Y-88716635D01*
X94985660Y-88792049D01*
X94985665Y-88792051D01*
X94985669Y-88792051D01*
X94985670Y-88792052D01*
X95178956Y-88830500D01*
X95178959Y-88830500D01*
X96376043Y-88830500D01*
X96506082Y-88804632D01*
X96569335Y-88792051D01*
X96751414Y-88716632D01*
X96915282Y-88607139D01*
X97054639Y-88467782D01*
X97164132Y-88303914D01*
X97171556Y-88285992D01*
X97239549Y-88121839D01*
X97239551Y-88121835D01*
X97278000Y-87928543D01*
X113996999Y-87928543D01*
X114035447Y-88121829D01*
X114035450Y-88121839D01*
X114110864Y-88303907D01*
X114110871Y-88303920D01*
X114220360Y-88467781D01*
X114220363Y-88467785D01*
X114359714Y-88607136D01*
X114359718Y-88607139D01*
X114523579Y-88716628D01*
X114523592Y-88716635D01*
X114705660Y-88792049D01*
X114705665Y-88792051D01*
X114705669Y-88792051D01*
X114705670Y-88792052D01*
X114898956Y-88830500D01*
X114898959Y-88830500D01*
X116096043Y-88830500D01*
X116226082Y-88804632D01*
X116289335Y-88792051D01*
X116471414Y-88716632D01*
X116635282Y-88607139D01*
X116774639Y-88467782D01*
X116884132Y-88303914D01*
X116891556Y-88285992D01*
X116959549Y-88121839D01*
X116959551Y-88121835D01*
X116998000Y-87928541D01*
X116998000Y-87731459D01*
X116998000Y-87731456D01*
X116997999Y-87731454D01*
X116974085Y-87611227D01*
X116970241Y-87591902D01*
X123719500Y-87591902D01*
X123719500Y-87828097D01*
X123756446Y-88061368D01*
X123829433Y-88285996D01*
X123922060Y-88467785D01*
X123936657Y-88496433D01*
X124075483Y-88687510D01*
X124242490Y-88854517D01*
X124433567Y-88993343D01*
X124532991Y-89044002D01*
X124644003Y-89100566D01*
X124644005Y-89100566D01*
X124644008Y-89100568D01*
X124764412Y-89139689D01*
X124868631Y-89173553D01*
X125101903Y-89210500D01*
X125101908Y-89210500D01*
X125338097Y-89210500D01*
X125571368Y-89173553D01*
X125795992Y-89100568D01*
X126006433Y-88993343D01*
X126197510Y-88854517D01*
X126364517Y-88687510D01*
X126503343Y-88496433D01*
X126610568Y-88285992D01*
X126683553Y-88061368D01*
X126699529Y-87960499D01*
X126720500Y-87828097D01*
X126720500Y-87591902D01*
X130219500Y-87591902D01*
X130219500Y-87828097D01*
X130256446Y-88061368D01*
X130329433Y-88285996D01*
X130422060Y-88467785D01*
X130436657Y-88496433D01*
X130575483Y-88687510D01*
X130742490Y-88854517D01*
X130933567Y-88993343D01*
X131032991Y-89044002D01*
X131144003Y-89100566D01*
X131144005Y-89100566D01*
X131144008Y-89100568D01*
X131264412Y-89139689D01*
X131368631Y-89173553D01*
X131601903Y-89210500D01*
X131601908Y-89210500D01*
X131838097Y-89210500D01*
X132071368Y-89173553D01*
X132295992Y-89100568D01*
X132506433Y-88993343D01*
X132697510Y-88854517D01*
X132864517Y-88687510D01*
X133003343Y-88496433D01*
X133110568Y-88285992D01*
X133183553Y-88061368D01*
X133199529Y-87960499D01*
X133220500Y-87828097D01*
X133220500Y-87591902D01*
X133183553Y-87358631D01*
X133149689Y-87254412D01*
X133110568Y-87134008D01*
X133110566Y-87134005D01*
X133110566Y-87134003D01*
X133034899Y-86985499D01*
X133003343Y-86923567D01*
X132864517Y-86732490D01*
X132697510Y-86565483D01*
X132506433Y-86426657D01*
X132295996Y-86319433D01*
X132071368Y-86246446D01*
X131838097Y-86209500D01*
X131838092Y-86209500D01*
X131601908Y-86209500D01*
X131601903Y-86209500D01*
X131368631Y-86246446D01*
X131144003Y-86319433D01*
X130933566Y-86426657D01*
X130851942Y-86485961D01*
X130742490Y-86565483D01*
X130742488Y-86565485D01*
X130742487Y-86565485D01*
X130575485Y-86732487D01*
X130575485Y-86732488D01*
X130575483Y-86732490D01*
X130537724Y-86784461D01*
X130436657Y-86923566D01*
X130329433Y-87134003D01*
X130256446Y-87358631D01*
X130219500Y-87591902D01*
X126720500Y-87591902D01*
X126683553Y-87358631D01*
X126649689Y-87254412D01*
X126610568Y-87134008D01*
X126610566Y-87134005D01*
X126610566Y-87134003D01*
X126534899Y-86985499D01*
X126503343Y-86923567D01*
X126364517Y-86732490D01*
X126197510Y-86565483D01*
X126006433Y-86426657D01*
X125795996Y-86319433D01*
X125571368Y-86246446D01*
X125338097Y-86209500D01*
X125338092Y-86209500D01*
X125101908Y-86209500D01*
X125101903Y-86209500D01*
X124868631Y-86246446D01*
X124644003Y-86319433D01*
X124433566Y-86426657D01*
X124351942Y-86485961D01*
X124242490Y-86565483D01*
X124242488Y-86565485D01*
X124242487Y-86565485D01*
X124075485Y-86732487D01*
X124075485Y-86732488D01*
X124075483Y-86732490D01*
X124037724Y-86784461D01*
X123936657Y-86923566D01*
X123829433Y-87134003D01*
X123756446Y-87358631D01*
X123719500Y-87591902D01*
X116970241Y-87591902D01*
X116959552Y-87538170D01*
X116959551Y-87538169D01*
X116959551Y-87538165D01*
X116938170Y-87486547D01*
X116884135Y-87356092D01*
X116884128Y-87356079D01*
X116774639Y-87192218D01*
X116774636Y-87192214D01*
X116635285Y-87052863D01*
X116635281Y-87052860D01*
X116471420Y-86943371D01*
X116471407Y-86943364D01*
X116289339Y-86867950D01*
X116289329Y-86867947D01*
X116096043Y-86829500D01*
X116096041Y-86829500D01*
X114898959Y-86829500D01*
X114898957Y-86829500D01*
X114705670Y-86867947D01*
X114705660Y-86867950D01*
X114523592Y-86943364D01*
X114523579Y-86943371D01*
X114359718Y-87052860D01*
X114359714Y-87052863D01*
X114220363Y-87192214D01*
X114220360Y-87192218D01*
X114110871Y-87356079D01*
X114110864Y-87356092D01*
X114035450Y-87538160D01*
X114035447Y-87538170D01*
X113997000Y-87731456D01*
X113997000Y-87731459D01*
X113997000Y-87928541D01*
X113997000Y-87928543D01*
X113996999Y-87928543D01*
X97278000Y-87928543D01*
X97278000Y-87928541D01*
X97278000Y-87731459D01*
X97278000Y-87731456D01*
X97239552Y-87538170D01*
X97239551Y-87538169D01*
X97239551Y-87538165D01*
X97218170Y-87486547D01*
X97164135Y-87356092D01*
X97164128Y-87356079D01*
X97054639Y-87192218D01*
X97054636Y-87192214D01*
X96915285Y-87052863D01*
X96915281Y-87052860D01*
X96751420Y-86943371D01*
X96751407Y-86943364D01*
X96569339Y-86867950D01*
X96569329Y-86867947D01*
X96376043Y-86829500D01*
X96376041Y-86829500D01*
X95178959Y-86829500D01*
X95178957Y-86829500D01*
X94985670Y-86867947D01*
X94985660Y-86867950D01*
X94803592Y-86943364D01*
X94803579Y-86943371D01*
X94639718Y-87052860D01*
X94639714Y-87052863D01*
X94500363Y-87192214D01*
X94500360Y-87192218D01*
X94390871Y-87356079D01*
X94390864Y-87356092D01*
X94315450Y-87538160D01*
X94315447Y-87538170D01*
X94277000Y-87731456D01*
X94277000Y-87731459D01*
X94277000Y-87928541D01*
X94277000Y-87928543D01*
X94276999Y-87928543D01*
X90590500Y-87928543D01*
X90590500Y-85388543D01*
X94276999Y-85388543D01*
X94315447Y-85581829D01*
X94315450Y-85581839D01*
X94390864Y-85763907D01*
X94390871Y-85763920D01*
X94500360Y-85927781D01*
X94500363Y-85927785D01*
X94639714Y-86067136D01*
X94639718Y-86067139D01*
X94803579Y-86176628D01*
X94803592Y-86176635D01*
X94985660Y-86252049D01*
X94985665Y-86252051D01*
X94985669Y-86252051D01*
X94985670Y-86252052D01*
X95178956Y-86290500D01*
X95178959Y-86290500D01*
X96376043Y-86290500D01*
X96552252Y-86255449D01*
X96569335Y-86252051D01*
X96717086Y-86190851D01*
X96751407Y-86176635D01*
X96751407Y-86176634D01*
X96751414Y-86176632D01*
X96915282Y-86067139D01*
X97054639Y-85927782D01*
X97164132Y-85763914D01*
X97239551Y-85581835D01*
X97274417Y-85406553D01*
X97278000Y-85388543D01*
X113996999Y-85388543D01*
X114035447Y-85581829D01*
X114035450Y-85581839D01*
X114110864Y-85763907D01*
X114110871Y-85763920D01*
X114220360Y-85927781D01*
X114220363Y-85927785D01*
X114359714Y-86067136D01*
X114359718Y-86067139D01*
X114523579Y-86176628D01*
X114523592Y-86176635D01*
X114705660Y-86252049D01*
X114705665Y-86252051D01*
X114705669Y-86252051D01*
X114705670Y-86252052D01*
X114898956Y-86290500D01*
X114898959Y-86290500D01*
X116096043Y-86290500D01*
X116272252Y-86255449D01*
X116289335Y-86252051D01*
X116437086Y-86190851D01*
X116471407Y-86176635D01*
X116471407Y-86176634D01*
X116471414Y-86176632D01*
X116635282Y-86067139D01*
X116706117Y-85996304D01*
X137084500Y-85996304D01*
X137084500Y-86173695D01*
X137119103Y-86347658D01*
X137119106Y-86347667D01*
X137186983Y-86511540D01*
X137186990Y-86511553D01*
X137285535Y-86659034D01*
X137285538Y-86659038D01*
X137410961Y-86784461D01*
X137410965Y-86784464D01*
X137558446Y-86883009D01*
X137558459Y-86883016D01*
X137656360Y-86923567D01*
X137722334Y-86950894D01*
X137722336Y-86950894D01*
X137722341Y-86950896D01*
X137896304Y-86985499D01*
X137896307Y-86985500D01*
X137896309Y-86985500D01*
X138073693Y-86985500D01*
X138231308Y-86954148D01*
X138300900Y-86960375D01*
X138356077Y-87003238D01*
X138379322Y-87069128D01*
X138379500Y-87075765D01*
X138379500Y-87148695D01*
X138414103Y-87322658D01*
X138414106Y-87322667D01*
X138481983Y-87486540D01*
X138481990Y-87486553D01*
X138580535Y-87634034D01*
X138580538Y-87634038D01*
X138705961Y-87759461D01*
X138705965Y-87759464D01*
X138853446Y-87858009D01*
X138853459Y-87858016D01*
X138976363Y-87908923D01*
X139017334Y-87925894D01*
X139017336Y-87925894D01*
X139017341Y-87925896D01*
X139191304Y-87960499D01*
X139191307Y-87960500D01*
X139191309Y-87960500D01*
X139368693Y-87960500D01*
X139368694Y-87960499D01*
X139426682Y-87948964D01*
X139542658Y-87925896D01*
X139542661Y-87925894D01*
X139542666Y-87925894D01*
X139706547Y-87858013D01*
X139854035Y-87759464D01*
X139979464Y-87634035D01*
X140078013Y-87486547D01*
X140145894Y-87322666D01*
X140180500Y-87148691D01*
X140180500Y-86971309D01*
X140180500Y-86971306D01*
X140180499Y-86971304D01*
X140145896Y-86797341D01*
X140145893Y-86797332D01*
X140078016Y-86633459D01*
X140078009Y-86633446D01*
X139979464Y-86485965D01*
X139979461Y-86485961D01*
X139854038Y-86360538D01*
X139854034Y-86360535D01*
X139706553Y-86261990D01*
X139706540Y-86261983D01*
X139542667Y-86194106D01*
X139542658Y-86194103D01*
X139368694Y-86159500D01*
X139368691Y-86159500D01*
X139191309Y-86159500D01*
X139191304Y-86159500D01*
X139033691Y-86190851D01*
X138964099Y-86184624D01*
X138908922Y-86141760D01*
X138885678Y-86075871D01*
X138885500Y-86069234D01*
X138885500Y-85996306D01*
X138885499Y-85996304D01*
X138850896Y-85822341D01*
X138850893Y-85822332D01*
X138783016Y-85658459D01*
X138783009Y-85658446D01*
X138684464Y-85510965D01*
X138684461Y-85510961D01*
X138559038Y-85385538D01*
X138559034Y-85385535D01*
X138411553Y-85286990D01*
X138411540Y-85286983D01*
X138247667Y-85219106D01*
X138247658Y-85219103D01*
X138073694Y-85184500D01*
X138073691Y-85184500D01*
X137896309Y-85184500D01*
X137896306Y-85184500D01*
X137722341Y-85219103D01*
X137722332Y-85219106D01*
X137558459Y-85286983D01*
X137558446Y-85286990D01*
X137410965Y-85385535D01*
X137410961Y-85385538D01*
X137285538Y-85510961D01*
X137285535Y-85510965D01*
X137186990Y-85658446D01*
X137186983Y-85658459D01*
X137119106Y-85822332D01*
X137119103Y-85822341D01*
X137084500Y-85996304D01*
X116706117Y-85996304D01*
X116774639Y-85927782D01*
X116884132Y-85763914D01*
X116959551Y-85581835D01*
X116994417Y-85406553D01*
X116998000Y-85388543D01*
X116998000Y-85191456D01*
X116959552Y-84998170D01*
X116959551Y-84998169D01*
X116959551Y-84998165D01*
X116915288Y-84891304D01*
X147769500Y-84891304D01*
X147769500Y-85068695D01*
X147804103Y-85242658D01*
X147804106Y-85242667D01*
X147871983Y-85406540D01*
X147871990Y-85406553D01*
X147970535Y-85554034D01*
X147970538Y-85554038D01*
X148095961Y-85679461D01*
X148095965Y-85679464D01*
X148243446Y-85778009D01*
X148243459Y-85778016D01*
X148350471Y-85822341D01*
X148407334Y-85845894D01*
X148407336Y-85845894D01*
X148407341Y-85845896D01*
X148581304Y-85880499D01*
X148581307Y-85880500D01*
X148581309Y-85880500D01*
X148758693Y-85880500D01*
X148758694Y-85880499D01*
X148816682Y-85868964D01*
X148932658Y-85845896D01*
X148932661Y-85845894D01*
X148932666Y-85845894D01*
X149096547Y-85778013D01*
X149244035Y-85679464D01*
X149369464Y-85554035D01*
X149468013Y-85406547D01*
X149535894Y-85242666D01*
X149540581Y-85219106D01*
X149570499Y-85068695D01*
X149570500Y-85068693D01*
X149570500Y-84891306D01*
X149570499Y-84891304D01*
X149535896Y-84717341D01*
X149535893Y-84717332D01*
X149468016Y-84553459D01*
X149468009Y-84553446D01*
X149369464Y-84405965D01*
X149369461Y-84405961D01*
X149244038Y-84280538D01*
X149244034Y-84280535D01*
X149096553Y-84181990D01*
X149096540Y-84181983D01*
X148932667Y-84114106D01*
X148932658Y-84114103D01*
X148758694Y-84079500D01*
X148758691Y-84079500D01*
X148581309Y-84079500D01*
X148581306Y-84079500D01*
X148407341Y-84114103D01*
X148407332Y-84114106D01*
X148243459Y-84181983D01*
X148243446Y-84181990D01*
X148095965Y-84280535D01*
X148095961Y-84280538D01*
X147970538Y-84405961D01*
X147970535Y-84405965D01*
X147871990Y-84553446D01*
X147871983Y-84553459D01*
X147804106Y-84717332D01*
X147804103Y-84717341D01*
X147769500Y-84891304D01*
X116915288Y-84891304D01*
X116909452Y-84877215D01*
X116884135Y-84816092D01*
X116884128Y-84816079D01*
X116774639Y-84652218D01*
X116774636Y-84652214D01*
X116635285Y-84512863D01*
X116635281Y-84512860D01*
X116471420Y-84403371D01*
X116471407Y-84403364D01*
X116289339Y-84327950D01*
X116289329Y-84327947D01*
X116096043Y-84289500D01*
X116096041Y-84289500D01*
X114898959Y-84289500D01*
X114898957Y-84289500D01*
X114705670Y-84327947D01*
X114705660Y-84327950D01*
X114523592Y-84403364D01*
X114523579Y-84403371D01*
X114359718Y-84512860D01*
X114359714Y-84512863D01*
X114220363Y-84652214D01*
X114220360Y-84652218D01*
X114110871Y-84816079D01*
X114110864Y-84816092D01*
X114035450Y-84998160D01*
X114035447Y-84998170D01*
X113997000Y-85191456D01*
X113997000Y-85191459D01*
X113997000Y-85388541D01*
X113997000Y-85388543D01*
X113996999Y-85388543D01*
X97278000Y-85388543D01*
X97278000Y-85191456D01*
X97239552Y-84998170D01*
X97239551Y-84998169D01*
X97239551Y-84998165D01*
X97239549Y-84998160D01*
X97164135Y-84816092D01*
X97164128Y-84816079D01*
X97054639Y-84652218D01*
X97054636Y-84652214D01*
X96915285Y-84512863D01*
X96915281Y-84512860D01*
X96751420Y-84403371D01*
X96751407Y-84403364D01*
X96569339Y-84327950D01*
X96569329Y-84327947D01*
X96376043Y-84289500D01*
X96376041Y-84289500D01*
X95178959Y-84289500D01*
X95178957Y-84289500D01*
X94985670Y-84327947D01*
X94985660Y-84327950D01*
X94803592Y-84403364D01*
X94803579Y-84403371D01*
X94639718Y-84512860D01*
X94639714Y-84512863D01*
X94500363Y-84652214D01*
X94500360Y-84652218D01*
X94390871Y-84816079D01*
X94390864Y-84816092D01*
X94315450Y-84998160D01*
X94315447Y-84998170D01*
X94277000Y-85191456D01*
X94277000Y-85191459D01*
X94277000Y-85388541D01*
X94277000Y-85388543D01*
X94276999Y-85388543D01*
X90590500Y-85388543D01*
X90590500Y-82848543D01*
X94276999Y-82848543D01*
X94315447Y-83041829D01*
X94315450Y-83041839D01*
X94390864Y-83223907D01*
X94390871Y-83223920D01*
X94500360Y-83387781D01*
X94500363Y-83387785D01*
X94639714Y-83527136D01*
X94639718Y-83527139D01*
X94803579Y-83636628D01*
X94803592Y-83636635D01*
X94985660Y-83712049D01*
X94985665Y-83712051D01*
X94985669Y-83712051D01*
X94985670Y-83712052D01*
X95178956Y-83750500D01*
X95178959Y-83750500D01*
X96376043Y-83750500D01*
X96506082Y-83724632D01*
X96569335Y-83712051D01*
X96751414Y-83636632D01*
X96915282Y-83527139D01*
X97054639Y-83387782D01*
X97164132Y-83223914D01*
X97239551Y-83041835D01*
X97263189Y-82922999D01*
X97278000Y-82848543D01*
X113996999Y-82848543D01*
X114035447Y-83041829D01*
X114035450Y-83041839D01*
X114110864Y-83223907D01*
X114110871Y-83223920D01*
X114220360Y-83387781D01*
X114220363Y-83387785D01*
X114359714Y-83527136D01*
X114359718Y-83527139D01*
X114523579Y-83636628D01*
X114523592Y-83636635D01*
X114705660Y-83712049D01*
X114705665Y-83712051D01*
X114705669Y-83712051D01*
X114705670Y-83712052D01*
X114898956Y-83750500D01*
X114898959Y-83750500D01*
X116096043Y-83750500D01*
X116226082Y-83724632D01*
X116289335Y-83712051D01*
X116471414Y-83636632D01*
X116635282Y-83527139D01*
X116774639Y-83387782D01*
X116884132Y-83223914D01*
X116959551Y-83041835D01*
X116983189Y-82922999D01*
X116998000Y-82848543D01*
X116998000Y-82651456D01*
X116959552Y-82458170D01*
X116959551Y-82458169D01*
X116959551Y-82458165D01*
X116955771Y-82449040D01*
X116884135Y-82276092D01*
X116884128Y-82276079D01*
X116774639Y-82112218D01*
X116774636Y-82112214D01*
X116635285Y-81972863D01*
X116635281Y-81972860D01*
X116576830Y-81933804D01*
X141392000Y-81933804D01*
X141392000Y-82111195D01*
X141426603Y-82285158D01*
X141426606Y-82285167D01*
X141494483Y-82449040D01*
X141494490Y-82449053D01*
X141593035Y-82596534D01*
X141593038Y-82596538D01*
X141718461Y-82721961D01*
X141718465Y-82721964D01*
X141865946Y-82820509D01*
X141865959Y-82820516D01*
X141933619Y-82848541D01*
X142029834Y-82888394D01*
X142029836Y-82888394D01*
X142029841Y-82888396D01*
X142203804Y-82922999D01*
X142203807Y-82923000D01*
X142203809Y-82923000D01*
X142381193Y-82923000D01*
X142381194Y-82922999D01*
X142439182Y-82911464D01*
X142555158Y-82888396D01*
X142555161Y-82888394D01*
X142555166Y-82888394D01*
X142719047Y-82820513D01*
X142866535Y-82721964D01*
X142991964Y-82596535D01*
X143090513Y-82449047D01*
X143158394Y-82285166D01*
X143160201Y-82276086D01*
X143192796Y-82112218D01*
X143193000Y-82111191D01*
X143193000Y-81933809D01*
X143193000Y-81933806D01*
X143192999Y-81933804D01*
X143158396Y-81759841D01*
X143158393Y-81759832D01*
X143154113Y-81749500D01*
X143141423Y-81718863D01*
X143090516Y-81595959D01*
X143090509Y-81595946D01*
X142991964Y-81448465D01*
X142991961Y-81448461D01*
X142866538Y-81323038D01*
X142866534Y-81323035D01*
X142719053Y-81224490D01*
X142719040Y-81224483D01*
X142555167Y-81156606D01*
X142555158Y-81156603D01*
X142381194Y-81122000D01*
X142381191Y-81122000D01*
X142203809Y-81122000D01*
X142203806Y-81122000D01*
X142029841Y-81156603D01*
X142029832Y-81156606D01*
X141865959Y-81224483D01*
X141865946Y-81224490D01*
X141718465Y-81323035D01*
X141718461Y-81323038D01*
X141593038Y-81448461D01*
X141593035Y-81448465D01*
X141494490Y-81595946D01*
X141494483Y-81595959D01*
X141426606Y-81759832D01*
X141426603Y-81759841D01*
X141392000Y-81933804D01*
X116576830Y-81933804D01*
X116471420Y-81863371D01*
X116471407Y-81863364D01*
X116289339Y-81787950D01*
X116289329Y-81787947D01*
X116096043Y-81749500D01*
X116096041Y-81749500D01*
X114898959Y-81749500D01*
X114898957Y-81749500D01*
X114705670Y-81787947D01*
X114705660Y-81787950D01*
X114523592Y-81863364D01*
X114523579Y-81863371D01*
X114359718Y-81972860D01*
X114359714Y-81972863D01*
X114220363Y-82112214D01*
X114220360Y-82112218D01*
X114110871Y-82276079D01*
X114110864Y-82276092D01*
X114035450Y-82458160D01*
X114035447Y-82458170D01*
X113997000Y-82651456D01*
X113997000Y-82651459D01*
X113997000Y-82848541D01*
X113997000Y-82848543D01*
X113996999Y-82848543D01*
X97278000Y-82848543D01*
X97278000Y-82651456D01*
X97239552Y-82458170D01*
X97239551Y-82458169D01*
X97239551Y-82458165D01*
X97235771Y-82449040D01*
X97164135Y-82276092D01*
X97164128Y-82276079D01*
X97054639Y-82112218D01*
X97054636Y-82112214D01*
X96915285Y-81972863D01*
X96915281Y-81972860D01*
X96751420Y-81863371D01*
X96751407Y-81863364D01*
X96569339Y-81787950D01*
X96569329Y-81787947D01*
X96376043Y-81749500D01*
X96376041Y-81749500D01*
X95178959Y-81749500D01*
X95178957Y-81749500D01*
X94985670Y-81787947D01*
X94985660Y-81787950D01*
X94803592Y-81863364D01*
X94803579Y-81863371D01*
X94639718Y-81972860D01*
X94639714Y-81972863D01*
X94500363Y-82112214D01*
X94500360Y-82112218D01*
X94390871Y-82276079D01*
X94390864Y-82276092D01*
X94315450Y-82458160D01*
X94315447Y-82458170D01*
X94277000Y-82651456D01*
X94277000Y-82651459D01*
X94277000Y-82848541D01*
X94277000Y-82848543D01*
X94276999Y-82848543D01*
X90590500Y-82848543D01*
X90590500Y-80308543D01*
X94276999Y-80308543D01*
X94315447Y-80501829D01*
X94315450Y-80501839D01*
X94390864Y-80683907D01*
X94390871Y-80683920D01*
X94500360Y-80847781D01*
X94500363Y-80847785D01*
X94639714Y-80987136D01*
X94639718Y-80987139D01*
X94803579Y-81096628D01*
X94803592Y-81096635D01*
X94948370Y-81156603D01*
X94985665Y-81172051D01*
X94985669Y-81172051D01*
X94985670Y-81172052D01*
X95178956Y-81210500D01*
X95178959Y-81210500D01*
X96376043Y-81210500D01*
X96506082Y-81184632D01*
X96569335Y-81172051D01*
X96751414Y-81096632D01*
X96915282Y-80987139D01*
X97054639Y-80847782D01*
X97164132Y-80683914D01*
X97239551Y-80501835D01*
X97278000Y-80308543D01*
X113996999Y-80308543D01*
X114035447Y-80501829D01*
X114035450Y-80501839D01*
X114110864Y-80683907D01*
X114110871Y-80683920D01*
X114220360Y-80847781D01*
X114220363Y-80847785D01*
X114359714Y-80987136D01*
X114359718Y-80987139D01*
X114523579Y-81096628D01*
X114523592Y-81096635D01*
X114668370Y-81156603D01*
X114705665Y-81172051D01*
X114705669Y-81172051D01*
X114705670Y-81172052D01*
X114898956Y-81210500D01*
X114898959Y-81210500D01*
X116096043Y-81210500D01*
X116226082Y-81184632D01*
X116289335Y-81172051D01*
X116471414Y-81096632D01*
X116635282Y-80987139D01*
X116774639Y-80847782D01*
X116884132Y-80683914D01*
X116959551Y-80501835D01*
X116998000Y-80308541D01*
X116998000Y-80111459D01*
X116998000Y-80111456D01*
X116959552Y-79918170D01*
X116959551Y-79918169D01*
X116959551Y-79918165D01*
X116959549Y-79918160D01*
X116903428Y-79782669D01*
X116886293Y-79741304D01*
X130919500Y-79741304D01*
X130919500Y-79918695D01*
X130954103Y-80092658D01*
X130954106Y-80092667D01*
X131021983Y-80256540D01*
X131021990Y-80256553D01*
X131120535Y-80404034D01*
X131120538Y-80404038D01*
X131245961Y-80529461D01*
X131245965Y-80529464D01*
X131393446Y-80628009D01*
X131393459Y-80628016D01*
X131516363Y-80678923D01*
X131557334Y-80695894D01*
X131557336Y-80695894D01*
X131557341Y-80695896D01*
X131731304Y-80730499D01*
X131731307Y-80730500D01*
X131731309Y-80730500D01*
X131908693Y-80730500D01*
X131908694Y-80730499D01*
X131966682Y-80718964D01*
X132082658Y-80695896D01*
X132082661Y-80695894D01*
X132082666Y-80695894D01*
X132246547Y-80628013D01*
X132394035Y-80529464D01*
X132519464Y-80404035D01*
X132618013Y-80256547D01*
X132685894Y-80092666D01*
X132720500Y-79918691D01*
X132720500Y-79741309D01*
X132720500Y-79741306D01*
X132720499Y-79741304D01*
X132685896Y-79567341D01*
X132685893Y-79567332D01*
X132618016Y-79403459D01*
X132618009Y-79403446D01*
X132519464Y-79255965D01*
X132519461Y-79255961D01*
X132394038Y-79130538D01*
X132394034Y-79130535D01*
X132246553Y-79031990D01*
X132246540Y-79031983D01*
X132082667Y-78964106D01*
X132082658Y-78964103D01*
X131908694Y-78929500D01*
X131908691Y-78929500D01*
X131731309Y-78929500D01*
X131731306Y-78929500D01*
X131557341Y-78964103D01*
X131557332Y-78964106D01*
X131393459Y-79031983D01*
X131393446Y-79031990D01*
X131245965Y-79130535D01*
X131245961Y-79130538D01*
X131120538Y-79255961D01*
X131120535Y-79255965D01*
X131021990Y-79403446D01*
X131021983Y-79403459D01*
X130954106Y-79567332D01*
X130954103Y-79567341D01*
X130919500Y-79741304D01*
X116886293Y-79741304D01*
X116884133Y-79736089D01*
X116884132Y-79736086D01*
X116884130Y-79736083D01*
X116884128Y-79736079D01*
X116774639Y-79572218D01*
X116774636Y-79572214D01*
X116635285Y-79432863D01*
X116635281Y-79432860D01*
X116471420Y-79323371D01*
X116471407Y-79323364D01*
X116289339Y-79247950D01*
X116289329Y-79247947D01*
X116096043Y-79209500D01*
X116096041Y-79209500D01*
X114898959Y-79209500D01*
X114898957Y-79209500D01*
X114705670Y-79247947D01*
X114705660Y-79247950D01*
X114523592Y-79323364D01*
X114523579Y-79323371D01*
X114359718Y-79432860D01*
X114359714Y-79432863D01*
X114220363Y-79572214D01*
X114220360Y-79572218D01*
X114110871Y-79736079D01*
X114110864Y-79736092D01*
X114035450Y-79918160D01*
X114035447Y-79918170D01*
X113997000Y-80111456D01*
X113997000Y-80111459D01*
X113997000Y-80308541D01*
X113997000Y-80308543D01*
X113996999Y-80308543D01*
X97278000Y-80308543D01*
X97278000Y-80308541D01*
X97278000Y-80111459D01*
X97278000Y-80111456D01*
X97239552Y-79918170D01*
X97239551Y-79918169D01*
X97239551Y-79918165D01*
X97239549Y-79918160D01*
X97164135Y-79736092D01*
X97164128Y-79736079D01*
X97054639Y-79572218D01*
X97054636Y-79572214D01*
X96915285Y-79432863D01*
X96915281Y-79432860D01*
X96751420Y-79323371D01*
X96751407Y-79323364D01*
X96569339Y-79247950D01*
X96569329Y-79247947D01*
X96376043Y-79209500D01*
X96376041Y-79209500D01*
X95178959Y-79209500D01*
X95178957Y-79209500D01*
X94985670Y-79247947D01*
X94985660Y-79247950D01*
X94803592Y-79323364D01*
X94803579Y-79323371D01*
X94639718Y-79432860D01*
X94639714Y-79432863D01*
X94500363Y-79572214D01*
X94500360Y-79572218D01*
X94390871Y-79736079D01*
X94390864Y-79736092D01*
X94315450Y-79918160D01*
X94315447Y-79918170D01*
X94277000Y-80111456D01*
X94277000Y-80111459D01*
X94277000Y-80308541D01*
X94277000Y-80308543D01*
X94276999Y-80308543D01*
X90590500Y-80308543D01*
X90590500Y-77768543D01*
X94276999Y-77768543D01*
X94315447Y-77961829D01*
X94315450Y-77961839D01*
X94390864Y-78143907D01*
X94390871Y-78143920D01*
X94500360Y-78307781D01*
X94500363Y-78307785D01*
X94639714Y-78447136D01*
X94639718Y-78447139D01*
X94803579Y-78556628D01*
X94803592Y-78556635D01*
X94985660Y-78632049D01*
X94985665Y-78632051D01*
X94985669Y-78632051D01*
X94985670Y-78632052D01*
X95178956Y-78670500D01*
X95178959Y-78670500D01*
X96376043Y-78670500D01*
X96506082Y-78644632D01*
X96569335Y-78632051D01*
X96751414Y-78556632D01*
X96915282Y-78447139D01*
X97054639Y-78307782D01*
X97164132Y-78143914D01*
X97239551Y-77961835D01*
X97278000Y-77768543D01*
X113996999Y-77768543D01*
X114035447Y-77961829D01*
X114035450Y-77961839D01*
X114110864Y-78143907D01*
X114110871Y-78143920D01*
X114220360Y-78307781D01*
X114220363Y-78307785D01*
X114359714Y-78447136D01*
X114359718Y-78447139D01*
X114523579Y-78556628D01*
X114523592Y-78556635D01*
X114705660Y-78632049D01*
X114705665Y-78632051D01*
X114705669Y-78632051D01*
X114705670Y-78632052D01*
X114898956Y-78670500D01*
X114898959Y-78670500D01*
X116096043Y-78670500D01*
X116226082Y-78644632D01*
X116289335Y-78632051D01*
X116471414Y-78556632D01*
X116635282Y-78447139D01*
X116774639Y-78307782D01*
X116884132Y-78143914D01*
X116959551Y-77961835D01*
X116998000Y-77768541D01*
X116998000Y-77581304D01*
X123169500Y-77581304D01*
X123169500Y-77758695D01*
X123204103Y-77932658D01*
X123204106Y-77932667D01*
X123271983Y-78096540D01*
X123271990Y-78096553D01*
X123370535Y-78244034D01*
X123370538Y-78244038D01*
X123495961Y-78369461D01*
X123495965Y-78369464D01*
X123643446Y-78468009D01*
X123643459Y-78468016D01*
X123766363Y-78518923D01*
X123807334Y-78535894D01*
X123807336Y-78535894D01*
X123807341Y-78535896D01*
X123981304Y-78570499D01*
X123981307Y-78570500D01*
X123981309Y-78570500D01*
X124158693Y-78570500D01*
X124158694Y-78570499D01*
X124228430Y-78556628D01*
X124332658Y-78535896D01*
X124332661Y-78535894D01*
X124332666Y-78535894D01*
X124496547Y-78468013D01*
X124644035Y-78369464D01*
X124769464Y-78244035D01*
X124868013Y-78096547D01*
X124935894Y-77932666D01*
X124970500Y-77758691D01*
X124970500Y-77581309D01*
X124970500Y-77581306D01*
X124970499Y-77581304D01*
X124935896Y-77407341D01*
X124935893Y-77407332D01*
X124868016Y-77243459D01*
X124868009Y-77243446D01*
X124769464Y-77095965D01*
X124769461Y-77095961D01*
X124644038Y-76970538D01*
X124644034Y-76970535D01*
X124496553Y-76871990D01*
X124496540Y-76871983D01*
X124332667Y-76804106D01*
X124332658Y-76804103D01*
X124158694Y-76769500D01*
X124158691Y-76769500D01*
X123981309Y-76769500D01*
X123981306Y-76769500D01*
X123807341Y-76804103D01*
X123807332Y-76804106D01*
X123643459Y-76871983D01*
X123643446Y-76871990D01*
X123495965Y-76970535D01*
X123495961Y-76970538D01*
X123370538Y-77095961D01*
X123370535Y-77095965D01*
X123271990Y-77243446D01*
X123271983Y-77243459D01*
X123204106Y-77407332D01*
X123204103Y-77407341D01*
X123169500Y-77581304D01*
X116998000Y-77581304D01*
X116998000Y-77571459D01*
X116998000Y-77571456D01*
X116959552Y-77378170D01*
X116959551Y-77378169D01*
X116959551Y-77378165D01*
X116948092Y-77350500D01*
X116884135Y-77196092D01*
X116884128Y-77196079D01*
X116774639Y-77032218D01*
X116774636Y-77032214D01*
X116635285Y-76892863D01*
X116635281Y-76892860D01*
X116471420Y-76783371D01*
X116471407Y-76783364D01*
X116289339Y-76707950D01*
X116289329Y-76707947D01*
X116096043Y-76669500D01*
X116096041Y-76669500D01*
X114898959Y-76669500D01*
X114898957Y-76669500D01*
X114705670Y-76707947D01*
X114705660Y-76707950D01*
X114523592Y-76783364D01*
X114523579Y-76783371D01*
X114359718Y-76892860D01*
X114359714Y-76892863D01*
X114220363Y-77032214D01*
X114220360Y-77032218D01*
X114110871Y-77196079D01*
X114110864Y-77196092D01*
X114035450Y-77378160D01*
X114035447Y-77378170D01*
X113997000Y-77571456D01*
X113997000Y-77571459D01*
X113997000Y-77768541D01*
X113997000Y-77768543D01*
X113996999Y-77768543D01*
X97278000Y-77768543D01*
X97278000Y-77768541D01*
X97278000Y-77571459D01*
X97278000Y-77571456D01*
X97239552Y-77378170D01*
X97239551Y-77378169D01*
X97239551Y-77378165D01*
X97228092Y-77350500D01*
X97164135Y-77196092D01*
X97164128Y-77196079D01*
X97054639Y-77032218D01*
X97054636Y-77032214D01*
X96915285Y-76892863D01*
X96915281Y-76892860D01*
X96751420Y-76783371D01*
X96751407Y-76783364D01*
X96569339Y-76707950D01*
X96569329Y-76707947D01*
X96376043Y-76669500D01*
X96376041Y-76669500D01*
X95178959Y-76669500D01*
X95178957Y-76669500D01*
X94985670Y-76707947D01*
X94985660Y-76707950D01*
X94803592Y-76783364D01*
X94803579Y-76783371D01*
X94639718Y-76892860D01*
X94639714Y-76892863D01*
X94500363Y-77032214D01*
X94500360Y-77032218D01*
X94390871Y-77196079D01*
X94390864Y-77196092D01*
X94315450Y-77378160D01*
X94315447Y-77378170D01*
X94277000Y-77571456D01*
X94277000Y-77571459D01*
X94277000Y-77768541D01*
X94277000Y-77768543D01*
X94276999Y-77768543D01*
X90590500Y-77768543D01*
X90590500Y-76361304D01*
X120609500Y-76361304D01*
X120609500Y-76538695D01*
X120644103Y-76712658D01*
X120644106Y-76712667D01*
X120711983Y-76876540D01*
X120711990Y-76876553D01*
X120810535Y-77024034D01*
X120810538Y-77024038D01*
X120935961Y-77149461D01*
X120935965Y-77149464D01*
X121083446Y-77248009D01*
X121083459Y-77248016D01*
X121206363Y-77298923D01*
X121247334Y-77315894D01*
X121247336Y-77315894D01*
X121247341Y-77315896D01*
X121421304Y-77350499D01*
X121421307Y-77350500D01*
X121421309Y-77350500D01*
X121598693Y-77350500D01*
X121598694Y-77350499D01*
X121656682Y-77338964D01*
X121772658Y-77315896D01*
X121772661Y-77315894D01*
X121772666Y-77315894D01*
X121936547Y-77248013D01*
X122084035Y-77149464D01*
X122209464Y-77024035D01*
X122308013Y-76876547D01*
X122309904Y-76871983D01*
X122346607Y-76783371D01*
X122375894Y-76712666D01*
X122375970Y-76712287D01*
X122410499Y-76538695D01*
X122410500Y-76538693D01*
X122410500Y-76361306D01*
X122410499Y-76361304D01*
X122375896Y-76187341D01*
X122375893Y-76187332D01*
X122368948Y-76170566D01*
X122339396Y-76099219D01*
X122308016Y-76023459D01*
X122308009Y-76023446D01*
X122209464Y-75875965D01*
X122209461Y-75875961D01*
X122084038Y-75750538D01*
X122084034Y-75750535D01*
X121936553Y-75651990D01*
X121936540Y-75651983D01*
X121772667Y-75584106D01*
X121772658Y-75584103D01*
X121598694Y-75549500D01*
X121598691Y-75549500D01*
X121421309Y-75549500D01*
X121421306Y-75549500D01*
X121247341Y-75584103D01*
X121247332Y-75584106D01*
X121083459Y-75651983D01*
X121083446Y-75651990D01*
X120935965Y-75750535D01*
X120935961Y-75750538D01*
X120810538Y-75875961D01*
X120810535Y-75875965D01*
X120711990Y-76023446D01*
X120711983Y-76023459D01*
X120644106Y-76187332D01*
X120644103Y-76187341D01*
X120609500Y-76361304D01*
X90590500Y-76361304D01*
X90590500Y-75228543D01*
X94276999Y-75228543D01*
X94315447Y-75421829D01*
X94315450Y-75421839D01*
X94390864Y-75603907D01*
X94390871Y-75603920D01*
X94500360Y-75767781D01*
X94500363Y-75767785D01*
X94639714Y-75907136D01*
X94639718Y-75907139D01*
X94803579Y-76016628D01*
X94803592Y-76016635D01*
X94916357Y-76063343D01*
X94985665Y-76092051D01*
X94985669Y-76092051D01*
X94985670Y-76092052D01*
X95178956Y-76130500D01*
X95178959Y-76130500D01*
X96376043Y-76130500D01*
X96533299Y-76099219D01*
X96569335Y-76092051D01*
X96734947Y-76023453D01*
X96751407Y-76016635D01*
X96751407Y-76016634D01*
X96751414Y-76016632D01*
X96915282Y-75907139D01*
X97054639Y-75767782D01*
X97164132Y-75603914D01*
X97239551Y-75421835D01*
X97278000Y-75228543D01*
X113996999Y-75228543D01*
X114035447Y-75421829D01*
X114035450Y-75421839D01*
X114110864Y-75603907D01*
X114110871Y-75603920D01*
X114220360Y-75767781D01*
X114220363Y-75767785D01*
X114359714Y-75907136D01*
X114359718Y-75907139D01*
X114523579Y-76016628D01*
X114523592Y-76016635D01*
X114636357Y-76063343D01*
X114705665Y-76092051D01*
X114705669Y-76092051D01*
X114705670Y-76092052D01*
X114898956Y-76130500D01*
X114898959Y-76130500D01*
X116096043Y-76130500D01*
X116253299Y-76099219D01*
X116289335Y-76092051D01*
X116454947Y-76023453D01*
X116471407Y-76016635D01*
X116471407Y-76016634D01*
X116471414Y-76016632D01*
X116635282Y-75907139D01*
X116774639Y-75767782D01*
X116884132Y-75603914D01*
X116959551Y-75421835D01*
X116998000Y-75228541D01*
X116998000Y-75031459D01*
X116998000Y-75031456D01*
X116959552Y-74838170D01*
X116959551Y-74838169D01*
X116959551Y-74838165D01*
X116886544Y-74661908D01*
X116886542Y-74661902D01*
X135319500Y-74661902D01*
X135319500Y-74898097D01*
X135356446Y-75131368D01*
X135429433Y-75355996D01*
X135501609Y-75497648D01*
X135536657Y-75566433D01*
X135675483Y-75757510D01*
X135842490Y-75924517D01*
X136033567Y-76063343D01*
X136132991Y-76114002D01*
X136244003Y-76170566D01*
X136244005Y-76170566D01*
X136244008Y-76170568D01*
X136295630Y-76187341D01*
X136468631Y-76243553D01*
X136701903Y-76280500D01*
X136701908Y-76280500D01*
X136938097Y-76280500D01*
X137171368Y-76243553D01*
X137395992Y-76170568D01*
X137606433Y-76063343D01*
X137797510Y-75924517D01*
X137964517Y-75757510D01*
X138103343Y-75566433D01*
X138210568Y-75355992D01*
X138283553Y-75131368D01*
X138320500Y-74898097D01*
X138320500Y-74661902D01*
X138283553Y-74428631D01*
X138249689Y-74324412D01*
X138210568Y-74204008D01*
X138210566Y-74204005D01*
X138210566Y-74204003D01*
X138129059Y-74044038D01*
X138103343Y-73993567D01*
X137964517Y-73802490D01*
X137797510Y-73635483D01*
X137606433Y-73496657D01*
X137567124Y-73476628D01*
X137395996Y-73389433D01*
X137171368Y-73316446D01*
X136938097Y-73279500D01*
X136938092Y-73279500D01*
X136701908Y-73279500D01*
X136701903Y-73279500D01*
X136468631Y-73316446D01*
X136244003Y-73389433D01*
X136033566Y-73496657D01*
X135924550Y-73575862D01*
X135842490Y-73635483D01*
X135842488Y-73635485D01*
X135842487Y-73635485D01*
X135675485Y-73802487D01*
X135675485Y-73802488D01*
X135675483Y-73802490D01*
X135615862Y-73884550D01*
X135536657Y-73993566D01*
X135429433Y-74204003D01*
X135356446Y-74428631D01*
X135319500Y-74661902D01*
X116886542Y-74661902D01*
X116884135Y-74656092D01*
X116884128Y-74656079D01*
X116774639Y-74492218D01*
X116774636Y-74492214D01*
X116635285Y-74352863D01*
X116635281Y-74352860D01*
X116471420Y-74243371D01*
X116471407Y-74243364D01*
X116289339Y-74167950D01*
X116289329Y-74167947D01*
X116096043Y-74129500D01*
X116096041Y-74129500D01*
X114898959Y-74129500D01*
X114898957Y-74129500D01*
X114705670Y-74167947D01*
X114705660Y-74167950D01*
X114523592Y-74243364D01*
X114523579Y-74243371D01*
X114359718Y-74352860D01*
X114359714Y-74352863D01*
X114220363Y-74492214D01*
X114220360Y-74492218D01*
X114110871Y-74656079D01*
X114110864Y-74656092D01*
X114035450Y-74838160D01*
X114035447Y-74838170D01*
X113997000Y-75031456D01*
X113997000Y-75031459D01*
X113997000Y-75228541D01*
X113997000Y-75228543D01*
X113996999Y-75228543D01*
X97278000Y-75228543D01*
X97278000Y-75228541D01*
X97278000Y-75031459D01*
X97278000Y-75031456D01*
X97239552Y-74838170D01*
X97239551Y-74838169D01*
X97239551Y-74838165D01*
X97166544Y-74661908D01*
X97164135Y-74656092D01*
X97164128Y-74656079D01*
X97054639Y-74492218D01*
X97054636Y-74492214D01*
X96915285Y-74352863D01*
X96915281Y-74352860D01*
X96751420Y-74243371D01*
X96751407Y-74243364D01*
X96569339Y-74167950D01*
X96569329Y-74167947D01*
X96376043Y-74129500D01*
X96376041Y-74129500D01*
X95178959Y-74129500D01*
X95178957Y-74129500D01*
X94985670Y-74167947D01*
X94985660Y-74167950D01*
X94803592Y-74243364D01*
X94803579Y-74243371D01*
X94639718Y-74352860D01*
X94639714Y-74352863D01*
X94500363Y-74492214D01*
X94500360Y-74492218D01*
X94390871Y-74656079D01*
X94390864Y-74656092D01*
X94315450Y-74838160D01*
X94315447Y-74838170D01*
X94277000Y-75031456D01*
X94277000Y-75031459D01*
X94277000Y-75228541D01*
X94277000Y-75228543D01*
X94276999Y-75228543D01*
X90590500Y-75228543D01*
X90590500Y-72688543D01*
X94276999Y-72688543D01*
X94315447Y-72881829D01*
X94315450Y-72881839D01*
X94390864Y-73063907D01*
X94390871Y-73063920D01*
X94500360Y-73227781D01*
X94500363Y-73227785D01*
X94639714Y-73367136D01*
X94639718Y-73367139D01*
X94803579Y-73476628D01*
X94803592Y-73476635D01*
X94985660Y-73552049D01*
X94985665Y-73552051D01*
X94985669Y-73552051D01*
X94985670Y-73552052D01*
X95178956Y-73590500D01*
X95178959Y-73590500D01*
X96376043Y-73590500D01*
X96533299Y-73559219D01*
X96569335Y-73552051D01*
X96751414Y-73476632D01*
X96915282Y-73367139D01*
X97054639Y-73227782D01*
X97164132Y-73063914D01*
X97239551Y-72881835D01*
X97278000Y-72688543D01*
X113996999Y-72688543D01*
X114035447Y-72881829D01*
X114035450Y-72881839D01*
X114110864Y-73063907D01*
X114110871Y-73063920D01*
X114220360Y-73227781D01*
X114220363Y-73227785D01*
X114359714Y-73367136D01*
X114359718Y-73367139D01*
X114523579Y-73476628D01*
X114523592Y-73476635D01*
X114705660Y-73552049D01*
X114705665Y-73552051D01*
X114705669Y-73552051D01*
X114705670Y-73552052D01*
X114898956Y-73590500D01*
X114898959Y-73590500D01*
X116096043Y-73590500D01*
X116253299Y-73559219D01*
X116289335Y-73552051D01*
X116471414Y-73476632D01*
X116614083Y-73381304D01*
X130792000Y-73381304D01*
X130792000Y-73558695D01*
X130826603Y-73732658D01*
X130826606Y-73732667D01*
X130894483Y-73896540D01*
X130894490Y-73896553D01*
X130993035Y-74044034D01*
X130993038Y-74044038D01*
X131118461Y-74169461D01*
X131118465Y-74169464D01*
X131265946Y-74268009D01*
X131265959Y-74268016D01*
X131388863Y-74318923D01*
X131429834Y-74335894D01*
X131429836Y-74335894D01*
X131429841Y-74335896D01*
X131603804Y-74370499D01*
X131603807Y-74370500D01*
X131603809Y-74370500D01*
X131781193Y-74370500D01*
X131781194Y-74370499D01*
X131869873Y-74352860D01*
X131955158Y-74335896D01*
X131955161Y-74335894D01*
X131955166Y-74335894D01*
X132119047Y-74268013D01*
X132266535Y-74169464D01*
X132391964Y-74044035D01*
X132490513Y-73896547D01*
X132558394Y-73732666D01*
X132593000Y-73558691D01*
X132593000Y-73381309D01*
X132593000Y-73381306D01*
X132592999Y-73381304D01*
X132558396Y-73207341D01*
X132558393Y-73207332D01*
X132490516Y-73043459D01*
X132490509Y-73043446D01*
X132391964Y-72895965D01*
X132391961Y-72895961D01*
X132266538Y-72770538D01*
X132266534Y-72770535D01*
X132119053Y-72671990D01*
X132119040Y-72671983D01*
X131955167Y-72604106D01*
X131955158Y-72604103D01*
X131781194Y-72569500D01*
X131781191Y-72569500D01*
X131603809Y-72569500D01*
X131603806Y-72569500D01*
X131429841Y-72604103D01*
X131429832Y-72604106D01*
X131265959Y-72671983D01*
X131265946Y-72671990D01*
X131118465Y-72770535D01*
X131118461Y-72770538D01*
X130993038Y-72895961D01*
X130993035Y-72895965D01*
X130894490Y-73043446D01*
X130894483Y-73043459D01*
X130826606Y-73207332D01*
X130826603Y-73207341D01*
X130792000Y-73381304D01*
X116614083Y-73381304D01*
X116635282Y-73367139D01*
X116637887Y-73364534D01*
X116714886Y-73287536D01*
X116774636Y-73227785D01*
X116774639Y-73227782D01*
X116884132Y-73063914D01*
X116959551Y-72881835D01*
X116998000Y-72688541D01*
X116998000Y-72491459D01*
X116998000Y-72491456D01*
X116959552Y-72298170D01*
X116959551Y-72298169D01*
X116959551Y-72298165D01*
X116924184Y-72212781D01*
X116884135Y-72116092D01*
X116884128Y-72116079D01*
X116774639Y-71952218D01*
X116774636Y-71952214D01*
X116635285Y-71812863D01*
X116635281Y-71812860D01*
X116471420Y-71703371D01*
X116471407Y-71703364D01*
X116289339Y-71627950D01*
X116289329Y-71627947D01*
X116096043Y-71589500D01*
X116096041Y-71589500D01*
X114898959Y-71589500D01*
X114898957Y-71589500D01*
X114705670Y-71627947D01*
X114705660Y-71627950D01*
X114523592Y-71703364D01*
X114523579Y-71703371D01*
X114359718Y-71812860D01*
X114359714Y-71812863D01*
X114220363Y-71952214D01*
X114220360Y-71952218D01*
X114110871Y-72116079D01*
X114110864Y-72116092D01*
X114035450Y-72298160D01*
X114035447Y-72298170D01*
X113997000Y-72491456D01*
X113997000Y-72491459D01*
X113997000Y-72688541D01*
X113997000Y-72688543D01*
X113996999Y-72688543D01*
X97278000Y-72688543D01*
X97278000Y-72688541D01*
X97278000Y-72491459D01*
X97278000Y-72491456D01*
X97239552Y-72298170D01*
X97239551Y-72298169D01*
X97239551Y-72298165D01*
X97204184Y-72212781D01*
X97164135Y-72116092D01*
X97164128Y-72116079D01*
X97054639Y-71952218D01*
X97054636Y-71952214D01*
X96915285Y-71812863D01*
X96915281Y-71812860D01*
X96751420Y-71703371D01*
X96751407Y-71703364D01*
X96569339Y-71627950D01*
X96569329Y-71627947D01*
X96376043Y-71589500D01*
X96376041Y-71589500D01*
X95178959Y-71589500D01*
X95178957Y-71589500D01*
X94985670Y-71627947D01*
X94985660Y-71627950D01*
X94803592Y-71703364D01*
X94803579Y-71703371D01*
X94639718Y-71812860D01*
X94639714Y-71812863D01*
X94500363Y-71952214D01*
X94500360Y-71952218D01*
X94390871Y-72116079D01*
X94390864Y-72116092D01*
X94315450Y-72298160D01*
X94315447Y-72298170D01*
X94277000Y-72491456D01*
X94277000Y-72491459D01*
X94277000Y-72688541D01*
X94277000Y-72688543D01*
X94276999Y-72688543D01*
X90590500Y-72688543D01*
X90590500Y-70148543D01*
X94276999Y-70148543D01*
X94315447Y-70341829D01*
X94315450Y-70341839D01*
X94390864Y-70523907D01*
X94390871Y-70523920D01*
X94500360Y-70687781D01*
X94500363Y-70687785D01*
X94639714Y-70827136D01*
X94639718Y-70827139D01*
X94803579Y-70936628D01*
X94803592Y-70936635D01*
X94985660Y-71012049D01*
X94985665Y-71012051D01*
X94985669Y-71012051D01*
X94985670Y-71012052D01*
X95178956Y-71050500D01*
X95178959Y-71050500D01*
X96376043Y-71050500D01*
X96533299Y-71019219D01*
X96569335Y-71012051D01*
X96751414Y-70936632D01*
X96915282Y-70827139D01*
X97054639Y-70687782D01*
X97164132Y-70523914D01*
X97239551Y-70341835D01*
X97278000Y-70148543D01*
X113996999Y-70148543D01*
X114035447Y-70341829D01*
X114035450Y-70341839D01*
X114110864Y-70523907D01*
X114110871Y-70523920D01*
X114220360Y-70687781D01*
X114220363Y-70687785D01*
X114359714Y-70827136D01*
X114359718Y-70827139D01*
X114523579Y-70936628D01*
X114523592Y-70936635D01*
X114705660Y-71012049D01*
X114705665Y-71012051D01*
X114705669Y-71012051D01*
X114705670Y-71012052D01*
X114898956Y-71050500D01*
X114898959Y-71050500D01*
X116096043Y-71050500D01*
X116253299Y-71019219D01*
X116289335Y-71012051D01*
X116471414Y-70936632D01*
X116635282Y-70827139D01*
X116774639Y-70687782D01*
X116884132Y-70523914D01*
X116959551Y-70341835D01*
X116998000Y-70148541D01*
X116998000Y-69951459D01*
X116998000Y-69951456D01*
X116959552Y-69758170D01*
X116959551Y-69758169D01*
X116959551Y-69758165D01*
X116932421Y-69692666D01*
X116884135Y-69576092D01*
X116884128Y-69576079D01*
X116774640Y-69412219D01*
X116774634Y-69412212D01*
X116703726Y-69341304D01*
X122694500Y-69341304D01*
X122694500Y-69518695D01*
X122729103Y-69692658D01*
X122729106Y-69692667D01*
X122796983Y-69856540D01*
X122796990Y-69856553D01*
X122895535Y-70004034D01*
X122895538Y-70004038D01*
X123020961Y-70129461D01*
X123020965Y-70129464D01*
X123168446Y-70228009D01*
X123168459Y-70228016D01*
X123291363Y-70278923D01*
X123332334Y-70295894D01*
X123332336Y-70295894D01*
X123332341Y-70295896D01*
X123506304Y-70330499D01*
X123506307Y-70330500D01*
X123506309Y-70330500D01*
X123683693Y-70330500D01*
X123683694Y-70330499D01*
X123741682Y-70318964D01*
X123857658Y-70295896D01*
X123857661Y-70295894D01*
X123857666Y-70295894D01*
X124021547Y-70228013D01*
X124169035Y-70129464D01*
X124294464Y-70004035D01*
X124350626Y-69919983D01*
X140549500Y-69919983D01*
X140549500Y-71120001D01*
X140549501Y-71120018D01*
X140560000Y-71222796D01*
X140560001Y-71222799D01*
X140607856Y-71367213D01*
X140615186Y-71389334D01*
X140707288Y-71538656D01*
X140831344Y-71662712D01*
X140980666Y-71754814D01*
X141062570Y-71781954D01*
X141120015Y-71821727D01*
X141146838Y-71886243D01*
X141134523Y-71955018D01*
X141096451Y-71999978D01*
X141002787Y-72068028D01*
X141002782Y-72068032D01*
X140858028Y-72212786D01*
X140737715Y-72378386D01*
X140644781Y-72560776D01*
X140581522Y-72755465D01*
X140549500Y-72957648D01*
X140549500Y-73162351D01*
X140581522Y-73364534D01*
X140644781Y-73559223D01*
X140708691Y-73684653D01*
X140733156Y-73732667D01*
X140737715Y-73741613D01*
X140858028Y-73907213D01*
X141002786Y-74051971D01*
X141109498Y-74129500D01*
X141168390Y-74172287D01*
X141230646Y-74204008D01*
X141261080Y-74219515D01*
X141311876Y-74267490D01*
X141328671Y-74335311D01*
X141306134Y-74401446D01*
X141261080Y-74440485D01*
X141168386Y-74487715D01*
X141002786Y-74608028D01*
X140858028Y-74752786D01*
X140737715Y-74918386D01*
X140644781Y-75100776D01*
X140581522Y-75295465D01*
X140549500Y-75497648D01*
X140549500Y-75702351D01*
X140581522Y-75904534D01*
X140644781Y-76099223D01*
X140660718Y-76130500D01*
X140737147Y-76280500D01*
X140737715Y-76281613D01*
X140858028Y-76447213D01*
X141002786Y-76591971D01*
X141109498Y-76669500D01*
X141168390Y-76712287D01*
X141280677Y-76769500D01*
X141350776Y-76805218D01*
X141350778Y-76805218D01*
X141350781Y-76805220D01*
X141455137Y-76839127D01*
X141545465Y-76868477D01*
X141596417Y-76876547D01*
X141747648Y-76900500D01*
X141747649Y-76900500D01*
X141952351Y-76900500D01*
X141952352Y-76900500D01*
X142154534Y-76868477D01*
X142349219Y-76805220D01*
X142531610Y-76712287D01*
X142624590Y-76644732D01*
X142697213Y-76591971D01*
X142697215Y-76591968D01*
X142697219Y-76591966D01*
X142841966Y-76447219D01*
X142841968Y-76447215D01*
X142841971Y-76447213D01*
X142904386Y-76361304D01*
X142962287Y-76281610D01*
X143055220Y-76099219D01*
X143118477Y-75904534D01*
X143150500Y-75702352D01*
X143150500Y-75497648D01*
X143118477Y-75295466D01*
X143055220Y-75100781D01*
X143055218Y-75100778D01*
X143055218Y-75100776D01*
X143019897Y-75031456D01*
X142962287Y-74918390D01*
X142947540Y-74898092D01*
X142841971Y-74752786D01*
X142697213Y-74608028D01*
X142531614Y-74487715D01*
X142525006Y-74484348D01*
X142438917Y-74440483D01*
X142388123Y-74392511D01*
X142371328Y-74324690D01*
X142393865Y-74258555D01*
X142438917Y-74219516D01*
X142531610Y-74172287D01*
X142590502Y-74129500D01*
X142697213Y-74051971D01*
X142697215Y-74051968D01*
X142697219Y-74051966D01*
X142841966Y-73907219D01*
X142841968Y-73907215D01*
X142841971Y-73907213D01*
X142918057Y-73802488D01*
X142962287Y-73741610D01*
X143055220Y-73559219D01*
X143118477Y-73364534D01*
X143150500Y-73162352D01*
X143150500Y-72957648D01*
X143118477Y-72755466D01*
X143055220Y-72560781D01*
X143055218Y-72560778D01*
X143055218Y-72560776D01*
X143019897Y-72491456D01*
X142962287Y-72378390D01*
X142954556Y-72367749D01*
X142841971Y-72212786D01*
X142697219Y-72068034D01*
X142697211Y-72068028D01*
X142603547Y-71999978D01*
X142560882Y-71944649D01*
X142554903Y-71875036D01*
X142587508Y-71813240D01*
X142637426Y-71781955D01*
X142719334Y-71754814D01*
X142868656Y-71662712D01*
X142992712Y-71538656D01*
X143084814Y-71389334D01*
X143139999Y-71222797D01*
X143150500Y-71120009D01*
X143150499Y-70417648D01*
X148169500Y-70417648D01*
X148169500Y-70622351D01*
X148201522Y-70824534D01*
X148264781Y-71019223D01*
X148357715Y-71201613D01*
X148478028Y-71367213D01*
X148622786Y-71511971D01*
X148729498Y-71589500D01*
X148788390Y-71632287D01*
X148879840Y-71678883D01*
X148881080Y-71679515D01*
X148931876Y-71727490D01*
X148948671Y-71795311D01*
X148926134Y-71861446D01*
X148881080Y-71900485D01*
X148788386Y-71947715D01*
X148622786Y-72068028D01*
X148478028Y-72212786D01*
X148357715Y-72378386D01*
X148264781Y-72560776D01*
X148201522Y-72755465D01*
X148169500Y-72957648D01*
X148169500Y-73162351D01*
X148201522Y-73364534D01*
X148264781Y-73559223D01*
X148328691Y-73684653D01*
X148353156Y-73732667D01*
X148357715Y-73741613D01*
X148478028Y-73907213D01*
X148622786Y-74051971D01*
X148729498Y-74129500D01*
X148788390Y-74172287D01*
X148850646Y-74204008D01*
X148881080Y-74219515D01*
X148931876Y-74267490D01*
X148948671Y-74335311D01*
X148926134Y-74401446D01*
X148881080Y-74440485D01*
X148788386Y-74487715D01*
X148622786Y-74608028D01*
X148478028Y-74752786D01*
X148357715Y-74918386D01*
X148264781Y-75100776D01*
X148201522Y-75295465D01*
X148169500Y-75497648D01*
X148169500Y-75702351D01*
X148201522Y-75904534D01*
X148264781Y-76099223D01*
X148280718Y-76130500D01*
X148357147Y-76280500D01*
X148357715Y-76281613D01*
X148478028Y-76447213D01*
X148622786Y-76591971D01*
X148729498Y-76669500D01*
X148788390Y-76712287D01*
X148900677Y-76769500D01*
X148970776Y-76805218D01*
X148970778Y-76805218D01*
X148970781Y-76805220D01*
X149075137Y-76839127D01*
X149165465Y-76868477D01*
X149216417Y-76876547D01*
X149367648Y-76900500D01*
X149367649Y-76900500D01*
X149572351Y-76900500D01*
X149572352Y-76900500D01*
X149774534Y-76868477D01*
X149969219Y-76805220D01*
X150151610Y-76712287D01*
X150244590Y-76644732D01*
X150317213Y-76591971D01*
X150317215Y-76591968D01*
X150317219Y-76591966D01*
X150461966Y-76447219D01*
X150461968Y-76447215D01*
X150461971Y-76447213D01*
X150524386Y-76361304D01*
X150582287Y-76281610D01*
X150675220Y-76099219D01*
X150738477Y-75904534D01*
X150770500Y-75702352D01*
X150770500Y-75497648D01*
X150738477Y-75295466D01*
X150675220Y-75100781D01*
X150675218Y-75100778D01*
X150675218Y-75100776D01*
X150639897Y-75031456D01*
X150582287Y-74918390D01*
X150567540Y-74898092D01*
X150461971Y-74752786D01*
X150317213Y-74608028D01*
X150151614Y-74487715D01*
X150145006Y-74484348D01*
X150058917Y-74440483D01*
X150008123Y-74392511D01*
X149991328Y-74324690D01*
X150013865Y-74258555D01*
X150058917Y-74219516D01*
X150151610Y-74172287D01*
X150210502Y-74129500D01*
X150317213Y-74051971D01*
X150317215Y-74051968D01*
X150317219Y-74051966D01*
X150461966Y-73907219D01*
X150461968Y-73907215D01*
X150461971Y-73907213D01*
X150538057Y-73802488D01*
X150582287Y-73741610D01*
X150675220Y-73559219D01*
X150738477Y-73364534D01*
X150770500Y-73162352D01*
X150770500Y-72957648D01*
X150738477Y-72755466D01*
X150675220Y-72560781D01*
X150675218Y-72560778D01*
X150675218Y-72560776D01*
X150639897Y-72491456D01*
X150582287Y-72378390D01*
X150574556Y-72367749D01*
X150461971Y-72212786D01*
X150317213Y-72068028D01*
X150151614Y-71947715D01*
X150145006Y-71944348D01*
X150058917Y-71900483D01*
X150008123Y-71852511D01*
X149991328Y-71784690D01*
X150013865Y-71718555D01*
X150058917Y-71679516D01*
X150151610Y-71632287D01*
X150280482Y-71538657D01*
X150317213Y-71511971D01*
X150317215Y-71511968D01*
X150317219Y-71511966D01*
X150461966Y-71367219D01*
X150461968Y-71367215D01*
X150461971Y-71367213D01*
X150566892Y-71222799D01*
X150582287Y-71201610D01*
X150675220Y-71019219D01*
X150738477Y-70824534D01*
X150770500Y-70622352D01*
X150770500Y-70417648D01*
X150738477Y-70215466D01*
X150675220Y-70020781D01*
X150675218Y-70020778D01*
X150675218Y-70020776D01*
X150623865Y-69919991D01*
X150582287Y-69838390D01*
X150566892Y-69817200D01*
X150461971Y-69672786D01*
X150317213Y-69528028D01*
X150151613Y-69407715D01*
X150151612Y-69407714D01*
X150151610Y-69407713D01*
X150091898Y-69377288D01*
X149969223Y-69314781D01*
X149774534Y-69251522D01*
X149599995Y-69223878D01*
X149572352Y-69219500D01*
X149367648Y-69219500D01*
X149343329Y-69223351D01*
X149165465Y-69251522D01*
X148970776Y-69314781D01*
X148788386Y-69407715D01*
X148622786Y-69528028D01*
X148478028Y-69672786D01*
X148357715Y-69838386D01*
X148264781Y-70020776D01*
X148201522Y-70215465D01*
X148169500Y-70417648D01*
X143150499Y-70417648D01*
X143150499Y-69919992D01*
X143139999Y-69817203D01*
X143084814Y-69650666D01*
X142992712Y-69501344D01*
X142868656Y-69377288D01*
X142719334Y-69285186D01*
X142552797Y-69230001D01*
X142552795Y-69230000D01*
X142450010Y-69219500D01*
X141249998Y-69219500D01*
X141249981Y-69219501D01*
X141147203Y-69230000D01*
X141147200Y-69230001D01*
X140980668Y-69285185D01*
X140980663Y-69285187D01*
X140831342Y-69377289D01*
X140707289Y-69501342D01*
X140615187Y-69650663D01*
X140615185Y-69650668D01*
X140601268Y-69692667D01*
X140560001Y-69817203D01*
X140560001Y-69817204D01*
X140560000Y-69817204D01*
X140549500Y-69919983D01*
X124350626Y-69919983D01*
X124393013Y-69856547D01*
X124400536Y-69838386D01*
X124409311Y-69817200D01*
X124460894Y-69692666D01*
X124464849Y-69672786D01*
X124484085Y-69576079D01*
X124495500Y-69518691D01*
X124495500Y-69341309D01*
X124495500Y-69341306D01*
X124495499Y-69341304D01*
X124460896Y-69167341D01*
X124460893Y-69167332D01*
X124459249Y-69163364D01*
X124443923Y-69126363D01*
X124393016Y-69003459D01*
X124393009Y-69003446D01*
X124294464Y-68855965D01*
X124294461Y-68855961D01*
X124169038Y-68730538D01*
X124169034Y-68730535D01*
X124021553Y-68631990D01*
X124021540Y-68631983D01*
X123857667Y-68564106D01*
X123857658Y-68564103D01*
X123683694Y-68529500D01*
X123683691Y-68529500D01*
X123506309Y-68529500D01*
X123506306Y-68529500D01*
X123332341Y-68564103D01*
X123332332Y-68564106D01*
X123168459Y-68631983D01*
X123168446Y-68631990D01*
X123020965Y-68730535D01*
X123020961Y-68730538D01*
X122895538Y-68855961D01*
X122895535Y-68855965D01*
X122796990Y-69003446D01*
X122796983Y-69003459D01*
X122729106Y-69167332D01*
X122729103Y-69167341D01*
X122694500Y-69341304D01*
X116703726Y-69341304D01*
X116635285Y-69272863D01*
X116635281Y-69272860D01*
X116471420Y-69163371D01*
X116471407Y-69163364D01*
X116289339Y-69087950D01*
X116289329Y-69087947D01*
X116096043Y-69049500D01*
X116096041Y-69049500D01*
X114898959Y-69049500D01*
X114898957Y-69049500D01*
X114705670Y-69087947D01*
X114705660Y-69087950D01*
X114523592Y-69163364D01*
X114523579Y-69163371D01*
X114359718Y-69272860D01*
X114359714Y-69272863D01*
X114220363Y-69412214D01*
X114220360Y-69412218D01*
X114110871Y-69576079D01*
X114110864Y-69576092D01*
X114035450Y-69758160D01*
X114035447Y-69758170D01*
X113997000Y-69951456D01*
X113997000Y-69951459D01*
X113997000Y-70148541D01*
X113997000Y-70148543D01*
X113996999Y-70148543D01*
X97278000Y-70148543D01*
X97278000Y-70148541D01*
X97278000Y-69951459D01*
X97278000Y-69951456D01*
X97239552Y-69758170D01*
X97239551Y-69758169D01*
X97239551Y-69758165D01*
X97212421Y-69692666D01*
X97164135Y-69576092D01*
X97164128Y-69576079D01*
X97054639Y-69412218D01*
X97054636Y-69412214D01*
X96915285Y-69272863D01*
X96915281Y-69272860D01*
X96751420Y-69163371D01*
X96751407Y-69163364D01*
X96569339Y-69087950D01*
X96569329Y-69087947D01*
X96376043Y-69049500D01*
X96376041Y-69049500D01*
X95178959Y-69049500D01*
X95178957Y-69049500D01*
X94985670Y-69087947D01*
X94985660Y-69087950D01*
X94803592Y-69163364D01*
X94803579Y-69163371D01*
X94639718Y-69272860D01*
X94639714Y-69272863D01*
X94500363Y-69412214D01*
X94500360Y-69412218D01*
X94390871Y-69576079D01*
X94390864Y-69576092D01*
X94315450Y-69758160D01*
X94315447Y-69758170D01*
X94277000Y-69951456D01*
X94277000Y-69951459D01*
X94277000Y-70148541D01*
X94277000Y-70148543D01*
X94276999Y-70148543D01*
X90590500Y-70148543D01*
X90590500Y-67608543D01*
X94276999Y-67608543D01*
X94315447Y-67801829D01*
X94315450Y-67801839D01*
X94390864Y-67983907D01*
X94390871Y-67983920D01*
X94500360Y-68147781D01*
X94500363Y-68147785D01*
X94639714Y-68287136D01*
X94639718Y-68287139D01*
X94803579Y-68396628D01*
X94803592Y-68396635D01*
X94985660Y-68472049D01*
X94985665Y-68472051D01*
X94985669Y-68472051D01*
X94985670Y-68472052D01*
X95178956Y-68510500D01*
X95178959Y-68510500D01*
X96376043Y-68510500D01*
X96506082Y-68484632D01*
X96569335Y-68472051D01*
X96751414Y-68396632D01*
X96915282Y-68287139D01*
X97054639Y-68147782D01*
X97164132Y-67983914D01*
X97239551Y-67801835D01*
X97278000Y-67608543D01*
X113996999Y-67608543D01*
X114035447Y-67801829D01*
X114035450Y-67801839D01*
X114110864Y-67983907D01*
X114110871Y-67983920D01*
X114220360Y-68147781D01*
X114220363Y-68147785D01*
X114359714Y-68287136D01*
X114359718Y-68287139D01*
X114523579Y-68396628D01*
X114523592Y-68396635D01*
X114705660Y-68472049D01*
X114705665Y-68472051D01*
X114705669Y-68472051D01*
X114705670Y-68472052D01*
X114898956Y-68510500D01*
X114898959Y-68510500D01*
X116096043Y-68510500D01*
X116226082Y-68484632D01*
X116289335Y-68472051D01*
X116471414Y-68396632D01*
X116635282Y-68287139D01*
X116774639Y-68147782D01*
X116884132Y-67983914D01*
X116959551Y-67801835D01*
X116998000Y-67608541D01*
X116998000Y-67411459D01*
X116998000Y-67411456D01*
X116959552Y-67218170D01*
X116959551Y-67218169D01*
X116959551Y-67218165D01*
X116959549Y-67218160D01*
X116884135Y-67036092D01*
X116884128Y-67036079D01*
X116774639Y-66872218D01*
X116774636Y-66872214D01*
X116635285Y-66732863D01*
X116635281Y-66732860D01*
X116471420Y-66623371D01*
X116471407Y-66623364D01*
X116289339Y-66547950D01*
X116289329Y-66547947D01*
X116096043Y-66509500D01*
X116096041Y-66509500D01*
X114898959Y-66509500D01*
X114898957Y-66509500D01*
X114705670Y-66547947D01*
X114705660Y-66547950D01*
X114523592Y-66623364D01*
X114523579Y-66623371D01*
X114359718Y-66732860D01*
X114359714Y-66732863D01*
X114220363Y-66872214D01*
X114220360Y-66872218D01*
X114110871Y-67036079D01*
X114110864Y-67036092D01*
X114035450Y-67218160D01*
X114035447Y-67218170D01*
X113997000Y-67411456D01*
X113997000Y-67411459D01*
X113997000Y-67608541D01*
X113997000Y-67608543D01*
X113996999Y-67608543D01*
X97278000Y-67608543D01*
X97278000Y-67608541D01*
X97278000Y-67411459D01*
X97278000Y-67411456D01*
X97239552Y-67218170D01*
X97239551Y-67218169D01*
X97239551Y-67218165D01*
X97239549Y-67218160D01*
X97164135Y-67036092D01*
X97164128Y-67036079D01*
X97054639Y-66872218D01*
X97054636Y-66872214D01*
X96915285Y-66732863D01*
X96915281Y-66732860D01*
X96751420Y-66623371D01*
X96751407Y-66623364D01*
X96569339Y-66547950D01*
X96569329Y-66547947D01*
X96376043Y-66509500D01*
X96376041Y-66509500D01*
X95178959Y-66509500D01*
X95178957Y-66509500D01*
X94985670Y-66547947D01*
X94985660Y-66547950D01*
X94803592Y-66623364D01*
X94803579Y-66623371D01*
X94639718Y-66732860D01*
X94639714Y-66732863D01*
X94500363Y-66872214D01*
X94500360Y-66872218D01*
X94390871Y-67036079D01*
X94390864Y-67036092D01*
X94315450Y-67218160D01*
X94315447Y-67218170D01*
X94277000Y-67411456D01*
X94277000Y-67411459D01*
X94277000Y-67608541D01*
X94277000Y-67608543D01*
X94276999Y-67608543D01*
X90590500Y-67608543D01*
X90590500Y-65068543D01*
X94276999Y-65068543D01*
X94315447Y-65261829D01*
X94315450Y-65261839D01*
X94390864Y-65443907D01*
X94390871Y-65443920D01*
X94500360Y-65607781D01*
X94500363Y-65607785D01*
X94639714Y-65747136D01*
X94639718Y-65747139D01*
X94803579Y-65856628D01*
X94803592Y-65856635D01*
X94985660Y-65932049D01*
X94985665Y-65932051D01*
X94985669Y-65932051D01*
X94985670Y-65932052D01*
X95178956Y-65970500D01*
X95178959Y-65970500D01*
X96376043Y-65970500D01*
X96506082Y-65944632D01*
X96569335Y-65932051D01*
X96751414Y-65856632D01*
X96915282Y-65747139D01*
X97054639Y-65607782D01*
X97164132Y-65443914D01*
X97239551Y-65261835D01*
X97278000Y-65068543D01*
X113996999Y-65068543D01*
X114035447Y-65261829D01*
X114035450Y-65261839D01*
X114110864Y-65443907D01*
X114110871Y-65443920D01*
X114220360Y-65607781D01*
X114220363Y-65607785D01*
X114359714Y-65747136D01*
X114359718Y-65747139D01*
X114523579Y-65856628D01*
X114523592Y-65856635D01*
X114705660Y-65932049D01*
X114705665Y-65932051D01*
X114705669Y-65932051D01*
X114705670Y-65932052D01*
X114898956Y-65970500D01*
X114898959Y-65970500D01*
X116096043Y-65970500D01*
X116226082Y-65944632D01*
X116289335Y-65932051D01*
X116471414Y-65856632D01*
X116635282Y-65747139D01*
X116774639Y-65607782D01*
X116884132Y-65443914D01*
X116959551Y-65261835D01*
X116998000Y-65068541D01*
X116998000Y-64871459D01*
X116998000Y-64871456D01*
X116959552Y-64678170D01*
X116959551Y-64678169D01*
X116959551Y-64678165D01*
X116959549Y-64678160D01*
X116884135Y-64496092D01*
X116884128Y-64496079D01*
X116774639Y-64332218D01*
X116774636Y-64332214D01*
X116635285Y-64192863D01*
X116635281Y-64192860D01*
X116471420Y-64083371D01*
X116471407Y-64083364D01*
X116289339Y-64007950D01*
X116289329Y-64007947D01*
X116096043Y-63969500D01*
X116096041Y-63969500D01*
X114898959Y-63969500D01*
X114898957Y-63969500D01*
X114705670Y-64007947D01*
X114705660Y-64007950D01*
X114523592Y-64083364D01*
X114523579Y-64083371D01*
X114359718Y-64192860D01*
X114359714Y-64192863D01*
X114220363Y-64332214D01*
X114220360Y-64332218D01*
X114110871Y-64496079D01*
X114110864Y-64496092D01*
X114035450Y-64678160D01*
X114035447Y-64678170D01*
X113997000Y-64871456D01*
X113997000Y-64871459D01*
X113997000Y-65068541D01*
X113997000Y-65068543D01*
X113996999Y-65068543D01*
X97278000Y-65068543D01*
X97278000Y-65068541D01*
X97278000Y-64871459D01*
X97278000Y-64871456D01*
X97239552Y-64678170D01*
X97239551Y-64678169D01*
X97239551Y-64678165D01*
X97239549Y-64678160D01*
X97164135Y-64496092D01*
X97164128Y-64496079D01*
X97054639Y-64332218D01*
X97054636Y-64332214D01*
X96915285Y-64192863D01*
X96915281Y-64192860D01*
X96751420Y-64083371D01*
X96751407Y-64083364D01*
X96569339Y-64007950D01*
X96569329Y-64007947D01*
X96376043Y-63969500D01*
X96376041Y-63969500D01*
X95178959Y-63969500D01*
X95178957Y-63969500D01*
X94985670Y-64007947D01*
X94985660Y-64007950D01*
X94803592Y-64083364D01*
X94803579Y-64083371D01*
X94639718Y-64192860D01*
X94639714Y-64192863D01*
X94500363Y-64332214D01*
X94500360Y-64332218D01*
X94390871Y-64496079D01*
X94390864Y-64496092D01*
X94315450Y-64678160D01*
X94315447Y-64678170D01*
X94277000Y-64871456D01*
X94277000Y-64871459D01*
X94277000Y-65068541D01*
X94277000Y-65068543D01*
X94276999Y-65068543D01*
X90590500Y-65068543D01*
X90590500Y-57100000D01*
X94000891Y-57100000D01*
X95044488Y-57100000D01*
X95011575Y-57157007D01*
X94977500Y-57284174D01*
X94977500Y-57415826D01*
X95011575Y-57542993D01*
X95044488Y-57600000D01*
X94000891Y-57600000D01*
X94009509Y-57654413D01*
X94072744Y-57849029D01*
X94165640Y-58031349D01*
X94285917Y-58196894D01*
X94285917Y-58196895D01*
X94430604Y-58341582D01*
X94596150Y-58461859D01*
X94689679Y-58509515D01*
X94740475Y-58557490D01*
X94757270Y-58625311D01*
X94734732Y-58691446D01*
X94689679Y-58730485D01*
X94596150Y-58778140D01*
X94430605Y-58898417D01*
X94430604Y-58898417D01*
X94285917Y-59043104D01*
X94285917Y-59043105D01*
X94165640Y-59208650D01*
X94072744Y-59390970D01*
X94009509Y-59585586D01*
X94000891Y-59640000D01*
X95044488Y-59640000D01*
X95011575Y-59697007D01*
X94977500Y-59824174D01*
X94977500Y-59955826D01*
X95011575Y-60082993D01*
X95044488Y-60140000D01*
X94000891Y-60140000D01*
X94009509Y-60194413D01*
X94072744Y-60389029D01*
X94165640Y-60571349D01*
X94285917Y-60736894D01*
X94285917Y-60736895D01*
X94430604Y-60881582D01*
X94596150Y-61001859D01*
X94778468Y-61094755D01*
X94973082Y-61157990D01*
X95161768Y-61187875D01*
X95224903Y-61217804D01*
X95261834Y-61277116D01*
X95260836Y-61346978D01*
X95222226Y-61405211D01*
X95166562Y-61431965D01*
X94985670Y-61467947D01*
X94985660Y-61467950D01*
X94803592Y-61543364D01*
X94803579Y-61543371D01*
X94639718Y-61652860D01*
X94639714Y-61652863D01*
X94500363Y-61792214D01*
X94500360Y-61792218D01*
X94390871Y-61956079D01*
X94390864Y-61956092D01*
X94315450Y-62138160D01*
X94315447Y-62138170D01*
X94277000Y-62331456D01*
X94277000Y-62331459D01*
X94277000Y-62528541D01*
X94277000Y-62528543D01*
X94276999Y-62528543D01*
X94315447Y-62721829D01*
X94315450Y-62721839D01*
X94390864Y-62903907D01*
X94390871Y-62903920D01*
X94500360Y-63067781D01*
X94500363Y-63067785D01*
X94639714Y-63207136D01*
X94639718Y-63207139D01*
X94803579Y-63316628D01*
X94803592Y-63316635D01*
X94985660Y-63392049D01*
X94985665Y-63392051D01*
X94985669Y-63392051D01*
X94985670Y-63392052D01*
X95178956Y-63430500D01*
X95178959Y-63430500D01*
X96376043Y-63430500D01*
X96506082Y-63404632D01*
X96569335Y-63392051D01*
X96751414Y-63316632D01*
X96915282Y-63207139D01*
X97054639Y-63067782D01*
X97164132Y-62903914D01*
X97239551Y-62721835D01*
X97278000Y-62528543D01*
X113996999Y-62528543D01*
X114035447Y-62721829D01*
X114035450Y-62721839D01*
X114110864Y-62903907D01*
X114110871Y-62903920D01*
X114220360Y-63067781D01*
X114220363Y-63067785D01*
X114359714Y-63207136D01*
X114359718Y-63207139D01*
X114523579Y-63316628D01*
X114523592Y-63316635D01*
X114705660Y-63392049D01*
X114705665Y-63392051D01*
X114705669Y-63392051D01*
X114705670Y-63392052D01*
X114898956Y-63430500D01*
X114898959Y-63430500D01*
X116096043Y-63430500D01*
X116226082Y-63404632D01*
X116289335Y-63392051D01*
X116471414Y-63316632D01*
X116635282Y-63207139D01*
X116774639Y-63067782D01*
X116884132Y-62903914D01*
X116959551Y-62721835D01*
X116998000Y-62528541D01*
X116998000Y-62331459D01*
X116998000Y-62331456D01*
X116959552Y-62138170D01*
X116959551Y-62138169D01*
X116959551Y-62138165D01*
X116959549Y-62138160D01*
X116884135Y-61956092D01*
X116884128Y-61956079D01*
X116774639Y-61792218D01*
X116774636Y-61792214D01*
X116635285Y-61652863D01*
X116635281Y-61652860D01*
X116471420Y-61543371D01*
X116471407Y-61543364D01*
X116289339Y-61467950D01*
X116289329Y-61467947D01*
X116096043Y-61429500D01*
X116096041Y-61429500D01*
X114898959Y-61429500D01*
X114898957Y-61429500D01*
X114705670Y-61467947D01*
X114705660Y-61467950D01*
X114523592Y-61543364D01*
X114523579Y-61543371D01*
X114359718Y-61652860D01*
X114359714Y-61652863D01*
X114220363Y-61792214D01*
X114220360Y-61792218D01*
X114110871Y-61956079D01*
X114110864Y-61956092D01*
X114035450Y-62138160D01*
X114035447Y-62138170D01*
X113997000Y-62331456D01*
X113997000Y-62331459D01*
X113997000Y-62528541D01*
X113997000Y-62528543D01*
X113996999Y-62528543D01*
X97278000Y-62528543D01*
X97278000Y-62528541D01*
X97278000Y-62331459D01*
X97278000Y-62331456D01*
X97239552Y-62138170D01*
X97239551Y-62138169D01*
X97239551Y-62138165D01*
X97239549Y-62138160D01*
X97164135Y-61956092D01*
X97164128Y-61956079D01*
X97054639Y-61792218D01*
X97054636Y-61792214D01*
X96915285Y-61652863D01*
X96915281Y-61652860D01*
X96751420Y-61543371D01*
X96751407Y-61543364D01*
X96569339Y-61467950D01*
X96569329Y-61467947D01*
X96388437Y-61431965D01*
X96326526Y-61399580D01*
X96291952Y-61338864D01*
X96295692Y-61269095D01*
X96336559Y-61212423D01*
X96393231Y-61187875D01*
X96581917Y-61157990D01*
X96776531Y-61094755D01*
X96958849Y-61001859D01*
X97124394Y-60881582D01*
X97124395Y-60881582D01*
X97269082Y-60736895D01*
X97269082Y-60736894D01*
X97389359Y-60571349D01*
X97482255Y-60389029D01*
X97545490Y-60194413D01*
X97554109Y-60140000D01*
X95910512Y-60140000D01*
X95943425Y-60082993D01*
X95977500Y-59955826D01*
X95977500Y-59824174D01*
X95943425Y-59697007D01*
X95910512Y-59640000D01*
X96027500Y-59640000D01*
X97554109Y-59640000D01*
X97545490Y-59585586D01*
X97482255Y-59390970D01*
X97389359Y-59208650D01*
X97269082Y-59043105D01*
X97269082Y-59043104D01*
X97124395Y-58898417D01*
X96958849Y-58778140D01*
X96865320Y-58730485D01*
X96814524Y-58682511D01*
X96797729Y-58614690D01*
X96820266Y-58548555D01*
X96865320Y-58509515D01*
X96958849Y-58461859D01*
X97124394Y-58341582D01*
X97124395Y-58341582D01*
X97269082Y-58196895D01*
X97269082Y-58196894D01*
X97389359Y-58031349D01*
X97482255Y-57849029D01*
X97545490Y-57654413D01*
X97554109Y-57600000D01*
X96027500Y-57600000D01*
X96027500Y-59640000D01*
X95910512Y-59640000D01*
X95877599Y-59582993D01*
X95784507Y-59489901D01*
X95670493Y-59424075D01*
X95543326Y-59390000D01*
X95527500Y-59390000D01*
X95527500Y-57850000D01*
X95543326Y-57850000D01*
X95670493Y-57815925D01*
X95784507Y-57750099D01*
X95877599Y-57657007D01*
X95943425Y-57542993D01*
X95977500Y-57415826D01*
X95977500Y-57284174D01*
X95943425Y-57157007D01*
X95910512Y-57100000D01*
X97554109Y-57100000D01*
X97545490Y-57045586D01*
X97482255Y-56850970D01*
X97389359Y-56668650D01*
X97269082Y-56503105D01*
X97269082Y-56503104D01*
X97124395Y-56358417D01*
X96958849Y-56238140D01*
X96776531Y-56145244D01*
X96581917Y-56082009D01*
X96393231Y-56052124D01*
X96330096Y-56022194D01*
X96293165Y-55962883D01*
X96294163Y-55893020D01*
X96332773Y-55834788D01*
X96388438Y-55808034D01*
X96569335Y-55772051D01*
X96751414Y-55696632D01*
X96915282Y-55587139D01*
X97054639Y-55447782D01*
X97164132Y-55283914D01*
X97239551Y-55101835D01*
X97278000Y-54908541D01*
X97278000Y-54711459D01*
X97278000Y-54711456D01*
X97239552Y-54518170D01*
X97239551Y-54518169D01*
X97239551Y-54518165D01*
X97239549Y-54518160D01*
X97164135Y-54336092D01*
X97164128Y-54336079D01*
X97054639Y-54172218D01*
X97054636Y-54172214D01*
X96915285Y-54032863D01*
X96915281Y-54032860D01*
X96751420Y-53923371D01*
X96751407Y-53923364D01*
X96569339Y-53847950D01*
X96569329Y-53847947D01*
X96376043Y-53809500D01*
X96376041Y-53809500D01*
X95178959Y-53809500D01*
X95178957Y-53809500D01*
X94985670Y-53847947D01*
X94985660Y-53847950D01*
X94803592Y-53923364D01*
X94803579Y-53923371D01*
X94639718Y-54032860D01*
X94639714Y-54032863D01*
X94500363Y-54172214D01*
X94500360Y-54172218D01*
X94390871Y-54336079D01*
X94390864Y-54336092D01*
X94315450Y-54518160D01*
X94315447Y-54518170D01*
X94277000Y-54711456D01*
X94277000Y-54711459D01*
X94277000Y-54908541D01*
X94277000Y-54908543D01*
X94276999Y-54908543D01*
X94315447Y-55101829D01*
X94315450Y-55101839D01*
X94390864Y-55283907D01*
X94390871Y-55283920D01*
X94500360Y-55447781D01*
X94500363Y-55447785D01*
X94639714Y-55587136D01*
X94639718Y-55587139D01*
X94803579Y-55696628D01*
X94803592Y-55696635D01*
X94985660Y-55772049D01*
X94985665Y-55772051D01*
X95118174Y-55798409D01*
X95166561Y-55808034D01*
X95228472Y-55840419D01*
X95263046Y-55901134D01*
X95259307Y-55970904D01*
X95218440Y-56027576D01*
X95161769Y-56052124D01*
X94973081Y-56082010D01*
X94778468Y-56145244D01*
X94596150Y-56238140D01*
X94430605Y-56358417D01*
X94430604Y-56358417D01*
X94285917Y-56503104D01*
X94285917Y-56503105D01*
X94165640Y-56668650D01*
X94072744Y-56850970D01*
X94009509Y-57045586D01*
X94000891Y-57100000D01*
X90590500Y-57100000D01*
X90590500Y-51665730D01*
X94277000Y-51665730D01*
X94277000Y-52874269D01*
X94279853Y-52904699D01*
X94279853Y-52904701D01*
X94324706Y-53032880D01*
X94324707Y-53032882D01*
X94405350Y-53142150D01*
X94514618Y-53222793D01*
X94557345Y-53237744D01*
X94642799Y-53267646D01*
X94673230Y-53270500D01*
X94673234Y-53270500D01*
X96881770Y-53270500D01*
X96912199Y-53267646D01*
X96912201Y-53267646D01*
X96976290Y-53245219D01*
X97040382Y-53222793D01*
X97149650Y-53142150D01*
X97230293Y-53032882D01*
X97252719Y-52968790D01*
X97275146Y-52904701D01*
X97275146Y-52904699D01*
X97278000Y-52874269D01*
X97278000Y-51665730D01*
X97275146Y-51635300D01*
X97275146Y-51635298D01*
X97230293Y-51507119D01*
X97230292Y-51507117D01*
X97149650Y-51397850D01*
X97040382Y-51317207D01*
X97040380Y-51317206D01*
X96912200Y-51272353D01*
X96881770Y-51269500D01*
X96881766Y-51269500D01*
X94673234Y-51269500D01*
X94673230Y-51269500D01*
X94642800Y-51272353D01*
X94642798Y-51272353D01*
X94514619Y-51317206D01*
X94514617Y-51317207D01*
X94405350Y-51397850D01*
X94324707Y-51507117D01*
X94324706Y-51507119D01*
X94279853Y-51635298D01*
X94279853Y-51635300D01*
X94277000Y-51665730D01*
X90590500Y-51665730D01*
X90590500Y-47672706D01*
X90590618Y-47667297D01*
X90593377Y-47604108D01*
X90607386Y-47283226D01*
X90608326Y-47272495D01*
X90658152Y-46894025D01*
X90660025Y-46883405D01*
X90742649Y-46510709D01*
X90745440Y-46500295D01*
X90860230Y-46136227D01*
X90863917Y-46126095D01*
X91010003Y-45773412D01*
X91014561Y-45763638D01*
X91190822Y-45425045D01*
X91196217Y-45415700D01*
X91401325Y-45093744D01*
X91407515Y-45084905D01*
X91639896Y-44782060D01*
X91646834Y-44773791D01*
X91904726Y-44492352D01*
X91912352Y-44484726D01*
X92193791Y-44226834D01*
X92202060Y-44219896D01*
X92504905Y-43987515D01*
X92513744Y-43981325D01*
X92835700Y-43776217D01*
X92845045Y-43770822D01*
X93183638Y-43594561D01*
X93193412Y-43590003D01*
X93546095Y-43443917D01*
X93556227Y-43440230D01*
X93920295Y-43325440D01*
X93930709Y-43322649D01*
X94303405Y-43240025D01*
X94314025Y-43238152D01*
X94692495Y-43188326D01*
X94703226Y-43187386D01*
X95087297Y-43170617D01*
X95092706Y-43170500D01*
X95155892Y-43170500D01*
X149544108Y-43170500D01*
X149607294Y-43170500D01*
X149612702Y-43170617D01*
G37*
%TD.AperFunction*%
%TD*%
M02*
