%TF.GenerationSoftware,KiCad,Pcbnew,9.0.7*%
%TF.CreationDate,2026-03-23T18:14:06-04:00*%
%TF.ProjectId,ADC-Testing,4144432d-5465-4737-9469-6e672e6b6963,rev?*%
%TF.SameCoordinates,Original*%
%TF.FileFunction,Copper,L1,Top*%
%TF.FilePolarity,Positive*%
%FSLAX46Y46*%
G04 Gerber Fmt 4.6, Leading zero omitted, Abs format (unit mm)*
G04 Created by KiCad (PCBNEW 9.0.7) date 2026-03-23 18:14:06*
%MOMM*%
%LPD*%
G01*
G04 APERTURE LIST*
G04 Aperture macros list*
%AMRoundRect*
0 Rectangle with rounded corners*
0 $1 Rounding radius*
0 $2 $3 $4 $5 $6 $7 $8 $9 X,Y pos of 4 corners*
0 Add a 4 corners polygon primitive as box body*
4,1,4,$2,$3,$4,$5,$6,$7,$8,$9,$2,$3,0*
0 Add four circle primitives for the rounded corners*
1,1,$1+$1,$2,$3*
1,1,$1+$1,$4,$5*
1,1,$1+$1,$6,$7*
1,1,$1+$1,$8,$9*
0 Add four rect primitives between the rounded corners*
20,1,$1+$1,$2,$3,$4,$5,0*
20,1,$1+$1,$4,$5,$6,$7,0*
20,1,$1+$1,$6,$7,$8,$9,0*
20,1,$1+$1,$8,$9,$2,$3,0*%
G04 Aperture macros list end*
%TA.AperFunction,SMDPad,CuDef*%
%ADD10RoundRect,0.250000X0.475000X-0.337500X0.475000X0.337500X-0.475000X0.337500X-0.475000X-0.337500X0*%
%TD*%
%TA.AperFunction,SMDPad,CuDef*%
%ADD11RoundRect,0.250000X-0.350000X-0.450000X0.350000X-0.450000X0.350000X0.450000X-0.350000X0.450000X0*%
%TD*%
%TA.AperFunction,SMDPad,CuDef*%
%ADD12RoundRect,0.250000X-0.337500X-0.475000X0.337500X-0.475000X0.337500X0.475000X-0.337500X0.475000X0*%
%TD*%
%TA.AperFunction,ComponentPad*%
%ADD13C,2.000000*%
%TD*%
%TA.AperFunction,SMDPad,CuDef*%
%ADD14RoundRect,0.250000X-0.475000X0.337500X-0.475000X-0.337500X0.475000X-0.337500X0.475000X0.337500X0*%
%TD*%
%TA.AperFunction,SMDPad,CuDef*%
%ADD15RoundRect,0.100000X-0.100000X0.637500X-0.100000X-0.637500X0.100000X-0.637500X0.100000X0.637500X0*%
%TD*%
%TA.AperFunction,ComponentPad*%
%ADD16RoundRect,0.250000X-0.550000X-0.550000X0.550000X-0.550000X0.550000X0.550000X-0.550000X0.550000X0*%
%TD*%
%TA.AperFunction,ComponentPad*%
%ADD17C,1.600000*%
%TD*%
%TA.AperFunction,SMDPad,CuDef*%
%ADD18RoundRect,0.250000X0.337500X0.475000X-0.337500X0.475000X-0.337500X-0.475000X0.337500X-0.475000X0*%
%TD*%
%TA.AperFunction,ComponentPad*%
%ADD19RoundRect,0.250000X-1.050000X-0.550000X1.050000X-0.550000X1.050000X0.550000X-1.050000X0.550000X0*%
%TD*%
%TA.AperFunction,ComponentPad*%
%ADD20O,2.600000X1.600000*%
%TD*%
%TA.AperFunction,SMDPad,CuDef*%
%ADD21RoundRect,0.150000X-0.512500X-0.150000X0.512500X-0.150000X0.512500X0.150000X-0.512500X0.150000X0*%
%TD*%
%TA.AperFunction,SMDPad,CuDef*%
%ADD22RoundRect,0.250000X0.325000X0.450000X-0.325000X0.450000X-0.325000X-0.450000X0.325000X-0.450000X0*%
%TD*%
%TA.AperFunction,SMDPad,CuDef*%
%ADD23RoundRect,0.250000X-0.450000X0.350000X-0.450000X-0.350000X0.450000X-0.350000X0.450000X0.350000X0*%
%TD*%
%TA.AperFunction,SMDPad,CuDef*%
%ADD24RoundRect,0.100000X-0.650000X-0.100000X0.650000X-0.100000X0.650000X0.100000X-0.650000X0.100000X0*%
%TD*%
%TA.AperFunction,ViaPad*%
%ADD25C,0.800000*%
%TD*%
%TA.AperFunction,Conductor*%
%ADD26C,0.400000*%
%TD*%
%TA.AperFunction,Conductor*%
%ADD27C,0.800000*%
%TD*%
%TA.AperFunction,Conductor*%
%ADD28C,0.600000*%
%TD*%
%TA.AperFunction,Conductor*%
%ADD29C,0.500000*%
%TD*%
%TA.AperFunction,Conductor*%
%ADD30C,0.200000*%
%TD*%
%TA.AperFunction,Conductor*%
%ADD31C,0.700000*%
%TD*%
%TA.AperFunction,Conductor*%
%ADD32C,1.000000*%
%TD*%
%TA.AperFunction,Conductor*%
%ADD33C,0.430000*%
%TD*%
G04 APERTURE END LIST*
D10*
%TO.P,C3,1*%
%TO.N,VDD*%
X119420000Y-64397500D03*
%TO.P,C3,2*%
%TO.N,GND*%
X119420000Y-62322500D03*
%TD*%
D11*
%TO.P,R1,1*%
%TO.N,Net-(U1-D1)*%
X119130000Y-82720000D03*
%TO.P,R1,2*%
%TO.N,Net-(D1-A)*%
X121130000Y-82720000D03*
%TD*%
D12*
%TO.P,C9,1*%
%TO.N,Net-(U2-REFIN+{slash}OUT)*%
X141062500Y-79030000D03*
%TO.P,C9,2*%
%TO.N,GND*%
X143137500Y-79030000D03*
%TD*%
D13*
%TO.P,TP1,1,1*%
%TO.N,Net-(DUT1-VIN)*%
X136820000Y-74780000D03*
%TD*%
D12*
%TO.P,C11,1*%
%TO.N,VDDA*%
X131692500Y-74700000D03*
%TO.P,C11,2*%
%TO.N,GND*%
X133767500Y-74700000D03*
%TD*%
D14*
%TO.P,C10,1*%
%TO.N,Net-(U1-D0)*%
X119300000Y-86732500D03*
%TO.P,C10,2*%
%TO.N,GND*%
X119300000Y-88807500D03*
%TD*%
D10*
%TO.P,C2,1*%
%TO.N,VDD*%
X121680000Y-64387500D03*
%TO.P,C2,2*%
%TO.N,GND*%
X121680000Y-62312500D03*
%TD*%
D15*
%TO.P,U2,1,AV_{DD}*%
%TO.N,VDDA*%
X141885000Y-83715000D03*
%TO.P,U2,2,A_{GND}*%
%TO.N,GND*%
X141235000Y-83715000D03*
%TO.P,U2,3,REFIN-*%
X140585000Y-83715000D03*
%TO.P,U2,4,REFIN+/OUT*%
%TO.N,Net-(U2-REFIN+{slash}OUT)*%
X139935000Y-83715000D03*
%TO.P,U2,5,CH0*%
%TO.N,Net-(DUT1-VIN)*%
X139285000Y-83715000D03*
%TO.P,U2,6,CH1*%
%TO.N,/Iout*%
X138635000Y-83715000D03*
%TO.P,U2,7*%
%TO.N,N/C*%
X137985000Y-83715000D03*
%TO.P,U2,8*%
X137335000Y-83715000D03*
%TO.P,U2,9*%
X136685000Y-83715000D03*
%TO.P,U2,10*%
X136035000Y-83715000D03*
%TO.P,U2,11*%
X136035000Y-89440000D03*
%TO.P,U2,12*%
X136685000Y-89440000D03*
%TO.P,U2,13,~{CS}*%
%TO.N,/CS1*%
X137335000Y-89440000D03*
%TO.P,U2,14,SCLK*%
%TO.N,/SCK*%
X137985000Y-89440000D03*
%TO.P,U2,15,SDI*%
%TO.N,/MOSI*%
X138635000Y-89440000D03*
%TO.P,U2,16,SDO*%
%TO.N,/MISO*%
X139285000Y-89440000D03*
%TO.P,U2,17,~{IRQ}/MDAT*%
%TO.N,unconnected-(U2-~{IRQ}{slash}MDAT-Pad17)*%
X139935000Y-89440000D03*
%TO.P,U2,18,MCLK*%
%TO.N,unconnected-(U2-MCLK-Pad18)*%
X140585000Y-89440000D03*
%TO.P,U2,19,D_{GND}*%
%TO.N,GND*%
X141235000Y-89440000D03*
%TO.P,U2,20,DV_{DD}*%
%TO.N,VDD*%
X141885000Y-89440000D03*
%TD*%
D14*
%TO.P,C1,1*%
%TO.N,/USB*%
X118850001Y-66782500D03*
%TO.P,C1,2*%
%TO.N,GND*%
X118850001Y-68857500D03*
%TD*%
D13*
%TO.P,SW1,1,1*%
%TO.N,VDD*%
X131720000Y-92210000D03*
X125220000Y-92210000D03*
%TO.P,SW1,2,2*%
%TO.N,Net-(U1-D0)*%
X131720000Y-87710000D03*
X125220000Y-87710000D03*
%TD*%
D16*
%TO.P,DUT1,1,VDD*%
%TO.N,VDDA*%
X141850000Y-70520000D03*
D17*
%TO.P,DUT1,2,GND*%
%TO.N,Net-(DUT1-GND)*%
X141850000Y-73060000D03*
%TO.P,DUT1,3,VIN*%
%TO.N,Net-(DUT1-VIN)*%
X141850000Y-75600000D03*
%TO.P,DUT1,4,SCK*%
%TO.N,/SCK*%
X149470000Y-75600000D03*
%TO.P,DUT1,5,SDATA*%
%TO.N,/MISO*%
X149470000Y-73060000D03*
%TO.P,DUT1,6,~{CS}*%
%TO.N,/CS2*%
X149470000Y-70520000D03*
%TD*%
D18*
%TO.P,C6,1*%
%TO.N,VDDA*%
X143137500Y-81177500D03*
%TO.P,C6,2*%
%TO.N,GND*%
X141062500Y-81177500D03*
%TD*%
D14*
%TO.P,C7,1*%
%TO.N,VDDA*%
X149687500Y-84912499D03*
%TO.P,C7,2*%
%TO.N,GND*%
X149687500Y-86987499D03*
%TD*%
D19*
%TO.P,U1,1,~{RESET}*%
%TO.N,unconnected-(U1-~{RESET}-Pad1)*%
X95777500Y-52270000D03*
D20*
%TO.P,U1,2,3V3*%
%TO.N,VDD*%
X95777500Y-54810000D03*
%TO.P,U1,3,AREF*%
%TO.N,GND*%
X95777500Y-57350000D03*
%TO.P,U1,4,GND*%
X95777500Y-59890000D03*
%TO.P,U1,5,A0*%
%TO.N,unconnected-(U1-A0-Pad5)*%
X95777500Y-62430000D03*
%TO.P,U1,6,A1*%
%TO.N,unconnected-(U1-A1-Pad6)*%
X95777500Y-64970000D03*
%TO.P,U1,7,A2*%
%TO.N,unconnected-(U1-A2-Pad7)*%
X95777500Y-67510000D03*
%TO.P,U1,8,A3*%
%TO.N,unconnected-(U1-A3-Pad8)*%
X95777500Y-70050000D03*
%TO.P,U1,9,A4*%
%TO.N,unconnected-(U1-A4-Pad9)*%
X95777500Y-72590000D03*
%TO.P,U1,10,A5*%
%TO.N,unconnected-(U1-A5-Pad10)*%
X95777500Y-75130000D03*
%TO.P,U1,11,SCK*%
%TO.N,/SCK*%
X95777500Y-77670000D03*
%TO.P,U1,12,MOSI*%
%TO.N,/MOSI*%
X95777500Y-80210000D03*
%TO.P,U1,13,MISO*%
%TO.N,/MISO*%
X95777500Y-82750000D03*
%TO.P,U1,14,RX*%
%TO.N,unconnected-(U1-RX-Pad14)*%
X95777500Y-85290000D03*
%TO.P,U1,15,TX*%
%TO.N,unconnected-(U1-TX-Pad15)*%
X95777500Y-87830000D03*
%TO.P,U1,16,SPARE*%
%TO.N,unconnected-(U1-SPARE-Pad16)*%
X95777500Y-90370000D03*
%TO.P,U1,17,SDA*%
%TO.N,unconnected-(U1-SDA-Pad17)*%
X115497500Y-90370000D03*
%TO.P,U1,18,SCL*%
%TO.N,unconnected-(U1-SCL-Pad18)*%
X115497500Y-87830000D03*
%TO.P,U1,19,D0*%
%TO.N,Net-(U1-D0)*%
X115497500Y-85290000D03*
%TO.P,U1,20,D1*%
%TO.N,Net-(U1-D1)*%
X115497500Y-82750000D03*
%TO.P,U1,21,D2*%
%TO.N,/CS1*%
X115497500Y-80210000D03*
%TO.P,U1,22,D3*%
%TO.N,/CS2*%
X115497500Y-77670000D03*
%TO.P,U1,23,D4*%
%TO.N,/CS3*%
X115497500Y-75130000D03*
%TO.P,U1,24,D5*%
%TO.N,unconnected-(U1-D5-Pad24)*%
X115497500Y-72590000D03*
%TO.P,U1,25,D6*%
%TO.N,unconnected-(U1-D6-Pad25)*%
X115497500Y-70050000D03*
%TO.P,U1,26,USB*%
%TO.N,/USB*%
X115497500Y-67510000D03*
%TO.P,U1,27,EN*%
%TO.N,VDD*%
X115497500Y-64970000D03*
%TO.P,U1,28,VBAT*%
%TO.N,unconnected-(U1-VBAT-Pad28)*%
X115497500Y-62430000D03*
%TD*%
D21*
%TO.P,U4,1,IP+*%
%TO.N,Net-(DUT1-GND)*%
X145410000Y-84949999D03*
%TO.P,U4,2,IP-*%
%TO.N,GND*%
X145410000Y-85899999D03*
%TO.P,U4,3,GND*%
X145410000Y-86849999D03*
%TO.P,U4,4,VOUT*%
%TO.N,/Iout*%
X147685000Y-86849999D03*
%TO.P,U4,5,VDD*%
%TO.N,VDDA*%
X147685000Y-84949999D03*
%TD*%
D18*
%TO.P,C5,1*%
%TO.N,VDDA*%
X123595001Y-72620000D03*
%TO.P,C5,2*%
%TO.N,GND*%
X121520001Y-72620000D03*
%TD*%
D22*
%TO.P,D1,1,K*%
%TO.N,GND*%
X125152500Y-82750000D03*
%TO.P,D1,2,A*%
%TO.N,Net-(D1-A)*%
X123102500Y-82750000D03*
%TD*%
D21*
%TO.P,U3,1,~{SYNC}*%
%TO.N,/CS3*%
X130052500Y-70737500D03*
%TO.P,U3,2,SCLK*%
%TO.N,/MOSI*%
X130052500Y-71687500D03*
%TO.P,U3,3,D_{IN}*%
%TO.N,/SCK*%
X130052500Y-72637500D03*
%TO.P,U3,4,VDD*%
%TO.N,VDDA*%
X132327500Y-72637500D03*
%TO.P,U3,5,GND*%
%TO.N,GND*%
X132327500Y-71687500D03*
%TO.P,U3,6,V_{OUT}*%
%TO.N,Net-(DUT1-VIN)*%
X132327500Y-70737500D03*
%TD*%
D12*
%TO.P,C8,1*%
%TO.N,VDDA*%
X141282500Y-67750000D03*
%TO.P,C8,2*%
%TO.N,GND*%
X143357500Y-67750000D03*
%TD*%
D18*
%TO.P,C4,1*%
%TO.N,VDDA*%
X123585001Y-70550000D03*
%TO.P,C4,2*%
%TO.N,GND*%
X121510001Y-70550000D03*
%TD*%
D23*
%TO.P,R2,1*%
%TO.N,Net-(U1-D0)*%
X121640000Y-86760000D03*
%TO.P,R2,2*%
%TO.N,GND*%
X121640000Y-88760000D03*
%TD*%
D24*
%TO.P,U5,1,~{SHDN}*%
%TO.N,/USB*%
X121200000Y-67090000D03*
%TO.P,U5,2*%
%TO.N,N/C*%
X121200000Y-67740000D03*
%TO.P,U5,3,GND*%
%TO.N,GND*%
X121200000Y-68390000D03*
%TO.P,U5,4,VOUT*%
%TO.N,VDDA*%
X123860000Y-68390000D03*
%TO.P,U5,5,VIN*%
%TO.N,/USB*%
X123860000Y-67090000D03*
%TD*%
D25*
%TO.N,GND*%
X120500000Y-88760000D03*
X141220000Y-88210000D03*
X135769149Y-75986532D03*
X139760000Y-76700000D03*
X120530000Y-62312500D03*
X133257500Y-71687500D03*
X138025686Y-78424314D03*
X136020000Y-78019815D03*
X135552782Y-73803186D03*
X144550000Y-67670000D03*
X136991409Y-72628616D03*
X139155686Y-79554314D03*
X137854153Y-73559125D03*
X140910000Y-82520000D03*
X126070000Y-82750000D03*
X138485000Y-81710000D03*
X139780000Y-74500000D03*
X138568123Y-74500000D03*
X146500000Y-86849998D03*
X137804314Y-80465686D03*
X138417818Y-76700000D03*
X134915858Y-70553064D03*
X121520000Y-69450000D03*
X136714314Y-79375686D03*
%TO.N,VDDA*%
X131692500Y-73470000D03*
X142292500Y-82022500D03*
X123595000Y-69430000D03*
X148670000Y-84980000D03*
%TO.N,/CS2*%
X124070000Y-77670000D03*
%TO.N,/MISO*%
X139280000Y-87060000D03*
%TO.N,/SCK*%
X137985000Y-86085000D03*
X131820000Y-79830000D03*
%TO.N,/MOSI*%
X121510000Y-76450000D03*
X138520000Y-91400000D03*
%TD*%
D26*
%TO.N,VDD*%
X140690000Y-92210000D02*
X131720000Y-92210000D01*
X141885000Y-91015000D02*
X140690000Y-92210000D01*
X141885000Y-89440000D02*
X141885000Y-91015000D01*
%TO.N,GND*%
X140910000Y-83715000D02*
X141235000Y-83715000D01*
X140910000Y-82520000D02*
X140910000Y-83715000D01*
D27*
X143437500Y-67670000D02*
X144550000Y-67670000D01*
D26*
X141235000Y-89440000D02*
X141235000Y-88225000D01*
D27*
X125152499Y-82750000D02*
X126070000Y-82750000D01*
D28*
X133767500Y-74700000D02*
X133767500Y-72197500D01*
D29*
X149549999Y-86849998D02*
X147685000Y-86849998D01*
D27*
X121680000Y-62312500D02*
X119430000Y-62312500D01*
D29*
X145410000Y-86849998D02*
X147685000Y-86849998D01*
D28*
X121392500Y-68689999D02*
X119017502Y-68689999D01*
D30*
X141235000Y-81350000D02*
X141062500Y-81177500D01*
D28*
X133767500Y-72197500D02*
X133257500Y-71687500D01*
D26*
X141234999Y-83715000D02*
X141235000Y-81350000D01*
D28*
X133257500Y-71687500D02*
X132327500Y-71687500D01*
D26*
X141062500Y-81105000D02*
X143137500Y-79030000D01*
D30*
X119430000Y-62312500D02*
X119420000Y-62322500D01*
D27*
X121640000Y-88760000D02*
X119347500Y-88760000D01*
D30*
X119347500Y-88760000D02*
X119300000Y-88807500D01*
D31*
X121520000Y-72620000D02*
X121520000Y-68817500D01*
D29*
X143357500Y-67750000D02*
X143437500Y-67670000D01*
D30*
X141235000Y-88225000D02*
X141220000Y-88210000D01*
X149687500Y-86987499D02*
X149549999Y-86849998D01*
D26*
X140585000Y-83715000D02*
X140910000Y-83715000D01*
D30*
X141062500Y-81177500D02*
X141062500Y-81105000D01*
D28*
%TO.N,/USB*%
X120900001Y-66790001D02*
X121150000Y-67040000D01*
D30*
X115797500Y-67510000D02*
X116227501Y-67940001D01*
D28*
X121150000Y-67040000D02*
X123810000Y-67040000D01*
X116517499Y-66790001D02*
X120900001Y-66790001D01*
X115797500Y-67510000D02*
X116517499Y-66790001D01*
X123810000Y-67040000D02*
X123860000Y-67090000D01*
D32*
%TO.N,VDD*%
X115797500Y-64970000D02*
X116380000Y-64387500D01*
X115797500Y-64970000D02*
X113500000Y-64970000D01*
X113300000Y-92210000D02*
X125220000Y-92210000D01*
X113500000Y-64970000D02*
X112290000Y-66180000D01*
X116380000Y-64387500D02*
X121680000Y-64387500D01*
X112290000Y-66180000D02*
X112290000Y-91200000D01*
X125220000Y-92210000D02*
X131720000Y-92210000D01*
X112290000Y-91200000D02*
X113300000Y-92210000D01*
D30*
%TO.N,VDDA*%
X149649999Y-84950000D02*
X149687500Y-84912499D01*
D26*
X141885000Y-82430000D02*
X143137501Y-81177500D01*
D27*
X141850000Y-68317500D02*
X141282500Y-67750000D01*
D30*
X147722501Y-84912499D02*
X147685000Y-84950000D01*
D29*
X147685000Y-84950000D02*
X149649999Y-84950000D01*
D28*
X131692500Y-73272500D02*
X131692500Y-74700000D01*
D31*
X123594999Y-72620000D02*
X123594999Y-68655001D01*
D26*
X141885000Y-83715000D02*
X141885000Y-82430000D01*
D31*
X123594999Y-68655001D02*
X123860000Y-68390000D01*
D28*
X132327500Y-72637500D02*
X131692500Y-73272500D01*
D27*
X141850000Y-70520000D02*
X141850000Y-68317500D01*
D33*
%TO.N,Net-(U2-REFIN+{slash}OUT)*%
X139935000Y-83715000D02*
X139935000Y-80157500D01*
X139935000Y-80157500D02*
X141062500Y-79030000D01*
D32*
%TO.N,Net-(U1-D0)*%
X117857500Y-85290000D02*
X119300000Y-86732500D01*
D30*
X119497500Y-86732500D02*
X119525000Y-86760000D01*
X119300000Y-86732500D02*
X119497500Y-86732500D01*
D32*
X124269999Y-86760000D02*
X125219999Y-87710000D01*
X125219999Y-87710000D02*
X131719999Y-87710000D01*
X115797500Y-85290000D02*
X117857500Y-85290000D01*
X131719999Y-87710000D02*
X131720000Y-87709999D01*
X119525000Y-86760000D02*
X121640000Y-86760000D01*
X121640000Y-86760000D02*
X124269999Y-86760000D01*
D30*
%TO.N,Net-(D1-A)*%
X123072501Y-82720000D02*
X123102501Y-82750000D01*
D32*
X121130000Y-82720000D02*
X123072501Y-82720000D01*
D29*
%TO.N,/CS2*%
X124070000Y-77670000D02*
X115797500Y-77670000D01*
D28*
%TO.N,Net-(DUT1-GND)*%
X145410000Y-84950000D02*
X145410000Y-76620000D01*
X145410000Y-76620000D02*
X141850000Y-73060000D01*
D26*
%TO.N,/MISO*%
X139285000Y-89440000D02*
X139285000Y-87075000D01*
D30*
X139285000Y-87075000D02*
X139280000Y-87070000D01*
D32*
%TO.N,Net-(DUT1-VIN)*%
X137640000Y-75600000D02*
X136820000Y-74780000D01*
X141850000Y-75600000D02*
X137640000Y-75600000D01*
D28*
X136820000Y-73730000D02*
X136820000Y-74780000D01*
X132327500Y-70737500D02*
X133827500Y-70737500D01*
D26*
X136820000Y-78350000D02*
X136820000Y-74780000D01*
X139285000Y-83715000D02*
X139285000Y-80815000D01*
X139285000Y-80815000D02*
X136820000Y-78350000D01*
D28*
X133827500Y-70737500D02*
X136820000Y-73730000D01*
D29*
%TO.N,/SCK*%
X130052500Y-72637500D02*
X130052500Y-78062500D01*
D30*
X137985000Y-86085000D02*
X137990000Y-86080000D01*
D26*
X137985000Y-89440000D02*
X137985000Y-86085000D01*
D29*
X130052500Y-78062500D02*
X131820000Y-79830000D01*
%TO.N,/CS3*%
X128842500Y-70737500D02*
X130052500Y-70737500D01*
X124450000Y-75130000D02*
X128842500Y-70737500D01*
X115797500Y-75130000D02*
X124450000Y-75130000D01*
D32*
%TO.N,Net-(U1-D1)*%
X115797500Y-82750000D02*
X115827500Y-82720000D01*
X115827500Y-82720000D02*
X119130000Y-82720000D01*
D30*
X115797500Y-82750000D02*
X116127500Y-83080000D01*
D26*
%TO.N,/CS1*%
X129690000Y-80210000D02*
X137335000Y-87855000D01*
X137335000Y-87855000D02*
X137335000Y-89440000D01*
X115797500Y-80210000D02*
X129690000Y-80210000D01*
%TO.N,/MOSI*%
X138635000Y-91285000D02*
X138520000Y-91400000D01*
D29*
X129390001Y-71687500D02*
X124637501Y-76440000D01*
X124637501Y-76440000D02*
X121470000Y-76440000D01*
D26*
X138635000Y-89440000D02*
X138635000Y-91285000D01*
D29*
X130052500Y-71687500D02*
X129390001Y-71687500D01*
D26*
%TO.N,/Iout*%
X138635000Y-84915000D02*
X139619999Y-85899999D01*
X138635000Y-83715000D02*
X138635000Y-84915000D01*
X139619999Y-85899999D02*
X147685000Y-85899999D01*
%TD*%
M02*
