%TF.GenerationSoftware,KiCad,Pcbnew,9.0.7*%
%TF.CreationDate,2026-03-23T18:14:06-04:00*%
%TF.ProjectId,ADC-Testing,4144432d-5465-4737-9469-6e672e6b6963,rev?*%
%TF.SameCoordinates,Original*%
%TF.FileFunction,Paste,Top*%
%TF.FilePolarity,Positive*%
%FSLAX46Y46*%
G04 Gerber Fmt 4.6, Leading zero omitted, Abs format (unit mm)*
G04 Created by KiCad (PCBNEW 9.0.7) date 2026-03-23 18:14:06*
%MOMM*%
%LPD*%
G01*
G04 APERTURE LIST*
G04 Aperture macros list*
%AMRoundRect*
0 Rectangle with rounded corners*
0 $1 Rounding radius*
0 $2 $3 $4 $5 $6 $7 $8 $9 X,Y pos of 4 corners*
0 Add a 4 corners polygon primitive as box body*
4,1,4,$2,$3,$4,$5,$6,$7,$8,$9,$2,$3,0*
0 Add four circle primitives for the rounded corners*
1,1,$1+$1,$2,$3*
1,1,$1+$1,$4,$5*
1,1,$1+$1,$6,$7*
1,1,$1+$1,$8,$9*
0 Add four rect primitives between the rounded corners*
20,1,$1+$1,$2,$3,$4,$5,0*
20,1,$1+$1,$4,$5,$6,$7,0*
20,1,$1+$1,$6,$7,$8,$9,0*
20,1,$1+$1,$8,$9,$2,$3,0*%
G04 Aperture macros list end*
%ADD10RoundRect,0.250000X0.475000X-0.337500X0.475000X0.337500X-0.475000X0.337500X-0.475000X-0.337500X0*%
%ADD11RoundRect,0.250000X-0.350000X-0.450000X0.350000X-0.450000X0.350000X0.450000X-0.350000X0.450000X0*%
%ADD12RoundRect,0.250000X-0.337500X-0.475000X0.337500X-0.475000X0.337500X0.475000X-0.337500X0.475000X0*%
%ADD13RoundRect,0.250000X-0.475000X0.337500X-0.475000X-0.337500X0.475000X-0.337500X0.475000X0.337500X0*%
%ADD14RoundRect,0.100000X-0.100000X0.637500X-0.100000X-0.637500X0.100000X-0.637500X0.100000X0.637500X0*%
%ADD15RoundRect,0.250000X0.337500X0.475000X-0.337500X0.475000X-0.337500X-0.475000X0.337500X-0.475000X0*%
%ADD16RoundRect,0.150000X-0.512500X-0.150000X0.512500X-0.150000X0.512500X0.150000X-0.512500X0.150000X0*%
%ADD17RoundRect,0.250000X0.325000X0.450000X-0.325000X0.450000X-0.325000X-0.450000X0.325000X-0.450000X0*%
%ADD18RoundRect,0.250000X-0.450000X0.350000X-0.450000X-0.350000X0.450000X-0.350000X0.450000X0.350000X0*%
%ADD19RoundRect,0.100000X-0.650000X-0.100000X0.650000X-0.100000X0.650000X0.100000X-0.650000X0.100000X0*%
G04 APERTURE END LIST*
D10*
%TO.C,C3*%
X119420000Y-64397500D03*
X119420000Y-62322500D03*
%TD*%
D11*
%TO.C,R1*%
X119130000Y-82720000D03*
X121130000Y-82720000D03*
%TD*%
D12*
%TO.C,C9*%
X141062500Y-79030000D03*
X143137500Y-79030000D03*
%TD*%
%TO.C,C11*%
X131692500Y-74700000D03*
X133767500Y-74700000D03*
%TD*%
D13*
%TO.C,C10*%
X119300000Y-86732500D03*
X119300000Y-88807500D03*
%TD*%
D10*
%TO.C,C2*%
X121680000Y-64387500D03*
X121680000Y-62312500D03*
%TD*%
D14*
%TO.C,U2*%
X141885000Y-83715000D03*
X141235000Y-83715000D03*
X140585000Y-83715000D03*
X139935000Y-83715000D03*
X139285000Y-83715000D03*
X138635000Y-83715000D03*
X137985000Y-83715000D03*
X137335000Y-83715000D03*
X136685000Y-83715000D03*
X136035000Y-83715000D03*
X136035000Y-89440000D03*
X136685000Y-89440000D03*
X137335000Y-89440000D03*
X137985000Y-89440000D03*
X138635000Y-89440000D03*
X139285000Y-89440000D03*
X139935000Y-89440000D03*
X140585000Y-89440000D03*
X141235000Y-89440000D03*
X141885000Y-89440000D03*
%TD*%
D13*
%TO.C,C1*%
X118850001Y-66782500D03*
X118850001Y-68857500D03*
%TD*%
D15*
%TO.C,C6*%
X143137500Y-81177500D03*
X141062500Y-81177500D03*
%TD*%
D13*
%TO.C,C7*%
X149687500Y-84912499D03*
X149687500Y-86987499D03*
%TD*%
D16*
%TO.C,U4*%
X145410000Y-84949999D03*
X145410000Y-85899999D03*
X145410000Y-86849999D03*
X147685000Y-86849999D03*
X147685000Y-84949999D03*
%TD*%
D15*
%TO.C,C5*%
X123595001Y-72620000D03*
X121520001Y-72620000D03*
%TD*%
D17*
%TO.C,D1*%
X125152500Y-82750000D03*
X123102500Y-82750000D03*
%TD*%
D16*
%TO.C,U3*%
X130052500Y-70737500D03*
X130052500Y-71687500D03*
X130052500Y-72637500D03*
X132327500Y-72637500D03*
X132327500Y-71687500D03*
X132327500Y-70737500D03*
%TD*%
D12*
%TO.C,C8*%
X141282500Y-67750000D03*
X143357500Y-67750000D03*
%TD*%
D15*
%TO.C,C4*%
X123585001Y-70550000D03*
X121510001Y-70550000D03*
%TD*%
D18*
%TO.C,R2*%
X121640000Y-86760000D03*
X121640000Y-88760000D03*
%TD*%
D19*
%TO.C,U5*%
X121200000Y-67090000D03*
X121200000Y-67740000D03*
X121200000Y-68390000D03*
X123860000Y-68390000D03*
X123860000Y-67090000D03*
%TD*%
M02*
