%TF.GenerationSoftware,KiCad,Pcbnew,8.0.4*%
%TF.CreationDate,2026-03-01T20:34:16-05:00*%
%TF.ProjectId,FDC1004-Q1_Breakout,46444331-3030-4342-9d51-315f42726561,rev?*%
%TF.SameCoordinates,Original*%
%TF.FileFunction,Copper,L2,Bot*%
%TF.FilePolarity,Positive*%
%FSLAX46Y46*%
G04 Gerber Fmt 4.6, Leading zero omitted, Abs format (unit mm)*
G04 Created by KiCad (PCBNEW 8.0.4) date 2026-03-01 20:34:16*
%MOMM*%
%LPD*%
G01*
G04 APERTURE LIST*
%TA.AperFunction,ComponentPad*%
%ADD10R,1.700000X1.700000*%
%TD*%
%TA.AperFunction,ComponentPad*%
%ADD11O,1.700000X1.700000*%
%TD*%
%TA.AperFunction,ViaPad*%
%ADD12C,0.600000*%
%TD*%
%TA.AperFunction,Conductor*%
%ADD13C,0.300000*%
%TD*%
G04 APERTURE END LIST*
D10*
%TO.P,J3,1,Pin_1*%
%TO.N,/SHLD2*%
X107000000Y-90800000D03*
D11*
%TO.P,J3,2,Pin_2*%
%TO.N,/CIN3*%
X109540000Y-90800000D03*
%TO.P,J3,3,Pin_3*%
%TO.N,/SHLD2*%
X112079999Y-90800000D03*
%TO.P,J3,4,Pin_4*%
%TO.N,/CIN4*%
X114620000Y-90800000D03*
%TO.P,J3,5,Pin_5*%
%TO.N,/SHLD2*%
X117160000Y-90800000D03*
%TD*%
D10*
%TO.P,J1,1,Pin_1*%
%TO.N,GND*%
X135200000Y-88300000D03*
D11*
%TO.P,J1,2,Pin_2*%
%TO.N,/VDD*%
X135200000Y-85760000D03*
%TO.P,J1,3,Pin_3*%
%TO.N,/SCL*%
X135200000Y-83220001D03*
%TO.P,J1,4,Pin_4*%
%TO.N,/SDA*%
X135200000Y-80680000D03*
%TD*%
D10*
%TO.P,J2,1,Pin_1*%
%TO.N,/SHLD1*%
X106980000Y-78200000D03*
D11*
%TO.P,J2,2,Pin_2*%
%TO.N,/CIN2*%
X109520000Y-78200000D03*
%TO.P,J2,3,Pin_3*%
%TO.N,/SHLD1*%
X112059999Y-78200000D03*
%TO.P,J2,4,Pin_4*%
%TO.N,/CIN1*%
X114600000Y-78200000D03*
%TO.P,J2,5,Pin_5*%
%TO.N,/SHLD1*%
X117140000Y-78200000D03*
%TD*%
D12*
%TO.N,GND*%
X120686205Y-85513795D03*
%TO.N,/SCL*%
X130700000Y-83900000D03*
X127400000Y-82800000D03*
%TO.N,/SHLD1*%
X109700000Y-83600000D03*
X116085766Y-83530706D03*
X112600000Y-82700000D03*
%TO.N,/SHLD2*%
X116100000Y-86600000D03*
X109700000Y-85700000D03*
X113600000Y-86000000D03*
%TD*%
D13*
%TO.N,/SCL*%
X127400000Y-82800000D02*
X128500000Y-83900000D01*
X128500000Y-83900000D02*
X130700000Y-83900000D01*
%TD*%
%TA.AperFunction,Conductor*%
%TO.N,GND*%
G36*
X136606922Y-74901280D02*
G01*
X136697266Y-74911459D01*
X136724331Y-74917636D01*
X136803540Y-74945352D01*
X136828553Y-74957398D01*
X136899606Y-75002043D01*
X136921313Y-75019355D01*
X136980644Y-75078686D01*
X136997957Y-75100395D01*
X137042600Y-75171444D01*
X137054648Y-75196462D01*
X137082362Y-75275666D01*
X137088540Y-75302735D01*
X137098720Y-75393076D01*
X137099500Y-75406961D01*
X137099500Y-93593038D01*
X137098720Y-93606923D01*
X137088540Y-93697264D01*
X137082362Y-93724333D01*
X137054648Y-93803537D01*
X137042600Y-93828555D01*
X136997957Y-93899604D01*
X136980644Y-93921313D01*
X136921313Y-93980644D01*
X136899604Y-93997957D01*
X136828555Y-94042600D01*
X136803537Y-94054648D01*
X136724333Y-94082362D01*
X136697264Y-94088540D01*
X136617075Y-94097576D01*
X136606921Y-94098720D01*
X136593038Y-94099500D01*
X118824000Y-94099500D01*
X118756961Y-94079815D01*
X118711206Y-94027011D01*
X118700000Y-93975500D01*
X118700000Y-82799996D01*
X126594435Y-82799996D01*
X126594435Y-82800003D01*
X126614630Y-82979249D01*
X126614631Y-82979254D01*
X126674211Y-83149523D01*
X126718495Y-83220000D01*
X126770184Y-83302262D01*
X126897738Y-83429816D01*
X127050478Y-83525789D01*
X127220745Y-83585368D01*
X127227974Y-83586182D01*
X127292388Y-83613246D01*
X127301776Y-83621722D01*
X128085325Y-84405272D01*
X128085326Y-84405273D01*
X128085329Y-84405275D01*
X128085331Y-84405277D01*
X128191873Y-84476465D01*
X128310256Y-84525501D01*
X128310260Y-84525501D01*
X128310261Y-84525502D01*
X128435928Y-84550500D01*
X128435931Y-84550500D01*
X130194932Y-84550500D01*
X130260904Y-84569506D01*
X130350477Y-84625789D01*
X130350481Y-84625790D01*
X130520737Y-84685366D01*
X130520743Y-84685367D01*
X130520745Y-84685368D01*
X130520746Y-84685368D01*
X130520750Y-84685369D01*
X130699996Y-84705565D01*
X130700000Y-84705565D01*
X130700004Y-84705565D01*
X130879249Y-84685369D01*
X130879252Y-84685368D01*
X130879255Y-84685368D01*
X131049522Y-84625789D01*
X131202262Y-84529816D01*
X131329816Y-84402262D01*
X131425789Y-84249522D01*
X131485368Y-84079255D01*
X131505565Y-83900000D01*
X131505321Y-83897835D01*
X131485369Y-83720750D01*
X131485368Y-83720745D01*
X131447752Y-83613246D01*
X131425789Y-83550478D01*
X131329816Y-83397738D01*
X131202262Y-83270184D01*
X131139096Y-83230494D01*
X131049523Y-83174211D01*
X130879254Y-83114631D01*
X130879249Y-83114630D01*
X130700004Y-83094435D01*
X130699996Y-83094435D01*
X130520750Y-83114630D01*
X130520737Y-83114633D01*
X130350481Y-83174209D01*
X130350477Y-83174210D01*
X130260904Y-83230494D01*
X130194932Y-83249500D01*
X128820808Y-83249500D01*
X128753769Y-83229815D01*
X128733127Y-83213181D01*
X128221722Y-82701776D01*
X128188237Y-82640453D01*
X128186182Y-82627973D01*
X128185368Y-82620745D01*
X128125789Y-82450478D01*
X128029816Y-82297738D01*
X127902262Y-82170184D01*
X127749523Y-82074211D01*
X127579254Y-82014631D01*
X127579249Y-82014630D01*
X127400004Y-81994435D01*
X127399996Y-81994435D01*
X127220750Y-82014630D01*
X127220745Y-82014631D01*
X127050476Y-82074211D01*
X126897737Y-82170184D01*
X126770184Y-82297737D01*
X126674211Y-82450476D01*
X126614631Y-82620745D01*
X126614630Y-82620750D01*
X126594435Y-82799996D01*
X118700000Y-82799996D01*
X118700000Y-80679999D01*
X133844341Y-80679999D01*
X133844341Y-80680000D01*
X133864936Y-80915403D01*
X133864938Y-80915413D01*
X133926094Y-81143655D01*
X133926096Y-81143659D01*
X133926097Y-81143663D01*
X134025965Y-81357830D01*
X134025967Y-81357834D01*
X134161501Y-81551395D01*
X134161506Y-81551402D01*
X134328597Y-81718493D01*
X134328603Y-81718498D01*
X134514158Y-81848425D01*
X134557783Y-81903002D01*
X134564977Y-81972500D01*
X134533454Y-82034855D01*
X134514159Y-82051575D01*
X134328594Y-82181509D01*
X134161505Y-82348598D01*
X134025965Y-82542170D01*
X134025964Y-82542172D01*
X133926098Y-82756336D01*
X133926094Y-82756345D01*
X133864938Y-82984587D01*
X133864936Y-82984597D01*
X133844341Y-83220000D01*
X133844341Y-83220001D01*
X133864936Y-83455404D01*
X133864938Y-83455414D01*
X133926094Y-83683656D01*
X133926096Y-83683660D01*
X133926097Y-83683664D01*
X133943391Y-83720750D01*
X134025965Y-83897831D01*
X134025967Y-83897835D01*
X134134281Y-84052522D01*
X134152995Y-84079249D01*
X134161501Y-84091396D01*
X134161506Y-84091403D01*
X134328597Y-84258494D01*
X134328603Y-84258499D01*
X134514157Y-84388425D01*
X134557782Y-84443002D01*
X134564976Y-84512500D01*
X134533453Y-84574855D01*
X134514158Y-84591575D01*
X134328594Y-84721508D01*
X134161505Y-84888597D01*
X134025965Y-85082169D01*
X134025964Y-85082171D01*
X133926098Y-85296335D01*
X133926094Y-85296344D01*
X133864938Y-85524586D01*
X133864936Y-85524596D01*
X133844341Y-85759999D01*
X133844341Y-85760000D01*
X133864936Y-85995403D01*
X133864938Y-85995413D01*
X133926094Y-86223655D01*
X133926096Y-86223659D01*
X133926097Y-86223663D01*
X134025965Y-86437830D01*
X134025967Y-86437834D01*
X134134281Y-86592521D01*
X134161501Y-86631396D01*
X134161506Y-86631402D01*
X134283818Y-86753714D01*
X134317303Y-86815037D01*
X134312319Y-86884729D01*
X134270447Y-86940662D01*
X134239471Y-86957577D01*
X134107912Y-87006646D01*
X134107906Y-87006649D01*
X133992812Y-87092809D01*
X133992809Y-87092812D01*
X133906649Y-87207906D01*
X133906645Y-87207913D01*
X133856403Y-87342620D01*
X133856401Y-87342627D01*
X133850000Y-87402155D01*
X133850000Y-88050000D01*
X134766988Y-88050000D01*
X134734075Y-88107007D01*
X134700000Y-88234174D01*
X134700000Y-88365826D01*
X134734075Y-88492993D01*
X134766988Y-88550000D01*
X133850000Y-88550000D01*
X133850000Y-89197844D01*
X133856401Y-89257372D01*
X133856403Y-89257379D01*
X133906645Y-89392086D01*
X133906649Y-89392093D01*
X133992809Y-89507187D01*
X133992812Y-89507190D01*
X134107906Y-89593350D01*
X134107913Y-89593354D01*
X134242620Y-89643596D01*
X134242627Y-89643598D01*
X134302155Y-89649999D01*
X134302172Y-89650000D01*
X134950000Y-89650000D01*
X134950000Y-88733012D01*
X135007007Y-88765925D01*
X135134174Y-88800000D01*
X135265826Y-88800000D01*
X135392993Y-88765925D01*
X135450000Y-88733012D01*
X135450000Y-89650000D01*
X136097828Y-89650000D01*
X136097844Y-89649999D01*
X136157372Y-89643598D01*
X136157379Y-89643596D01*
X136292086Y-89593354D01*
X136292093Y-89593350D01*
X136407187Y-89507190D01*
X136407190Y-89507187D01*
X136493350Y-89392093D01*
X136493354Y-89392086D01*
X136543596Y-89257379D01*
X136543598Y-89257372D01*
X136549999Y-89197844D01*
X136550000Y-89197827D01*
X136550000Y-88550000D01*
X135633012Y-88550000D01*
X135665925Y-88492993D01*
X135700000Y-88365826D01*
X135700000Y-88234174D01*
X135665925Y-88107007D01*
X135633012Y-88050000D01*
X136550000Y-88050000D01*
X136550000Y-87402172D01*
X136549999Y-87402155D01*
X136543598Y-87342627D01*
X136543596Y-87342620D01*
X136493354Y-87207913D01*
X136493350Y-87207906D01*
X136407190Y-87092812D01*
X136407187Y-87092809D01*
X136292093Y-87006649D01*
X136292088Y-87006646D01*
X136160528Y-86957577D01*
X136104595Y-86915705D01*
X136080178Y-86850241D01*
X136095030Y-86781968D01*
X136116175Y-86753720D01*
X136238495Y-86631401D01*
X136374035Y-86437830D01*
X136473903Y-86223663D01*
X136535063Y-85995408D01*
X136555659Y-85760000D01*
X136535063Y-85524592D01*
X136473903Y-85296337D01*
X136374035Y-85082171D01*
X136238495Y-84888599D01*
X136238494Y-84888597D01*
X136071402Y-84721506D01*
X136071401Y-84721505D01*
X135885842Y-84591575D01*
X135842218Y-84536998D01*
X135835025Y-84467499D01*
X135866547Y-84405145D01*
X135885843Y-84388425D01*
X136071401Y-84258496D01*
X136238495Y-84091402D01*
X136374035Y-83897831D01*
X136473903Y-83683664D01*
X136535063Y-83455409D01*
X136555659Y-83220001D01*
X136535063Y-82984593D01*
X136473903Y-82756338D01*
X136374035Y-82542172D01*
X136309831Y-82450478D01*
X136238494Y-82348598D01*
X136071402Y-82181507D01*
X136071401Y-82181506D01*
X135885839Y-82051574D01*
X135842216Y-81996998D01*
X135835023Y-81927499D01*
X135866545Y-81865145D01*
X135885837Y-81848428D01*
X136071401Y-81718495D01*
X136238495Y-81551401D01*
X136374035Y-81357830D01*
X136473903Y-81143663D01*
X136535063Y-80915408D01*
X136555659Y-80680000D01*
X136535063Y-80444592D01*
X136473903Y-80216337D01*
X136374035Y-80002171D01*
X136238495Y-79808599D01*
X136238494Y-79808597D01*
X136071402Y-79641506D01*
X136071395Y-79641501D01*
X135877834Y-79505967D01*
X135877830Y-79505965D01*
X135877828Y-79505964D01*
X135663663Y-79406097D01*
X135663659Y-79406096D01*
X135663655Y-79406094D01*
X135435413Y-79344938D01*
X135435403Y-79344936D01*
X135200001Y-79324341D01*
X135199999Y-79324341D01*
X134964596Y-79344936D01*
X134964586Y-79344938D01*
X134736344Y-79406094D01*
X134736335Y-79406098D01*
X134522171Y-79505964D01*
X134522169Y-79505965D01*
X134328597Y-79641505D01*
X134161505Y-79808597D01*
X134025965Y-80002169D01*
X134025964Y-80002171D01*
X133926098Y-80216335D01*
X133926094Y-80216344D01*
X133864938Y-80444586D01*
X133864936Y-80444596D01*
X133844341Y-80679999D01*
X118700000Y-80679999D01*
X118700000Y-75024500D01*
X118719685Y-74957461D01*
X118772489Y-74911706D01*
X118824000Y-74900500D01*
X136534108Y-74900500D01*
X136593038Y-74900500D01*
X136606922Y-74901280D01*
G37*
%TD.AperFunction*%
%TD*%
%TA.AperFunction,Conductor*%
%TO.N,/SHLD1*%
G36*
X117199436Y-74920185D02*
G01*
X117245191Y-74972989D01*
X117256395Y-75023900D01*
X117269405Y-77717036D01*
X117205826Y-77700000D01*
X117074174Y-77700000D01*
X116947007Y-77734075D01*
X116890000Y-77766988D01*
X116890000Y-76869364D01*
X116889999Y-76869364D01*
X116676513Y-76926567D01*
X116676507Y-76926570D01*
X116462422Y-77026399D01*
X116462420Y-77026400D01*
X116268926Y-77161886D01*
X116268920Y-77161891D01*
X116101891Y-77328920D01*
X116101890Y-77328922D01*
X115971880Y-77514595D01*
X115917303Y-77558219D01*
X115847804Y-77565412D01*
X115785450Y-77533890D01*
X115768730Y-77514594D01*
X115638494Y-77328597D01*
X115471402Y-77161506D01*
X115471395Y-77161501D01*
X115277834Y-77025967D01*
X115277830Y-77025965D01*
X115206727Y-76992809D01*
X115063663Y-76926097D01*
X115063659Y-76926096D01*
X115063655Y-76926094D01*
X114835413Y-76864938D01*
X114835403Y-76864936D01*
X114600001Y-76844341D01*
X114599999Y-76844341D01*
X114364596Y-76864936D01*
X114364586Y-76864938D01*
X114136344Y-76926094D01*
X114136335Y-76926098D01*
X113922171Y-77025964D01*
X113922169Y-77025965D01*
X113728597Y-77161505D01*
X113561505Y-77328597D01*
X113431269Y-77514595D01*
X113376692Y-77558220D01*
X113307194Y-77565414D01*
X113244839Y-77533891D01*
X113228119Y-77514595D01*
X113098112Y-77328927D01*
X113098107Y-77328920D01*
X112931081Y-77161894D01*
X112737577Y-77026399D01*
X112523491Y-76926570D01*
X112523485Y-76926567D01*
X112309999Y-76869364D01*
X112309999Y-77766988D01*
X112252992Y-77734075D01*
X112125825Y-77700000D01*
X111994173Y-77700000D01*
X111867006Y-77734075D01*
X111809999Y-77766988D01*
X111809999Y-76869364D01*
X111809998Y-76869364D01*
X111596512Y-76926567D01*
X111596506Y-76926570D01*
X111382421Y-77026399D01*
X111382419Y-77026400D01*
X111188925Y-77161886D01*
X111188919Y-77161891D01*
X111021890Y-77328920D01*
X111021889Y-77328922D01*
X110891879Y-77514595D01*
X110837302Y-77558219D01*
X110767803Y-77565412D01*
X110705449Y-77533890D01*
X110688730Y-77514595D01*
X110558495Y-77328599D01*
X110391401Y-77161505D01*
X110314854Y-77107906D01*
X110197834Y-77025967D01*
X110197830Y-77025965D01*
X110126727Y-76992809D01*
X109983663Y-76926097D01*
X109983659Y-76926096D01*
X109983655Y-76926094D01*
X109755413Y-76864938D01*
X109755403Y-76864936D01*
X109520001Y-76844341D01*
X109519999Y-76844341D01*
X109284596Y-76864936D01*
X109284586Y-76864938D01*
X109056344Y-76926094D01*
X109056335Y-76926098D01*
X108842171Y-77025964D01*
X108842169Y-77025965D01*
X108648600Y-77161503D01*
X108526284Y-77283819D01*
X108464961Y-77317303D01*
X108395269Y-77312319D01*
X108339336Y-77270447D01*
X108322421Y-77239470D01*
X108273354Y-77107913D01*
X108273350Y-77107906D01*
X108187190Y-76992812D01*
X108187187Y-76992809D01*
X108072093Y-76906649D01*
X108072086Y-76906645D01*
X107937379Y-76856403D01*
X107937372Y-76856401D01*
X107877844Y-76850000D01*
X107230000Y-76850000D01*
X107230000Y-77766988D01*
X107172993Y-77734075D01*
X107045826Y-77700000D01*
X106914174Y-77700000D01*
X106787007Y-77734075D01*
X106730000Y-77766988D01*
X106730000Y-76850000D01*
X106082155Y-76850000D01*
X106022627Y-76856401D01*
X106022620Y-76856403D01*
X105887913Y-76906645D01*
X105887906Y-76906649D01*
X105772812Y-76992809D01*
X105772809Y-76992812D01*
X105686649Y-77107906D01*
X105686645Y-77107913D01*
X105636403Y-77242620D01*
X105636401Y-77242627D01*
X105630000Y-77302155D01*
X105630000Y-77950000D01*
X106546988Y-77950000D01*
X106514075Y-78007007D01*
X106480000Y-78134174D01*
X106480000Y-78265826D01*
X106514075Y-78392993D01*
X106546988Y-78450000D01*
X105630000Y-78450000D01*
X105630000Y-79097844D01*
X105636401Y-79157372D01*
X105636403Y-79157379D01*
X105686645Y-79292086D01*
X105686649Y-79292093D01*
X105772809Y-79407187D01*
X105772812Y-79407190D01*
X105887906Y-79493350D01*
X105887913Y-79493354D01*
X106022620Y-79543596D01*
X106022627Y-79543598D01*
X106082155Y-79549999D01*
X106082172Y-79550000D01*
X106730000Y-79550000D01*
X106730000Y-78633012D01*
X106787007Y-78665925D01*
X106914174Y-78700000D01*
X107045826Y-78700000D01*
X107172993Y-78665925D01*
X107230000Y-78633012D01*
X107230000Y-79550000D01*
X107877828Y-79550000D01*
X107877844Y-79549999D01*
X107937372Y-79543598D01*
X107937379Y-79543596D01*
X108072086Y-79493354D01*
X108072093Y-79493350D01*
X108187187Y-79407190D01*
X108187190Y-79407187D01*
X108273350Y-79292093D01*
X108273354Y-79292086D01*
X108322422Y-79160529D01*
X108364293Y-79104595D01*
X108429757Y-79080178D01*
X108498030Y-79095030D01*
X108526285Y-79116181D01*
X108648599Y-79238495D01*
X108725135Y-79292086D01*
X108842165Y-79374032D01*
X108842167Y-79374033D01*
X108842170Y-79374035D01*
X109056337Y-79473903D01*
X109284592Y-79535063D01*
X109455319Y-79550000D01*
X109519999Y-79555659D01*
X109520000Y-79555659D01*
X109520001Y-79555659D01*
X109584681Y-79550000D01*
X109755408Y-79535063D01*
X109983663Y-79473903D01*
X110197830Y-79374035D01*
X110391401Y-79238495D01*
X110558495Y-79071401D01*
X110688731Y-78885403D01*
X110743305Y-78841781D01*
X110812804Y-78834587D01*
X110875159Y-78866110D01*
X110891878Y-78885405D01*
X111021889Y-79071078D01*
X111188916Y-79238105D01*
X111382420Y-79373600D01*
X111596506Y-79473429D01*
X111596515Y-79473433D01*
X111809999Y-79530634D01*
X111809999Y-78633012D01*
X111867006Y-78665925D01*
X111994173Y-78700000D01*
X112125825Y-78700000D01*
X112252992Y-78665925D01*
X112309999Y-78633012D01*
X112309999Y-79530633D01*
X112523482Y-79473433D01*
X112523491Y-79473429D01*
X112737577Y-79373600D01*
X112931081Y-79238105D01*
X113098104Y-79071082D01*
X113228119Y-78885404D01*
X113282696Y-78841779D01*
X113352195Y-78834587D01*
X113414549Y-78866109D01*
X113431269Y-78885405D01*
X113561281Y-79071082D01*
X113561505Y-79071401D01*
X113728599Y-79238495D01*
X113805135Y-79292086D01*
X113922165Y-79374032D01*
X113922167Y-79374033D01*
X113922170Y-79374035D01*
X114136337Y-79473903D01*
X114364592Y-79535063D01*
X114535319Y-79550000D01*
X114599999Y-79555659D01*
X114600000Y-79555659D01*
X114600001Y-79555659D01*
X114664681Y-79550000D01*
X114835408Y-79535063D01*
X115063663Y-79473903D01*
X115277830Y-79374035D01*
X115471401Y-79238495D01*
X115638495Y-79071401D01*
X115768730Y-78885405D01*
X115823307Y-78841781D01*
X115892805Y-78834587D01*
X115955160Y-78866110D01*
X115971879Y-78885405D01*
X116101890Y-79071078D01*
X116268917Y-79238105D01*
X116462421Y-79373600D01*
X116676507Y-79473429D01*
X116676516Y-79473433D01*
X116890000Y-79530634D01*
X116890000Y-78633012D01*
X116947007Y-78665925D01*
X117074174Y-78700000D01*
X117205826Y-78700000D01*
X117274065Y-78681714D01*
X117278468Y-79592998D01*
X117278467Y-79593000D01*
X117299398Y-83925401D01*
X117280037Y-83992535D01*
X117227455Y-84038544D01*
X117175399Y-84050000D01*
X103724500Y-84050000D01*
X103657461Y-84030315D01*
X103611706Y-83977511D01*
X103600500Y-83926000D01*
X103600500Y-75406961D01*
X103601280Y-75393077D01*
X103611459Y-75302731D01*
X103617635Y-75275670D01*
X103645353Y-75196456D01*
X103657396Y-75171450D01*
X103702046Y-75100389D01*
X103719351Y-75078690D01*
X103778690Y-75019351D01*
X103800389Y-75002046D01*
X103871450Y-74957396D01*
X103896456Y-74945353D01*
X103975670Y-74917635D01*
X104002733Y-74911459D01*
X104065419Y-74904396D01*
X104093079Y-74901280D01*
X104106962Y-74900500D01*
X117132397Y-74900500D01*
X117199436Y-74920185D01*
G37*
%TD.AperFunction*%
%TD*%
%TA.AperFunction,Conductor*%
%TO.N,/SHLD2*%
G36*
X117243039Y-85019685D02*
G01*
X117288794Y-85072489D01*
X117300000Y-85124000D01*
X117300000Y-90319875D01*
X117225826Y-90300000D01*
X117094174Y-90300000D01*
X116967007Y-90334075D01*
X116910000Y-90366988D01*
X116910000Y-89469364D01*
X116909999Y-89469364D01*
X116696513Y-89526567D01*
X116696507Y-89526570D01*
X116482422Y-89626399D01*
X116482420Y-89626400D01*
X116288926Y-89761886D01*
X116288920Y-89761891D01*
X116121891Y-89928920D01*
X116121890Y-89928922D01*
X115991880Y-90114595D01*
X115937303Y-90158219D01*
X115867804Y-90165412D01*
X115805450Y-90133890D01*
X115788730Y-90114594D01*
X115658494Y-89928597D01*
X115491402Y-89761506D01*
X115491395Y-89761501D01*
X115297834Y-89625967D01*
X115297830Y-89625965D01*
X115226727Y-89592809D01*
X115083663Y-89526097D01*
X115083659Y-89526096D01*
X115083655Y-89526094D01*
X114855413Y-89464938D01*
X114855403Y-89464936D01*
X114620001Y-89444341D01*
X114619999Y-89444341D01*
X114384596Y-89464936D01*
X114384586Y-89464938D01*
X114156344Y-89526094D01*
X114156335Y-89526098D01*
X113942171Y-89625964D01*
X113942169Y-89625965D01*
X113748597Y-89761505D01*
X113581505Y-89928597D01*
X113451269Y-90114595D01*
X113396692Y-90158220D01*
X113327194Y-90165414D01*
X113264839Y-90133891D01*
X113248119Y-90114595D01*
X113118112Y-89928927D01*
X113118107Y-89928920D01*
X112951081Y-89761894D01*
X112757577Y-89626399D01*
X112543491Y-89526570D01*
X112543485Y-89526567D01*
X112329999Y-89469364D01*
X112329999Y-90366988D01*
X112272992Y-90334075D01*
X112145825Y-90300000D01*
X112014173Y-90300000D01*
X111887006Y-90334075D01*
X111829999Y-90366988D01*
X111829999Y-89469364D01*
X111829998Y-89469364D01*
X111616512Y-89526567D01*
X111616506Y-89526570D01*
X111402421Y-89626399D01*
X111402419Y-89626400D01*
X111208925Y-89761886D01*
X111208919Y-89761891D01*
X111041890Y-89928920D01*
X111041889Y-89928922D01*
X110911879Y-90114595D01*
X110857302Y-90158219D01*
X110787803Y-90165412D01*
X110725449Y-90133890D01*
X110708730Y-90114595D01*
X110578495Y-89928599D01*
X110411401Y-89761505D01*
X110334854Y-89707906D01*
X110217834Y-89625967D01*
X110217830Y-89625965D01*
X110146727Y-89592809D01*
X110003663Y-89526097D01*
X110003659Y-89526096D01*
X110003655Y-89526094D01*
X109775413Y-89464938D01*
X109775403Y-89464936D01*
X109540001Y-89444341D01*
X109539999Y-89444341D01*
X109304596Y-89464936D01*
X109304586Y-89464938D01*
X109076344Y-89526094D01*
X109076335Y-89526098D01*
X108862171Y-89625964D01*
X108862169Y-89625965D01*
X108668600Y-89761503D01*
X108546284Y-89883819D01*
X108484961Y-89917303D01*
X108415269Y-89912319D01*
X108359336Y-89870447D01*
X108342421Y-89839470D01*
X108293354Y-89707913D01*
X108293350Y-89707906D01*
X108207190Y-89592812D01*
X108207187Y-89592809D01*
X108092093Y-89506649D01*
X108092086Y-89506645D01*
X107957379Y-89456403D01*
X107957372Y-89456401D01*
X107897844Y-89450000D01*
X107250000Y-89450000D01*
X107250000Y-90366988D01*
X107192993Y-90334075D01*
X107065826Y-90300000D01*
X106934174Y-90300000D01*
X106807007Y-90334075D01*
X106750000Y-90366988D01*
X106750000Y-89450000D01*
X106102155Y-89450000D01*
X106042627Y-89456401D01*
X106042620Y-89456403D01*
X105907913Y-89506645D01*
X105907906Y-89506649D01*
X105792812Y-89592809D01*
X105792809Y-89592812D01*
X105706649Y-89707906D01*
X105706645Y-89707913D01*
X105656403Y-89842620D01*
X105656401Y-89842627D01*
X105650000Y-89902155D01*
X105650000Y-90550000D01*
X106566988Y-90550000D01*
X106534075Y-90607007D01*
X106500000Y-90734174D01*
X106500000Y-90865826D01*
X106534075Y-90992993D01*
X106566988Y-91050000D01*
X105650000Y-91050000D01*
X105650000Y-91697844D01*
X105656401Y-91757372D01*
X105656403Y-91757379D01*
X105706645Y-91892086D01*
X105706649Y-91892093D01*
X105792809Y-92007187D01*
X105792812Y-92007190D01*
X105907906Y-92093350D01*
X105907913Y-92093354D01*
X106042620Y-92143596D01*
X106042627Y-92143598D01*
X106102155Y-92149999D01*
X106102172Y-92150000D01*
X106750000Y-92150000D01*
X106750000Y-91233012D01*
X106807007Y-91265925D01*
X106934174Y-91300000D01*
X107065826Y-91300000D01*
X107192993Y-91265925D01*
X107250000Y-91233012D01*
X107250000Y-92150000D01*
X107897828Y-92150000D01*
X107897844Y-92149999D01*
X107957372Y-92143598D01*
X107957379Y-92143596D01*
X108092086Y-92093354D01*
X108092093Y-92093350D01*
X108207187Y-92007190D01*
X108207190Y-92007187D01*
X108293350Y-91892093D01*
X108293354Y-91892086D01*
X108342422Y-91760529D01*
X108384293Y-91704595D01*
X108449757Y-91680178D01*
X108518030Y-91695030D01*
X108546285Y-91716181D01*
X108668599Y-91838495D01*
X108745135Y-91892086D01*
X108862165Y-91974032D01*
X108862167Y-91974033D01*
X108862170Y-91974035D01*
X109076337Y-92073903D01*
X109304592Y-92135063D01*
X109475319Y-92150000D01*
X109539999Y-92155659D01*
X109540000Y-92155659D01*
X109540001Y-92155659D01*
X109604681Y-92150000D01*
X109775408Y-92135063D01*
X110003663Y-92073903D01*
X110217830Y-91974035D01*
X110411401Y-91838495D01*
X110578495Y-91671401D01*
X110708731Y-91485403D01*
X110763305Y-91441781D01*
X110832804Y-91434587D01*
X110895159Y-91466110D01*
X110911878Y-91485405D01*
X111041889Y-91671078D01*
X111208916Y-91838105D01*
X111402420Y-91973600D01*
X111616506Y-92073429D01*
X111616515Y-92073433D01*
X111829999Y-92130634D01*
X111829999Y-91233012D01*
X111887006Y-91265925D01*
X112014173Y-91300000D01*
X112145825Y-91300000D01*
X112272992Y-91265925D01*
X112329999Y-91233012D01*
X112329999Y-92130633D01*
X112543482Y-92073433D01*
X112543491Y-92073429D01*
X112757577Y-91973600D01*
X112951081Y-91838105D01*
X113118104Y-91671082D01*
X113248119Y-91485404D01*
X113302696Y-91441779D01*
X113372195Y-91434587D01*
X113434549Y-91466109D01*
X113451269Y-91485405D01*
X113581281Y-91671082D01*
X113581505Y-91671401D01*
X113748599Y-91838495D01*
X113825135Y-91892086D01*
X113942165Y-91974032D01*
X113942167Y-91974033D01*
X113942170Y-91974035D01*
X114156337Y-92073903D01*
X114384592Y-92135063D01*
X114555319Y-92150000D01*
X114619999Y-92155659D01*
X114620000Y-92155659D01*
X114620001Y-92155659D01*
X114684681Y-92150000D01*
X114855408Y-92135063D01*
X115083663Y-92073903D01*
X115297830Y-91974035D01*
X115491401Y-91838495D01*
X115658495Y-91671401D01*
X115788730Y-91485405D01*
X115843307Y-91441781D01*
X115912805Y-91434587D01*
X115975160Y-91466110D01*
X115991879Y-91485405D01*
X116121890Y-91671078D01*
X116288917Y-91838105D01*
X116482421Y-91973600D01*
X116696507Y-92073429D01*
X116696516Y-92073433D01*
X116910000Y-92130634D01*
X116910000Y-91233012D01*
X116967007Y-91265925D01*
X117094174Y-91300000D01*
X117225826Y-91300000D01*
X117300000Y-91280124D01*
X117300000Y-92193000D01*
X117300000Y-93975500D01*
X117280315Y-94042539D01*
X117227511Y-94088294D01*
X117176000Y-94099500D01*
X104106962Y-94099500D01*
X104093078Y-94098720D01*
X104080553Y-94097308D01*
X104002735Y-94088540D01*
X103975666Y-94082362D01*
X103896462Y-94054648D01*
X103871444Y-94042600D01*
X103800395Y-93997957D01*
X103778686Y-93980644D01*
X103719355Y-93921313D01*
X103702042Y-93899604D01*
X103657399Y-93828555D01*
X103645351Y-93803537D01*
X103617637Y-93724333D01*
X103611459Y-93697263D01*
X103601280Y-93606922D01*
X103600500Y-93593038D01*
X103600500Y-85124000D01*
X103620185Y-85056961D01*
X103672989Y-85011206D01*
X103724500Y-85000000D01*
X117176000Y-85000000D01*
X117243039Y-85019685D01*
G37*
%TD.AperFunction*%
%TD*%
M02*
