M48
; DRILL file {KiCad 8.0.4} date 2026-03-01T20:34:14-0500
; FORMAT={-:-/ absolute / inch / decimal}
; #@! TF.CreationDate,2026-03-01T20:34:14-05:00
; #@! TF.GenerationSoftware,Kicad,Pcbnew,8.0.4
; #@! TF.FileFunction,Plated,1,2,PTH
FMAT,2
INCH
; #@! TA.AperFunction,Plated,PTH,ViaDrill
T1C0.0118
; #@! TA.AperFunction,Plated,PTH,ComponentDrill
T2C0.0394
%
G90
G05
T1
X4.3189Y-3.2913
X4.3189Y-3.374
X4.4331Y-3.2559
X4.4724Y-3.3858
X4.5703Y-3.2886
X4.5709Y-3.4094
X4.7514Y-3.3667
X5.0157Y-3.2598
X5.1457Y-3.3031
T2
X4.2118Y-3.0787
X4.2126Y-3.5748
X4.3118Y-3.0787
X4.3126Y-3.5748
X4.4118Y-3.0787
X4.4126Y-3.5748
X4.5118Y-3.0787
X4.5126Y-3.5748
X4.6118Y-3.0787
X4.6126Y-3.5748
X5.3228Y-3.1764
X5.3228Y-3.2764
X5.3228Y-3.3764
X5.3228Y-3.4764
M30
