%TF.GenerationSoftware,KiCad,Pcbnew,8.0.4*%
%TF.CreationDate,2026-03-01T20:34:16-05:00*%
%TF.ProjectId,FDC1004-Q1_Breakout,46444331-3030-4342-9d51-315f42726561,rev?*%
%TF.SameCoordinates,Original*%
%TF.FileFunction,Legend,Top*%
%TF.FilePolarity,Positive*%
%FSLAX46Y46*%
G04 Gerber Fmt 4.6, Leading zero omitted, Abs format (unit mm)*
G04 Created by KiCad (PCBNEW 8.0.4) date 2026-03-01 20:34:16*
%MOMM*%
%LPD*%
G01*
G04 APERTURE LIST*
%ADD10C,0.150000*%
%ADD11C,0.120000*%
G04 APERTURE END LIST*
D10*
X113908207Y-93774580D02*
X113860588Y-93822200D01*
X113860588Y-93822200D02*
X113717731Y-93869819D01*
X113717731Y-93869819D02*
X113622493Y-93869819D01*
X113622493Y-93869819D02*
X113479636Y-93822200D01*
X113479636Y-93822200D02*
X113384398Y-93726961D01*
X113384398Y-93726961D02*
X113336779Y-93631723D01*
X113336779Y-93631723D02*
X113289160Y-93441247D01*
X113289160Y-93441247D02*
X113289160Y-93298390D01*
X113289160Y-93298390D02*
X113336779Y-93107914D01*
X113336779Y-93107914D02*
X113384398Y-93012676D01*
X113384398Y-93012676D02*
X113479636Y-92917438D01*
X113479636Y-92917438D02*
X113622493Y-92869819D01*
X113622493Y-92869819D02*
X113717731Y-92869819D01*
X113717731Y-92869819D02*
X113860588Y-92917438D01*
X113860588Y-92917438D02*
X113908207Y-92965057D01*
X114336779Y-93869819D02*
X114336779Y-92869819D01*
X114812969Y-93869819D02*
X114812969Y-92869819D01*
X114812969Y-92869819D02*
X115384397Y-93869819D01*
X115384397Y-93869819D02*
X115384397Y-92869819D01*
X116289159Y-93203152D02*
X116289159Y-93869819D01*
X116051064Y-92822200D02*
X115812969Y-93536485D01*
X115812969Y-93536485D02*
X116432016Y-93536485D01*
X113808207Y-75974580D02*
X113760588Y-76022200D01*
X113760588Y-76022200D02*
X113617731Y-76069819D01*
X113617731Y-76069819D02*
X113522493Y-76069819D01*
X113522493Y-76069819D02*
X113379636Y-76022200D01*
X113379636Y-76022200D02*
X113284398Y-75926961D01*
X113284398Y-75926961D02*
X113236779Y-75831723D01*
X113236779Y-75831723D02*
X113189160Y-75641247D01*
X113189160Y-75641247D02*
X113189160Y-75498390D01*
X113189160Y-75498390D02*
X113236779Y-75307914D01*
X113236779Y-75307914D02*
X113284398Y-75212676D01*
X113284398Y-75212676D02*
X113379636Y-75117438D01*
X113379636Y-75117438D02*
X113522493Y-75069819D01*
X113522493Y-75069819D02*
X113617731Y-75069819D01*
X113617731Y-75069819D02*
X113760588Y-75117438D01*
X113760588Y-75117438D02*
X113808207Y-75165057D01*
X114236779Y-76069819D02*
X114236779Y-75069819D01*
X114712969Y-76069819D02*
X114712969Y-75069819D01*
X114712969Y-75069819D02*
X115284397Y-76069819D01*
X115284397Y-76069819D02*
X115284397Y-75069819D01*
X116284397Y-76069819D02*
X115712969Y-76069819D01*
X115998683Y-76069819D02*
X115998683Y-75069819D01*
X115998683Y-75069819D02*
X115903445Y-75212676D01*
X115903445Y-75212676D02*
X115808207Y-75307914D01*
X115808207Y-75307914D02*
X115712969Y-75355533D01*
X131160588Y-87817438D02*
X131065350Y-87769819D01*
X131065350Y-87769819D02*
X130922493Y-87769819D01*
X130922493Y-87769819D02*
X130779636Y-87817438D01*
X130779636Y-87817438D02*
X130684398Y-87912676D01*
X130684398Y-87912676D02*
X130636779Y-88007914D01*
X130636779Y-88007914D02*
X130589160Y-88198390D01*
X130589160Y-88198390D02*
X130589160Y-88341247D01*
X130589160Y-88341247D02*
X130636779Y-88531723D01*
X130636779Y-88531723D02*
X130684398Y-88626961D01*
X130684398Y-88626961D02*
X130779636Y-88722200D01*
X130779636Y-88722200D02*
X130922493Y-88769819D01*
X130922493Y-88769819D02*
X131017731Y-88769819D01*
X131017731Y-88769819D02*
X131160588Y-88722200D01*
X131160588Y-88722200D02*
X131208207Y-88674580D01*
X131208207Y-88674580D02*
X131208207Y-88341247D01*
X131208207Y-88341247D02*
X131017731Y-88341247D01*
X131636779Y-88769819D02*
X131636779Y-87769819D01*
X131636779Y-87769819D02*
X132208207Y-88769819D01*
X132208207Y-88769819D02*
X132208207Y-87769819D01*
X132684398Y-88769819D02*
X132684398Y-87769819D01*
X132684398Y-87769819D02*
X132922493Y-87769819D01*
X132922493Y-87769819D02*
X133065350Y-87817438D01*
X133065350Y-87817438D02*
X133160588Y-87912676D01*
X133160588Y-87912676D02*
X133208207Y-88007914D01*
X133208207Y-88007914D02*
X133255826Y-88198390D01*
X133255826Y-88198390D02*
X133255826Y-88341247D01*
X133255826Y-88341247D02*
X133208207Y-88531723D01*
X133208207Y-88531723D02*
X133160588Y-88626961D01*
X133160588Y-88626961D02*
X133065350Y-88722200D01*
X133065350Y-88722200D02*
X132922493Y-88769819D01*
X132922493Y-88769819D02*
X132684398Y-88769819D01*
X104722200Y-92810839D02*
X104769819Y-92667982D01*
X104769819Y-92667982D02*
X104769819Y-92429887D01*
X104769819Y-92429887D02*
X104722200Y-92334649D01*
X104722200Y-92334649D02*
X104674580Y-92287030D01*
X104674580Y-92287030D02*
X104579342Y-92239411D01*
X104579342Y-92239411D02*
X104484104Y-92239411D01*
X104484104Y-92239411D02*
X104388866Y-92287030D01*
X104388866Y-92287030D02*
X104341247Y-92334649D01*
X104341247Y-92334649D02*
X104293628Y-92429887D01*
X104293628Y-92429887D02*
X104246009Y-92620363D01*
X104246009Y-92620363D02*
X104198390Y-92715601D01*
X104198390Y-92715601D02*
X104150771Y-92763220D01*
X104150771Y-92763220D02*
X104055533Y-92810839D01*
X104055533Y-92810839D02*
X103960295Y-92810839D01*
X103960295Y-92810839D02*
X103865057Y-92763220D01*
X103865057Y-92763220D02*
X103817438Y-92715601D01*
X103817438Y-92715601D02*
X103769819Y-92620363D01*
X103769819Y-92620363D02*
X103769819Y-92382268D01*
X103769819Y-92382268D02*
X103817438Y-92239411D01*
X104769819Y-91810839D02*
X103769819Y-91810839D01*
X104246009Y-91810839D02*
X104246009Y-91239411D01*
X104769819Y-91239411D02*
X103769819Y-91239411D01*
X104769819Y-90287030D02*
X104769819Y-90763220D01*
X104769819Y-90763220D02*
X103769819Y-90763220D01*
X104769819Y-89953696D02*
X103769819Y-89953696D01*
X103769819Y-89953696D02*
X103769819Y-89715601D01*
X103769819Y-89715601D02*
X103817438Y-89572744D01*
X103817438Y-89572744D02*
X103912676Y-89477506D01*
X103912676Y-89477506D02*
X104007914Y-89429887D01*
X104007914Y-89429887D02*
X104198390Y-89382268D01*
X104198390Y-89382268D02*
X104341247Y-89382268D01*
X104341247Y-89382268D02*
X104531723Y-89429887D01*
X104531723Y-89429887D02*
X104626961Y-89477506D01*
X104626961Y-89477506D02*
X104722200Y-89572744D01*
X104722200Y-89572744D02*
X104769819Y-89715601D01*
X104769819Y-89715601D02*
X104769819Y-89953696D01*
X103865057Y-89001315D02*
X103817438Y-88953696D01*
X103817438Y-88953696D02*
X103769819Y-88858458D01*
X103769819Y-88858458D02*
X103769819Y-88620363D01*
X103769819Y-88620363D02*
X103817438Y-88525125D01*
X103817438Y-88525125D02*
X103865057Y-88477506D01*
X103865057Y-88477506D02*
X103960295Y-88429887D01*
X103960295Y-88429887D02*
X104055533Y-88429887D01*
X104055533Y-88429887D02*
X104198390Y-88477506D01*
X104198390Y-88477506D02*
X104769819Y-89048934D01*
X104769819Y-89048934D02*
X104769819Y-88429887D01*
X124158207Y-78074580D02*
X124110588Y-78122200D01*
X124110588Y-78122200D02*
X123967731Y-78169819D01*
X123967731Y-78169819D02*
X123872493Y-78169819D01*
X123872493Y-78169819D02*
X123729636Y-78122200D01*
X123729636Y-78122200D02*
X123634398Y-78026961D01*
X123634398Y-78026961D02*
X123586779Y-77931723D01*
X123586779Y-77931723D02*
X123539160Y-77741247D01*
X123539160Y-77741247D02*
X123539160Y-77598390D01*
X123539160Y-77598390D02*
X123586779Y-77407914D01*
X123586779Y-77407914D02*
X123634398Y-77312676D01*
X123634398Y-77312676D02*
X123729636Y-77217438D01*
X123729636Y-77217438D02*
X123872493Y-77169819D01*
X123872493Y-77169819D02*
X123967731Y-77169819D01*
X123967731Y-77169819D02*
X124110588Y-77217438D01*
X124110588Y-77217438D02*
X124158207Y-77265057D01*
X125015350Y-78169819D02*
X125015350Y-77646009D01*
X125015350Y-77646009D02*
X124967731Y-77550771D01*
X124967731Y-77550771D02*
X124872493Y-77503152D01*
X124872493Y-77503152D02*
X124682017Y-77503152D01*
X124682017Y-77503152D02*
X124586779Y-77550771D01*
X125015350Y-78122200D02*
X124920112Y-78169819D01*
X124920112Y-78169819D02*
X124682017Y-78169819D01*
X124682017Y-78169819D02*
X124586779Y-78122200D01*
X124586779Y-78122200D02*
X124539160Y-78026961D01*
X124539160Y-78026961D02*
X124539160Y-77931723D01*
X124539160Y-77931723D02*
X124586779Y-77836485D01*
X124586779Y-77836485D02*
X124682017Y-77788866D01*
X124682017Y-77788866D02*
X124920112Y-77788866D01*
X124920112Y-77788866D02*
X125015350Y-77741247D01*
X125491541Y-77503152D02*
X125491541Y-78503152D01*
X125491541Y-77550771D02*
X125586779Y-77503152D01*
X125586779Y-77503152D02*
X125777255Y-77503152D01*
X125777255Y-77503152D02*
X125872493Y-77550771D01*
X125872493Y-77550771D02*
X125920112Y-77598390D01*
X125920112Y-77598390D02*
X125967731Y-77693628D01*
X125967731Y-77693628D02*
X125967731Y-77979342D01*
X125967731Y-77979342D02*
X125920112Y-78074580D01*
X125920112Y-78074580D02*
X125872493Y-78122200D01*
X125872493Y-78122200D02*
X125777255Y-78169819D01*
X125777255Y-78169819D02*
X125586779Y-78169819D01*
X125586779Y-78169819D02*
X125491541Y-78122200D01*
X126824874Y-78169819D02*
X126824874Y-77646009D01*
X126824874Y-77646009D02*
X126777255Y-77550771D01*
X126777255Y-77550771D02*
X126682017Y-77503152D01*
X126682017Y-77503152D02*
X126491541Y-77503152D01*
X126491541Y-77503152D02*
X126396303Y-77550771D01*
X126824874Y-78122200D02*
X126729636Y-78169819D01*
X126729636Y-78169819D02*
X126491541Y-78169819D01*
X126491541Y-78169819D02*
X126396303Y-78122200D01*
X126396303Y-78122200D02*
X126348684Y-78026961D01*
X126348684Y-78026961D02*
X126348684Y-77931723D01*
X126348684Y-77931723D02*
X126396303Y-77836485D01*
X126396303Y-77836485D02*
X126491541Y-77788866D01*
X126491541Y-77788866D02*
X126729636Y-77788866D01*
X126729636Y-77788866D02*
X126824874Y-77741247D01*
X127729636Y-78122200D02*
X127634398Y-78169819D01*
X127634398Y-78169819D02*
X127443922Y-78169819D01*
X127443922Y-78169819D02*
X127348684Y-78122200D01*
X127348684Y-78122200D02*
X127301065Y-78074580D01*
X127301065Y-78074580D02*
X127253446Y-77979342D01*
X127253446Y-77979342D02*
X127253446Y-77693628D01*
X127253446Y-77693628D02*
X127301065Y-77598390D01*
X127301065Y-77598390D02*
X127348684Y-77550771D01*
X127348684Y-77550771D02*
X127443922Y-77503152D01*
X127443922Y-77503152D02*
X127634398Y-77503152D01*
X127634398Y-77503152D02*
X127729636Y-77550771D01*
X128158208Y-78169819D02*
X128158208Y-77503152D01*
X128158208Y-77169819D02*
X128110589Y-77217438D01*
X128110589Y-77217438D02*
X128158208Y-77265057D01*
X128158208Y-77265057D02*
X128205827Y-77217438D01*
X128205827Y-77217438D02*
X128158208Y-77169819D01*
X128158208Y-77169819D02*
X128158208Y-77265057D01*
X128491541Y-77503152D02*
X128872493Y-77503152D01*
X128634398Y-77169819D02*
X128634398Y-78026961D01*
X128634398Y-78026961D02*
X128682017Y-78122200D01*
X128682017Y-78122200D02*
X128777255Y-78169819D01*
X128777255Y-78169819D02*
X128872493Y-78169819D01*
X129205827Y-78169819D02*
X129205827Y-77503152D01*
X129205827Y-77169819D02*
X129158208Y-77217438D01*
X129158208Y-77217438D02*
X129205827Y-77265057D01*
X129205827Y-77265057D02*
X129253446Y-77217438D01*
X129253446Y-77217438D02*
X129205827Y-77169819D01*
X129205827Y-77169819D02*
X129205827Y-77265057D01*
X129586779Y-77503152D02*
X129824874Y-78169819D01*
X129824874Y-78169819D02*
X130062969Y-77503152D01*
X130824874Y-78122200D02*
X130729636Y-78169819D01*
X130729636Y-78169819D02*
X130539160Y-78169819D01*
X130539160Y-78169819D02*
X130443922Y-78122200D01*
X130443922Y-78122200D02*
X130396303Y-78026961D01*
X130396303Y-78026961D02*
X130396303Y-77646009D01*
X130396303Y-77646009D02*
X130443922Y-77550771D01*
X130443922Y-77550771D02*
X130539160Y-77503152D01*
X130539160Y-77503152D02*
X130729636Y-77503152D01*
X130729636Y-77503152D02*
X130824874Y-77550771D01*
X130824874Y-77550771D02*
X130872493Y-77646009D01*
X130872493Y-77646009D02*
X130872493Y-77741247D01*
X130872493Y-77741247D02*
X130396303Y-77836485D01*
X132015351Y-78122200D02*
X132158208Y-78169819D01*
X132158208Y-78169819D02*
X132396303Y-78169819D01*
X132396303Y-78169819D02*
X132491541Y-78122200D01*
X132491541Y-78122200D02*
X132539160Y-78074580D01*
X132539160Y-78074580D02*
X132586779Y-77979342D01*
X132586779Y-77979342D02*
X132586779Y-77884104D01*
X132586779Y-77884104D02*
X132539160Y-77788866D01*
X132539160Y-77788866D02*
X132491541Y-77741247D01*
X132491541Y-77741247D02*
X132396303Y-77693628D01*
X132396303Y-77693628D02*
X132205827Y-77646009D01*
X132205827Y-77646009D02*
X132110589Y-77598390D01*
X132110589Y-77598390D02*
X132062970Y-77550771D01*
X132062970Y-77550771D02*
X132015351Y-77455533D01*
X132015351Y-77455533D02*
X132015351Y-77360295D01*
X132015351Y-77360295D02*
X132062970Y-77265057D01*
X132062970Y-77265057D02*
X132110589Y-77217438D01*
X132110589Y-77217438D02*
X132205827Y-77169819D01*
X132205827Y-77169819D02*
X132443922Y-77169819D01*
X132443922Y-77169819D02*
X132586779Y-77217438D01*
X133396303Y-78122200D02*
X133301065Y-78169819D01*
X133301065Y-78169819D02*
X133110589Y-78169819D01*
X133110589Y-78169819D02*
X133015351Y-78122200D01*
X133015351Y-78122200D02*
X132967732Y-78026961D01*
X132967732Y-78026961D02*
X132967732Y-77646009D01*
X132967732Y-77646009D02*
X133015351Y-77550771D01*
X133015351Y-77550771D02*
X133110589Y-77503152D01*
X133110589Y-77503152D02*
X133301065Y-77503152D01*
X133301065Y-77503152D02*
X133396303Y-77550771D01*
X133396303Y-77550771D02*
X133443922Y-77646009D01*
X133443922Y-77646009D02*
X133443922Y-77741247D01*
X133443922Y-77741247D02*
X132967732Y-77836485D01*
X133872494Y-77503152D02*
X133872494Y-78169819D01*
X133872494Y-77598390D02*
X133920113Y-77550771D01*
X133920113Y-77550771D02*
X134015351Y-77503152D01*
X134015351Y-77503152D02*
X134158208Y-77503152D01*
X134158208Y-77503152D02*
X134253446Y-77550771D01*
X134253446Y-77550771D02*
X134301065Y-77646009D01*
X134301065Y-77646009D02*
X134301065Y-78169819D01*
X134729637Y-78122200D02*
X134824875Y-78169819D01*
X134824875Y-78169819D02*
X135015351Y-78169819D01*
X135015351Y-78169819D02*
X135110589Y-78122200D01*
X135110589Y-78122200D02*
X135158208Y-78026961D01*
X135158208Y-78026961D02*
X135158208Y-77979342D01*
X135158208Y-77979342D02*
X135110589Y-77884104D01*
X135110589Y-77884104D02*
X135015351Y-77836485D01*
X135015351Y-77836485D02*
X134872494Y-77836485D01*
X134872494Y-77836485D02*
X134777256Y-77788866D01*
X134777256Y-77788866D02*
X134729637Y-77693628D01*
X134729637Y-77693628D02*
X134729637Y-77646009D01*
X134729637Y-77646009D02*
X134777256Y-77550771D01*
X134777256Y-77550771D02*
X134872494Y-77503152D01*
X134872494Y-77503152D02*
X135015351Y-77503152D01*
X135015351Y-77503152D02*
X135110589Y-77550771D01*
X135729637Y-78169819D02*
X135634399Y-78122200D01*
X135634399Y-78122200D02*
X135586780Y-78074580D01*
X135586780Y-78074580D02*
X135539161Y-77979342D01*
X135539161Y-77979342D02*
X135539161Y-77693628D01*
X135539161Y-77693628D02*
X135586780Y-77598390D01*
X135586780Y-77598390D02*
X135634399Y-77550771D01*
X135634399Y-77550771D02*
X135729637Y-77503152D01*
X135729637Y-77503152D02*
X135872494Y-77503152D01*
X135872494Y-77503152D02*
X135967732Y-77550771D01*
X135967732Y-77550771D02*
X136015351Y-77598390D01*
X136015351Y-77598390D02*
X136062970Y-77693628D01*
X136062970Y-77693628D02*
X136062970Y-77979342D01*
X136062970Y-77979342D02*
X136015351Y-78074580D01*
X136015351Y-78074580D02*
X135967732Y-78122200D01*
X135967732Y-78122200D02*
X135872494Y-78169819D01*
X135872494Y-78169819D02*
X135729637Y-78169819D01*
X136491542Y-78169819D02*
X136491542Y-77503152D01*
X136491542Y-77693628D02*
X136539161Y-77598390D01*
X136539161Y-77598390D02*
X136586780Y-77550771D01*
X136586780Y-77550771D02*
X136682018Y-77503152D01*
X136682018Y-77503152D02*
X136777256Y-77503152D01*
X108508207Y-93774580D02*
X108460588Y-93822200D01*
X108460588Y-93822200D02*
X108317731Y-93869819D01*
X108317731Y-93869819D02*
X108222493Y-93869819D01*
X108222493Y-93869819D02*
X108079636Y-93822200D01*
X108079636Y-93822200D02*
X107984398Y-93726961D01*
X107984398Y-93726961D02*
X107936779Y-93631723D01*
X107936779Y-93631723D02*
X107889160Y-93441247D01*
X107889160Y-93441247D02*
X107889160Y-93298390D01*
X107889160Y-93298390D02*
X107936779Y-93107914D01*
X107936779Y-93107914D02*
X107984398Y-93012676D01*
X107984398Y-93012676D02*
X108079636Y-92917438D01*
X108079636Y-92917438D02*
X108222493Y-92869819D01*
X108222493Y-92869819D02*
X108317731Y-92869819D01*
X108317731Y-92869819D02*
X108460588Y-92917438D01*
X108460588Y-92917438D02*
X108508207Y-92965057D01*
X108936779Y-93869819D02*
X108936779Y-92869819D01*
X109412969Y-93869819D02*
X109412969Y-92869819D01*
X109412969Y-92869819D02*
X109984397Y-93869819D01*
X109984397Y-93869819D02*
X109984397Y-92869819D01*
X110365350Y-92869819D02*
X110984397Y-92869819D01*
X110984397Y-92869819D02*
X110651064Y-93250771D01*
X110651064Y-93250771D02*
X110793921Y-93250771D01*
X110793921Y-93250771D02*
X110889159Y-93298390D01*
X110889159Y-93298390D02*
X110936778Y-93346009D01*
X110936778Y-93346009D02*
X110984397Y-93441247D01*
X110984397Y-93441247D02*
X110984397Y-93679342D01*
X110984397Y-93679342D02*
X110936778Y-93774580D01*
X110936778Y-93774580D02*
X110889159Y-93822200D01*
X110889159Y-93822200D02*
X110793921Y-93869819D01*
X110793921Y-93869819D02*
X110508207Y-93869819D01*
X110508207Y-93869819D02*
X110412969Y-93822200D01*
X110412969Y-93822200D02*
X110365350Y-93774580D01*
X121539160Y-93234104D02*
X122015350Y-93234104D01*
X121443922Y-93519819D02*
X121777255Y-92519819D01*
X121777255Y-92519819D02*
X122110588Y-93519819D01*
X122443922Y-93519819D02*
X122443922Y-92519819D01*
X122443922Y-92519819D02*
X122824874Y-92519819D01*
X122824874Y-92519819D02*
X122920112Y-92567438D01*
X122920112Y-92567438D02*
X122967731Y-92615057D01*
X122967731Y-92615057D02*
X123015350Y-92710295D01*
X123015350Y-92710295D02*
X123015350Y-92853152D01*
X123015350Y-92853152D02*
X122967731Y-92948390D01*
X122967731Y-92948390D02*
X122920112Y-92996009D01*
X122920112Y-92996009D02*
X122824874Y-93043628D01*
X122824874Y-93043628D02*
X122443922Y-93043628D01*
X123443922Y-92996009D02*
X123777255Y-92996009D01*
X123920112Y-93519819D02*
X123443922Y-93519819D01*
X123443922Y-93519819D02*
X123443922Y-92519819D01*
X123443922Y-92519819D02*
X123920112Y-92519819D01*
X124253446Y-93519819D02*
X124777255Y-92853152D01*
X124253446Y-92853152D02*
X124777255Y-93519819D01*
X125920113Y-93138866D02*
X126682018Y-93138866D01*
X128491541Y-93424580D02*
X128443922Y-93472200D01*
X128443922Y-93472200D02*
X128301065Y-93519819D01*
X128301065Y-93519819D02*
X128205827Y-93519819D01*
X128205827Y-93519819D02*
X128062970Y-93472200D01*
X128062970Y-93472200D02*
X127967732Y-93376961D01*
X127967732Y-93376961D02*
X127920113Y-93281723D01*
X127920113Y-93281723D02*
X127872494Y-93091247D01*
X127872494Y-93091247D02*
X127872494Y-92948390D01*
X127872494Y-92948390D02*
X127920113Y-92757914D01*
X127920113Y-92757914D02*
X127967732Y-92662676D01*
X127967732Y-92662676D02*
X128062970Y-92567438D01*
X128062970Y-92567438D02*
X128205827Y-92519819D01*
X128205827Y-92519819D02*
X128301065Y-92519819D01*
X128301065Y-92519819D02*
X128443922Y-92567438D01*
X128443922Y-92567438D02*
X128491541Y-92615057D01*
X129348684Y-92853152D02*
X129348684Y-93519819D01*
X128920113Y-92853152D02*
X128920113Y-93376961D01*
X128920113Y-93376961D02*
X128967732Y-93472200D01*
X128967732Y-93472200D02*
X129062970Y-93519819D01*
X129062970Y-93519819D02*
X129205827Y-93519819D01*
X129205827Y-93519819D02*
X129301065Y-93472200D01*
X129301065Y-93472200D02*
X129348684Y-93424580D01*
X129824875Y-93519819D02*
X129824875Y-92519819D01*
X129824875Y-92900771D02*
X129920113Y-92853152D01*
X129920113Y-92853152D02*
X130110589Y-92853152D01*
X130110589Y-92853152D02*
X130205827Y-92900771D01*
X130205827Y-92900771D02*
X130253446Y-92948390D01*
X130253446Y-92948390D02*
X130301065Y-93043628D01*
X130301065Y-93043628D02*
X130301065Y-93329342D01*
X130301065Y-93329342D02*
X130253446Y-93424580D01*
X130253446Y-93424580D02*
X130205827Y-93472200D01*
X130205827Y-93472200D02*
X130110589Y-93519819D01*
X130110589Y-93519819D02*
X129920113Y-93519819D01*
X129920113Y-93519819D02*
X129824875Y-93472200D01*
X131110589Y-93472200D02*
X131015351Y-93519819D01*
X131015351Y-93519819D02*
X130824875Y-93519819D01*
X130824875Y-93519819D02*
X130729637Y-93472200D01*
X130729637Y-93472200D02*
X130682018Y-93376961D01*
X130682018Y-93376961D02*
X130682018Y-92996009D01*
X130682018Y-92996009D02*
X130729637Y-92900771D01*
X130729637Y-92900771D02*
X130824875Y-92853152D01*
X130824875Y-92853152D02*
X131015351Y-92853152D01*
X131015351Y-92853152D02*
X131110589Y-92900771D01*
X131110589Y-92900771D02*
X131158208Y-92996009D01*
X131158208Y-92996009D02*
X131158208Y-93091247D01*
X131158208Y-93091247D02*
X130682018Y-93186485D01*
X131539161Y-93472200D02*
X131682018Y-93519819D01*
X131682018Y-93519819D02*
X131920113Y-93519819D01*
X131920113Y-93519819D02*
X132015351Y-93472200D01*
X132015351Y-93472200D02*
X132062970Y-93424580D01*
X132062970Y-93424580D02*
X132110589Y-93329342D01*
X132110589Y-93329342D02*
X132110589Y-93234104D01*
X132110589Y-93234104D02*
X132062970Y-93138866D01*
X132062970Y-93138866D02*
X132015351Y-93091247D01*
X132015351Y-93091247D02*
X131920113Y-93043628D01*
X131920113Y-93043628D02*
X131729637Y-92996009D01*
X131729637Y-92996009D02*
X131634399Y-92948390D01*
X131634399Y-92948390D02*
X131586780Y-92900771D01*
X131586780Y-92900771D02*
X131539161Y-92805533D01*
X131539161Y-92805533D02*
X131539161Y-92710295D01*
X131539161Y-92710295D02*
X131586780Y-92615057D01*
X131586780Y-92615057D02*
X131634399Y-92567438D01*
X131634399Y-92567438D02*
X131729637Y-92519819D01*
X131729637Y-92519819D02*
X131967732Y-92519819D01*
X131967732Y-92519819D02*
X132110589Y-92567438D01*
X132967732Y-93519819D02*
X132967732Y-92996009D01*
X132967732Y-92996009D02*
X132920113Y-92900771D01*
X132920113Y-92900771D02*
X132824875Y-92853152D01*
X132824875Y-92853152D02*
X132634399Y-92853152D01*
X132634399Y-92853152D02*
X132539161Y-92900771D01*
X132967732Y-93472200D02*
X132872494Y-93519819D01*
X132872494Y-93519819D02*
X132634399Y-93519819D01*
X132634399Y-93519819D02*
X132539161Y-93472200D01*
X132539161Y-93472200D02*
X132491542Y-93376961D01*
X132491542Y-93376961D02*
X132491542Y-93281723D01*
X132491542Y-93281723D02*
X132539161Y-93186485D01*
X132539161Y-93186485D02*
X132634399Y-93138866D01*
X132634399Y-93138866D02*
X132872494Y-93138866D01*
X132872494Y-93138866D02*
X132967732Y-93091247D01*
X133301066Y-92853152D02*
X133682018Y-92853152D01*
X133443923Y-92519819D02*
X133443923Y-93376961D01*
X133443923Y-93376961D02*
X133491542Y-93472200D01*
X133491542Y-93472200D02*
X133586780Y-93519819D01*
X133586780Y-93519819D02*
X133682018Y-93519819D01*
X135253447Y-93519819D02*
X134777257Y-93519819D01*
X134777257Y-93519819D02*
X134777257Y-92519819D01*
X136015352Y-93519819D02*
X136015352Y-92996009D01*
X136015352Y-92996009D02*
X135967733Y-92900771D01*
X135967733Y-92900771D02*
X135872495Y-92853152D01*
X135872495Y-92853152D02*
X135682019Y-92853152D01*
X135682019Y-92853152D02*
X135586781Y-92900771D01*
X136015352Y-93472200D02*
X135920114Y-93519819D01*
X135920114Y-93519819D02*
X135682019Y-93519819D01*
X135682019Y-93519819D02*
X135586781Y-93472200D01*
X135586781Y-93472200D02*
X135539162Y-93376961D01*
X135539162Y-93376961D02*
X135539162Y-93281723D01*
X135539162Y-93281723D02*
X135586781Y-93186485D01*
X135586781Y-93186485D02*
X135682019Y-93138866D01*
X135682019Y-93138866D02*
X135920114Y-93138866D01*
X135920114Y-93138866D02*
X136015352Y-93091247D01*
X136491543Y-93519819D02*
X136491543Y-92519819D01*
X136491543Y-92900771D02*
X136586781Y-92853152D01*
X136586781Y-92853152D02*
X136777257Y-92853152D01*
X136777257Y-92853152D02*
X136872495Y-92900771D01*
X136872495Y-92900771D02*
X136920114Y-92948390D01*
X136920114Y-92948390D02*
X136967733Y-93043628D01*
X136967733Y-93043628D02*
X136967733Y-93329342D01*
X136967733Y-93329342D02*
X136920114Y-93424580D01*
X136920114Y-93424580D02*
X136872495Y-93472200D01*
X136872495Y-93472200D02*
X136777257Y-93519819D01*
X136777257Y-93519819D02*
X136586781Y-93519819D01*
X136586781Y-93519819D02*
X136491543Y-93472200D01*
X108708207Y-75974580D02*
X108660588Y-76022200D01*
X108660588Y-76022200D02*
X108517731Y-76069819D01*
X108517731Y-76069819D02*
X108422493Y-76069819D01*
X108422493Y-76069819D02*
X108279636Y-76022200D01*
X108279636Y-76022200D02*
X108184398Y-75926961D01*
X108184398Y-75926961D02*
X108136779Y-75831723D01*
X108136779Y-75831723D02*
X108089160Y-75641247D01*
X108089160Y-75641247D02*
X108089160Y-75498390D01*
X108089160Y-75498390D02*
X108136779Y-75307914D01*
X108136779Y-75307914D02*
X108184398Y-75212676D01*
X108184398Y-75212676D02*
X108279636Y-75117438D01*
X108279636Y-75117438D02*
X108422493Y-75069819D01*
X108422493Y-75069819D02*
X108517731Y-75069819D01*
X108517731Y-75069819D02*
X108660588Y-75117438D01*
X108660588Y-75117438D02*
X108708207Y-75165057D01*
X109136779Y-76069819D02*
X109136779Y-75069819D01*
X109612969Y-76069819D02*
X109612969Y-75069819D01*
X109612969Y-75069819D02*
X110184397Y-76069819D01*
X110184397Y-76069819D02*
X110184397Y-75069819D01*
X110612969Y-75165057D02*
X110660588Y-75117438D01*
X110660588Y-75117438D02*
X110755826Y-75069819D01*
X110755826Y-75069819D02*
X110993921Y-75069819D01*
X110993921Y-75069819D02*
X111089159Y-75117438D01*
X111089159Y-75117438D02*
X111136778Y-75165057D01*
X111136778Y-75165057D02*
X111184397Y-75260295D01*
X111184397Y-75260295D02*
X111184397Y-75355533D01*
X111184397Y-75355533D02*
X111136778Y-75498390D01*
X111136778Y-75498390D02*
X110565350Y-76069819D01*
X110565350Y-76069819D02*
X111184397Y-76069819D01*
X130589160Y-80922200D02*
X130732017Y-80969819D01*
X130732017Y-80969819D02*
X130970112Y-80969819D01*
X130970112Y-80969819D02*
X131065350Y-80922200D01*
X131065350Y-80922200D02*
X131112969Y-80874580D01*
X131112969Y-80874580D02*
X131160588Y-80779342D01*
X131160588Y-80779342D02*
X131160588Y-80684104D01*
X131160588Y-80684104D02*
X131112969Y-80588866D01*
X131112969Y-80588866D02*
X131065350Y-80541247D01*
X131065350Y-80541247D02*
X130970112Y-80493628D01*
X130970112Y-80493628D02*
X130779636Y-80446009D01*
X130779636Y-80446009D02*
X130684398Y-80398390D01*
X130684398Y-80398390D02*
X130636779Y-80350771D01*
X130636779Y-80350771D02*
X130589160Y-80255533D01*
X130589160Y-80255533D02*
X130589160Y-80160295D01*
X130589160Y-80160295D02*
X130636779Y-80065057D01*
X130636779Y-80065057D02*
X130684398Y-80017438D01*
X130684398Y-80017438D02*
X130779636Y-79969819D01*
X130779636Y-79969819D02*
X131017731Y-79969819D01*
X131017731Y-79969819D02*
X131160588Y-80017438D01*
X131589160Y-80969819D02*
X131589160Y-79969819D01*
X131589160Y-79969819D02*
X131827255Y-79969819D01*
X131827255Y-79969819D02*
X131970112Y-80017438D01*
X131970112Y-80017438D02*
X132065350Y-80112676D01*
X132065350Y-80112676D02*
X132112969Y-80207914D01*
X132112969Y-80207914D02*
X132160588Y-80398390D01*
X132160588Y-80398390D02*
X132160588Y-80541247D01*
X132160588Y-80541247D02*
X132112969Y-80731723D01*
X132112969Y-80731723D02*
X132065350Y-80826961D01*
X132065350Y-80826961D02*
X131970112Y-80922200D01*
X131970112Y-80922200D02*
X131827255Y-80969819D01*
X131827255Y-80969819D02*
X131589160Y-80969819D01*
X132541541Y-80684104D02*
X133017731Y-80684104D01*
X132446303Y-80969819D02*
X132779636Y-79969819D01*
X132779636Y-79969819D02*
X133112969Y-80969819D01*
X104822200Y-80210839D02*
X104869819Y-80067982D01*
X104869819Y-80067982D02*
X104869819Y-79829887D01*
X104869819Y-79829887D02*
X104822200Y-79734649D01*
X104822200Y-79734649D02*
X104774580Y-79687030D01*
X104774580Y-79687030D02*
X104679342Y-79639411D01*
X104679342Y-79639411D02*
X104584104Y-79639411D01*
X104584104Y-79639411D02*
X104488866Y-79687030D01*
X104488866Y-79687030D02*
X104441247Y-79734649D01*
X104441247Y-79734649D02*
X104393628Y-79829887D01*
X104393628Y-79829887D02*
X104346009Y-80020363D01*
X104346009Y-80020363D02*
X104298390Y-80115601D01*
X104298390Y-80115601D02*
X104250771Y-80163220D01*
X104250771Y-80163220D02*
X104155533Y-80210839D01*
X104155533Y-80210839D02*
X104060295Y-80210839D01*
X104060295Y-80210839D02*
X103965057Y-80163220D01*
X103965057Y-80163220D02*
X103917438Y-80115601D01*
X103917438Y-80115601D02*
X103869819Y-80020363D01*
X103869819Y-80020363D02*
X103869819Y-79782268D01*
X103869819Y-79782268D02*
X103917438Y-79639411D01*
X104869819Y-79210839D02*
X103869819Y-79210839D01*
X104346009Y-79210839D02*
X104346009Y-78639411D01*
X104869819Y-78639411D02*
X103869819Y-78639411D01*
X104869819Y-77687030D02*
X104869819Y-78163220D01*
X104869819Y-78163220D02*
X103869819Y-78163220D01*
X104869819Y-77353696D02*
X103869819Y-77353696D01*
X103869819Y-77353696D02*
X103869819Y-77115601D01*
X103869819Y-77115601D02*
X103917438Y-76972744D01*
X103917438Y-76972744D02*
X104012676Y-76877506D01*
X104012676Y-76877506D02*
X104107914Y-76829887D01*
X104107914Y-76829887D02*
X104298390Y-76782268D01*
X104298390Y-76782268D02*
X104441247Y-76782268D01*
X104441247Y-76782268D02*
X104631723Y-76829887D01*
X104631723Y-76829887D02*
X104726961Y-76877506D01*
X104726961Y-76877506D02*
X104822200Y-76972744D01*
X104822200Y-76972744D02*
X104869819Y-77115601D01*
X104869819Y-77115601D02*
X104869819Y-77353696D01*
X104869819Y-75829887D02*
X104869819Y-76401315D01*
X104869819Y-76115601D02*
X103869819Y-76115601D01*
X103869819Y-76115601D02*
X104012676Y-76210839D01*
X104012676Y-76210839D02*
X104107914Y-76306077D01*
X104107914Y-76306077D02*
X104155533Y-76401315D01*
X127670112Y-76046009D02*
X127336779Y-76046009D01*
X127336779Y-76569819D02*
X127336779Y-75569819D01*
X127336779Y-75569819D02*
X127812969Y-75569819D01*
X128193922Y-76569819D02*
X128193922Y-75569819D01*
X128193922Y-75569819D02*
X128432017Y-75569819D01*
X128432017Y-75569819D02*
X128574874Y-75617438D01*
X128574874Y-75617438D02*
X128670112Y-75712676D01*
X128670112Y-75712676D02*
X128717731Y-75807914D01*
X128717731Y-75807914D02*
X128765350Y-75998390D01*
X128765350Y-75998390D02*
X128765350Y-76141247D01*
X128765350Y-76141247D02*
X128717731Y-76331723D01*
X128717731Y-76331723D02*
X128670112Y-76426961D01*
X128670112Y-76426961D02*
X128574874Y-76522200D01*
X128574874Y-76522200D02*
X128432017Y-76569819D01*
X128432017Y-76569819D02*
X128193922Y-76569819D01*
X129765350Y-76474580D02*
X129717731Y-76522200D01*
X129717731Y-76522200D02*
X129574874Y-76569819D01*
X129574874Y-76569819D02*
X129479636Y-76569819D01*
X129479636Y-76569819D02*
X129336779Y-76522200D01*
X129336779Y-76522200D02*
X129241541Y-76426961D01*
X129241541Y-76426961D02*
X129193922Y-76331723D01*
X129193922Y-76331723D02*
X129146303Y-76141247D01*
X129146303Y-76141247D02*
X129146303Y-75998390D01*
X129146303Y-75998390D02*
X129193922Y-75807914D01*
X129193922Y-75807914D02*
X129241541Y-75712676D01*
X129241541Y-75712676D02*
X129336779Y-75617438D01*
X129336779Y-75617438D02*
X129479636Y-75569819D01*
X129479636Y-75569819D02*
X129574874Y-75569819D01*
X129574874Y-75569819D02*
X129717731Y-75617438D01*
X129717731Y-75617438D02*
X129765350Y-75665057D01*
X130717731Y-76569819D02*
X130146303Y-76569819D01*
X130432017Y-76569819D02*
X130432017Y-75569819D01*
X130432017Y-75569819D02*
X130336779Y-75712676D01*
X130336779Y-75712676D02*
X130241541Y-75807914D01*
X130241541Y-75807914D02*
X130146303Y-75855533D01*
X131336779Y-75569819D02*
X131432017Y-75569819D01*
X131432017Y-75569819D02*
X131527255Y-75617438D01*
X131527255Y-75617438D02*
X131574874Y-75665057D01*
X131574874Y-75665057D02*
X131622493Y-75760295D01*
X131622493Y-75760295D02*
X131670112Y-75950771D01*
X131670112Y-75950771D02*
X131670112Y-76188866D01*
X131670112Y-76188866D02*
X131622493Y-76379342D01*
X131622493Y-76379342D02*
X131574874Y-76474580D01*
X131574874Y-76474580D02*
X131527255Y-76522200D01*
X131527255Y-76522200D02*
X131432017Y-76569819D01*
X131432017Y-76569819D02*
X131336779Y-76569819D01*
X131336779Y-76569819D02*
X131241541Y-76522200D01*
X131241541Y-76522200D02*
X131193922Y-76474580D01*
X131193922Y-76474580D02*
X131146303Y-76379342D01*
X131146303Y-76379342D02*
X131098684Y-76188866D01*
X131098684Y-76188866D02*
X131098684Y-75950771D01*
X131098684Y-75950771D02*
X131146303Y-75760295D01*
X131146303Y-75760295D02*
X131193922Y-75665057D01*
X131193922Y-75665057D02*
X131241541Y-75617438D01*
X131241541Y-75617438D02*
X131336779Y-75569819D01*
X132289160Y-75569819D02*
X132384398Y-75569819D01*
X132384398Y-75569819D02*
X132479636Y-75617438D01*
X132479636Y-75617438D02*
X132527255Y-75665057D01*
X132527255Y-75665057D02*
X132574874Y-75760295D01*
X132574874Y-75760295D02*
X132622493Y-75950771D01*
X132622493Y-75950771D02*
X132622493Y-76188866D01*
X132622493Y-76188866D02*
X132574874Y-76379342D01*
X132574874Y-76379342D02*
X132527255Y-76474580D01*
X132527255Y-76474580D02*
X132479636Y-76522200D01*
X132479636Y-76522200D02*
X132384398Y-76569819D01*
X132384398Y-76569819D02*
X132289160Y-76569819D01*
X132289160Y-76569819D02*
X132193922Y-76522200D01*
X132193922Y-76522200D02*
X132146303Y-76474580D01*
X132146303Y-76474580D02*
X132098684Y-76379342D01*
X132098684Y-76379342D02*
X132051065Y-76188866D01*
X132051065Y-76188866D02*
X132051065Y-75950771D01*
X132051065Y-75950771D02*
X132098684Y-75760295D01*
X132098684Y-75760295D02*
X132146303Y-75665057D01*
X132146303Y-75665057D02*
X132193922Y-75617438D01*
X132193922Y-75617438D02*
X132289160Y-75569819D01*
X133479636Y-75903152D02*
X133479636Y-76569819D01*
X133241541Y-75522200D02*
X133003446Y-76236485D01*
X133003446Y-76236485D02*
X133622493Y-76236485D01*
X134003446Y-76188866D02*
X134765351Y-76188866D01*
X135908207Y-76665057D02*
X135812969Y-76617438D01*
X135812969Y-76617438D02*
X135717731Y-76522200D01*
X135717731Y-76522200D02*
X135574874Y-76379342D01*
X135574874Y-76379342D02*
X135479636Y-76331723D01*
X135479636Y-76331723D02*
X135384398Y-76331723D01*
X135432017Y-76569819D02*
X135336779Y-76522200D01*
X135336779Y-76522200D02*
X135241541Y-76426961D01*
X135241541Y-76426961D02*
X135193922Y-76236485D01*
X135193922Y-76236485D02*
X135193922Y-75903152D01*
X135193922Y-75903152D02*
X135241541Y-75712676D01*
X135241541Y-75712676D02*
X135336779Y-75617438D01*
X135336779Y-75617438D02*
X135432017Y-75569819D01*
X135432017Y-75569819D02*
X135622493Y-75569819D01*
X135622493Y-75569819D02*
X135717731Y-75617438D01*
X135717731Y-75617438D02*
X135812969Y-75712676D01*
X135812969Y-75712676D02*
X135860588Y-75903152D01*
X135860588Y-75903152D02*
X135860588Y-76236485D01*
X135860588Y-76236485D02*
X135812969Y-76426961D01*
X135812969Y-76426961D02*
X135717731Y-76522200D01*
X135717731Y-76522200D02*
X135622493Y-76569819D01*
X135622493Y-76569819D02*
X135432017Y-76569819D01*
X136812969Y-76569819D02*
X136241541Y-76569819D01*
X136527255Y-76569819D02*
X136527255Y-75569819D01*
X136527255Y-75569819D02*
X136432017Y-75712676D01*
X136432017Y-75712676D02*
X136336779Y-75807914D01*
X136336779Y-75807914D02*
X136241541Y-75855533D01*
X130593922Y-85269819D02*
X130927255Y-86269819D01*
X130927255Y-86269819D02*
X131260588Y-85269819D01*
X131593922Y-86269819D02*
X131593922Y-85269819D01*
X131593922Y-85269819D02*
X131832017Y-85269819D01*
X131832017Y-85269819D02*
X131974874Y-85317438D01*
X131974874Y-85317438D02*
X132070112Y-85412676D01*
X132070112Y-85412676D02*
X132117731Y-85507914D01*
X132117731Y-85507914D02*
X132165350Y-85698390D01*
X132165350Y-85698390D02*
X132165350Y-85841247D01*
X132165350Y-85841247D02*
X132117731Y-86031723D01*
X132117731Y-86031723D02*
X132070112Y-86126961D01*
X132070112Y-86126961D02*
X131974874Y-86222200D01*
X131974874Y-86222200D02*
X131832017Y-86269819D01*
X131832017Y-86269819D02*
X131593922Y-86269819D01*
X132593922Y-86269819D02*
X132593922Y-85269819D01*
X132593922Y-85269819D02*
X132832017Y-85269819D01*
X132832017Y-85269819D02*
X132974874Y-85317438D01*
X132974874Y-85317438D02*
X133070112Y-85412676D01*
X133070112Y-85412676D02*
X133117731Y-85507914D01*
X133117731Y-85507914D02*
X133165350Y-85698390D01*
X133165350Y-85698390D02*
X133165350Y-85841247D01*
X133165350Y-85841247D02*
X133117731Y-86031723D01*
X133117731Y-86031723D02*
X133070112Y-86126961D01*
X133070112Y-86126961D02*
X132974874Y-86222200D01*
X132974874Y-86222200D02*
X132832017Y-86269819D01*
X132832017Y-86269819D02*
X132593922Y-86269819D01*
X130589160Y-83622200D02*
X130732017Y-83669819D01*
X130732017Y-83669819D02*
X130970112Y-83669819D01*
X130970112Y-83669819D02*
X131065350Y-83622200D01*
X131065350Y-83622200D02*
X131112969Y-83574580D01*
X131112969Y-83574580D02*
X131160588Y-83479342D01*
X131160588Y-83479342D02*
X131160588Y-83384104D01*
X131160588Y-83384104D02*
X131112969Y-83288866D01*
X131112969Y-83288866D02*
X131065350Y-83241247D01*
X131065350Y-83241247D02*
X130970112Y-83193628D01*
X130970112Y-83193628D02*
X130779636Y-83146009D01*
X130779636Y-83146009D02*
X130684398Y-83098390D01*
X130684398Y-83098390D02*
X130636779Y-83050771D01*
X130636779Y-83050771D02*
X130589160Y-82955533D01*
X130589160Y-82955533D02*
X130589160Y-82860295D01*
X130589160Y-82860295D02*
X130636779Y-82765057D01*
X130636779Y-82765057D02*
X130684398Y-82717438D01*
X130684398Y-82717438D02*
X130779636Y-82669819D01*
X130779636Y-82669819D02*
X131017731Y-82669819D01*
X131017731Y-82669819D02*
X131160588Y-82717438D01*
X132160588Y-83574580D02*
X132112969Y-83622200D01*
X132112969Y-83622200D02*
X131970112Y-83669819D01*
X131970112Y-83669819D02*
X131874874Y-83669819D01*
X131874874Y-83669819D02*
X131732017Y-83622200D01*
X131732017Y-83622200D02*
X131636779Y-83526961D01*
X131636779Y-83526961D02*
X131589160Y-83431723D01*
X131589160Y-83431723D02*
X131541541Y-83241247D01*
X131541541Y-83241247D02*
X131541541Y-83098390D01*
X131541541Y-83098390D02*
X131589160Y-82907914D01*
X131589160Y-82907914D02*
X131636779Y-82812676D01*
X131636779Y-82812676D02*
X131732017Y-82717438D01*
X131732017Y-82717438D02*
X131874874Y-82669819D01*
X131874874Y-82669819D02*
X131970112Y-82669819D01*
X131970112Y-82669819D02*
X132112969Y-82717438D01*
X132112969Y-82717438D02*
X132160588Y-82765057D01*
X133065350Y-83669819D02*
X132589160Y-83669819D01*
X132589160Y-83669819D02*
X132589160Y-82669819D01*
X123833333Y-88859580D02*
X123785714Y-88907200D01*
X123785714Y-88907200D02*
X123642857Y-88954819D01*
X123642857Y-88954819D02*
X123547619Y-88954819D01*
X123547619Y-88954819D02*
X123404762Y-88907200D01*
X123404762Y-88907200D02*
X123309524Y-88811961D01*
X123309524Y-88811961D02*
X123261905Y-88716723D01*
X123261905Y-88716723D02*
X123214286Y-88526247D01*
X123214286Y-88526247D02*
X123214286Y-88383390D01*
X123214286Y-88383390D02*
X123261905Y-88192914D01*
X123261905Y-88192914D02*
X123309524Y-88097676D01*
X123309524Y-88097676D02*
X123404762Y-88002438D01*
X123404762Y-88002438D02*
X123547619Y-87954819D01*
X123547619Y-87954819D02*
X123642857Y-87954819D01*
X123642857Y-87954819D02*
X123785714Y-88002438D01*
X123785714Y-88002438D02*
X123833333Y-88050057D01*
X124214286Y-88050057D02*
X124261905Y-88002438D01*
X124261905Y-88002438D02*
X124357143Y-87954819D01*
X124357143Y-87954819D02*
X124595238Y-87954819D01*
X124595238Y-87954819D02*
X124690476Y-88002438D01*
X124690476Y-88002438D02*
X124738095Y-88050057D01*
X124738095Y-88050057D02*
X124785714Y-88145295D01*
X124785714Y-88145295D02*
X124785714Y-88240533D01*
X124785714Y-88240533D02*
X124738095Y-88383390D01*
X124738095Y-88383390D02*
X124166667Y-88954819D01*
X124166667Y-88954819D02*
X124785714Y-88954819D01*
X116458095Y-81509819D02*
X116458095Y-82319342D01*
X116458095Y-82319342D02*
X116505714Y-82414580D01*
X116505714Y-82414580D02*
X116553333Y-82462200D01*
X116553333Y-82462200D02*
X116648571Y-82509819D01*
X116648571Y-82509819D02*
X116839047Y-82509819D01*
X116839047Y-82509819D02*
X116934285Y-82462200D01*
X116934285Y-82462200D02*
X116981904Y-82414580D01*
X116981904Y-82414580D02*
X117029523Y-82319342D01*
X117029523Y-82319342D02*
X117029523Y-81509819D01*
X118029523Y-82509819D02*
X117458095Y-82509819D01*
X117743809Y-82509819D02*
X117743809Y-81509819D01*
X117743809Y-81509819D02*
X117648571Y-81652676D01*
X117648571Y-81652676D02*
X117553333Y-81747914D01*
X117553333Y-81747914D02*
X117458095Y-81795533D01*
X121733333Y-88859580D02*
X121685714Y-88907200D01*
X121685714Y-88907200D02*
X121542857Y-88954819D01*
X121542857Y-88954819D02*
X121447619Y-88954819D01*
X121447619Y-88954819D02*
X121304762Y-88907200D01*
X121304762Y-88907200D02*
X121209524Y-88811961D01*
X121209524Y-88811961D02*
X121161905Y-88716723D01*
X121161905Y-88716723D02*
X121114286Y-88526247D01*
X121114286Y-88526247D02*
X121114286Y-88383390D01*
X121114286Y-88383390D02*
X121161905Y-88192914D01*
X121161905Y-88192914D02*
X121209524Y-88097676D01*
X121209524Y-88097676D02*
X121304762Y-88002438D01*
X121304762Y-88002438D02*
X121447619Y-87954819D01*
X121447619Y-87954819D02*
X121542857Y-87954819D01*
X121542857Y-87954819D02*
X121685714Y-88002438D01*
X121685714Y-88002438D02*
X121733333Y-88050057D01*
X122685714Y-88954819D02*
X122114286Y-88954819D01*
X122400000Y-88954819D02*
X122400000Y-87954819D01*
X122400000Y-87954819D02*
X122304762Y-88097676D01*
X122304762Y-88097676D02*
X122209524Y-88192914D01*
X122209524Y-88192914D02*
X122114286Y-88240533D01*
X126133333Y-86854819D02*
X125800000Y-86378628D01*
X125561905Y-86854819D02*
X125561905Y-85854819D01*
X125561905Y-85854819D02*
X125942857Y-85854819D01*
X125942857Y-85854819D02*
X126038095Y-85902438D01*
X126038095Y-85902438D02*
X126085714Y-85950057D01*
X126085714Y-85950057D02*
X126133333Y-86045295D01*
X126133333Y-86045295D02*
X126133333Y-86188152D01*
X126133333Y-86188152D02*
X126085714Y-86283390D01*
X126085714Y-86283390D02*
X126038095Y-86331009D01*
X126038095Y-86331009D02*
X125942857Y-86378628D01*
X125942857Y-86378628D02*
X125561905Y-86378628D01*
X126514286Y-85950057D02*
X126561905Y-85902438D01*
X126561905Y-85902438D02*
X126657143Y-85854819D01*
X126657143Y-85854819D02*
X126895238Y-85854819D01*
X126895238Y-85854819D02*
X126990476Y-85902438D01*
X126990476Y-85902438D02*
X127038095Y-85950057D01*
X127038095Y-85950057D02*
X127085714Y-86045295D01*
X127085714Y-86045295D02*
X127085714Y-86140533D01*
X127085714Y-86140533D02*
X127038095Y-86283390D01*
X127038095Y-86283390D02*
X126466667Y-86854819D01*
X126466667Y-86854819D02*
X127085714Y-86854819D01*
X128933333Y-86854819D02*
X128600000Y-86378628D01*
X128361905Y-86854819D02*
X128361905Y-85854819D01*
X128361905Y-85854819D02*
X128742857Y-85854819D01*
X128742857Y-85854819D02*
X128838095Y-85902438D01*
X128838095Y-85902438D02*
X128885714Y-85950057D01*
X128885714Y-85950057D02*
X128933333Y-86045295D01*
X128933333Y-86045295D02*
X128933333Y-86188152D01*
X128933333Y-86188152D02*
X128885714Y-86283390D01*
X128885714Y-86283390D02*
X128838095Y-86331009D01*
X128838095Y-86331009D02*
X128742857Y-86378628D01*
X128742857Y-86378628D02*
X128361905Y-86378628D01*
X129885714Y-86854819D02*
X129314286Y-86854819D01*
X129600000Y-86854819D02*
X129600000Y-85854819D01*
X129600000Y-85854819D02*
X129504762Y-85997676D01*
X129504762Y-85997676D02*
X129409524Y-86092914D01*
X129409524Y-86092914D02*
X129314286Y-86140533D01*
D11*
%TO.C,C2*%
X123265000Y-85538747D02*
X123265000Y-86061253D01*
X124735000Y-85538747D02*
X124735000Y-86061253D01*
%TO.C,U1*%
X117220000Y-82895000D02*
X115720000Y-82895000D01*
X117220000Y-82895000D02*
X118720000Y-82895000D01*
X117220000Y-86115000D02*
X115720000Y-86115000D01*
X117220000Y-86115000D02*
X118720000Y-86115000D01*
X115007500Y-83095000D02*
X114767500Y-82765000D01*
X115247500Y-82765000D01*
X115007500Y-83095000D01*
G36*
X115007500Y-83095000D02*
G01*
X114767500Y-82765000D01*
X115247500Y-82765000D01*
X115007500Y-83095000D01*
G37*
%TO.C,C1*%
X121165000Y-85538747D02*
X121165000Y-86061253D01*
X122635000Y-85538747D02*
X122635000Y-86061253D01*
%TO.C,J3*%
X105670000Y-92130000D02*
X105670000Y-90800000D01*
X107000000Y-92130000D02*
X105670000Y-92130000D01*
X108270001Y-89470000D02*
X118490000Y-89470000D01*
X108270001Y-92130000D02*
X108270001Y-89470000D01*
X108270001Y-92130000D02*
X118490000Y-92130000D01*
X118490000Y-92130000D02*
X118490000Y-89470000D01*
%TO.C,J1*%
X133870000Y-87029999D02*
X133870000Y-79350000D01*
X136530000Y-79350000D02*
X133870000Y-79350000D01*
X136530000Y-87029999D02*
X133870000Y-87029999D01*
X136530000Y-87029999D02*
X136530000Y-79350000D01*
X136530000Y-88300000D02*
X136530000Y-89630000D01*
X136530000Y-89630000D02*
X135200000Y-89630000D01*
%TO.C,J2*%
X105650000Y-79530000D02*
X105650000Y-78200000D01*
X106980000Y-79530000D02*
X105650000Y-79530000D01*
X108250001Y-76870000D02*
X118470000Y-76870000D01*
X108250001Y-79530000D02*
X108250001Y-76870000D01*
X108250001Y-79530000D02*
X118470000Y-79530000D01*
X118470000Y-79530000D02*
X118470000Y-76870000D01*
%TO.C,R2*%
X125565000Y-83927064D02*
X125565000Y-83472936D01*
X127035000Y-83927064D02*
X127035000Y-83472936D01*
%TO.C,R1*%
X128265000Y-83927064D02*
X128265000Y-83472936D01*
X129735000Y-83927064D02*
X129735000Y-83472936D01*
%TD*%
M02*
