%TF.GenerationSoftware,KiCad,Pcbnew,9.0.6*%
%TF.CreationDate,2026-04-07T18:45:19-04:00*%
%TF.ProjectId,lm5022-flyback,6c6d3530-3232-42d6-966c-796261636b2e,rev?*%
%TF.SameCoordinates,Original*%
%TF.FileFunction,Legend,Top*%
%TF.FilePolarity,Positive*%
%FSLAX46Y46*%
G04 Gerber Fmt 4.6, Leading zero omitted, Abs format (unit mm)*
G04 Created by KiCad (PCBNEW 9.0.6) date 2026-04-07 18:45:19*
%MOMM*%
%LPD*%
G01*
G04 APERTURE LIST*
%ADD10C,0.100000*%
%ADD11C,0.200000*%
%ADD12C,0.150000*%
%ADD13C,0.120000*%
%ADD14C,0.127000*%
%ADD15C,0.254000*%
%ADD16C,0.400000*%
G04 APERTURE END LIST*
D10*
X51880074Y-81772419D02*
X51403884Y-81772419D01*
X51403884Y-81772419D02*
X51403884Y-80772419D01*
X52070551Y-80772419D02*
X52403884Y-81772419D01*
X52403884Y-81772419D02*
X52737217Y-80772419D01*
X53594360Y-80820038D02*
X53499122Y-80772419D01*
X53499122Y-80772419D02*
X53356265Y-80772419D01*
X53356265Y-80772419D02*
X53213408Y-80820038D01*
X53213408Y-80820038D02*
X53118170Y-80915276D01*
X53118170Y-80915276D02*
X53070551Y-81010514D01*
X53070551Y-81010514D02*
X53022932Y-81200990D01*
X53022932Y-81200990D02*
X53022932Y-81343847D01*
X53022932Y-81343847D02*
X53070551Y-81534323D01*
X53070551Y-81534323D02*
X53118170Y-81629561D01*
X53118170Y-81629561D02*
X53213408Y-81724800D01*
X53213408Y-81724800D02*
X53356265Y-81772419D01*
X53356265Y-81772419D02*
X53451503Y-81772419D01*
X53451503Y-81772419D02*
X53594360Y-81724800D01*
X53594360Y-81724800D02*
X53641979Y-81677180D01*
X53641979Y-81677180D02*
X53641979Y-81343847D01*
X53641979Y-81343847D02*
X53451503Y-81343847D01*
X54070551Y-81772419D02*
X54070551Y-80772419D01*
X54070551Y-80772419D02*
X54641979Y-81772419D01*
X54641979Y-81772419D02*
X54641979Y-80772419D01*
X55118170Y-81772419D02*
X55118170Y-80772419D01*
X55118170Y-80772419D02*
X55356265Y-80772419D01*
X55356265Y-80772419D02*
X55499122Y-80820038D01*
X55499122Y-80820038D02*
X55594360Y-80915276D01*
X55594360Y-80915276D02*
X55641979Y-81010514D01*
X55641979Y-81010514D02*
X55689598Y-81200990D01*
X55689598Y-81200990D02*
X55689598Y-81343847D01*
X55689598Y-81343847D02*
X55641979Y-81534323D01*
X55641979Y-81534323D02*
X55594360Y-81629561D01*
X55594360Y-81629561D02*
X55499122Y-81724800D01*
X55499122Y-81724800D02*
X55356265Y-81772419D01*
X55356265Y-81772419D02*
X55118170Y-81772419D01*
D11*
X87369673Y-69657275D02*
X87369673Y-68657275D01*
X87369673Y-68657275D02*
X87607768Y-68657275D01*
X87607768Y-68657275D02*
X87750625Y-68704894D01*
X87750625Y-68704894D02*
X87845863Y-68800132D01*
X87845863Y-68800132D02*
X87893482Y-68895370D01*
X87893482Y-68895370D02*
X87941101Y-69085846D01*
X87941101Y-69085846D02*
X87941101Y-69228703D01*
X87941101Y-69228703D02*
X87893482Y-69419179D01*
X87893482Y-69419179D02*
X87845863Y-69514417D01*
X87845863Y-69514417D02*
X87750625Y-69609656D01*
X87750625Y-69609656D02*
X87607768Y-69657275D01*
X87607768Y-69657275D02*
X87369673Y-69657275D01*
X88322054Y-69371560D02*
X88798244Y-69371560D01*
X88226816Y-69657275D02*
X88560149Y-68657275D01*
X88560149Y-68657275D02*
X88893482Y-69657275D01*
X89226816Y-69657275D02*
X89226816Y-68657275D01*
X89226816Y-68657275D02*
X89798244Y-69657275D01*
X89798244Y-69657275D02*
X89798244Y-68657275D01*
X90798244Y-68704894D02*
X90703006Y-68657275D01*
X90703006Y-68657275D02*
X90560149Y-68657275D01*
X90560149Y-68657275D02*
X90417292Y-68704894D01*
X90417292Y-68704894D02*
X90322054Y-68800132D01*
X90322054Y-68800132D02*
X90274435Y-68895370D01*
X90274435Y-68895370D02*
X90226816Y-69085846D01*
X90226816Y-69085846D02*
X90226816Y-69228703D01*
X90226816Y-69228703D02*
X90274435Y-69419179D01*
X90274435Y-69419179D02*
X90322054Y-69514417D01*
X90322054Y-69514417D02*
X90417292Y-69609656D01*
X90417292Y-69609656D02*
X90560149Y-69657275D01*
X90560149Y-69657275D02*
X90655387Y-69657275D01*
X90655387Y-69657275D02*
X90798244Y-69609656D01*
X90798244Y-69609656D02*
X90845863Y-69562036D01*
X90845863Y-69562036D02*
X90845863Y-69228703D01*
X90845863Y-69228703D02*
X90655387Y-69228703D01*
X91274435Y-69133465D02*
X91607768Y-69133465D01*
X91750625Y-69657275D02*
X91274435Y-69657275D01*
X91274435Y-69657275D02*
X91274435Y-68657275D01*
X91274435Y-68657275D02*
X91750625Y-68657275D01*
X92750625Y-69657275D02*
X92417292Y-69181084D01*
X92179197Y-69657275D02*
X92179197Y-68657275D01*
X92179197Y-68657275D02*
X92560149Y-68657275D01*
X92560149Y-68657275D02*
X92655387Y-68704894D01*
X92655387Y-68704894D02*
X92703006Y-68752513D01*
X92703006Y-68752513D02*
X92750625Y-68847751D01*
X92750625Y-68847751D02*
X92750625Y-68990608D01*
X92750625Y-68990608D02*
X92703006Y-69085846D01*
X92703006Y-69085846D02*
X92655387Y-69133465D01*
X92655387Y-69133465D02*
X92560149Y-69181084D01*
X92560149Y-69181084D02*
X92179197Y-69181084D01*
X93179197Y-69562036D02*
X93226816Y-69609656D01*
X93226816Y-69609656D02*
X93179197Y-69657275D01*
X93179197Y-69657275D02*
X93131578Y-69609656D01*
X93131578Y-69609656D02*
X93179197Y-69562036D01*
X93179197Y-69562036D02*
X93179197Y-69657275D01*
X93179197Y-69038227D02*
X93226816Y-69085846D01*
X93226816Y-69085846D02*
X93179197Y-69133465D01*
X93179197Y-69133465D02*
X93131578Y-69085846D01*
X93131578Y-69085846D02*
X93179197Y-69038227D01*
X93179197Y-69038227D02*
X93179197Y-69133465D01*
X94417292Y-69657275D02*
X94417292Y-68657275D01*
X94417292Y-69133465D02*
X94988720Y-69133465D01*
X94988720Y-69657275D02*
X94988720Y-68657275D01*
X95464911Y-69657275D02*
X95464911Y-68657275D01*
X96464910Y-68704894D02*
X96369672Y-68657275D01*
X96369672Y-68657275D02*
X96226815Y-68657275D01*
X96226815Y-68657275D02*
X96083958Y-68704894D01*
X96083958Y-68704894D02*
X95988720Y-68800132D01*
X95988720Y-68800132D02*
X95941101Y-68895370D01*
X95941101Y-68895370D02*
X95893482Y-69085846D01*
X95893482Y-69085846D02*
X95893482Y-69228703D01*
X95893482Y-69228703D02*
X95941101Y-69419179D01*
X95941101Y-69419179D02*
X95988720Y-69514417D01*
X95988720Y-69514417D02*
X96083958Y-69609656D01*
X96083958Y-69609656D02*
X96226815Y-69657275D01*
X96226815Y-69657275D02*
X96322053Y-69657275D01*
X96322053Y-69657275D02*
X96464910Y-69609656D01*
X96464910Y-69609656D02*
X96512529Y-69562036D01*
X96512529Y-69562036D02*
X96512529Y-69228703D01*
X96512529Y-69228703D02*
X96322053Y-69228703D01*
X96941101Y-69657275D02*
X96941101Y-68657275D01*
X96941101Y-69133465D02*
X97512529Y-69133465D01*
X97512529Y-69657275D02*
X97512529Y-68657275D01*
X98607768Y-68657275D02*
X98941101Y-69657275D01*
X98941101Y-69657275D02*
X99274434Y-68657275D01*
X99798244Y-68657275D02*
X99988720Y-68657275D01*
X99988720Y-68657275D02*
X100083958Y-68704894D01*
X100083958Y-68704894D02*
X100179196Y-68800132D01*
X100179196Y-68800132D02*
X100226815Y-68990608D01*
X100226815Y-68990608D02*
X100226815Y-69323941D01*
X100226815Y-69323941D02*
X100179196Y-69514417D01*
X100179196Y-69514417D02*
X100083958Y-69609656D01*
X100083958Y-69609656D02*
X99988720Y-69657275D01*
X99988720Y-69657275D02*
X99798244Y-69657275D01*
X99798244Y-69657275D02*
X99703006Y-69609656D01*
X99703006Y-69609656D02*
X99607768Y-69514417D01*
X99607768Y-69514417D02*
X99560149Y-69323941D01*
X99560149Y-69323941D02*
X99560149Y-68990608D01*
X99560149Y-68990608D02*
X99607768Y-68800132D01*
X99607768Y-68800132D02*
X99703006Y-68704894D01*
X99703006Y-68704894D02*
X99798244Y-68657275D01*
X101131577Y-69657275D02*
X100655387Y-69657275D01*
X100655387Y-69657275D02*
X100655387Y-68657275D01*
X101322054Y-68657275D02*
X101893482Y-68657275D01*
X101607768Y-69657275D02*
X101607768Y-68657275D01*
X102179197Y-69371560D02*
X102655387Y-69371560D01*
X102083959Y-69657275D02*
X102417292Y-68657275D01*
X102417292Y-68657275D02*
X102750625Y-69657275D01*
X103607768Y-68704894D02*
X103512530Y-68657275D01*
X103512530Y-68657275D02*
X103369673Y-68657275D01*
X103369673Y-68657275D02*
X103226816Y-68704894D01*
X103226816Y-68704894D02*
X103131578Y-68800132D01*
X103131578Y-68800132D02*
X103083959Y-68895370D01*
X103083959Y-68895370D02*
X103036340Y-69085846D01*
X103036340Y-69085846D02*
X103036340Y-69228703D01*
X103036340Y-69228703D02*
X103083959Y-69419179D01*
X103083959Y-69419179D02*
X103131578Y-69514417D01*
X103131578Y-69514417D02*
X103226816Y-69609656D01*
X103226816Y-69609656D02*
X103369673Y-69657275D01*
X103369673Y-69657275D02*
X103464911Y-69657275D01*
X103464911Y-69657275D02*
X103607768Y-69609656D01*
X103607768Y-69609656D02*
X103655387Y-69562036D01*
X103655387Y-69562036D02*
X103655387Y-69228703D01*
X103655387Y-69228703D02*
X103464911Y-69228703D01*
X104083959Y-69133465D02*
X104417292Y-69133465D01*
X104560149Y-69657275D02*
X104083959Y-69657275D01*
X104083959Y-69657275D02*
X104083959Y-68657275D01*
X104083959Y-68657275D02*
X104560149Y-68657275D01*
X106179197Y-68990608D02*
X106179197Y-69657275D01*
X105941102Y-68609656D02*
X105703007Y-69323941D01*
X105703007Y-69323941D02*
X106322054Y-69323941D01*
X106893483Y-68657275D02*
X106988721Y-68657275D01*
X106988721Y-68657275D02*
X107083959Y-68704894D01*
X107083959Y-68704894D02*
X107131578Y-68752513D01*
X107131578Y-68752513D02*
X107179197Y-68847751D01*
X107179197Y-68847751D02*
X107226816Y-69038227D01*
X107226816Y-69038227D02*
X107226816Y-69276322D01*
X107226816Y-69276322D02*
X107179197Y-69466798D01*
X107179197Y-69466798D02*
X107131578Y-69562036D01*
X107131578Y-69562036D02*
X107083959Y-69609656D01*
X107083959Y-69609656D02*
X106988721Y-69657275D01*
X106988721Y-69657275D02*
X106893483Y-69657275D01*
X106893483Y-69657275D02*
X106798245Y-69609656D01*
X106798245Y-69609656D02*
X106750626Y-69562036D01*
X106750626Y-69562036D02*
X106703007Y-69466798D01*
X106703007Y-69466798D02*
X106655388Y-69276322D01*
X106655388Y-69276322D02*
X106655388Y-69038227D01*
X106655388Y-69038227D02*
X106703007Y-68847751D01*
X106703007Y-68847751D02*
X106750626Y-68752513D01*
X106750626Y-68752513D02*
X106798245Y-68704894D01*
X106798245Y-68704894D02*
X106893483Y-68657275D01*
X107845864Y-68657275D02*
X107941102Y-68657275D01*
X107941102Y-68657275D02*
X108036340Y-68704894D01*
X108036340Y-68704894D02*
X108083959Y-68752513D01*
X108083959Y-68752513D02*
X108131578Y-68847751D01*
X108131578Y-68847751D02*
X108179197Y-69038227D01*
X108179197Y-69038227D02*
X108179197Y-69276322D01*
X108179197Y-69276322D02*
X108131578Y-69466798D01*
X108131578Y-69466798D02*
X108083959Y-69562036D01*
X108083959Y-69562036D02*
X108036340Y-69609656D01*
X108036340Y-69609656D02*
X107941102Y-69657275D01*
X107941102Y-69657275D02*
X107845864Y-69657275D01*
X107845864Y-69657275D02*
X107750626Y-69609656D01*
X107750626Y-69609656D02*
X107703007Y-69562036D01*
X107703007Y-69562036D02*
X107655388Y-69466798D01*
X107655388Y-69466798D02*
X107607769Y-69276322D01*
X107607769Y-69276322D02*
X107607769Y-69038227D01*
X107607769Y-69038227D02*
X107655388Y-68847751D01*
X107655388Y-68847751D02*
X107703007Y-68752513D01*
X107703007Y-68752513D02*
X107750626Y-68704894D01*
X107750626Y-68704894D02*
X107845864Y-68657275D01*
X108464912Y-68657275D02*
X108798245Y-69657275D01*
X108798245Y-69657275D02*
X109131578Y-68657275D01*
X110417293Y-68657275D02*
X110607769Y-68657275D01*
X110607769Y-68657275D02*
X110703007Y-68704894D01*
X110703007Y-68704894D02*
X110798245Y-68800132D01*
X110798245Y-68800132D02*
X110845864Y-68990608D01*
X110845864Y-68990608D02*
X110845864Y-69323941D01*
X110845864Y-69323941D02*
X110798245Y-69514417D01*
X110798245Y-69514417D02*
X110703007Y-69609656D01*
X110703007Y-69609656D02*
X110607769Y-69657275D01*
X110607769Y-69657275D02*
X110417293Y-69657275D01*
X110417293Y-69657275D02*
X110322055Y-69609656D01*
X110322055Y-69609656D02*
X110226817Y-69514417D01*
X110226817Y-69514417D02*
X110179198Y-69323941D01*
X110179198Y-69323941D02*
X110179198Y-68990608D01*
X110179198Y-68990608D02*
X110226817Y-68800132D01*
X110226817Y-68800132D02*
X110322055Y-68704894D01*
X110322055Y-68704894D02*
X110417293Y-68657275D01*
X111274436Y-68657275D02*
X111274436Y-69466798D01*
X111274436Y-69466798D02*
X111322055Y-69562036D01*
X111322055Y-69562036D02*
X111369674Y-69609656D01*
X111369674Y-69609656D02*
X111464912Y-69657275D01*
X111464912Y-69657275D02*
X111655388Y-69657275D01*
X111655388Y-69657275D02*
X111750626Y-69609656D01*
X111750626Y-69609656D02*
X111798245Y-69562036D01*
X111798245Y-69562036D02*
X111845864Y-69466798D01*
X111845864Y-69466798D02*
X111845864Y-68657275D01*
X112179198Y-68657275D02*
X112750626Y-68657275D01*
X112464912Y-69657275D02*
X112464912Y-68657275D01*
X113083960Y-69657275D02*
X113083960Y-68657275D01*
X113083960Y-68657275D02*
X113464912Y-68657275D01*
X113464912Y-68657275D02*
X113560150Y-68704894D01*
X113560150Y-68704894D02*
X113607769Y-68752513D01*
X113607769Y-68752513D02*
X113655388Y-68847751D01*
X113655388Y-68847751D02*
X113655388Y-68990608D01*
X113655388Y-68990608D02*
X113607769Y-69085846D01*
X113607769Y-69085846D02*
X113560150Y-69133465D01*
X113560150Y-69133465D02*
X113464912Y-69181084D01*
X113464912Y-69181084D02*
X113083960Y-69181084D01*
X114083960Y-68657275D02*
X114083960Y-69466798D01*
X114083960Y-69466798D02*
X114131579Y-69562036D01*
X114131579Y-69562036D02*
X114179198Y-69609656D01*
X114179198Y-69609656D02*
X114274436Y-69657275D01*
X114274436Y-69657275D02*
X114464912Y-69657275D01*
X114464912Y-69657275D02*
X114560150Y-69609656D01*
X114560150Y-69609656D02*
X114607769Y-69562036D01*
X114607769Y-69562036D02*
X114655388Y-69466798D01*
X114655388Y-69466798D02*
X114655388Y-68657275D01*
X114988722Y-68657275D02*
X115560150Y-68657275D01*
X115274436Y-69657275D02*
X115274436Y-68657275D01*
X87941101Y-71267219D02*
X87607768Y-70791028D01*
X87369673Y-71267219D02*
X87369673Y-70267219D01*
X87369673Y-70267219D02*
X87750625Y-70267219D01*
X87750625Y-70267219D02*
X87845863Y-70314838D01*
X87845863Y-70314838D02*
X87893482Y-70362457D01*
X87893482Y-70362457D02*
X87941101Y-70457695D01*
X87941101Y-70457695D02*
X87941101Y-70600552D01*
X87941101Y-70600552D02*
X87893482Y-70695790D01*
X87893482Y-70695790D02*
X87845863Y-70743409D01*
X87845863Y-70743409D02*
X87750625Y-70791028D01*
X87750625Y-70791028D02*
X87369673Y-70791028D01*
X88369673Y-70743409D02*
X88703006Y-70743409D01*
X88845863Y-71267219D02*
X88369673Y-71267219D01*
X88369673Y-71267219D02*
X88369673Y-70267219D01*
X88369673Y-70267219D02*
X88845863Y-70267219D01*
X89941101Y-71362457D02*
X89845863Y-71314838D01*
X89845863Y-71314838D02*
X89750625Y-71219600D01*
X89750625Y-71219600D02*
X89607768Y-71076742D01*
X89607768Y-71076742D02*
X89512530Y-71029123D01*
X89512530Y-71029123D02*
X89417292Y-71029123D01*
X89464911Y-71267219D02*
X89369673Y-71219600D01*
X89369673Y-71219600D02*
X89274435Y-71124361D01*
X89274435Y-71124361D02*
X89226816Y-70933885D01*
X89226816Y-70933885D02*
X89226816Y-70600552D01*
X89226816Y-70600552D02*
X89274435Y-70410076D01*
X89274435Y-70410076D02*
X89369673Y-70314838D01*
X89369673Y-70314838D02*
X89464911Y-70267219D01*
X89464911Y-70267219D02*
X89655387Y-70267219D01*
X89655387Y-70267219D02*
X89750625Y-70314838D01*
X89750625Y-70314838D02*
X89845863Y-70410076D01*
X89845863Y-70410076D02*
X89893482Y-70600552D01*
X89893482Y-70600552D02*
X89893482Y-70933885D01*
X89893482Y-70933885D02*
X89845863Y-71124361D01*
X89845863Y-71124361D02*
X89750625Y-71219600D01*
X89750625Y-71219600D02*
X89655387Y-71267219D01*
X89655387Y-71267219D02*
X89464911Y-71267219D01*
X90322054Y-70267219D02*
X90322054Y-71076742D01*
X90322054Y-71076742D02*
X90369673Y-71171980D01*
X90369673Y-71171980D02*
X90417292Y-71219600D01*
X90417292Y-71219600D02*
X90512530Y-71267219D01*
X90512530Y-71267219D02*
X90703006Y-71267219D01*
X90703006Y-71267219D02*
X90798244Y-71219600D01*
X90798244Y-71219600D02*
X90845863Y-71171980D01*
X90845863Y-71171980D02*
X90893482Y-71076742D01*
X90893482Y-71076742D02*
X90893482Y-70267219D01*
X91369673Y-71267219D02*
X91369673Y-70267219D01*
X92417291Y-71267219D02*
X92083958Y-70791028D01*
X91845863Y-71267219D02*
X91845863Y-70267219D01*
X91845863Y-70267219D02*
X92226815Y-70267219D01*
X92226815Y-70267219D02*
X92322053Y-70314838D01*
X92322053Y-70314838D02*
X92369672Y-70362457D01*
X92369672Y-70362457D02*
X92417291Y-70457695D01*
X92417291Y-70457695D02*
X92417291Y-70600552D01*
X92417291Y-70600552D02*
X92369672Y-70695790D01*
X92369672Y-70695790D02*
X92322053Y-70743409D01*
X92322053Y-70743409D02*
X92226815Y-70791028D01*
X92226815Y-70791028D02*
X91845863Y-70791028D01*
X92845863Y-70743409D02*
X93179196Y-70743409D01*
X93322053Y-71267219D02*
X92845863Y-71267219D01*
X92845863Y-71267219D02*
X92845863Y-70267219D01*
X92845863Y-70267219D02*
X93322053Y-70267219D01*
X93703006Y-71219600D02*
X93845863Y-71267219D01*
X93845863Y-71267219D02*
X94083958Y-71267219D01*
X94083958Y-71267219D02*
X94179196Y-71219600D01*
X94179196Y-71219600D02*
X94226815Y-71171980D01*
X94226815Y-71171980D02*
X94274434Y-71076742D01*
X94274434Y-71076742D02*
X94274434Y-70981504D01*
X94274434Y-70981504D02*
X94226815Y-70886266D01*
X94226815Y-70886266D02*
X94179196Y-70838647D01*
X94179196Y-70838647D02*
X94083958Y-70791028D01*
X94083958Y-70791028D02*
X93893482Y-70743409D01*
X93893482Y-70743409D02*
X93798244Y-70695790D01*
X93798244Y-70695790D02*
X93750625Y-70648171D01*
X93750625Y-70648171D02*
X93703006Y-70552933D01*
X93703006Y-70552933D02*
X93703006Y-70457695D01*
X93703006Y-70457695D02*
X93750625Y-70362457D01*
X93750625Y-70362457D02*
X93798244Y-70314838D01*
X93798244Y-70314838D02*
X93893482Y-70267219D01*
X93893482Y-70267219D02*
X94131577Y-70267219D01*
X94131577Y-70267219D02*
X94274434Y-70314838D01*
X95417292Y-70362457D02*
X95464911Y-70314838D01*
X95464911Y-70314838D02*
X95560149Y-70267219D01*
X95560149Y-70267219D02*
X95798244Y-70267219D01*
X95798244Y-70267219D02*
X95893482Y-70314838D01*
X95893482Y-70314838D02*
X95941101Y-70362457D01*
X95941101Y-70362457D02*
X95988720Y-70457695D01*
X95988720Y-70457695D02*
X95988720Y-70552933D01*
X95988720Y-70552933D02*
X95941101Y-70695790D01*
X95941101Y-70695790D02*
X95369673Y-71267219D01*
X95369673Y-71267219D02*
X95988720Y-71267219D01*
X96607768Y-70267219D02*
X96703006Y-70267219D01*
X96703006Y-70267219D02*
X96798244Y-70314838D01*
X96798244Y-70314838D02*
X96845863Y-70362457D01*
X96845863Y-70362457D02*
X96893482Y-70457695D01*
X96893482Y-70457695D02*
X96941101Y-70648171D01*
X96941101Y-70648171D02*
X96941101Y-70886266D01*
X96941101Y-70886266D02*
X96893482Y-71076742D01*
X96893482Y-71076742D02*
X96845863Y-71171980D01*
X96845863Y-71171980D02*
X96798244Y-71219600D01*
X96798244Y-71219600D02*
X96703006Y-71267219D01*
X96703006Y-71267219D02*
X96607768Y-71267219D01*
X96607768Y-71267219D02*
X96512530Y-71219600D01*
X96512530Y-71219600D02*
X96464911Y-71171980D01*
X96464911Y-71171980D02*
X96417292Y-71076742D01*
X96417292Y-71076742D02*
X96369673Y-70886266D01*
X96369673Y-70886266D02*
X96369673Y-70648171D01*
X96369673Y-70648171D02*
X96417292Y-70457695D01*
X96417292Y-70457695D02*
X96464911Y-70362457D01*
X96464911Y-70362457D02*
X96512530Y-70314838D01*
X96512530Y-70314838D02*
X96607768Y-70267219D01*
X97560149Y-70267219D02*
X97655387Y-70267219D01*
X97655387Y-70267219D02*
X97750625Y-70314838D01*
X97750625Y-70314838D02*
X97798244Y-70362457D01*
X97798244Y-70362457D02*
X97845863Y-70457695D01*
X97845863Y-70457695D02*
X97893482Y-70648171D01*
X97893482Y-70648171D02*
X97893482Y-70886266D01*
X97893482Y-70886266D02*
X97845863Y-71076742D01*
X97845863Y-71076742D02*
X97798244Y-71171980D01*
X97798244Y-71171980D02*
X97750625Y-71219600D01*
X97750625Y-71219600D02*
X97655387Y-71267219D01*
X97655387Y-71267219D02*
X97560149Y-71267219D01*
X97560149Y-71267219D02*
X97464911Y-71219600D01*
X97464911Y-71219600D02*
X97417292Y-71171980D01*
X97417292Y-71171980D02*
X97369673Y-71076742D01*
X97369673Y-71076742D02*
X97322054Y-70886266D01*
X97322054Y-70886266D02*
X97322054Y-70648171D01*
X97322054Y-70648171D02*
X97369673Y-70457695D01*
X97369673Y-70457695D02*
X97417292Y-70362457D01*
X97417292Y-70362457D02*
X97464911Y-70314838D01*
X97464911Y-70314838D02*
X97560149Y-70267219D01*
X98750625Y-70600552D02*
X98750625Y-71267219D01*
X98322054Y-70600552D02*
X98322054Y-71124361D01*
X98322054Y-71124361D02*
X98369673Y-71219600D01*
X98369673Y-71219600D02*
X98464911Y-71267219D01*
X98464911Y-71267219D02*
X98607768Y-71267219D01*
X98607768Y-71267219D02*
X98703006Y-71219600D01*
X98703006Y-71219600D02*
X98750625Y-71171980D01*
X99560149Y-70743409D02*
X99226816Y-70743409D01*
X99226816Y-71267219D02*
X99226816Y-70267219D01*
X99226816Y-70267219D02*
X99703006Y-70267219D01*
X101179197Y-70743409D02*
X101322054Y-70791028D01*
X101322054Y-70791028D02*
X101369673Y-70838647D01*
X101369673Y-70838647D02*
X101417292Y-70933885D01*
X101417292Y-70933885D02*
X101417292Y-71076742D01*
X101417292Y-71076742D02*
X101369673Y-71171980D01*
X101369673Y-71171980D02*
X101322054Y-71219600D01*
X101322054Y-71219600D02*
X101226816Y-71267219D01*
X101226816Y-71267219D02*
X100845864Y-71267219D01*
X100845864Y-71267219D02*
X100845864Y-70267219D01*
X100845864Y-70267219D02*
X101179197Y-70267219D01*
X101179197Y-70267219D02*
X101274435Y-70314838D01*
X101274435Y-70314838D02*
X101322054Y-70362457D01*
X101322054Y-70362457D02*
X101369673Y-70457695D01*
X101369673Y-70457695D02*
X101369673Y-70552933D01*
X101369673Y-70552933D02*
X101322054Y-70648171D01*
X101322054Y-70648171D02*
X101274435Y-70695790D01*
X101274435Y-70695790D02*
X101179197Y-70743409D01*
X101179197Y-70743409D02*
X100845864Y-70743409D01*
X101845864Y-70267219D02*
X101845864Y-71076742D01*
X101845864Y-71076742D02*
X101893483Y-71171980D01*
X101893483Y-71171980D02*
X101941102Y-71219600D01*
X101941102Y-71219600D02*
X102036340Y-71267219D01*
X102036340Y-71267219D02*
X102226816Y-71267219D01*
X102226816Y-71267219D02*
X102322054Y-71219600D01*
X102322054Y-71219600D02*
X102369673Y-71171980D01*
X102369673Y-71171980D02*
X102417292Y-71076742D01*
X102417292Y-71076742D02*
X102417292Y-70267219D01*
X103369673Y-71267219D02*
X102893483Y-71267219D01*
X102893483Y-71267219D02*
X102893483Y-70267219D01*
X103703007Y-71267219D02*
X103703007Y-70267219D01*
X104274435Y-71267219D02*
X103845864Y-70695790D01*
X104274435Y-70267219D02*
X103703007Y-70838647D01*
X105655388Y-70267219D02*
X105845864Y-70267219D01*
X105845864Y-70267219D02*
X105941102Y-70314838D01*
X105941102Y-70314838D02*
X106036340Y-70410076D01*
X106036340Y-70410076D02*
X106083959Y-70600552D01*
X106083959Y-70600552D02*
X106083959Y-70933885D01*
X106083959Y-70933885D02*
X106036340Y-71124361D01*
X106036340Y-71124361D02*
X105941102Y-71219600D01*
X105941102Y-71219600D02*
X105845864Y-71267219D01*
X105845864Y-71267219D02*
X105655388Y-71267219D01*
X105655388Y-71267219D02*
X105560150Y-71219600D01*
X105560150Y-71219600D02*
X105464912Y-71124361D01*
X105464912Y-71124361D02*
X105417293Y-70933885D01*
X105417293Y-70933885D02*
X105417293Y-70600552D01*
X105417293Y-70600552D02*
X105464912Y-70410076D01*
X105464912Y-70410076D02*
X105560150Y-70314838D01*
X105560150Y-70314838D02*
X105655388Y-70267219D01*
X106512531Y-70267219D02*
X106512531Y-71076742D01*
X106512531Y-71076742D02*
X106560150Y-71171980D01*
X106560150Y-71171980D02*
X106607769Y-71219600D01*
X106607769Y-71219600D02*
X106703007Y-71267219D01*
X106703007Y-71267219D02*
X106893483Y-71267219D01*
X106893483Y-71267219D02*
X106988721Y-71219600D01*
X106988721Y-71219600D02*
X107036340Y-71171980D01*
X107036340Y-71171980D02*
X107083959Y-71076742D01*
X107083959Y-71076742D02*
X107083959Y-70267219D01*
X107417293Y-70267219D02*
X107988721Y-70267219D01*
X107703007Y-71267219D02*
X107703007Y-70267219D01*
X108322055Y-71267219D02*
X108322055Y-70267219D01*
X108322055Y-70267219D02*
X108703007Y-70267219D01*
X108703007Y-70267219D02*
X108798245Y-70314838D01*
X108798245Y-70314838D02*
X108845864Y-70362457D01*
X108845864Y-70362457D02*
X108893483Y-70457695D01*
X108893483Y-70457695D02*
X108893483Y-70600552D01*
X108893483Y-70600552D02*
X108845864Y-70695790D01*
X108845864Y-70695790D02*
X108798245Y-70743409D01*
X108798245Y-70743409D02*
X108703007Y-70791028D01*
X108703007Y-70791028D02*
X108322055Y-70791028D01*
X109322055Y-70267219D02*
X109322055Y-71076742D01*
X109322055Y-71076742D02*
X109369674Y-71171980D01*
X109369674Y-71171980D02*
X109417293Y-71219600D01*
X109417293Y-71219600D02*
X109512531Y-71267219D01*
X109512531Y-71267219D02*
X109703007Y-71267219D01*
X109703007Y-71267219D02*
X109798245Y-71219600D01*
X109798245Y-71219600D02*
X109845864Y-71171980D01*
X109845864Y-71171980D02*
X109893483Y-71076742D01*
X109893483Y-71076742D02*
X109893483Y-70267219D01*
X110226817Y-70267219D02*
X110798245Y-70267219D01*
X110512531Y-71267219D02*
X110512531Y-70267219D01*
X112464912Y-71171980D02*
X112417293Y-71219600D01*
X112417293Y-71219600D02*
X112274436Y-71267219D01*
X112274436Y-71267219D02*
X112179198Y-71267219D01*
X112179198Y-71267219D02*
X112036341Y-71219600D01*
X112036341Y-71219600D02*
X111941103Y-71124361D01*
X111941103Y-71124361D02*
X111893484Y-71029123D01*
X111893484Y-71029123D02*
X111845865Y-70838647D01*
X111845865Y-70838647D02*
X111845865Y-70695790D01*
X111845865Y-70695790D02*
X111893484Y-70505314D01*
X111893484Y-70505314D02*
X111941103Y-70410076D01*
X111941103Y-70410076D02*
X112036341Y-70314838D01*
X112036341Y-70314838D02*
X112179198Y-70267219D01*
X112179198Y-70267219D02*
X112274436Y-70267219D01*
X112274436Y-70267219D02*
X112417293Y-70314838D01*
X112417293Y-70314838D02*
X112464912Y-70362457D01*
X112845865Y-70981504D02*
X113322055Y-70981504D01*
X112750627Y-71267219D02*
X113083960Y-70267219D01*
X113083960Y-70267219D02*
X113417293Y-71267219D01*
X113750627Y-71267219D02*
X113750627Y-70267219D01*
X113750627Y-70267219D02*
X114131579Y-70267219D01*
X114131579Y-70267219D02*
X114226817Y-70314838D01*
X114226817Y-70314838D02*
X114274436Y-70362457D01*
X114274436Y-70362457D02*
X114322055Y-70457695D01*
X114322055Y-70457695D02*
X114322055Y-70600552D01*
X114322055Y-70600552D02*
X114274436Y-70695790D01*
X114274436Y-70695790D02*
X114226817Y-70743409D01*
X114226817Y-70743409D02*
X114131579Y-70791028D01*
X114131579Y-70791028D02*
X113750627Y-70791028D01*
X114703008Y-70981504D02*
X115179198Y-70981504D01*
X114607770Y-71267219D02*
X114941103Y-70267219D01*
X114941103Y-70267219D02*
X115274436Y-71267219D01*
X116179198Y-71171980D02*
X116131579Y-71219600D01*
X116131579Y-71219600D02*
X115988722Y-71267219D01*
X115988722Y-71267219D02*
X115893484Y-71267219D01*
X115893484Y-71267219D02*
X115750627Y-71219600D01*
X115750627Y-71219600D02*
X115655389Y-71124361D01*
X115655389Y-71124361D02*
X115607770Y-71029123D01*
X115607770Y-71029123D02*
X115560151Y-70838647D01*
X115560151Y-70838647D02*
X115560151Y-70695790D01*
X115560151Y-70695790D02*
X115607770Y-70505314D01*
X115607770Y-70505314D02*
X115655389Y-70410076D01*
X115655389Y-70410076D02*
X115750627Y-70314838D01*
X115750627Y-70314838D02*
X115893484Y-70267219D01*
X115893484Y-70267219D02*
X115988722Y-70267219D01*
X115988722Y-70267219D02*
X116131579Y-70314838D01*
X116131579Y-70314838D02*
X116179198Y-70362457D01*
X116607770Y-71267219D02*
X116607770Y-70267219D01*
X116941103Y-70267219D02*
X117512531Y-70267219D01*
X117226817Y-71267219D02*
X117226817Y-70267219D01*
X117798246Y-70981504D02*
X118274436Y-70981504D01*
X117703008Y-71267219D02*
X118036341Y-70267219D01*
X118036341Y-70267219D02*
X118369674Y-71267219D01*
X118703008Y-71267219D02*
X118703008Y-70267219D01*
X118703008Y-70267219D02*
X119274436Y-71267219D01*
X119274436Y-71267219D02*
X119274436Y-70267219D01*
X120322055Y-71171980D02*
X120274436Y-71219600D01*
X120274436Y-71219600D02*
X120131579Y-71267219D01*
X120131579Y-71267219D02*
X120036341Y-71267219D01*
X120036341Y-71267219D02*
X119893484Y-71219600D01*
X119893484Y-71219600D02*
X119798246Y-71124361D01*
X119798246Y-71124361D02*
X119750627Y-71029123D01*
X119750627Y-71029123D02*
X119703008Y-70838647D01*
X119703008Y-70838647D02*
X119703008Y-70695790D01*
X119703008Y-70695790D02*
X119750627Y-70505314D01*
X119750627Y-70505314D02*
X119798246Y-70410076D01*
X119798246Y-70410076D02*
X119893484Y-70314838D01*
X119893484Y-70314838D02*
X120036341Y-70267219D01*
X120036341Y-70267219D02*
X120131579Y-70267219D01*
X120131579Y-70267219D02*
X120274436Y-70314838D01*
X120274436Y-70314838D02*
X120322055Y-70362457D01*
X120750627Y-70743409D02*
X121083960Y-70743409D01*
X121226817Y-71267219D02*
X120750627Y-71267219D01*
X120750627Y-71267219D02*
X120750627Y-70267219D01*
X120750627Y-70267219D02*
X121226817Y-70267219D01*
X122607770Y-70267219D02*
X122798246Y-70267219D01*
X122798246Y-70267219D02*
X122893484Y-70314838D01*
X122893484Y-70314838D02*
X122988722Y-70410076D01*
X122988722Y-70410076D02*
X123036341Y-70600552D01*
X123036341Y-70600552D02*
X123036341Y-70933885D01*
X123036341Y-70933885D02*
X122988722Y-71124361D01*
X122988722Y-71124361D02*
X122893484Y-71219600D01*
X122893484Y-71219600D02*
X122798246Y-71267219D01*
X122798246Y-71267219D02*
X122607770Y-71267219D01*
X122607770Y-71267219D02*
X122512532Y-71219600D01*
X122512532Y-71219600D02*
X122417294Y-71124361D01*
X122417294Y-71124361D02*
X122369675Y-70933885D01*
X122369675Y-70933885D02*
X122369675Y-70600552D01*
X122369675Y-70600552D02*
X122417294Y-70410076D01*
X122417294Y-70410076D02*
X122512532Y-70314838D01*
X122512532Y-70314838D02*
X122607770Y-70267219D01*
X124036341Y-71267219D02*
X123703008Y-70791028D01*
X123464913Y-71267219D02*
X123464913Y-70267219D01*
X123464913Y-70267219D02*
X123845865Y-70267219D01*
X123845865Y-70267219D02*
X123941103Y-70314838D01*
X123941103Y-70314838D02*
X123988722Y-70362457D01*
X123988722Y-70362457D02*
X124036341Y-70457695D01*
X124036341Y-70457695D02*
X124036341Y-70600552D01*
X124036341Y-70600552D02*
X123988722Y-70695790D01*
X123988722Y-70695790D02*
X123941103Y-70743409D01*
X123941103Y-70743409D02*
X123845865Y-70791028D01*
X123845865Y-70791028D02*
X123464913Y-70791028D01*
X125798246Y-71171980D02*
X125750627Y-71219600D01*
X125750627Y-71219600D02*
X125607770Y-71267219D01*
X125607770Y-71267219D02*
X125512532Y-71267219D01*
X125512532Y-71267219D02*
X125369675Y-71219600D01*
X125369675Y-71219600D02*
X125274437Y-71124361D01*
X125274437Y-71124361D02*
X125226818Y-71029123D01*
X125226818Y-71029123D02*
X125179199Y-70838647D01*
X125179199Y-70838647D02*
X125179199Y-70695790D01*
X125179199Y-70695790D02*
X125226818Y-70505314D01*
X125226818Y-70505314D02*
X125274437Y-70410076D01*
X125274437Y-70410076D02*
X125369675Y-70314838D01*
X125369675Y-70314838D02*
X125512532Y-70267219D01*
X125512532Y-70267219D02*
X125607770Y-70267219D01*
X125607770Y-70267219D02*
X125750627Y-70314838D01*
X125750627Y-70314838D02*
X125798246Y-70362457D01*
X126083961Y-70267219D02*
X126417294Y-71267219D01*
X126417294Y-71267219D02*
X126750627Y-70267219D01*
X128322056Y-71267219D02*
X127845866Y-71267219D01*
X127845866Y-71267219D02*
X127845866Y-70267219D01*
X128845866Y-70267219D02*
X129036342Y-70267219D01*
X129036342Y-70267219D02*
X129131580Y-70314838D01*
X129131580Y-70314838D02*
X129226818Y-70410076D01*
X129226818Y-70410076D02*
X129274437Y-70600552D01*
X129274437Y-70600552D02*
X129274437Y-70933885D01*
X129274437Y-70933885D02*
X129226818Y-71124361D01*
X129226818Y-71124361D02*
X129131580Y-71219600D01*
X129131580Y-71219600D02*
X129036342Y-71267219D01*
X129036342Y-71267219D02*
X128845866Y-71267219D01*
X128845866Y-71267219D02*
X128750628Y-71219600D01*
X128750628Y-71219600D02*
X128655390Y-71124361D01*
X128655390Y-71124361D02*
X128607771Y-70933885D01*
X128607771Y-70933885D02*
X128607771Y-70600552D01*
X128607771Y-70600552D02*
X128655390Y-70410076D01*
X128655390Y-70410076D02*
X128750628Y-70314838D01*
X128750628Y-70314838D02*
X128845866Y-70267219D01*
X129655390Y-70981504D02*
X130131580Y-70981504D01*
X129560152Y-71267219D02*
X129893485Y-70267219D01*
X129893485Y-70267219D02*
X130226818Y-71267219D01*
X130560152Y-71267219D02*
X130560152Y-70267219D01*
X130560152Y-70267219D02*
X130798247Y-70267219D01*
X130798247Y-70267219D02*
X130941104Y-70314838D01*
X130941104Y-70314838D02*
X131036342Y-70410076D01*
X131036342Y-70410076D02*
X131083961Y-70505314D01*
X131083961Y-70505314D02*
X131131580Y-70695790D01*
X131131580Y-70695790D02*
X131131580Y-70838647D01*
X131131580Y-70838647D02*
X131083961Y-71029123D01*
X131083961Y-71029123D02*
X131036342Y-71124361D01*
X131036342Y-71124361D02*
X130941104Y-71219600D01*
X130941104Y-71219600D02*
X130798247Y-71267219D01*
X130798247Y-71267219D02*
X130560152Y-71267219D01*
X51722054Y-108661616D02*
X52198244Y-108661616D01*
X51626816Y-108947331D02*
X51960149Y-107947331D01*
X51960149Y-107947331D02*
X52293482Y-108947331D01*
X52626816Y-108947331D02*
X52626816Y-107947331D01*
X52626816Y-107947331D02*
X53007768Y-107947331D01*
X53007768Y-107947331D02*
X53103006Y-107994950D01*
X53103006Y-107994950D02*
X53150625Y-108042569D01*
X53150625Y-108042569D02*
X53198244Y-108137807D01*
X53198244Y-108137807D02*
X53198244Y-108280664D01*
X53198244Y-108280664D02*
X53150625Y-108375902D01*
X53150625Y-108375902D02*
X53103006Y-108423521D01*
X53103006Y-108423521D02*
X53007768Y-108471140D01*
X53007768Y-108471140D02*
X52626816Y-108471140D01*
X53626816Y-108423521D02*
X53960149Y-108423521D01*
X54103006Y-108947331D02*
X53626816Y-108947331D01*
X53626816Y-108947331D02*
X53626816Y-107947331D01*
X53626816Y-107947331D02*
X54103006Y-107947331D01*
X54436340Y-108947331D02*
X54960149Y-108280664D01*
X54436340Y-108280664D02*
X54960149Y-108947331D01*
X56103007Y-108566378D02*
X56864912Y-108566378D01*
X57769673Y-108280664D02*
X57769673Y-108947331D01*
X57531578Y-107899712D02*
X57293483Y-108613997D01*
X57293483Y-108613997D02*
X57912530Y-108613997D01*
X58483959Y-107947331D02*
X58579197Y-107947331D01*
X58579197Y-107947331D02*
X58674435Y-107994950D01*
X58674435Y-107994950D02*
X58722054Y-108042569D01*
X58722054Y-108042569D02*
X58769673Y-108137807D01*
X58769673Y-108137807D02*
X58817292Y-108328283D01*
X58817292Y-108328283D02*
X58817292Y-108566378D01*
X58817292Y-108566378D02*
X58769673Y-108756854D01*
X58769673Y-108756854D02*
X58722054Y-108852092D01*
X58722054Y-108852092D02*
X58674435Y-108899712D01*
X58674435Y-108899712D02*
X58579197Y-108947331D01*
X58579197Y-108947331D02*
X58483959Y-108947331D01*
X58483959Y-108947331D02*
X58388721Y-108899712D01*
X58388721Y-108899712D02*
X58341102Y-108852092D01*
X58341102Y-108852092D02*
X58293483Y-108756854D01*
X58293483Y-108756854D02*
X58245864Y-108566378D01*
X58245864Y-108566378D02*
X58245864Y-108328283D01*
X58245864Y-108328283D02*
X58293483Y-108137807D01*
X58293483Y-108137807D02*
X58341102Y-108042569D01*
X58341102Y-108042569D02*
X58388721Y-107994950D01*
X58388721Y-107994950D02*
X58483959Y-107947331D01*
X59436340Y-107947331D02*
X59531578Y-107947331D01*
X59531578Y-107947331D02*
X59626816Y-107994950D01*
X59626816Y-107994950D02*
X59674435Y-108042569D01*
X59674435Y-108042569D02*
X59722054Y-108137807D01*
X59722054Y-108137807D02*
X59769673Y-108328283D01*
X59769673Y-108328283D02*
X59769673Y-108566378D01*
X59769673Y-108566378D02*
X59722054Y-108756854D01*
X59722054Y-108756854D02*
X59674435Y-108852092D01*
X59674435Y-108852092D02*
X59626816Y-108899712D01*
X59626816Y-108899712D02*
X59531578Y-108947331D01*
X59531578Y-108947331D02*
X59436340Y-108947331D01*
X59436340Y-108947331D02*
X59341102Y-108899712D01*
X59341102Y-108899712D02*
X59293483Y-108852092D01*
X59293483Y-108852092D02*
X59245864Y-108756854D01*
X59245864Y-108756854D02*
X59198245Y-108566378D01*
X59198245Y-108566378D02*
X59198245Y-108328283D01*
X59198245Y-108328283D02*
X59245864Y-108137807D01*
X59245864Y-108137807D02*
X59293483Y-108042569D01*
X59293483Y-108042569D02*
X59341102Y-107994950D01*
X59341102Y-107994950D02*
X59436340Y-107947331D01*
X60055388Y-107947331D02*
X60388721Y-108947331D01*
X60388721Y-108947331D02*
X60722054Y-107947331D01*
X62150626Y-108423521D02*
X61817293Y-108423521D01*
X61817293Y-108947331D02*
X61817293Y-107947331D01*
X61817293Y-107947331D02*
X62293483Y-107947331D01*
X62817293Y-108947331D02*
X62722055Y-108899712D01*
X62722055Y-108899712D02*
X62674436Y-108804473D01*
X62674436Y-108804473D02*
X62674436Y-107947331D01*
X63103008Y-108280664D02*
X63341103Y-108947331D01*
X63579198Y-108280664D02*
X63341103Y-108947331D01*
X63341103Y-108947331D02*
X63245865Y-109185426D01*
X63245865Y-109185426D02*
X63198246Y-109233045D01*
X63198246Y-109233045D02*
X63103008Y-109280664D01*
X63960151Y-108947331D02*
X63960151Y-107947331D01*
X63960151Y-108328283D02*
X64055389Y-108280664D01*
X64055389Y-108280664D02*
X64245865Y-108280664D01*
X64245865Y-108280664D02*
X64341103Y-108328283D01*
X64341103Y-108328283D02*
X64388722Y-108375902D01*
X64388722Y-108375902D02*
X64436341Y-108471140D01*
X64436341Y-108471140D02*
X64436341Y-108756854D01*
X64436341Y-108756854D02*
X64388722Y-108852092D01*
X64388722Y-108852092D02*
X64341103Y-108899712D01*
X64341103Y-108899712D02*
X64245865Y-108947331D01*
X64245865Y-108947331D02*
X64055389Y-108947331D01*
X64055389Y-108947331D02*
X63960151Y-108899712D01*
X65293484Y-108947331D02*
X65293484Y-108423521D01*
X65293484Y-108423521D02*
X65245865Y-108328283D01*
X65245865Y-108328283D02*
X65150627Y-108280664D01*
X65150627Y-108280664D02*
X64960151Y-108280664D01*
X64960151Y-108280664D02*
X64864913Y-108328283D01*
X65293484Y-108899712D02*
X65198246Y-108947331D01*
X65198246Y-108947331D02*
X64960151Y-108947331D01*
X64960151Y-108947331D02*
X64864913Y-108899712D01*
X64864913Y-108899712D02*
X64817294Y-108804473D01*
X64817294Y-108804473D02*
X64817294Y-108709235D01*
X64817294Y-108709235D02*
X64864913Y-108613997D01*
X64864913Y-108613997D02*
X64960151Y-108566378D01*
X64960151Y-108566378D02*
X65198246Y-108566378D01*
X65198246Y-108566378D02*
X65293484Y-108518759D01*
X66198246Y-108899712D02*
X66103008Y-108947331D01*
X66103008Y-108947331D02*
X65912532Y-108947331D01*
X65912532Y-108947331D02*
X65817294Y-108899712D01*
X65817294Y-108899712D02*
X65769675Y-108852092D01*
X65769675Y-108852092D02*
X65722056Y-108756854D01*
X65722056Y-108756854D02*
X65722056Y-108471140D01*
X65722056Y-108471140D02*
X65769675Y-108375902D01*
X65769675Y-108375902D02*
X65817294Y-108328283D01*
X65817294Y-108328283D02*
X65912532Y-108280664D01*
X65912532Y-108280664D02*
X66103008Y-108280664D01*
X66103008Y-108280664D02*
X66198246Y-108328283D01*
X66626818Y-108947331D02*
X66626818Y-107947331D01*
X66722056Y-108566378D02*
X67007770Y-108947331D01*
X67007770Y-108280664D02*
X66626818Y-108661616D01*
X68769675Y-108852092D02*
X68722056Y-108899712D01*
X68722056Y-108899712D02*
X68579199Y-108947331D01*
X68579199Y-108947331D02*
X68483961Y-108947331D01*
X68483961Y-108947331D02*
X68341104Y-108899712D01*
X68341104Y-108899712D02*
X68245866Y-108804473D01*
X68245866Y-108804473D02*
X68198247Y-108709235D01*
X68198247Y-108709235D02*
X68150628Y-108518759D01*
X68150628Y-108518759D02*
X68150628Y-108375902D01*
X68150628Y-108375902D02*
X68198247Y-108185426D01*
X68198247Y-108185426D02*
X68245866Y-108090188D01*
X68245866Y-108090188D02*
X68341104Y-107994950D01*
X68341104Y-107994950D02*
X68483961Y-107947331D01*
X68483961Y-107947331D02*
X68579199Y-107947331D01*
X68579199Y-107947331D02*
X68722056Y-107994950D01*
X68722056Y-107994950D02*
X68769675Y-108042569D01*
X69341104Y-108947331D02*
X69245866Y-108899712D01*
X69245866Y-108899712D02*
X69198247Y-108852092D01*
X69198247Y-108852092D02*
X69150628Y-108756854D01*
X69150628Y-108756854D02*
X69150628Y-108471140D01*
X69150628Y-108471140D02*
X69198247Y-108375902D01*
X69198247Y-108375902D02*
X69245866Y-108328283D01*
X69245866Y-108328283D02*
X69341104Y-108280664D01*
X69341104Y-108280664D02*
X69483961Y-108280664D01*
X69483961Y-108280664D02*
X69579199Y-108328283D01*
X69579199Y-108328283D02*
X69626818Y-108375902D01*
X69626818Y-108375902D02*
X69674437Y-108471140D01*
X69674437Y-108471140D02*
X69674437Y-108756854D01*
X69674437Y-108756854D02*
X69626818Y-108852092D01*
X69626818Y-108852092D02*
X69579199Y-108899712D01*
X69579199Y-108899712D02*
X69483961Y-108947331D01*
X69483961Y-108947331D02*
X69341104Y-108947331D01*
X70103009Y-108280664D02*
X70103009Y-108947331D01*
X70103009Y-108375902D02*
X70150628Y-108328283D01*
X70150628Y-108328283D02*
X70245866Y-108280664D01*
X70245866Y-108280664D02*
X70388723Y-108280664D01*
X70388723Y-108280664D02*
X70483961Y-108328283D01*
X70483961Y-108328283D02*
X70531580Y-108423521D01*
X70531580Y-108423521D02*
X70531580Y-108947331D01*
X70912533Y-108280664D02*
X71150628Y-108947331D01*
X71150628Y-108947331D02*
X71388723Y-108280664D01*
X72150628Y-108899712D02*
X72055390Y-108947331D01*
X72055390Y-108947331D02*
X71864914Y-108947331D01*
X71864914Y-108947331D02*
X71769676Y-108899712D01*
X71769676Y-108899712D02*
X71722057Y-108804473D01*
X71722057Y-108804473D02*
X71722057Y-108423521D01*
X71722057Y-108423521D02*
X71769676Y-108328283D01*
X71769676Y-108328283D02*
X71864914Y-108280664D01*
X71864914Y-108280664D02*
X72055390Y-108280664D01*
X72055390Y-108280664D02*
X72150628Y-108328283D01*
X72150628Y-108328283D02*
X72198247Y-108423521D01*
X72198247Y-108423521D02*
X72198247Y-108518759D01*
X72198247Y-108518759D02*
X71722057Y-108613997D01*
X72626819Y-108947331D02*
X72626819Y-108280664D01*
X72626819Y-108471140D02*
X72674438Y-108375902D01*
X72674438Y-108375902D02*
X72722057Y-108328283D01*
X72722057Y-108328283D02*
X72817295Y-108280664D01*
X72817295Y-108280664D02*
X72912533Y-108280664D01*
X73103010Y-108280664D02*
X73483962Y-108280664D01*
X73245867Y-107947331D02*
X73245867Y-108804473D01*
X73245867Y-108804473D02*
X73293486Y-108899712D01*
X73293486Y-108899712D02*
X73388724Y-108947331D01*
X73388724Y-108947331D02*
X73483962Y-108947331D01*
X74198248Y-108899712D02*
X74103010Y-108947331D01*
X74103010Y-108947331D02*
X73912534Y-108947331D01*
X73912534Y-108947331D02*
X73817296Y-108899712D01*
X73817296Y-108899712D02*
X73769677Y-108804473D01*
X73769677Y-108804473D02*
X73769677Y-108423521D01*
X73769677Y-108423521D02*
X73817296Y-108328283D01*
X73817296Y-108328283D02*
X73912534Y-108280664D01*
X73912534Y-108280664D02*
X74103010Y-108280664D01*
X74103010Y-108280664D02*
X74198248Y-108328283D01*
X74198248Y-108328283D02*
X74245867Y-108423521D01*
X74245867Y-108423521D02*
X74245867Y-108518759D01*
X74245867Y-108518759D02*
X73769677Y-108613997D01*
X74674439Y-108947331D02*
X74674439Y-108280664D01*
X74674439Y-108471140D02*
X74722058Y-108375902D01*
X74722058Y-108375902D02*
X74769677Y-108328283D01*
X74769677Y-108328283D02*
X74864915Y-108280664D01*
X74864915Y-108280664D02*
X74960153Y-108280664D01*
X52341101Y-110557275D02*
X52007768Y-110081084D01*
X51769673Y-110557275D02*
X51769673Y-109557275D01*
X51769673Y-109557275D02*
X52150625Y-109557275D01*
X52150625Y-109557275D02*
X52245863Y-109604894D01*
X52245863Y-109604894D02*
X52293482Y-109652513D01*
X52293482Y-109652513D02*
X52341101Y-109747751D01*
X52341101Y-109747751D02*
X52341101Y-109890608D01*
X52341101Y-109890608D02*
X52293482Y-109985846D01*
X52293482Y-109985846D02*
X52245863Y-110033465D01*
X52245863Y-110033465D02*
X52150625Y-110081084D01*
X52150625Y-110081084D02*
X51769673Y-110081084D01*
X53150625Y-110509656D02*
X53055387Y-110557275D01*
X53055387Y-110557275D02*
X52864911Y-110557275D01*
X52864911Y-110557275D02*
X52769673Y-110509656D01*
X52769673Y-110509656D02*
X52722054Y-110414417D01*
X52722054Y-110414417D02*
X52722054Y-110033465D01*
X52722054Y-110033465D02*
X52769673Y-109938227D01*
X52769673Y-109938227D02*
X52864911Y-109890608D01*
X52864911Y-109890608D02*
X53055387Y-109890608D01*
X53055387Y-109890608D02*
X53150625Y-109938227D01*
X53150625Y-109938227D02*
X53198244Y-110033465D01*
X53198244Y-110033465D02*
X53198244Y-110128703D01*
X53198244Y-110128703D02*
X52722054Y-110223941D01*
X53531578Y-109890608D02*
X53769673Y-110557275D01*
X53769673Y-110557275D02*
X54007768Y-109890608D01*
X55103007Y-109652513D02*
X55150626Y-109604894D01*
X55150626Y-109604894D02*
X55245864Y-109557275D01*
X55245864Y-109557275D02*
X55483959Y-109557275D01*
X55483959Y-109557275D02*
X55579197Y-109604894D01*
X55579197Y-109604894D02*
X55626816Y-109652513D01*
X55626816Y-109652513D02*
X55674435Y-109747751D01*
X55674435Y-109747751D02*
X55674435Y-109842989D01*
X55674435Y-109842989D02*
X55626816Y-109985846D01*
X55626816Y-109985846D02*
X55055388Y-110557275D01*
X55055388Y-110557275D02*
X55674435Y-110557275D01*
X56103007Y-110462036D02*
X56150626Y-110509656D01*
X56150626Y-110509656D02*
X56103007Y-110557275D01*
X56103007Y-110557275D02*
X56055388Y-110509656D01*
X56055388Y-110509656D02*
X56103007Y-110462036D01*
X56103007Y-110462036D02*
X56103007Y-110557275D01*
X56769673Y-109557275D02*
X56864911Y-109557275D01*
X56864911Y-109557275D02*
X56960149Y-109604894D01*
X56960149Y-109604894D02*
X57007768Y-109652513D01*
X57007768Y-109652513D02*
X57055387Y-109747751D01*
X57055387Y-109747751D02*
X57103006Y-109938227D01*
X57103006Y-109938227D02*
X57103006Y-110176322D01*
X57103006Y-110176322D02*
X57055387Y-110366798D01*
X57055387Y-110366798D02*
X57007768Y-110462036D01*
X57007768Y-110462036D02*
X56960149Y-110509656D01*
X56960149Y-110509656D02*
X56864911Y-110557275D01*
X56864911Y-110557275D02*
X56769673Y-110557275D01*
X56769673Y-110557275D02*
X56674435Y-110509656D01*
X56674435Y-110509656D02*
X56626816Y-110462036D01*
X56626816Y-110462036D02*
X56579197Y-110366798D01*
X56579197Y-110366798D02*
X56531578Y-110176322D01*
X56531578Y-110176322D02*
X56531578Y-109938227D01*
X56531578Y-109938227D02*
X56579197Y-109747751D01*
X56579197Y-109747751D02*
X56626816Y-109652513D01*
X56626816Y-109652513D02*
X56674435Y-109604894D01*
X56674435Y-109604894D02*
X56769673Y-109557275D01*
X51722054Y-111881504D02*
X52198244Y-111881504D01*
X51626816Y-112167219D02*
X51960149Y-111167219D01*
X51960149Y-111167219D02*
X52293482Y-112167219D01*
X52769673Y-112167219D02*
X52674435Y-112119600D01*
X52674435Y-112119600D02*
X52626816Y-112024361D01*
X52626816Y-112024361D02*
X52626816Y-111167219D01*
X53579197Y-112167219D02*
X53579197Y-111643409D01*
X53579197Y-111643409D02*
X53531578Y-111548171D01*
X53531578Y-111548171D02*
X53436340Y-111500552D01*
X53436340Y-111500552D02*
X53245864Y-111500552D01*
X53245864Y-111500552D02*
X53150626Y-111548171D01*
X53579197Y-112119600D02*
X53483959Y-112167219D01*
X53483959Y-112167219D02*
X53245864Y-112167219D01*
X53245864Y-112167219D02*
X53150626Y-112119600D01*
X53150626Y-112119600D02*
X53103007Y-112024361D01*
X53103007Y-112024361D02*
X53103007Y-111929123D01*
X53103007Y-111929123D02*
X53150626Y-111833885D01*
X53150626Y-111833885D02*
X53245864Y-111786266D01*
X53245864Y-111786266D02*
X53483959Y-111786266D01*
X53483959Y-111786266D02*
X53579197Y-111738647D01*
X54055388Y-111500552D02*
X54055388Y-112167219D01*
X54055388Y-111595790D02*
X54103007Y-111548171D01*
X54103007Y-111548171D02*
X54198245Y-111500552D01*
X54198245Y-111500552D02*
X54341102Y-111500552D01*
X54341102Y-111500552D02*
X54436340Y-111548171D01*
X54436340Y-111548171D02*
X54483959Y-111643409D01*
X54483959Y-111643409D02*
X54483959Y-112167219D01*
X55722055Y-112167219D02*
X55722055Y-111167219D01*
X55722055Y-111643409D02*
X56293483Y-111643409D01*
X56293483Y-112167219D02*
X56293483Y-111167219D01*
X56722055Y-112119600D02*
X56817293Y-112167219D01*
X56817293Y-112167219D02*
X57007769Y-112167219D01*
X57007769Y-112167219D02*
X57103007Y-112119600D01*
X57103007Y-112119600D02*
X57150626Y-112024361D01*
X57150626Y-112024361D02*
X57150626Y-111976742D01*
X57150626Y-111976742D02*
X57103007Y-111881504D01*
X57103007Y-111881504D02*
X57007769Y-111833885D01*
X57007769Y-111833885D02*
X56864912Y-111833885D01*
X56864912Y-111833885D02*
X56769674Y-111786266D01*
X56769674Y-111786266D02*
X56722055Y-111691028D01*
X56722055Y-111691028D02*
X56722055Y-111643409D01*
X56722055Y-111643409D02*
X56769674Y-111548171D01*
X56769674Y-111548171D02*
X56864912Y-111500552D01*
X56864912Y-111500552D02*
X57007769Y-111500552D01*
X57007769Y-111500552D02*
X57103007Y-111548171D01*
X58007769Y-111500552D02*
X58007769Y-112167219D01*
X57579198Y-111500552D02*
X57579198Y-112024361D01*
X57579198Y-112024361D02*
X57626817Y-112119600D01*
X57626817Y-112119600D02*
X57722055Y-112167219D01*
X57722055Y-112167219D02*
X57864912Y-112167219D01*
X57864912Y-112167219D02*
X57960150Y-112119600D01*
X57960150Y-112119600D02*
X58007769Y-112071980D01*
D10*
X51832455Y-101172419D02*
X51641979Y-101172419D01*
X51641979Y-101172419D02*
X51546741Y-101220038D01*
X51546741Y-101220038D02*
X51499122Y-101267657D01*
X51499122Y-101267657D02*
X51403884Y-101410514D01*
X51403884Y-101410514D02*
X51356265Y-101600990D01*
X51356265Y-101600990D02*
X51356265Y-101981942D01*
X51356265Y-101981942D02*
X51403884Y-102077180D01*
X51403884Y-102077180D02*
X51451503Y-102124800D01*
X51451503Y-102124800D02*
X51546741Y-102172419D01*
X51546741Y-102172419D02*
X51737217Y-102172419D01*
X51737217Y-102172419D02*
X51832455Y-102124800D01*
X51832455Y-102124800D02*
X51880074Y-102077180D01*
X51880074Y-102077180D02*
X51927693Y-101981942D01*
X51927693Y-101981942D02*
X51927693Y-101743847D01*
X51927693Y-101743847D02*
X51880074Y-101648609D01*
X51880074Y-101648609D02*
X51832455Y-101600990D01*
X51832455Y-101600990D02*
X51737217Y-101553371D01*
X51737217Y-101553371D02*
X51546741Y-101553371D01*
X51546741Y-101553371D02*
X51451503Y-101600990D01*
X51451503Y-101600990D02*
X51403884Y-101648609D01*
X51403884Y-101648609D02*
X51356265Y-101743847D01*
X52213408Y-101172419D02*
X52546741Y-102172419D01*
X52546741Y-102172419D02*
X52880074Y-101172419D01*
X53213408Y-102172419D02*
X53213408Y-101172419D01*
X53213408Y-101172419D02*
X53451503Y-101172419D01*
X53451503Y-101172419D02*
X53594360Y-101220038D01*
X53594360Y-101220038D02*
X53689598Y-101315276D01*
X53689598Y-101315276D02*
X53737217Y-101410514D01*
X53737217Y-101410514D02*
X53784836Y-101600990D01*
X53784836Y-101600990D02*
X53784836Y-101743847D01*
X53784836Y-101743847D02*
X53737217Y-101934323D01*
X53737217Y-101934323D02*
X53689598Y-102029561D01*
X53689598Y-102029561D02*
X53594360Y-102124800D01*
X53594360Y-102124800D02*
X53451503Y-102172419D01*
X53451503Y-102172419D02*
X53213408Y-102172419D01*
X54784836Y-102172419D02*
X54451503Y-101696228D01*
X54213408Y-102172419D02*
X54213408Y-101172419D01*
X54213408Y-101172419D02*
X54594360Y-101172419D01*
X54594360Y-101172419D02*
X54689598Y-101220038D01*
X54689598Y-101220038D02*
X54737217Y-101267657D01*
X54737217Y-101267657D02*
X54784836Y-101362895D01*
X54784836Y-101362895D02*
X54784836Y-101505752D01*
X54784836Y-101505752D02*
X54737217Y-101600990D01*
X54737217Y-101600990D02*
X54689598Y-101648609D01*
X54689598Y-101648609D02*
X54594360Y-101696228D01*
X54594360Y-101696228D02*
X54213408Y-101696228D01*
X55070551Y-101172419D02*
X55403884Y-102172419D01*
X55403884Y-102172419D02*
X55737217Y-101172419D01*
X51261027Y-71672419D02*
X51594360Y-72672419D01*
X51594360Y-72672419D02*
X51927693Y-71672419D01*
X52261027Y-72672419D02*
X52261027Y-71672419D01*
X52737217Y-72672419D02*
X52737217Y-71672419D01*
X52737217Y-71672419D02*
X53308645Y-72672419D01*
X53308645Y-72672419D02*
X53308645Y-71672419D01*
X127503884Y-78891466D02*
X128265789Y-78891466D01*
X129170550Y-78605752D02*
X129170550Y-79272419D01*
X128932455Y-78224800D02*
X128694360Y-78939085D01*
X128694360Y-78939085D02*
X129313407Y-78939085D01*
X129884836Y-78272419D02*
X129980074Y-78272419D01*
X129980074Y-78272419D02*
X130075312Y-78320038D01*
X130075312Y-78320038D02*
X130122931Y-78367657D01*
X130122931Y-78367657D02*
X130170550Y-78462895D01*
X130170550Y-78462895D02*
X130218169Y-78653371D01*
X130218169Y-78653371D02*
X130218169Y-78891466D01*
X130218169Y-78891466D02*
X130170550Y-79081942D01*
X130170550Y-79081942D02*
X130122931Y-79177180D01*
X130122931Y-79177180D02*
X130075312Y-79224800D01*
X130075312Y-79224800D02*
X129980074Y-79272419D01*
X129980074Y-79272419D02*
X129884836Y-79272419D01*
X129884836Y-79272419D02*
X129789598Y-79224800D01*
X129789598Y-79224800D02*
X129741979Y-79177180D01*
X129741979Y-79177180D02*
X129694360Y-79081942D01*
X129694360Y-79081942D02*
X129646741Y-78891466D01*
X129646741Y-78891466D02*
X129646741Y-78653371D01*
X129646741Y-78653371D02*
X129694360Y-78462895D01*
X129694360Y-78462895D02*
X129741979Y-78367657D01*
X129741979Y-78367657D02*
X129789598Y-78320038D01*
X129789598Y-78320038D02*
X129884836Y-78272419D01*
X130837217Y-78272419D02*
X130932455Y-78272419D01*
X130932455Y-78272419D02*
X131027693Y-78320038D01*
X131027693Y-78320038D02*
X131075312Y-78367657D01*
X131075312Y-78367657D02*
X131122931Y-78462895D01*
X131122931Y-78462895D02*
X131170550Y-78653371D01*
X131170550Y-78653371D02*
X131170550Y-78891466D01*
X131170550Y-78891466D02*
X131122931Y-79081942D01*
X131122931Y-79081942D02*
X131075312Y-79177180D01*
X131075312Y-79177180D02*
X131027693Y-79224800D01*
X131027693Y-79224800D02*
X130932455Y-79272419D01*
X130932455Y-79272419D02*
X130837217Y-79272419D01*
X130837217Y-79272419D02*
X130741979Y-79224800D01*
X130741979Y-79224800D02*
X130694360Y-79177180D01*
X130694360Y-79177180D02*
X130646741Y-79081942D01*
X130646741Y-79081942D02*
X130599122Y-78891466D01*
X130599122Y-78891466D02*
X130599122Y-78653371D01*
X130599122Y-78653371D02*
X130646741Y-78462895D01*
X130646741Y-78462895D02*
X130694360Y-78367657D01*
X130694360Y-78367657D02*
X130741979Y-78320038D01*
X130741979Y-78320038D02*
X130837217Y-78272419D01*
X131456265Y-78272419D02*
X131789598Y-79272419D01*
X131789598Y-79272419D02*
X132122931Y-78272419D01*
X127703884Y-89272419D02*
X127703884Y-88272419D01*
X127703884Y-88748609D02*
X128275312Y-88748609D01*
X128275312Y-89272419D02*
X128275312Y-88272419D01*
X128608646Y-88272419D02*
X128941979Y-89272419D01*
X128941979Y-89272419D02*
X129275312Y-88272419D01*
X130132455Y-88320038D02*
X130037217Y-88272419D01*
X130037217Y-88272419D02*
X129894360Y-88272419D01*
X129894360Y-88272419D02*
X129751503Y-88320038D01*
X129751503Y-88320038D02*
X129656265Y-88415276D01*
X129656265Y-88415276D02*
X129608646Y-88510514D01*
X129608646Y-88510514D02*
X129561027Y-88700990D01*
X129561027Y-88700990D02*
X129561027Y-88843847D01*
X129561027Y-88843847D02*
X129608646Y-89034323D01*
X129608646Y-89034323D02*
X129656265Y-89129561D01*
X129656265Y-89129561D02*
X129751503Y-89224800D01*
X129751503Y-89224800D02*
X129894360Y-89272419D01*
X129894360Y-89272419D02*
X129989598Y-89272419D01*
X129989598Y-89272419D02*
X130132455Y-89224800D01*
X130132455Y-89224800D02*
X130180074Y-89177180D01*
X130180074Y-89177180D02*
X130180074Y-88843847D01*
X130180074Y-88843847D02*
X129989598Y-88843847D01*
X130608646Y-89272419D02*
X130608646Y-88272419D01*
X130608646Y-88272419D02*
X131180074Y-89272419D01*
X131180074Y-89272419D02*
X131180074Y-88272419D01*
X131656265Y-89272419D02*
X131656265Y-88272419D01*
X131656265Y-88272419D02*
X131894360Y-88272419D01*
X131894360Y-88272419D02*
X132037217Y-88320038D01*
X132037217Y-88320038D02*
X132132455Y-88415276D01*
X132132455Y-88415276D02*
X132180074Y-88510514D01*
X132180074Y-88510514D02*
X132227693Y-88700990D01*
X132227693Y-88700990D02*
X132227693Y-88843847D01*
X132227693Y-88843847D02*
X132180074Y-89034323D01*
X132180074Y-89034323D02*
X132132455Y-89129561D01*
X132132455Y-89129561D02*
X132037217Y-89224800D01*
X132037217Y-89224800D02*
X131894360Y-89272419D01*
X131894360Y-89272419D02*
X131656265Y-89272419D01*
D12*
X74612628Y-98099999D02*
X74641200Y-98128571D01*
X74641200Y-98128571D02*
X74669771Y-98214285D01*
X74669771Y-98214285D02*
X74669771Y-98271428D01*
X74669771Y-98271428D02*
X74641200Y-98357142D01*
X74641200Y-98357142D02*
X74584057Y-98414285D01*
X74584057Y-98414285D02*
X74526914Y-98442856D01*
X74526914Y-98442856D02*
X74412628Y-98471428D01*
X74412628Y-98471428D02*
X74326914Y-98471428D01*
X74326914Y-98471428D02*
X74212628Y-98442856D01*
X74212628Y-98442856D02*
X74155485Y-98414285D01*
X74155485Y-98414285D02*
X74098342Y-98357142D01*
X74098342Y-98357142D02*
X74069771Y-98271428D01*
X74069771Y-98271428D02*
X74069771Y-98214285D01*
X74069771Y-98214285D02*
X74098342Y-98128571D01*
X74098342Y-98128571D02*
X74126914Y-98099999D01*
X74069771Y-97557142D02*
X74069771Y-97842856D01*
X74069771Y-97842856D02*
X74355485Y-97871428D01*
X74355485Y-97871428D02*
X74326914Y-97842856D01*
X74326914Y-97842856D02*
X74298342Y-97785714D01*
X74298342Y-97785714D02*
X74298342Y-97642856D01*
X74298342Y-97642856D02*
X74326914Y-97585714D01*
X74326914Y-97585714D02*
X74355485Y-97557142D01*
X74355485Y-97557142D02*
X74412628Y-97528571D01*
X74412628Y-97528571D02*
X74555485Y-97528571D01*
X74555485Y-97528571D02*
X74612628Y-97557142D01*
X74612628Y-97557142D02*
X74641200Y-97585714D01*
X74641200Y-97585714D02*
X74669771Y-97642856D01*
X74669771Y-97642856D02*
X74669771Y-97785714D01*
X74669771Y-97785714D02*
X74641200Y-97842856D01*
X74641200Y-97842856D02*
X74612628Y-97871428D01*
X69269771Y-105385714D02*
X68984057Y-105585714D01*
X69269771Y-105728571D02*
X68669771Y-105728571D01*
X68669771Y-105728571D02*
X68669771Y-105500000D01*
X68669771Y-105500000D02*
X68698342Y-105442857D01*
X68698342Y-105442857D02*
X68726914Y-105414286D01*
X68726914Y-105414286D02*
X68784057Y-105385714D01*
X68784057Y-105385714D02*
X68869771Y-105385714D01*
X68869771Y-105385714D02*
X68926914Y-105414286D01*
X68926914Y-105414286D02*
X68955485Y-105442857D01*
X68955485Y-105442857D02*
X68984057Y-105500000D01*
X68984057Y-105500000D02*
X68984057Y-105728571D01*
X69269771Y-104814286D02*
X69269771Y-105157143D01*
X69269771Y-104985714D02*
X68669771Y-104985714D01*
X68669771Y-104985714D02*
X68755485Y-105042857D01*
X68755485Y-105042857D02*
X68812628Y-105100000D01*
X68812628Y-105100000D02*
X68841200Y-105157143D01*
X68726914Y-104585714D02*
X68698342Y-104557142D01*
X68698342Y-104557142D02*
X68669771Y-104500000D01*
X68669771Y-104500000D02*
X68669771Y-104357142D01*
X68669771Y-104357142D02*
X68698342Y-104300000D01*
X68698342Y-104300000D02*
X68726914Y-104271428D01*
X68726914Y-104271428D02*
X68784057Y-104242857D01*
X68784057Y-104242857D02*
X68841200Y-104242857D01*
X68841200Y-104242857D02*
X68926914Y-104271428D01*
X68926914Y-104271428D02*
X69269771Y-104614285D01*
X69269771Y-104614285D02*
X69269771Y-104242857D01*
X108590476Y-91162295D02*
X109047619Y-91162295D01*
X108819047Y-91962295D02*
X108819047Y-91162295D01*
X109314286Y-91962295D02*
X109314286Y-91162295D01*
X109314286Y-91162295D02*
X109619048Y-91162295D01*
X109619048Y-91162295D02*
X109695238Y-91200390D01*
X109695238Y-91200390D02*
X109733333Y-91238485D01*
X109733333Y-91238485D02*
X109771429Y-91314676D01*
X109771429Y-91314676D02*
X109771429Y-91428961D01*
X109771429Y-91428961D02*
X109733333Y-91505152D01*
X109733333Y-91505152D02*
X109695238Y-91543247D01*
X109695238Y-91543247D02*
X109619048Y-91581342D01*
X109619048Y-91581342D02*
X109314286Y-91581342D01*
X110495238Y-91162295D02*
X110114286Y-91162295D01*
X110114286Y-91162295D02*
X110076190Y-91543247D01*
X110076190Y-91543247D02*
X110114286Y-91505152D01*
X110114286Y-91505152D02*
X110190476Y-91467057D01*
X110190476Y-91467057D02*
X110380952Y-91467057D01*
X110380952Y-91467057D02*
X110457143Y-91505152D01*
X110457143Y-91505152D02*
X110495238Y-91543247D01*
X110495238Y-91543247D02*
X110533333Y-91619438D01*
X110533333Y-91619438D02*
X110533333Y-91809914D01*
X110533333Y-91809914D02*
X110495238Y-91886104D01*
X110495238Y-91886104D02*
X110457143Y-91924200D01*
X110457143Y-91924200D02*
X110380952Y-91962295D01*
X110380952Y-91962295D02*
X110190476Y-91962295D01*
X110190476Y-91962295D02*
X110114286Y-91924200D01*
X110114286Y-91924200D02*
X110076190Y-91886104D01*
X76962295Y-91133332D02*
X76581342Y-91399999D01*
X76962295Y-91590475D02*
X76162295Y-91590475D01*
X76162295Y-91590475D02*
X76162295Y-91285713D01*
X76162295Y-91285713D02*
X76200390Y-91209523D01*
X76200390Y-91209523D02*
X76238485Y-91171428D01*
X76238485Y-91171428D02*
X76314676Y-91133332D01*
X76314676Y-91133332D02*
X76428961Y-91133332D01*
X76428961Y-91133332D02*
X76505152Y-91171428D01*
X76505152Y-91171428D02*
X76543247Y-91209523D01*
X76543247Y-91209523D02*
X76581342Y-91285713D01*
X76581342Y-91285713D02*
X76581342Y-91590475D01*
X76962295Y-90371428D02*
X76962295Y-90828571D01*
X76962295Y-90599999D02*
X76162295Y-90599999D01*
X76162295Y-90599999D02*
X76276580Y-90676190D01*
X76276580Y-90676190D02*
X76352771Y-90752380D01*
X76352771Y-90752380D02*
X76390866Y-90828571D01*
X90466667Y-102362295D02*
X90200000Y-101981342D01*
X90009524Y-102362295D02*
X90009524Y-101562295D01*
X90009524Y-101562295D02*
X90314286Y-101562295D01*
X90314286Y-101562295D02*
X90390476Y-101600390D01*
X90390476Y-101600390D02*
X90428571Y-101638485D01*
X90428571Y-101638485D02*
X90466667Y-101714676D01*
X90466667Y-101714676D02*
X90466667Y-101828961D01*
X90466667Y-101828961D02*
X90428571Y-101905152D01*
X90428571Y-101905152D02*
X90390476Y-101943247D01*
X90390476Y-101943247D02*
X90314286Y-101981342D01*
X90314286Y-101981342D02*
X90009524Y-101981342D01*
X90847619Y-102362295D02*
X91000000Y-102362295D01*
X91000000Y-102362295D02*
X91076190Y-102324200D01*
X91076190Y-102324200D02*
X91114286Y-102286104D01*
X91114286Y-102286104D02*
X91190476Y-102171819D01*
X91190476Y-102171819D02*
X91228571Y-102019438D01*
X91228571Y-102019438D02*
X91228571Y-101714676D01*
X91228571Y-101714676D02*
X91190476Y-101638485D01*
X91190476Y-101638485D02*
X91152381Y-101600390D01*
X91152381Y-101600390D02*
X91076190Y-101562295D01*
X91076190Y-101562295D02*
X90923809Y-101562295D01*
X90923809Y-101562295D02*
X90847619Y-101600390D01*
X90847619Y-101600390D02*
X90809524Y-101638485D01*
X90809524Y-101638485D02*
X90771428Y-101714676D01*
X90771428Y-101714676D02*
X90771428Y-101905152D01*
X90771428Y-101905152D02*
X90809524Y-101981342D01*
X90809524Y-101981342D02*
X90847619Y-102019438D01*
X90847619Y-102019438D02*
X90923809Y-102057533D01*
X90923809Y-102057533D02*
X91076190Y-102057533D01*
X91076190Y-102057533D02*
X91152381Y-102019438D01*
X91152381Y-102019438D02*
X91190476Y-101981342D01*
X91190476Y-101981342D02*
X91228571Y-101905152D01*
X117285714Y-100262295D02*
X117019047Y-99881342D01*
X116828571Y-100262295D02*
X116828571Y-99462295D01*
X116828571Y-99462295D02*
X117133333Y-99462295D01*
X117133333Y-99462295D02*
X117209523Y-99500390D01*
X117209523Y-99500390D02*
X117247618Y-99538485D01*
X117247618Y-99538485D02*
X117285714Y-99614676D01*
X117285714Y-99614676D02*
X117285714Y-99728961D01*
X117285714Y-99728961D02*
X117247618Y-99805152D01*
X117247618Y-99805152D02*
X117209523Y-99843247D01*
X117209523Y-99843247D02*
X117133333Y-99881342D01*
X117133333Y-99881342D02*
X116828571Y-99881342D01*
X118047618Y-100262295D02*
X117590475Y-100262295D01*
X117819047Y-100262295D02*
X117819047Y-99462295D01*
X117819047Y-99462295D02*
X117742856Y-99576580D01*
X117742856Y-99576580D02*
X117666666Y-99652771D01*
X117666666Y-99652771D02*
X117590475Y-99690866D01*
X118542857Y-99462295D02*
X118619047Y-99462295D01*
X118619047Y-99462295D02*
X118695238Y-99500390D01*
X118695238Y-99500390D02*
X118733333Y-99538485D01*
X118733333Y-99538485D02*
X118771428Y-99614676D01*
X118771428Y-99614676D02*
X118809523Y-99767057D01*
X118809523Y-99767057D02*
X118809523Y-99957533D01*
X118809523Y-99957533D02*
X118771428Y-100109914D01*
X118771428Y-100109914D02*
X118733333Y-100186104D01*
X118733333Y-100186104D02*
X118695238Y-100224200D01*
X118695238Y-100224200D02*
X118619047Y-100262295D01*
X118619047Y-100262295D02*
X118542857Y-100262295D01*
X118542857Y-100262295D02*
X118466666Y-100224200D01*
X118466666Y-100224200D02*
X118428571Y-100186104D01*
X118428571Y-100186104D02*
X118390476Y-100109914D01*
X118390476Y-100109914D02*
X118352380Y-99957533D01*
X118352380Y-99957533D02*
X118352380Y-99767057D01*
X118352380Y-99767057D02*
X118390476Y-99614676D01*
X118390476Y-99614676D02*
X118428571Y-99538485D01*
X118428571Y-99538485D02*
X118466666Y-99500390D01*
X118466666Y-99500390D02*
X118542857Y-99462295D01*
X79042856Y-82569771D02*
X79385714Y-82569771D01*
X79214285Y-83169771D02*
X79214285Y-82569771D01*
X79585714Y-83169771D02*
X79585714Y-82569771D01*
X79585714Y-82569771D02*
X79814285Y-82569771D01*
X79814285Y-82569771D02*
X79871428Y-82598342D01*
X79871428Y-82598342D02*
X79899999Y-82626914D01*
X79899999Y-82626914D02*
X79928571Y-82684057D01*
X79928571Y-82684057D02*
X79928571Y-82769771D01*
X79928571Y-82769771D02*
X79899999Y-82826914D01*
X79899999Y-82826914D02*
X79871428Y-82855485D01*
X79871428Y-82855485D02*
X79814285Y-82884057D01*
X79814285Y-82884057D02*
X79585714Y-82884057D01*
X80128571Y-82569771D02*
X80499999Y-82569771D01*
X80499999Y-82569771D02*
X80299999Y-82798342D01*
X80299999Y-82798342D02*
X80385714Y-82798342D01*
X80385714Y-82798342D02*
X80442857Y-82826914D01*
X80442857Y-82826914D02*
X80471428Y-82855485D01*
X80471428Y-82855485D02*
X80499999Y-82912628D01*
X80499999Y-82912628D02*
X80499999Y-83055485D01*
X80499999Y-83055485D02*
X80471428Y-83112628D01*
X80471428Y-83112628D02*
X80442857Y-83141200D01*
X80442857Y-83141200D02*
X80385714Y-83169771D01*
X80385714Y-83169771D02*
X80214285Y-83169771D01*
X80214285Y-83169771D02*
X80157142Y-83141200D01*
X80157142Y-83141200D02*
X80128571Y-83112628D01*
X71990476Y-91862295D02*
X72447619Y-91862295D01*
X72219047Y-92662295D02*
X72219047Y-91862295D01*
X72714286Y-92662295D02*
X72714286Y-91862295D01*
X72714286Y-91862295D02*
X73019048Y-91862295D01*
X73019048Y-91862295D02*
X73095238Y-91900390D01*
X73095238Y-91900390D02*
X73133333Y-91938485D01*
X73133333Y-91938485D02*
X73171429Y-92014676D01*
X73171429Y-92014676D02*
X73171429Y-92128961D01*
X73171429Y-92128961D02*
X73133333Y-92205152D01*
X73133333Y-92205152D02*
X73095238Y-92243247D01*
X73095238Y-92243247D02*
X73019048Y-92281342D01*
X73019048Y-92281342D02*
X72714286Y-92281342D01*
X73857143Y-92128961D02*
X73857143Y-92662295D01*
X73666667Y-91824200D02*
X73476190Y-92395628D01*
X73476190Y-92395628D02*
X73971429Y-92395628D01*
X73900000Y-100612628D02*
X73871428Y-100641200D01*
X73871428Y-100641200D02*
X73785714Y-100669771D01*
X73785714Y-100669771D02*
X73728571Y-100669771D01*
X73728571Y-100669771D02*
X73642857Y-100641200D01*
X73642857Y-100641200D02*
X73585714Y-100584057D01*
X73585714Y-100584057D02*
X73557143Y-100526914D01*
X73557143Y-100526914D02*
X73528571Y-100412628D01*
X73528571Y-100412628D02*
X73528571Y-100326914D01*
X73528571Y-100326914D02*
X73557143Y-100212628D01*
X73557143Y-100212628D02*
X73585714Y-100155485D01*
X73585714Y-100155485D02*
X73642857Y-100098342D01*
X73642857Y-100098342D02*
X73728571Y-100069771D01*
X73728571Y-100069771D02*
X73785714Y-100069771D01*
X73785714Y-100069771D02*
X73871428Y-100098342D01*
X73871428Y-100098342D02*
X73900000Y-100126914D01*
X74471428Y-100669771D02*
X74128571Y-100669771D01*
X74300000Y-100669771D02*
X74300000Y-100069771D01*
X74300000Y-100069771D02*
X74242857Y-100155485D01*
X74242857Y-100155485D02*
X74185714Y-100212628D01*
X74185714Y-100212628D02*
X74128571Y-100241200D01*
X81609523Y-104162295D02*
X82066666Y-104162295D01*
X81838094Y-104962295D02*
X81838094Y-104162295D01*
X82333333Y-104962295D02*
X82333333Y-104162295D01*
X82333333Y-104162295D02*
X82638095Y-104162295D01*
X82638095Y-104162295D02*
X82714285Y-104200390D01*
X82714285Y-104200390D02*
X82752380Y-104238485D01*
X82752380Y-104238485D02*
X82790476Y-104314676D01*
X82790476Y-104314676D02*
X82790476Y-104428961D01*
X82790476Y-104428961D02*
X82752380Y-104505152D01*
X82752380Y-104505152D02*
X82714285Y-104543247D01*
X82714285Y-104543247D02*
X82638095Y-104581342D01*
X82638095Y-104581342D02*
X82333333Y-104581342D01*
X83552380Y-104962295D02*
X83095237Y-104962295D01*
X83323809Y-104962295D02*
X83323809Y-104162295D01*
X83323809Y-104162295D02*
X83247618Y-104276580D01*
X83247618Y-104276580D02*
X83171428Y-104352771D01*
X83171428Y-104352771D02*
X83095237Y-104390866D01*
X83819047Y-104162295D02*
X84314285Y-104162295D01*
X84314285Y-104162295D02*
X84047619Y-104467057D01*
X84047619Y-104467057D02*
X84161904Y-104467057D01*
X84161904Y-104467057D02*
X84238095Y-104505152D01*
X84238095Y-104505152D02*
X84276190Y-104543247D01*
X84276190Y-104543247D02*
X84314285Y-104619438D01*
X84314285Y-104619438D02*
X84314285Y-104809914D01*
X84314285Y-104809914D02*
X84276190Y-104886104D01*
X84276190Y-104886104D02*
X84238095Y-104924200D01*
X84238095Y-104924200D02*
X84161904Y-104962295D01*
X84161904Y-104962295D02*
X83933333Y-104962295D01*
X83933333Y-104962295D02*
X83857142Y-104924200D01*
X83857142Y-104924200D02*
X83819047Y-104886104D01*
X67742857Y-93669771D02*
X67742857Y-94155485D01*
X67742857Y-94155485D02*
X67771428Y-94212628D01*
X67771428Y-94212628D02*
X67800000Y-94241200D01*
X67800000Y-94241200D02*
X67857142Y-94269771D01*
X67857142Y-94269771D02*
X67971428Y-94269771D01*
X67971428Y-94269771D02*
X68028571Y-94241200D01*
X68028571Y-94241200D02*
X68057142Y-94212628D01*
X68057142Y-94212628D02*
X68085714Y-94155485D01*
X68085714Y-94155485D02*
X68085714Y-93669771D01*
X68685713Y-94269771D02*
X68342856Y-94269771D01*
X68514285Y-94269771D02*
X68514285Y-93669771D01*
X68514285Y-93669771D02*
X68457142Y-93755485D01*
X68457142Y-93755485D02*
X68399999Y-93812628D01*
X68399999Y-93812628D02*
X68342856Y-93841200D01*
X64700000Y-97412628D02*
X64671428Y-97441200D01*
X64671428Y-97441200D02*
X64585714Y-97469771D01*
X64585714Y-97469771D02*
X64528571Y-97469771D01*
X64528571Y-97469771D02*
X64442857Y-97441200D01*
X64442857Y-97441200D02*
X64385714Y-97384057D01*
X64385714Y-97384057D02*
X64357143Y-97326914D01*
X64357143Y-97326914D02*
X64328571Y-97212628D01*
X64328571Y-97212628D02*
X64328571Y-97126914D01*
X64328571Y-97126914D02*
X64357143Y-97012628D01*
X64357143Y-97012628D02*
X64385714Y-96955485D01*
X64385714Y-96955485D02*
X64442857Y-96898342D01*
X64442857Y-96898342D02*
X64528571Y-96869771D01*
X64528571Y-96869771D02*
X64585714Y-96869771D01*
X64585714Y-96869771D02*
X64671428Y-96898342D01*
X64671428Y-96898342D02*
X64700000Y-96926914D01*
X64985714Y-97469771D02*
X65100000Y-97469771D01*
X65100000Y-97469771D02*
X65157143Y-97441200D01*
X65157143Y-97441200D02*
X65185714Y-97412628D01*
X65185714Y-97412628D02*
X65242857Y-97326914D01*
X65242857Y-97326914D02*
X65271428Y-97212628D01*
X65271428Y-97212628D02*
X65271428Y-96984057D01*
X65271428Y-96984057D02*
X65242857Y-96926914D01*
X65242857Y-96926914D02*
X65214286Y-96898342D01*
X65214286Y-96898342D02*
X65157143Y-96869771D01*
X65157143Y-96869771D02*
X65042857Y-96869771D01*
X65042857Y-96869771D02*
X64985714Y-96898342D01*
X64985714Y-96898342D02*
X64957143Y-96926914D01*
X64957143Y-96926914D02*
X64928571Y-96984057D01*
X64928571Y-96984057D02*
X64928571Y-97126914D01*
X64928571Y-97126914D02*
X64957143Y-97184057D01*
X64957143Y-97184057D02*
X64985714Y-97212628D01*
X64985714Y-97212628D02*
X65042857Y-97241200D01*
X65042857Y-97241200D02*
X65157143Y-97241200D01*
X65157143Y-97241200D02*
X65214286Y-97212628D01*
X65214286Y-97212628D02*
X65242857Y-97184057D01*
X65242857Y-97184057D02*
X65271428Y-97126914D01*
X68657143Y-86769771D02*
X68657143Y-86169771D01*
X68657143Y-86169771D02*
X68800000Y-86169771D01*
X68800000Y-86169771D02*
X68885714Y-86198342D01*
X68885714Y-86198342D02*
X68942857Y-86255485D01*
X68942857Y-86255485D02*
X68971428Y-86312628D01*
X68971428Y-86312628D02*
X69000000Y-86426914D01*
X69000000Y-86426914D02*
X69000000Y-86512628D01*
X69000000Y-86512628D02*
X68971428Y-86626914D01*
X68971428Y-86626914D02*
X68942857Y-86684057D01*
X68942857Y-86684057D02*
X68885714Y-86741200D01*
X68885714Y-86741200D02*
X68800000Y-86769771D01*
X68800000Y-86769771D02*
X68657143Y-86769771D01*
X69200000Y-86169771D02*
X69571428Y-86169771D01*
X69571428Y-86169771D02*
X69371428Y-86398342D01*
X69371428Y-86398342D02*
X69457143Y-86398342D01*
X69457143Y-86398342D02*
X69514286Y-86426914D01*
X69514286Y-86426914D02*
X69542857Y-86455485D01*
X69542857Y-86455485D02*
X69571428Y-86512628D01*
X69571428Y-86512628D02*
X69571428Y-86655485D01*
X69571428Y-86655485D02*
X69542857Y-86712628D01*
X69542857Y-86712628D02*
X69514286Y-86741200D01*
X69514286Y-86741200D02*
X69457143Y-86769771D01*
X69457143Y-86769771D02*
X69285714Y-86769771D01*
X69285714Y-86769771D02*
X69228571Y-86741200D01*
X69228571Y-86741200D02*
X69200000Y-86712628D01*
X68709523Y-89662295D02*
X69166666Y-89662295D01*
X68938094Y-90462295D02*
X68938094Y-89662295D01*
X69433333Y-90462295D02*
X69433333Y-89662295D01*
X69433333Y-89662295D02*
X69738095Y-89662295D01*
X69738095Y-89662295D02*
X69814285Y-89700390D01*
X69814285Y-89700390D02*
X69852380Y-89738485D01*
X69852380Y-89738485D02*
X69890476Y-89814676D01*
X69890476Y-89814676D02*
X69890476Y-89928961D01*
X69890476Y-89928961D02*
X69852380Y-90005152D01*
X69852380Y-90005152D02*
X69814285Y-90043247D01*
X69814285Y-90043247D02*
X69738095Y-90081342D01*
X69738095Y-90081342D02*
X69433333Y-90081342D01*
X70652380Y-90462295D02*
X70195237Y-90462295D01*
X70423809Y-90462295D02*
X70423809Y-89662295D01*
X70423809Y-89662295D02*
X70347618Y-89776580D01*
X70347618Y-89776580D02*
X70271428Y-89852771D01*
X70271428Y-89852771D02*
X70195237Y-89890866D01*
X70957142Y-89738485D02*
X70995238Y-89700390D01*
X70995238Y-89700390D02*
X71071428Y-89662295D01*
X71071428Y-89662295D02*
X71261904Y-89662295D01*
X71261904Y-89662295D02*
X71338095Y-89700390D01*
X71338095Y-89700390D02*
X71376190Y-89738485D01*
X71376190Y-89738485D02*
X71414285Y-89814676D01*
X71414285Y-89814676D02*
X71414285Y-89890866D01*
X71414285Y-89890866D02*
X71376190Y-90005152D01*
X71376190Y-90005152D02*
X70919047Y-90462295D01*
X70919047Y-90462295D02*
X71414285Y-90462295D01*
X84975914Y-92758458D02*
X84947342Y-92815601D01*
X84947342Y-92815601D02*
X84890200Y-92872744D01*
X84890200Y-92872744D02*
X84804485Y-92958458D01*
X84804485Y-92958458D02*
X84775914Y-93015601D01*
X84775914Y-93015601D02*
X84775914Y-93072744D01*
X84918771Y-93044173D02*
X84890200Y-93101316D01*
X84890200Y-93101316D02*
X84833057Y-93158458D01*
X84833057Y-93158458D02*
X84718771Y-93187030D01*
X84718771Y-93187030D02*
X84518771Y-93187030D01*
X84518771Y-93187030D02*
X84404485Y-93158458D01*
X84404485Y-93158458D02*
X84347342Y-93101316D01*
X84347342Y-93101316D02*
X84318771Y-93044173D01*
X84318771Y-93044173D02*
X84318771Y-92929887D01*
X84318771Y-92929887D02*
X84347342Y-92872744D01*
X84347342Y-92872744D02*
X84404485Y-92815601D01*
X84404485Y-92815601D02*
X84518771Y-92787030D01*
X84518771Y-92787030D02*
X84718771Y-92787030D01*
X84718771Y-92787030D02*
X84833057Y-92815601D01*
X84833057Y-92815601D02*
X84890200Y-92872744D01*
X84890200Y-92872744D02*
X84918771Y-92929887D01*
X84918771Y-92929887D02*
X84918771Y-93044173D01*
X84918771Y-92215602D02*
X84918771Y-92558459D01*
X84918771Y-92387030D02*
X84318771Y-92387030D01*
X84318771Y-92387030D02*
X84404485Y-92444173D01*
X84404485Y-92444173D02*
X84461628Y-92501316D01*
X84461628Y-92501316D02*
X84490200Y-92558459D01*
X62209523Y-102662295D02*
X62666666Y-102662295D01*
X62438094Y-103462295D02*
X62438094Y-102662295D01*
X62933333Y-103462295D02*
X62933333Y-102662295D01*
X62933333Y-102662295D02*
X63238095Y-102662295D01*
X63238095Y-102662295D02*
X63314285Y-102700390D01*
X63314285Y-102700390D02*
X63352380Y-102738485D01*
X63352380Y-102738485D02*
X63390476Y-102814676D01*
X63390476Y-102814676D02*
X63390476Y-102928961D01*
X63390476Y-102928961D02*
X63352380Y-103005152D01*
X63352380Y-103005152D02*
X63314285Y-103043247D01*
X63314285Y-103043247D02*
X63238095Y-103081342D01*
X63238095Y-103081342D02*
X62933333Y-103081342D01*
X64152380Y-103462295D02*
X63695237Y-103462295D01*
X63923809Y-103462295D02*
X63923809Y-102662295D01*
X63923809Y-102662295D02*
X63847618Y-102776580D01*
X63847618Y-102776580D02*
X63771428Y-102852771D01*
X63771428Y-102852771D02*
X63695237Y-102890866D01*
X64914285Y-103462295D02*
X64457142Y-103462295D01*
X64685714Y-103462295D02*
X64685714Y-102662295D01*
X64685714Y-102662295D02*
X64609523Y-102776580D01*
X64609523Y-102776580D02*
X64533333Y-102852771D01*
X64533333Y-102852771D02*
X64457142Y-102890866D01*
X70300000Y-100569771D02*
X70100000Y-100284057D01*
X69957143Y-100569771D02*
X69957143Y-99969771D01*
X69957143Y-99969771D02*
X70185714Y-99969771D01*
X70185714Y-99969771D02*
X70242857Y-99998342D01*
X70242857Y-99998342D02*
X70271428Y-100026914D01*
X70271428Y-100026914D02*
X70300000Y-100084057D01*
X70300000Y-100084057D02*
X70300000Y-100169771D01*
X70300000Y-100169771D02*
X70271428Y-100226914D01*
X70271428Y-100226914D02*
X70242857Y-100255485D01*
X70242857Y-100255485D02*
X70185714Y-100284057D01*
X70185714Y-100284057D02*
X69957143Y-100284057D01*
X70814286Y-100169771D02*
X70814286Y-100569771D01*
X70671428Y-99941200D02*
X70528571Y-100369771D01*
X70528571Y-100369771D02*
X70900000Y-100369771D01*
X57909523Y-99962295D02*
X58366666Y-99962295D01*
X58138094Y-100762295D02*
X58138094Y-99962295D01*
X58633333Y-100762295D02*
X58633333Y-99962295D01*
X58633333Y-99962295D02*
X58938095Y-99962295D01*
X58938095Y-99962295D02*
X59014285Y-100000390D01*
X59014285Y-100000390D02*
X59052380Y-100038485D01*
X59052380Y-100038485D02*
X59090476Y-100114676D01*
X59090476Y-100114676D02*
X59090476Y-100228961D01*
X59090476Y-100228961D02*
X59052380Y-100305152D01*
X59052380Y-100305152D02*
X59014285Y-100343247D01*
X59014285Y-100343247D02*
X58938095Y-100381342D01*
X58938095Y-100381342D02*
X58633333Y-100381342D01*
X59852380Y-100762295D02*
X59395237Y-100762295D01*
X59623809Y-100762295D02*
X59623809Y-99962295D01*
X59623809Y-99962295D02*
X59547618Y-100076580D01*
X59547618Y-100076580D02*
X59471428Y-100152771D01*
X59471428Y-100152771D02*
X59395237Y-100190866D01*
X60538095Y-99962295D02*
X60385714Y-99962295D01*
X60385714Y-99962295D02*
X60309523Y-100000390D01*
X60309523Y-100000390D02*
X60271428Y-100038485D01*
X60271428Y-100038485D02*
X60195238Y-100152771D01*
X60195238Y-100152771D02*
X60157142Y-100305152D01*
X60157142Y-100305152D02*
X60157142Y-100609914D01*
X60157142Y-100609914D02*
X60195238Y-100686104D01*
X60195238Y-100686104D02*
X60233333Y-100724200D01*
X60233333Y-100724200D02*
X60309523Y-100762295D01*
X60309523Y-100762295D02*
X60461904Y-100762295D01*
X60461904Y-100762295D02*
X60538095Y-100724200D01*
X60538095Y-100724200D02*
X60576190Y-100686104D01*
X60576190Y-100686104D02*
X60614285Y-100609914D01*
X60614285Y-100609914D02*
X60614285Y-100419438D01*
X60614285Y-100419438D02*
X60576190Y-100343247D01*
X60576190Y-100343247D02*
X60538095Y-100305152D01*
X60538095Y-100305152D02*
X60461904Y-100267057D01*
X60461904Y-100267057D02*
X60309523Y-100267057D01*
X60309523Y-100267057D02*
X60233333Y-100305152D01*
X60233333Y-100305152D02*
X60195238Y-100343247D01*
X60195238Y-100343247D02*
X60157142Y-100419438D01*
X120866667Y-83686104D02*
X120828571Y-83724200D01*
X120828571Y-83724200D02*
X120714286Y-83762295D01*
X120714286Y-83762295D02*
X120638095Y-83762295D01*
X120638095Y-83762295D02*
X120523809Y-83724200D01*
X120523809Y-83724200D02*
X120447619Y-83648009D01*
X120447619Y-83648009D02*
X120409524Y-83571819D01*
X120409524Y-83571819D02*
X120371428Y-83419438D01*
X120371428Y-83419438D02*
X120371428Y-83305152D01*
X120371428Y-83305152D02*
X120409524Y-83152771D01*
X120409524Y-83152771D02*
X120447619Y-83076580D01*
X120447619Y-83076580D02*
X120523809Y-83000390D01*
X120523809Y-83000390D02*
X120638095Y-82962295D01*
X120638095Y-82962295D02*
X120714286Y-82962295D01*
X120714286Y-82962295D02*
X120828571Y-83000390D01*
X120828571Y-83000390D02*
X120866667Y-83038485D01*
X121133333Y-82962295D02*
X121628571Y-82962295D01*
X121628571Y-82962295D02*
X121361905Y-83267057D01*
X121361905Y-83267057D02*
X121476190Y-83267057D01*
X121476190Y-83267057D02*
X121552381Y-83305152D01*
X121552381Y-83305152D02*
X121590476Y-83343247D01*
X121590476Y-83343247D02*
X121628571Y-83419438D01*
X121628571Y-83419438D02*
X121628571Y-83609914D01*
X121628571Y-83609914D02*
X121590476Y-83686104D01*
X121590476Y-83686104D02*
X121552381Y-83724200D01*
X121552381Y-83724200D02*
X121476190Y-83762295D01*
X121476190Y-83762295D02*
X121247619Y-83762295D01*
X121247619Y-83762295D02*
X121171428Y-83724200D01*
X121171428Y-83724200D02*
X121133333Y-83686104D01*
X123990476Y-80162295D02*
X124447619Y-80162295D01*
X124219047Y-80962295D02*
X124219047Y-80162295D01*
X124714286Y-80962295D02*
X124714286Y-80162295D01*
X124714286Y-80162295D02*
X125019048Y-80162295D01*
X125019048Y-80162295D02*
X125095238Y-80200390D01*
X125095238Y-80200390D02*
X125133333Y-80238485D01*
X125133333Y-80238485D02*
X125171429Y-80314676D01*
X125171429Y-80314676D02*
X125171429Y-80428961D01*
X125171429Y-80428961D02*
X125133333Y-80505152D01*
X125133333Y-80505152D02*
X125095238Y-80543247D01*
X125095238Y-80543247D02*
X125019048Y-80581342D01*
X125019048Y-80581342D02*
X124714286Y-80581342D01*
X125857143Y-80162295D02*
X125704762Y-80162295D01*
X125704762Y-80162295D02*
X125628571Y-80200390D01*
X125628571Y-80200390D02*
X125590476Y-80238485D01*
X125590476Y-80238485D02*
X125514286Y-80352771D01*
X125514286Y-80352771D02*
X125476190Y-80505152D01*
X125476190Y-80505152D02*
X125476190Y-80809914D01*
X125476190Y-80809914D02*
X125514286Y-80886104D01*
X125514286Y-80886104D02*
X125552381Y-80924200D01*
X125552381Y-80924200D02*
X125628571Y-80962295D01*
X125628571Y-80962295D02*
X125780952Y-80962295D01*
X125780952Y-80962295D02*
X125857143Y-80924200D01*
X125857143Y-80924200D02*
X125895238Y-80886104D01*
X125895238Y-80886104D02*
X125933333Y-80809914D01*
X125933333Y-80809914D02*
X125933333Y-80619438D01*
X125933333Y-80619438D02*
X125895238Y-80543247D01*
X125895238Y-80543247D02*
X125857143Y-80505152D01*
X125857143Y-80505152D02*
X125780952Y-80467057D01*
X125780952Y-80467057D02*
X125628571Y-80467057D01*
X125628571Y-80467057D02*
X125552381Y-80505152D01*
X125552381Y-80505152D02*
X125514286Y-80543247D01*
X125514286Y-80543247D02*
X125476190Y-80619438D01*
X64069771Y-91985714D02*
X63784057Y-92185714D01*
X64069771Y-92328571D02*
X63469771Y-92328571D01*
X63469771Y-92328571D02*
X63469771Y-92100000D01*
X63469771Y-92100000D02*
X63498342Y-92042857D01*
X63498342Y-92042857D02*
X63526914Y-92014286D01*
X63526914Y-92014286D02*
X63584057Y-91985714D01*
X63584057Y-91985714D02*
X63669771Y-91985714D01*
X63669771Y-91985714D02*
X63726914Y-92014286D01*
X63726914Y-92014286D02*
X63755485Y-92042857D01*
X63755485Y-92042857D02*
X63784057Y-92100000D01*
X63784057Y-92100000D02*
X63784057Y-92328571D01*
X64069771Y-91414286D02*
X64069771Y-91757143D01*
X64069771Y-91585714D02*
X63469771Y-91585714D01*
X63469771Y-91585714D02*
X63555485Y-91642857D01*
X63555485Y-91642857D02*
X63612628Y-91700000D01*
X63612628Y-91700000D02*
X63641200Y-91757143D01*
X63469771Y-90871428D02*
X63469771Y-91157142D01*
X63469771Y-91157142D02*
X63755485Y-91185714D01*
X63755485Y-91185714D02*
X63726914Y-91157142D01*
X63726914Y-91157142D02*
X63698342Y-91100000D01*
X63698342Y-91100000D02*
X63698342Y-90957142D01*
X63698342Y-90957142D02*
X63726914Y-90900000D01*
X63726914Y-90900000D02*
X63755485Y-90871428D01*
X63755485Y-90871428D02*
X63812628Y-90842857D01*
X63812628Y-90842857D02*
X63955485Y-90842857D01*
X63955485Y-90842857D02*
X64012628Y-90871428D01*
X64012628Y-90871428D02*
X64041200Y-90900000D01*
X64041200Y-90900000D02*
X64069771Y-90957142D01*
X64069771Y-90957142D02*
X64069771Y-91100000D01*
X64069771Y-91100000D02*
X64041200Y-91157142D01*
X64041200Y-91157142D02*
X64012628Y-91185714D01*
X71014285Y-103269771D02*
X70814285Y-102984057D01*
X70671428Y-103269771D02*
X70671428Y-102669771D01*
X70671428Y-102669771D02*
X70899999Y-102669771D01*
X70899999Y-102669771D02*
X70957142Y-102698342D01*
X70957142Y-102698342D02*
X70985713Y-102726914D01*
X70985713Y-102726914D02*
X71014285Y-102784057D01*
X71014285Y-102784057D02*
X71014285Y-102869771D01*
X71014285Y-102869771D02*
X70985713Y-102926914D01*
X70985713Y-102926914D02*
X70957142Y-102955485D01*
X70957142Y-102955485D02*
X70899999Y-102984057D01*
X70899999Y-102984057D02*
X70671428Y-102984057D01*
X71585713Y-103269771D02*
X71242856Y-103269771D01*
X71414285Y-103269771D02*
X71414285Y-102669771D01*
X71414285Y-102669771D02*
X71357142Y-102755485D01*
X71357142Y-102755485D02*
X71299999Y-102812628D01*
X71299999Y-102812628D02*
X71242856Y-102841200D01*
X72157142Y-103269771D02*
X71814285Y-103269771D01*
X71985714Y-103269771D02*
X71985714Y-102669771D01*
X71985714Y-102669771D02*
X71928571Y-102755485D01*
X71928571Y-102755485D02*
X71871428Y-102812628D01*
X71871428Y-102812628D02*
X71814285Y-102841200D01*
X68700000Y-78669771D02*
X68500000Y-78384057D01*
X68357143Y-78669771D02*
X68357143Y-78069771D01*
X68357143Y-78069771D02*
X68585714Y-78069771D01*
X68585714Y-78069771D02*
X68642857Y-78098342D01*
X68642857Y-78098342D02*
X68671428Y-78126914D01*
X68671428Y-78126914D02*
X68700000Y-78184057D01*
X68700000Y-78184057D02*
X68700000Y-78269771D01*
X68700000Y-78269771D02*
X68671428Y-78326914D01*
X68671428Y-78326914D02*
X68642857Y-78355485D01*
X68642857Y-78355485D02*
X68585714Y-78384057D01*
X68585714Y-78384057D02*
X68357143Y-78384057D01*
X69242857Y-78069771D02*
X68957143Y-78069771D01*
X68957143Y-78069771D02*
X68928571Y-78355485D01*
X68928571Y-78355485D02*
X68957143Y-78326914D01*
X68957143Y-78326914D02*
X69014286Y-78298342D01*
X69014286Y-78298342D02*
X69157143Y-78298342D01*
X69157143Y-78298342D02*
X69214286Y-78326914D01*
X69214286Y-78326914D02*
X69242857Y-78355485D01*
X69242857Y-78355485D02*
X69271428Y-78412628D01*
X69271428Y-78412628D02*
X69271428Y-78555485D01*
X69271428Y-78555485D02*
X69242857Y-78612628D01*
X69242857Y-78612628D02*
X69214286Y-78641200D01*
X69214286Y-78641200D02*
X69157143Y-78669771D01*
X69157143Y-78669771D02*
X69014286Y-78669771D01*
X69014286Y-78669771D02*
X68957143Y-78641200D01*
X68957143Y-78641200D02*
X68928571Y-78612628D01*
X76314285Y-75212628D02*
X76285713Y-75241200D01*
X76285713Y-75241200D02*
X76199999Y-75269771D01*
X76199999Y-75269771D02*
X76142856Y-75269771D01*
X76142856Y-75269771D02*
X76057142Y-75241200D01*
X76057142Y-75241200D02*
X75999999Y-75184057D01*
X75999999Y-75184057D02*
X75971428Y-75126914D01*
X75971428Y-75126914D02*
X75942856Y-75012628D01*
X75942856Y-75012628D02*
X75942856Y-74926914D01*
X75942856Y-74926914D02*
X75971428Y-74812628D01*
X75971428Y-74812628D02*
X75999999Y-74755485D01*
X75999999Y-74755485D02*
X76057142Y-74698342D01*
X76057142Y-74698342D02*
X76142856Y-74669771D01*
X76142856Y-74669771D02*
X76199999Y-74669771D01*
X76199999Y-74669771D02*
X76285713Y-74698342D01*
X76285713Y-74698342D02*
X76314285Y-74726914D01*
X76885713Y-75269771D02*
X76542856Y-75269771D01*
X76714285Y-75269771D02*
X76714285Y-74669771D01*
X76714285Y-74669771D02*
X76657142Y-74755485D01*
X76657142Y-74755485D02*
X76599999Y-74812628D01*
X76599999Y-74812628D02*
X76542856Y-74841200D01*
X77457142Y-75269771D02*
X77114285Y-75269771D01*
X77285714Y-75269771D02*
X77285714Y-74669771D01*
X77285714Y-74669771D02*
X77228571Y-74755485D01*
X77228571Y-74755485D02*
X77171428Y-74812628D01*
X77171428Y-74812628D02*
X77114285Y-74841200D01*
X106290476Y-75062295D02*
X106747619Y-75062295D01*
X106519047Y-75862295D02*
X106519047Y-75062295D01*
X107014286Y-75862295D02*
X107014286Y-75062295D01*
X107014286Y-75062295D02*
X107319048Y-75062295D01*
X107319048Y-75062295D02*
X107395238Y-75100390D01*
X107395238Y-75100390D02*
X107433333Y-75138485D01*
X107433333Y-75138485D02*
X107471429Y-75214676D01*
X107471429Y-75214676D02*
X107471429Y-75328961D01*
X107471429Y-75328961D02*
X107433333Y-75405152D01*
X107433333Y-75405152D02*
X107395238Y-75443247D01*
X107395238Y-75443247D02*
X107319048Y-75481342D01*
X107319048Y-75481342D02*
X107014286Y-75481342D01*
X107738095Y-75062295D02*
X108271429Y-75062295D01*
X108271429Y-75062295D02*
X107928571Y-75862295D01*
X106886104Y-102733332D02*
X106924200Y-102771428D01*
X106924200Y-102771428D02*
X106962295Y-102885713D01*
X106962295Y-102885713D02*
X106962295Y-102961904D01*
X106962295Y-102961904D02*
X106924200Y-103076190D01*
X106924200Y-103076190D02*
X106848009Y-103152380D01*
X106848009Y-103152380D02*
X106771819Y-103190475D01*
X106771819Y-103190475D02*
X106619438Y-103228571D01*
X106619438Y-103228571D02*
X106505152Y-103228571D01*
X106505152Y-103228571D02*
X106352771Y-103190475D01*
X106352771Y-103190475D02*
X106276580Y-103152380D01*
X106276580Y-103152380D02*
X106200390Y-103076190D01*
X106200390Y-103076190D02*
X106162295Y-102961904D01*
X106162295Y-102961904D02*
X106162295Y-102885713D01*
X106162295Y-102885713D02*
X106200390Y-102771428D01*
X106200390Y-102771428D02*
X106238485Y-102733332D01*
X106162295Y-102466666D02*
X106162295Y-101933332D01*
X106162295Y-101933332D02*
X106962295Y-102276190D01*
X98190476Y-108562295D02*
X98190476Y-109209914D01*
X98190476Y-109209914D02*
X98228571Y-109286104D01*
X98228571Y-109286104D02*
X98266666Y-109324200D01*
X98266666Y-109324200D02*
X98342857Y-109362295D01*
X98342857Y-109362295D02*
X98495238Y-109362295D01*
X98495238Y-109362295D02*
X98571428Y-109324200D01*
X98571428Y-109324200D02*
X98609523Y-109286104D01*
X98609523Y-109286104D02*
X98647619Y-109209914D01*
X98647619Y-109209914D02*
X98647619Y-108562295D01*
X98952380Y-108562295D02*
X99447618Y-108562295D01*
X99447618Y-108562295D02*
X99180952Y-108867057D01*
X99180952Y-108867057D02*
X99295237Y-108867057D01*
X99295237Y-108867057D02*
X99371428Y-108905152D01*
X99371428Y-108905152D02*
X99409523Y-108943247D01*
X99409523Y-108943247D02*
X99447618Y-109019438D01*
X99447618Y-109019438D02*
X99447618Y-109209914D01*
X99447618Y-109209914D02*
X99409523Y-109286104D01*
X99409523Y-109286104D02*
X99371428Y-109324200D01*
X99371428Y-109324200D02*
X99295237Y-109362295D01*
X99295237Y-109362295D02*
X99066666Y-109362295D01*
X99066666Y-109362295D02*
X98990475Y-109324200D01*
X98990475Y-109324200D02*
X98952380Y-109286104D01*
X81809523Y-107562295D02*
X82266666Y-107562295D01*
X82038094Y-108362295D02*
X82038094Y-107562295D01*
X82533333Y-108362295D02*
X82533333Y-107562295D01*
X82533333Y-107562295D02*
X82838095Y-107562295D01*
X82838095Y-107562295D02*
X82914285Y-107600390D01*
X82914285Y-107600390D02*
X82952380Y-107638485D01*
X82952380Y-107638485D02*
X82990476Y-107714676D01*
X82990476Y-107714676D02*
X82990476Y-107828961D01*
X82990476Y-107828961D02*
X82952380Y-107905152D01*
X82952380Y-107905152D02*
X82914285Y-107943247D01*
X82914285Y-107943247D02*
X82838095Y-107981342D01*
X82838095Y-107981342D02*
X82533333Y-107981342D01*
X83752380Y-108362295D02*
X83295237Y-108362295D01*
X83523809Y-108362295D02*
X83523809Y-107562295D01*
X83523809Y-107562295D02*
X83447618Y-107676580D01*
X83447618Y-107676580D02*
X83371428Y-107752771D01*
X83371428Y-107752771D02*
X83295237Y-107790866D01*
X84438095Y-107828961D02*
X84438095Y-108362295D01*
X84247619Y-107524200D02*
X84057142Y-108095628D01*
X84057142Y-108095628D02*
X84552381Y-108095628D01*
X103609524Y-107362295D02*
X103609524Y-106562295D01*
X103609524Y-106562295D02*
X103800000Y-106562295D01*
X103800000Y-106562295D02*
X103914286Y-106600390D01*
X103914286Y-106600390D02*
X103990476Y-106676580D01*
X103990476Y-106676580D02*
X104028571Y-106752771D01*
X104028571Y-106752771D02*
X104066667Y-106905152D01*
X104066667Y-106905152D02*
X104066667Y-107019438D01*
X104066667Y-107019438D02*
X104028571Y-107171819D01*
X104028571Y-107171819D02*
X103990476Y-107248009D01*
X103990476Y-107248009D02*
X103914286Y-107324200D01*
X103914286Y-107324200D02*
X103800000Y-107362295D01*
X103800000Y-107362295D02*
X103609524Y-107362295D01*
X104371428Y-106638485D02*
X104409524Y-106600390D01*
X104409524Y-106600390D02*
X104485714Y-106562295D01*
X104485714Y-106562295D02*
X104676190Y-106562295D01*
X104676190Y-106562295D02*
X104752381Y-106600390D01*
X104752381Y-106600390D02*
X104790476Y-106638485D01*
X104790476Y-106638485D02*
X104828571Y-106714676D01*
X104828571Y-106714676D02*
X104828571Y-106790866D01*
X104828571Y-106790866D02*
X104790476Y-106905152D01*
X104790476Y-106905152D02*
X104333333Y-107362295D01*
X104333333Y-107362295D02*
X104828571Y-107362295D01*
X70700000Y-98412628D02*
X70671428Y-98441200D01*
X70671428Y-98441200D02*
X70585714Y-98469771D01*
X70585714Y-98469771D02*
X70528571Y-98469771D01*
X70528571Y-98469771D02*
X70442857Y-98441200D01*
X70442857Y-98441200D02*
X70385714Y-98384057D01*
X70385714Y-98384057D02*
X70357143Y-98326914D01*
X70357143Y-98326914D02*
X70328571Y-98212628D01*
X70328571Y-98212628D02*
X70328571Y-98126914D01*
X70328571Y-98126914D02*
X70357143Y-98012628D01*
X70357143Y-98012628D02*
X70385714Y-97955485D01*
X70385714Y-97955485D02*
X70442857Y-97898342D01*
X70442857Y-97898342D02*
X70528571Y-97869771D01*
X70528571Y-97869771D02*
X70585714Y-97869771D01*
X70585714Y-97869771D02*
X70671428Y-97898342D01*
X70671428Y-97898342D02*
X70700000Y-97926914D01*
X70928571Y-97926914D02*
X70957143Y-97898342D01*
X70957143Y-97898342D02*
X71014286Y-97869771D01*
X71014286Y-97869771D02*
X71157143Y-97869771D01*
X71157143Y-97869771D02*
X71214286Y-97898342D01*
X71214286Y-97898342D02*
X71242857Y-97926914D01*
X71242857Y-97926914D02*
X71271428Y-97984057D01*
X71271428Y-97984057D02*
X71271428Y-98041200D01*
X71271428Y-98041200D02*
X71242857Y-98126914D01*
X71242857Y-98126914D02*
X70900000Y-98469771D01*
X70900000Y-98469771D02*
X71271428Y-98469771D01*
X108562295Y-110133332D02*
X108181342Y-110399999D01*
X108562295Y-110590475D02*
X107762295Y-110590475D01*
X107762295Y-110590475D02*
X107762295Y-110285713D01*
X107762295Y-110285713D02*
X107800390Y-110209523D01*
X107800390Y-110209523D02*
X107838485Y-110171428D01*
X107838485Y-110171428D02*
X107914676Y-110133332D01*
X107914676Y-110133332D02*
X108028961Y-110133332D01*
X108028961Y-110133332D02*
X108105152Y-110171428D01*
X108105152Y-110171428D02*
X108143247Y-110209523D01*
X108143247Y-110209523D02*
X108181342Y-110285713D01*
X108181342Y-110285713D02*
X108181342Y-110590475D01*
X107762295Y-109447618D02*
X107762295Y-109599999D01*
X107762295Y-109599999D02*
X107800390Y-109676190D01*
X107800390Y-109676190D02*
X107838485Y-109714285D01*
X107838485Y-109714285D02*
X107952771Y-109790475D01*
X107952771Y-109790475D02*
X108105152Y-109828571D01*
X108105152Y-109828571D02*
X108409914Y-109828571D01*
X108409914Y-109828571D02*
X108486104Y-109790475D01*
X108486104Y-109790475D02*
X108524200Y-109752380D01*
X108524200Y-109752380D02*
X108562295Y-109676190D01*
X108562295Y-109676190D02*
X108562295Y-109523809D01*
X108562295Y-109523809D02*
X108524200Y-109447618D01*
X108524200Y-109447618D02*
X108486104Y-109409523D01*
X108486104Y-109409523D02*
X108409914Y-109371428D01*
X108409914Y-109371428D02*
X108219438Y-109371428D01*
X108219438Y-109371428D02*
X108143247Y-109409523D01*
X108143247Y-109409523D02*
X108105152Y-109447618D01*
X108105152Y-109447618D02*
X108067057Y-109523809D01*
X108067057Y-109523809D02*
X108067057Y-109676190D01*
X108067057Y-109676190D02*
X108105152Y-109752380D01*
X108105152Y-109752380D02*
X108143247Y-109790475D01*
X108143247Y-109790475D02*
X108219438Y-109828571D01*
X113666667Y-100262295D02*
X113400000Y-99881342D01*
X113209524Y-100262295D02*
X113209524Y-99462295D01*
X113209524Y-99462295D02*
X113514286Y-99462295D01*
X113514286Y-99462295D02*
X113590476Y-99500390D01*
X113590476Y-99500390D02*
X113628571Y-99538485D01*
X113628571Y-99538485D02*
X113666667Y-99614676D01*
X113666667Y-99614676D02*
X113666667Y-99728961D01*
X113666667Y-99728961D02*
X113628571Y-99805152D01*
X113628571Y-99805152D02*
X113590476Y-99843247D01*
X113590476Y-99843247D02*
X113514286Y-99881342D01*
X113514286Y-99881342D02*
X113209524Y-99881342D01*
X113933333Y-99462295D02*
X114466667Y-99462295D01*
X114466667Y-99462295D02*
X114123809Y-100262295D01*
X70414285Y-78669771D02*
X70214285Y-78384057D01*
X70071428Y-78669771D02*
X70071428Y-78069771D01*
X70071428Y-78069771D02*
X70299999Y-78069771D01*
X70299999Y-78069771D02*
X70357142Y-78098342D01*
X70357142Y-78098342D02*
X70385713Y-78126914D01*
X70385713Y-78126914D02*
X70414285Y-78184057D01*
X70414285Y-78184057D02*
X70414285Y-78269771D01*
X70414285Y-78269771D02*
X70385713Y-78326914D01*
X70385713Y-78326914D02*
X70357142Y-78355485D01*
X70357142Y-78355485D02*
X70299999Y-78384057D01*
X70299999Y-78384057D02*
X70071428Y-78384057D01*
X70985713Y-78669771D02*
X70642856Y-78669771D01*
X70814285Y-78669771D02*
X70814285Y-78069771D01*
X70814285Y-78069771D02*
X70757142Y-78155485D01*
X70757142Y-78155485D02*
X70699999Y-78212628D01*
X70699999Y-78212628D02*
X70642856Y-78241200D01*
X71185714Y-78069771D02*
X71557142Y-78069771D01*
X71557142Y-78069771D02*
X71357142Y-78298342D01*
X71357142Y-78298342D02*
X71442857Y-78298342D01*
X71442857Y-78298342D02*
X71500000Y-78326914D01*
X71500000Y-78326914D02*
X71528571Y-78355485D01*
X71528571Y-78355485D02*
X71557142Y-78412628D01*
X71557142Y-78412628D02*
X71557142Y-78555485D01*
X71557142Y-78555485D02*
X71528571Y-78612628D01*
X71528571Y-78612628D02*
X71500000Y-78641200D01*
X71500000Y-78641200D02*
X71442857Y-78669771D01*
X71442857Y-78669771D02*
X71271428Y-78669771D01*
X71271428Y-78669771D02*
X71214285Y-78641200D01*
X71214285Y-78641200D02*
X71185714Y-78612628D01*
X102990476Y-103062295D02*
X103447619Y-103062295D01*
X103219047Y-103862295D02*
X103219047Y-103062295D01*
X103714286Y-103862295D02*
X103714286Y-103062295D01*
X103714286Y-103062295D02*
X104019048Y-103062295D01*
X104019048Y-103062295D02*
X104095238Y-103100390D01*
X104095238Y-103100390D02*
X104133333Y-103138485D01*
X104133333Y-103138485D02*
X104171429Y-103214676D01*
X104171429Y-103214676D02*
X104171429Y-103328961D01*
X104171429Y-103328961D02*
X104133333Y-103405152D01*
X104133333Y-103405152D02*
X104095238Y-103443247D01*
X104095238Y-103443247D02*
X104019048Y-103481342D01*
X104019048Y-103481342D02*
X103714286Y-103481342D01*
X104628571Y-103405152D02*
X104552381Y-103367057D01*
X104552381Y-103367057D02*
X104514286Y-103328961D01*
X104514286Y-103328961D02*
X104476190Y-103252771D01*
X104476190Y-103252771D02*
X104476190Y-103214676D01*
X104476190Y-103214676D02*
X104514286Y-103138485D01*
X104514286Y-103138485D02*
X104552381Y-103100390D01*
X104552381Y-103100390D02*
X104628571Y-103062295D01*
X104628571Y-103062295D02*
X104780952Y-103062295D01*
X104780952Y-103062295D02*
X104857143Y-103100390D01*
X104857143Y-103100390D02*
X104895238Y-103138485D01*
X104895238Y-103138485D02*
X104933333Y-103214676D01*
X104933333Y-103214676D02*
X104933333Y-103252771D01*
X104933333Y-103252771D02*
X104895238Y-103328961D01*
X104895238Y-103328961D02*
X104857143Y-103367057D01*
X104857143Y-103367057D02*
X104780952Y-103405152D01*
X104780952Y-103405152D02*
X104628571Y-103405152D01*
X104628571Y-103405152D02*
X104552381Y-103443247D01*
X104552381Y-103443247D02*
X104514286Y-103481342D01*
X104514286Y-103481342D02*
X104476190Y-103557533D01*
X104476190Y-103557533D02*
X104476190Y-103709914D01*
X104476190Y-103709914D02*
X104514286Y-103786104D01*
X104514286Y-103786104D02*
X104552381Y-103824200D01*
X104552381Y-103824200D02*
X104628571Y-103862295D01*
X104628571Y-103862295D02*
X104780952Y-103862295D01*
X104780952Y-103862295D02*
X104857143Y-103824200D01*
X104857143Y-103824200D02*
X104895238Y-103786104D01*
X104895238Y-103786104D02*
X104933333Y-103709914D01*
X104933333Y-103709914D02*
X104933333Y-103557533D01*
X104933333Y-103557533D02*
X104895238Y-103481342D01*
X104895238Y-103481342D02*
X104857143Y-103443247D01*
X104857143Y-103443247D02*
X104780952Y-103405152D01*
X64190476Y-83562295D02*
X64647619Y-83562295D01*
X64419047Y-84362295D02*
X64419047Y-83562295D01*
X64914286Y-84362295D02*
X64914286Y-83562295D01*
X64914286Y-83562295D02*
X65219048Y-83562295D01*
X65219048Y-83562295D02*
X65295238Y-83600390D01*
X65295238Y-83600390D02*
X65333333Y-83638485D01*
X65333333Y-83638485D02*
X65371429Y-83714676D01*
X65371429Y-83714676D02*
X65371429Y-83828961D01*
X65371429Y-83828961D02*
X65333333Y-83905152D01*
X65333333Y-83905152D02*
X65295238Y-83943247D01*
X65295238Y-83943247D02*
X65219048Y-83981342D01*
X65219048Y-83981342D02*
X64914286Y-83981342D01*
X66133333Y-84362295D02*
X65676190Y-84362295D01*
X65904762Y-84362295D02*
X65904762Y-83562295D01*
X65904762Y-83562295D02*
X65828571Y-83676580D01*
X65828571Y-83676580D02*
X65752381Y-83752771D01*
X65752381Y-83752771D02*
X65676190Y-83790866D01*
X89086104Y-103333332D02*
X89124200Y-103371428D01*
X89124200Y-103371428D02*
X89162295Y-103485713D01*
X89162295Y-103485713D02*
X89162295Y-103561904D01*
X89162295Y-103561904D02*
X89124200Y-103676190D01*
X89124200Y-103676190D02*
X89048009Y-103752380D01*
X89048009Y-103752380D02*
X88971819Y-103790475D01*
X88971819Y-103790475D02*
X88819438Y-103828571D01*
X88819438Y-103828571D02*
X88705152Y-103828571D01*
X88705152Y-103828571D02*
X88552771Y-103790475D01*
X88552771Y-103790475D02*
X88476580Y-103752380D01*
X88476580Y-103752380D02*
X88400390Y-103676190D01*
X88400390Y-103676190D02*
X88362295Y-103561904D01*
X88362295Y-103561904D02*
X88362295Y-103485713D01*
X88362295Y-103485713D02*
X88400390Y-103371428D01*
X88400390Y-103371428D02*
X88438485Y-103333332D01*
X88705152Y-102876190D02*
X88667057Y-102952380D01*
X88667057Y-102952380D02*
X88628961Y-102990475D01*
X88628961Y-102990475D02*
X88552771Y-103028571D01*
X88552771Y-103028571D02*
X88514676Y-103028571D01*
X88514676Y-103028571D02*
X88438485Y-102990475D01*
X88438485Y-102990475D02*
X88400390Y-102952380D01*
X88400390Y-102952380D02*
X88362295Y-102876190D01*
X88362295Y-102876190D02*
X88362295Y-102723809D01*
X88362295Y-102723809D02*
X88400390Y-102647618D01*
X88400390Y-102647618D02*
X88438485Y-102609523D01*
X88438485Y-102609523D02*
X88514676Y-102571428D01*
X88514676Y-102571428D02*
X88552771Y-102571428D01*
X88552771Y-102571428D02*
X88628961Y-102609523D01*
X88628961Y-102609523D02*
X88667057Y-102647618D01*
X88667057Y-102647618D02*
X88705152Y-102723809D01*
X88705152Y-102723809D02*
X88705152Y-102876190D01*
X88705152Y-102876190D02*
X88743247Y-102952380D01*
X88743247Y-102952380D02*
X88781342Y-102990475D01*
X88781342Y-102990475D02*
X88857533Y-103028571D01*
X88857533Y-103028571D02*
X89009914Y-103028571D01*
X89009914Y-103028571D02*
X89086104Y-102990475D01*
X89086104Y-102990475D02*
X89124200Y-102952380D01*
X89124200Y-102952380D02*
X89162295Y-102876190D01*
X89162295Y-102876190D02*
X89162295Y-102723809D01*
X89162295Y-102723809D02*
X89124200Y-102647618D01*
X89124200Y-102647618D02*
X89086104Y-102609523D01*
X89086104Y-102609523D02*
X89009914Y-102571428D01*
X89009914Y-102571428D02*
X88857533Y-102571428D01*
X88857533Y-102571428D02*
X88781342Y-102609523D01*
X88781342Y-102609523D02*
X88743247Y-102647618D01*
X88743247Y-102647618D02*
X88705152Y-102723809D01*
X65214285Y-93869771D02*
X65014285Y-93584057D01*
X64871428Y-93869771D02*
X64871428Y-93269771D01*
X64871428Y-93269771D02*
X65099999Y-93269771D01*
X65099999Y-93269771D02*
X65157142Y-93298342D01*
X65157142Y-93298342D02*
X65185713Y-93326914D01*
X65185713Y-93326914D02*
X65214285Y-93384057D01*
X65214285Y-93384057D02*
X65214285Y-93469771D01*
X65214285Y-93469771D02*
X65185713Y-93526914D01*
X65185713Y-93526914D02*
X65157142Y-93555485D01*
X65157142Y-93555485D02*
X65099999Y-93584057D01*
X65099999Y-93584057D02*
X64871428Y-93584057D01*
X65785713Y-93869771D02*
X65442856Y-93869771D01*
X65614285Y-93869771D02*
X65614285Y-93269771D01*
X65614285Y-93269771D02*
X65557142Y-93355485D01*
X65557142Y-93355485D02*
X65499999Y-93412628D01*
X65499999Y-93412628D02*
X65442856Y-93441200D01*
X66300000Y-93469771D02*
X66300000Y-93869771D01*
X66157142Y-93241200D02*
X66014285Y-93669771D01*
X66014285Y-93669771D02*
X66385714Y-93669771D01*
X73800000Y-99669771D02*
X73600000Y-99384057D01*
X73457143Y-99669771D02*
X73457143Y-99069771D01*
X73457143Y-99069771D02*
X73685714Y-99069771D01*
X73685714Y-99069771D02*
X73742857Y-99098342D01*
X73742857Y-99098342D02*
X73771428Y-99126914D01*
X73771428Y-99126914D02*
X73800000Y-99184057D01*
X73800000Y-99184057D02*
X73800000Y-99269771D01*
X73800000Y-99269771D02*
X73771428Y-99326914D01*
X73771428Y-99326914D02*
X73742857Y-99355485D01*
X73742857Y-99355485D02*
X73685714Y-99384057D01*
X73685714Y-99384057D02*
X73457143Y-99384057D01*
X74000000Y-99069771D02*
X74371428Y-99069771D01*
X74371428Y-99069771D02*
X74171428Y-99298342D01*
X74171428Y-99298342D02*
X74257143Y-99298342D01*
X74257143Y-99298342D02*
X74314286Y-99326914D01*
X74314286Y-99326914D02*
X74342857Y-99355485D01*
X74342857Y-99355485D02*
X74371428Y-99412628D01*
X74371428Y-99412628D02*
X74371428Y-99555485D01*
X74371428Y-99555485D02*
X74342857Y-99612628D01*
X74342857Y-99612628D02*
X74314286Y-99641200D01*
X74314286Y-99641200D02*
X74257143Y-99669771D01*
X74257143Y-99669771D02*
X74085714Y-99669771D01*
X74085714Y-99669771D02*
X74028571Y-99641200D01*
X74028571Y-99641200D02*
X74000000Y-99612628D01*
X79190476Y-75062295D02*
X79647619Y-75062295D01*
X79419047Y-75862295D02*
X79419047Y-75062295D01*
X79914286Y-75862295D02*
X79914286Y-75062295D01*
X79914286Y-75062295D02*
X80219048Y-75062295D01*
X80219048Y-75062295D02*
X80295238Y-75100390D01*
X80295238Y-75100390D02*
X80333333Y-75138485D01*
X80333333Y-75138485D02*
X80371429Y-75214676D01*
X80371429Y-75214676D02*
X80371429Y-75328961D01*
X80371429Y-75328961D02*
X80333333Y-75405152D01*
X80333333Y-75405152D02*
X80295238Y-75443247D01*
X80295238Y-75443247D02*
X80219048Y-75481342D01*
X80219048Y-75481342D02*
X79914286Y-75481342D01*
X80676190Y-75138485D02*
X80714286Y-75100390D01*
X80714286Y-75100390D02*
X80790476Y-75062295D01*
X80790476Y-75062295D02*
X80980952Y-75062295D01*
X80980952Y-75062295D02*
X81057143Y-75100390D01*
X81057143Y-75100390D02*
X81095238Y-75138485D01*
X81095238Y-75138485D02*
X81133333Y-75214676D01*
X81133333Y-75214676D02*
X81133333Y-75290866D01*
X81133333Y-75290866D02*
X81095238Y-75405152D01*
X81095238Y-75405152D02*
X80638095Y-75862295D01*
X80638095Y-75862295D02*
X81133333Y-75862295D01*
X114666667Y-83686104D02*
X114628571Y-83724200D01*
X114628571Y-83724200D02*
X114514286Y-83762295D01*
X114514286Y-83762295D02*
X114438095Y-83762295D01*
X114438095Y-83762295D02*
X114323809Y-83724200D01*
X114323809Y-83724200D02*
X114247619Y-83648009D01*
X114247619Y-83648009D02*
X114209524Y-83571819D01*
X114209524Y-83571819D02*
X114171428Y-83419438D01*
X114171428Y-83419438D02*
X114171428Y-83305152D01*
X114171428Y-83305152D02*
X114209524Y-83152771D01*
X114209524Y-83152771D02*
X114247619Y-83076580D01*
X114247619Y-83076580D02*
X114323809Y-83000390D01*
X114323809Y-83000390D02*
X114438095Y-82962295D01*
X114438095Y-82962295D02*
X114514286Y-82962295D01*
X114514286Y-82962295D02*
X114628571Y-83000390D01*
X114628571Y-83000390D02*
X114666667Y-83038485D01*
X115352381Y-83228961D02*
X115352381Y-83762295D01*
X115161905Y-82924200D02*
X114971428Y-83495628D01*
X114971428Y-83495628D02*
X115466667Y-83495628D01*
D10*
X81956265Y-79996895D02*
X81956265Y-79196895D01*
X81956265Y-79196895D02*
X82413408Y-79996895D01*
X82413408Y-79996895D02*
X82413408Y-79196895D01*
X82794360Y-79577847D02*
X83403884Y-79577847D01*
X83403884Y-79806419D02*
X82794360Y-79806419D01*
X83746740Y-79273085D02*
X83784836Y-79234990D01*
X83784836Y-79234990D02*
X83861026Y-79196895D01*
X83861026Y-79196895D02*
X84051502Y-79196895D01*
X84051502Y-79196895D02*
X84127693Y-79234990D01*
X84127693Y-79234990D02*
X84165788Y-79273085D01*
X84165788Y-79273085D02*
X84203883Y-79349276D01*
X84203883Y-79349276D02*
X84203883Y-79425466D01*
X84203883Y-79425466D02*
X84165788Y-79539752D01*
X84165788Y-79539752D02*
X83708645Y-79996895D01*
X83708645Y-79996895D02*
X84203883Y-79996895D01*
X106265789Y-79996895D02*
X106265789Y-79196895D01*
X106265789Y-79196895D02*
X106722932Y-79996895D01*
X106722932Y-79996895D02*
X106722932Y-79196895D01*
X107103884Y-79577847D02*
X107713408Y-79577847D01*
X107713408Y-79806419D02*
X107103884Y-79806419D01*
X108437217Y-79463561D02*
X108437217Y-79996895D01*
X108246741Y-79158800D02*
X108056264Y-79730228D01*
X108056264Y-79730228D02*
X108551503Y-79730228D01*
X109008646Y-79196895D02*
X109084836Y-79196895D01*
X109084836Y-79196895D02*
X109161027Y-79234990D01*
X109161027Y-79234990D02*
X109199122Y-79273085D01*
X109199122Y-79273085D02*
X109237217Y-79349276D01*
X109237217Y-79349276D02*
X109275312Y-79501657D01*
X109275312Y-79501657D02*
X109275312Y-79692133D01*
X109275312Y-79692133D02*
X109237217Y-79844514D01*
X109237217Y-79844514D02*
X109199122Y-79920704D01*
X109199122Y-79920704D02*
X109161027Y-79958800D01*
X109161027Y-79958800D02*
X109084836Y-79996895D01*
X109084836Y-79996895D02*
X109008646Y-79996895D01*
X109008646Y-79996895D02*
X108932455Y-79958800D01*
X108932455Y-79958800D02*
X108894360Y-79920704D01*
X108894360Y-79920704D02*
X108856265Y-79844514D01*
X108856265Y-79844514D02*
X108818169Y-79692133D01*
X108818169Y-79692133D02*
X108818169Y-79501657D01*
X108818169Y-79501657D02*
X108856265Y-79349276D01*
X108856265Y-79349276D02*
X108894360Y-79273085D01*
X108894360Y-79273085D02*
X108932455Y-79234990D01*
X108932455Y-79234990D02*
X109008646Y-79196895D01*
D12*
X120609524Y-78562295D02*
X120609524Y-77762295D01*
X120609524Y-77762295D02*
X120800000Y-77762295D01*
X120800000Y-77762295D02*
X120914286Y-77800390D01*
X120914286Y-77800390D02*
X120990476Y-77876580D01*
X120990476Y-77876580D02*
X121028571Y-77952771D01*
X121028571Y-77952771D02*
X121066667Y-78105152D01*
X121066667Y-78105152D02*
X121066667Y-78219438D01*
X121066667Y-78219438D02*
X121028571Y-78371819D01*
X121028571Y-78371819D02*
X120990476Y-78448009D01*
X120990476Y-78448009D02*
X120914286Y-78524200D01*
X120914286Y-78524200D02*
X120800000Y-78562295D01*
X120800000Y-78562295D02*
X120609524Y-78562295D01*
X121828571Y-78562295D02*
X121371428Y-78562295D01*
X121600000Y-78562295D02*
X121600000Y-77762295D01*
X121600000Y-77762295D02*
X121523809Y-77876580D01*
X121523809Y-77876580D02*
X121447619Y-77952771D01*
X121447619Y-77952771D02*
X121371428Y-77990866D01*
X76214285Y-78612628D02*
X76185713Y-78641200D01*
X76185713Y-78641200D02*
X76099999Y-78669771D01*
X76099999Y-78669771D02*
X76042856Y-78669771D01*
X76042856Y-78669771D02*
X75957142Y-78641200D01*
X75957142Y-78641200D02*
X75899999Y-78584057D01*
X75899999Y-78584057D02*
X75871428Y-78526914D01*
X75871428Y-78526914D02*
X75842856Y-78412628D01*
X75842856Y-78412628D02*
X75842856Y-78326914D01*
X75842856Y-78326914D02*
X75871428Y-78212628D01*
X75871428Y-78212628D02*
X75899999Y-78155485D01*
X75899999Y-78155485D02*
X75957142Y-78098342D01*
X75957142Y-78098342D02*
X76042856Y-78069771D01*
X76042856Y-78069771D02*
X76099999Y-78069771D01*
X76099999Y-78069771D02*
X76185713Y-78098342D01*
X76185713Y-78098342D02*
X76214285Y-78126914D01*
X76785713Y-78669771D02*
X76442856Y-78669771D01*
X76614285Y-78669771D02*
X76614285Y-78069771D01*
X76614285Y-78069771D02*
X76557142Y-78155485D01*
X76557142Y-78155485D02*
X76499999Y-78212628D01*
X76499999Y-78212628D02*
X76442856Y-78241200D01*
X77157142Y-78069771D02*
X77214285Y-78069771D01*
X77214285Y-78069771D02*
X77271428Y-78098342D01*
X77271428Y-78098342D02*
X77300000Y-78126914D01*
X77300000Y-78126914D02*
X77328571Y-78184057D01*
X77328571Y-78184057D02*
X77357142Y-78298342D01*
X77357142Y-78298342D02*
X77357142Y-78441200D01*
X77357142Y-78441200D02*
X77328571Y-78555485D01*
X77328571Y-78555485D02*
X77300000Y-78612628D01*
X77300000Y-78612628D02*
X77271428Y-78641200D01*
X77271428Y-78641200D02*
X77214285Y-78669771D01*
X77214285Y-78669771D02*
X77157142Y-78669771D01*
X77157142Y-78669771D02*
X77100000Y-78641200D01*
X77100000Y-78641200D02*
X77071428Y-78612628D01*
X77071428Y-78612628D02*
X77042857Y-78555485D01*
X77042857Y-78555485D02*
X77014285Y-78441200D01*
X77014285Y-78441200D02*
X77014285Y-78298342D01*
X77014285Y-78298342D02*
X77042857Y-78184057D01*
X77042857Y-78184057D02*
X77071428Y-78126914D01*
X77071428Y-78126914D02*
X77100000Y-78098342D01*
X77100000Y-78098342D02*
X77157142Y-78069771D01*
X108702976Y-102762295D02*
X108702976Y-103409914D01*
X108702976Y-103409914D02*
X108741071Y-103486104D01*
X108741071Y-103486104D02*
X108779166Y-103524200D01*
X108779166Y-103524200D02*
X108855357Y-103562295D01*
X108855357Y-103562295D02*
X109007738Y-103562295D01*
X109007738Y-103562295D02*
X109083928Y-103524200D01*
X109083928Y-103524200D02*
X109122023Y-103486104D01*
X109122023Y-103486104D02*
X109160119Y-103409914D01*
X109160119Y-103409914D02*
X109160119Y-102762295D01*
X109502975Y-102838485D02*
X109541071Y-102800390D01*
X109541071Y-102800390D02*
X109617261Y-102762295D01*
X109617261Y-102762295D02*
X109807737Y-102762295D01*
X109807737Y-102762295D02*
X109883928Y-102800390D01*
X109883928Y-102800390D02*
X109922023Y-102838485D01*
X109922023Y-102838485D02*
X109960118Y-102914676D01*
X109960118Y-102914676D02*
X109960118Y-102990866D01*
X109960118Y-102990866D02*
X109922023Y-103105152D01*
X109922023Y-103105152D02*
X109464880Y-103562295D01*
X109464880Y-103562295D02*
X109960118Y-103562295D01*
X64700000Y-96469771D02*
X64500000Y-96184057D01*
X64357143Y-96469771D02*
X64357143Y-95869771D01*
X64357143Y-95869771D02*
X64585714Y-95869771D01*
X64585714Y-95869771D02*
X64642857Y-95898342D01*
X64642857Y-95898342D02*
X64671428Y-95926914D01*
X64671428Y-95926914D02*
X64700000Y-95984057D01*
X64700000Y-95984057D02*
X64700000Y-96069771D01*
X64700000Y-96069771D02*
X64671428Y-96126914D01*
X64671428Y-96126914D02*
X64642857Y-96155485D01*
X64642857Y-96155485D02*
X64585714Y-96184057D01*
X64585714Y-96184057D02*
X64357143Y-96184057D01*
X65042857Y-96126914D02*
X64985714Y-96098342D01*
X64985714Y-96098342D02*
X64957143Y-96069771D01*
X64957143Y-96069771D02*
X64928571Y-96012628D01*
X64928571Y-96012628D02*
X64928571Y-95984057D01*
X64928571Y-95984057D02*
X64957143Y-95926914D01*
X64957143Y-95926914D02*
X64985714Y-95898342D01*
X64985714Y-95898342D02*
X65042857Y-95869771D01*
X65042857Y-95869771D02*
X65157143Y-95869771D01*
X65157143Y-95869771D02*
X65214286Y-95898342D01*
X65214286Y-95898342D02*
X65242857Y-95926914D01*
X65242857Y-95926914D02*
X65271428Y-95984057D01*
X65271428Y-95984057D02*
X65271428Y-96012628D01*
X65271428Y-96012628D02*
X65242857Y-96069771D01*
X65242857Y-96069771D02*
X65214286Y-96098342D01*
X65214286Y-96098342D02*
X65157143Y-96126914D01*
X65157143Y-96126914D02*
X65042857Y-96126914D01*
X65042857Y-96126914D02*
X64985714Y-96155485D01*
X64985714Y-96155485D02*
X64957143Y-96184057D01*
X64957143Y-96184057D02*
X64928571Y-96241200D01*
X64928571Y-96241200D02*
X64928571Y-96355485D01*
X64928571Y-96355485D02*
X64957143Y-96412628D01*
X64957143Y-96412628D02*
X64985714Y-96441200D01*
X64985714Y-96441200D02*
X65042857Y-96469771D01*
X65042857Y-96469771D02*
X65157143Y-96469771D01*
X65157143Y-96469771D02*
X65214286Y-96441200D01*
X65214286Y-96441200D02*
X65242857Y-96412628D01*
X65242857Y-96412628D02*
X65271428Y-96355485D01*
X65271428Y-96355485D02*
X65271428Y-96241200D01*
X65271428Y-96241200D02*
X65242857Y-96184057D01*
X65242857Y-96184057D02*
X65214286Y-96155485D01*
X65214286Y-96155485D02*
X65157143Y-96126914D01*
X100590476Y-110162295D02*
X101047619Y-110162295D01*
X100819047Y-110962295D02*
X100819047Y-110162295D01*
X101314286Y-110962295D02*
X101314286Y-110162295D01*
X101314286Y-110162295D02*
X101619048Y-110162295D01*
X101619048Y-110162295D02*
X101695238Y-110200390D01*
X101695238Y-110200390D02*
X101733333Y-110238485D01*
X101733333Y-110238485D02*
X101771429Y-110314676D01*
X101771429Y-110314676D02*
X101771429Y-110428961D01*
X101771429Y-110428961D02*
X101733333Y-110505152D01*
X101733333Y-110505152D02*
X101695238Y-110543247D01*
X101695238Y-110543247D02*
X101619048Y-110581342D01*
X101619048Y-110581342D02*
X101314286Y-110581342D01*
X102152381Y-110962295D02*
X102304762Y-110962295D01*
X102304762Y-110962295D02*
X102380952Y-110924200D01*
X102380952Y-110924200D02*
X102419048Y-110886104D01*
X102419048Y-110886104D02*
X102495238Y-110771819D01*
X102495238Y-110771819D02*
X102533333Y-110619438D01*
X102533333Y-110619438D02*
X102533333Y-110314676D01*
X102533333Y-110314676D02*
X102495238Y-110238485D01*
X102495238Y-110238485D02*
X102457143Y-110200390D01*
X102457143Y-110200390D02*
X102380952Y-110162295D01*
X102380952Y-110162295D02*
X102228571Y-110162295D01*
X102228571Y-110162295D02*
X102152381Y-110200390D01*
X102152381Y-110200390D02*
X102114286Y-110238485D01*
X102114286Y-110238485D02*
X102076190Y-110314676D01*
X102076190Y-110314676D02*
X102076190Y-110505152D01*
X102076190Y-110505152D02*
X102114286Y-110581342D01*
X102114286Y-110581342D02*
X102152381Y-110619438D01*
X102152381Y-110619438D02*
X102228571Y-110657533D01*
X102228571Y-110657533D02*
X102380952Y-110657533D01*
X102380952Y-110657533D02*
X102457143Y-110619438D01*
X102457143Y-110619438D02*
X102495238Y-110581342D01*
X102495238Y-110581342D02*
X102533333Y-110505152D01*
X115209523Y-106562295D02*
X115666666Y-106562295D01*
X115438094Y-107362295D02*
X115438094Y-106562295D01*
X115933333Y-107362295D02*
X115933333Y-106562295D01*
X115933333Y-106562295D02*
X116238095Y-106562295D01*
X116238095Y-106562295D02*
X116314285Y-106600390D01*
X116314285Y-106600390D02*
X116352380Y-106638485D01*
X116352380Y-106638485D02*
X116390476Y-106714676D01*
X116390476Y-106714676D02*
X116390476Y-106828961D01*
X116390476Y-106828961D02*
X116352380Y-106905152D01*
X116352380Y-106905152D02*
X116314285Y-106943247D01*
X116314285Y-106943247D02*
X116238095Y-106981342D01*
X116238095Y-106981342D02*
X115933333Y-106981342D01*
X117152380Y-107362295D02*
X116695237Y-107362295D01*
X116923809Y-107362295D02*
X116923809Y-106562295D01*
X116923809Y-106562295D02*
X116847618Y-106676580D01*
X116847618Y-106676580D02*
X116771428Y-106752771D01*
X116771428Y-106752771D02*
X116695237Y-106790866D01*
X117647619Y-106562295D02*
X117723809Y-106562295D01*
X117723809Y-106562295D02*
X117800000Y-106600390D01*
X117800000Y-106600390D02*
X117838095Y-106638485D01*
X117838095Y-106638485D02*
X117876190Y-106714676D01*
X117876190Y-106714676D02*
X117914285Y-106867057D01*
X117914285Y-106867057D02*
X117914285Y-107057533D01*
X117914285Y-107057533D02*
X117876190Y-107209914D01*
X117876190Y-107209914D02*
X117838095Y-107286104D01*
X117838095Y-107286104D02*
X117800000Y-107324200D01*
X117800000Y-107324200D02*
X117723809Y-107362295D01*
X117723809Y-107362295D02*
X117647619Y-107362295D01*
X117647619Y-107362295D02*
X117571428Y-107324200D01*
X117571428Y-107324200D02*
X117533333Y-107286104D01*
X117533333Y-107286104D02*
X117495238Y-107209914D01*
X117495238Y-107209914D02*
X117457142Y-107057533D01*
X117457142Y-107057533D02*
X117457142Y-106867057D01*
X117457142Y-106867057D02*
X117495238Y-106714676D01*
X117495238Y-106714676D02*
X117533333Y-106638485D01*
X117533333Y-106638485D02*
X117571428Y-106600390D01*
X117571428Y-106600390D02*
X117647619Y-106562295D01*
X77700000Y-98769771D02*
X77500000Y-98484057D01*
X77357143Y-98769771D02*
X77357143Y-98169771D01*
X77357143Y-98169771D02*
X77585714Y-98169771D01*
X77585714Y-98169771D02*
X77642857Y-98198342D01*
X77642857Y-98198342D02*
X77671428Y-98226914D01*
X77671428Y-98226914D02*
X77700000Y-98284057D01*
X77700000Y-98284057D02*
X77700000Y-98369771D01*
X77700000Y-98369771D02*
X77671428Y-98426914D01*
X77671428Y-98426914D02*
X77642857Y-98455485D01*
X77642857Y-98455485D02*
X77585714Y-98484057D01*
X77585714Y-98484057D02*
X77357143Y-98484057D01*
X77928571Y-98226914D02*
X77957143Y-98198342D01*
X77957143Y-98198342D02*
X78014286Y-98169771D01*
X78014286Y-98169771D02*
X78157143Y-98169771D01*
X78157143Y-98169771D02*
X78214286Y-98198342D01*
X78214286Y-98198342D02*
X78242857Y-98226914D01*
X78242857Y-98226914D02*
X78271428Y-98284057D01*
X78271428Y-98284057D02*
X78271428Y-98341200D01*
X78271428Y-98341200D02*
X78242857Y-98426914D01*
X78242857Y-98426914D02*
X77900000Y-98769771D01*
X77900000Y-98769771D02*
X78271428Y-98769771D01*
X72714285Y-75212628D02*
X72685713Y-75241200D01*
X72685713Y-75241200D02*
X72599999Y-75269771D01*
X72599999Y-75269771D02*
X72542856Y-75269771D01*
X72542856Y-75269771D02*
X72457142Y-75241200D01*
X72457142Y-75241200D02*
X72399999Y-75184057D01*
X72399999Y-75184057D02*
X72371428Y-75126914D01*
X72371428Y-75126914D02*
X72342856Y-75012628D01*
X72342856Y-75012628D02*
X72342856Y-74926914D01*
X72342856Y-74926914D02*
X72371428Y-74812628D01*
X72371428Y-74812628D02*
X72399999Y-74755485D01*
X72399999Y-74755485D02*
X72457142Y-74698342D01*
X72457142Y-74698342D02*
X72542856Y-74669771D01*
X72542856Y-74669771D02*
X72599999Y-74669771D01*
X72599999Y-74669771D02*
X72685713Y-74698342D01*
X72685713Y-74698342D02*
X72714285Y-74726914D01*
X73285713Y-75269771D02*
X72942856Y-75269771D01*
X73114285Y-75269771D02*
X73114285Y-74669771D01*
X73114285Y-74669771D02*
X73057142Y-74755485D01*
X73057142Y-74755485D02*
X72999999Y-74812628D01*
X72999999Y-74812628D02*
X72942856Y-74841200D01*
X73514285Y-74726914D02*
X73542857Y-74698342D01*
X73542857Y-74698342D02*
X73600000Y-74669771D01*
X73600000Y-74669771D02*
X73742857Y-74669771D01*
X73742857Y-74669771D02*
X73800000Y-74698342D01*
X73800000Y-74698342D02*
X73828571Y-74726914D01*
X73828571Y-74726914D02*
X73857142Y-74784057D01*
X73857142Y-74784057D02*
X73857142Y-74841200D01*
X73857142Y-74841200D02*
X73828571Y-74926914D01*
X73828571Y-74926914D02*
X73485714Y-75269771D01*
X73485714Y-75269771D02*
X73857142Y-75269771D01*
X73300000Y-78612628D02*
X73271428Y-78641200D01*
X73271428Y-78641200D02*
X73185714Y-78669771D01*
X73185714Y-78669771D02*
X73128571Y-78669771D01*
X73128571Y-78669771D02*
X73042857Y-78641200D01*
X73042857Y-78641200D02*
X72985714Y-78584057D01*
X72985714Y-78584057D02*
X72957143Y-78526914D01*
X72957143Y-78526914D02*
X72928571Y-78412628D01*
X72928571Y-78412628D02*
X72928571Y-78326914D01*
X72928571Y-78326914D02*
X72957143Y-78212628D01*
X72957143Y-78212628D02*
X72985714Y-78155485D01*
X72985714Y-78155485D02*
X73042857Y-78098342D01*
X73042857Y-78098342D02*
X73128571Y-78069771D01*
X73128571Y-78069771D02*
X73185714Y-78069771D01*
X73185714Y-78069771D02*
X73271428Y-78098342D01*
X73271428Y-78098342D02*
X73300000Y-78126914D01*
X73814286Y-78069771D02*
X73700000Y-78069771D01*
X73700000Y-78069771D02*
X73642857Y-78098342D01*
X73642857Y-78098342D02*
X73614286Y-78126914D01*
X73614286Y-78126914D02*
X73557143Y-78212628D01*
X73557143Y-78212628D02*
X73528571Y-78326914D01*
X73528571Y-78326914D02*
X73528571Y-78555485D01*
X73528571Y-78555485D02*
X73557143Y-78612628D01*
X73557143Y-78612628D02*
X73585714Y-78641200D01*
X73585714Y-78641200D02*
X73642857Y-78669771D01*
X73642857Y-78669771D02*
X73757143Y-78669771D01*
X73757143Y-78669771D02*
X73814286Y-78641200D01*
X73814286Y-78641200D02*
X73842857Y-78612628D01*
X73842857Y-78612628D02*
X73871428Y-78555485D01*
X73871428Y-78555485D02*
X73871428Y-78412628D01*
X73871428Y-78412628D02*
X73842857Y-78355485D01*
X73842857Y-78355485D02*
X73814286Y-78326914D01*
X73814286Y-78326914D02*
X73757143Y-78298342D01*
X73757143Y-78298342D02*
X73642857Y-78298342D01*
X73642857Y-78298342D02*
X73585714Y-78326914D01*
X73585714Y-78326914D02*
X73557143Y-78355485D01*
X73557143Y-78355485D02*
X73528571Y-78412628D01*
D13*
%TO.C,C5*%
X74040000Y-95892164D02*
X74040000Y-96107836D01*
X74760000Y-95892164D02*
X74760000Y-96107836D01*
%TO.C,R12*%
X68477500Y-102362742D02*
X68477500Y-102837258D01*
X69522500Y-102362742D02*
X69522500Y-102837258D01*
%TO.C,TP5*%
X108200000Y-91600000D02*
G75*
G02*
X105400000Y-91600000I-1400000J0D01*
G01*
X105400000Y-91600000D02*
G75*
G02*
X108200000Y-91600000I1400000J0D01*
G01*
%TO.C,R1*%
X77220000Y-91153641D02*
X77220000Y-90846359D01*
X77980000Y-91153641D02*
X77980000Y-90846359D01*
%TO.C,R9*%
X93072936Y-99640000D02*
X96127064Y-99640000D01*
X93072936Y-102360000D02*
X96127064Y-102360000D01*
%TO.C,R10*%
X116090000Y-97727064D02*
X116090000Y-93372936D01*
X119510000Y-97727064D02*
X119510000Y-93372936D01*
%TO.C,TP3*%
X81200000Y-84900000D02*
G75*
G02*
X78400000Y-84900000I-1400000J0D01*
G01*
X78400000Y-84900000D02*
G75*
G02*
X81200000Y-84900000I1400000J0D01*
G01*
%TO.C,TP4*%
X76900000Y-93400000D02*
G75*
G02*
X74100000Y-93400000I-1400000J0D01*
G01*
X74100000Y-93400000D02*
G75*
G02*
X76900000Y-93400000I1400000J0D01*
G01*
%TO.C,C1*%
X72292164Y-100040000D02*
X72507836Y-100040000D01*
X72292164Y-100760000D02*
X72507836Y-100760000D01*
%TO.C,TP13*%
X87600000Y-104600000D02*
G75*
G02*
X84800000Y-104600000I-1400000J0D01*
G01*
X84800000Y-104600000D02*
G75*
G02*
X87600000Y-104600000I1400000J0D01*
G01*
%TO.C,U1*%
X68990000Y-94190000D02*
X72210000Y-94190000D01*
X68990000Y-94365000D02*
X68990000Y-94190000D01*
X68990000Y-97410000D02*
X68990000Y-97235000D01*
X72210000Y-94190000D02*
X72210000Y-94365000D01*
X72210000Y-97235000D02*
X72210000Y-97410000D01*
X72210000Y-97410000D02*
X68990000Y-97410000D01*
X73000000Y-97570000D02*
X72520000Y-97570000D01*
X72760000Y-97240000D01*
X73000000Y-97570000D01*
G36*
X73000000Y-97570000D02*
G01*
X72520000Y-97570000D01*
X72760000Y-97240000D01*
X73000000Y-97570000D01*
G37*
%TO.C,C9*%
X66507836Y-96840000D02*
X66292164Y-96840000D01*
X66507836Y-97560000D02*
X66292164Y-97560000D01*
%TO.C,D3*%
X76310000Y-84140000D02*
X75040000Y-84140000D01*
X76600000Y-88660000D02*
X75040000Y-88660000D01*
X76600000Y-88660000D02*
X76600000Y-88420000D01*
X76910000Y-84400000D02*
X76630000Y-84400000D01*
X76630000Y-84120000D01*
X76910000Y-84400000D01*
G36*
X76910000Y-84400000D02*
G01*
X76630000Y-84400000D01*
X76630000Y-84120000D01*
X76910000Y-84400000D01*
G37*
%TO.C,TP12*%
X71500000Y-92200000D02*
G75*
G02*
X68700000Y-92200000I-1400000J0D01*
G01*
X68700000Y-92200000D02*
G75*
G02*
X71500000Y-92200000I1400000J0D01*
G01*
D14*
%TO.C,Q1*%
X78478250Y-90101000D02*
X78478500Y-90223000D01*
X78478500Y-92773000D02*
X78478500Y-93057500D01*
X79405500Y-93150250D02*
X79607250Y-93150250D01*
X79421420Y-89836830D02*
X79623170Y-89836830D01*
X82776670Y-89836830D02*
X82978420Y-89836830D01*
X82776670Y-93163330D02*
X82978420Y-93163330D01*
X83945500Y-92802500D02*
X83945750Y-93146000D01*
X83945750Y-89833250D02*
X83945750Y-90193500D01*
D15*
X78457030Y-89809500D02*
G75*
G02*
X78444970Y-89809500I-6030J0D01*
G01*
X78444970Y-89809500D02*
G75*
G02*
X78457030Y-89809500I6030J0D01*
G01*
D13*
%TO.C,TP11*%
X67600000Y-101800000D02*
G75*
G02*
X64800000Y-101800000I-1400000J0D01*
G01*
X64800000Y-101800000D02*
G75*
G02*
X67600000Y-101800000I1400000J0D01*
G01*
%TO.C,R4*%
X70246359Y-99020000D02*
X70553641Y-99020000D01*
X70246359Y-99780000D02*
X70553641Y-99780000D01*
%TO.C,TP16*%
X63900000Y-100300000D02*
G75*
G02*
X61100000Y-100300000I-1400000J0D01*
G01*
X61100000Y-100300000D02*
G75*
G02*
X63900000Y-100300000I1400000J0D01*
G01*
%TO.C,C3*%
X118390000Y-89165748D02*
X118390000Y-86334252D01*
X123610000Y-89165748D02*
X123610000Y-86334252D01*
%TO.C,TP6*%
X123600000Y-80600000D02*
G75*
G02*
X120800000Y-80600000I-1400000J0D01*
G01*
X120800000Y-80600000D02*
G75*
G02*
X123600000Y-80600000I1400000J0D01*
G01*
%TO.C,R15*%
X64477500Y-91362742D02*
X64477500Y-91837258D01*
X65522500Y-91362742D02*
X65522500Y-91837258D01*
%TO.C,R11*%
X71637258Y-101277500D02*
X71162742Y-101277500D01*
X71637258Y-102322500D02*
X71162742Y-102322500D01*
%TO.C,R5*%
X68065000Y-80372936D02*
X68065000Y-80827064D01*
X69535000Y-80372936D02*
X69535000Y-80827064D01*
%TO.C,C11*%
X75340000Y-72911252D02*
X75340000Y-71488748D01*
X78060000Y-72911252D02*
X78060000Y-71488748D01*
%TO.C,TP7*%
X108700000Y-78000000D02*
G75*
G02*
X105900000Y-78000000I-1400000J0D01*
G01*
X105900000Y-78000000D02*
G75*
G02*
X108700000Y-78000000I1400000J0D01*
G01*
%TO.C,C7*%
X106090000Y-104859420D02*
X106090000Y-105140580D01*
X107110000Y-104859420D02*
X107110000Y-105140580D01*
%TO.C,U3*%
X91945000Y-103005000D02*
X91945000Y-108205000D01*
X91945000Y-108205000D02*
X93595000Y-108205000D01*
X95595000Y-108205000D02*
X97245000Y-108205000D01*
X97245000Y-103005000D02*
X91945000Y-103005000D01*
X97245000Y-108205000D02*
X97245000Y-103005000D01*
X93595000Y-108205000D02*
G75*
G02*
X95595000Y-108205000I1000000J0D01*
G01*
%TO.C,TP14*%
X87600000Y-108200000D02*
G75*
G02*
X84800000Y-108200000I-1400000J0D01*
G01*
X84800000Y-108200000D02*
G75*
G02*
X87600000Y-108200000I1400000J0D01*
G01*
%TO.C,D2*%
X104040000Y-107840000D02*
X105040000Y-107840000D01*
X104040000Y-109360000D02*
X104040000Y-107840000D01*
X104090000Y-109360000D02*
X104040000Y-109360000D01*
X105990000Y-109360000D02*
X105210000Y-109360000D01*
X106160000Y-107840000D02*
X107160000Y-107840000D01*
X107160000Y-107840000D02*
X107160000Y-109360000D01*
X107160000Y-109360000D02*
X107110000Y-109360000D01*
X105550000Y-110140000D02*
X105220000Y-109900000D01*
X105550000Y-109660000D01*
X105550000Y-110140000D01*
G36*
X105550000Y-110140000D02*
G01*
X105220000Y-109900000D01*
X105550000Y-109660000D01*
X105550000Y-110140000D01*
G37*
%TO.C,C2*%
X72507836Y-97840000D02*
X72292164Y-97840000D01*
X72507836Y-98560000D02*
X72292164Y-98560000D01*
%TO.C,R6*%
X107677500Y-107562742D02*
X107677500Y-108037258D01*
X108722500Y-107562742D02*
X108722500Y-108037258D01*
%TO.C,R7*%
X112090000Y-93372936D02*
X112090000Y-97727064D01*
X115510000Y-93372936D02*
X115510000Y-97727064D01*
%TO.C,R13*%
X70065000Y-80372936D02*
X70065000Y-80827064D01*
X71535000Y-80372936D02*
X71535000Y-80827064D01*
%TO.C,TP8*%
X103000000Y-104700000D02*
G75*
G02*
X100200000Y-104700000I-1400000J0D01*
G01*
X100200000Y-104700000D02*
G75*
G02*
X103000000Y-104700000I1400000J0D01*
G01*
%TO.C,TP1*%
X69400000Y-84000000D02*
G75*
G02*
X66600000Y-84000000I-1400000J0D01*
G01*
X66600000Y-84000000D02*
G75*
G02*
X69400000Y-84000000I1400000J0D01*
G01*
%TO.C,C8*%
X88290000Y-105434420D02*
X88290000Y-105715580D01*
X89310000Y-105434420D02*
X89310000Y-105715580D01*
%TO.C,R14*%
X65837258Y-94277500D02*
X65362742Y-94277500D01*
X65837258Y-95322500D02*
X65362742Y-95322500D01*
%TO.C,R3*%
X72246359Y-99020000D02*
X72553641Y-99020000D01*
X72246359Y-99780000D02*
X72553641Y-99780000D01*
%TO.C,TP2*%
X81600000Y-78000000D02*
G75*
G02*
X78800000Y-78000000I-1400000J0D01*
G01*
X78800000Y-78000000D02*
G75*
G02*
X81600000Y-78000000I1400000J0D01*
G01*
%TO.C,C4*%
X112190000Y-89165748D02*
X112190000Y-86334252D01*
X117410000Y-89165748D02*
X117410000Y-86334252D01*
D10*
%TO.C,T1*%
X81700000Y-80100000D02*
X85200000Y-80100000D01*
X81700000Y-88900000D02*
X81700000Y-80100000D01*
X81700000Y-88900000D02*
X85200000Y-88900000D01*
X109500000Y-80100000D02*
X106000000Y-80100000D01*
X109500000Y-88900000D02*
X106000000Y-88900000D01*
X109500000Y-88900000D02*
X109500000Y-80100000D01*
D16*
X82600000Y-80800000D02*
G75*
G02*
X82200000Y-80800000I-200000J0D01*
G01*
X82200000Y-80800000D02*
G75*
G02*
X82600000Y-80800000I200000J0D01*
G01*
X109000000Y-80800000D02*
G75*
G02*
X108600000Y-80800000I-200000J0D01*
G01*
X108600000Y-80800000D02*
G75*
G02*
X109000000Y-80800000I200000J0D01*
G01*
D13*
%TO.C,D1*%
X110650000Y-74677500D02*
X117070000Y-74677500D01*
X110650000Y-81577500D02*
X117070000Y-81577500D01*
X117070000Y-74677500D02*
X117070000Y-74947500D01*
X117070000Y-81577500D02*
X117070000Y-81307500D01*
X119140000Y-81737500D02*
X118460000Y-81737500D01*
X118800000Y-81267500D01*
X119140000Y-81737500D01*
G36*
X119140000Y-81737500D02*
G01*
X118460000Y-81737500D01*
X118800000Y-81267500D01*
X119140000Y-81737500D01*
G37*
%TO.C,C10*%
X75240000Y-80488748D02*
X75240000Y-81911252D01*
X77960000Y-80488748D02*
X77960000Y-81911252D01*
%TO.C,U2*%
X108713248Y-103840000D02*
X110047500Y-103840000D01*
X110047500Y-106060000D02*
X108577500Y-106060000D01*
X108422500Y-103830000D02*
X108282500Y-103640000D01*
X108562500Y-103640000D01*
X108422500Y-103830000D01*
G36*
X108422500Y-103830000D02*
G01*
X108282500Y-103640000D01*
X108562500Y-103640000D01*
X108422500Y-103830000D01*
G37*
%TO.C,R8*%
X66553641Y-95820000D02*
X66246359Y-95820000D01*
X66553641Y-96580000D02*
X66246359Y-96580000D01*
%TO.C,TP9*%
X103000000Y-108200000D02*
G75*
G02*
X100200000Y-108200000I-1400000J0D01*
G01*
X100200000Y-108200000D02*
G75*
G02*
X103000000Y-108200000I1400000J0D01*
G01*
%TO.C,TP10*%
X114800000Y-107000000D02*
G75*
G02*
X112000000Y-107000000I-1400000J0D01*
G01*
X112000000Y-107000000D02*
G75*
G02*
X114800000Y-107000000I1400000J0D01*
G01*
%TO.C,R2*%
X78340000Y-95297936D02*
X78340000Y-96302064D01*
X84860000Y-95297936D02*
X84860000Y-96302064D01*
%TO.C,C12*%
X71640000Y-72911252D02*
X71640000Y-71488748D01*
X74360000Y-72911252D02*
X74360000Y-71488748D01*
%TO.C,C6*%
X72040000Y-80488748D02*
X72040000Y-81911252D01*
X74760000Y-80488748D02*
X74760000Y-81911252D01*
%TD*%
M02*
