%TF.GenerationSoftware,KiCad,Pcbnew,9.0.6*%
%TF.CreationDate,2026-04-07T18:45:19-04:00*%
%TF.ProjectId,lm5022-flyback,6c6d3530-3232-42d6-966c-796261636b2e,rev?*%
%TF.SameCoordinates,Original*%
%TF.FileFunction,Copper,L2,Bot*%
%TF.FilePolarity,Positive*%
%FSLAX46Y46*%
G04 Gerber Fmt 4.6, Leading zero omitted, Abs format (unit mm)*
G04 Created by KiCad (PCBNEW 9.0.6) date 2026-04-07 18:45:19*
%MOMM*%
%LPD*%
G01*
G04 APERTURE LIST*
G04 Aperture macros list*
%AMRoundRect*
0 Rectangle with rounded corners*
0 $1 Rounding radius*
0 $2 $3 $4 $5 $6 $7 $8 $9 X,Y pos of 4 corners*
0 Add a 4 corners polygon primitive as box body*
4,1,4,$2,$3,$4,$5,$6,$7,$8,$9,$2,$3,0*
0 Add four circle primitives for the rounded corners*
1,1,$1+$1,$2,$3*
1,1,$1+$1,$4,$5*
1,1,$1+$1,$6,$7*
1,1,$1+$1,$8,$9*
0 Add four rect primitives between the rounded corners*
20,1,$1+$1,$2,$3,$4,$5,0*
20,1,$1+$1,$4,$5,$6,$7,0*
20,1,$1+$1,$6,$7,$8,$9,0*
20,1,$1+$1,$8,$9,$2,$3,0*%
G04 Aperture macros list end*
%TA.AperFunction,SMDPad,CuDef*%
%ADD10RoundRect,0.225000X-0.250000X0.225000X-0.250000X-0.225000X0.250000X-0.225000X0.250000X0.225000X0*%
%TD*%
%TA.AperFunction,SMDPad,CuDef*%
%ADD11RoundRect,0.600000X-2.400000X-1.400000X2.400000X-1.400000X2.400000X1.400000X-2.400000X1.400000X0*%
%TD*%
%TA.AperFunction,ComponentPad*%
%ADD12C,2.000000*%
%TD*%
%TA.AperFunction,ComponentPad*%
%ADD13RoundRect,0.250000X0.550000X0.550000X-0.550000X0.550000X-0.550000X-0.550000X0.550000X-0.550000X0*%
%TD*%
%TA.AperFunction,ComponentPad*%
%ADD14C,1.600000*%
%TD*%
%TA.AperFunction,ComponentPad*%
%ADD15RoundRect,0.255000X-0.595000X-0.595000X0.595000X-0.595000X0.595000X0.595000X-0.595000X0.595000X0*%
%TD*%
%TA.AperFunction,SMDPad,CuDef*%
%ADD16RoundRect,0.200000X-0.275000X0.200000X-0.275000X-0.200000X0.275000X-0.200000X0.275000X0.200000X0*%
%TD*%
%TA.AperFunction,ViaPad*%
%ADD17C,0.600000*%
%TD*%
%TA.AperFunction,ViaPad*%
%ADD18C,0.500000*%
%TD*%
%TA.AperFunction,Conductor*%
%ADD19C,0.500000*%
%TD*%
%TA.AperFunction,Conductor*%
%ADD20C,0.300000*%
%TD*%
G04 APERTURE END LIST*
D10*
%TO.P,C13,2*%
%TO.N,/VS*%
X77400000Y-94175000D03*
%TO.P,C13,1*%
%TO.N,Net-(C13-Pad1)*%
X77400000Y-92625000D03*
%TD*%
D11*
%TO.P,H4,1,1*%
%TO.N,GND*%
X54100000Y-84000000D03*
%TD*%
%TO.P,H3,1,1*%
%TO.N,+BATT*%
X54100000Y-75000000D03*
%TD*%
D12*
%TO.P,TP5,1,1*%
%TO.N,HVGND*%
X106800000Y-91600000D03*
%TD*%
%TO.P,TP3,1,1*%
%TO.N,/VD*%
X79800000Y-84900000D03*
%TD*%
%TO.P,TP4,1,1*%
%TO.N,Net-(U1-OUT)*%
X75500000Y-93400000D03*
%TD*%
%TO.P,TP13,1,1*%
%TO.N,Net-(C8-Pad1)*%
X86200000Y-104600000D03*
%TD*%
%TO.P,TP12,1,1*%
%TO.N,Net-(U1-CS)*%
X70100000Y-92200000D03*
%TD*%
D11*
%TO.P,H1,1,1*%
%TO.N,HVGND*%
X129500000Y-91500000D03*
%TD*%
D12*
%TO.P,TP11,1,1*%
%TO.N,/FB*%
X66200000Y-101800000D03*
%TD*%
%TO.P,TP16,1,1*%
%TO.N,GND*%
X62500000Y-100300000D03*
%TD*%
%TO.P,TP6,1,1*%
%TO.N,-400V*%
X122200000Y-80600000D03*
%TD*%
%TO.P,TP7,1,1*%
%TO.N,Net-(D1-K)*%
X107300000Y-78000000D03*
%TD*%
D13*
%TO.P,U3,1*%
%TO.N,Net-(D2-K)*%
X98405000Y-106875000D03*
D14*
%TO.P,U3,2*%
%TO.N,Net-(U2-K)*%
X98405000Y-104335000D03*
%TO.P,U3,3*%
%TO.N,Net-(C8-Pad1)*%
X90785000Y-104335000D03*
%TO.P,U3,4*%
%TO.N,+6V*%
X90785000Y-106875000D03*
%TD*%
D12*
%TO.P,TP14,1,1*%
%TO.N,+6V*%
X86200000Y-108200000D03*
%TD*%
D11*
%TO.P,H2,1,1*%
%TO.N,-400V*%
X129500000Y-81500000D03*
%TD*%
D12*
%TO.P,TP8,1,1*%
%TO.N,Net-(U2-K)*%
X101600000Y-104700000D03*
%TD*%
%TO.P,TP1,1,1*%
%TO.N,/VSN*%
X68000000Y-84000000D03*
%TD*%
%TO.P,TP2,1,1*%
%TO.N,+BATT*%
X80200000Y-78000000D03*
%TD*%
D15*
%TO.P,T1,1,AA*%
%TO.N,+BATT*%
X83300000Y-81960000D03*
%TO.P,T1,2,AB*%
%TO.N,/VD*%
X83300000Y-87040000D03*
%TO.P,T1,3,SA*%
%TO.N,HVGND*%
X107900000Y-87040000D03*
%TO.P,T1,4,SB*%
%TO.N,Net-(D1-K)*%
X107900000Y-81960000D03*
%TO.P,T1,5*%
%TO.N,N/C*%
X107900000Y-84500000D03*
%TO.P,T1,6*%
X83300000Y-84500000D03*
%TD*%
D11*
%TO.P,H5,1,1*%
%TO.N,+6V*%
X54100000Y-104400000D03*
%TD*%
D12*
%TO.P,TP9,1,1*%
%TO.N,Net-(D2-K)*%
X101600000Y-108200000D03*
%TD*%
%TO.P,TP10,1,1*%
%TO.N,Net-(U2-REF)*%
X113400000Y-107000000D03*
%TD*%
D16*
%TO.P,R17,1*%
%TO.N,/VD*%
X77400000Y-89475000D03*
%TO.P,R17,2*%
%TO.N,Net-(C13-Pad1)*%
X77400000Y-91125000D03*
%TD*%
D17*
%TO.N,GND*%
X63675000Y-97037090D03*
X76375000Y-109737090D03*
X75800000Y-71600000D03*
X86535000Y-102117090D03*
X65900000Y-98000000D03*
X78700000Y-99000000D03*
X79500000Y-98200000D03*
X61135000Y-84337090D03*
X65400000Y-95600000D03*
X66215000Y-109737090D03*
X61135000Y-71637090D03*
X71920000Y-98200000D03*
X61135000Y-81797090D03*
X83995000Y-109737090D03*
X56055000Y-79257090D03*
X61135000Y-79257090D03*
X61135000Y-94497090D03*
X89075000Y-99577090D03*
X89075000Y-102117090D03*
X83500000Y-99000000D03*
X83500000Y-98200000D03*
X63675000Y-109737090D03*
X72100000Y-71700000D03*
X63675000Y-107197090D03*
X53515000Y-79257090D03*
X61135000Y-107197090D03*
X81100000Y-99000000D03*
X58595000Y-99577090D03*
X63675000Y-91957090D03*
X56055000Y-99577090D03*
X82700000Y-98200000D03*
X56055000Y-97037090D03*
X61135000Y-97037090D03*
X69200000Y-94200000D03*
X53515000Y-94497090D03*
X83995000Y-71637090D03*
X63675000Y-71637090D03*
X76375000Y-99577090D03*
X76700000Y-71600000D03*
X53515000Y-99577090D03*
X68755000Y-107197090D03*
X73835000Y-109737090D03*
X83995000Y-102117090D03*
X58595000Y-102117090D03*
X58595000Y-94497090D03*
X61135000Y-109737090D03*
X56055000Y-71637090D03*
X68755000Y-109737090D03*
X63675000Y-79257090D03*
X58595000Y-91957090D03*
X86535000Y-99577090D03*
X73000000Y-71700000D03*
X63675000Y-81797090D03*
X58595000Y-84337090D03*
X58595000Y-109737090D03*
X71295000Y-109737090D03*
X80300000Y-98200000D03*
X82700000Y-99000000D03*
X70100000Y-103400000D03*
X83995000Y-74177090D03*
X61135000Y-102117090D03*
X66215000Y-71637090D03*
X78915000Y-102117090D03*
X77600000Y-71600000D03*
X53515000Y-91957090D03*
X58595000Y-79257090D03*
X89075000Y-109737090D03*
X71295000Y-107197090D03*
X58595000Y-71637090D03*
X73900000Y-71700000D03*
X79500000Y-99000000D03*
X84300000Y-99000000D03*
X61135000Y-91957090D03*
X58595000Y-97037090D03*
X78915000Y-109737090D03*
X63675000Y-84337090D03*
X80300000Y-99000000D03*
X76375000Y-102117090D03*
X81100000Y-98200000D03*
X78700000Y-98200000D03*
X66215000Y-107197090D03*
X81900000Y-98200000D03*
X84300000Y-98200000D03*
X58595000Y-81797090D03*
X81455000Y-109737090D03*
X53515000Y-109737090D03*
X91615000Y-109737090D03*
X56055000Y-109737090D03*
X56055000Y-94497090D03*
X53515000Y-97037090D03*
X53515000Y-71637090D03*
X68755000Y-71637090D03*
X81455000Y-71637090D03*
X81455000Y-102117090D03*
X81900000Y-99000000D03*
X74400000Y-97100000D03*
X73835000Y-102117090D03*
X56055000Y-91957090D03*
X58595000Y-107197090D03*
%TO.N,+6V*%
X54100000Y-104400000D03*
X70520000Y-98300000D03*
X68300000Y-99000000D03*
%TO.N,HVGND*%
X129500000Y-91500000D03*
D18*
%TO.N,-400V*%
X117300000Y-83300000D03*
D17*
X129500000Y-81500000D03*
D18*
X110100000Y-110100000D03*
X110100000Y-103400000D03*
D17*
%TO.N,+BATT*%
X54100000Y-75000000D03*
D18*
%TO.N,/VD*%
X77400000Y-88700000D03*
%TO.N,/FB*%
X69000000Y-98000000D03*
X70470000Y-97455000D03*
%TO.N,/VS*%
X77400000Y-94175000D03*
%TD*%
D19*
%TO.N,+6V*%
X69800000Y-99000000D02*
X68300000Y-99000000D01*
X70520000Y-98300000D02*
X70500000Y-98300000D01*
X70500000Y-98300000D02*
X69800000Y-99000000D01*
%TO.N,-400V*%
X110100000Y-90500000D02*
X110100000Y-103400000D01*
X110100000Y-110100000D02*
X110100000Y-103400000D01*
X117300000Y-83300000D02*
X110100000Y-90500000D01*
%TO.N,/VD*%
X77400000Y-89475000D02*
X77400000Y-88700000D01*
D20*
%TO.N,/FB*%
X69910000Y-98000000D02*
X69000000Y-98000000D01*
X70455000Y-97455000D02*
X69910000Y-98000000D01*
X70470000Y-97455000D02*
X70455000Y-97455000D01*
D19*
%TO.N,Net-(C13-Pad1)*%
X77400000Y-92625000D02*
X77400000Y-91125000D01*
%TD*%
%TA.AperFunction,Conductor*%
%TO.N,GND*%
G36*
X86343039Y-69219685D02*
G01*
X86388794Y-69272489D01*
X86400000Y-69324000D01*
X86400000Y-71510481D01*
X86380315Y-71577520D01*
X86327511Y-71623275D01*
X86323456Y-71625041D01*
X86311425Y-71630024D01*
X86255024Y-71686425D01*
X86224500Y-71760116D01*
X86224500Y-97239883D01*
X86240431Y-97278343D01*
X86255024Y-97313574D01*
X86311426Y-97369976D01*
X86323453Y-97374957D01*
X86377855Y-97418797D01*
X86399921Y-97485091D01*
X86400000Y-97489518D01*
X86400000Y-98400000D01*
X92876000Y-98400000D01*
X92943039Y-98419685D01*
X92988794Y-98472489D01*
X93000000Y-98524000D01*
X93000000Y-112475500D01*
X92980315Y-112542539D01*
X92927511Y-112588294D01*
X92876000Y-112599500D01*
X51124500Y-112599500D01*
X51057461Y-112579815D01*
X51011706Y-112527011D01*
X51000500Y-112475500D01*
X51000500Y-108081902D01*
X84699500Y-108081902D01*
X84699500Y-108318097D01*
X84736446Y-108551368D01*
X84809433Y-108775996D01*
X84916657Y-108986433D01*
X85055483Y-109177510D01*
X85222490Y-109344517D01*
X85413567Y-109483343D01*
X85512991Y-109534002D01*
X85624003Y-109590566D01*
X85624005Y-109590566D01*
X85624008Y-109590568D01*
X85744412Y-109629689D01*
X85848631Y-109663553D01*
X86081903Y-109700500D01*
X86081908Y-109700500D01*
X86318097Y-109700500D01*
X86551368Y-109663553D01*
X86775992Y-109590568D01*
X86986433Y-109483343D01*
X87177510Y-109344517D01*
X87344517Y-109177510D01*
X87483343Y-108986433D01*
X87590568Y-108775992D01*
X87663553Y-108551368D01*
X87700500Y-108318097D01*
X87700500Y-108081902D01*
X87663553Y-107848631D01*
X87590566Y-107624003D01*
X87483342Y-107413566D01*
X87344517Y-107222490D01*
X87177510Y-107055483D01*
X86986433Y-106916657D01*
X86954723Y-106900500D01*
X86775996Y-106809433D01*
X86551368Y-106736446D01*
X86318097Y-106699500D01*
X86318092Y-106699500D01*
X86081908Y-106699500D01*
X86081903Y-106699500D01*
X85848631Y-106736446D01*
X85624003Y-106809433D01*
X85413566Y-106916657D01*
X85330029Y-106977351D01*
X85222490Y-107055483D01*
X85222488Y-107055485D01*
X85222487Y-107055485D01*
X85055485Y-107222487D01*
X85055485Y-107222488D01*
X85055483Y-107222490D01*
X84995862Y-107304550D01*
X84916657Y-107413566D01*
X84809433Y-107624003D01*
X84736446Y-107848631D01*
X84699500Y-108081902D01*
X51000500Y-108081902D01*
X51000500Y-106885605D01*
X51020185Y-106818566D01*
X51072989Y-106772811D01*
X51142147Y-106762867D01*
X51173308Y-106771615D01*
X51363388Y-106853013D01*
X51363396Y-106853014D01*
X51363397Y-106853015D01*
X51568749Y-106897687D01*
X51568750Y-106897687D01*
X51568755Y-106897688D01*
X51615962Y-106900500D01*
X51615973Y-106900500D01*
X56584027Y-106900500D01*
X56584038Y-106900500D01*
X56631245Y-106897688D01*
X56686790Y-106885605D01*
X56699700Y-106882796D01*
X56836612Y-106853013D01*
X57029813Y-106770279D01*
X57203865Y-106652477D01*
X57352477Y-106503865D01*
X57470279Y-106329813D01*
X57553013Y-106136612D01*
X57597688Y-105931245D01*
X57600500Y-105884038D01*
X57600500Y-104481902D01*
X84699500Y-104481902D01*
X84699500Y-104718097D01*
X84736446Y-104951368D01*
X84809433Y-105175996D01*
X84916657Y-105386433D01*
X85055483Y-105577510D01*
X85222490Y-105744517D01*
X85413567Y-105883343D01*
X85507580Y-105931245D01*
X85624003Y-105990566D01*
X85624005Y-105990566D01*
X85624008Y-105990568D01*
X85738553Y-106027786D01*
X85848631Y-106063553D01*
X86081903Y-106100500D01*
X86081908Y-106100500D01*
X86318097Y-106100500D01*
X86551368Y-106063553D01*
X86775992Y-105990568D01*
X86986433Y-105883343D01*
X87177510Y-105744517D01*
X87344517Y-105577510D01*
X87483343Y-105386433D01*
X87590568Y-105175992D01*
X87663553Y-104951368D01*
X87682107Y-104834223D01*
X87700500Y-104718097D01*
X87700500Y-104481902D01*
X87676697Y-104331626D01*
X87663553Y-104248632D01*
X87658359Y-104232648D01*
X89484500Y-104232648D01*
X89484500Y-104437351D01*
X89516522Y-104639534D01*
X89579781Y-104834223D01*
X89672715Y-105016613D01*
X89793028Y-105182213D01*
X89937786Y-105326971D01*
X90092749Y-105439556D01*
X90103390Y-105447287D01*
X90194840Y-105493883D01*
X90196080Y-105494515D01*
X90246876Y-105542490D01*
X90263671Y-105610311D01*
X90241134Y-105676446D01*
X90196080Y-105715485D01*
X90103386Y-105762715D01*
X89937786Y-105883028D01*
X89793028Y-106027786D01*
X89672715Y-106193386D01*
X89579781Y-106375776D01*
X89516522Y-106570465D01*
X89484500Y-106772648D01*
X89484500Y-106977351D01*
X89516522Y-107179534D01*
X89579781Y-107374223D01*
X89672715Y-107556613D01*
X89793028Y-107722213D01*
X89937786Y-107866971D01*
X90092749Y-107979556D01*
X90103390Y-107987287D01*
X90219607Y-108046503D01*
X90285776Y-108080218D01*
X90285778Y-108080218D01*
X90285781Y-108080220D01*
X90390137Y-108114127D01*
X90480465Y-108143477D01*
X90581557Y-108159488D01*
X90682648Y-108175500D01*
X90682649Y-108175500D01*
X90887351Y-108175500D01*
X90887352Y-108175500D01*
X91089534Y-108143477D01*
X91284219Y-108080220D01*
X91466610Y-107987287D01*
X91559590Y-107919732D01*
X91632213Y-107866971D01*
X91632215Y-107866968D01*
X91632219Y-107866966D01*
X91776966Y-107722219D01*
X91776968Y-107722215D01*
X91776971Y-107722213D01*
X91848320Y-107624008D01*
X91897287Y-107556610D01*
X91990220Y-107374219D01*
X92053477Y-107179534D01*
X92085500Y-106977352D01*
X92085500Y-106772648D01*
X92066467Y-106652478D01*
X92053477Y-106570465D01*
X91990218Y-106375776D01*
X91956503Y-106309607D01*
X91897287Y-106193390D01*
X91889556Y-106182749D01*
X91776971Y-106027786D01*
X91632213Y-105883028D01*
X91466614Y-105762715D01*
X91430898Y-105744517D01*
X91373917Y-105715483D01*
X91323123Y-105667511D01*
X91306328Y-105599690D01*
X91328865Y-105533555D01*
X91373917Y-105494516D01*
X91466610Y-105447287D01*
X91550369Y-105386433D01*
X91632213Y-105326971D01*
X91632215Y-105326968D01*
X91632219Y-105326966D01*
X91776966Y-105182219D01*
X91776968Y-105182215D01*
X91776971Y-105182213D01*
X91829732Y-105109590D01*
X91897287Y-105016610D01*
X91990220Y-104834219D01*
X92053477Y-104639534D01*
X92085500Y-104437352D01*
X92085500Y-104232648D01*
X92053477Y-104030466D01*
X91990220Y-103835781D01*
X91990218Y-103835778D01*
X91990218Y-103835776D01*
X91956503Y-103769607D01*
X91897287Y-103653390D01*
X91874835Y-103622487D01*
X91776971Y-103487786D01*
X91632213Y-103343028D01*
X91466613Y-103222715D01*
X91466612Y-103222714D01*
X91466610Y-103222713D01*
X91403518Y-103190566D01*
X91284223Y-103129781D01*
X91089534Y-103066522D01*
X90914995Y-103038878D01*
X90887352Y-103034500D01*
X90682648Y-103034500D01*
X90658329Y-103038351D01*
X90480465Y-103066522D01*
X90285776Y-103129781D01*
X90103386Y-103222715D01*
X89937786Y-103343028D01*
X89793028Y-103487786D01*
X89672715Y-103653386D01*
X89579781Y-103835776D01*
X89516522Y-104030465D01*
X89484500Y-104232648D01*
X87658359Y-104232648D01*
X87590568Y-104024008D01*
X87590566Y-104024005D01*
X87590566Y-104024003D01*
X87534002Y-103912991D01*
X87483343Y-103813567D01*
X87344517Y-103622490D01*
X87177510Y-103455483D01*
X86986433Y-103316657D01*
X86954723Y-103300500D01*
X86775996Y-103209433D01*
X86551368Y-103136446D01*
X86318097Y-103099500D01*
X86318092Y-103099500D01*
X86081908Y-103099500D01*
X86081903Y-103099500D01*
X85848631Y-103136446D01*
X85624003Y-103209433D01*
X85413566Y-103316657D01*
X85377262Y-103343034D01*
X85222490Y-103455483D01*
X85222488Y-103455485D01*
X85222487Y-103455485D01*
X85055485Y-103622487D01*
X85055485Y-103622488D01*
X85055483Y-103622490D01*
X85033036Y-103653386D01*
X84916657Y-103813566D01*
X84809433Y-104024003D01*
X84736446Y-104248631D01*
X84699500Y-104481902D01*
X57600500Y-104481902D01*
X57600500Y-102915962D01*
X57597688Y-102868755D01*
X57553013Y-102663388D01*
X57470279Y-102470187D01*
X57352477Y-102296135D01*
X57203865Y-102147523D01*
X57029813Y-102029721D01*
X57029811Y-102029720D01*
X57029808Y-102029718D01*
X56836613Y-101946987D01*
X56836602Y-101946984D01*
X56631250Y-101902312D01*
X56616492Y-101901433D01*
X56584038Y-101899500D01*
X51615962Y-101899500D01*
X51585416Y-101901319D01*
X51568749Y-101902312D01*
X51363397Y-101946984D01*
X51363386Y-101946987D01*
X51173313Y-102028382D01*
X51140033Y-102032361D01*
X51106853Y-102037132D01*
X51105458Y-102036495D01*
X51103937Y-102036677D01*
X51073792Y-102022033D01*
X51043297Y-102008107D01*
X51042468Y-102006817D01*
X51041090Y-102006148D01*
X51023647Y-101977530D01*
X51005523Y-101949329D01*
X51005234Y-101947323D01*
X51004725Y-101946487D01*
X51000500Y-101914394D01*
X51000500Y-101681902D01*
X64699500Y-101681902D01*
X64699500Y-101918097D01*
X64736446Y-102151368D01*
X64809433Y-102375996D01*
X64916657Y-102586433D01*
X65055483Y-102777510D01*
X65222490Y-102944517D01*
X65413567Y-103083343D01*
X65504705Y-103129780D01*
X65624003Y-103190566D01*
X65624005Y-103190566D01*
X65624008Y-103190568D01*
X65722940Y-103222713D01*
X65848631Y-103263553D01*
X66081903Y-103300500D01*
X66081908Y-103300500D01*
X66318097Y-103300500D01*
X66551368Y-103263553D01*
X66775992Y-103190568D01*
X66986433Y-103083343D01*
X67177510Y-102944517D01*
X67344517Y-102777510D01*
X67483343Y-102586433D01*
X67590568Y-102375992D01*
X67663553Y-102151368D01*
X67681646Y-102037132D01*
X67700500Y-101918097D01*
X67700500Y-101681902D01*
X67663553Y-101448631D01*
X67590566Y-101224003D01*
X67483342Y-101013566D01*
X67344517Y-100822490D01*
X67177510Y-100655483D01*
X66986433Y-100516657D01*
X66775996Y-100409433D01*
X66551368Y-100336446D01*
X66318097Y-100299500D01*
X66318092Y-100299500D01*
X66081908Y-100299500D01*
X66081903Y-100299500D01*
X65848631Y-100336446D01*
X65624003Y-100409433D01*
X65413566Y-100516657D01*
X65304550Y-100595862D01*
X65222490Y-100655483D01*
X65222488Y-100655485D01*
X65222487Y-100655485D01*
X65055485Y-100822487D01*
X65055485Y-100822488D01*
X65055483Y-100822490D01*
X64995862Y-100904550D01*
X64916657Y-101013566D01*
X64809433Y-101224003D01*
X64736446Y-101448631D01*
X64699500Y-101681902D01*
X51000500Y-101681902D01*
X51000500Y-98921153D01*
X67499500Y-98921153D01*
X67499500Y-99078846D01*
X67530261Y-99233489D01*
X67530264Y-99233501D01*
X67590602Y-99379172D01*
X67590609Y-99379185D01*
X67678210Y-99510288D01*
X67678213Y-99510292D01*
X67789707Y-99621786D01*
X67789711Y-99621789D01*
X67920814Y-99709390D01*
X67920827Y-99709397D01*
X68020060Y-99750500D01*
X68066503Y-99769737D01*
X68221153Y-99800499D01*
X68221156Y-99800500D01*
X68221158Y-99800500D01*
X68378844Y-99800500D01*
X68378845Y-99800499D01*
X68455152Y-99785320D01*
X68533488Y-99769739D01*
X68533489Y-99769738D01*
X68533497Y-99769737D01*
X68557155Y-99759937D01*
X68604604Y-99750500D01*
X69873920Y-99750500D01*
X69971462Y-99731096D01*
X70018913Y-99721658D01*
X70155495Y-99665084D01*
X70220291Y-99621789D01*
X70220294Y-99621786D01*
X70220296Y-99621786D01*
X70249547Y-99602240D01*
X70278416Y-99582952D01*
X70801153Y-99060213D01*
X70841382Y-99033334D01*
X70899179Y-99009394D01*
X71030289Y-98921789D01*
X71141789Y-98810289D01*
X71229394Y-98679179D01*
X71289737Y-98533497D01*
X71320500Y-98378842D01*
X71320500Y-98221158D01*
X71320500Y-98221155D01*
X71320499Y-98221153D01*
X71291212Y-98073918D01*
X71289737Y-98066503D01*
X71289735Y-98066498D01*
X71229397Y-97920827D01*
X71229395Y-97920823D01*
X71229394Y-97920821D01*
X71179787Y-97846579D01*
X71158909Y-97779902D01*
X71168327Y-97730237D01*
X71191658Y-97673913D01*
X71220500Y-97528918D01*
X71220500Y-97381082D01*
X71220500Y-97381079D01*
X71191659Y-97236092D01*
X71191658Y-97236091D01*
X71191658Y-97236087D01*
X71186196Y-97222900D01*
X71135087Y-97099511D01*
X71135080Y-97099498D01*
X71052951Y-96976584D01*
X71052948Y-96976580D01*
X70948419Y-96872051D01*
X70948415Y-96872048D01*
X70825501Y-96789919D01*
X70825488Y-96789912D01*
X70688917Y-96733343D01*
X70688907Y-96733340D01*
X70543920Y-96704500D01*
X70543918Y-96704500D01*
X70396082Y-96704500D01*
X70396080Y-96704500D01*
X70251092Y-96733340D01*
X70251082Y-96733343D01*
X70114511Y-96789912D01*
X70114498Y-96789919D01*
X69991584Y-96872048D01*
X69991580Y-96872051D01*
X69887051Y-96976580D01*
X69887048Y-96976584D01*
X69804919Y-97099498D01*
X69804914Y-97099508D01*
X69753803Y-97222900D01*
X69749171Y-97229831D01*
X69748075Y-97234872D01*
X69726925Y-97263126D01*
X69676874Y-97313179D01*
X69615552Y-97346666D01*
X69589191Y-97349500D01*
X69413840Y-97349500D01*
X69361479Y-97336385D01*
X69361122Y-97337247D01*
X69355495Y-97334916D01*
X69218913Y-97278342D01*
X69218907Y-97278340D01*
X69073920Y-97249500D01*
X69073918Y-97249500D01*
X68926082Y-97249500D01*
X68926080Y-97249500D01*
X68781092Y-97278340D01*
X68781082Y-97278343D01*
X68644511Y-97334912D01*
X68644498Y-97334919D01*
X68521584Y-97417048D01*
X68521580Y-97417051D01*
X68417051Y-97521580D01*
X68417048Y-97521584D01*
X68334919Y-97644498D01*
X68334912Y-97644511D01*
X68278343Y-97781082D01*
X68278340Y-97781092D01*
X68249500Y-97926079D01*
X68249500Y-98073916D01*
X68250071Y-98079717D01*
X68237048Y-98148363D01*
X68188981Y-98199070D01*
X68150860Y-98213482D01*
X68066507Y-98230261D01*
X68066498Y-98230264D01*
X67920827Y-98290602D01*
X67920814Y-98290609D01*
X67789711Y-98378210D01*
X67789707Y-98378213D01*
X67678213Y-98489707D01*
X67678210Y-98489711D01*
X67590609Y-98620814D01*
X67590602Y-98620827D01*
X67530264Y-98766498D01*
X67530261Y-98766510D01*
X67499500Y-98921153D01*
X51000500Y-98921153D01*
X51000500Y-88415486D01*
X51020185Y-88348447D01*
X51072989Y-88302692D01*
X51124500Y-88291486D01*
X65947582Y-88291486D01*
X66014621Y-88311171D01*
X66036523Y-88329083D01*
X68836458Y-91211369D01*
X68869050Y-91273171D01*
X68863057Y-91342783D01*
X68847835Y-91370653D01*
X68816656Y-91413568D01*
X68709433Y-91624003D01*
X68636446Y-91848631D01*
X68599500Y-92081902D01*
X68599500Y-92318097D01*
X68636446Y-92551368D01*
X68709433Y-92775996D01*
X68816657Y-92986433D01*
X68955483Y-93177510D01*
X69122490Y-93344517D01*
X69313567Y-93483343D01*
X69381766Y-93518092D01*
X69524003Y-93590566D01*
X69524005Y-93590566D01*
X69524008Y-93590568D01*
X69644412Y-93629689D01*
X69748631Y-93663553D01*
X69981903Y-93700500D01*
X69981908Y-93700500D01*
X70218097Y-93700500D01*
X70451368Y-93663553D01*
X70675992Y-93590568D01*
X70886433Y-93483343D01*
X71077510Y-93344517D01*
X71244517Y-93177510D01*
X71383343Y-92986433D01*
X71490568Y-92775992D01*
X71563553Y-92551368D01*
X71600500Y-92318097D01*
X71600500Y-92081902D01*
X71577214Y-91934884D01*
X71586168Y-91865591D01*
X71631164Y-91812139D01*
X71697916Y-91791499D01*
X71699687Y-91791486D01*
X72348638Y-91791486D01*
X72415677Y-91811171D01*
X72436319Y-91827805D01*
X73963181Y-93354667D01*
X73996666Y-93415990D01*
X73999500Y-93442348D01*
X73999500Y-93518097D01*
X74036446Y-93751368D01*
X74109433Y-93975996D01*
X74216657Y-94186433D01*
X74355483Y-94377510D01*
X74522490Y-94544517D01*
X74713567Y-94683343D01*
X74732293Y-94692884D01*
X74783089Y-94740856D01*
X74800000Y-94803369D01*
X74800000Y-97791486D01*
X78100000Y-97791486D01*
X78100000Y-95027374D01*
X78119685Y-94960335D01*
X78136319Y-94939693D01*
X78222968Y-94853044D01*
X78312003Y-94708697D01*
X78365349Y-94547708D01*
X78375500Y-94448345D01*
X78375499Y-93901656D01*
X78365349Y-93802292D01*
X78312003Y-93641303D01*
X78311999Y-93641297D01*
X78311998Y-93641294D01*
X78222970Y-93496959D01*
X78222967Y-93496955D01*
X78213693Y-93487681D01*
X78180208Y-93426358D01*
X78185192Y-93356666D01*
X78213693Y-93312319D01*
X78222968Y-93303044D01*
X78312003Y-93158697D01*
X78365349Y-92997708D01*
X78375500Y-92898345D01*
X78375499Y-92351656D01*
X78372070Y-92318092D01*
X78365349Y-92252292D01*
X78365348Y-92252289D01*
X78312003Y-92091303D01*
X78311999Y-92091297D01*
X78311998Y-92091294D01*
X78222970Y-91946959D01*
X78222967Y-91946955D01*
X78221015Y-91945003D01*
X78220103Y-91943333D01*
X78218490Y-91941293D01*
X78218838Y-91941017D01*
X78187530Y-91883680D01*
X78192514Y-91813988D01*
X78221019Y-91769637D01*
X78230472Y-91760185D01*
X78318478Y-91614606D01*
X78369086Y-91452196D01*
X78375500Y-91381616D01*
X78375500Y-90868384D01*
X78369086Y-90797804D01*
X78318478Y-90635394D01*
X78230472Y-90489815D01*
X78230470Y-90489813D01*
X78230469Y-90489811D01*
X78136319Y-90395661D01*
X78121615Y-90368733D01*
X78105023Y-90342915D01*
X78104131Y-90336714D01*
X78102834Y-90334338D01*
X78100000Y-90307980D01*
X78100000Y-90292019D01*
X78119685Y-90224980D01*
X78136314Y-90204342D01*
X78230472Y-90110185D01*
X78318478Y-89964606D01*
X78369086Y-89802196D01*
X78375500Y-89731616D01*
X78375500Y-89218384D01*
X78369086Y-89147804D01*
X78318478Y-88985394D01*
X78230472Y-88839815D01*
X78230470Y-88839813D01*
X78230469Y-88839811D01*
X78186819Y-88796161D01*
X78153334Y-88734838D01*
X78150500Y-88708480D01*
X78150500Y-88626079D01*
X78121659Y-88481092D01*
X78121658Y-88481091D01*
X78121658Y-88481087D01*
X78121656Y-88481082D01*
X78065087Y-88344511D01*
X78065080Y-88344498D01*
X77982951Y-88221584D01*
X77982948Y-88221580D01*
X77878419Y-88117051D01*
X77878415Y-88117048D01*
X77755501Y-88034919D01*
X77755488Y-88034912D01*
X77618917Y-87978343D01*
X77618907Y-87978340D01*
X77473920Y-87949500D01*
X77473918Y-87949500D01*
X77326082Y-87949500D01*
X77326080Y-87949500D01*
X77181092Y-87978340D01*
X77181082Y-87978343D01*
X77049580Y-88032813D01*
X76980111Y-88040282D01*
X76917632Y-88009007D01*
X76914447Y-88005933D01*
X74800000Y-85891486D01*
X51124500Y-85891486D01*
X51057461Y-85871801D01*
X51011706Y-85818997D01*
X51000500Y-85767486D01*
X51000500Y-83881902D01*
X66499500Y-83881902D01*
X66499500Y-84118097D01*
X66536446Y-84351368D01*
X66609433Y-84575996D01*
X66683185Y-84720741D01*
X66716657Y-84786433D01*
X66855483Y-84977510D01*
X67022490Y-85144517D01*
X67213567Y-85283343D01*
X67312991Y-85334002D01*
X67424003Y-85390566D01*
X67424005Y-85390566D01*
X67424008Y-85390568D01*
X67503726Y-85416470D01*
X67648631Y-85463553D01*
X67881903Y-85500500D01*
X67881908Y-85500500D01*
X68118097Y-85500500D01*
X68351368Y-85463553D01*
X68575992Y-85390568D01*
X68786433Y-85283343D01*
X68977510Y-85144517D01*
X69144517Y-84977510D01*
X69283343Y-84786433D01*
X69285652Y-84781902D01*
X78299500Y-84781902D01*
X78299500Y-85018097D01*
X78336446Y-85251368D01*
X78409433Y-85475996D01*
X78514561Y-85682319D01*
X78516657Y-85686433D01*
X78655483Y-85877510D01*
X78822490Y-86044517D01*
X79013567Y-86183343D01*
X79112991Y-86234002D01*
X79224003Y-86290566D01*
X79224005Y-86290566D01*
X79224008Y-86290568D01*
X79344412Y-86329689D01*
X79448631Y-86363553D01*
X79681903Y-86400500D01*
X79681908Y-86400500D01*
X79918097Y-86400500D01*
X80151368Y-86363553D01*
X80375992Y-86290568D01*
X80586433Y-86183343D01*
X80777510Y-86044517D01*
X80944517Y-85877510D01*
X81083343Y-85686433D01*
X81190568Y-85475992D01*
X81263553Y-85251368D01*
X81280347Y-85145336D01*
X81300500Y-85018097D01*
X81300500Y-84781902D01*
X81263553Y-84548631D01*
X81190566Y-84324003D01*
X81085651Y-84118097D01*
X81083343Y-84113567D01*
X80944517Y-83922490D01*
X80777510Y-83755483D01*
X80586433Y-83616657D01*
X80375996Y-83509433D01*
X80151368Y-83436446D01*
X79918097Y-83399500D01*
X79918092Y-83399500D01*
X79681908Y-83399500D01*
X79681903Y-83399500D01*
X79448631Y-83436446D01*
X79224003Y-83509433D01*
X79013566Y-83616657D01*
X78969557Y-83648632D01*
X78822490Y-83755483D01*
X78822488Y-83755485D01*
X78822487Y-83755485D01*
X78655485Y-83922487D01*
X78655485Y-83922488D01*
X78655483Y-83922490D01*
X78595862Y-84004550D01*
X78516657Y-84113566D01*
X78409433Y-84324003D01*
X78336446Y-84548631D01*
X78299500Y-84781902D01*
X69285652Y-84781902D01*
X69390568Y-84575992D01*
X69463553Y-84351368D01*
X69467887Y-84324003D01*
X69500500Y-84118097D01*
X69500500Y-83881902D01*
X69463553Y-83648631D01*
X69418324Y-83509432D01*
X69390568Y-83424008D01*
X69390566Y-83424005D01*
X69390566Y-83424003D01*
X69283342Y-83213566D01*
X69263798Y-83186666D01*
X69144517Y-83022490D01*
X68977510Y-82855483D01*
X68786433Y-82716657D01*
X68771042Y-82708815D01*
X68575996Y-82609433D01*
X68351368Y-82536446D01*
X68118097Y-82499500D01*
X68118092Y-82499500D01*
X67881908Y-82499500D01*
X67881903Y-82499500D01*
X67648631Y-82536446D01*
X67424003Y-82609433D01*
X67213566Y-82716657D01*
X67104550Y-82795862D01*
X67022490Y-82855483D01*
X67022488Y-82855485D01*
X67022487Y-82855485D01*
X66855485Y-83022487D01*
X66855485Y-83022488D01*
X66855483Y-83022490D01*
X66852368Y-83026778D01*
X66716657Y-83213566D01*
X66609433Y-83424003D01*
X66536446Y-83648631D01*
X66499500Y-83881902D01*
X51000500Y-83881902D01*
X51000500Y-81314650D01*
X81949500Y-81314650D01*
X81949500Y-82605349D01*
X81960071Y-82708816D01*
X82015622Y-82876459D01*
X82015627Y-82876470D01*
X82108337Y-83026774D01*
X82108338Y-83026775D01*
X82108340Y-83026778D01*
X82223881Y-83142319D01*
X82257365Y-83203642D01*
X82252381Y-83273334D01*
X82223881Y-83317681D01*
X82108337Y-83433225D01*
X82015627Y-83583529D01*
X82015622Y-83583540D01*
X81960071Y-83751183D01*
X81949500Y-83854650D01*
X81949500Y-85145349D01*
X81960071Y-85248816D01*
X82015622Y-85416459D01*
X82015627Y-85416470D01*
X82108337Y-85566774D01*
X82108338Y-85566775D01*
X82108340Y-85566778D01*
X82223881Y-85682319D01*
X82257365Y-85743642D01*
X82252381Y-85813334D01*
X82223881Y-85857681D01*
X82108337Y-85973225D01*
X82015627Y-86123529D01*
X82015622Y-86123540D01*
X81960071Y-86291183D01*
X81949500Y-86394650D01*
X81949500Y-87685349D01*
X81960071Y-87788816D01*
X82015622Y-87956459D01*
X82015627Y-87956470D01*
X82108337Y-88106774D01*
X82108340Y-88106778D01*
X82233221Y-88231659D01*
X82233225Y-88231662D01*
X82383529Y-88324372D01*
X82383532Y-88324373D01*
X82383538Y-88324377D01*
X82551185Y-88379929D01*
X82654658Y-88390500D01*
X82654663Y-88390500D01*
X83945337Y-88390500D01*
X83945342Y-88390500D01*
X84048815Y-88379929D01*
X84216462Y-88324377D01*
X84366778Y-88231660D01*
X84491660Y-88106778D01*
X84584377Y-87956462D01*
X84639929Y-87788815D01*
X84650500Y-87685342D01*
X84650500Y-86394658D01*
X84639929Y-86291185D01*
X84584377Y-86123538D01*
X84584373Y-86123532D01*
X84584372Y-86123529D01*
X84491662Y-85973225D01*
X84491659Y-85973221D01*
X84376119Y-85857681D01*
X84342634Y-85796358D01*
X84347618Y-85726666D01*
X84376119Y-85682319D01*
X84491660Y-85566778D01*
X84584377Y-85416462D01*
X84639929Y-85248815D01*
X84650500Y-85145342D01*
X84650500Y-83854658D01*
X84639929Y-83751185D01*
X84584377Y-83583538D01*
X84584373Y-83583532D01*
X84584372Y-83583529D01*
X84491662Y-83433225D01*
X84491659Y-83433221D01*
X84376119Y-83317681D01*
X84342634Y-83256358D01*
X84347618Y-83186666D01*
X84376119Y-83142319D01*
X84491660Y-83026778D01*
X84584377Y-82876462D01*
X84639929Y-82708815D01*
X84650500Y-82605342D01*
X84650500Y-81314658D01*
X84639929Y-81211185D01*
X84584377Y-81043538D01*
X84584373Y-81043532D01*
X84584372Y-81043529D01*
X84491662Y-80893225D01*
X84491659Y-80893221D01*
X84366778Y-80768340D01*
X84366774Y-80768337D01*
X84216470Y-80675627D01*
X84216464Y-80675624D01*
X84216462Y-80675623D01*
X84216459Y-80675622D01*
X84048816Y-80620071D01*
X83945349Y-80609500D01*
X83945342Y-80609500D01*
X82654658Y-80609500D01*
X82654650Y-80609500D01*
X82551183Y-80620071D01*
X82383540Y-80675622D01*
X82383529Y-80675627D01*
X82233225Y-80768337D01*
X82233221Y-80768340D01*
X82108340Y-80893221D01*
X82108337Y-80893225D01*
X82015627Y-81043529D01*
X82015622Y-81043540D01*
X81960071Y-81211183D01*
X81949500Y-81314650D01*
X51000500Y-81314650D01*
X51000500Y-77881902D01*
X78699500Y-77881902D01*
X78699500Y-78118097D01*
X78736446Y-78351368D01*
X78809433Y-78575996D01*
X78916657Y-78786433D01*
X79055483Y-78977510D01*
X79222490Y-79144517D01*
X79413567Y-79283343D01*
X79512991Y-79334002D01*
X79624003Y-79390566D01*
X79624005Y-79390566D01*
X79624008Y-79390568D01*
X79744412Y-79429689D01*
X79848631Y-79463553D01*
X80081903Y-79500500D01*
X80081908Y-79500500D01*
X80318097Y-79500500D01*
X80551368Y-79463553D01*
X80775992Y-79390568D01*
X80986433Y-79283343D01*
X81177510Y-79144517D01*
X81344517Y-78977510D01*
X81483343Y-78786433D01*
X81590568Y-78575992D01*
X81663553Y-78351368D01*
X81700500Y-78118097D01*
X81700500Y-77881902D01*
X81663553Y-77648631D01*
X81590566Y-77424003D01*
X81534002Y-77312991D01*
X81483343Y-77213567D01*
X81344517Y-77022490D01*
X81177510Y-76855483D01*
X80986433Y-76716657D01*
X80775996Y-76609433D01*
X80551368Y-76536446D01*
X80318097Y-76499500D01*
X80318092Y-76499500D01*
X80081908Y-76499500D01*
X80081903Y-76499500D01*
X79848631Y-76536446D01*
X79624003Y-76609433D01*
X79413566Y-76716657D01*
X79304550Y-76795862D01*
X79222490Y-76855483D01*
X79222488Y-76855485D01*
X79222487Y-76855485D01*
X79055485Y-77022487D01*
X79055485Y-77022488D01*
X79055483Y-77022490D01*
X78996363Y-77103862D01*
X78916657Y-77213566D01*
X78809433Y-77424003D01*
X78736446Y-77648631D01*
X78699500Y-77881902D01*
X51000500Y-77881902D01*
X51000500Y-77485605D01*
X51020185Y-77418566D01*
X51072989Y-77372811D01*
X51142147Y-77362867D01*
X51173308Y-77371615D01*
X51363388Y-77453013D01*
X51363396Y-77453014D01*
X51363397Y-77453015D01*
X51568749Y-77497687D01*
X51568750Y-77497687D01*
X51568755Y-77497688D01*
X51615962Y-77500500D01*
X51615973Y-77500500D01*
X56584027Y-77500500D01*
X56584038Y-77500500D01*
X56631245Y-77497688D01*
X56686790Y-77485605D01*
X56699700Y-77482796D01*
X56836612Y-77453013D01*
X57029813Y-77370279D01*
X57203865Y-77252477D01*
X57352477Y-77103865D01*
X57470279Y-76929813D01*
X57553013Y-76736612D01*
X57597688Y-76531245D01*
X57600500Y-76484038D01*
X57600500Y-73515962D01*
X57597688Y-73468755D01*
X57553013Y-73263388D01*
X57470279Y-73070187D01*
X57352477Y-72896135D01*
X57203865Y-72747523D01*
X57029813Y-72629721D01*
X57029811Y-72629720D01*
X57029808Y-72629718D01*
X56836613Y-72546987D01*
X56836602Y-72546984D01*
X56631250Y-72502312D01*
X56616492Y-72501433D01*
X56584038Y-72499500D01*
X51615962Y-72499500D01*
X51585416Y-72501319D01*
X51568749Y-72502312D01*
X51363397Y-72546984D01*
X51363386Y-72546987D01*
X51173313Y-72628382D01*
X51103937Y-72636677D01*
X51041090Y-72606148D01*
X51004725Y-72546487D01*
X51000500Y-72514394D01*
X51000500Y-69324000D01*
X51020185Y-69256961D01*
X51072989Y-69211206D01*
X51124500Y-69200000D01*
X86276000Y-69200000D01*
X86343039Y-69219685D01*
G37*
%TD.AperFunction*%
%TD*%
M02*
