%TF.GenerationSoftware,KiCad,Pcbnew,9.0.6*%
%TF.CreationDate,2026-04-07T18:45:19-04:00*%
%TF.ProjectId,lm5022-flyback,6c6d3530-3232-42d6-966c-796261636b2e,rev?*%
%TF.SameCoordinates,Original*%
%TF.FileFunction,Legend,Bot*%
%TF.FilePolarity,Positive*%
%FSLAX46Y46*%
G04 Gerber Fmt 4.6, Leading zero omitted, Abs format (unit mm)*
G04 Created by KiCad (PCBNEW 9.0.6) date 2026-04-07 18:45:19*
%MOMM*%
%LPD*%
G01*
G04 APERTURE LIST*
%ADD10C,0.150000*%
%ADD11C,0.120000*%
G04 APERTURE END LIST*
D10*
X77786104Y-95485714D02*
X77824200Y-95447618D01*
X77824200Y-95447618D02*
X77862295Y-95333333D01*
X77862295Y-95333333D02*
X77862295Y-95257142D01*
X77862295Y-95257142D02*
X77824200Y-95142856D01*
X77824200Y-95142856D02*
X77748009Y-95066666D01*
X77748009Y-95066666D02*
X77671819Y-95028571D01*
X77671819Y-95028571D02*
X77519438Y-94990475D01*
X77519438Y-94990475D02*
X77405152Y-94990475D01*
X77405152Y-94990475D02*
X77252771Y-95028571D01*
X77252771Y-95028571D02*
X77176580Y-95066666D01*
X77176580Y-95066666D02*
X77100390Y-95142856D01*
X77100390Y-95142856D02*
X77062295Y-95257142D01*
X77062295Y-95257142D02*
X77062295Y-95333333D01*
X77062295Y-95333333D02*
X77100390Y-95447618D01*
X77100390Y-95447618D02*
X77138485Y-95485714D01*
X77862295Y-96247618D02*
X77862295Y-95790475D01*
X77862295Y-96019047D02*
X77062295Y-96019047D01*
X77062295Y-96019047D02*
X77176580Y-95942856D01*
X77176580Y-95942856D02*
X77252771Y-95866666D01*
X77252771Y-95866666D02*
X77290866Y-95790475D01*
X77062295Y-96514285D02*
X77062295Y-97009523D01*
X77062295Y-97009523D02*
X77367057Y-96742857D01*
X77367057Y-96742857D02*
X77367057Y-96857142D01*
X77367057Y-96857142D02*
X77405152Y-96933333D01*
X77405152Y-96933333D02*
X77443247Y-96971428D01*
X77443247Y-96971428D02*
X77519438Y-97009523D01*
X77519438Y-97009523D02*
X77709914Y-97009523D01*
X77709914Y-97009523D02*
X77786104Y-96971428D01*
X77786104Y-96971428D02*
X77824200Y-96933333D01*
X77824200Y-96933333D02*
X77862295Y-96857142D01*
X77862295Y-96857142D02*
X77862295Y-96628571D01*
X77862295Y-96628571D02*
X77824200Y-96552380D01*
X77824200Y-96552380D02*
X77786104Y-96514285D01*
X76332295Y-89785714D02*
X75951342Y-89519047D01*
X76332295Y-89328571D02*
X75532295Y-89328571D01*
X75532295Y-89328571D02*
X75532295Y-89633333D01*
X75532295Y-89633333D02*
X75570390Y-89709523D01*
X75570390Y-89709523D02*
X75608485Y-89747618D01*
X75608485Y-89747618D02*
X75684676Y-89785714D01*
X75684676Y-89785714D02*
X75798961Y-89785714D01*
X75798961Y-89785714D02*
X75875152Y-89747618D01*
X75875152Y-89747618D02*
X75913247Y-89709523D01*
X75913247Y-89709523D02*
X75951342Y-89633333D01*
X75951342Y-89633333D02*
X75951342Y-89328571D01*
X76332295Y-90547618D02*
X76332295Y-90090475D01*
X76332295Y-90319047D02*
X75532295Y-90319047D01*
X75532295Y-90319047D02*
X75646580Y-90242856D01*
X75646580Y-90242856D02*
X75722771Y-90166666D01*
X75722771Y-90166666D02*
X75760866Y-90090475D01*
X75532295Y-90814285D02*
X75532295Y-91347619D01*
X75532295Y-91347619D02*
X76332295Y-91004761D01*
D11*
%TO.C,C13*%
X77910000Y-93259420D02*
X77910000Y-93540580D01*
X76890000Y-93259420D02*
X76890000Y-93540580D01*
%TO.C,R17*%
X76877500Y-90062742D02*
X76877500Y-90537258D01*
X77922500Y-90062742D02*
X77922500Y-90537258D01*
%TD*%
M02*
