%TF.GenerationSoftware,KiCad,Pcbnew,9.0.6*%
%TF.CreationDate,2026-04-07T18:45:19-04:00*%
%TF.ProjectId,lm5022-flyback,6c6d3530-3232-42d6-966c-796261636b2e,rev?*%
%TF.SameCoordinates,Original*%
%TF.FileFunction,Soldermask,Top*%
%TF.FilePolarity,Negative*%
%FSLAX46Y46*%
G04 Gerber Fmt 4.6, Leading zero omitted, Abs format (unit mm)*
G04 Created by KiCad (PCBNEW 9.0.6) date 2026-04-07 18:45:19*
%MOMM*%
%LPD*%
G01*
G04 APERTURE LIST*
G04 Aperture macros list*
%AMRoundRect*
0 Rectangle with rounded corners*
0 $1 Rounding radius*
0 $2 $3 $4 $5 $6 $7 $8 $9 X,Y pos of 4 corners*
0 Add a 4 corners polygon primitive as box body*
4,1,4,$2,$3,$4,$5,$6,$7,$8,$9,$2,$3,0*
0 Add four circle primitives for the rounded corners*
1,1,$1+$1,$2,$3*
1,1,$1+$1,$4,$5*
1,1,$1+$1,$6,$7*
1,1,$1+$1,$8,$9*
0 Add four rect primitives between the rounded corners*
20,1,$1+$1,$2,$3,$4,$5,0*
20,1,$1+$1,$4,$5,$6,$7,0*
20,1,$1+$1,$6,$7,$8,$9,0*
20,1,$1+$1,$8,$9,$2,$3,0*%
G04 Aperture macros list end*
%ADD10C,0.087500*%
%ADD11C,0.117500*%
%ADD12C,0.092500*%
%ADD13RoundRect,0.140000X-0.170000X0.140000X-0.170000X-0.140000X0.170000X-0.140000X0.170000X0.140000X0*%
%ADD14RoundRect,0.600000X-2.400000X-1.400000X2.400000X-1.400000X2.400000X1.400000X-2.400000X1.400000X0*%
%ADD15RoundRect,0.200000X-0.275000X0.200000X-0.275000X-0.200000X0.275000X-0.200000X0.275000X0.200000X0*%
%ADD16C,2.000000*%
%ADD17RoundRect,0.135000X0.185000X-0.135000X0.185000X0.135000X-0.185000X0.135000X-0.185000X-0.135000X0*%
%ADD18RoundRect,0.250000X-0.362500X-1.075000X0.362500X-1.075000X0.362500X1.075000X-0.362500X1.075000X0*%
%ADD19RoundRect,0.250000X1.425000X-0.362500X1.425000X0.362500X-1.425000X0.362500X-1.425000X-0.362500X0*%
%ADD20RoundRect,0.140000X-0.140000X-0.170000X0.140000X-0.170000X0.140000X0.170000X-0.140000X0.170000X0*%
%ADD21RoundRect,0.087500X0.725000X0.087500X-0.725000X0.087500X-0.725000X-0.087500X0.725000X-0.087500X0*%
%ADD22RoundRect,0.140000X0.140000X0.170000X-0.140000X0.170000X-0.140000X-0.170000X0.140000X-0.170000X0*%
%ADD23RoundRect,0.317500X-0.317500X0.382500X-0.317500X-0.382500X0.317500X-0.382500X0.317500X0.382500X0*%
%ADD24R,4.720000X4.800000*%
%ADD25RoundRect,0.135000X-0.135000X-0.185000X0.135000X-0.185000X0.135000X0.185000X-0.135000X0.185000X0*%
%ADD26RoundRect,0.250000X2.450000X-0.650000X2.450000X0.650000X-2.450000X0.650000X-2.450000X-0.650000X0*%
%ADD27RoundRect,0.200000X0.200000X0.275000X-0.200000X0.275000X-0.200000X-0.275000X0.200000X-0.275000X0*%
%ADD28RoundRect,0.250000X-0.450000X0.262500X-0.450000X-0.262500X0.450000X-0.262500X0.450000X0.262500X0*%
%ADD29RoundRect,0.250000X1.100000X-0.325000X1.100000X0.325000X-1.100000X0.325000X-1.100000X-0.325000X0*%
%ADD30RoundRect,0.225000X-0.250000X0.225000X-0.250000X-0.225000X0.250000X-0.225000X0.250000X0.225000X0*%
%ADD31RoundRect,0.250000X0.550000X0.550000X-0.550000X0.550000X-0.550000X-0.550000X0.550000X-0.550000X0*%
%ADD32C,1.600000*%
%ADD33RoundRect,0.150000X0.150000X-0.587500X0.150000X0.587500X-0.150000X0.587500X-0.150000X-0.587500X0*%
%ADD34RoundRect,0.250000X-1.425000X0.362500X-1.425000X-0.362500X1.425000X-0.362500X1.425000X0.362500X0*%
%ADD35RoundRect,0.255000X-0.595000X-0.595000X0.595000X-0.595000X0.595000X0.595000X-0.595000X0.595000X0*%
%ADD36RoundRect,0.250000X0.850000X0.350000X-0.850000X0.350000X-0.850000X-0.350000X0.850000X-0.350000X0*%
%ADD37RoundRect,0.249997X2.950003X2.650003X-2.950003X2.650003X-2.950003X-2.650003X2.950003X-2.650003X0*%
%ADD38RoundRect,0.250000X-1.100000X0.325000X-1.100000X-0.325000X1.100000X-0.325000X1.100000X0.325000X0*%
%ADD39RoundRect,0.100000X-0.562500X-0.100000X0.562500X-0.100000X0.562500X0.100000X-0.562500X0.100000X0*%
%ADD40RoundRect,0.135000X0.135000X0.185000X-0.135000X0.185000X-0.135000X-0.185000X0.135000X-0.185000X0*%
%ADD41RoundRect,0.250000X-2.975000X0.400000X-2.975000X-0.400000X2.975000X-0.400000X2.975000X0.400000X0*%
G04 APERTURE END LIST*
D10*
%TO.C,Q1*%
X79216250Y-90656250D02*
X78543750Y-90656250D01*
X78543750Y-90393750D01*
X79216250Y-90393750D01*
X79216250Y-90656250D01*
G36*
X79216250Y-90656250D02*
G01*
X78543750Y-90656250D01*
X78543750Y-90393750D01*
X79216250Y-90393750D01*
X79216250Y-90656250D01*
G37*
X79216250Y-91406250D02*
X78543750Y-91406250D01*
X78543750Y-91143750D01*
X79216250Y-91143750D01*
X79216250Y-91406250D01*
G36*
X79216250Y-91406250D02*
G01*
X78543750Y-91406250D01*
X78543750Y-91143750D01*
X79216250Y-91143750D01*
X79216250Y-91406250D01*
G37*
X79216250Y-91956250D02*
X78543750Y-91956250D01*
X78543750Y-91693750D01*
X79216250Y-91693750D01*
X79216250Y-91956250D01*
G36*
X79216250Y-91956250D02*
G01*
X78543750Y-91956250D01*
X78543750Y-91693750D01*
X79216250Y-91693750D01*
X79216250Y-91956250D01*
G37*
X79216250Y-92606250D02*
X78543750Y-92606250D01*
X78543750Y-92343750D01*
X79216250Y-92343750D01*
X79216250Y-92606250D01*
G36*
X79216250Y-92606250D02*
G01*
X78543750Y-92606250D01*
X78543750Y-92343750D01*
X79216250Y-92343750D01*
X79216250Y-92606250D01*
G37*
D11*
X79201250Y-90726750D02*
X78848750Y-90726750D01*
X78848750Y-89859250D01*
X79201250Y-89859250D01*
X79201250Y-90726750D01*
G36*
X79201250Y-90726750D02*
G01*
X78848750Y-90726750D01*
X78848750Y-89859250D01*
X79201250Y-89859250D01*
X79201250Y-90726750D01*
G37*
X79201250Y-93141250D02*
X78848750Y-93141250D01*
X78848750Y-91183750D01*
X79201250Y-91183750D01*
X79201250Y-93141250D01*
G36*
X79201250Y-93141250D02*
G01*
X78848750Y-93141250D01*
X78848750Y-91183750D01*
X79201250Y-91183750D01*
X79201250Y-93141250D01*
G37*
D12*
X80063750Y-93153750D02*
X79786250Y-93153750D01*
X79786250Y-89846250D01*
X80063750Y-89846250D01*
X80063750Y-93153750D01*
G36*
X80063750Y-93153750D02*
G01*
X79786250Y-93153750D01*
X79786250Y-89846250D01*
X80063750Y-89846250D01*
X80063750Y-93153750D01*
G37*
X80913750Y-93153750D02*
X80636250Y-93153750D01*
X80636250Y-89846250D01*
X80913750Y-89846250D01*
X80913750Y-93153750D01*
G36*
X80913750Y-93153750D02*
G01*
X80636250Y-93153750D01*
X80636250Y-89846250D01*
X80913750Y-89846250D01*
X80913750Y-93153750D01*
G37*
X81763750Y-93153750D02*
X81486250Y-93153750D01*
X81486250Y-89846250D01*
X81763750Y-89846250D01*
X81763750Y-93153750D01*
G36*
X81763750Y-93153750D02*
G01*
X81486250Y-93153750D01*
X81486250Y-89846250D01*
X81763750Y-89846250D01*
X81763750Y-93153750D01*
G37*
X82613750Y-93153750D02*
X82336250Y-93153750D01*
X82336250Y-89846250D01*
X82613750Y-89846250D01*
X82613750Y-93153750D01*
G36*
X82613750Y-93153750D02*
G01*
X82336250Y-93153750D01*
X82336250Y-89846250D01*
X82613750Y-89846250D01*
X82613750Y-93153750D01*
G37*
D11*
X83551750Y-93141250D02*
X83199250Y-93141250D01*
X83199250Y-89858750D01*
X83551750Y-89858750D01*
X83551750Y-93141250D01*
G36*
X83551750Y-93141250D02*
G01*
X83199250Y-93141250D01*
X83199250Y-89858750D01*
X83551750Y-89858750D01*
X83551750Y-93141250D01*
G37*
D12*
X83853750Y-90663750D02*
X83186250Y-90663750D01*
X83186250Y-90386250D01*
X83853750Y-90386250D01*
X83853750Y-90663750D01*
G36*
X83853750Y-90663750D02*
G01*
X83186250Y-90663750D01*
X83186250Y-90386250D01*
X83853750Y-90386250D01*
X83853750Y-90663750D01*
G37*
X83853750Y-91313750D02*
X83186250Y-91313750D01*
X83186250Y-91036250D01*
X83853750Y-91036250D01*
X83853750Y-91313750D01*
G36*
X83853750Y-91313750D02*
G01*
X83186250Y-91313750D01*
X83186250Y-91036250D01*
X83853750Y-91036250D01*
X83853750Y-91313750D01*
G37*
X83853750Y-91963750D02*
X83186250Y-91963750D01*
X83186250Y-91686250D01*
X83853750Y-91686250D01*
X83853750Y-91963750D01*
G36*
X83853750Y-91963750D02*
G01*
X83186250Y-91963750D01*
X83186250Y-91686250D01*
X83853750Y-91686250D01*
X83853750Y-91963750D01*
G37*
X83853750Y-92613750D02*
X83186250Y-92613750D01*
X83186250Y-92336250D01*
X83853750Y-92336250D01*
X83853750Y-92613750D01*
G36*
X83853750Y-92613750D02*
G01*
X83186250Y-92613750D01*
X83186250Y-92336250D01*
X83853750Y-92336250D01*
X83853750Y-92613750D01*
G37*
%TD*%
D13*
%TO.C,C5*%
X74400000Y-95520000D03*
X74400000Y-96480000D03*
%TD*%
D14*
%TO.C,H4*%
X54100000Y-84000000D03*
%TD*%
%TO.C,H3*%
X54100000Y-75000000D03*
%TD*%
D15*
%TO.C,R12*%
X69000000Y-101775000D03*
X69000000Y-103425000D03*
%TD*%
D16*
%TO.C,TP5*%
X106800000Y-91600000D03*
%TD*%
D17*
%TO.C,R1*%
X77600000Y-91510000D03*
X77600000Y-90490000D03*
%TD*%
D18*
%TO.C,R9*%
X92287500Y-101000000D03*
X96912500Y-101000000D03*
%TD*%
D19*
%TO.C,R10*%
X117800000Y-98512500D03*
X117800000Y-92587500D03*
%TD*%
D16*
%TO.C,TP3*%
X79800000Y-84900000D03*
%TD*%
%TO.C,TP4*%
X75500000Y-93400000D03*
%TD*%
D20*
%TO.C,C1*%
X71920000Y-100400000D03*
X72880000Y-100400000D03*
%TD*%
D16*
%TO.C,TP13*%
X86200000Y-104600000D03*
%TD*%
D21*
%TO.C,U1*%
X72712500Y-96800000D03*
X72712500Y-96300000D03*
X72712500Y-95800000D03*
X72712500Y-95300000D03*
X72712500Y-94800000D03*
X68487500Y-94800000D03*
X68487500Y-95300000D03*
X68487500Y-95800000D03*
X68487500Y-96300000D03*
X68487500Y-96800000D03*
%TD*%
D22*
%TO.C,C9*%
X66880000Y-97200000D03*
X65920000Y-97200000D03*
%TD*%
D23*
%TO.C,D3*%
X76205000Y-85360000D03*
X76205000Y-87440000D03*
D24*
X72400000Y-86400000D03*
%TD*%
D16*
%TO.C,TP12*%
X70100000Y-92200000D03*
%TD*%
D14*
%TO.C,H1*%
X129500000Y-91500000D03*
%TD*%
D16*
%TO.C,TP11*%
X66200000Y-101800000D03*
%TD*%
D25*
%TO.C,R4*%
X69890000Y-99400000D03*
X70910000Y-99400000D03*
%TD*%
D16*
%TO.C,TP16*%
X62500000Y-100300000D03*
%TD*%
D26*
%TO.C,C3*%
X121000000Y-90300000D03*
X121000000Y-85200000D03*
%TD*%
D16*
%TO.C,TP6*%
X122200000Y-80600000D03*
%TD*%
D15*
%TO.C,R15*%
X65000000Y-90775000D03*
X65000000Y-92425000D03*
%TD*%
D27*
%TO.C,R11*%
X72225000Y-101800000D03*
X70575000Y-101800000D03*
%TD*%
D28*
%TO.C,R5*%
X68800000Y-79687500D03*
X68800000Y-81512500D03*
%TD*%
D29*
%TO.C,C11*%
X76700000Y-73675000D03*
X76700000Y-70725000D03*
%TD*%
D16*
%TO.C,TP7*%
X107300000Y-78000000D03*
%TD*%
D30*
%TO.C,C7*%
X106600000Y-104225000D03*
X106600000Y-105775000D03*
%TD*%
D31*
%TO.C,U3*%
X98405000Y-106875000D03*
D32*
X98405000Y-104335000D03*
X90785000Y-104335000D03*
X90785000Y-106875000D03*
%TD*%
D16*
%TO.C,TP14*%
X86200000Y-108200000D03*
%TD*%
D33*
%TO.C,D2*%
X104650000Y-109537500D03*
X106550000Y-109537500D03*
X105600000Y-107662500D03*
%TD*%
D22*
%TO.C,C2*%
X72880000Y-98200000D03*
X71920000Y-98200000D03*
%TD*%
D15*
%TO.C,R6*%
X108200000Y-106975000D03*
X108200000Y-108625000D03*
%TD*%
D34*
%TO.C,R7*%
X113800000Y-92587500D03*
X113800000Y-98512500D03*
%TD*%
D28*
%TO.C,R13*%
X70800000Y-79687500D03*
X70800000Y-81512500D03*
%TD*%
D14*
%TO.C,H2*%
X129500000Y-81500000D03*
%TD*%
D16*
%TO.C,TP8*%
X101600000Y-104700000D03*
%TD*%
%TO.C,TP1*%
X68000000Y-84000000D03*
%TD*%
D30*
%TO.C,C8*%
X88800000Y-104800000D03*
X88800000Y-106350000D03*
%TD*%
D27*
%TO.C,R14*%
X66425000Y-94800000D03*
X64775000Y-94800000D03*
%TD*%
D25*
%TO.C,R3*%
X71890000Y-99400000D03*
X72910000Y-99400000D03*
%TD*%
D16*
%TO.C,TP2*%
X80200000Y-78000000D03*
%TD*%
D26*
%TO.C,C4*%
X114800000Y-90300000D03*
X114800000Y-85200000D03*
%TD*%
D35*
%TO.C,T1*%
X83300000Y-81960000D03*
X83300000Y-87040000D03*
X107900000Y-87040000D03*
X107900000Y-81960000D03*
X107900000Y-84500000D03*
X83300000Y-84500000D03*
%TD*%
D36*
%TO.C,D1*%
X118800000Y-80407500D03*
D37*
X112500000Y-78127500D03*
D36*
X118800000Y-75847500D03*
%TD*%
D38*
%TO.C,C10*%
X76600000Y-79725000D03*
X76600000Y-82675000D03*
%TD*%
D14*
%TO.C,H5*%
X54100000Y-104400000D03*
%TD*%
D39*
%TO.C,U2*%
X108425000Y-104300000D03*
X108425000Y-104950000D03*
X108425000Y-105600000D03*
X110200000Y-105600000D03*
X110200000Y-104950000D03*
X110200000Y-104300000D03*
%TD*%
D40*
%TO.C,R8*%
X66910000Y-96200000D03*
X65890000Y-96200000D03*
%TD*%
D16*
%TO.C,TP9*%
X101600000Y-108200000D03*
%TD*%
%TO.C,TP10*%
X113400000Y-107000000D03*
%TD*%
D41*
%TO.C,R2*%
X81600000Y-94475000D03*
X81600000Y-97125000D03*
%TD*%
D29*
%TO.C,C12*%
X73000000Y-73675000D03*
X73000000Y-70725000D03*
%TD*%
D38*
%TO.C,C6*%
X73400000Y-79725000D03*
X73400000Y-82675000D03*
%TD*%
G36*
X127299649Y-100450107D02*
G01*
X127330194Y-100485358D01*
X131515123Y-107713872D01*
X131531677Y-107781752D01*
X131508903Y-107847806D01*
X131454034Y-107891062D01*
X131407810Y-107900000D01*
X123037952Y-107900000D01*
X122970913Y-107880315D01*
X122925158Y-107827511D01*
X122915214Y-107758353D01*
X122930639Y-107713872D01*
X127115568Y-100485358D01*
X127166193Y-100437202D01*
X127234816Y-100424062D01*
X127299649Y-100450107D01*
G37*
M02*
