%TF.GenerationSoftware,KiCad,Pcbnew,8.0.4*%
%TF.CreationDate,2026-03-02T20:03:04-05:00*%
%TF.ProjectId,SensingBreakout,53656e73-696e-4674-9272-65616b6f7574,rev?*%
%TF.SameCoordinates,Original*%
%TF.FileFunction,Legend,Top*%
%TF.FilePolarity,Positive*%
%FSLAX46Y46*%
G04 Gerber Fmt 4.6, Leading zero omitted, Abs format (unit mm)*
G04 Created by KiCad (PCBNEW 8.0.4) date 2026-03-02 20:03:04*
%MOMM*%
%LPD*%
G01*
G04 APERTURE LIST*
%ADD10C,0.150000*%
%ADD11C,0.120000*%
G04 APERTURE END LIST*
D10*
X146919819Y-57206077D02*
X147919819Y-56872744D01*
X147919819Y-56872744D02*
X146919819Y-56539411D01*
X147919819Y-56063220D02*
X147872200Y-56158458D01*
X147872200Y-56158458D02*
X147824580Y-56206077D01*
X147824580Y-56206077D02*
X147729342Y-56253696D01*
X147729342Y-56253696D02*
X147443628Y-56253696D01*
X147443628Y-56253696D02*
X147348390Y-56206077D01*
X147348390Y-56206077D02*
X147300771Y-56158458D01*
X147300771Y-56158458D02*
X147253152Y-56063220D01*
X147253152Y-56063220D02*
X147253152Y-55920363D01*
X147253152Y-55920363D02*
X147300771Y-55825125D01*
X147300771Y-55825125D02*
X147348390Y-55777506D01*
X147348390Y-55777506D02*
X147443628Y-55729887D01*
X147443628Y-55729887D02*
X147729342Y-55729887D01*
X147729342Y-55729887D02*
X147824580Y-55777506D01*
X147824580Y-55777506D02*
X147872200Y-55825125D01*
X147872200Y-55825125D02*
X147919819Y-55920363D01*
X147919819Y-55920363D02*
X147919819Y-56063220D01*
X147919819Y-55158458D02*
X147872200Y-55253696D01*
X147872200Y-55253696D02*
X147776961Y-55301315D01*
X147776961Y-55301315D02*
X146919819Y-55301315D01*
X147253152Y-54920362D02*
X147253152Y-54539410D01*
X146919819Y-54777505D02*
X147776961Y-54777505D01*
X147776961Y-54777505D02*
X147872200Y-54729886D01*
X147872200Y-54729886D02*
X147919819Y-54634648D01*
X147919819Y-54634648D02*
X147919819Y-54539410D01*
X147919819Y-53777505D02*
X147396009Y-53777505D01*
X147396009Y-53777505D02*
X147300771Y-53825124D01*
X147300771Y-53825124D02*
X147253152Y-53920362D01*
X147253152Y-53920362D02*
X147253152Y-54110838D01*
X147253152Y-54110838D02*
X147300771Y-54206076D01*
X147872200Y-53777505D02*
X147919819Y-53872743D01*
X147919819Y-53872743D02*
X147919819Y-54110838D01*
X147919819Y-54110838D02*
X147872200Y-54206076D01*
X147872200Y-54206076D02*
X147776961Y-54253695D01*
X147776961Y-54253695D02*
X147681723Y-54253695D01*
X147681723Y-54253695D02*
X147586485Y-54206076D01*
X147586485Y-54206076D02*
X147538866Y-54110838D01*
X147538866Y-54110838D02*
X147538866Y-53872743D01*
X147538866Y-53872743D02*
X147491247Y-53777505D01*
X147253152Y-52872743D02*
X148062676Y-52872743D01*
X148062676Y-52872743D02*
X148157914Y-52920362D01*
X148157914Y-52920362D02*
X148205533Y-52967981D01*
X148205533Y-52967981D02*
X148253152Y-53063219D01*
X148253152Y-53063219D02*
X148253152Y-53206076D01*
X148253152Y-53206076D02*
X148205533Y-53301314D01*
X147872200Y-52872743D02*
X147919819Y-52967981D01*
X147919819Y-52967981D02*
X147919819Y-53158457D01*
X147919819Y-53158457D02*
X147872200Y-53253695D01*
X147872200Y-53253695D02*
X147824580Y-53301314D01*
X147824580Y-53301314D02*
X147729342Y-53348933D01*
X147729342Y-53348933D02*
X147443628Y-53348933D01*
X147443628Y-53348933D02*
X147348390Y-53301314D01*
X147348390Y-53301314D02*
X147300771Y-53253695D01*
X147300771Y-53253695D02*
X147253152Y-53158457D01*
X147253152Y-53158457D02*
X147253152Y-52967981D01*
X147253152Y-52967981D02*
X147300771Y-52872743D01*
X147872200Y-52015600D02*
X147919819Y-52110838D01*
X147919819Y-52110838D02*
X147919819Y-52301314D01*
X147919819Y-52301314D02*
X147872200Y-52396552D01*
X147872200Y-52396552D02*
X147776961Y-52444171D01*
X147776961Y-52444171D02*
X147396009Y-52444171D01*
X147396009Y-52444171D02*
X147300771Y-52396552D01*
X147300771Y-52396552D02*
X147253152Y-52301314D01*
X147253152Y-52301314D02*
X147253152Y-52110838D01*
X147253152Y-52110838D02*
X147300771Y-52015600D01*
X147300771Y-52015600D02*
X147396009Y-51967981D01*
X147396009Y-51967981D02*
X147491247Y-51967981D01*
X147491247Y-51967981D02*
X147586485Y-52444171D01*
X147872200Y-50825123D02*
X147919819Y-50682266D01*
X147919819Y-50682266D02*
X147919819Y-50444171D01*
X147919819Y-50444171D02*
X147872200Y-50348933D01*
X147872200Y-50348933D02*
X147824580Y-50301314D01*
X147824580Y-50301314D02*
X147729342Y-50253695D01*
X147729342Y-50253695D02*
X147634104Y-50253695D01*
X147634104Y-50253695D02*
X147538866Y-50301314D01*
X147538866Y-50301314D02*
X147491247Y-50348933D01*
X147491247Y-50348933D02*
X147443628Y-50444171D01*
X147443628Y-50444171D02*
X147396009Y-50634647D01*
X147396009Y-50634647D02*
X147348390Y-50729885D01*
X147348390Y-50729885D02*
X147300771Y-50777504D01*
X147300771Y-50777504D02*
X147205533Y-50825123D01*
X147205533Y-50825123D02*
X147110295Y-50825123D01*
X147110295Y-50825123D02*
X147015057Y-50777504D01*
X147015057Y-50777504D02*
X146967438Y-50729885D01*
X146967438Y-50729885D02*
X146919819Y-50634647D01*
X146919819Y-50634647D02*
X146919819Y-50396552D01*
X146919819Y-50396552D02*
X146967438Y-50253695D01*
X147872200Y-49444171D02*
X147919819Y-49539409D01*
X147919819Y-49539409D02*
X147919819Y-49729885D01*
X147919819Y-49729885D02*
X147872200Y-49825123D01*
X147872200Y-49825123D02*
X147776961Y-49872742D01*
X147776961Y-49872742D02*
X147396009Y-49872742D01*
X147396009Y-49872742D02*
X147300771Y-49825123D01*
X147300771Y-49825123D02*
X147253152Y-49729885D01*
X147253152Y-49729885D02*
X147253152Y-49539409D01*
X147253152Y-49539409D02*
X147300771Y-49444171D01*
X147300771Y-49444171D02*
X147396009Y-49396552D01*
X147396009Y-49396552D02*
X147491247Y-49396552D01*
X147491247Y-49396552D02*
X147586485Y-49872742D01*
X147253152Y-48967980D02*
X147919819Y-48967980D01*
X147348390Y-48967980D02*
X147300771Y-48920361D01*
X147300771Y-48920361D02*
X147253152Y-48825123D01*
X147253152Y-48825123D02*
X147253152Y-48682266D01*
X147253152Y-48682266D02*
X147300771Y-48587028D01*
X147300771Y-48587028D02*
X147396009Y-48539409D01*
X147396009Y-48539409D02*
X147919819Y-48539409D01*
X147872200Y-48110837D02*
X147919819Y-48015599D01*
X147919819Y-48015599D02*
X147919819Y-47825123D01*
X147919819Y-47825123D02*
X147872200Y-47729885D01*
X147872200Y-47729885D02*
X147776961Y-47682266D01*
X147776961Y-47682266D02*
X147729342Y-47682266D01*
X147729342Y-47682266D02*
X147634104Y-47729885D01*
X147634104Y-47729885D02*
X147586485Y-47825123D01*
X147586485Y-47825123D02*
X147586485Y-47967980D01*
X147586485Y-47967980D02*
X147538866Y-48063218D01*
X147538866Y-48063218D02*
X147443628Y-48110837D01*
X147443628Y-48110837D02*
X147396009Y-48110837D01*
X147396009Y-48110837D02*
X147300771Y-48063218D01*
X147300771Y-48063218D02*
X147253152Y-47967980D01*
X147253152Y-47967980D02*
X147253152Y-47825123D01*
X147253152Y-47825123D02*
X147300771Y-47729885D01*
X147919819Y-47110837D02*
X147872200Y-47206075D01*
X147872200Y-47206075D02*
X147824580Y-47253694D01*
X147824580Y-47253694D02*
X147729342Y-47301313D01*
X147729342Y-47301313D02*
X147443628Y-47301313D01*
X147443628Y-47301313D02*
X147348390Y-47253694D01*
X147348390Y-47253694D02*
X147300771Y-47206075D01*
X147300771Y-47206075D02*
X147253152Y-47110837D01*
X147253152Y-47110837D02*
X147253152Y-46967980D01*
X147253152Y-46967980D02*
X147300771Y-46872742D01*
X147300771Y-46872742D02*
X147348390Y-46825123D01*
X147348390Y-46825123D02*
X147443628Y-46777504D01*
X147443628Y-46777504D02*
X147729342Y-46777504D01*
X147729342Y-46777504D02*
X147824580Y-46825123D01*
X147824580Y-46825123D02*
X147872200Y-46872742D01*
X147872200Y-46872742D02*
X147919819Y-46967980D01*
X147919819Y-46967980D02*
X147919819Y-47110837D01*
X147919819Y-46348932D02*
X147253152Y-46348932D01*
X147443628Y-46348932D02*
X147348390Y-46301313D01*
X147348390Y-46301313D02*
X147300771Y-46253694D01*
X147300771Y-46253694D02*
X147253152Y-46158456D01*
X147253152Y-46158456D02*
X147253152Y-46063218D01*
X131039819Y-76306077D02*
X132039819Y-75972744D01*
X132039819Y-75972744D02*
X131039819Y-75639411D01*
X132039819Y-75306077D02*
X131039819Y-75306077D01*
X131039819Y-75306077D02*
X131039819Y-75067982D01*
X131039819Y-75067982D02*
X131087438Y-74925125D01*
X131087438Y-74925125D02*
X131182676Y-74829887D01*
X131182676Y-74829887D02*
X131277914Y-74782268D01*
X131277914Y-74782268D02*
X131468390Y-74734649D01*
X131468390Y-74734649D02*
X131611247Y-74734649D01*
X131611247Y-74734649D02*
X131801723Y-74782268D01*
X131801723Y-74782268D02*
X131896961Y-74829887D01*
X131896961Y-74829887D02*
X131992200Y-74925125D01*
X131992200Y-74925125D02*
X132039819Y-75067982D01*
X132039819Y-75067982D02*
X132039819Y-75306077D01*
X132039819Y-74306077D02*
X131039819Y-74306077D01*
X131039819Y-74306077D02*
X131039819Y-74067982D01*
X131039819Y-74067982D02*
X131087438Y-73925125D01*
X131087438Y-73925125D02*
X131182676Y-73829887D01*
X131182676Y-73829887D02*
X131277914Y-73782268D01*
X131277914Y-73782268D02*
X131468390Y-73734649D01*
X131468390Y-73734649D02*
X131611247Y-73734649D01*
X131611247Y-73734649D02*
X131801723Y-73782268D01*
X131801723Y-73782268D02*
X131896961Y-73829887D01*
X131896961Y-73829887D02*
X131992200Y-73925125D01*
X131992200Y-73925125D02*
X132039819Y-74067982D01*
X132039819Y-74067982D02*
X132039819Y-74306077D01*
X142224580Y-74691792D02*
X142272200Y-74739411D01*
X142272200Y-74739411D02*
X142319819Y-74882268D01*
X142319819Y-74882268D02*
X142319819Y-74977506D01*
X142319819Y-74977506D02*
X142272200Y-75120363D01*
X142272200Y-75120363D02*
X142176961Y-75215601D01*
X142176961Y-75215601D02*
X142081723Y-75263220D01*
X142081723Y-75263220D02*
X141891247Y-75310839D01*
X141891247Y-75310839D02*
X141748390Y-75310839D01*
X141748390Y-75310839D02*
X141557914Y-75263220D01*
X141557914Y-75263220D02*
X141462676Y-75215601D01*
X141462676Y-75215601D02*
X141367438Y-75120363D01*
X141367438Y-75120363D02*
X141319819Y-74977506D01*
X141319819Y-74977506D02*
X141319819Y-74882268D01*
X141319819Y-74882268D02*
X141367438Y-74739411D01*
X141367438Y-74739411D02*
X141415057Y-74691792D01*
X142272200Y-74310839D02*
X142319819Y-74167982D01*
X142319819Y-74167982D02*
X142319819Y-73929887D01*
X142319819Y-73929887D02*
X142272200Y-73834649D01*
X142272200Y-73834649D02*
X142224580Y-73787030D01*
X142224580Y-73787030D02*
X142129342Y-73739411D01*
X142129342Y-73739411D02*
X142034104Y-73739411D01*
X142034104Y-73739411D02*
X141938866Y-73787030D01*
X141938866Y-73787030D02*
X141891247Y-73834649D01*
X141891247Y-73834649D02*
X141843628Y-73929887D01*
X141843628Y-73929887D02*
X141796009Y-74120363D01*
X141796009Y-74120363D02*
X141748390Y-74215601D01*
X141748390Y-74215601D02*
X141700771Y-74263220D01*
X141700771Y-74263220D02*
X141605533Y-74310839D01*
X141605533Y-74310839D02*
X141510295Y-74310839D01*
X141510295Y-74310839D02*
X141415057Y-74263220D01*
X141415057Y-74263220D02*
X141367438Y-74215601D01*
X141367438Y-74215601D02*
X141319819Y-74120363D01*
X141319819Y-74120363D02*
X141319819Y-73882268D01*
X141319819Y-73882268D02*
X141367438Y-73739411D01*
X141042200Y-75401316D02*
X141042200Y-73648935D01*
X137097200Y-77060839D02*
X137144819Y-76917982D01*
X137144819Y-76917982D02*
X137144819Y-76679887D01*
X137144819Y-76679887D02*
X137097200Y-76584649D01*
X137097200Y-76584649D02*
X137049580Y-76537030D01*
X137049580Y-76537030D02*
X136954342Y-76489411D01*
X136954342Y-76489411D02*
X136859104Y-76489411D01*
X136859104Y-76489411D02*
X136763866Y-76537030D01*
X136763866Y-76537030D02*
X136716247Y-76584649D01*
X136716247Y-76584649D02*
X136668628Y-76679887D01*
X136668628Y-76679887D02*
X136621009Y-76870363D01*
X136621009Y-76870363D02*
X136573390Y-76965601D01*
X136573390Y-76965601D02*
X136525771Y-77013220D01*
X136525771Y-77013220D02*
X136430533Y-77060839D01*
X136430533Y-77060839D02*
X136335295Y-77060839D01*
X136335295Y-77060839D02*
X136240057Y-77013220D01*
X136240057Y-77013220D02*
X136192438Y-76965601D01*
X136192438Y-76965601D02*
X136144819Y-76870363D01*
X136144819Y-76870363D02*
X136144819Y-76632268D01*
X136144819Y-76632268D02*
X136192438Y-76489411D01*
X137049580Y-75489411D02*
X137097200Y-75537030D01*
X137097200Y-75537030D02*
X137144819Y-75679887D01*
X137144819Y-75679887D02*
X137144819Y-75775125D01*
X137144819Y-75775125D02*
X137097200Y-75917982D01*
X137097200Y-75917982D02*
X137001961Y-76013220D01*
X137001961Y-76013220D02*
X136906723Y-76060839D01*
X136906723Y-76060839D02*
X136716247Y-76108458D01*
X136716247Y-76108458D02*
X136573390Y-76108458D01*
X136573390Y-76108458D02*
X136382914Y-76060839D01*
X136382914Y-76060839D02*
X136287676Y-76013220D01*
X136287676Y-76013220D02*
X136192438Y-75917982D01*
X136192438Y-75917982D02*
X136144819Y-75775125D01*
X136144819Y-75775125D02*
X136144819Y-75679887D01*
X136144819Y-75679887D02*
X136192438Y-75537030D01*
X136192438Y-75537030D02*
X136240057Y-75489411D01*
X137144819Y-74584649D02*
X137144819Y-75060839D01*
X137144819Y-75060839D02*
X136144819Y-75060839D01*
X137144819Y-74251315D02*
X136144819Y-74251315D01*
X137144819Y-73679887D02*
X136573390Y-74108458D01*
X136144819Y-73679887D02*
X136716247Y-74251315D01*
X133677438Y-75749411D02*
X133629819Y-75844649D01*
X133629819Y-75844649D02*
X133629819Y-75987506D01*
X133629819Y-75987506D02*
X133677438Y-76130363D01*
X133677438Y-76130363D02*
X133772676Y-76225601D01*
X133772676Y-76225601D02*
X133867914Y-76273220D01*
X133867914Y-76273220D02*
X134058390Y-76320839D01*
X134058390Y-76320839D02*
X134201247Y-76320839D01*
X134201247Y-76320839D02*
X134391723Y-76273220D01*
X134391723Y-76273220D02*
X134486961Y-76225601D01*
X134486961Y-76225601D02*
X134582200Y-76130363D01*
X134582200Y-76130363D02*
X134629819Y-75987506D01*
X134629819Y-75987506D02*
X134629819Y-75892268D01*
X134629819Y-75892268D02*
X134582200Y-75749411D01*
X134582200Y-75749411D02*
X134534580Y-75701792D01*
X134534580Y-75701792D02*
X134201247Y-75701792D01*
X134201247Y-75701792D02*
X134201247Y-75892268D01*
X134629819Y-75273220D02*
X133629819Y-75273220D01*
X133629819Y-75273220D02*
X134629819Y-74701792D01*
X134629819Y-74701792D02*
X133629819Y-74701792D01*
X134629819Y-74225601D02*
X133629819Y-74225601D01*
X133629819Y-74225601D02*
X133629819Y-73987506D01*
X133629819Y-73987506D02*
X133677438Y-73844649D01*
X133677438Y-73844649D02*
X133772676Y-73749411D01*
X133772676Y-73749411D02*
X133867914Y-73701792D01*
X133867914Y-73701792D02*
X134058390Y-73654173D01*
X134058390Y-73654173D02*
X134201247Y-73654173D01*
X134201247Y-73654173D02*
X134391723Y-73701792D01*
X134391723Y-73701792D02*
X134486961Y-73749411D01*
X134486961Y-73749411D02*
X134582200Y-73844649D01*
X134582200Y-73844649D02*
X134629819Y-73987506D01*
X134629819Y-73987506D02*
X134629819Y-74225601D01*
X139672200Y-77785839D02*
X139719819Y-77642982D01*
X139719819Y-77642982D02*
X139719819Y-77404887D01*
X139719819Y-77404887D02*
X139672200Y-77309649D01*
X139672200Y-77309649D02*
X139624580Y-77262030D01*
X139624580Y-77262030D02*
X139529342Y-77214411D01*
X139529342Y-77214411D02*
X139434104Y-77214411D01*
X139434104Y-77214411D02*
X139338866Y-77262030D01*
X139338866Y-77262030D02*
X139291247Y-77309649D01*
X139291247Y-77309649D02*
X139243628Y-77404887D01*
X139243628Y-77404887D02*
X139196009Y-77595363D01*
X139196009Y-77595363D02*
X139148390Y-77690601D01*
X139148390Y-77690601D02*
X139100771Y-77738220D01*
X139100771Y-77738220D02*
X139005533Y-77785839D01*
X139005533Y-77785839D02*
X138910295Y-77785839D01*
X138910295Y-77785839D02*
X138815057Y-77738220D01*
X138815057Y-77738220D02*
X138767438Y-77690601D01*
X138767438Y-77690601D02*
X138719819Y-77595363D01*
X138719819Y-77595363D02*
X138719819Y-77357268D01*
X138719819Y-77357268D02*
X138767438Y-77214411D01*
X139719819Y-76785839D02*
X138719819Y-76785839D01*
X138719819Y-76785839D02*
X138719819Y-76547744D01*
X138719819Y-76547744D02*
X138767438Y-76404887D01*
X138767438Y-76404887D02*
X138862676Y-76309649D01*
X138862676Y-76309649D02*
X138957914Y-76262030D01*
X138957914Y-76262030D02*
X139148390Y-76214411D01*
X139148390Y-76214411D02*
X139291247Y-76214411D01*
X139291247Y-76214411D02*
X139481723Y-76262030D01*
X139481723Y-76262030D02*
X139576961Y-76309649D01*
X139576961Y-76309649D02*
X139672200Y-76404887D01*
X139672200Y-76404887D02*
X139719819Y-76547744D01*
X139719819Y-76547744D02*
X139719819Y-76785839D01*
X139434104Y-75833458D02*
X139434104Y-75357268D01*
X139719819Y-75928696D02*
X138719819Y-75595363D01*
X138719819Y-75595363D02*
X139719819Y-75262030D01*
X138719819Y-75071553D02*
X138719819Y-74500125D01*
X139719819Y-74785839D02*
X138719819Y-74785839D01*
X139434104Y-74214410D02*
X139434104Y-73738220D01*
X139719819Y-74309648D02*
X138719819Y-73976315D01*
X138719819Y-73976315D02*
X139719819Y-73642982D01*
X125459104Y-60610839D02*
X125459104Y-60134649D01*
X125744819Y-60706077D02*
X124744819Y-60372744D01*
X124744819Y-60372744D02*
X125744819Y-60039411D01*
X125744819Y-59706077D02*
X124744819Y-59706077D01*
X124744819Y-59706077D02*
X124744819Y-59325125D01*
X124744819Y-59325125D02*
X124792438Y-59229887D01*
X124792438Y-59229887D02*
X124840057Y-59182268D01*
X124840057Y-59182268D02*
X124935295Y-59134649D01*
X124935295Y-59134649D02*
X125078152Y-59134649D01*
X125078152Y-59134649D02*
X125173390Y-59182268D01*
X125173390Y-59182268D02*
X125221009Y-59229887D01*
X125221009Y-59229887D02*
X125268628Y-59325125D01*
X125268628Y-59325125D02*
X125268628Y-59706077D01*
X125221009Y-58706077D02*
X125221009Y-58372744D01*
X125744819Y-58229887D02*
X125744819Y-58706077D01*
X125744819Y-58706077D02*
X124744819Y-58706077D01*
X124744819Y-58706077D02*
X124744819Y-58229887D01*
X125744819Y-57896553D02*
X125078152Y-57372744D01*
X125078152Y-57896553D02*
X125744819Y-57372744D01*
X125363866Y-56229886D02*
X125363866Y-55467982D01*
X125649580Y-53658458D02*
X125697200Y-53706077D01*
X125697200Y-53706077D02*
X125744819Y-53848934D01*
X125744819Y-53848934D02*
X125744819Y-53944172D01*
X125744819Y-53944172D02*
X125697200Y-54087029D01*
X125697200Y-54087029D02*
X125601961Y-54182267D01*
X125601961Y-54182267D02*
X125506723Y-54229886D01*
X125506723Y-54229886D02*
X125316247Y-54277505D01*
X125316247Y-54277505D02*
X125173390Y-54277505D01*
X125173390Y-54277505D02*
X124982914Y-54229886D01*
X124982914Y-54229886D02*
X124887676Y-54182267D01*
X124887676Y-54182267D02*
X124792438Y-54087029D01*
X124792438Y-54087029D02*
X124744819Y-53944172D01*
X124744819Y-53944172D02*
X124744819Y-53848934D01*
X124744819Y-53848934D02*
X124792438Y-53706077D01*
X124792438Y-53706077D02*
X124840057Y-53658458D01*
X125078152Y-52801315D02*
X125744819Y-52801315D01*
X125078152Y-53229886D02*
X125601961Y-53229886D01*
X125601961Y-53229886D02*
X125697200Y-53182267D01*
X125697200Y-53182267D02*
X125744819Y-53087029D01*
X125744819Y-53087029D02*
X125744819Y-52944172D01*
X125744819Y-52944172D02*
X125697200Y-52848934D01*
X125697200Y-52848934D02*
X125649580Y-52801315D01*
X125744819Y-52325124D02*
X124744819Y-52325124D01*
X125125771Y-52325124D02*
X125078152Y-52229886D01*
X125078152Y-52229886D02*
X125078152Y-52039410D01*
X125078152Y-52039410D02*
X125125771Y-51944172D01*
X125125771Y-51944172D02*
X125173390Y-51896553D01*
X125173390Y-51896553D02*
X125268628Y-51848934D01*
X125268628Y-51848934D02*
X125554342Y-51848934D01*
X125554342Y-51848934D02*
X125649580Y-51896553D01*
X125649580Y-51896553D02*
X125697200Y-51944172D01*
X125697200Y-51944172D02*
X125744819Y-52039410D01*
X125744819Y-52039410D02*
X125744819Y-52229886D01*
X125744819Y-52229886D02*
X125697200Y-52325124D01*
X125697200Y-51039410D02*
X125744819Y-51134648D01*
X125744819Y-51134648D02*
X125744819Y-51325124D01*
X125744819Y-51325124D02*
X125697200Y-51420362D01*
X125697200Y-51420362D02*
X125601961Y-51467981D01*
X125601961Y-51467981D02*
X125221009Y-51467981D01*
X125221009Y-51467981D02*
X125125771Y-51420362D01*
X125125771Y-51420362D02*
X125078152Y-51325124D01*
X125078152Y-51325124D02*
X125078152Y-51134648D01*
X125078152Y-51134648D02*
X125125771Y-51039410D01*
X125125771Y-51039410D02*
X125221009Y-50991791D01*
X125221009Y-50991791D02*
X125316247Y-50991791D01*
X125316247Y-50991791D02*
X125411485Y-51467981D01*
X125697200Y-50610838D02*
X125744819Y-50467981D01*
X125744819Y-50467981D02*
X125744819Y-50229886D01*
X125744819Y-50229886D02*
X125697200Y-50134648D01*
X125697200Y-50134648D02*
X125649580Y-50087029D01*
X125649580Y-50087029D02*
X125554342Y-50039410D01*
X125554342Y-50039410D02*
X125459104Y-50039410D01*
X125459104Y-50039410D02*
X125363866Y-50087029D01*
X125363866Y-50087029D02*
X125316247Y-50134648D01*
X125316247Y-50134648D02*
X125268628Y-50229886D01*
X125268628Y-50229886D02*
X125221009Y-50420362D01*
X125221009Y-50420362D02*
X125173390Y-50515600D01*
X125173390Y-50515600D02*
X125125771Y-50563219D01*
X125125771Y-50563219D02*
X125030533Y-50610838D01*
X125030533Y-50610838D02*
X124935295Y-50610838D01*
X124935295Y-50610838D02*
X124840057Y-50563219D01*
X124840057Y-50563219D02*
X124792438Y-50515600D01*
X124792438Y-50515600D02*
X124744819Y-50420362D01*
X124744819Y-50420362D02*
X124744819Y-50182267D01*
X124744819Y-50182267D02*
X124792438Y-50039410D01*
X125744819Y-49182267D02*
X125221009Y-49182267D01*
X125221009Y-49182267D02*
X125125771Y-49229886D01*
X125125771Y-49229886D02*
X125078152Y-49325124D01*
X125078152Y-49325124D02*
X125078152Y-49515600D01*
X125078152Y-49515600D02*
X125125771Y-49610838D01*
X125697200Y-49182267D02*
X125744819Y-49277505D01*
X125744819Y-49277505D02*
X125744819Y-49515600D01*
X125744819Y-49515600D02*
X125697200Y-49610838D01*
X125697200Y-49610838D02*
X125601961Y-49658457D01*
X125601961Y-49658457D02*
X125506723Y-49658457D01*
X125506723Y-49658457D02*
X125411485Y-49610838D01*
X125411485Y-49610838D02*
X125363866Y-49515600D01*
X125363866Y-49515600D02*
X125363866Y-49277505D01*
X125363866Y-49277505D02*
X125316247Y-49182267D01*
X125078152Y-48848933D02*
X125078152Y-48467981D01*
X124744819Y-48706076D02*
X125601961Y-48706076D01*
X125601961Y-48706076D02*
X125697200Y-48658457D01*
X125697200Y-48658457D02*
X125744819Y-48563219D01*
X125744819Y-48563219D02*
X125744819Y-48467981D01*
X125744819Y-46896552D02*
X125744819Y-47372742D01*
X125744819Y-47372742D02*
X124744819Y-47372742D01*
X125744819Y-46134647D02*
X125221009Y-46134647D01*
X125221009Y-46134647D02*
X125125771Y-46182266D01*
X125125771Y-46182266D02*
X125078152Y-46277504D01*
X125078152Y-46277504D02*
X125078152Y-46467980D01*
X125078152Y-46467980D02*
X125125771Y-46563218D01*
X125697200Y-46134647D02*
X125744819Y-46229885D01*
X125744819Y-46229885D02*
X125744819Y-46467980D01*
X125744819Y-46467980D02*
X125697200Y-46563218D01*
X125697200Y-46563218D02*
X125601961Y-46610837D01*
X125601961Y-46610837D02*
X125506723Y-46610837D01*
X125506723Y-46610837D02*
X125411485Y-46563218D01*
X125411485Y-46563218D02*
X125363866Y-46467980D01*
X125363866Y-46467980D02*
X125363866Y-46229885D01*
X125363866Y-46229885D02*
X125316247Y-46134647D01*
X125744819Y-45658456D02*
X124744819Y-45658456D01*
X125125771Y-45658456D02*
X125078152Y-45563218D01*
X125078152Y-45563218D02*
X125078152Y-45372742D01*
X125078152Y-45372742D02*
X125125771Y-45277504D01*
X125125771Y-45277504D02*
X125173390Y-45229885D01*
X125173390Y-45229885D02*
X125268628Y-45182266D01*
X125268628Y-45182266D02*
X125554342Y-45182266D01*
X125554342Y-45182266D02*
X125649580Y-45229885D01*
X125649580Y-45229885D02*
X125697200Y-45277504D01*
X125697200Y-45277504D02*
X125744819Y-45372742D01*
X125744819Y-45372742D02*
X125744819Y-45563218D01*
X125744819Y-45563218D02*
X125697200Y-45658456D01*
X130514820Y-66094404D02*
X131324343Y-66094404D01*
X131324343Y-66094404D02*
X131419581Y-66046785D01*
X131419581Y-66046785D02*
X131467201Y-65999166D01*
X131467201Y-65999166D02*
X131514820Y-65903928D01*
X131514820Y-65903928D02*
X131514820Y-65713452D01*
X131514820Y-65713452D02*
X131467201Y-65618214D01*
X131467201Y-65618214D02*
X131419581Y-65570595D01*
X131419581Y-65570595D02*
X131324343Y-65522976D01*
X131324343Y-65522976D02*
X130514820Y-65522976D01*
X130610058Y-65094404D02*
X130562439Y-65046785D01*
X130562439Y-65046785D02*
X130514820Y-64951547D01*
X130514820Y-64951547D02*
X130514820Y-64713452D01*
X130514820Y-64713452D02*
X130562439Y-64618214D01*
X130562439Y-64618214D02*
X130610058Y-64570595D01*
X130610058Y-64570595D02*
X130705296Y-64522976D01*
X130705296Y-64522976D02*
X130800534Y-64522976D01*
X130800534Y-64522976D02*
X130943391Y-64570595D01*
X130943391Y-64570595D02*
X131514820Y-65142023D01*
X131514820Y-65142023D02*
X131514820Y-64522976D01*
X141883332Y-64482080D02*
X141835713Y-64529700D01*
X141835713Y-64529700D02*
X141692856Y-64577319D01*
X141692856Y-64577319D02*
X141597618Y-64577319D01*
X141597618Y-64577319D02*
X141454761Y-64529700D01*
X141454761Y-64529700D02*
X141359523Y-64434461D01*
X141359523Y-64434461D02*
X141311904Y-64339223D01*
X141311904Y-64339223D02*
X141264285Y-64148747D01*
X141264285Y-64148747D02*
X141264285Y-64005890D01*
X141264285Y-64005890D02*
X141311904Y-63815414D01*
X141311904Y-63815414D02*
X141359523Y-63720176D01*
X141359523Y-63720176D02*
X141454761Y-63624938D01*
X141454761Y-63624938D02*
X141597618Y-63577319D01*
X141597618Y-63577319D02*
X141692856Y-63577319D01*
X141692856Y-63577319D02*
X141835713Y-63624938D01*
X141835713Y-63624938D02*
X141883332Y-63672557D01*
X142264285Y-63672557D02*
X142311904Y-63624938D01*
X142311904Y-63624938D02*
X142407142Y-63577319D01*
X142407142Y-63577319D02*
X142645237Y-63577319D01*
X142645237Y-63577319D02*
X142740475Y-63624938D01*
X142740475Y-63624938D02*
X142788094Y-63672557D01*
X142788094Y-63672557D02*
X142835713Y-63767795D01*
X142835713Y-63767795D02*
X142835713Y-63863033D01*
X142835713Y-63863033D02*
X142788094Y-64005890D01*
X142788094Y-64005890D02*
X142216666Y-64577319D01*
X142216666Y-64577319D02*
X142835713Y-64577319D01*
X139404818Y-68024404D02*
X140214341Y-68024404D01*
X140214341Y-68024404D02*
X140309579Y-67976785D01*
X140309579Y-67976785D02*
X140357199Y-67929166D01*
X140357199Y-67929166D02*
X140404818Y-67833928D01*
X140404818Y-67833928D02*
X140404818Y-67643452D01*
X140404818Y-67643452D02*
X140357199Y-67548214D01*
X140357199Y-67548214D02*
X140309579Y-67500595D01*
X140309579Y-67500595D02*
X140214341Y-67452976D01*
X140214341Y-67452976D02*
X139404818Y-67452976D01*
X140404818Y-66452976D02*
X140404818Y-67024404D01*
X140404818Y-66738690D02*
X139404818Y-66738690D01*
X139404818Y-66738690D02*
X139547675Y-66833928D01*
X139547675Y-66833928D02*
X139642913Y-66929166D01*
X139642913Y-66929166D02*
X139690532Y-67024404D01*
X141833332Y-62372080D02*
X141785713Y-62419700D01*
X141785713Y-62419700D02*
X141642856Y-62467319D01*
X141642856Y-62467319D02*
X141547618Y-62467319D01*
X141547618Y-62467319D02*
X141404761Y-62419700D01*
X141404761Y-62419700D02*
X141309523Y-62324461D01*
X141309523Y-62324461D02*
X141261904Y-62229223D01*
X141261904Y-62229223D02*
X141214285Y-62038747D01*
X141214285Y-62038747D02*
X141214285Y-61895890D01*
X141214285Y-61895890D02*
X141261904Y-61705414D01*
X141261904Y-61705414D02*
X141309523Y-61610176D01*
X141309523Y-61610176D02*
X141404761Y-61514938D01*
X141404761Y-61514938D02*
X141547618Y-61467319D01*
X141547618Y-61467319D02*
X141642856Y-61467319D01*
X141642856Y-61467319D02*
X141785713Y-61514938D01*
X141785713Y-61514938D02*
X141833332Y-61562557D01*
X142785713Y-62467319D02*
X142214285Y-62467319D01*
X142499999Y-62467319D02*
X142499999Y-61467319D01*
X142499999Y-61467319D02*
X142404761Y-61610176D01*
X142404761Y-61610176D02*
X142309523Y-61705414D01*
X142309523Y-61705414D02*
X142214285Y-61753033D01*
X131179581Y-68499166D02*
X131227201Y-68546785D01*
X131227201Y-68546785D02*
X131274820Y-68689642D01*
X131274820Y-68689642D02*
X131274820Y-68784880D01*
X131274820Y-68784880D02*
X131227201Y-68927737D01*
X131227201Y-68927737D02*
X131131962Y-69022975D01*
X131131962Y-69022975D02*
X131036724Y-69070594D01*
X131036724Y-69070594D02*
X130846248Y-69118213D01*
X130846248Y-69118213D02*
X130703391Y-69118213D01*
X130703391Y-69118213D02*
X130512915Y-69070594D01*
X130512915Y-69070594D02*
X130417677Y-69022975D01*
X130417677Y-69022975D02*
X130322439Y-68927737D01*
X130322439Y-68927737D02*
X130274820Y-68784880D01*
X130274820Y-68784880D02*
X130274820Y-68689642D01*
X130274820Y-68689642D02*
X130322439Y-68546785D01*
X130322439Y-68546785D02*
X130370058Y-68499166D01*
X130274820Y-68165832D02*
X130274820Y-67546785D01*
X130274820Y-67546785D02*
X130655772Y-67880118D01*
X130655772Y-67880118D02*
X130655772Y-67737261D01*
X130655772Y-67737261D02*
X130703391Y-67642023D01*
X130703391Y-67642023D02*
X130751010Y-67594404D01*
X130751010Y-67594404D02*
X130846248Y-67546785D01*
X130846248Y-67546785D02*
X131084343Y-67546785D01*
X131084343Y-67546785D02*
X131179581Y-67594404D01*
X131179581Y-67594404D02*
X131227201Y-67642023D01*
X131227201Y-67642023D02*
X131274820Y-67737261D01*
X131274820Y-67737261D02*
X131274820Y-68022975D01*
X131274820Y-68022975D02*
X131227201Y-68118213D01*
X131227201Y-68118213D02*
X131179581Y-68165832D01*
D11*
%TO.C,U2*%
X131900000Y-65332500D02*
X131900001Y-66132500D01*
X131900000Y-65332500D02*
X131900001Y-64532500D01*
X135020002Y-65332500D02*
X135020001Y-66132500D01*
X135020002Y-65332500D02*
X135020001Y-64532500D01*
X131950001Y-66632500D02*
X131620001Y-66872500D01*
X131620001Y-66392500D01*
X131950001Y-66632500D01*
G36*
X131950001Y-66632500D02*
G01*
X131620001Y-66872500D01*
X131620001Y-66392500D01*
X131950001Y-66632500D01*
G37*
%TO.C,J2*%
X132790002Y-70745000D02*
X143010001Y-70745000D01*
X143010001Y-73405000D02*
X143010001Y-70745000D01*
X132790002Y-73405000D02*
X132790002Y-70745000D01*
X132790002Y-73405000D02*
X143010001Y-73405000D01*
X131520001Y-73405000D02*
X130190001Y-73405000D01*
X130190001Y-73405000D02*
X130190001Y-72075000D01*
%TO.C,J1*%
X129125000Y-44875000D02*
X144125000Y-44875000D01*
X129125000Y-59875000D02*
X129125000Y-44875000D01*
X136625000Y-45075000D02*
X135625000Y-46075000D01*
X136625000Y-45075000D02*
X137625000Y-46075000D01*
X144125000Y-44875000D02*
X144125000Y-59875000D01*
X144125000Y-59875000D02*
X129125000Y-59875000D01*
%TO.C,C2*%
X139061252Y-64847500D02*
X138538746Y-64847500D01*
X139061252Y-63377500D02*
X138538746Y-63377500D01*
%TO.C,U1*%
X139389999Y-66202500D02*
X139059999Y-65962500D01*
X139389999Y-65722500D01*
X139389999Y-66202500D01*
G36*
X139389999Y-66202500D02*
G01*
X139059999Y-65962500D01*
X139389999Y-65722500D01*
X139389999Y-66202500D01*
G37*
X139110000Y-67262500D02*
X139109999Y-68062500D01*
X139110000Y-67262500D02*
X139109999Y-66462500D01*
X135989998Y-67262500D02*
X135989999Y-68062500D01*
X135989998Y-67262500D02*
X135989999Y-66462500D01*
%TO.C,C1*%
X139061252Y-62747500D02*
X138538746Y-62747500D01*
X139061252Y-61277500D02*
X138538746Y-61277500D01*
%TO.C,C3*%
X133178748Y-69137500D02*
X133701254Y-69137500D01*
X133178748Y-67667500D02*
X133701254Y-67667500D01*
%TD*%
M02*
