ISO-10303-21;
HEADER;
FILE_DESCRIPTION (( 'STEP AP214' ),
    '1' );
FILE_NAME ('200_60_1 DPT Sensor.STEP',
    '2026-07-21T22:38:47',
    ( '' ),
    ( '' ),
    'SwSTEP 2.0',
    'SolidWorks 2025',
    '' );
FILE_SCHEMA (( 'AUTOMOTIVE_DESIGN' ));
ENDSEC;

DATA;
#1 = UNCERTAINTY_MEASURE_WITH_UNIT (LENGTH_MEASURE( 1.000000000000000082E-05 ), #81, 'distance_accuracy_value', 'NONE');
#2 = DIRECTION ( 'NONE',  ( 0.000000000000000000, -0.000000000000000000, -1.000000000000000000 ) ) ;
#3 = AXIS2_PLACEMENT_3D ( 'NONE', #70, #46, #207 ) ;
#4 = VECTOR ( 'NONE', #113, 1000.000000000000000 ) ;
#5 = DIRECTION ( 'NONE',  ( 0.000000000000000000, 1.000000000000000000, 0.000000000000000000 ) ) ;
#6 = EDGE_CURVE ( 'NONE', #49, #191, #71, .T. ) ;
#7 = ORIENTED_EDGE ( 'NONE', *, *, #155, .T. ) ;
#8 = AXIS2_PLACEMENT_3D ( 'NONE', #66, #182, #159 ) ;
#9 =( GEOMETRIC_REPRESENTATION_CONTEXT ( 3 ) GLOBAL_UNCERTAINTY_ASSIGNED_CONTEXT ( ( #200 ) ) GLOBAL_UNIT_ASSIGNED_CONTEXT ( ( #198, #196, #154 ) ) REPRESENTATION_CONTEXT ( 'NONE', 'WORKASPACE' ) );
#10 = LINE ( 'NONE', #234, #261 ) ;
#11 = ORIENTED_EDGE ( 'NONE', *, *, #138, .T. ) ;
#12 = ORIENTED_EDGE ( 'NONE', *, *, #63, .T. ) ;
#13 = VECTOR ( 'NONE', #263, 1000.000000000000000 ) ;
#14 = EDGE_LOOP ( 'NONE', ( #50, #75 ) ) ;
#15 = FACE_OUTER_BOUND ( 'NONE', #208, .T. ) ;
#16 = DIRECTION ( 'NONE',  ( 0.000000000000000000, 0.000000000000000000, -1.000000000000000000 ) ) ;
#17 = AXIS2_PLACEMENT_3D ( 'NONE', #258, #262, #76 ) ;
#18 = ADVANCED_FACE ( 'NONE', ( #150 ), #86, .F. ) ;
#19 = LINE ( 'NONE', #176, #37 ) ;
#20 = PRODUCT_DEFINITION_CONTEXT ( 'detailed design', #77, 'design' ) ;
#21 = SURFACE_SIDE_STYLE ('',( #194 ) ) ;
#22 = EDGE_CURVE ( 'NONE', #212, #112, #189, .T. ) ;
#23 = DIRECTION ( 'NONE',  ( -0.000000000000000000, -1.000000000000000000, -0.000000000000000000 ) ) ;
#24 = PRESENTATION_LAYER_ASSIGNMENT (  '', '', ( #214 ) ) ;
#25 = CYLINDRICAL_SURFACE ( 'NONE', #219, 2.899999999999999467 ) ;
#26 = CARTESIAN_POINT ( 'NONE',  ( 0.000000000000000000, 0.6350000000000000089, -6.200000000000000178 ) ) ;
#27 = CARTESIAN_POINT ( 'NONE',  ( 3.200000000000000178, 2.880000000000000338, -3.100000000000000089 ) ) ;
#28 = CIRCLE ( 'NONE', #249, 2.899999999999999467 ) ;
#29 = DIRECTION ( 'NONE',  ( 1.000000000000000000, 0.000000000000000000, -0.000000000000000000 ) ) ;
#30 = EDGE_LOOP ( 'NONE', ( #211, #11, #12, #93 ) ) ;
#31 = FACE_OUTER_BOUND ( 'NONE', #131, .T. ) ;
#32 = CIRCLE ( 'NONE', #84, 2.899999999999999467 ) ;
#33 = ORIENTED_EDGE ( 'NONE', *, *, #42, .F. ) ;
#34 = ORIENTED_EDGE ( 'NONE', *, *, #109, .T. ) ;
#35 = PRODUCT_CONTEXT ( 'NONE', #246, 'mechanical' ) ;
#36 = ORIENTED_EDGE ( 'NONE', *, *, #187, .F. ) ;
#37 = VECTOR ( 'NONE', #79, 1000.000000000000000 ) ;
#38 = SURFACE_STYLE_USAGE ( .BOTH. , #21 ) ;
#39 = CARTESIAN_POINT ( 'NONE',  ( 3.200000000000000622, 2.880000000000000338, -0.2000000000000005107 ) ) ;
#40 = CARTESIAN_POINT ( 'NONE',  ( 6.400000000000000355, 0.6350000000000000089, 0.000000000000000000 ) ) ;
#41 = CARTESIAN_POINT ( 'NONE',  ( 0.000000000000000000, 0.6350000000000000089, -6.200000000000000178 ) ) ;
#42 = EDGE_CURVE ( 'NONE', #191, #235, #10, .T. ) ;
#43 = CARTESIAN_POINT ( 'NONE',  ( 3.200000000000000178, 0.6350000000000000089, -5.999999999999999112 ) ) ;
#44 = CARTESIAN_POINT ( 'NONE',  ( 0.000000000000000000, 0.6350000000000000089, -6.200000000000000178 ) ) ;
#45 = DIRECTION ( 'NONE',  ( 0.000000000000000000, 0.000000000000000000, -1.000000000000000000 ) ) ;
#46 = DIRECTION ( 'NONE',  ( 0.000000000000000000, 0.000000000000000000, 1.000000000000000000 ) ) ;
#47 = ORIENTED_EDGE ( 'NONE', *, *, #232, .T. ) ;
#48 = PRODUCT_DEFINITION_SHAPE ( 'NONE', 'NONE',  #192 ) ;
#49 = VERTEX_POINT ( 'NONE', #252 ) ;
#50 = ORIENTED_EDGE ( 'NONE', *, *, #123, .F. ) ;
#51 = AXIS2_PLACEMENT_3D ( 'NONE', #161, #5, #227 ) ;
#52 = ORIENTED_EDGE ( 'NONE', *, *, #172, .F. ) ;
#53 = ORIENTED_EDGE ( 'NONE', *, *, #264, .T. ) ;
#54 = ORIENTED_EDGE ( 'NONE', *, *, #185, .T. ) ;
#55 = LINE ( 'NONE', #94, #118 ) ;
#56 = CARTESIAN_POINT ( 'NONE',  ( 0.000000000000000000, 0.6350000000000000089, 0.000000000000000000 ) ) ;
#57 = ADVANCED_BREP_SHAPE_REPRESENTATION ( '200_60_1 DPT Sensor', ( #126, #3 ), #213 ) ;
#58 = ADVANCED_FACE ( 'NONE', ( #31 ), #146, .T. ) ;
#59 = CARTESIAN_POINT ( 'NONE',  ( 3.200000000000000178, 0.6350000000000000089, -3.100000000000000089 ) ) ;
#60 = CARTESIAN_POINT ( 'NONE',  ( 0.000000000000000000, 0.000000000000000000, -6.200000000000000178 ) ) ;
#61 = AXIS2_PLACEMENT_3D ( 'NONE', #27, #222, #85 ) ;
#62 = DIRECTION ( 'NONE',  ( -1.000000000000000000, -0.000000000000000000, -0.000000000000000000 ) ) ;
#63 = EDGE_CURVE ( 'NONE', #110, #190, #32, .T. ) ;
#64 = LINE ( 'NONE', #228, #180 ) ;
#65 = ADVANCED_FACE ( 'NONE', ( #220 ), #96, .F. ) ;
#66 = CARTESIAN_POINT ( 'NONE',  ( 6.400000000000000355, 0.6350000000000000089, 0.000000000000000000 ) ) ;
#67 = VECTOR ( 'NONE', #141, 1000.000000000000000 ) ;
#68 = AXIS2_PLACEMENT_3D ( 'NONE', #59, #173, #218 ) ;
#69 = ORIENTED_EDGE ( 'NONE', *, *, #204, .T. ) ;
#70 = CARTESIAN_POINT ( 'NONE',  ( 0.000000000000000000, 0.000000000000000000, 0.000000000000000000 ) ) ;
#71 = LINE ( 'NONE', #74, #99 ) ;
#72 = CARTESIAN_POINT ( 'NONE',  ( 3.200000000000000178, 0.6350000000000000089, -3.100000000000000089 ) ) ;
#73 = VERTEX_POINT ( 'NONE', #244 ) ;
#74 = CARTESIAN_POINT ( 'NONE',  ( 0.000000000000000000, 0.000000000000000000, 0.000000000000000000 ) ) ;
#75 = ORIENTED_EDGE ( 'NONE', *, *, #63, .F. ) ;
#76 = DIRECTION ( 'NONE',  ( 0.000000000000000000, -0.000000000000000000, -1.000000000000000000 ) ) ;
#77 = APPLICATION_CONTEXT ( 'automotive_design' ) ;
#78 = EDGE_CURVE ( 'NONE', #105, #128, #55, .T. ) ;
#79 = DIRECTION ( 'NONE',  ( -0.000000000000000000, -1.000000000000000000, -0.000000000000000000 ) ) ;
#80 = PRESENTATION_STYLE_ASSIGNMENT (( #38 ) ) ;
#81 =( LENGTH_UNIT ( ) NAMED_UNIT ( * ) SI_UNIT ( .MILLI., .METRE. ) );
#82 = VECTOR ( 'NONE', #62, 1000.000000000000000 ) ;
#83 = PLANE ( 'NONE',  #174 ) ;
#84 = AXIS2_PLACEMENT_3D ( 'NONE', #72, #120, #157 ) ;
#85 = DIRECTION ( 'NONE',  ( 0.000000000000000000, 0.000000000000000000, -1.000000000000000000 ) ) ;
#86 = PLANE ( 'NONE',  #202 ) ;
#87 = APPLICATION_PROTOCOL_DEFINITION ( 'draft international standard', 'automotive_design', 1998, #77 ) ;
#88 = ORIENTED_EDGE ( 'NONE', *, *, #22, .T. ) ;
#89 = EDGE_LOOP ( 'NONE', ( #69, #132, #36, #236 ) ) ;
#90 = ORIENTED_EDGE ( 'NONE', *, *, #109, .F. ) ;
#91 = LINE ( 'NONE', #162, #266 ) ;
#92 = CARTESIAN_POINT ( 'NONE',  ( 3.200000000000000622, 2.880000000000000338, -0.2000000000000005107 ) ) ;
#93 = ORIENTED_EDGE ( 'NONE', *, *, #183, .F. ) ;
#94 = CARTESIAN_POINT ( 'NONE',  ( 6.400000000000000355, 0.6350000000000000089, -6.200000000000000178 ) ) ;
#95 = CARTESIAN_POINT ( 'NONE',  ( 6.400000000000000355, 0.6350000000000000089, 0.000000000000000000 ) ) ;
#96 = PLANE ( 'NONE',  #233 ) ;
#97 = FILL_AREA_STYLE_COLOUR ( '', #152 ) ;
#98 = PRODUCT_DEFINITION_FORMATION_WITH_SPECIFIED_SOURCE ( 'ANY', '', #144, .NOT_KNOWN. ) ;
#99 = VECTOR ( 'NONE', #168, 1000.000000000000000 ) ;
#100 = DIRECTION ( 'NONE',  ( -0.000000000000000000, -1.000000000000000000, -0.000000000000000000 ) ) ;
#101 = CARTESIAN_POINT ( 'NONE',  ( 0.000000000000000000, 0.6350000000000000089, -6.200000000000000178 ) ) ;
#102 = DIRECTION ( 'NONE',  ( -0.000000000000000000, -1.000000000000000000, -0.000000000000000000 ) ) ;
#103 = CARTESIAN_POINT ( 'NONE',  ( 0.000000000000000000, 0.000000000000000000, 0.000000000000000000 ) ) ;
#104 = EDGE_LOOP ( 'NONE', ( #114, #165, #243, #33 ) ) ;
#105 = VERTEX_POINT ( 'NONE', #179 ) ;
#106 = VECTOR ( 'NONE', #145, 1000.000000000000000 ) ;
#107 = EDGE_CURVE ( 'NONE', #212, #49, #178, .T. ) ;
#108 = VERTEX_POINT ( 'NONE', #39 ) ;
#109 = EDGE_CURVE ( 'NONE', #259, #105, #265, .T. ) ;
#110 = VERTEX_POINT ( 'NONE', #151 ) ;
#111 = EDGE_LOOP ( 'NONE', ( #256, #257, #255, #169 ) ) ;
#112 = VERTEX_POINT ( 'NONE', #56 ) ;
#113 = DIRECTION ( 'NONE',  ( 0.000000000000000000, 0.000000000000000000, -1.000000000000000000 ) ) ;
#114 = ORIENTED_EDGE ( 'NONE', *, *, #6, .F. ) ;
#115 = DIRECTION ( 'NONE',  ( 0.000000000000000000, 1.000000000000000000, 0.000000000000000000 ) ) ;
#116 = DIRECTION ( 'NONE',  ( -0.000000000000000000, -1.000000000000000000, -0.000000000000000000 ) ) ;
#117 = VECTOR ( 'NONE', #242, 1000.000000000000000 ) ;
#118 = VECTOR ( 'NONE', #119, 1000.000000000000000 ) ;
#119 = DIRECTION ( 'NONE',  ( -0.000000000000000000, -1.000000000000000000, -0.000000000000000000 ) ) ;
#120 = DIRECTION ( 'NONE',  ( 0.000000000000000000, 1.000000000000000000, 0.000000000000000000 ) ) ;
#121 = CARTESIAN_POINT ( 'NONE',  ( 6.400000000000000355, 0.6350000000000000089, 0.000000000000000000 ) ) ;
#122 = CARTESIAN_POINT ( 'NONE',  ( 3.200000000000000178, 2.880000000000000338, -3.100000000000000089 ) ) ;
#123 = EDGE_CURVE ( 'NONE', #190, #110, #175, .T. ) ;
#124 = PLANE ( 'NONE',  #229 ) ;
#125 = FACE_OUTER_BOUND ( 'NONE', #238, .T. ) ;
#126 = MANIFOLD_SOLID_BREP ( 'Boss-Extrude2', #133 ) ;
#127 = EDGE_LOOP ( 'NONE', ( #171, #52, #188, #47 ) ) ;
#128 = VERTEX_POINT ( 'NONE', #136 ) ;
#129 = CIRCLE ( 'NONE', #51, 2.899999999999999467 ) ;
#130 = DIRECTION ( 'NONE',  ( 0.000000000000000000, 1.000000000000000000, 0.000000000000000000 ) ) ;
#131 = EDGE_LOOP ( 'NONE', ( #167, #54 ) ) ;
#132 = ORIENTED_EDGE ( 'NONE', *, *, #107, .F. ) ;
#133 = CLOSED_SHELL ( 'NONE', ( #221, #18, #65, #224, #197, #147, #226, #254, #58 ) ) ;
#134 = CARTESIAN_POINT ( 'NONE',  ( 0.000000000000000000, 0.6350000000000000089, 0.000000000000000000 ) ) ;
#135 = ORIENTED_EDGE ( 'NONE', *, *, #138, .F. ) ;
#136 = CARTESIAN_POINT ( 'NONE',  ( 6.400000000000000355, 0.000000000000000000, -6.200000000000000178 ) ) ;
#137 = CARTESIAN_POINT ( 'NONE',  ( 0.000000000000000000, 0.6350000000000000089, 0.000000000000000000 ) ) ;
#138 = EDGE_CURVE ( 'NONE', #108, #110, #237, .T. ) ;
#139 =( NAMED_UNIT ( * ) SI_UNIT ( $, .STERADIAN. ) SOLID_ANGLE_UNIT ( ) );
#140 = DIRECTION ( 'NONE',  ( 0.000000000000000000, -1.000000000000000000, 0.000000000000000000 ) ) ;
#141 = DIRECTION ( 'NONE',  ( -1.000000000000000000, -0.000000000000000000, -0.000000000000000000 ) ) ;
#142 = LINE ( 'NONE', #60, #82 ) ;
#143 = DIRECTION ( 'NONE',  ( 0.000000000000000000, 0.000000000000000000, -1.000000000000000000 ) ) ;
#144 = PRODUCT ( '200_60_1 DPT Sensor', '200_60_1 DPT Sensor', '', ( #35 ) ) ;
#145 = DIRECTION ( 'NONE',  ( -0.000000000000000000, -0.000000000000000000, 1.000000000000000000 ) ) ;
#146 = PLANE ( 'NONE',  #239 ) ;
#147 = ADVANCED_FACE ( 'NONE', ( #215, #15 ), #170, .F. ) ;
#148 = DIRECTION ( 'NONE',  ( 0.000000000000000000, 0.000000000000000000, -1.000000000000000000 ) ) ;
#149 = ORIENTED_EDGE ( 'NONE', *, *, #78, .F. ) ;
#150 = FACE_OUTER_BOUND ( 'NONE', #111, .T. ) ;
#151 = CARTESIAN_POINT ( 'NONE',  ( 3.200000000000000622, 0.6350000000000000089, -0.2000000000000005107 ) ) ;
#152 = COLOUR_RGB ( '',0.7921568627450980005, 0.8196078431372548767, 0.9333333333333333481 ) ;
#153 = LINE ( 'NONE', #134, #117 ) ;
#154 =( NAMED_UNIT ( * ) SI_UNIT ( $, .STERADIAN. ) SOLID_ANGLE_UNIT ( ) );
#155 = EDGE_CURVE ( 'NONE', #112, #259, #153, .T. ) ;
#156 = EDGE_CURVE ( 'NONE', #73, #108, #28, .T. ) ;
#157 = DIRECTION ( 'NONE',  ( 0.000000000000000000, 0.000000000000000000, 1.000000000000000000 ) ) ;
#158 = CARTESIAN_POINT ( 'NONE',  ( 0.000000000000000000, 0.000000000000000000, 0.000000000000000000 ) ) ;
#159 = DIRECTION ( 'NONE',  ( 0.000000000000000000, 0.000000000000000000, 1.000000000000000000 ) ) ;
#160 = LINE ( 'NONE', #101, #67 ) ;
#161 = CARTESIAN_POINT ( 'NONE',  ( 3.200000000000000178, 2.880000000000000338, -3.100000000000000089 ) ) ;
#162 = CARTESIAN_POINT ( 'NONE',  ( 6.400000000000000355, 0.000000000000000000, 0.000000000000000000 ) ) ;
#163 = SHAPE_DEFINITION_REPRESENTATION ( #48, #57 ) ;
#164 = CARTESIAN_POINT ( 'NONE',  ( 0.000000000000000000, 0.6350000000000000089, 0.000000000000000000 ) ) ;
#165 = ORIENTED_EDGE ( 'NONE', *, *, #204, .F. ) ;
#166 = DIRECTION ( 'NONE',  ( 0.000000000000000000, -0.000000000000000000, 1.000000000000000000 ) ) ;
#167 = ORIENTED_EDGE ( 'NONE', *, *, #156, .T. ) ;
#168 = DIRECTION ( 'NONE',  ( -0.000000000000000000, -0.000000000000000000, 1.000000000000000000 ) ) ;
#169 = ORIENTED_EDGE ( 'NONE', *, *, #107, .T. ) ;
#170 = PLANE ( 'NONE',  #17 ) ;
#171 = ORIENTED_EDGE ( 'NONE', *, *, #42, .T. ) ;
#172 = EDGE_CURVE ( 'NONE', #259, #235, #217, .T. ) ;
#173 = DIRECTION ( 'NONE',  ( 0.000000000000000000, 1.000000000000000000, 0.000000000000000000 ) ) ;
#174 = AXIS2_PLACEMENT_3D ( 'NONE', #26, #206, #29 ) ;
#175 = CIRCLE ( 'NONE', #68, 2.899999999999999467 ) ;
#176 = CARTESIAN_POINT ( 'NONE',  ( 3.200000000000000178, 2.880000000000000338, -5.999999999999999112 ) ) ;
#177 = PRODUCT_RELATED_PRODUCT_CATEGORY ( 'part', '', ( #144 ) ) ;
#178 = LINE ( 'NONE', #41, #223 ) ;
#179 = CARTESIAN_POINT ( 'NONE',  ( 6.400000000000000355, 0.6350000000000000089, -6.200000000000000178 ) ) ;
#180 = VECTOR ( 'NONE', #100, 1000.000000000000000 ) ;
#181 = CYLINDRICAL_SURFACE ( 'NONE', #61, 2.899999999999999467 ) ;
#182 = DIRECTION ( 'NONE',  ( -1.000000000000000000, 0.000000000000000000, 0.000000000000000000 ) ) ;
#183 = EDGE_CURVE ( 'NONE', #73, #190, #19, .T. ) ;
#184 = CARTESIAN_POINT ( 'NONE',  ( 6.400000000000000355, 0.000000000000000000, 0.000000000000000000 ) ) ;
#185 = EDGE_CURVE ( 'NONE', #108, #73, #129, .T. ) ;
#186 = ORIENTED_EDGE ( 'NONE', *, *, #183, .T. ) ;
#187 = EDGE_CURVE ( 'NONE', #105, #212, #160, .T. ) ;
#188 = ORIENTED_EDGE ( 'NONE', *, *, #155, .F. ) ;
#189 = LINE ( 'NONE', #251, #106 ) ;
#190 = VERTEX_POINT ( 'NONE', #43 ) ;
#191 = VERTEX_POINT ( 'NONE', #103 ) ;
#192 = PRODUCT_DEFINITION ( 'UNKNOWN', '', #98, #20 ) ;
#193 = EDGE_LOOP ( 'NONE', ( #135, #195, #186, #230 ) ) ;
#194 = SURFACE_STYLE_FILL_AREA ( #199 ) ;
#195 = ORIENTED_EDGE ( 'NONE', *, *, #156, .F. ) ;
#196 =( NAMED_UNIT ( * ) PLANE_ANGLE_UNIT ( ) SI_UNIT ( $, .RADIAN. ) );
#197 = ADVANCED_FACE ( 'NONE', ( #248 ), #83, .F. ) ;
#198 =( LENGTH_UNIT ( ) NAMED_UNIT ( * ) SI_UNIT ( .MILLI., .METRE. ) );
#199 = FILL_AREA_STYLE ('',( #97 ) ) ;
#200 = UNCERTAINTY_MEASURE_WITH_UNIT (LENGTH_MEASURE( 1.000000000000000082E-05 ), #198, 'distance_accuracy_value', 'NONE');
#201 = DIRECTION ( 'NONE',  ( -1.000000000000000000, 0.000000000000000000, -0.000000000000000000 ) ) ;
#202 = AXIS2_PLACEMENT_3D ( 'NONE', #164, #210, #148 ) ;
#203 = FACE_OUTER_BOUND ( 'NONE', #104, .T. ) ;
#204 = EDGE_CURVE ( 'NONE', #128, #49, #142, .T. ) ;
#205 = FACE_OUTER_BOUND ( 'NONE', #193, .T. ) ;
#206 = DIRECTION ( 'NONE',  ( 0.000000000000000000, 0.000000000000000000, 1.000000000000000000 ) ) ;
#207 = DIRECTION ( 'NONE',  ( 1.000000000000000000, 0.000000000000000000, 0.000000000000000000 ) ) ;
#208 = EDGE_LOOP ( 'NONE', ( #88, #7, #34, #241 ) ) ;
#209 = DIRECTION ( 'NONE',  ( 1.000000000000000000, 0.000000000000000000, 0.000000000000000000 ) ) ;
#210 = DIRECTION ( 'NONE',  ( 1.000000000000000000, -0.000000000000000000, 0.000000000000000000 ) ) ;
#211 = ORIENTED_EDGE ( 'NONE', *, *, #185, .F. ) ;
#212 = VERTEX_POINT ( 'NONE', #44 ) ;
#213 =( GEOMETRIC_REPRESENTATION_CONTEXT ( 3 ) GLOBAL_UNCERTAINTY_ASSIGNED_CONTEXT ( ( #1 ) ) GLOBAL_UNIT_ASSIGNED_CONTEXT ( ( #81, #245, #139 ) ) REPRESENTATION_CONTEXT ( 'NONE', 'WORKASPACE' ) );
#214 = STYLED_ITEM ( 'NONE', ( #80 ), #126 ) ;
#215 = FACE_BOUND ( 'NONE', #14, .T. ) ;
#216 = DIRECTION ( 'NONE',  ( 0.000000000000000000, 0.000000000000000000, 1.000000000000000000 ) ) ;
#217 = LINE ( 'NONE', #40, #260 ) ;
#218 = DIRECTION ( 'NONE',  ( 0.000000000000000000, 0.000000000000000000, 1.000000000000000000 ) ) ;
#219 = AXIS2_PLACEMENT_3D ( 'NONE', #122, #102, #143 ) ;
#220 = FACE_OUTER_BOUND ( 'NONE', #127, .T. ) ;
#221 = ADVANCED_FACE ( 'NONE', ( #247 ), #25, .T. ) ;
#222 = DIRECTION ( 'NONE',  ( -0.000000000000000000, -1.000000000000000000, -0.000000000000000000 ) ) ;
#223 = VECTOR ( 'NONE', #23, 1000.000000000000000 ) ;
#224 = ADVANCED_FACE ( 'NONE', ( #125 ), #225, .F. ) ;
#225 = PLANE ( 'NONE',  #8 ) ;
#226 = ADVANCED_FACE ( 'NONE', ( #203 ), #124, .T. ) ;
#227 = DIRECTION ( 'NONE',  ( 0.000000000000000000, 0.000000000000000000, 1.000000000000000000 ) ) ;
#228 = CARTESIAN_POINT ( 'NONE',  ( 0.000000000000000000, 0.6350000000000000089, 0.000000000000000000 ) ) ;
#229 = AXIS2_PLACEMENT_3D ( 'NONE', #158, #140, #2 ) ;
#230 = ORIENTED_EDGE ( 'NONE', *, *, #123, .T. ) ;
#231 = CARTESIAN_POINT ( 'NONE',  ( 3.200000000000000178, 2.880000000000000338, -3.100000000000000089 ) ) ;
#232 = EDGE_CURVE ( 'NONE', #112, #191, #64, .T. ) ;
#233 = AXIS2_PLACEMENT_3D ( 'NONE', #137, #16, #201 ) ;
#234 = CARTESIAN_POINT ( 'NONE',  ( 0.000000000000000000, 0.000000000000000000, 0.000000000000000000 ) ) ;
#235 = VERTEX_POINT ( 'NONE', #184 ) ;
#236 = ORIENTED_EDGE ( 'NONE', *, *, #78, .T. ) ;
#237 = LINE ( 'NONE', #92, #13 ) ;
#238 = EDGE_LOOP ( 'NONE', ( #53, #149, #90, #253 ) ) ;
#239 = AXIS2_PLACEMENT_3D ( 'NONE', #231, #130, #166 ) ;
#240 = CARTESIAN_POINT ( 'NONE',  ( 3.200000000000000178, 2.880000000000000338, -3.100000000000000089 ) ) ;
#241 = ORIENTED_EDGE ( 'NONE', *, *, #187, .T. ) ;
#242 = DIRECTION ( 'NONE',  ( 1.000000000000000000, 0.000000000000000000, 0.000000000000000000 ) ) ;
#243 = ORIENTED_EDGE ( 'NONE', *, *, #264, .F. ) ;
#244 = CARTESIAN_POINT ( 'NONE',  ( 3.200000000000000178, 2.880000000000000338, -5.999999999999999112 ) ) ;
#245 =( NAMED_UNIT ( * ) PLANE_ANGLE_UNIT ( ) SI_UNIT ( $, .RADIAN. ) );
#246 = APPLICATION_CONTEXT ( 'automotive_design' ) ;
#247 = FACE_OUTER_BOUND ( 'NONE', #30, .T. ) ;
#248 = FACE_OUTER_BOUND ( 'NONE', #89, .T. ) ;
#249 = AXIS2_PLACEMENT_3D ( 'NONE', #240, #115, #216 ) ;
#250 = MECHANICAL_DESIGN_GEOMETRIC_PRESENTATION_REPRESENTATION (  '', ( #214 ), #9 ) ;
#251 = CARTESIAN_POINT ( 'NONE',  ( 0.000000000000000000, 0.6350000000000000089, 0.000000000000000000 ) ) ;
#252 = CARTESIAN_POINT ( 'NONE',  ( 0.000000000000000000, 0.000000000000000000, -6.200000000000000178 ) ) ;
#253 = ORIENTED_EDGE ( 'NONE', *, *, #172, .T. ) ;
#254 = ADVANCED_FACE ( 'NONE', ( #205 ), #181, .T. ) ;
#255 = ORIENTED_EDGE ( 'NONE', *, *, #22, .F. ) ;
#256 = ORIENTED_EDGE ( 'NONE', *, *, #6, .T. ) ;
#257 = ORIENTED_EDGE ( 'NONE', *, *, #232, .F. ) ;
#258 = CARTESIAN_POINT ( 'NONE',  ( 0.000000000000000000, 0.6350000000000000089, 0.000000000000000000 ) ) ;
#259 = VERTEX_POINT ( 'NONE', #121 ) ;
#260 = VECTOR ( 'NONE', #116, 1000.000000000000000 ) ;
#261 = VECTOR ( 'NONE', #209, 1000.000000000000000 ) ;
#262 = DIRECTION ( 'NONE',  ( 0.000000000000000000, -1.000000000000000000, 0.000000000000000000 ) ) ;
#263 = DIRECTION ( 'NONE',  ( -0.000000000000000000, -1.000000000000000000, -0.000000000000000000 ) ) ;
#264 = EDGE_CURVE ( 'NONE', #235, #128, #91, .T. ) ;
#265 = LINE ( 'NONE', #95, #4 ) ;
#266 = VECTOR ( 'NONE', #45, 1000.000000000000000 ) ;
#267 = APPLICATION_PROTOCOL_DEFINITION ( 'draft international standard', 'automotive_design', 1998, #246 ) ;
ENDSEC;
END-ISO-10303-21;
