%TF.GenerationSoftware,KiCad,Pcbnew,8.0.4*%
%TF.CreationDate,2026-02-23T17:45:16-05:00*%
%TF.ProjectId,PlanarTransformer,506c616e-6172-4547-9261-6e73666f726d,rev?*%
%TF.SameCoordinates,Original*%
%TF.FileFunction,Legend,Top*%
%TF.FilePolarity,Positive*%
%FSLAX46Y46*%
G04 Gerber Fmt 4.6, Leading zero omitted, Abs format (unit mm)*
G04 Created by KiCad (PCBNEW 8.0.4) date 2026-02-23 17:45:16*
%MOMM*%
%LPD*%
G01*
G04 APERTURE LIST*
%ADD10C,0.450000*%
%ADD11C,0.120000*%
G04 APERTURE END LIST*
D10*
X175425000Y-70000000D02*
G75*
G02*
X174975000Y-70000000I-225000J0D01*
G01*
X174975000Y-70000000D02*
G75*
G02*
X175425000Y-70000000I225000J0D01*
G01*
X153625000Y-70000000D02*
G75*
G02*
X153175000Y-70000000I-225000J0D01*
G01*
X153175000Y-70000000D02*
G75*
G02*
X153625000Y-70000000I225000J0D01*
G01*
D11*
%TO.C,REF\u002A\u002A*%
X177295000Y-71385000D02*
X177295000Y-71260000D01*
X177208276Y-71385000D02*
X177295000Y-71385000D01*
X175905000Y-71385000D02*
X177295000Y-71385000D01*
X175905000Y-71385000D02*
X175991724Y-71385000D01*
X175905000Y-71385000D02*
X175905000Y-71260000D01*
X175905000Y-70700000D02*
X175905000Y-70015000D01*
X175905000Y-70015000D02*
X176600000Y-70015000D01*
X177295000Y-74785000D02*
X177295000Y-74660000D01*
X177208276Y-74785000D02*
X177295000Y-74785000D01*
X175905000Y-74785000D02*
X177295000Y-74785000D01*
X175905000Y-74785000D02*
X175991724Y-74785000D01*
X175905000Y-74785000D02*
X175905000Y-74660000D01*
X175905000Y-74100000D02*
X175905000Y-73415000D01*
X175905000Y-73415000D02*
X176600000Y-73415000D01*
X152695000Y-74785000D02*
X152000000Y-74785000D01*
X152695000Y-74100000D02*
X152695000Y-74785000D01*
X152695000Y-73415000D02*
X152695000Y-73540000D01*
X152695000Y-73415000D02*
X152608276Y-73415000D01*
X152695000Y-73415000D02*
X151305000Y-73415000D01*
X151391724Y-73415000D02*
X151305000Y-73415000D01*
X151305000Y-73415000D02*
X151305000Y-73540000D01*
X151305000Y-70015000D02*
X151305000Y-70140000D01*
X151391724Y-70015000D02*
X151305000Y-70015000D01*
X152695000Y-70015000D02*
X151305000Y-70015000D01*
X152695000Y-70015000D02*
X152608276Y-70015000D01*
X152695000Y-70015000D02*
X152695000Y-70140000D01*
X152695000Y-70700000D02*
X152695000Y-71385000D01*
X152695000Y-71385000D02*
X152000000Y-71385000D01*
%TD*%
M02*
