%TF.GenerationSoftware,KiCad,Pcbnew,9.0.6*%
%TF.CreationDate,2026-04-07T18:42:55-04:00*%
%TF.ProjectId,PlanarTransformer,506c616e-6172-4547-9261-6e73666f726d,rev?*%
%TF.SameCoordinates,Original*%
%TF.FileFunction,Copper,L1,Top*%
%TF.FilePolarity,Positive*%
%FSLAX46Y46*%
G04 Gerber Fmt 4.6, Leading zero omitted, Abs format (unit mm)*
G04 Created by KiCad (PCBNEW 9.0.6) date 2026-04-07 18:42:55*
%MOMM*%
%LPD*%
G01*
G04 APERTURE LIST*
%TA.AperFunction,NonConductor*%
%ADD10C,0.000000*%
%TD*%
%TA.AperFunction,EtchedComponent*%
%ADD11C,0.200000*%
%TD*%
%TA.AperFunction,ComponentPad*%
%ADD12R,1.700000X1.700000*%
%TD*%
%TA.AperFunction,ComponentPad*%
%ADD13C,1.700000*%
%TD*%
%TA.AperFunction,ComponentPad*%
%ADD14C,0.600000*%
%TD*%
G04 APERTURE END LIST*
D10*
%TA.AperFunction,NonConductor*%
G36*
X177500000Y-73300000D02*
G01*
X175800000Y-73300000D01*
X174797390Y-72485417D01*
X175800000Y-71500000D01*
X177500000Y-71500000D01*
X177500000Y-73300000D01*
G37*
%TD.AperFunction*%
D11*
%TO.C,REF\u002A\u002A*%
X170725456Y-71837845D02*
X170531101Y-71857935D01*
X174710235Y-71489222D02*
X174797390Y-72485417D01*
X174797390Y-72485417D02*
X175494727Y-72424408D01*
X154288243Y-73275915D02*
G75*
G02*
X174710235Y-71489222I10210996J893346D01*
G01*
X154686721Y-73241053D02*
G75*
G02*
X174311757Y-71524085I9812518J858484D01*
G01*
X155085199Y-73206191D02*
G75*
G02*
X173913279Y-71558947I9414040J823622D01*
G01*
X155483677Y-73171328D02*
G75*
G02*
X173514801Y-71593809I9015562J788759D01*
G01*
X155882155Y-73136466D02*
G75*
G02*
X173116323Y-71628672I8617084J753897D01*
G01*
X156280633Y-73101604D02*
G75*
G02*
X172717845Y-71663534I8218606J719035D01*
G01*
X156679111Y-73066741D02*
G75*
G02*
X172319367Y-71698396I7820128J684173D01*
G01*
X157077588Y-73031879D02*
G75*
G02*
X171920890Y-71733259I7421651J649310D01*
G01*
X157476066Y-72997017D02*
G75*
G02*
X171522412Y-71768121I7023173J614448D01*
G01*
X157874544Y-72962155D02*
G75*
G02*
X171123934Y-71802983I6624695J579586D01*
G01*
X170725456Y-71837845D02*
G75*
G02*
X157874544Y-72962155I-6425456J-562155D01*
G01*
X171123934Y-71802983D02*
G75*
G02*
X157476066Y-72997017I-6823934J-597017D01*
G01*
X171522412Y-71768121D02*
G75*
G02*
X157077588Y-73031879I-7222412J-631879D01*
G01*
X171920889Y-71733259D02*
G75*
G02*
X156679111Y-73066741I-7620889J-666741D01*
G01*
X172319367Y-71698396D02*
G75*
G02*
X156280633Y-73101604I-8019367J-701604D01*
G01*
X172717845Y-71663534D02*
G75*
G02*
X155882155Y-73136466I-8417845J-736466D01*
G01*
X173116323Y-71628672D02*
G75*
G02*
X155483677Y-73171328I-8816323J-771328D01*
G01*
X173514801Y-71593809D02*
G75*
G02*
X155085199Y-73206191I-9214801J-806191D01*
G01*
X173913279Y-71558947D02*
G75*
G02*
X154686721Y-73241053I-9613279J-841053D01*
G01*
X174311757Y-71524085D02*
G75*
G02*
X154288243Y-73275915I-10011757J-875915D01*
G01*
%TD*%
D12*
%TO.P,REF\u002A\u002A,1*%
%TO.N,N/C*%
X152000000Y-72400000D03*
D13*
%TO.P,REF\u002A\u002A,2*%
X152000000Y-69860000D03*
%TD*%
D14*
%TO.P,REF\u002A\u002A,0*%
%TO.N,N/C*%
X170507973Y-71861820D03*
%TD*%
D12*
%TO.P,REF\u002A\u002A,1*%
%TO.N,N/C*%
X176600000Y-72400000D03*
D13*
%TO.P,REF\u002A\u002A,2*%
X176600000Y-69860000D03*
%TD*%
M02*
