%TF.GenerationSoftware,KiCad,Pcbnew,9.0.7*%
%TF.CreationDate,2026-03-23T18:14:06-04:00*%
%TF.ProjectId,ADC-Testing,4144432d-5465-4737-9469-6e672e6b6963,rev?*%
%TF.SameCoordinates,Original*%
%TF.FileFunction,Copper,L4,Bot*%
%TF.FilePolarity,Positive*%
%FSLAX46Y46*%
G04 Gerber Fmt 4.6, Leading zero omitted, Abs format (unit mm)*
G04 Created by KiCad (PCBNEW 9.0.7) date 2026-03-23 18:14:06*
%MOMM*%
%LPD*%
G01*
G04 APERTURE LIST*
G04 Aperture macros list*
%AMRoundRect*
0 Rectangle with rounded corners*
0 $1 Rounding radius*
0 $2 $3 $4 $5 $6 $7 $8 $9 X,Y pos of 4 corners*
0 Add a 4 corners polygon primitive as box body*
4,1,4,$2,$3,$4,$5,$6,$7,$8,$9,$2,$3,0*
0 Add four circle primitives for the rounded corners*
1,1,$1+$1,$2,$3*
1,1,$1+$1,$4,$5*
1,1,$1+$1,$6,$7*
1,1,$1+$1,$8,$9*
0 Add four rect primitives between the rounded corners*
20,1,$1+$1,$2,$3,$4,$5,0*
20,1,$1+$1,$4,$5,$6,$7,0*
20,1,$1+$1,$6,$7,$8,$9,0*
20,1,$1+$1,$8,$9,$2,$3,0*%
G04 Aperture macros list end*
%TA.AperFunction,ComponentPad*%
%ADD10C,2.000000*%
%TD*%
%TA.AperFunction,ComponentPad*%
%ADD11RoundRect,0.250000X-0.550000X-0.550000X0.550000X-0.550000X0.550000X0.550000X-0.550000X0.550000X0*%
%TD*%
%TA.AperFunction,ComponentPad*%
%ADD12C,1.600000*%
%TD*%
%TA.AperFunction,ComponentPad*%
%ADD13RoundRect,0.250000X-1.050000X-0.550000X1.050000X-0.550000X1.050000X0.550000X-1.050000X0.550000X0*%
%TD*%
%TA.AperFunction,ComponentPad*%
%ADD14O,2.600000X1.600000*%
%TD*%
%TA.AperFunction,ViaPad*%
%ADD15C,0.800000*%
%TD*%
%TA.AperFunction,Conductor*%
%ADD16C,1.000000*%
%TD*%
%TA.AperFunction,Conductor*%
%ADD17C,0.500000*%
%TD*%
%TA.AperFunction,Conductor*%
%ADD18C,0.200000*%
%TD*%
%TA.AperFunction,Conductor*%
%ADD19C,0.600000*%
%TD*%
G04 APERTURE END LIST*
D10*
%TO.P,TP1,1,1*%
%TO.N,Net-(DUT1-VIN)*%
X136820000Y-74780000D03*
%TD*%
%TO.P,SW1,1,1*%
%TO.N,VDD*%
X131720000Y-92210000D03*
X125220000Y-92210000D03*
%TO.P,SW1,2,2*%
%TO.N,Net-(U1-D0)*%
X131720000Y-87710000D03*
X125220000Y-87710000D03*
%TD*%
D11*
%TO.P,DUT1,1,VDD*%
%TO.N,VDDA*%
X141850000Y-70520000D03*
D12*
%TO.P,DUT1,2,GND*%
%TO.N,Net-(DUT1-GND)*%
X141850000Y-73060000D03*
%TO.P,DUT1,3,VIN*%
%TO.N,Net-(DUT1-VIN)*%
X141850000Y-75600000D03*
%TO.P,DUT1,4,SCK*%
%TO.N,/SCK*%
X149470000Y-75600000D03*
%TO.P,DUT1,5,SDATA*%
%TO.N,/MISO*%
X149470000Y-73060000D03*
%TO.P,DUT1,6,~{CS}*%
%TO.N,/CS2*%
X149470000Y-70520000D03*
%TD*%
D13*
%TO.P,U1,1,~{RESET}*%
%TO.N,unconnected-(U1-~{RESET}-Pad1)*%
X95777500Y-52270000D03*
D14*
%TO.P,U1,2,3V3*%
%TO.N,VDD*%
X95777500Y-54810000D03*
%TO.P,U1,3,AREF*%
%TO.N,GND*%
X95777500Y-57350000D03*
%TO.P,U1,4,GND*%
X95777500Y-59890000D03*
%TO.P,U1,5,A0*%
%TO.N,unconnected-(U1-A0-Pad5)*%
X95777500Y-62430000D03*
%TO.P,U1,6,A1*%
%TO.N,unconnected-(U1-A1-Pad6)*%
X95777500Y-64970000D03*
%TO.P,U1,7,A2*%
%TO.N,unconnected-(U1-A2-Pad7)*%
X95777500Y-67510000D03*
%TO.P,U1,8,A3*%
%TO.N,unconnected-(U1-A3-Pad8)*%
X95777500Y-70050000D03*
%TO.P,U1,9,A4*%
%TO.N,unconnected-(U1-A4-Pad9)*%
X95777500Y-72590000D03*
%TO.P,U1,10,A5*%
%TO.N,unconnected-(U1-A5-Pad10)*%
X95777500Y-75130000D03*
%TO.P,U1,11,SCK*%
%TO.N,/SCK*%
X95777500Y-77670000D03*
%TO.P,U1,12,MOSI*%
%TO.N,/MOSI*%
X95777500Y-80210000D03*
%TO.P,U1,13,MISO*%
%TO.N,/MISO*%
X95777500Y-82750000D03*
%TO.P,U1,14,RX*%
%TO.N,unconnected-(U1-RX-Pad14)*%
X95777500Y-85290000D03*
%TO.P,U1,15,TX*%
%TO.N,unconnected-(U1-TX-Pad15)*%
X95777500Y-87830000D03*
%TO.P,U1,16,SPARE*%
%TO.N,unconnected-(U1-SPARE-Pad16)*%
X95777500Y-90370000D03*
%TO.P,U1,17,SDA*%
%TO.N,unconnected-(U1-SDA-Pad17)*%
X115497500Y-90370000D03*
%TO.P,U1,18,SCL*%
%TO.N,unconnected-(U1-SCL-Pad18)*%
X115497500Y-87830000D03*
%TO.P,U1,19,D0*%
%TO.N,Net-(U1-D0)*%
X115497500Y-85290000D03*
%TO.P,U1,20,D1*%
%TO.N,Net-(U1-D1)*%
X115497500Y-82750000D03*
%TO.P,U1,21,D2*%
%TO.N,/CS1*%
X115497500Y-80210000D03*
%TO.P,U1,22,D3*%
%TO.N,/CS2*%
X115497500Y-77670000D03*
%TO.P,U1,23,D4*%
%TO.N,/CS3*%
X115497500Y-75130000D03*
%TO.P,U1,24,D5*%
%TO.N,unconnected-(U1-D5-Pad24)*%
X115497500Y-72590000D03*
%TO.P,U1,25,D6*%
%TO.N,unconnected-(U1-D6-Pad25)*%
X115497500Y-70050000D03*
%TO.P,U1,26,USB*%
%TO.N,/USB*%
X115497500Y-67510000D03*
%TO.P,U1,27,EN*%
%TO.N,VDD*%
X115497500Y-64970000D03*
%TO.P,U1,28,VBAT*%
%TO.N,unconnected-(U1-VBAT-Pad28)*%
X115497500Y-62430000D03*
%TD*%
D15*
%TO.N,GND*%
X120500000Y-88760000D03*
X141220000Y-88210000D03*
X135769149Y-75986532D03*
X139760000Y-76700000D03*
X120530000Y-62312500D03*
X133257500Y-71687500D03*
X138025686Y-78424314D03*
X136020000Y-78019815D03*
X135552782Y-73803186D03*
X144550000Y-67670000D03*
X136991409Y-72628616D03*
X139155686Y-79554314D03*
X137854153Y-73559125D03*
X140910000Y-82520000D03*
X126070000Y-82750000D03*
X138485000Y-81710000D03*
X139780000Y-74500000D03*
X138568123Y-74500000D03*
X146500000Y-86849998D03*
X137804314Y-80465686D03*
X138417818Y-76700000D03*
X134915858Y-70553064D03*
X121520000Y-69450000D03*
X136714314Y-79375686D03*
%TO.N,VDDA*%
X131692500Y-73470000D03*
X142292500Y-82022500D03*
X123595000Y-69430000D03*
X148670000Y-84980000D03*
%TO.N,/CS2*%
X124070000Y-77670000D03*
%TO.N,/MISO*%
X139280000Y-87060000D03*
%TO.N,/SCK*%
X137985000Y-86085000D03*
X131820000Y-79830000D03*
%TO.N,/MOSI*%
X121510000Y-76450000D03*
X138520000Y-91400000D03*
%TD*%
D16*
%TO.N,VDD*%
X108950000Y-64970000D02*
X115797500Y-64970000D01*
X98790000Y-54810000D02*
X108950000Y-64970000D01*
X95477500Y-54810000D02*
X98790000Y-54810000D01*
D17*
%TO.N,/CS2*%
X133980000Y-69120000D02*
X148070000Y-69120000D01*
X124070000Y-77670000D02*
X125430000Y-77670000D01*
X125430000Y-77670000D02*
X133980000Y-69120000D01*
X148070000Y-69120000D02*
X149470000Y-70520000D01*
%TO.N,/MISO*%
X103890000Y-81480000D02*
X132010000Y-81480000D01*
X151370000Y-76330000D02*
X151370000Y-74120000D01*
X138850000Y-87060000D02*
X140640000Y-87060000D01*
X102620000Y-82750000D02*
X103890000Y-81480000D01*
X140640000Y-87060000D02*
X151370000Y-76330000D01*
X132010000Y-81480000D02*
X133810000Y-83280000D01*
D18*
X150310000Y-73060000D02*
X149470000Y-73060000D01*
D17*
X137590000Y-87060000D02*
X138850000Y-87060000D01*
X151370000Y-74120000D02*
X150310000Y-73060000D01*
X138850000Y-87060000D02*
X139280000Y-87060000D01*
X95477500Y-82750000D02*
X102620000Y-82750000D01*
X133670000Y-83140000D02*
X137590000Y-87060000D01*
%TO.N,/SCK*%
X103890000Y-78150000D02*
X105620000Y-76420000D01*
X121010000Y-79830000D02*
X131820000Y-79830000D01*
D19*
X148030000Y-77040000D02*
X149470000Y-75600000D01*
D17*
X138980000Y-85790050D02*
X140159950Y-85790050D01*
X131820000Y-79830000D02*
X133019950Y-79830000D01*
X148030000Y-77920000D02*
X148030000Y-77040000D01*
X95957500Y-78150000D02*
X103890000Y-78150000D01*
X138584975Y-85485025D02*
X137985000Y-86085000D01*
X138674975Y-85485025D02*
X138584975Y-85485025D01*
X140159950Y-85790050D02*
X148030000Y-77920000D01*
X105620000Y-76420000D02*
X117600000Y-76420000D01*
X117600000Y-76420000D02*
X121010000Y-79830000D01*
X133019950Y-79830000D02*
X138674975Y-85485025D01*
X138674975Y-85485025D02*
X138980000Y-85790050D01*
X95477500Y-77670000D02*
X95957500Y-78150000D01*
D19*
%TO.N,/MOSI*%
X95477500Y-80209999D02*
X94430001Y-80209999D01*
D17*
X134740000Y-95180000D02*
X138520000Y-91400000D01*
X93350000Y-81290000D02*
X93350000Y-92960000D01*
X95570000Y-95180000D02*
X134740000Y-95180000D01*
X94430001Y-80209999D02*
X93350000Y-81290000D01*
X93350000Y-92960000D02*
X95570000Y-95180000D01*
X93910000Y-78642499D02*
X95477500Y-80209999D01*
X94410000Y-76420000D02*
X93910000Y-76920000D01*
X114458319Y-73900000D02*
X99403135Y-73900000D01*
X93910000Y-76920000D02*
X93910000Y-78642499D01*
X96883135Y-76420000D02*
X94410000Y-76420000D01*
X116536681Y-73900000D02*
X116515681Y-73879000D01*
X118960000Y-73900000D02*
X116536681Y-73900000D01*
X114479319Y-73879000D02*
X114458319Y-73900000D01*
X121510000Y-76450000D02*
X118960000Y-73900000D01*
X116515681Y-73879000D02*
X114479319Y-73879000D01*
X99403135Y-73900000D02*
X96883135Y-76420000D01*
%TD*%
M02*
