%TF.GenerationSoftware,KiCad,Pcbnew,9.0.7*%
%TF.CreationDate,2026-03-23T18:14:06-04:00*%
%TF.ProjectId,ADC-Testing,4144432d-5465-4737-9469-6e672e6b6963,rev?*%
%TF.SameCoordinates,Original*%
%TF.FileFunction,Legend,Top*%
%TF.FilePolarity,Positive*%
%FSLAX46Y46*%
G04 Gerber Fmt 4.6, Leading zero omitted, Abs format (unit mm)*
G04 Created by KiCad (PCBNEW 9.0.7) date 2026-03-23 18:14:06*
%MOMM*%
%LPD*%
G01*
G04 APERTURE LIST*
%ADD10C,0.300000*%
%ADD11C,0.100000*%
%ADD12C,0.150000*%
%ADD13C,0.120000*%
%ADD14C,0.000000*%
G04 APERTURE END LIST*
D10*
X127398320Y-58728209D02*
X128350701Y-58728209D01*
X127207844Y-59299638D02*
X127874510Y-57299638D01*
X127874510Y-57299638D02*
X128541177Y-59299638D01*
X129207844Y-59299638D02*
X129207844Y-57299638D01*
X129207844Y-57299638D02*
X129684034Y-57299638D01*
X129684034Y-57299638D02*
X129969749Y-57394876D01*
X129969749Y-57394876D02*
X130160225Y-57585352D01*
X130160225Y-57585352D02*
X130255463Y-57775828D01*
X130255463Y-57775828D02*
X130350701Y-58156780D01*
X130350701Y-58156780D02*
X130350701Y-58442495D01*
X130350701Y-58442495D02*
X130255463Y-58823447D01*
X130255463Y-58823447D02*
X130160225Y-59013923D01*
X130160225Y-59013923D02*
X129969749Y-59204400D01*
X129969749Y-59204400D02*
X129684034Y-59299638D01*
X129684034Y-59299638D02*
X129207844Y-59299638D01*
X132350701Y-59109161D02*
X132255463Y-59204400D01*
X132255463Y-59204400D02*
X131969749Y-59299638D01*
X131969749Y-59299638D02*
X131779273Y-59299638D01*
X131779273Y-59299638D02*
X131493558Y-59204400D01*
X131493558Y-59204400D02*
X131303082Y-59013923D01*
X131303082Y-59013923D02*
X131207844Y-58823447D01*
X131207844Y-58823447D02*
X131112606Y-58442495D01*
X131112606Y-58442495D02*
X131112606Y-58156780D01*
X131112606Y-58156780D02*
X131207844Y-57775828D01*
X131207844Y-57775828D02*
X131303082Y-57585352D01*
X131303082Y-57585352D02*
X131493558Y-57394876D01*
X131493558Y-57394876D02*
X131779273Y-57299638D01*
X131779273Y-57299638D02*
X131969749Y-57299638D01*
X131969749Y-57299638D02*
X132255463Y-57394876D01*
X132255463Y-57394876D02*
X132350701Y-57490114D01*
X133112606Y-59204400D02*
X133398320Y-59299638D01*
X133398320Y-59299638D02*
X133874511Y-59299638D01*
X133874511Y-59299638D02*
X134064987Y-59204400D01*
X134064987Y-59204400D02*
X134160225Y-59109161D01*
X134160225Y-59109161D02*
X134255463Y-58918685D01*
X134255463Y-58918685D02*
X134255463Y-58728209D01*
X134255463Y-58728209D02*
X134160225Y-58537733D01*
X134160225Y-58537733D02*
X134064987Y-58442495D01*
X134064987Y-58442495D02*
X133874511Y-58347257D01*
X133874511Y-58347257D02*
X133493558Y-58252019D01*
X133493558Y-58252019D02*
X133303082Y-58156780D01*
X133303082Y-58156780D02*
X133207844Y-58061542D01*
X133207844Y-58061542D02*
X133112606Y-57871066D01*
X133112606Y-57871066D02*
X133112606Y-57680590D01*
X133112606Y-57680590D02*
X133207844Y-57490114D01*
X133207844Y-57490114D02*
X133303082Y-57394876D01*
X133303082Y-57394876D02*
X133493558Y-57299638D01*
X133493558Y-57299638D02*
X133969749Y-57299638D01*
X133969749Y-57299638D02*
X134255463Y-57394876D01*
X134922130Y-57299638D02*
X136255463Y-57299638D01*
X136255463Y-57299638D02*
X135398320Y-59299638D01*
X137874511Y-57966304D02*
X137874511Y-59299638D01*
X137398320Y-57204400D02*
X136922130Y-58632971D01*
X136922130Y-58632971D02*
X138160225Y-58632971D01*
X138731654Y-57299638D02*
X140064987Y-57299638D01*
X140064987Y-57299638D02*
X139207844Y-59299638D01*
X140636416Y-59299638D02*
X141684035Y-57966304D01*
X140636416Y-57966304D02*
X141684035Y-59299638D01*
X143684036Y-57299638D02*
X144826893Y-57299638D01*
X144255464Y-59299638D02*
X144255464Y-57299638D01*
X146255465Y-59204400D02*
X146064989Y-59299638D01*
X146064989Y-59299638D02*
X145684036Y-59299638D01*
X145684036Y-59299638D02*
X145493560Y-59204400D01*
X145493560Y-59204400D02*
X145398322Y-59013923D01*
X145398322Y-59013923D02*
X145398322Y-58252019D01*
X145398322Y-58252019D02*
X145493560Y-58061542D01*
X145493560Y-58061542D02*
X145684036Y-57966304D01*
X145684036Y-57966304D02*
X146064989Y-57966304D01*
X146064989Y-57966304D02*
X146255465Y-58061542D01*
X146255465Y-58061542D02*
X146350703Y-58252019D01*
X146350703Y-58252019D02*
X146350703Y-58442495D01*
X146350703Y-58442495D02*
X145398322Y-58632971D01*
X147112608Y-59204400D02*
X147303084Y-59299638D01*
X147303084Y-59299638D02*
X147684036Y-59299638D01*
X147684036Y-59299638D02*
X147874513Y-59204400D01*
X147874513Y-59204400D02*
X147969751Y-59013923D01*
X147969751Y-59013923D02*
X147969751Y-58918685D01*
X147969751Y-58918685D02*
X147874513Y-58728209D01*
X147874513Y-58728209D02*
X147684036Y-58632971D01*
X147684036Y-58632971D02*
X147398322Y-58632971D01*
X147398322Y-58632971D02*
X147207846Y-58537733D01*
X147207846Y-58537733D02*
X147112608Y-58347257D01*
X147112608Y-58347257D02*
X147112608Y-58252019D01*
X147112608Y-58252019D02*
X147207846Y-58061542D01*
X147207846Y-58061542D02*
X147398322Y-57966304D01*
X147398322Y-57966304D02*
X147684036Y-57966304D01*
X147684036Y-57966304D02*
X147874513Y-58061542D01*
X148541180Y-57966304D02*
X149303084Y-57966304D01*
X148826894Y-57299638D02*
X148826894Y-59013923D01*
X148826894Y-59013923D02*
X148922132Y-59204400D01*
X148922132Y-59204400D02*
X149112608Y-59299638D01*
X149112608Y-59299638D02*
X149303084Y-59299638D01*
X150731656Y-59204400D02*
X150541180Y-59299638D01*
X150541180Y-59299638D02*
X150160227Y-59299638D01*
X150160227Y-59299638D02*
X149969751Y-59204400D01*
X149969751Y-59204400D02*
X149874513Y-59013923D01*
X149874513Y-59013923D02*
X149874513Y-58252019D01*
X149874513Y-58252019D02*
X149969751Y-58061542D01*
X149969751Y-58061542D02*
X150160227Y-57966304D01*
X150160227Y-57966304D02*
X150541180Y-57966304D01*
X150541180Y-57966304D02*
X150731656Y-58061542D01*
X150731656Y-58061542D02*
X150826894Y-58252019D01*
X150826894Y-58252019D02*
X150826894Y-58442495D01*
X150826894Y-58442495D02*
X149874513Y-58632971D01*
X151684037Y-59299638D02*
X151684037Y-57966304D01*
X151684037Y-58347257D02*
X151779275Y-58156780D01*
X151779275Y-58156780D02*
X151874513Y-58061542D01*
X151874513Y-58061542D02*
X152064989Y-57966304D01*
X152064989Y-57966304D02*
X152255466Y-57966304D01*
X125667844Y-84029638D02*
X126810701Y-84029638D01*
X126239272Y-86029638D02*
X126239272Y-84029638D01*
X128239273Y-85934400D02*
X128048797Y-86029638D01*
X128048797Y-86029638D02*
X127667844Y-86029638D01*
X127667844Y-86029638D02*
X127477368Y-85934400D01*
X127477368Y-85934400D02*
X127382130Y-85743923D01*
X127382130Y-85743923D02*
X127382130Y-84982019D01*
X127382130Y-84982019D02*
X127477368Y-84791542D01*
X127477368Y-84791542D02*
X127667844Y-84696304D01*
X127667844Y-84696304D02*
X128048797Y-84696304D01*
X128048797Y-84696304D02*
X128239273Y-84791542D01*
X128239273Y-84791542D02*
X128334511Y-84982019D01*
X128334511Y-84982019D02*
X128334511Y-85172495D01*
X128334511Y-85172495D02*
X127382130Y-85362971D01*
X129096416Y-85934400D02*
X129286892Y-86029638D01*
X129286892Y-86029638D02*
X129667844Y-86029638D01*
X129667844Y-86029638D02*
X129858321Y-85934400D01*
X129858321Y-85934400D02*
X129953559Y-85743923D01*
X129953559Y-85743923D02*
X129953559Y-85648685D01*
X129953559Y-85648685D02*
X129858321Y-85458209D01*
X129858321Y-85458209D02*
X129667844Y-85362971D01*
X129667844Y-85362971D02*
X129382130Y-85362971D01*
X129382130Y-85362971D02*
X129191654Y-85267733D01*
X129191654Y-85267733D02*
X129096416Y-85077257D01*
X129096416Y-85077257D02*
X129096416Y-84982019D01*
X129096416Y-84982019D02*
X129191654Y-84791542D01*
X129191654Y-84791542D02*
X129382130Y-84696304D01*
X129382130Y-84696304D02*
X129667844Y-84696304D01*
X129667844Y-84696304D02*
X129858321Y-84791542D01*
X130524988Y-84696304D02*
X131286892Y-84696304D01*
X130810702Y-84029638D02*
X130810702Y-85743923D01*
X130810702Y-85743923D02*
X130905940Y-85934400D01*
X130905940Y-85934400D02*
X131096416Y-86029638D01*
X131096416Y-86029638D02*
X131286892Y-86029638D01*
D11*
X105796704Y-82153734D02*
X105796704Y-81677544D01*
X106082419Y-82248972D02*
X105082419Y-81915639D01*
X105082419Y-81915639D02*
X106082419Y-81582306D01*
X106082419Y-80820401D02*
X105082419Y-80820401D01*
X106034800Y-80820401D02*
X106082419Y-80915639D01*
X106082419Y-80915639D02*
X106082419Y-81106115D01*
X106082419Y-81106115D02*
X106034800Y-81201353D01*
X106034800Y-81201353D02*
X105987180Y-81248972D01*
X105987180Y-81248972D02*
X105891942Y-81296591D01*
X105891942Y-81296591D02*
X105606228Y-81296591D01*
X105606228Y-81296591D02*
X105510990Y-81248972D01*
X105510990Y-81248972D02*
X105463371Y-81201353D01*
X105463371Y-81201353D02*
X105415752Y-81106115D01*
X105415752Y-81106115D02*
X105415752Y-80915639D01*
X105415752Y-80915639D02*
X105463371Y-80820401D01*
X106082419Y-79915639D02*
X105558609Y-79915639D01*
X105558609Y-79915639D02*
X105463371Y-79963258D01*
X105463371Y-79963258D02*
X105415752Y-80058496D01*
X105415752Y-80058496D02*
X105415752Y-80248972D01*
X105415752Y-80248972D02*
X105463371Y-80344210D01*
X106034800Y-79915639D02*
X106082419Y-80010877D01*
X106082419Y-80010877D02*
X106082419Y-80248972D01*
X106082419Y-80248972D02*
X106034800Y-80344210D01*
X106034800Y-80344210D02*
X105939561Y-80391829D01*
X105939561Y-80391829D02*
X105844323Y-80391829D01*
X105844323Y-80391829D02*
X105749085Y-80344210D01*
X105749085Y-80344210D02*
X105701466Y-80248972D01*
X105701466Y-80248972D02*
X105701466Y-80010877D01*
X105701466Y-80010877D02*
X105653847Y-79915639D01*
X105415752Y-79582305D02*
X105415752Y-79201353D01*
X106082419Y-79439448D02*
X105225276Y-79439448D01*
X105225276Y-79439448D02*
X105130038Y-79391829D01*
X105130038Y-79391829D02*
X105082419Y-79296591D01*
X105082419Y-79296591D02*
X105082419Y-79201353D01*
X106082419Y-78868019D02*
X105415752Y-78868019D01*
X105606228Y-78868019D02*
X105510990Y-78820400D01*
X105510990Y-78820400D02*
X105463371Y-78772781D01*
X105463371Y-78772781D02*
X105415752Y-78677543D01*
X105415752Y-78677543D02*
X105415752Y-78582305D01*
X105415752Y-77820400D02*
X106082419Y-77820400D01*
X105415752Y-78248971D02*
X105939561Y-78248971D01*
X105939561Y-78248971D02*
X106034800Y-78201352D01*
X106034800Y-78201352D02*
X106082419Y-78106114D01*
X106082419Y-78106114D02*
X106082419Y-77963257D01*
X106082419Y-77963257D02*
X106034800Y-77868019D01*
X106034800Y-77868019D02*
X105987180Y-77820400D01*
X106082419Y-77344209D02*
X105415752Y-77344209D01*
X105082419Y-77344209D02*
X105130038Y-77391828D01*
X105130038Y-77391828D02*
X105177657Y-77344209D01*
X105177657Y-77344209D02*
X105130038Y-77296590D01*
X105130038Y-77296590D02*
X105082419Y-77344209D01*
X105082419Y-77344209D02*
X105177657Y-77344209D01*
X105415752Y-77010876D02*
X105415752Y-76629924D01*
X105082419Y-76868019D02*
X105939561Y-76868019D01*
X105939561Y-76868019D02*
X106034800Y-76820400D01*
X106034800Y-76820400D02*
X106082419Y-76725162D01*
X106082419Y-76725162D02*
X106082419Y-76629924D01*
X105558609Y-75201352D02*
X105558609Y-75534685D01*
X106082419Y-75534685D02*
X105082419Y-75534685D01*
X105082419Y-75534685D02*
X105082419Y-75058495D01*
X106034800Y-74296590D02*
X106082419Y-74391828D01*
X106082419Y-74391828D02*
X106082419Y-74582304D01*
X106082419Y-74582304D02*
X106034800Y-74677542D01*
X106034800Y-74677542D02*
X105939561Y-74725161D01*
X105939561Y-74725161D02*
X105558609Y-74725161D01*
X105558609Y-74725161D02*
X105463371Y-74677542D01*
X105463371Y-74677542D02*
X105415752Y-74582304D01*
X105415752Y-74582304D02*
X105415752Y-74391828D01*
X105415752Y-74391828D02*
X105463371Y-74296590D01*
X105463371Y-74296590D02*
X105558609Y-74248971D01*
X105558609Y-74248971D02*
X105653847Y-74248971D01*
X105653847Y-74248971D02*
X105749085Y-74725161D01*
X106082419Y-73391828D02*
X105558609Y-73391828D01*
X105558609Y-73391828D02*
X105463371Y-73439447D01*
X105463371Y-73439447D02*
X105415752Y-73534685D01*
X105415752Y-73534685D02*
X105415752Y-73725161D01*
X105415752Y-73725161D02*
X105463371Y-73820399D01*
X106034800Y-73391828D02*
X106082419Y-73487066D01*
X106082419Y-73487066D02*
X106082419Y-73725161D01*
X106082419Y-73725161D02*
X106034800Y-73820399D01*
X106034800Y-73820399D02*
X105939561Y-73868018D01*
X105939561Y-73868018D02*
X105844323Y-73868018D01*
X105844323Y-73868018D02*
X105749085Y-73820399D01*
X105749085Y-73820399D02*
X105701466Y-73725161D01*
X105701466Y-73725161D02*
X105701466Y-73487066D01*
X105701466Y-73487066D02*
X105653847Y-73391828D01*
X105415752Y-73058494D02*
X105415752Y-72677542D01*
X105082419Y-72915637D02*
X105939561Y-72915637D01*
X105939561Y-72915637D02*
X106034800Y-72868018D01*
X106034800Y-72868018D02*
X106082419Y-72772780D01*
X106082419Y-72772780D02*
X106082419Y-72677542D01*
X106082419Y-72344208D02*
X105082419Y-72344208D01*
X106082419Y-71915637D02*
X105558609Y-71915637D01*
X105558609Y-71915637D02*
X105463371Y-71963256D01*
X105463371Y-71963256D02*
X105415752Y-72058494D01*
X105415752Y-72058494D02*
X105415752Y-72201351D01*
X105415752Y-72201351D02*
X105463371Y-72296589D01*
X105463371Y-72296589D02*
X105510990Y-72344208D01*
X106034800Y-71058494D02*
X106082419Y-71153732D01*
X106082419Y-71153732D02*
X106082419Y-71344208D01*
X106082419Y-71344208D02*
X106034800Y-71439446D01*
X106034800Y-71439446D02*
X105939561Y-71487065D01*
X105939561Y-71487065D02*
X105558609Y-71487065D01*
X105558609Y-71487065D02*
X105463371Y-71439446D01*
X105463371Y-71439446D02*
X105415752Y-71344208D01*
X105415752Y-71344208D02*
X105415752Y-71153732D01*
X105415752Y-71153732D02*
X105463371Y-71058494D01*
X105463371Y-71058494D02*
X105558609Y-71010875D01*
X105558609Y-71010875D02*
X105653847Y-71010875D01*
X105653847Y-71010875D02*
X105749085Y-71487065D01*
X106082419Y-70582303D02*
X105415752Y-70582303D01*
X105606228Y-70582303D02*
X105510990Y-70534684D01*
X105510990Y-70534684D02*
X105463371Y-70487065D01*
X105463371Y-70487065D02*
X105415752Y-70391827D01*
X105415752Y-70391827D02*
X105415752Y-70296589D01*
X106082419Y-69201350D02*
X105082419Y-69201350D01*
X105082419Y-69201350D02*
X105796704Y-68868017D01*
X105796704Y-68868017D02*
X105082419Y-68534684D01*
X105082419Y-68534684D02*
X106082419Y-68534684D01*
X105082419Y-67868017D02*
X105082419Y-67772779D01*
X105082419Y-67772779D02*
X105130038Y-67677541D01*
X105130038Y-67677541D02*
X105177657Y-67629922D01*
X105177657Y-67629922D02*
X105272895Y-67582303D01*
X105272895Y-67582303D02*
X105463371Y-67534684D01*
X105463371Y-67534684D02*
X105701466Y-67534684D01*
X105701466Y-67534684D02*
X105891942Y-67582303D01*
X105891942Y-67582303D02*
X105987180Y-67629922D01*
X105987180Y-67629922D02*
X106034800Y-67677541D01*
X106034800Y-67677541D02*
X106082419Y-67772779D01*
X106082419Y-67772779D02*
X106082419Y-67868017D01*
X106082419Y-67868017D02*
X106034800Y-67963255D01*
X106034800Y-67963255D02*
X105987180Y-68010874D01*
X105987180Y-68010874D02*
X105891942Y-68058493D01*
X105891942Y-68058493D02*
X105701466Y-68106112D01*
X105701466Y-68106112D02*
X105463371Y-68106112D01*
X105463371Y-68106112D02*
X105272895Y-68058493D01*
X105272895Y-68058493D02*
X105177657Y-68010874D01*
X105177657Y-68010874D02*
X105130038Y-67963255D01*
X105130038Y-67963255D02*
X105082419Y-67868017D01*
X105796704Y-66391826D02*
X105796704Y-65915636D01*
X106082419Y-66487064D02*
X105082419Y-66153731D01*
X105082419Y-66153731D02*
X106082419Y-65820398D01*
X106082419Y-65058493D02*
X105082419Y-65058493D01*
X106034800Y-65058493D02*
X106082419Y-65153731D01*
X106082419Y-65153731D02*
X106082419Y-65344207D01*
X106082419Y-65344207D02*
X106034800Y-65439445D01*
X106034800Y-65439445D02*
X105987180Y-65487064D01*
X105987180Y-65487064D02*
X105891942Y-65534683D01*
X105891942Y-65534683D02*
X105606228Y-65534683D01*
X105606228Y-65534683D02*
X105510990Y-65487064D01*
X105510990Y-65487064D02*
X105463371Y-65439445D01*
X105463371Y-65439445D02*
X105415752Y-65344207D01*
X105415752Y-65344207D02*
X105415752Y-65153731D01*
X105415752Y-65153731D02*
X105463371Y-65058493D01*
X106082419Y-64153731D02*
X105558609Y-64153731D01*
X105558609Y-64153731D02*
X105463371Y-64201350D01*
X105463371Y-64201350D02*
X105415752Y-64296588D01*
X105415752Y-64296588D02*
X105415752Y-64487064D01*
X105415752Y-64487064D02*
X105463371Y-64582302D01*
X106034800Y-64153731D02*
X106082419Y-64248969D01*
X106082419Y-64248969D02*
X106082419Y-64487064D01*
X106082419Y-64487064D02*
X106034800Y-64582302D01*
X106034800Y-64582302D02*
X105939561Y-64629921D01*
X105939561Y-64629921D02*
X105844323Y-64629921D01*
X105844323Y-64629921D02*
X105749085Y-64582302D01*
X105749085Y-64582302D02*
X105701466Y-64487064D01*
X105701466Y-64487064D02*
X105701466Y-64248969D01*
X105701466Y-64248969D02*
X105653847Y-64153731D01*
X106082419Y-63534683D02*
X106034800Y-63629921D01*
X106034800Y-63629921D02*
X105939561Y-63677540D01*
X105939561Y-63677540D02*
X105082419Y-63677540D01*
X106082419Y-63010873D02*
X106034800Y-63106111D01*
X106034800Y-63106111D02*
X105987180Y-63153730D01*
X105987180Y-63153730D02*
X105891942Y-63201349D01*
X105891942Y-63201349D02*
X105606228Y-63201349D01*
X105606228Y-63201349D02*
X105510990Y-63153730D01*
X105510990Y-63153730D02*
X105463371Y-63106111D01*
X105463371Y-63106111D02*
X105415752Y-63010873D01*
X105415752Y-63010873D02*
X105415752Y-62868016D01*
X105415752Y-62868016D02*
X105463371Y-62772778D01*
X105463371Y-62772778D02*
X105510990Y-62725159D01*
X105510990Y-62725159D02*
X105606228Y-62677540D01*
X105606228Y-62677540D02*
X105891942Y-62677540D01*
X105891942Y-62677540D02*
X105987180Y-62725159D01*
X105987180Y-62725159D02*
X106034800Y-62772778D01*
X106034800Y-62772778D02*
X106082419Y-62868016D01*
X106082419Y-62868016D02*
X106082419Y-63010873D01*
X105415752Y-61820397D02*
X106225276Y-61820397D01*
X106225276Y-61820397D02*
X106320514Y-61868016D01*
X106320514Y-61868016D02*
X106368133Y-61915635D01*
X106368133Y-61915635D02*
X106415752Y-62010873D01*
X106415752Y-62010873D02*
X106415752Y-62153730D01*
X106415752Y-62153730D02*
X106368133Y-62248968D01*
X106034800Y-61820397D02*
X106082419Y-61915635D01*
X106082419Y-61915635D02*
X106082419Y-62106111D01*
X106082419Y-62106111D02*
X106034800Y-62201349D01*
X106034800Y-62201349D02*
X105987180Y-62248968D01*
X105987180Y-62248968D02*
X105891942Y-62296587D01*
X105891942Y-62296587D02*
X105606228Y-62296587D01*
X105606228Y-62296587D02*
X105510990Y-62248968D01*
X105510990Y-62248968D02*
X105463371Y-62201349D01*
X105463371Y-62201349D02*
X105415752Y-62106111D01*
X105415752Y-62106111D02*
X105415752Y-61915635D01*
X105415752Y-61915635D02*
X105463371Y-61820397D01*
X105415752Y-60915635D02*
X106225276Y-60915635D01*
X106225276Y-60915635D02*
X106320514Y-60963254D01*
X106320514Y-60963254D02*
X106368133Y-61010873D01*
X106368133Y-61010873D02*
X106415752Y-61106111D01*
X106415752Y-61106111D02*
X106415752Y-61248968D01*
X106415752Y-61248968D02*
X106368133Y-61344206D01*
X106034800Y-60915635D02*
X106082419Y-61010873D01*
X106082419Y-61010873D02*
X106082419Y-61201349D01*
X106082419Y-61201349D02*
X106034800Y-61296587D01*
X106034800Y-61296587D02*
X105987180Y-61344206D01*
X105987180Y-61344206D02*
X105891942Y-61391825D01*
X105891942Y-61391825D02*
X105606228Y-61391825D01*
X105606228Y-61391825D02*
X105510990Y-61344206D01*
X105510990Y-61344206D02*
X105463371Y-61296587D01*
X105463371Y-61296587D02*
X105415752Y-61201349D01*
X105415752Y-61201349D02*
X105415752Y-61010873D01*
X105415752Y-61010873D02*
X105463371Y-60915635D01*
X106034800Y-60058492D02*
X106082419Y-60153730D01*
X106082419Y-60153730D02*
X106082419Y-60344206D01*
X106082419Y-60344206D02*
X106034800Y-60439444D01*
X106034800Y-60439444D02*
X105939561Y-60487063D01*
X105939561Y-60487063D02*
X105558609Y-60487063D01*
X105558609Y-60487063D02*
X105463371Y-60439444D01*
X105463371Y-60439444D02*
X105415752Y-60344206D01*
X105415752Y-60344206D02*
X105415752Y-60153730D01*
X105415752Y-60153730D02*
X105463371Y-60058492D01*
X105463371Y-60058492D02*
X105558609Y-60010873D01*
X105558609Y-60010873D02*
X105653847Y-60010873D01*
X105653847Y-60010873D02*
X105749085Y-60487063D01*
X106082419Y-59582301D02*
X105415752Y-59582301D01*
X105606228Y-59582301D02*
X105510990Y-59534682D01*
X105510990Y-59534682D02*
X105463371Y-59487063D01*
X105463371Y-59487063D02*
X105415752Y-59391825D01*
X105415752Y-59391825D02*
X105415752Y-59296587D01*
D12*
X119263333Y-60929580D02*
X119215714Y-60977200D01*
X119215714Y-60977200D02*
X119072857Y-61024819D01*
X119072857Y-61024819D02*
X118977619Y-61024819D01*
X118977619Y-61024819D02*
X118834762Y-60977200D01*
X118834762Y-60977200D02*
X118739524Y-60881961D01*
X118739524Y-60881961D02*
X118691905Y-60786723D01*
X118691905Y-60786723D02*
X118644286Y-60596247D01*
X118644286Y-60596247D02*
X118644286Y-60453390D01*
X118644286Y-60453390D02*
X118691905Y-60262914D01*
X118691905Y-60262914D02*
X118739524Y-60167676D01*
X118739524Y-60167676D02*
X118834762Y-60072438D01*
X118834762Y-60072438D02*
X118977619Y-60024819D01*
X118977619Y-60024819D02*
X119072857Y-60024819D01*
X119072857Y-60024819D02*
X119215714Y-60072438D01*
X119215714Y-60072438D02*
X119263333Y-60120057D01*
X119596667Y-60024819D02*
X120215714Y-60024819D01*
X120215714Y-60024819D02*
X119882381Y-60405771D01*
X119882381Y-60405771D02*
X120025238Y-60405771D01*
X120025238Y-60405771D02*
X120120476Y-60453390D01*
X120120476Y-60453390D02*
X120168095Y-60501009D01*
X120168095Y-60501009D02*
X120215714Y-60596247D01*
X120215714Y-60596247D02*
X120215714Y-60834342D01*
X120215714Y-60834342D02*
X120168095Y-60929580D01*
X120168095Y-60929580D02*
X120120476Y-60977200D01*
X120120476Y-60977200D02*
X120025238Y-61024819D01*
X120025238Y-61024819D02*
X119739524Y-61024819D01*
X119739524Y-61024819D02*
X119644286Y-60977200D01*
X119644286Y-60977200D02*
X119596667Y-60929580D01*
X120323333Y-81264819D02*
X119990000Y-80788628D01*
X119751905Y-81264819D02*
X119751905Y-80264819D01*
X119751905Y-80264819D02*
X120132857Y-80264819D01*
X120132857Y-80264819D02*
X120228095Y-80312438D01*
X120228095Y-80312438D02*
X120275714Y-80360057D01*
X120275714Y-80360057D02*
X120323333Y-80455295D01*
X120323333Y-80455295D02*
X120323333Y-80598152D01*
X120323333Y-80598152D02*
X120275714Y-80693390D01*
X120275714Y-80693390D02*
X120228095Y-80741009D01*
X120228095Y-80741009D02*
X120132857Y-80788628D01*
X120132857Y-80788628D02*
X119751905Y-80788628D01*
X121275714Y-81264819D02*
X120704286Y-81264819D01*
X120990000Y-81264819D02*
X120990000Y-80264819D01*
X120990000Y-80264819D02*
X120894762Y-80407676D01*
X120894762Y-80407676D02*
X120799524Y-80502914D01*
X120799524Y-80502914D02*
X120704286Y-80550533D01*
X144983333Y-79379580D02*
X144935714Y-79427200D01*
X144935714Y-79427200D02*
X144792857Y-79474819D01*
X144792857Y-79474819D02*
X144697619Y-79474819D01*
X144697619Y-79474819D02*
X144554762Y-79427200D01*
X144554762Y-79427200D02*
X144459524Y-79331961D01*
X144459524Y-79331961D02*
X144411905Y-79236723D01*
X144411905Y-79236723D02*
X144364286Y-79046247D01*
X144364286Y-79046247D02*
X144364286Y-78903390D01*
X144364286Y-78903390D02*
X144411905Y-78712914D01*
X144411905Y-78712914D02*
X144459524Y-78617676D01*
X144459524Y-78617676D02*
X144554762Y-78522438D01*
X144554762Y-78522438D02*
X144697619Y-78474819D01*
X144697619Y-78474819D02*
X144792857Y-78474819D01*
X144792857Y-78474819D02*
X144935714Y-78522438D01*
X144935714Y-78522438D02*
X144983333Y-78570057D01*
X145459524Y-79474819D02*
X145650000Y-79474819D01*
X145650000Y-79474819D02*
X145745238Y-79427200D01*
X145745238Y-79427200D02*
X145792857Y-79379580D01*
X145792857Y-79379580D02*
X145888095Y-79236723D01*
X145888095Y-79236723D02*
X145935714Y-79046247D01*
X145935714Y-79046247D02*
X145935714Y-78665295D01*
X145935714Y-78665295D02*
X145888095Y-78570057D01*
X145888095Y-78570057D02*
X145840476Y-78522438D01*
X145840476Y-78522438D02*
X145745238Y-78474819D01*
X145745238Y-78474819D02*
X145554762Y-78474819D01*
X145554762Y-78474819D02*
X145459524Y-78522438D01*
X145459524Y-78522438D02*
X145411905Y-78570057D01*
X145411905Y-78570057D02*
X145364286Y-78665295D01*
X145364286Y-78665295D02*
X145364286Y-78903390D01*
X145364286Y-78903390D02*
X145411905Y-78998628D01*
X145411905Y-78998628D02*
X145459524Y-79046247D01*
X145459524Y-79046247D02*
X145554762Y-79093866D01*
X145554762Y-79093866D02*
X145745238Y-79093866D01*
X145745238Y-79093866D02*
X145840476Y-79046247D01*
X145840476Y-79046247D02*
X145888095Y-78998628D01*
X145888095Y-78998628D02*
X145935714Y-78903390D01*
X128967142Y-75099580D02*
X128919523Y-75147200D01*
X128919523Y-75147200D02*
X128776666Y-75194819D01*
X128776666Y-75194819D02*
X128681428Y-75194819D01*
X128681428Y-75194819D02*
X128538571Y-75147200D01*
X128538571Y-75147200D02*
X128443333Y-75051961D01*
X128443333Y-75051961D02*
X128395714Y-74956723D01*
X128395714Y-74956723D02*
X128348095Y-74766247D01*
X128348095Y-74766247D02*
X128348095Y-74623390D01*
X128348095Y-74623390D02*
X128395714Y-74432914D01*
X128395714Y-74432914D02*
X128443333Y-74337676D01*
X128443333Y-74337676D02*
X128538571Y-74242438D01*
X128538571Y-74242438D02*
X128681428Y-74194819D01*
X128681428Y-74194819D02*
X128776666Y-74194819D01*
X128776666Y-74194819D02*
X128919523Y-74242438D01*
X128919523Y-74242438D02*
X128967142Y-74290057D01*
X129919523Y-75194819D02*
X129348095Y-75194819D01*
X129633809Y-75194819D02*
X129633809Y-74194819D01*
X129633809Y-74194819D02*
X129538571Y-74337676D01*
X129538571Y-74337676D02*
X129443333Y-74432914D01*
X129443333Y-74432914D02*
X129348095Y-74480533D01*
X130871904Y-75194819D02*
X130300476Y-75194819D01*
X130586190Y-75194819D02*
X130586190Y-74194819D01*
X130586190Y-74194819D02*
X130490952Y-74337676D01*
X130490952Y-74337676D02*
X130395714Y-74432914D01*
X130395714Y-74432914D02*
X130300476Y-74480533D01*
X119729580Y-91882857D02*
X119777200Y-91930476D01*
X119777200Y-91930476D02*
X119824819Y-92073333D01*
X119824819Y-92073333D02*
X119824819Y-92168571D01*
X119824819Y-92168571D02*
X119777200Y-92311428D01*
X119777200Y-92311428D02*
X119681961Y-92406666D01*
X119681961Y-92406666D02*
X119586723Y-92454285D01*
X119586723Y-92454285D02*
X119396247Y-92501904D01*
X119396247Y-92501904D02*
X119253390Y-92501904D01*
X119253390Y-92501904D02*
X119062914Y-92454285D01*
X119062914Y-92454285D02*
X118967676Y-92406666D01*
X118967676Y-92406666D02*
X118872438Y-92311428D01*
X118872438Y-92311428D02*
X118824819Y-92168571D01*
X118824819Y-92168571D02*
X118824819Y-92073333D01*
X118824819Y-92073333D02*
X118872438Y-91930476D01*
X118872438Y-91930476D02*
X118920057Y-91882857D01*
X119824819Y-90930476D02*
X119824819Y-91501904D01*
X119824819Y-91216190D02*
X118824819Y-91216190D01*
X118824819Y-91216190D02*
X118967676Y-91311428D01*
X118967676Y-91311428D02*
X119062914Y-91406666D01*
X119062914Y-91406666D02*
X119110533Y-91501904D01*
X118824819Y-90311428D02*
X118824819Y-90216190D01*
X118824819Y-90216190D02*
X118872438Y-90120952D01*
X118872438Y-90120952D02*
X118920057Y-90073333D01*
X118920057Y-90073333D02*
X119015295Y-90025714D01*
X119015295Y-90025714D02*
X119205771Y-89978095D01*
X119205771Y-89978095D02*
X119443866Y-89978095D01*
X119443866Y-89978095D02*
X119634342Y-90025714D01*
X119634342Y-90025714D02*
X119729580Y-90073333D01*
X119729580Y-90073333D02*
X119777200Y-90120952D01*
X119777200Y-90120952D02*
X119824819Y-90216190D01*
X119824819Y-90216190D02*
X119824819Y-90311428D01*
X119824819Y-90311428D02*
X119777200Y-90406666D01*
X119777200Y-90406666D02*
X119729580Y-90454285D01*
X119729580Y-90454285D02*
X119634342Y-90501904D01*
X119634342Y-90501904D02*
X119443866Y-90549523D01*
X119443866Y-90549523D02*
X119205771Y-90549523D01*
X119205771Y-90549523D02*
X119015295Y-90501904D01*
X119015295Y-90501904D02*
X118920057Y-90454285D01*
X118920057Y-90454285D02*
X118872438Y-90406666D01*
X118872438Y-90406666D02*
X118824819Y-90311428D01*
X121443333Y-60899580D02*
X121395714Y-60947200D01*
X121395714Y-60947200D02*
X121252857Y-60994819D01*
X121252857Y-60994819D02*
X121157619Y-60994819D01*
X121157619Y-60994819D02*
X121014762Y-60947200D01*
X121014762Y-60947200D02*
X120919524Y-60851961D01*
X120919524Y-60851961D02*
X120871905Y-60756723D01*
X120871905Y-60756723D02*
X120824286Y-60566247D01*
X120824286Y-60566247D02*
X120824286Y-60423390D01*
X120824286Y-60423390D02*
X120871905Y-60232914D01*
X120871905Y-60232914D02*
X120919524Y-60137676D01*
X120919524Y-60137676D02*
X121014762Y-60042438D01*
X121014762Y-60042438D02*
X121157619Y-59994819D01*
X121157619Y-59994819D02*
X121252857Y-59994819D01*
X121252857Y-59994819D02*
X121395714Y-60042438D01*
X121395714Y-60042438D02*
X121443333Y-60090057D01*
X121824286Y-60090057D02*
X121871905Y-60042438D01*
X121871905Y-60042438D02*
X121967143Y-59994819D01*
X121967143Y-59994819D02*
X122205238Y-59994819D01*
X122205238Y-59994819D02*
X122300476Y-60042438D01*
X122300476Y-60042438D02*
X122348095Y-60090057D01*
X122348095Y-60090057D02*
X122395714Y-60185295D01*
X122395714Y-60185295D02*
X122395714Y-60280533D01*
X122395714Y-60280533D02*
X122348095Y-60423390D01*
X122348095Y-60423390D02*
X121776667Y-60994819D01*
X121776667Y-60994819D02*
X122395714Y-60994819D01*
X142674819Y-87341904D02*
X143484342Y-87341904D01*
X143484342Y-87341904D02*
X143579580Y-87294285D01*
X143579580Y-87294285D02*
X143627200Y-87246666D01*
X143627200Y-87246666D02*
X143674819Y-87151428D01*
X143674819Y-87151428D02*
X143674819Y-86960952D01*
X143674819Y-86960952D02*
X143627200Y-86865714D01*
X143627200Y-86865714D02*
X143579580Y-86818095D01*
X143579580Y-86818095D02*
X143484342Y-86770476D01*
X143484342Y-86770476D02*
X142674819Y-86770476D01*
X142770057Y-86341904D02*
X142722438Y-86294285D01*
X142722438Y-86294285D02*
X142674819Y-86199047D01*
X142674819Y-86199047D02*
X142674819Y-85960952D01*
X142674819Y-85960952D02*
X142722438Y-85865714D01*
X142722438Y-85865714D02*
X142770057Y-85818095D01*
X142770057Y-85818095D02*
X142865295Y-85770476D01*
X142865295Y-85770476D02*
X142960533Y-85770476D01*
X142960533Y-85770476D02*
X143103390Y-85818095D01*
X143103390Y-85818095D02*
X143674819Y-86389523D01*
X143674819Y-86389523D02*
X143674819Y-85770476D01*
X118603333Y-71199580D02*
X118555714Y-71247200D01*
X118555714Y-71247200D02*
X118412857Y-71294819D01*
X118412857Y-71294819D02*
X118317619Y-71294819D01*
X118317619Y-71294819D02*
X118174762Y-71247200D01*
X118174762Y-71247200D02*
X118079524Y-71151961D01*
X118079524Y-71151961D02*
X118031905Y-71056723D01*
X118031905Y-71056723D02*
X117984286Y-70866247D01*
X117984286Y-70866247D02*
X117984286Y-70723390D01*
X117984286Y-70723390D02*
X118031905Y-70532914D01*
X118031905Y-70532914D02*
X118079524Y-70437676D01*
X118079524Y-70437676D02*
X118174762Y-70342438D01*
X118174762Y-70342438D02*
X118317619Y-70294819D01*
X118317619Y-70294819D02*
X118412857Y-70294819D01*
X118412857Y-70294819D02*
X118555714Y-70342438D01*
X118555714Y-70342438D02*
X118603333Y-70390057D01*
X119555714Y-71294819D02*
X118984286Y-71294819D01*
X119270000Y-71294819D02*
X119270000Y-70294819D01*
X119270000Y-70294819D02*
X119174762Y-70437676D01*
X119174762Y-70437676D02*
X119079524Y-70532914D01*
X119079524Y-70532914D02*
X118984286Y-70580533D01*
X127136667Y-94617201D02*
X127279524Y-94664820D01*
X127279524Y-94664820D02*
X127517619Y-94664820D01*
X127517619Y-94664820D02*
X127612857Y-94617201D01*
X127612857Y-94617201D02*
X127660476Y-94569581D01*
X127660476Y-94569581D02*
X127708095Y-94474343D01*
X127708095Y-94474343D02*
X127708095Y-94379105D01*
X127708095Y-94379105D02*
X127660476Y-94283867D01*
X127660476Y-94283867D02*
X127612857Y-94236248D01*
X127612857Y-94236248D02*
X127517619Y-94188629D01*
X127517619Y-94188629D02*
X127327143Y-94141010D01*
X127327143Y-94141010D02*
X127231905Y-94093391D01*
X127231905Y-94093391D02*
X127184286Y-94045772D01*
X127184286Y-94045772D02*
X127136667Y-93950534D01*
X127136667Y-93950534D02*
X127136667Y-93855296D01*
X127136667Y-93855296D02*
X127184286Y-93760058D01*
X127184286Y-93760058D02*
X127231905Y-93712439D01*
X127231905Y-93712439D02*
X127327143Y-93664820D01*
X127327143Y-93664820D02*
X127565238Y-93664820D01*
X127565238Y-93664820D02*
X127708095Y-93712439D01*
X128041429Y-93664820D02*
X128279524Y-94664820D01*
X128279524Y-94664820D02*
X128470000Y-93950534D01*
X128470000Y-93950534D02*
X128660476Y-94664820D01*
X128660476Y-94664820D02*
X128898572Y-93664820D01*
X129803333Y-94664820D02*
X129231905Y-94664820D01*
X129517619Y-94664820D02*
X129517619Y-93664820D01*
X129517619Y-93664820D02*
X129422381Y-93807677D01*
X129422381Y-93807677D02*
X129327143Y-93902915D01*
X129327143Y-93902915D02*
X129231905Y-93950534D01*
D10*
X142304285Y-65929638D02*
X142304285Y-63929638D01*
X142304285Y-63929638D02*
X142780475Y-63929638D01*
X142780475Y-63929638D02*
X143066190Y-64024876D01*
X143066190Y-64024876D02*
X143256666Y-64215352D01*
X143256666Y-64215352D02*
X143351904Y-64405828D01*
X143351904Y-64405828D02*
X143447142Y-64786780D01*
X143447142Y-64786780D02*
X143447142Y-65072495D01*
X143447142Y-65072495D02*
X143351904Y-65453447D01*
X143351904Y-65453447D02*
X143256666Y-65643923D01*
X143256666Y-65643923D02*
X143066190Y-65834400D01*
X143066190Y-65834400D02*
X142780475Y-65929638D01*
X142780475Y-65929638D02*
X142304285Y-65929638D01*
X144304285Y-63929638D02*
X144304285Y-65548685D01*
X144304285Y-65548685D02*
X144399523Y-65739161D01*
X144399523Y-65739161D02*
X144494761Y-65834400D01*
X144494761Y-65834400D02*
X144685237Y-65929638D01*
X144685237Y-65929638D02*
X145066190Y-65929638D01*
X145066190Y-65929638D02*
X145256666Y-65834400D01*
X145256666Y-65834400D02*
X145351904Y-65739161D01*
X145351904Y-65739161D02*
X145447142Y-65548685D01*
X145447142Y-65548685D02*
X145447142Y-63929638D01*
X146113809Y-63929638D02*
X147256666Y-63929638D01*
X146685237Y-65929638D02*
X146685237Y-63929638D01*
X148970952Y-65929638D02*
X147828095Y-65929638D01*
X148399523Y-65929638D02*
X148399523Y-63929638D01*
X148399523Y-63929638D02*
X148209047Y-64215352D01*
X148209047Y-64215352D02*
X148018571Y-64405828D01*
X148018571Y-64405828D02*
X147828095Y-64501066D01*
D12*
X144933333Y-81509580D02*
X144885714Y-81557200D01*
X144885714Y-81557200D02*
X144742857Y-81604819D01*
X144742857Y-81604819D02*
X144647619Y-81604819D01*
X144647619Y-81604819D02*
X144504762Y-81557200D01*
X144504762Y-81557200D02*
X144409524Y-81461961D01*
X144409524Y-81461961D02*
X144361905Y-81366723D01*
X144361905Y-81366723D02*
X144314286Y-81176247D01*
X144314286Y-81176247D02*
X144314286Y-81033390D01*
X144314286Y-81033390D02*
X144361905Y-80842914D01*
X144361905Y-80842914D02*
X144409524Y-80747676D01*
X144409524Y-80747676D02*
X144504762Y-80652438D01*
X144504762Y-80652438D02*
X144647619Y-80604819D01*
X144647619Y-80604819D02*
X144742857Y-80604819D01*
X144742857Y-80604819D02*
X144885714Y-80652438D01*
X144885714Y-80652438D02*
X144933333Y-80700057D01*
X145790476Y-80604819D02*
X145600000Y-80604819D01*
X145600000Y-80604819D02*
X145504762Y-80652438D01*
X145504762Y-80652438D02*
X145457143Y-80700057D01*
X145457143Y-80700057D02*
X145361905Y-80842914D01*
X145361905Y-80842914D02*
X145314286Y-81033390D01*
X145314286Y-81033390D02*
X145314286Y-81414342D01*
X145314286Y-81414342D02*
X145361905Y-81509580D01*
X145361905Y-81509580D02*
X145409524Y-81557200D01*
X145409524Y-81557200D02*
X145504762Y-81604819D01*
X145504762Y-81604819D02*
X145695238Y-81604819D01*
X145695238Y-81604819D02*
X145790476Y-81557200D01*
X145790476Y-81557200D02*
X145838095Y-81509580D01*
X145838095Y-81509580D02*
X145885714Y-81414342D01*
X145885714Y-81414342D02*
X145885714Y-81176247D01*
X145885714Y-81176247D02*
X145838095Y-81081009D01*
X145838095Y-81081009D02*
X145790476Y-81033390D01*
X145790476Y-81033390D02*
X145695238Y-80985771D01*
X145695238Y-80985771D02*
X145504762Y-80985771D01*
X145504762Y-80985771D02*
X145409524Y-81033390D01*
X145409524Y-81033390D02*
X145361905Y-81081009D01*
X145361905Y-81081009D02*
X145314286Y-81176247D01*
X151727079Y-86116665D02*
X151774699Y-86164284D01*
X151774699Y-86164284D02*
X151822318Y-86307141D01*
X151822318Y-86307141D02*
X151822318Y-86402379D01*
X151822318Y-86402379D02*
X151774699Y-86545236D01*
X151774699Y-86545236D02*
X151679460Y-86640474D01*
X151679460Y-86640474D02*
X151584222Y-86688093D01*
X151584222Y-86688093D02*
X151393746Y-86735712D01*
X151393746Y-86735712D02*
X151250889Y-86735712D01*
X151250889Y-86735712D02*
X151060413Y-86688093D01*
X151060413Y-86688093D02*
X150965175Y-86640474D01*
X150965175Y-86640474D02*
X150869937Y-86545236D01*
X150869937Y-86545236D02*
X150822318Y-86402379D01*
X150822318Y-86402379D02*
X150822318Y-86307141D01*
X150822318Y-86307141D02*
X150869937Y-86164284D01*
X150869937Y-86164284D02*
X150917556Y-86116665D01*
X150822318Y-85783331D02*
X150822318Y-85116665D01*
X150822318Y-85116665D02*
X151822318Y-85545236D01*
X104875595Y-44104819D02*
X104875595Y-44914342D01*
X104875595Y-44914342D02*
X104923214Y-45009580D01*
X104923214Y-45009580D02*
X104970833Y-45057200D01*
X104970833Y-45057200D02*
X105066071Y-45104819D01*
X105066071Y-45104819D02*
X105256547Y-45104819D01*
X105256547Y-45104819D02*
X105351785Y-45057200D01*
X105351785Y-45057200D02*
X105399404Y-45009580D01*
X105399404Y-45009580D02*
X105447023Y-44914342D01*
X105447023Y-44914342D02*
X105447023Y-44104819D01*
X106447023Y-45104819D02*
X105875595Y-45104819D01*
X106161309Y-45104819D02*
X106161309Y-44104819D01*
X106161309Y-44104819D02*
X106066071Y-44247676D01*
X106066071Y-44247676D02*
X105970833Y-44342914D01*
X105970833Y-44342914D02*
X105875595Y-44390533D01*
X145785595Y-82954818D02*
X145785595Y-83764341D01*
X145785595Y-83764341D02*
X145833214Y-83859579D01*
X145833214Y-83859579D02*
X145880833Y-83907199D01*
X145880833Y-83907199D02*
X145976071Y-83954818D01*
X145976071Y-83954818D02*
X146166547Y-83954818D01*
X146166547Y-83954818D02*
X146261785Y-83907199D01*
X146261785Y-83907199D02*
X146309404Y-83859579D01*
X146309404Y-83859579D02*
X146357023Y-83764341D01*
X146357023Y-83764341D02*
X146357023Y-82954818D01*
X147261785Y-83288151D02*
X147261785Y-83954818D01*
X147023690Y-82907199D02*
X146785595Y-83621484D01*
X146785595Y-83621484D02*
X147404642Y-83621484D01*
X125410834Y-73009580D02*
X125363215Y-73057200D01*
X125363215Y-73057200D02*
X125220358Y-73104819D01*
X125220358Y-73104819D02*
X125125120Y-73104819D01*
X125125120Y-73104819D02*
X124982263Y-73057200D01*
X124982263Y-73057200D02*
X124887025Y-72961961D01*
X124887025Y-72961961D02*
X124839406Y-72866723D01*
X124839406Y-72866723D02*
X124791787Y-72676247D01*
X124791787Y-72676247D02*
X124791787Y-72533390D01*
X124791787Y-72533390D02*
X124839406Y-72342914D01*
X124839406Y-72342914D02*
X124887025Y-72247676D01*
X124887025Y-72247676D02*
X124982263Y-72152438D01*
X124982263Y-72152438D02*
X125125120Y-72104819D01*
X125125120Y-72104819D02*
X125220358Y-72104819D01*
X125220358Y-72104819D02*
X125363215Y-72152438D01*
X125363215Y-72152438D02*
X125410834Y-72200057D01*
X126315596Y-72104819D02*
X125839406Y-72104819D01*
X125839406Y-72104819D02*
X125791787Y-72581009D01*
X125791787Y-72581009D02*
X125839406Y-72533390D01*
X125839406Y-72533390D02*
X125934644Y-72485771D01*
X125934644Y-72485771D02*
X126172739Y-72485771D01*
X126172739Y-72485771D02*
X126267977Y-72533390D01*
X126267977Y-72533390D02*
X126315596Y-72581009D01*
X126315596Y-72581009D02*
X126363215Y-72676247D01*
X126363215Y-72676247D02*
X126363215Y-72914342D01*
X126363215Y-72914342D02*
X126315596Y-73009580D01*
X126315596Y-73009580D02*
X126267977Y-73057200D01*
X126267977Y-73057200D02*
X126172739Y-73104819D01*
X126172739Y-73104819D02*
X125934644Y-73104819D01*
X125934644Y-73104819D02*
X125839406Y-73057200D01*
X125839406Y-73057200D02*
X125791787Y-73009580D01*
X123541905Y-81274819D02*
X123541905Y-80274819D01*
X123541905Y-80274819D02*
X123780000Y-80274819D01*
X123780000Y-80274819D02*
X123922857Y-80322438D01*
X123922857Y-80322438D02*
X124018095Y-80417676D01*
X124018095Y-80417676D02*
X124065714Y-80512914D01*
X124065714Y-80512914D02*
X124113333Y-80703390D01*
X124113333Y-80703390D02*
X124113333Y-80846247D01*
X124113333Y-80846247D02*
X124065714Y-81036723D01*
X124065714Y-81036723D02*
X124018095Y-81131961D01*
X124018095Y-81131961D02*
X123922857Y-81227200D01*
X123922857Y-81227200D02*
X123780000Y-81274819D01*
X123780000Y-81274819D02*
X123541905Y-81274819D01*
X125065714Y-81274819D02*
X124494286Y-81274819D01*
X124780000Y-81274819D02*
X124780000Y-80274819D01*
X124780000Y-80274819D02*
X124684762Y-80417676D01*
X124684762Y-80417676D02*
X124589524Y-80512914D01*
X124589524Y-80512914D02*
X124494286Y-80560533D01*
X130428095Y-68742319D02*
X130428095Y-69551842D01*
X130428095Y-69551842D02*
X130475714Y-69647080D01*
X130475714Y-69647080D02*
X130523333Y-69694700D01*
X130523333Y-69694700D02*
X130618571Y-69742319D01*
X130618571Y-69742319D02*
X130809047Y-69742319D01*
X130809047Y-69742319D02*
X130904285Y-69694700D01*
X130904285Y-69694700D02*
X130951904Y-69647080D01*
X130951904Y-69647080D02*
X130999523Y-69551842D01*
X130999523Y-69551842D02*
X130999523Y-68742319D01*
X131380476Y-68742319D02*
X131999523Y-68742319D01*
X131999523Y-68742319D02*
X131666190Y-69123271D01*
X131666190Y-69123271D02*
X131809047Y-69123271D01*
X131809047Y-69123271D02*
X131904285Y-69170890D01*
X131904285Y-69170890D02*
X131951904Y-69218509D01*
X131951904Y-69218509D02*
X131999523Y-69313747D01*
X131999523Y-69313747D02*
X131999523Y-69551842D01*
X131999523Y-69551842D02*
X131951904Y-69647080D01*
X131951904Y-69647080D02*
X131904285Y-69694700D01*
X131904285Y-69694700D02*
X131809047Y-69742319D01*
X131809047Y-69742319D02*
X131523333Y-69742319D01*
X131523333Y-69742319D02*
X131428095Y-69694700D01*
X131428095Y-69694700D02*
X131380476Y-69647080D01*
X139213333Y-68009580D02*
X139165714Y-68057200D01*
X139165714Y-68057200D02*
X139022857Y-68104819D01*
X139022857Y-68104819D02*
X138927619Y-68104819D01*
X138927619Y-68104819D02*
X138784762Y-68057200D01*
X138784762Y-68057200D02*
X138689524Y-67961961D01*
X138689524Y-67961961D02*
X138641905Y-67866723D01*
X138641905Y-67866723D02*
X138594286Y-67676247D01*
X138594286Y-67676247D02*
X138594286Y-67533390D01*
X138594286Y-67533390D02*
X138641905Y-67342914D01*
X138641905Y-67342914D02*
X138689524Y-67247676D01*
X138689524Y-67247676D02*
X138784762Y-67152438D01*
X138784762Y-67152438D02*
X138927619Y-67104819D01*
X138927619Y-67104819D02*
X139022857Y-67104819D01*
X139022857Y-67104819D02*
X139165714Y-67152438D01*
X139165714Y-67152438D02*
X139213333Y-67200057D01*
X139784762Y-67533390D02*
X139689524Y-67485771D01*
X139689524Y-67485771D02*
X139641905Y-67438152D01*
X139641905Y-67438152D02*
X139594286Y-67342914D01*
X139594286Y-67342914D02*
X139594286Y-67295295D01*
X139594286Y-67295295D02*
X139641905Y-67200057D01*
X139641905Y-67200057D02*
X139689524Y-67152438D01*
X139689524Y-67152438D02*
X139784762Y-67104819D01*
X139784762Y-67104819D02*
X139975238Y-67104819D01*
X139975238Y-67104819D02*
X140070476Y-67152438D01*
X140070476Y-67152438D02*
X140118095Y-67200057D01*
X140118095Y-67200057D02*
X140165714Y-67295295D01*
X140165714Y-67295295D02*
X140165714Y-67342914D01*
X140165714Y-67342914D02*
X140118095Y-67438152D01*
X140118095Y-67438152D02*
X140070476Y-67485771D01*
X140070476Y-67485771D02*
X139975238Y-67533390D01*
X139975238Y-67533390D02*
X139784762Y-67533390D01*
X139784762Y-67533390D02*
X139689524Y-67581009D01*
X139689524Y-67581009D02*
X139641905Y-67628628D01*
X139641905Y-67628628D02*
X139594286Y-67723866D01*
X139594286Y-67723866D02*
X139594286Y-67914342D01*
X139594286Y-67914342D02*
X139641905Y-68009580D01*
X139641905Y-68009580D02*
X139689524Y-68057200D01*
X139689524Y-68057200D02*
X139784762Y-68104819D01*
X139784762Y-68104819D02*
X139975238Y-68104819D01*
X139975238Y-68104819D02*
X140070476Y-68057200D01*
X140070476Y-68057200D02*
X140118095Y-68009580D01*
X140118095Y-68009580D02*
X140165714Y-67914342D01*
X140165714Y-67914342D02*
X140165714Y-67723866D01*
X140165714Y-67723866D02*
X140118095Y-67628628D01*
X140118095Y-67628628D02*
X140070476Y-67581009D01*
X140070476Y-67581009D02*
X139975238Y-67533390D01*
X125390834Y-70959580D02*
X125343215Y-71007200D01*
X125343215Y-71007200D02*
X125200358Y-71054819D01*
X125200358Y-71054819D02*
X125105120Y-71054819D01*
X125105120Y-71054819D02*
X124962263Y-71007200D01*
X124962263Y-71007200D02*
X124867025Y-70911961D01*
X124867025Y-70911961D02*
X124819406Y-70816723D01*
X124819406Y-70816723D02*
X124771787Y-70626247D01*
X124771787Y-70626247D02*
X124771787Y-70483390D01*
X124771787Y-70483390D02*
X124819406Y-70292914D01*
X124819406Y-70292914D02*
X124867025Y-70197676D01*
X124867025Y-70197676D02*
X124962263Y-70102438D01*
X124962263Y-70102438D02*
X125105120Y-70054819D01*
X125105120Y-70054819D02*
X125200358Y-70054819D01*
X125200358Y-70054819D02*
X125343215Y-70102438D01*
X125343215Y-70102438D02*
X125390834Y-70150057D01*
X126247977Y-70388152D02*
X126247977Y-71054819D01*
X126009882Y-70007200D02*
X125771787Y-70721485D01*
X125771787Y-70721485D02*
X126390834Y-70721485D01*
X122084819Y-91536666D02*
X121608628Y-91869999D01*
X122084819Y-92108094D02*
X121084819Y-92108094D01*
X121084819Y-92108094D02*
X121084819Y-91727142D01*
X121084819Y-91727142D02*
X121132438Y-91631904D01*
X121132438Y-91631904D02*
X121180057Y-91584285D01*
X121180057Y-91584285D02*
X121275295Y-91536666D01*
X121275295Y-91536666D02*
X121418152Y-91536666D01*
X121418152Y-91536666D02*
X121513390Y-91584285D01*
X121513390Y-91584285D02*
X121561009Y-91631904D01*
X121561009Y-91631904D02*
X121608628Y-91727142D01*
X121608628Y-91727142D02*
X121608628Y-92108094D01*
X121180057Y-91155713D02*
X121132438Y-91108094D01*
X121132438Y-91108094D02*
X121084819Y-91012856D01*
X121084819Y-91012856D02*
X121084819Y-90774761D01*
X121084819Y-90774761D02*
X121132438Y-90679523D01*
X121132438Y-90679523D02*
X121180057Y-90631904D01*
X121180057Y-90631904D02*
X121275295Y-90584285D01*
X121275295Y-90584285D02*
X121370533Y-90584285D01*
X121370533Y-90584285D02*
X121513390Y-90631904D01*
X121513390Y-90631904D02*
X122084819Y-91203332D01*
X122084819Y-91203332D02*
X122084819Y-90584285D01*
X121768095Y-64944819D02*
X121768095Y-65754342D01*
X121768095Y-65754342D02*
X121815714Y-65849580D01*
X121815714Y-65849580D02*
X121863333Y-65897200D01*
X121863333Y-65897200D02*
X121958571Y-65944819D01*
X121958571Y-65944819D02*
X122149047Y-65944819D01*
X122149047Y-65944819D02*
X122244285Y-65897200D01*
X122244285Y-65897200D02*
X122291904Y-65849580D01*
X122291904Y-65849580D02*
X122339523Y-65754342D01*
X122339523Y-65754342D02*
X122339523Y-64944819D01*
X123291904Y-64944819D02*
X122815714Y-64944819D01*
X122815714Y-64944819D02*
X122768095Y-65421009D01*
X122768095Y-65421009D02*
X122815714Y-65373390D01*
X122815714Y-65373390D02*
X122910952Y-65325771D01*
X122910952Y-65325771D02*
X123149047Y-65325771D01*
X123149047Y-65325771D02*
X123244285Y-65373390D01*
X123244285Y-65373390D02*
X123291904Y-65421009D01*
X123291904Y-65421009D02*
X123339523Y-65516247D01*
X123339523Y-65516247D02*
X123339523Y-65754342D01*
X123339523Y-65754342D02*
X123291904Y-65849580D01*
X123291904Y-65849580D02*
X123244285Y-65897200D01*
X123244285Y-65897200D02*
X123149047Y-65944819D01*
X123149047Y-65944819D02*
X122910952Y-65944819D01*
X122910952Y-65944819D02*
X122815714Y-65897200D01*
X122815714Y-65897200D02*
X122768095Y-65849580D01*
D13*
%TO.C,C3*%
X118685000Y-63621252D02*
X118685000Y-63098748D01*
X120155000Y-63621252D02*
X120155000Y-63098748D01*
%TO.C,R1*%
X119902936Y-81985000D02*
X120357064Y-81985000D01*
X119902936Y-83455000D02*
X120357064Y-83455000D01*
%TO.C,C9*%
X141838748Y-78295000D02*
X142361252Y-78295000D01*
X141838748Y-79765000D02*
X142361252Y-79765000D01*
%TO.C,TP1*%
X138320000Y-74780000D02*
G75*
G02*
X135320000Y-74780000I-1500000J0D01*
G01*
X135320000Y-74780000D02*
G75*
G02*
X138320000Y-74780000I1500000J0D01*
G01*
%TO.C,C11*%
X132468748Y-73965000D02*
X132991252Y-73965000D01*
X132468748Y-75435000D02*
X132991252Y-75435000D01*
%TO.C,C10*%
X120035000Y-87508748D02*
X120035000Y-88031252D01*
X118565000Y-87508748D02*
X118565000Y-88031252D01*
%TO.C,C2*%
X120945000Y-63611252D02*
X120945000Y-63088748D01*
X122415000Y-63611252D02*
X122415000Y-63088748D01*
%TO.C,U2*%
X142345000Y-84267500D02*
X142345000Y-88887500D01*
X135575000Y-88887500D02*
X135575000Y-84267500D01*
X141890000Y-82717500D02*
X141650000Y-82387500D01*
X142130000Y-82387500D01*
X141890000Y-82717500D01*
G36*
X141890000Y-82717500D02*
G01*
X141650000Y-82387500D01*
X142130000Y-82387500D01*
X141890000Y-82717500D01*
G37*
%TO.C,C1*%
X119585001Y-67558748D02*
X119585001Y-68081252D01*
X118115001Y-67558748D02*
X118115001Y-68081252D01*
%TO.C,SW1*%
X131970000Y-90710000D02*
X131970000Y-89210000D01*
X130720000Y-86710000D02*
X126220000Y-86710000D01*
X126220000Y-93210000D02*
X130720000Y-93210000D01*
X124970000Y-89210000D02*
X124970000Y-90710000D01*
%TO.C,DUT1*%
X143010000Y-69190000D02*
X143010000Y-76930000D01*
X143010000Y-76930000D02*
X148310000Y-76930000D01*
X144660000Y-69190000D02*
X143010000Y-69190000D01*
X148310000Y-69190000D02*
X146660000Y-69190000D01*
X148310000Y-76930000D02*
X148310000Y-69190000D01*
X140520000Y-69130000D02*
X150800000Y-69130000D01*
X150800000Y-76990000D01*
X140520000Y-76990000D01*
X140520000Y-69130000D01*
X146660000Y-69190000D02*
G75*
G02*
X144660000Y-69190000I-1000000J0D01*
G01*
%TO.C,C6*%
X142361252Y-81912500D02*
X141838748Y-81912500D01*
X142361252Y-80442500D02*
X141838748Y-80442500D01*
%TO.C,C7*%
X150422500Y-85688747D02*
X150422500Y-86211251D01*
X148952500Y-85688747D02*
X148952500Y-86211251D01*
%TO.C,U1*%
X93777500Y-53270000D02*
X93777500Y-51270000D01*
X94097500Y-48460000D02*
X94097500Y-94180000D01*
X114527500Y-45810000D02*
X96747500Y-45810000D01*
X114527500Y-96830000D02*
X96747500Y-96830000D01*
X117177500Y-48460000D02*
X117177500Y-94180000D01*
X94097500Y-48460000D02*
G75*
G02*
X96747500Y-45810000I2650000J0D01*
G01*
X96747500Y-96830000D02*
G75*
G02*
X94097500Y-94180000I0J2650000D01*
G01*
X114527500Y-45810000D02*
G75*
G02*
X117177500Y-48460000I0J-2650000D01*
G01*
X117177500Y-94180000D02*
G75*
G02*
X114527500Y-96830000I-2650000J0D01*
G01*
%TO.C,U4*%
X145637500Y-84339999D02*
X147457500Y-84339999D01*
X145637500Y-84389999D02*
X145637500Y-84339999D01*
X145637500Y-87459999D02*
X145637500Y-87409999D01*
X147457500Y-84339999D02*
X147457500Y-84389999D01*
X147457500Y-85509999D02*
X147457500Y-86289999D01*
X147457500Y-87409999D02*
X147457500Y-87459999D01*
X147457500Y-87459999D02*
X145637500Y-87459999D01*
X145097500Y-84389999D02*
X144857500Y-84059999D01*
X145337500Y-84059999D01*
X145097500Y-84389999D01*
G36*
X145097500Y-84389999D02*
G01*
X144857500Y-84059999D01*
X145337500Y-84059999D01*
X145097500Y-84389999D01*
G37*
%TO.C,C5*%
X122818753Y-73355000D02*
X122296249Y-73355000D01*
X122818753Y-71885000D02*
X122296249Y-71885000D01*
%TO.C,D1*%
X125987500Y-83710000D02*
X125987500Y-81790000D01*
X125987500Y-81790000D02*
X123127500Y-81790000D01*
X123127500Y-83710000D02*
X125987500Y-83710000D01*
%TO.C,U3*%
X130280000Y-70127500D02*
X132100000Y-70127500D01*
X130280000Y-70177500D02*
X130280000Y-70127500D01*
X130280000Y-73247500D02*
X130280000Y-73197500D01*
X132100000Y-70127500D02*
X132100000Y-70177500D01*
X132100000Y-73197500D02*
X132100000Y-73247500D01*
X132100000Y-73247500D02*
X130280000Y-73247500D01*
X129740000Y-70177500D02*
X129500000Y-69847500D01*
X129980000Y-69847500D01*
X129740000Y-70177500D01*
G36*
X129740000Y-70177500D02*
G01*
X129500000Y-69847500D01*
X129980000Y-69847500D01*
X129740000Y-70177500D01*
G37*
%TO.C,C8*%
X142058748Y-67015000D02*
X142581252Y-67015000D01*
X142058748Y-68485000D02*
X142581252Y-68485000D01*
%TO.C,C4*%
X122808753Y-71285000D02*
X122286249Y-71285000D01*
X122808753Y-69815000D02*
X122286249Y-69815000D01*
%TO.C,R2*%
X122375000Y-87532936D02*
X122375000Y-87987064D01*
X120905000Y-87532936D02*
X120905000Y-87987064D01*
D14*
%TO.C,G\u002A\u002A\u002A*%
G36*
X147243950Y-45480319D02*
G01*
X147402418Y-45480674D01*
X147529923Y-45481599D01*
X147630982Y-45483316D01*
X147710114Y-45486049D01*
X147771836Y-45490022D01*
X147820667Y-45495459D01*
X147861125Y-45502583D01*
X147897728Y-45511618D01*
X147934993Y-45522788D01*
X147940000Y-45524370D01*
X148126597Y-45600304D01*
X148303873Y-45704485D01*
X148464430Y-45830986D01*
X148600874Y-45973876D01*
X148705808Y-46127228D01*
X148716231Y-46146626D01*
X148729974Y-46178433D01*
X148756840Y-46245933D01*
X148796137Y-46347278D01*
X148847173Y-46480621D01*
X148909258Y-46644115D01*
X148981699Y-46835913D01*
X149063806Y-47054168D01*
X149154888Y-47297034D01*
X149254252Y-47562662D01*
X149361208Y-47849207D01*
X149475063Y-48154821D01*
X149595128Y-48477656D01*
X149720711Y-48815867D01*
X149851119Y-49167606D01*
X149985663Y-49531026D01*
X150123650Y-49904280D01*
X150192235Y-50090000D01*
X151598763Y-53900000D01*
X151598337Y-54060000D01*
X151585130Y-54204005D01*
X151544233Y-54321731D01*
X151472462Y-54418114D01*
X151366634Y-54498092D01*
X151290000Y-54538163D01*
X151268545Y-54547612D01*
X151245970Y-54555520D01*
X151218702Y-54562025D01*
X151183174Y-54567263D01*
X151135816Y-54571371D01*
X151073058Y-54574486D01*
X150991331Y-54576745D01*
X150887065Y-54578285D01*
X150756691Y-54579244D01*
X150596640Y-54579758D01*
X150403341Y-54579964D01*
X150200000Y-54580000D01*
X149974026Y-54579958D01*
X149784256Y-54579733D01*
X149626893Y-54579174D01*
X149498142Y-54578133D01*
X149394206Y-54576458D01*
X149311290Y-54574000D01*
X149245596Y-54570609D01*
X149193329Y-54566135D01*
X149150692Y-54560428D01*
X149113889Y-54553339D01*
X149079125Y-54544716D01*
X149042602Y-54534411D01*
X149042099Y-54534265D01*
X148779642Y-54439279D01*
X148534420Y-54312637D01*
X148310325Y-54157397D01*
X148111247Y-53976617D01*
X147941079Y-53773355D01*
X147813061Y-53568486D01*
X147784879Y-53507641D01*
X147746476Y-53412642D01*
X147699344Y-53287579D01*
X147644978Y-53136544D01*
X147584872Y-52963628D01*
X147520519Y-52772923D01*
X147500283Y-52711869D01*
X147431755Y-52505731D01*
X147373596Y-52334590D01*
X147324433Y-52195208D01*
X147282888Y-52084348D01*
X147247585Y-51998770D01*
X147217148Y-51935236D01*
X147190201Y-51890508D01*
X147165369Y-51861346D01*
X147141274Y-51844514D01*
X147129770Y-51839927D01*
X147075314Y-51842262D01*
X147016045Y-51876890D01*
X146960433Y-51938372D01*
X146948837Y-51956086D01*
X146934238Y-51988555D01*
X146908864Y-52054710D01*
X146874245Y-52150175D01*
X146831911Y-52270575D01*
X146783392Y-52411536D01*
X146730219Y-52568682D01*
X146673921Y-52737638D01*
X146648372Y-52815151D01*
X146589893Y-52991416D01*
X146532637Y-53160712D01*
X146478336Y-53318151D01*
X146428721Y-53458845D01*
X146385523Y-53577909D01*
X146350475Y-53670454D01*
X146325306Y-53731595D01*
X146318909Y-53745151D01*
X146203063Y-53931747D01*
X146053435Y-54104287D01*
X145874996Y-54258618D01*
X145672720Y-54390584D01*
X145451579Y-54496029D01*
X145394585Y-54517525D01*
X145220000Y-54580000D01*
X144300000Y-54583852D01*
X144060573Y-54584523D01*
X143858426Y-54584328D01*
X143690848Y-54583212D01*
X143555127Y-54581118D01*
X143448551Y-54577991D01*
X143368409Y-54573774D01*
X143311989Y-54568411D01*
X143280000Y-54562747D01*
X143128578Y-54506617D01*
X143004239Y-54422228D01*
X142909141Y-54312607D01*
X142845443Y-54180780D01*
X142815303Y-54029775D01*
X142815543Y-53911499D01*
X142819170Y-53888390D01*
X142827688Y-53851783D01*
X142841553Y-53800297D01*
X142861219Y-53732548D01*
X142887141Y-53647152D01*
X142919775Y-53542728D01*
X142959576Y-53417891D01*
X143006997Y-53271258D01*
X143062496Y-53101448D01*
X143126525Y-52907075D01*
X143199541Y-52686759D01*
X143281998Y-52439115D01*
X143374351Y-52162760D01*
X143477056Y-51856312D01*
X143590566Y-51518387D01*
X143715339Y-51147603D01*
X143715350Y-51147571D01*
X146070000Y-51147571D01*
X146070000Y-51469517D01*
X146385000Y-51221165D01*
X146480778Y-51146504D01*
X146565391Y-51082175D01*
X146634075Y-51031664D01*
X146682066Y-50998459D01*
X146704601Y-50986047D01*
X146705652Y-50986406D01*
X146715081Y-51009125D01*
X146736693Y-51061219D01*
X146767348Y-51135116D01*
X146803904Y-51223243D01*
X146806707Y-51230000D01*
X146902109Y-51460000D01*
X147123933Y-51465635D01*
X147345757Y-51471270D01*
X147405233Y-51305635D01*
X147436090Y-51219614D01*
X147465166Y-51138410D01*
X147487282Y-51076491D01*
X147491372Y-51065000D01*
X147511110Y-51017683D01*
X147527617Y-50991707D01*
X147530965Y-50990000D01*
X147551803Y-51002872D01*
X147599542Y-51039834D01*
X147671185Y-51098402D01*
X147763736Y-51176092D01*
X147874198Y-51270423D01*
X147985000Y-51366233D01*
X148110000Y-51474884D01*
X148110000Y-51153644D01*
X148110000Y-50832404D01*
X147871441Y-50556691D01*
X147632883Y-50280978D01*
X147624928Y-49520489D01*
X147622842Y-49325940D01*
X147620851Y-49166701D01*
X147618647Y-49038084D01*
X147615923Y-48935400D01*
X147612373Y-48853962D01*
X147607688Y-48789081D01*
X147601562Y-48736069D01*
X147593687Y-48690238D01*
X147583757Y-48646900D01*
X147571463Y-48601367D01*
X147562669Y-48570500D01*
X147527064Y-48461251D01*
X147481265Y-48341206D01*
X147433873Y-48232559D01*
X147423145Y-48210500D01*
X147383653Y-48136616D01*
X147334610Y-48052437D01*
X147280503Y-47964783D01*
X147225821Y-47880472D01*
X147175051Y-47806322D01*
X147132683Y-47749150D01*
X147103203Y-47715775D01*
X147093685Y-47710006D01*
X147072143Y-47726656D01*
X147036012Y-47772259D01*
X146989229Y-47840315D01*
X146935728Y-47924326D01*
X146879443Y-48017791D01*
X146824309Y-48114211D01*
X146774260Y-48207086D01*
X146733232Y-48289916D01*
X146709562Y-48344544D01*
X146675197Y-48434627D01*
X146646963Y-48515866D01*
X146624263Y-48593463D01*
X146606498Y-48672620D01*
X146593070Y-48758541D01*
X146583381Y-48856429D01*
X146576832Y-48971488D01*
X146572825Y-49108919D01*
X146570762Y-49273926D01*
X146570044Y-49471712D01*
X146570000Y-49558210D01*
X146570000Y-50268107D01*
X146320000Y-50546866D01*
X146070000Y-50825625D01*
X146070000Y-51147571D01*
X143715350Y-51147571D01*
X143823841Y-50825625D01*
X143851827Y-50742576D01*
X144000486Y-50301923D01*
X144098297Y-50012205D01*
X144225703Y-49635262D01*
X144350252Y-49267457D01*
X144471296Y-48910671D01*
X144588190Y-48566779D01*
X144700290Y-48237660D01*
X144806948Y-47925193D01*
X144907521Y-47631255D01*
X145001361Y-47357723D01*
X145087825Y-47106477D01*
X145166265Y-46879394D01*
X145236036Y-46678352D01*
X145296494Y-46505229D01*
X145346992Y-46361902D01*
X145386885Y-46250251D01*
X145415527Y-46172152D01*
X145432273Y-46129484D01*
X145435027Y-46123595D01*
X145535373Y-45972764D01*
X145667975Y-45830850D01*
X145825184Y-45704053D01*
X145999347Y-45598574D01*
X146176515Y-45522740D01*
X146210301Y-45511845D01*
X146244302Y-45503003D01*
X146282951Y-45495999D01*
X146330683Y-45490615D01*
X146391935Y-45486638D01*
X146471140Y-45483852D01*
X146572733Y-45482041D01*
X146701150Y-45480990D01*
X146860825Y-45480484D01*
X147050000Y-45480309D01*
X147243950Y-45480319D01*
G37*
D13*
%TO.C,U5*%
X121820000Y-66580000D02*
X123230000Y-66580000D01*
X121830000Y-68900000D02*
X123230000Y-68900000D01*
X121450000Y-66630000D02*
X121210000Y-66300000D01*
X121690000Y-66300000D01*
X121450000Y-66630000D01*
G36*
X121450000Y-66630000D02*
G01*
X121210000Y-66300000D01*
X121690000Y-66300000D01*
X121450000Y-66630000D01*
G37*
%TD*%
M02*
