M48
; DRILL file {KiCad 9.0.7} date 2026-03-23T18:14:08-0400
; FORMAT={-:-/ absolute / metric / decimal}
; #@! TF.CreationDate,2026-03-23T18:14:08-04:00
; #@! TF.GenerationSoftware,Kicad,Pcbnew,9.0.7
; #@! TF.FileFunction,Plated,1,4,PTH
FMAT,2
METRIC
; #@! TA.AperFunction,Plated,PTH,ViaDrill
T1C0.400
; #@! TA.AperFunction,Plated,PTH,ComponentDrill
T2C0.800
; #@! TA.AperFunction,Plated,PTH,ComponentDrill
T3C1.000
; #@! TA.AperFunction,Plated,PTH,ComponentDrill
T4C1.100
%
G90
G05
T1
X120.5Y-88.76
X120.53Y-62.312
X121.51Y-76.45
X121.52Y-69.45
X123.595Y-69.43
X124.07Y-77.67
X126.07Y-82.75
X131.692Y-73.47
X131.82Y-79.83
X133.257Y-71.688
X134.916Y-70.553
X135.553Y-73.803
X135.769Y-75.987
X136.02Y-78.02
X136.714Y-79.376
X136.991Y-72.629
X137.804Y-80.466
X137.854Y-73.559
X137.985Y-86.085
X138.026Y-78.424
X138.418Y-76.7
X138.485Y-81.71
X138.52Y-91.4
X138.568Y-74.5
X139.156Y-79.554
X139.28Y-87.06
X139.76Y-76.7
X139.78Y-74.5
X140.91Y-82.52
X141.22Y-88.21
X142.292Y-82.022
X144.55Y-67.67
X146.5Y-86.85
X148.67Y-84.98
T2
X141.85Y-70.52
X141.85Y-73.06
X141.85Y-75.6
X149.47Y-70.52
X149.47Y-73.06
X149.47Y-75.6
T3
X95.477Y-52.27
X95.477Y-54.81
X95.477Y-57.35
X95.477Y-59.89
X95.477Y-62.43
X95.477Y-64.97
X95.477Y-67.51
X95.477Y-70.05
X95.477Y-72.59
X95.477Y-75.13
X95.477Y-77.67
X95.477Y-80.21
X95.477Y-82.75
X95.477Y-85.29
X95.477Y-87.83
X95.477Y-90.37
X115.797Y-62.43
X115.797Y-64.97
X115.797Y-67.51
X115.797Y-70.05
X115.797Y-72.59
X115.797Y-75.13
X115.797Y-77.67
X115.797Y-80.21
X115.797Y-82.75
X115.797Y-85.29
X115.797Y-87.83
X115.797Y-90.37
X136.82Y-74.78
T4
X125.22Y-87.71
X125.22Y-92.21
X131.72Y-87.71
X131.72Y-92.21
M30
